<svg width="1206" height="793" viewBox="0 0 1206 793" fill="none" xmlns="http://www.w3.org/2000/svg">
<g clip-path="url(#clip0_45_34042)">
<path fill-rule="evenodd" clip-rule="evenodd" d="M998.247 949.045C946.853 961.065 197.963 955.055 1.50761e-05 941.99C1.63158 917.689 2.99122 893.387 4.35086 869.086L75.3239 863.338L5.43849 848.443C11.9648 730.335 16.5876 611.18 18.763 492.026L56.561 480.268L19.0349 469.032C22.0261 298.923 20.3946 128.554 13.8683 -41.0317C43.7804 -81.5337 73.9644 -121.774 103.876 -162.276C116.657 -167.502 995.8 -157.834 1198.66 -150.518C1195.12 -95.644 1192.4 -41.0317 1190.23 13.8419L1162.76 29.5201L1175 44.153L1172.82 55.3891L1188.32 65.0573C1182.34 241.959 1183.16 418.339 1190.23 593.673L1169.56 603.341L1179.89 620.326L1150.53 633.652L1192.4 643.321C1195.94 716.224 1200.29 788.866 1206 861.509C1136.93 890.775 1067.59 920.04 998.519 949.306L998.247 949.045Z" fill="url(#paint0_linear_45_34042)"/>
<path style="mix-blend-mode:screen" opacity="0.5" fill-rule="evenodd" clip-rule="evenodd" d="M973.499 926.582C997.429 915.868 1007.22 897.055 1020.27 866.482C1058.07 778.946 1107.56 794.624 1146.99 770.845C1173.37 754.906 1181.8 706.826 1132.85 642.284C1087.71 582.446 1169.56 516.598 1166.84 391.695C1164.94 311.736 1120.34 185.265 1113 148.16C1106.2 113.668 1097.77 95.3772 1131.76 46.2522C1144.81 27.4384 1130.13 18.5541 1162.22 -29.5257C1179.08 -54.6107 1173.64 -72.3794 1157.32 -85.4445C1105.93 -125.946 1011.57 -136.399 918.842 -125.946C658.879 -96.1579 643.107 -78.128 422.846 -119.153C364.653 -129.866 343.986 -126.992 306.46 -130.911C277.364 -134.047 247.18 -138.75 222.163 -131.434C170.225 -116.54 194.698 -66.892 149.83 -36.5808C85.3831 7.05675 15.2257 -53.8268 47.3132 73.1664C63.3569 137.186 82.12 211.396 51.936 290.57C43.2343 313.304 43.2343 371.052 53.2956 392.217C92.4533 476.357 128.892 463.292 76.6815 511.371C34.2607 550.567 94.0848 582.969 63.3569 626.867C33.7168 669.46 47.857 710.746 80.7603 797.498C85.1112 809.257 63.0851 823.89 104.418 846.884C133.242 863.085 31.2695 909.336 261.864 909.336C327.399 909.336 347.522 932.592 413.6 930.501C471.521 928.934 511.766 931.808 557.178 934.421C639.844 939.647 723.598 920.833 735.563 921.094C830.737 924.23 896.544 960.813 973.771 926.321L973.499 926.582Z" fill="url(#paint1_radial_45_34042)"/>
<path style="mix-blend-mode:screen" opacity="0.5" fill-rule="evenodd" clip-rule="evenodd" d="M1075.74 760.123C1107.56 732.687 1122.79 711.782 1100.76 635.221C1068.4 521.554 1132.03 492.81 1138.83 421.997C1147.81 331.325 1140.46 375.747 1106.47 311.466C1085.53 272.01 1141.55 259.467 1076.29 185.257C1027.89 129.861 1039.58 84.9166 1083.63 34.2238C1119.53 -6.80072 1123.6 -62.9808 1085.26 -90.1563C1025.44 -132.487 956.912 -84.669 909.869 -81.7947C895.729 -81.0107 877.781 -84.1464 847.869 -95.1211C814.15 -107.664 727.677 -72.3878 661.871 -61.1517C586.818 -48.0866 521.556 -49.6544 424.206 -98.518C339.092 -141.372 220.532 -82.8399 196.602 -39.9862C190.076 -28.2276 145.208 -38.1571 137.05 28.4752C133.515 57.4798 58.4626 76.0323 103.059 154.423C111.217 168.795 116.927 251.889 102.243 276.713C85.6554 305.195 85.6554 368.953 103.059 393.515C152.278 463.283 81.8485 520.77 118.015 571.463C154.725 622.939 123.453 663.964 123.453 703.159C123.453 785.731 153.909 735.561 136.778 816.303C121.822 886.594 182.19 896.262 245.821 882.152C288.242 872.745 348.882 908.021 413.872 911.156C492.188 914.815 509.863 877.71 576.485 889.468C678.186 907.237 716.8 850.273 787.501 894.694C841.615 928.664 894.097 920.302 918.027 897.307C948.211 867.78 912.86 904.624 959.904 842.695C1005.04 782.857 1059.43 773.972 1075.47 760.123H1075.74Z" fill="url(#paint2_radial_45_34042)"/>
</g>
<defs>
<linearGradient id="paint0_linear_45_34042" x1="602.864" y1="955.316" x2="602.864" y2="-163.844" gradientUnits="userSpaceOnUse">
<stop stop-color="#EDD6B9"/>
<stop offset="1" stop-color="#D4B492"/>
</linearGradient>
<radialGradient id="paint1_radial_45_34042" cx="0" cy="0" r="1" gradientUnits="userSpaceOnUse" gradientTransform="translate(606.125 402.931) rotate(180) scale(1138.29 1093.81)">
<stop stop-color="#CA9E67"/>
<stop offset="1"/>
</radialGradient>
<radialGradient id="paint2_radial_45_34042" cx="0" cy="0" r="1" gradientUnits="userSpaceOnUse" gradientTransform="translate(615.915 401.877) rotate(180) scale(934.616 898.098)">
<stop stop-color="#CA9E67"/>
<stop offset="1"/>
</radialGradient>
<clipPath id="clip0_45_34042">
<rect width="1206" height="793" fill="white" transform="matrix(-1 0 0 1 1206 0)"/>
</clipPath>
</defs>
</svg>
