<svg width="399" height="50" viewBox="0 0 399 50" fill="none" xmlns="http://www.w3.org/2000/svg">
<g clip-path="url(#clip0_310_6610)">
<path fill-rule="evenodd" clip-rule="evenodd" d="M330.266 339.62C313.262 343.288 65.4954 341.454 -6.58551e-06 337.467C0.53979 330.051 0.98962 322.635 1.43945 315.219L24.9206 313.465L1.79929 308.92C3.95848 272.876 5.48792 236.514 6.20765 200.152L18.7129 196.563L6.2976 193.134C7.28723 141.222 6.74744 89.2307 4.58825 37.4783C14.4845 25.1183 24.4708 12.838 34.3671 0.478021C38.5955 -1.11682 329.456 1.83363 396.571 4.06641C395.401 20.8122 394.502 37.4783 393.782 54.224L384.695 59.0086L388.744 63.4741L388.024 66.903L393.152 69.8535C391.173 123.839 391.443 177.664 393.782 231.171L386.945 234.122L390.363 239.305L380.647 243.372L394.502 246.322C395.671 268.57 397.111 290.738 399 312.907C376.149 321.838 353.207 330.769 330.356 339.7L330.266 339.62Z" fill="url(#paint0_linear_310_6610)"/>
<path style="mix-blend-mode:multiply" fill-rule="evenodd" clip-rule="evenodd" d="M4.67746 37.3987C11.5149 34.528 40.8439 30.3016 42.1934 27.5904C43.273 25.5171 36.0757 7.73469 34.5463 0.398438C24.65 12.7584 14.6637 25.0387 4.76745 37.3987H4.67746Z" fill="url(#paint1_radial_310_6610)"/>
<path fill-rule="evenodd" clip-rule="evenodd" d="M4.67905 37.3987C16.4646 32.6939 28.2502 28.1486 39.5859 22.6464C37.3368 15.3102 35.8973 7.89417 34.5479 0.398438C31.6689 0.398438 4.76903 34.6077 4.76903 37.3987H4.67905Z" fill="url(#paint2_linear_310_6610)"/>
<path style="mix-blend-mode:screen" fill-rule="evenodd" clip-rule="evenodd" d="M34.9077 20.1744C31.489 27.2714 16.3747 32.2154 7.19813 34.209C6.83826 34.209 6.47839 34.3685 6.20849 34.4482C5.21886 35.9633 4.67905 37 4.67905 37.3987C4.94895 37.3189 5.30882 37.1594 5.66868 37C17.0944 32.4547 28.6101 27.9891 39.5859 22.6464C37.3368 15.3102 35.8973 7.89417 34.5479 0.398438C34.3679 0.398438 34.098 0.557921 33.7382 0.797147C33.7382 0.956631 33.8281 1.03637 33.9181 1.19586C35.8073 6.21959 37.3368 15.3899 34.9077 20.1744Z" fill="url(#paint3_radial_310_6610)"/>
<path style="mix-blend-mode:screen" opacity="0.5" fill-rule="evenodd" clip-rule="evenodd" d="M322.08 332.763C329.997 329.493 333.235 323.752 337.554 314.422C350.059 287.708 366.433 292.493 379.478 285.236C388.205 280.372 390.994 265.7 374.8 246.003C359.865 227.742 386.945 207.648 386.045 169.531C385.416 145.13 370.661 106.535 368.232 95.2115C365.983 84.6856 363.194 79.1036 374.44 64.1122C378.758 58.3707 373.9 55.6595 384.516 40.987C390.094 33.3318 388.295 27.9093 382.897 23.9222C365.893 11.5623 334.675 8.37258 303.996 11.5623C217.989 20.6528 212.771 26.155 139.898 13.6355C120.645 10.3661 113.808 11.2433 101.392 10.0472C91.7661 9.09026 81.7798 7.6549 73.5029 9.88768C56.3194 14.433 64.4164 29.5839 49.5719 38.834C28.25 52.1509 5.03867 33.571 15.6547 72.3256C20.9627 91.8623 27.1704 114.509 17.1841 138.671C14.3052 145.608 14.3052 163.231 17.6339 169.69C30.5891 195.367 42.6446 191.38 25.371 206.053C11.3363 218.014 31.1289 227.902 20.9627 241.299C11.1564 254.297 15.8346 266.896 26.7205 293.37C28.16 296.958 20.8727 301.424 34.5476 308.441C44.084 313.385 10.3467 327.5 86.638 327.5C108.32 327.5 114.977 334.597 136.839 333.959C156.002 333.48 169.317 334.357 184.341 335.155C211.691 336.75 239.401 331.008 243.359 331.088C274.847 332.045 296.619 343.209 322.169 332.683L322.08 332.763Z" fill="url(#paint4_radial_310_6610)"/>
<path style="mix-blend-mode:screen" opacity="0.5" fill-rule="evenodd" clip-rule="evenodd" d="M355.906 281.967C366.432 273.594 371.47 267.215 364.183 243.85C353.477 209.163 374.529 200.391 376.778 178.781C379.747 151.111 377.318 164.667 366.072 145.05C359.145 133.009 377.678 129.182 356.086 106.535C340.072 89.6296 343.94 75.914 358.515 60.4441C370.39 47.9246 371.74 30.7801 359.055 22.487C339.262 9.56878 316.591 24.1615 301.026 25.0387C296.348 25.2779 290.41 24.321 280.514 20.9719C269.358 17.1443 240.749 27.9094 218.977 31.3383C194.147 35.3254 172.555 34.847 140.347 19.9352C112.187 6.85756 72.9622 24.7197 65.0451 37.7974C62.886 41.3858 48.0415 38.3556 45.3425 58.6898C44.173 67.5411 19.3423 73.2028 34.0968 97.1254C36.7957 101.511 38.685 126.869 33.8269 134.445C28.3389 143.136 28.3389 162.593 34.0968 170.089C50.3806 191.38 27.0794 208.923 39.0449 224.393C51.1904 240.103 40.8442 252.622 40.8442 264.583C40.8442 289.782 50.9204 274.471 45.2526 299.112C40.3044 320.562 60.2769 323.513 81.329 319.206C95.3637 316.336 115.426 327.101 136.928 328.058C162.838 329.174 168.686 317.851 190.728 321.439C224.375 326.862 237.15 309.478 260.542 323.034C278.445 333.401 295.808 330.849 303.725 323.832C313.712 314.821 302.016 326.064 317.58 307.165C332.515 288.905 350.508 286.193 355.816 281.967H355.906Z" fill="url(#paint5_radial_310_6610)"/>
</g>
<defs>
<linearGradient id="paint0_linear_310_6610" x1="199.455" y1="341.534" x2="199.455" y2="-0.000421526" gradientUnits="userSpaceOnUse">
<stop stop-color="#EDD6B9"/>
<stop offset="1" stop-color="#D4B492"/>
</linearGradient>
<radialGradient id="paint1_radial_310_6610" cx="0" cy="0" r="1" gradientUnits="userSpaceOnUse" gradientTransform="translate(9.89551 16.4266) rotate(180) scale(35.8066 31.7373)">
<stop stop-color="#A48A7B"/>
<stop offset="1" stop-color="white"/>
</radialGradient>
<linearGradient id="paint2_linear_310_6610" x1="16.3747" y1="16.1076" x2="29.8327" y2="31.2912" gradientUnits="userSpaceOnUse">
<stop stop-color="#BF9F7E"/>
<stop offset="1" stop-color="#EDD6B9"/>
</linearGradient>
<radialGradient id="paint3_radial_310_6610" cx="0" cy="0" r="1" gradientUnits="userSpaceOnUse" gradientTransform="translate(-2.15838 -11.0844) rotate(180) scale(69.4539 61.5607)">
<stop/>
<stop offset="1" stop-color="#A3805F"/>
</radialGradient>
<radialGradient id="paint4_radial_310_6610" cx="0" cy="0" r="1" gradientUnits="userSpaceOnUse" gradientTransform="translate(200.535 172.96) rotate(180) scale(376.598 333.8)">
<stop stop-color="#CA9E67"/>
<stop offset="1"/>
</radialGradient>
<radialGradient id="paint5_radial_310_6610" cx="0" cy="0" r="1" gradientUnits="userSpaceOnUse" gradientTransform="translate(203.773 172.641) rotate(180) scale(309.214 274.073)">
<stop stop-color="#CA9E67"/>
<stop offset="1"/>
</radialGradient>
<clipPath id="clip0_310_6610">
<rect width="399" height="50" fill="white" transform="matrix(-1 0 0 1 399 0)"/>
</clipPath>
</defs>
</svg>
