<svg width="399" height="50" viewBox="0 0 399 50" fill="none" xmlns="http://www.w3.org/2000/svg">
<g clip-path="url(#clip0_310_6636)">
<path fill-rule="evenodd" clip-rule="evenodd" d="M330.266 47.6202C313.262 51.2883 65.4954 49.4543 -6.58551e-06 45.4672C0.53979 38.0512 0.98962 30.6352 1.43945 23.2192L24.9206 21.4649L1.79929 16.9196C3.95848 -19.1237 5.48792 -55.486 6.20765 -91.8483L18.7129 -95.4367L6.2976 -98.8656C7.28723 -150.778 6.74744 -202.769 4.58825 -254.522C14.4845 -266.882 24.4708 -279.162 34.3671 -291.522C38.5955 -293.117 329.456 -290.166 396.571 -287.934C395.401 -271.188 394.502 -254.522 393.782 -237.776L384.695 -232.991L388.744 -228.526L388.024 -225.097L393.152 -222.147C391.173 -168.161 391.443 -114.336 393.782 -60.8287L386.945 -57.8783L390.363 -52.695L380.647 -48.6282L394.502 -45.6778C395.671 -23.4298 397.111 -1.26154 399 20.9067C376.149 29.8378 353.207 38.7689 330.356 47.7L330.266 47.6202Z" fill="url(#paint0_linear_310_6636)"/>
<path style="mix-blend-mode:multiply" fill-rule="evenodd" clip-rule="evenodd" d="M330.356 47.541C353.207 38.6099 376.149 29.6788 399 20.7477C396.841 17.7972 375.429 2.80573 372.55 2.56651C369.761 2.32728 337.463 42.0388 330.356 47.541Z" fill="url(#paint1_radial_310_6636)"/>
<path fill-rule="evenodd" clip-rule="evenodd" d="M376.598 8.86621C362.114 22.1034 345.29 36.6961 330.266 47.541C335.304 47.541 399 25.2133 399 20.7478C392.163 16.2822 384.785 12.2154 376.598 8.86621Z" fill="url(#paint2_linear_310_6636)"/>
<path style="mix-blend-mode:screen" fill-rule="evenodd" clip-rule="evenodd" d="M344.571 42.0382C348.529 29.3592 379.298 13.8893 389.734 15.2449C385.595 12.9324 381.187 10.8591 376.599 8.94531C362.204 22.1027 345.381 36.6955 330.356 47.5404C330.356 47.5404 330.356 47.5404 330.266 47.6201C331.616 47.6201 337.014 46.105 344.211 43.7127C344.211 43.1546 344.391 42.5964 344.571 42.0382Z" fill="url(#paint3_radial_310_6636)"/>
<path style="mix-blend-mode:screen" opacity="0.5" fill-rule="evenodd" clip-rule="evenodd" d="M322.078 40.7625C329.995 37.4931 333.234 31.7517 337.552 22.4219C350.058 -4.29163 366.431 0.492884 379.476 -6.76363C388.203 -11.6279 390.992 -26.3004 374.798 -45.9966C359.864 -64.2575 386.944 -84.3525 386.044 -122.469C385.414 -146.87 370.66 -185.465 368.231 -196.789C365.982 -207.314 363.193 -212.896 374.438 -227.888C378.757 -233.629 373.899 -236.34 384.515 -251.013C390.092 -258.668 388.293 -264.091 382.895 -268.078C365.892 -280.438 334.673 -283.627 303.995 -280.438C217.987 -271.347 212.769 -265.845 139.897 -278.364C120.644 -281.634 113.806 -280.757 101.391 -281.953C91.7646 -282.91 81.7784 -284.345 73.5015 -282.112C56.3179 -277.567 64.4149 -262.416 49.5705 -253.166C28.2485 -239.849 5.03721 -258.429 15.6532 -219.674C20.9612 -200.138 27.1689 -177.491 17.1827 -153.329C14.3037 -146.392 14.3037 -128.769 17.6325 -122.31C30.5876 -96.6327 42.6431 -100.62 25.3696 -85.9473C11.3349 -73.986 31.1274 -64.098 20.9612 -50.7014C11.1549 -37.7035 15.8331 -25.1043 26.7191 1.37005C28.1585 4.95843 20.8713 9.42397 34.5461 16.4413C44.0826 21.3853 10.3452 35.4996 86.6365 35.4996C108.318 35.4996 114.976 42.5966 136.838 41.9587C156 41.4802 169.315 42.3574 184.34 43.1548C211.69 44.7496 239.399 39.0082 243.358 39.088C274.846 40.0449 296.618 51.2087 322.168 40.6828L322.078 40.7625Z" fill="url(#paint4_radial_310_6636)"/>
<path style="mix-blend-mode:screen" opacity="0.5" fill-rule="evenodd" clip-rule="evenodd" d="M355.906 -10.033C366.432 -18.4058 371.47 -24.7852 364.183 -48.1496C353.477 -82.8373 374.529 -91.6089 376.778 -113.219C379.747 -140.889 377.318 -127.333 366.072 -146.95C359.145 -158.991 377.678 -162.818 356.086 -185.465C340.072 -202.37 343.94 -216.086 358.515 -231.556C370.39 -244.075 371.74 -261.22 359.055 -269.513C339.262 -282.431 316.591 -267.838 301.026 -266.961C296.348 -266.722 290.41 -267.679 280.514 -271.028C269.358 -274.856 240.749 -264.091 218.977 -260.662C194.147 -256.675 172.555 -257.153 140.347 -272.065C112.187 -285.142 72.9622 -267.28 65.0451 -254.203C62.886 -250.614 48.0415 -253.644 45.3425 -233.31C44.173 -224.459 19.3423 -218.797 34.0968 -194.875C36.7957 -190.489 38.685 -165.131 33.8269 -157.555C28.3389 -148.864 28.3389 -129.407 34.0968 -121.911C50.3806 -100.62 27.0794 -83.0765 39.0449 -67.6066C51.1904 -51.8974 40.8442 -39.378 40.8442 -27.4167C40.8442 -2.21825 50.9204 -17.5287 45.2526 7.11154C40.3044 28.5621 60.2769 31.5126 81.329 27.2065C95.3637 24.3358 115.426 35.1009 136.928 36.0578C162.838 37.1742 168.686 25.8509 190.728 29.4393C224.375 34.8617 237.15 17.478 260.542 31.0341C278.445 41.4005 295.808 38.8488 303.725 31.8315C313.712 22.8207 302.016 34.0643 317.58 15.1655C332.515 -3.09541 350.508 -5.80663 355.816 -10.033H355.906Z" fill="url(#paint5_radial_310_6636)"/>
</g>
<defs>
<linearGradient id="paint0_linear_310_6636" x1="199.455" y1="49.534" x2="199.455" y2="-292" gradientUnits="userSpaceOnUse">
<stop stop-color="#EDD6B9"/>
<stop offset="1" stop-color="#D4B492"/>
</linearGradient>
<radialGradient id="paint1_radial_310_6636" cx="0" cy="0" r="1" gradientUnits="userSpaceOnUse" gradientTransform="translate(373.27 51.2888) rotate(180) scale(62.7064 55.5801)">
<stop stop-color="#A48A7B"/>
<stop offset="1" stop-color="white"/>
</radialGradient>
<linearGradient id="paint2_linear_310_6636" x1="365.623" y1="36.2177" x2="357.948" y2="15.931" gradientUnits="userSpaceOnUse">
<stop stop-color="#BF9F7E"/>
<stop offset="1" stop-color="#EDD6B9"/>
</linearGradient>
<radialGradient id="paint3_radial_310_6636" cx="0" cy="0" r="1" gradientUnits="userSpaceOnUse" gradientTransform="translate(383.616 76.4069) rotate(180) scale(105.89 93.8562)">
<stop/>
<stop offset="1" stop-color="#A3805F"/>
</radialGradient>
<radialGradient id="paint4_radial_310_6636" cx="0" cy="0" r="1" gradientUnits="userSpaceOnUse" gradientTransform="translate(200.534 -119.04) rotate(180) scale(376.598 333.8)">
<stop stop-color="#CA9E67"/>
<stop offset="1"/>
</radialGradient>
<radialGradient id="paint5_radial_310_6636" cx="0" cy="0" r="1" gradientUnits="userSpaceOnUse" gradientTransform="translate(203.773 -119.359) rotate(180) scale(309.214 274.073)">
<stop stop-color="#CA9E67"/>
<stop offset="1"/>
</radialGradient>
<clipPath id="clip0_310_6636">
<rect width="399" height="50" fill="white" transform="matrix(-1 0 0 1 399 0)"/>
</clipPath>
</defs>
</svg>
