<svg width="399" height="30" viewBox="0 0 399 30" fill="none" xmlns="http://www.w3.org/2000/svg">
<g clip-path="url(#clip0_310_6623)">
<path fill-rule="evenodd" clip-rule="evenodd" d="M330.266 35.9033C313.262 36.3581 65.4954 36.1307 -6.58551e-06 35.6364C0.53979 34.7171 0.98962 33.7978 1.43945 32.8784L24.9206 32.6609L1.79929 32.0975C3.95848 27.6293 5.48792 23.1216 6.20765 18.6139L18.7129 18.169L6.2976 17.7439C7.28723 11.3086 6.74744 4.86332 4.58825 -1.55228C14.4845 -3.08451 24.4708 -4.60685 34.3671 -6.13908C38.5955 -6.33679 329.456 -5.97103 396.571 -5.69424C395.401 -3.61831 394.502 -1.55227 393.782 0.52365L384.695 1.11677L388.744 1.67035L388.024 2.09542L393.152 2.46118C391.173 9.15357 391.443 15.8262 393.782 22.4593L386.945 22.825L390.363 23.4676L380.647 23.9717L394.502 24.3375C395.671 27.0955 397.111 29.8436 399 32.5917C376.149 33.6989 353.207 34.8061 330.356 35.9132L330.266 35.9033Z" fill="url(#paint0_linear_310_6623)"/>
<path style="mix-blend-mode:screen" opacity="0.5" fill-rule="evenodd" clip-rule="evenodd" d="M322.078 35.0535C329.995 34.6482 333.234 33.9365 337.552 32.7799C350.058 29.4683 366.431 30.0614 379.476 29.1618C388.203 28.5588 390.992 26.7399 374.798 24.2983C359.864 22.0345 386.944 19.5434 386.044 14.8182C385.414 11.7933 370.66 7.00876 368.231 5.60504C365.982 4.30017 363.193 3.6082 374.438 1.74975C378.757 1.038 373.899 0.7019 384.515 -1.11701C390.092 -2.066 388.293 -2.7382 382.895 -3.23247C365.892 -4.7647 334.673 -5.16012 303.995 -4.7647C217.987 -3.63777 212.769 -2.95568 139.897 -4.50768C120.644 -4.91298 113.806 -4.80424 101.391 -4.95252C91.7646 -5.07115 81.7784 -5.24909 73.5015 -4.9723C56.3179 -4.40883 64.4149 -2.53061 49.5705 -1.38391C28.2485 0.266944 5.03721 -2.03634 15.6532 2.76794C20.9612 5.18985 27.1689 7.99729 17.1827 10.9926C14.3037 11.8526 14.3037 14.0372 17.6325 14.838C30.5876 18.021 42.6431 17.5268 25.3696 19.3457C11.3349 20.8285 31.1274 22.0543 20.9612 23.715C11.1549 25.3263 15.8331 26.8882 26.7191 30.1702C28.1585 30.615 20.8713 31.1686 34.5461 32.0385C44.0826 32.6514 10.3452 34.4011 86.6365 34.4011C108.318 34.4011 114.976 35.2809 136.838 35.2018C156 35.1425 169.315 35.2512 184.34 35.3501C211.69 35.5478 239.399 34.836 243.358 34.8459C274.846 34.9646 296.618 36.3485 322.168 35.0436L322.078 35.0535Z" fill="url(#paint1_radial_310_6623)"/>
<path style="mix-blend-mode:screen" opacity="0.5" fill-rule="evenodd" clip-rule="evenodd" d="M355.906 28.7563C366.432 27.7183 371.47 26.9275 364.183 24.0311C353.477 19.7309 374.529 18.6435 376.778 15.9646C379.747 12.5344 377.318 14.2149 366.072 11.7831C359.145 10.2904 377.678 9.81592 356.086 7.00848C340.072 4.91279 343.94 3.2125 358.515 1.29474C370.39 -0.257256 371.74 -2.38261 359.055 -3.41069C339.262 -5.01211 316.591 -3.20309 301.026 -3.09435C296.348 -3.0647 290.41 -3.18332 280.514 -3.59851C269.358 -4.073 240.749 -2.73848 218.977 -2.31341C194.147 -1.81914 172.555 -1.87845 140.347 -3.72702C112.187 -5.34821 72.9622 -3.1339 65.0451 -1.5127C62.886 -1.06786 48.0415 -1.4435 45.3425 1.07727C44.173 2.17454 19.3423 2.8764 34.0968 5.84201C36.7957 6.3857 38.685 9.52925 33.8269 10.4684C28.3389 11.5459 28.3389 13.9579 34.0968 14.8871C50.3806 17.5265 27.0794 19.7013 39.0449 21.619C51.1904 23.5665 40.8442 25.1185 40.8442 26.6013C40.8442 29.725 50.9204 27.827 45.2526 30.8816C40.3044 33.5408 60.2769 33.9065 81.329 33.3727C95.3637 33.0169 115.426 34.3514 136.928 34.47C162.838 34.6084 168.686 33.2047 190.728 33.6495C224.375 34.3217 237.15 32.1667 260.542 33.8472C278.445 35.1323 295.808 34.816 303.725 33.9461C313.712 32.829 302.016 34.2229 317.58 31.88C332.515 29.6163 350.508 29.2802 355.816 28.7563H355.906Z" fill="url(#paint2_radial_310_6623)"/>
</g>
<defs>
<linearGradient id="paint0_linear_310_6623" x1="199.455" y1="36.1406" x2="199.455" y2="-6.19839" gradientUnits="userSpaceOnUse">
<stop stop-color="#EDD6B9"/>
<stop offset="1" stop-color="#D4B492"/>
</linearGradient>
<radialGradient id="paint1_radial_310_6623" cx="0" cy="0" r="1" gradientUnits="userSpaceOnUse" gradientTransform="translate(200.534 15.2433) rotate(180) scale(376.598 41.3801)">
<stop stop-color="#CA9E67"/>
<stop offset="1"/>
</radialGradient>
<radialGradient id="paint2_radial_310_6623" cx="0" cy="0" r="1" gradientUnits="userSpaceOnUse" gradientTransform="translate(203.773 15.2034) rotate(180) scale(309.214 33.976)">
<stop stop-color="#CA9E67"/>
<stop offset="1"/>
</radialGradient>
<clipPath id="clip0_310_6623">
<rect width="399" height="30" fill="white" transform="matrix(-1 0 0 1 399 0)"/>
</clipPath>
</defs>
</svg>
