<svg width="48" height="48" viewBox="0 0 48 48" fill="none" xmlns="http://www.w3.org/2000/svg">
<g filter="url(#filter0_ii_1803_277662)">
<path fill-rule="evenodd" clip-rule="evenodd" d="M23.6433 2.01661C26.4044 2.19686 34.866 4.44998 37.3599 6.7031C37.8943 7.15373 41.9024 11.0291 43.4166 13.823C44.4854 15.8958 45.9105 24.0071 45.9105 24.638C45.9105 29.3245 41.7243 38.5172 36.0239 42.6629C34.5988 43.6543 25.87 46.0877 23.6433 45.9976C16.4287 45.7272 8.76881 40.4999 6.89837 38.5172C5.6514 37.2554 3.0684 30.2257 2.89026 28.964C2.71213 27.7022 1.91051 23.1058 2.08864 21.5737C2.26678 19.591 4.49351 12.6513 5.56234 11.1192C7.9672 7.24385 18.4773 1.65611 23.6433 2.01661Z" fill="#A08E86"/>
<path fill-rule="evenodd" clip-rule="evenodd" d="M6.27474 21.7542C6.36381 20.2221 8.14518 14.9948 8.85773 13.9133C8.85773 13.9133 8.9468 13.7331 9.03587 13.643C7.69984 13.1022 5.91847 11.6602 5.65127 10.9392C5.65127 10.9392 5.5622 11.0293 5.5622 11.1195C4.58244 12.6516 2.26664 19.5912 2.0885 21.5739C2.89012 21.2134 5.38406 21.3036 6.27474 21.7542Z" fill="url(#paint0_radial_1803_277662)"/>
<path fill-rule="evenodd" clip-rule="evenodd" d="M9.03593 13.6422C11.2627 10.8484 20.6149 6.43223 23.1979 6.43223C23.5541 5.35074 23.6432 2.73711 23.1979 2.01611C17.9428 2.01611 8.14525 7.15323 5.56226 10.9385C5.82946 11.6595 7.6999 13.1015 8.94686 13.6422H9.03593Z" fill="url(#paint1_radial_1803_277662)"/>
<path fill-rule="evenodd" clip-rule="evenodd" d="M23.4659 6.52281C24.8019 6.70306 31.4821 8.41543 34.0651 10.1278C34.5995 8.59568 35.4902 7.33393 36.6481 6.16231C33.4416 4.08944 26.3161 2.28694 23.8222 2.10669C23.7331 2.10669 23.555 2.10669 23.3768 2.10669C23.7331 2.91781 23.644 5.53144 23.3768 6.52281C23.3768 6.52281 23.555 6.52281 23.644 6.52281H23.4659Z" fill="url(#paint2_radial_1803_277662)"/>
<path fill-rule="evenodd" clip-rule="evenodd" d="M36.5583 6.07166C35.4005 7.24328 34.5098 8.50503 33.9753 10.0372C34.1535 10.1273 34.3316 10.3075 34.5098 10.3977C34.866 10.7582 37.8053 13.4619 38.9632 15.5348C40.5664 15.2644 41.9915 14.5434 43.2385 13.4619C41.6353 10.7582 37.8944 7.15315 37.449 6.70253C37.1818 6.52228 36.9146 6.25191 36.5583 6.07166Z" fill="url(#paint3_radial_1803_277662)"/>
<path fill-rule="evenodd" clip-rule="evenodd" d="M43.239 13.5524C41.903 14.6339 40.567 15.445 38.9637 15.6253C38.9637 15.6253 38.9637 15.7154 39.0528 15.8055C39.8544 17.3377 41.7249 24.3674 41.7249 24.818C41.7249 24.9983 41.7249 25.0884 41.7249 25.2686C43.239 24.818 44.5751 24.6378 46.0002 24.6378C46.0002 24.0069 44.5751 15.8055 43.5062 13.8228C43.5062 13.7327 43.4172 13.5524 43.3281 13.4623L43.239 13.5524Z" fill="url(#paint4_radial_1803_277662)"/>
<path fill-rule="evenodd" clip-rule="evenodd" d="M45.9114 24.7278C44.5754 24.7278 43.1503 24.8179 41.6361 25.3587C41.3689 29.0538 37.4499 36.2638 33.2637 39.2379C34.1544 40.9503 35.045 41.9416 36.0248 42.7528C41.7252 38.607 45.9114 29.5044 45.9114 24.7278Z" fill="url(#paint5_radial_1803_277662)"/>
<path fill-rule="evenodd" clip-rule="evenodd" d="M36.0242 42.6627C35.0444 41.8516 34.1537 40.9503 33.263 39.1478C32.1942 39.8688 25.6031 41.7615 23.9999 41.6713C24.4452 43.1133 24.3561 44.5553 23.7327 45.9973H23.9999C26.4938 45.9973 34.7772 43.6541 36.1132 42.6627H36.0242Z" fill="url(#paint6_radial_1803_277662)"/>
<path fill-rule="evenodd" clip-rule="evenodd" d="M23.6446 45.9968C24.2681 44.5548 24.3571 43.1128 23.9118 41.6708C19.6365 41.3103 10.7296 35.993 10.1952 35.272C8.85916 36.2633 7.79035 37.435 6.89966 38.5165C8.7701 40.4992 16.43 45.7265 23.6446 45.9968Z" fill="url(#paint7_radial_1803_277662)"/>
<path fill-rule="evenodd" clip-rule="evenodd" d="M6.89869 38.517C7.78937 37.3454 8.94726 36.2639 10.1942 35.2725C9.83795 34.7318 6.98775 28.3329 6.80962 27.3416C5.56265 28.2428 4.22661 28.7836 2.80151 28.9638C2.97965 30.2256 5.65172 37.2553 6.80962 38.517H6.89869Z" fill="url(#paint8_radial_1803_277662)"/>
<path fill-rule="evenodd" clip-rule="evenodd" d="M2.89108 28.9634C4.31618 28.7831 5.65222 28.2424 6.89918 27.3411C6.72104 26.3498 6.18663 22.925 6.2757 21.7534C5.38501 21.3028 2.89108 21.1225 2.08946 21.5732C2.00039 23.1053 2.71294 27.7016 2.89108 28.9634Z" fill="url(#paint9_radial_1803_277662)"/>
<path fill-rule="evenodd" clip-rule="evenodd" d="M9.30316 13.9131C9.30316 13.9131 8.8578 14.1835 8.67967 14.4539C7.61084 16.707 7.07644 18.7799 6.36389 21.2132C6.36389 22.9256 6.45295 24.1874 6.72016 25.8997C6.8983 26.9812 7.25458 27.2516 8.41247 26.7109C12.955 24.8182 17.4975 23.6466 22.1291 22.5651C24.3558 20.8527 27.6513 17.7885 29.5218 15.7156C30.7687 14.2736 31.8376 12.7415 33.2627 10.7587C33.2627 10.6686 33.3517 10.4884 33.4408 10.3982C33.4408 10.218 33.4408 10.0377 33.3517 9.94762C30.0562 8.50562 26.5825 7.334 23.0197 6.70312C18.4772 7.78462 14.3801 9.58712 10.6392 12.381C10.2829 12.6514 10.0157 12.8316 9.65943 13.102C9.48129 13.2822 9.4813 13.6427 9.30316 13.9131Z" fill="url(#paint10_radial_1803_277662)"/>
<path fill-rule="evenodd" clip-rule="evenodd" d="M33.7972 10.578C32.5503 12.02 31.4815 13.6422 30.5017 15.2645C30.3236 15.4447 30.2345 15.7151 30.5908 15.8052C31.3033 15.9854 32.0159 16.1657 32.7284 16.1657C34.1535 16.1657 35.5786 15.8953 37.0928 15.7151C37.4491 15.7151 37.8053 15.7151 38.1616 15.5348C38.5179 15.3546 38.4288 15.1743 38.2507 14.9941C38.0725 14.7237 37.9835 14.3632 37.7163 14.0928C37.0037 13.1916 36.2021 12.3805 35.4005 11.5693C34.9551 11.1187 34.5989 10.7582 34.0645 10.3977C33.9754 10.3977 33.7973 10.3977 33.7082 10.4878L33.7972 10.578Z" fill="url(#paint11_radial_1803_277662)"/>
<path fill-rule="evenodd" clip-rule="evenodd" d="M40.5662 25.7194C39.052 26.3503 37.5378 27.0713 36.1127 27.8824C35.4893 28.7836 34.7767 29.6849 34.1532 30.5861C34.0641 31.7577 33.886 32.9294 33.7969 34.101C33.6188 35.2726 33.5297 36.4442 33.3516 37.6159C33.3516 38.2467 33.2625 38.7875 33.3516 38.8776C33.3516 38.8776 33.9751 38.6072 34.5095 38.0665C35.4002 37.2554 36.469 36.0837 36.6471 35.9035C37.716 34.5516 38.6957 33.0195 39.4973 31.4874C40.1208 30.0454 41.0115 28.333 41.2787 26.6206C41.4569 25.8996 41.5459 25.2688 40.4771 25.7194H40.5662Z" fill="url(#paint12_radial_1803_277662)"/>
<path fill-rule="evenodd" clip-rule="evenodd" d="M35.9348 27.7021C37.6271 27.0712 40.0319 25.5391 40.4773 25.3589C41.2789 25.0885 41.457 24.9984 41.368 24.4576C41.1008 23.3761 40.9226 22.2946 40.5663 21.3032C40.0319 19.5909 39.4084 17.9686 38.785 16.2563C38.785 16.1661 38.785 15.9859 38.6959 15.8958C38.1615 15.8958 37.6271 15.8958 37.0927 15.8958C35.6676 15.9859 34.3315 16.2563 32.9064 16.3464C32.5501 16.3464 32.2829 16.3464 31.9267 16.3464C31.3922 16.3464 30.9469 16.1661 30.4125 16.1661C29.789 16.1661 29.6109 16.3464 29.1655 16.7069C26.8497 18.6896 24.623 20.6724 22.5744 22.7452C17.1412 23.8267 11.9752 25.1786 7.43274 27.5219C7.61088 30.0454 9.12505 33.1096 10.4611 35.2726C11.5299 36.264 12.8659 37.0751 14.202 37.7961C17.2303 39.5085 21.4165 41.4011 23.9105 41.6715C24.534 41.6715 25.87 41.4912 27.2951 41.1307C29.1655 40.4999 30.9469 40.0492 32.5501 39.3282C32.8173 38.7875 32.5501 38.0665 32.7283 37.5257C33.0846 35.1825 33.4408 32.8392 33.708 30.4059C34.5097 29.5046 35.1331 28.6034 35.7566 27.612L35.9348 27.7021Z" fill="url(#paint13_radial_1803_277662)"/>
<g style="mix-blend-mode:screen" opacity="0.5">
<path fill-rule="evenodd" clip-rule="evenodd" d="M19.7249 11.5698C19.7249 11.5698 19.2796 10.8488 19.4577 10.6685C20.2593 9.76726 21.3282 9.22651 22.3079 8.59564C22.6642 8.41539 23.1095 8.41539 23.4658 8.59564C24.4456 9.13639 25.5144 9.58701 26.1379 10.4883C27.0286 11.8401 23.2877 12.2006 22.6642 12.1105C21.6844 12.1105 20.6156 12.1105 19.7249 11.4796V11.5698Z" fill="#3C3C96"/>
</g>
<path fill-rule="evenodd" clip-rule="evenodd" d="M19.7242 11.3898C19.7242 11.3898 19.368 10.6688 19.5461 10.3985C20.3477 9.58733 21.3275 8.95645 22.3963 8.4157C22.7526 8.23546 23.1979 8.23546 23.5542 8.4157C24.5339 8.86633 25.5137 9.40708 26.1372 10.3083C27.0279 11.5701 23.287 11.8405 22.7526 11.8405C21.7728 11.8405 20.704 11.8405 19.8133 11.3898H19.7242Z" fill="url(#paint14_radial_1803_277662)"/>
<g style="mix-blend-mode:screen" opacity="0.5">
<path fill-rule="evenodd" clip-rule="evenodd" d="M29.2558 10.8481C29.2558 10.8481 28.4542 11.0283 28.0979 11.2086C27.9197 11.2987 27.9198 11.5691 28.0088 11.7493C28.276 12.2901 28.8995 12.8308 29.523 13.1012C29.7011 13.1913 30.0574 13.2814 30.2355 13.1012C30.5028 12.8308 30.77 12.3802 30.859 11.9296C30.859 11.7493 30.7699 11.2987 30.5027 11.1184C30.2355 10.9382 29.7011 10.8481 29.2558 10.7579V10.8481Z" fill="#3C3C96"/>
</g>
<path fill-rule="evenodd" clip-rule="evenodd" d="M29.255 10.8485C29.255 10.8485 28.4534 11.0288 28.1862 11.209C28.0081 11.2991 28.0081 11.5695 28.0081 11.7498C28.2753 12.2905 28.8987 12.7411 29.5222 13.0115C29.7003 13.1016 30.0566 13.1918 30.2348 13.0115C30.502 12.7411 30.7692 12.3806 30.8583 12.0201C30.8583 11.8399 30.7692 11.3893 30.502 11.209C30.2348 11.0288 29.7004 10.9386 29.255 10.8485Z" fill="url(#paint15_radial_1803_277662)"/>
<g style="mix-blend-mode:screen" opacity="0.5">
<path fill-rule="evenodd" clip-rule="evenodd" d="M21.6839 36.1728C21.1495 36.1728 19.4572 35.7222 19.0119 35.6321C18.6556 35.6321 18.9228 37.2543 19.2791 37.4346C20.2588 37.9753 20.7042 38.6062 21.1495 38.7865C21.3277 38.7865 21.9511 38.9667 22.6637 39.147C23.2872 39.3272 23.9106 39.5074 24.2669 39.5074C25.2467 39.4173 26.8499 38.3358 27.0281 37.7951C27.2953 36.984 26.7608 35.9025 26.0483 35.9025C25.603 35.9025 23.4653 36.263 21.6839 36.0827V36.1728Z" fill="#3C3C96"/>
</g>
<path fill-rule="evenodd" clip-rule="evenodd" d="M21.6839 35.9028C21.1495 35.9028 19.4572 35.3621 19.0119 35.272C18.6556 35.272 18.9228 36.8942 19.2791 37.1646C20.2588 37.7955 20.7042 38.4263 21.1495 38.6066C21.5058 38.7868 23.6434 39.3276 24.2669 39.2375C25.2467 39.2375 26.939 38.3362 27.1171 37.7053C27.3843 36.8942 26.8499 35.8127 26.1374 35.8127C25.692 35.8127 23.5544 36.1732 21.773 35.9028H21.6839Z" fill="url(#paint16_radial_1803_277662)"/>
<path opacity="0.75" fill-rule="evenodd" clip-rule="evenodd" d="M23.3764 2.46744C27.8298 3.00819 33.5303 4.81069 35.6679 7.06381C38.6072 8.05518 41.5464 11.1194 42.5262 14.0936C44.4857 16.7973 45.2873 21.664 45.3764 24.7283C45.9108 25.7197 45.3764 27.7925 44.842 30.1358C45.5545 28.0629 45.9108 26.2604 45.9108 24.7283C45.9108 24.0974 44.4857 15.896 43.4169 13.9133C41.9918 11.1194 37.8946 7.24406 37.3602 6.79343C34.8663 4.45019 26.4047 2.28719 23.6436 2.10694C18.3885 1.74644 7.87843 7.33418 5.47357 11.2096C4.49382 12.7417 2.17802 19.6813 1.99988 21.664C1.99988 22.5653 2.17802 24.3678 2.35616 26.0802C2.35616 24.6382 2.26709 22.385 2.44523 21.5739C3.24685 18.4195 4.2266 14.5442 5.91891 11.6602C10.9068 6.88356 17.5869 3.18844 23.2873 2.64769L23.3764 2.46744Z" fill="url(#paint17_linear_1803_277662)"/>
<path fill-rule="evenodd" clip-rule="evenodd" d="M6.18614 11.6597C6.98776 12.6511 7.16589 12.9215 8.23471 13.7326C8.23471 13.9128 8.23471 14.0931 8.23471 14.2733C7.7003 16.3462 6.89868 18.5092 6.09706 20.5821C5.82986 21.3031 5.82985 21.3031 5.1173 21.3031C4.49382 21.3031 4.04849 21.3932 3.33594 21.3932C4.67197 21.5735 5.91893 21.3932 6.09706 22.2043C6.36427 24.0068 6.5424 25.5389 6.45333 27.3414C6.27519 28.0624 5.29544 28.4229 4.31568 28.6933C5.38451 28.5131 5.56266 28.5131 6.36428 28.1526C6.89869 27.8822 6.80962 28.1526 7.07683 28.6933C7.78938 30.6761 8.76912 32.5687 9.65981 34.4613C9.92702 35.0922 10.1052 35.2724 9.65981 35.8132C9.30354 36.2638 8.8582 36.6243 8.50193 37.0749C8.94727 36.7144 9.39261 36.3539 9.83795 36.0836C10.4614 35.7231 10.4614 35.8132 10.9958 36.0836C12.1537 36.7144 13.2226 37.2552 14.3805 37.8861C13.0444 37.0749 11.7084 36.2638 10.6396 35.3626C9.21447 33.1996 7.78937 30.1353 7.61124 27.6118C12.1537 25.2686 17.4088 23.9167 22.7529 22.8352C24.8015 20.7623 27.0282 18.7796 29.344 16.7968C29.7894 16.4363 29.9675 16.2561 30.591 16.2561C31.1254 16.2561 31.5707 16.4363 32.1052 16.4363C32.4614 16.4363 32.7286 16.4363 33.0849 16.4363C34.51 16.2561 35.846 16.0758 37.2711 15.9857C37.8055 15.9857 38.34 15.9857 38.8744 15.9857C38.8744 16.0758 38.8744 16.2561 38.9635 16.3462C39.5869 18.0586 40.2104 19.6808 40.7448 21.3932C41.1011 22.4747 41.2792 23.4661 41.5465 24.5476C41.7246 25.0883 41.5464 25.1784 40.6557 25.4488C40.1213 25.6291 37.7165 27.1612 36.1133 27.7921C35.5788 28.7834 34.8663 29.6847 34.0647 30.5859C33.7084 32.9292 33.3521 35.2724 33.0849 37.7058C32.9958 38.2466 33.0849 38.9676 32.9068 39.5083C31.3035 40.2293 29.5222 40.6799 27.6517 41.3108C29.4331 40.9503 31.2144 40.4997 32.9958 40.0491C33.3521 40.0491 33.5303 40.0491 33.7084 40.2293C34.0647 40.4997 34.0647 40.6799 34.3319 41.0404C34.51 41.0404 35.4007 41.9417 35.5788 42.1219C35.1335 41.6713 34.7772 41.1306 34.3319 40.6799C34.1537 40.4096 33.8865 39.8688 33.9756 39.5083C34.3319 38.8774 34.7772 38.6071 35.3116 38.0663C35.846 37.3453 36.3805 36.7144 36.9149 35.9934C36.7367 36.1737 35.6679 37.3453 34.7772 38.1564C34.2428 38.6972 33.7084 38.9676 33.6193 38.9676C33.4412 38.9676 33.4412 38.3367 33.6193 37.7058C33.7974 36.5342 33.8865 35.3626 34.0647 34.1909C34.1537 33.0193 34.3319 31.8477 34.4209 30.6761C35.1335 29.7748 35.757 28.8736 36.3804 27.9723C37.8055 27.2513 39.3197 26.4402 40.8339 25.8093C41.9027 25.3587 41.7246 25.9896 41.6355 26.7106C41.2792 28.4229 40.3885 30.0452 39.8541 31.5773C40.4776 30.2254 42.0809 27.7921 42.1699 27.1612C42.259 26.6204 42.1699 25.9896 42.1699 25.4488C43.1497 25.1784 44.3076 24.9982 45.4655 24.9081C44.2185 24.9081 43.4169 24.9081 42.1699 25.1784C42.1699 25.0883 42.1699 24.9081 42.1699 24.8179C41.9027 23.8266 41.5464 22.8352 41.1902 21.8438C40.923 20.9426 40.8339 20.0413 40.6557 19.2302C40.3885 18.1487 39.7651 17.1573 39.676 16.0758C39.676 15.8055 40.2104 15.8956 40.2995 15.8956C41.012 15.5351 41.7246 15.0845 42.4371 14.6338C41.8136 14.9042 41.2792 15.1746 40.6557 15.3548C40.2104 15.5351 39.9432 15.5351 39.4978 15.5351C39.4088 15.5351 39.2307 15.5351 39.1416 15.3548C38.5181 14.5437 37.8946 13.5523 37.1821 12.7412C36.5586 12.0202 35.6679 11.3893 34.9553 10.7585C34.5991 10.4881 34.51 10.3078 34.5991 9.85721C34.5991 9.58684 34.5991 9.31646 34.7772 9.04609C35.0444 8.50534 35.3116 8.05471 35.6679 7.60409C35.3116 8.05471 34.9553 8.59546 34.5991 8.86584C34.5991 8.86584 34.4209 9.22634 34.3319 9.49671C34.0647 10.0375 33.8865 9.94733 33.3521 9.67696C31.8379 9.04609 30.5019 8.23496 28.9878 7.69421C27.9189 7.42384 23.7327 7.06334 23.8218 5.62134C23.8218 4.44972 23.7327 4.08922 23.6436 2.64722C23.6436 3.63859 23.6436 5.80159 23.2873 6.16209C23.0201 6.43246 22.7529 6.43246 22.3076 6.61271C20.8825 7.06334 19.2792 7.33371 17.7651 7.78434C16.2509 8.59546 8.94726 13.1918 8.85819 13.1918C8.23471 13.1918 7.16588 12.561 6.45333 11.84L6.18614 11.6597ZM30.5019 15.2647C31.4817 13.6425 32.5505 12.0202 33.7974 10.5782C33.7974 10.4881 34.0647 10.398 34.1537 10.4881C34.6881 10.7585 35.0444 11.2091 35.4898 11.6597C36.2914 12.4708 37.093 13.282 37.8055 14.1832C37.9837 14.4536 38.1618 14.724 38.34 15.0845C38.429 15.3548 38.6072 15.5351 38.2509 15.6252C37.8946 15.8055 37.5383 15.8055 37.1821 15.8055C35.757 15.9857 34.3319 16.2561 32.8177 16.2561C32.1051 16.2561 31.3926 16.0758 30.6801 15.8956C30.3238 15.8055 30.4128 15.6252 30.591 15.3548L30.5019 15.2647ZM8.41286 26.7106C12.9554 24.8179 17.4979 23.6463 22.1294 22.5648C24.3562 20.8524 27.6517 17.7882 29.5221 15.7153C30.7691 14.2733 31.838 12.7412 33.2631 10.7585C33.2631 10.6683 33.3521 10.4881 33.4412 10.398C33.4412 10.2177 33.4412 10.0375 33.3521 9.94733C30.0566 8.50534 26.5829 7.33371 23.0201 6.70284C18.4776 7.78434 14.3805 9.58683 10.6396 12.3807C10.2833 12.6511 10.0161 12.8313 9.65981 13.1017C9.48168 13.282 9.48168 13.6425 9.30355 13.9128C9.12541 14.0931 8.85819 14.1832 8.68005 14.4536C7.61123 16.7067 7.07683 18.7796 6.36428 21.2129C6.36428 22.9253 6.45334 24.1871 6.72054 25.8994C6.89868 26.9809 7.25496 27.2513 8.41286 26.7106Z" fill="url(#paint18_radial_1803_277662)"/>
<path fill-rule="evenodd" clip-rule="evenodd" d="M6.89835 27.342C7.07648 28.3334 9.83761 34.7323 10.283 35.273C10.8174 35.994 19.7243 41.3114 23.9996 41.6719C25.6028 41.762 32.283 39.9595 33.2627 39.1484C37.4489 36.1743 41.368 28.9643 41.6352 25.2692C41.6352 25.0889 41.6352 24.9087 41.6352 24.8185C41.6352 24.2778 39.7647 17.3382 38.9631 15.8061C38.9631 15.8061 38.9631 15.7159 38.874 15.6258C37.7161 13.5529 34.7769 10.7591 34.4206 10.4887C34.2424 10.3986 34.0643 10.2183 33.8862 10.1282C31.3923 8.50594 24.623 6.79357 23.287 6.52319C23.287 6.52319 23.1089 6.52319 23.0198 6.52319C20.4368 6.52319 11.0846 10.8492 8.85785 13.7332C8.85785 13.7332 8.76878 13.9134 8.67971 14.0036C7.87809 15.1752 6.18579 20.4024 6.09673 21.8444C6.00766 23.0161 6.54207 26.4408 6.7202 27.4322L6.89835 27.342Z" fill="url(#paint19_linear_1803_277662)"/>
<path fill-rule="evenodd" clip-rule="evenodd" d="M6.89835 27.342C7.07648 28.3334 9.83761 34.7323 10.283 35.273C10.8174 35.994 19.7243 41.3114 23.9996 41.6719C25.6028 41.762 32.283 39.9595 33.2627 39.1484C37.4489 36.1743 41.368 28.9643 41.6352 25.2692C41.6352 25.0889 41.6352 24.9087 41.6352 24.8185C41.6352 24.2778 39.7647 17.3382 38.9631 15.8061C38.9631 15.8061 38.9631 15.7159 38.874 15.6258C37.7161 13.5529 34.7769 10.7591 34.4206 10.4887C34.2424 10.3986 34.0643 10.2183 33.8862 10.1282C31.3923 8.50594 24.623 6.79357 23.287 6.52319C23.287 6.52319 23.1089 6.52319 23.0198 6.52319C20.4368 6.52319 11.0846 10.8492 8.85785 13.7332C8.85785 13.7332 8.76878 13.9134 8.67971 14.0036C7.87809 15.1752 6.18579 20.4024 6.09673 21.8444C6.00766 23.0161 6.54207 26.4408 6.7202 27.4322L6.89835 27.342Z" fill="url(#paint20_linear_1803_277662)"/>
<path opacity="0.5" fill-rule="evenodd" clip-rule="evenodd" d="M9.39219 13.6429C12.2424 10.849 20.7039 6.97361 23.1978 6.97361C23.1978 6.97361 23.376 6.97361 23.4651 6.97361C24.712 7.15386 30.6796 8.68598 33.5298 10.2181C33.708 10.2181 33.797 10.3984 33.9752 10.4885C33.9752 10.4885 34.0642 10.4885 34.1533 10.5786C34.3314 10.6687 34.5096 10.849 34.6877 10.9391C35.044 11.2095 37.1817 13.2824 38.5177 15.175C38.7849 15.5355 38.963 15.8059 39.1412 16.0762C39.1412 16.0762 39.1412 16.1664 39.2302 16.2565C39.8537 17.4281 41.1897 22.1146 41.6351 24.2776C41.2788 22.5652 39.7646 17.0676 39.0521 15.7157C39.0521 15.7157 39.0521 15.6256 38.963 15.5355C37.8051 13.4626 34.8659 10.6687 34.5096 10.3984C34.3315 10.3082 34.1533 10.128 33.9752 10.0379C31.4812 8.41561 24.712 6.70324 23.376 6.43286C23.376 6.43286 23.1978 6.43286 23.1088 6.43286C20.5258 6.43286 11.1736 10.7589 8.94684 13.6429C8.94684 13.6429 8.85776 13.8231 8.7687 13.9132C8.05615 14.9046 6.72012 19.0503 6.27478 21.0331C6.80919 18.9602 7.96709 15.6256 8.59057 14.5441C8.59057 14.5441 8.59057 14.5441 8.59057 14.454C8.59057 14.454 8.67963 14.2737 8.7687 14.1836C8.85776 14.0034 9.03591 13.8231 9.21405 13.6429H9.39219Z" fill="#23110C"/>
</g>
<defs>
<filter id="filter0_ii_1803_277662" x="0" y="-10.5" width="48" height="62.5" filterUnits="userSpaceOnUse" color-interpolation-filters="sRGB">
<feFlood flood-opacity="0" result="BackgroundImageFix"/>
<feBlend mode="normal" in="SourceGraphic" in2="BackgroundImageFix" result="shape"/>
<feColorMatrix in="SourceAlpha" type="matrix" values="0 0 0 0 0 0 0 0 0 0 0 0 0 0 0 0 0 0 127 0" result="hardAlpha"/>
<feOffset dy="4"/>
<feGaussianBlur stdDeviation="4.2"/>
<feComposite in2="hardAlpha" operator="arithmetic" k2="-1" k3="1"/>
<feColorMatrix type="matrix" values="0 0 0 0 0.211765 0 0 0 0 1 0 0 0 0 1 0 0 0 0.5 0"/>
<feBlend mode="normal" in2="shape" result="effect1_innerShadow_1803_277662"/>
<feColorMatrix in="SourceAlpha" type="matrix" values="0 0 0 0 0 0 0 0 0 0 0 0 0 0 0 0 0 0 127 0" result="hardAlpha"/>
<feOffset dy="-44"/>
<feGaussianBlur stdDeviation="5.25"/>
<feComposite in2="hardAlpha" operator="arithmetic" k2="-1" k3="1"/>
<feColorMatrix type="matrix" values="0 0 0 0 1 0 0 0 0 1 0 0 0 0 1 0 0 0 0.2 0"/>
<feBlend mode="normal" in2="effect1_innerShadow_1803_277662" result="effect2_innerShadow_1803_277662"/>
</filter>
<radialGradient id="paint0_radial_1803_277662" cx="0" cy="0" r="1" gradientUnits="userSpaceOnUse" gradientTransform="translate(18.3881 22.1147) scale(36.0729 36.5006)">
<stop stop-color="#8D96B3"/>
<stop offset="1" stop-color="#777387"/>
</radialGradient>
<radialGradient id="paint1_radial_1803_277662" cx="0" cy="0" r="1" gradientUnits="userSpaceOnUse" gradientTransform="translate(21.5056 3.27786) scale(35.0931 35.5092)">
<stop stop-color="#8D96B3"/>
<stop offset="1" stop-color="#777387"/>
</radialGradient>
<radialGradient id="paint2_radial_1803_277662" cx="0" cy="0" r="1" gradientUnits="userSpaceOnUse" gradientTransform="translate(24.8019 0.66469) scale(20.6639 20.909)">
<stop stop-color="#8D96B3"/>
<stop offset="1" stop-color="#777387"/>
</radialGradient>
<radialGradient id="paint3_radial_1803_277662" cx="0" cy="0" r="1" gradientUnits="userSpaceOnUse" gradientTransform="translate(34.6879 6.34203) scale(23.7814 24.0633)">
<stop stop-color="#8D96B3"/>
<stop offset="1" stop-color="#777387"/>
</radialGradient>
<radialGradient id="paint4_radial_1803_277662" cx="0" cy="0" r="1" gradientUnits="userSpaceOnUse" gradientTransform="translate(27.0285 16.9772) scale(20.9312 21.1794)">
<stop stop-color="#818CA3"/>
<stop offset="1" stop-color="#565373"/>
</radialGradient>
<radialGradient id="paint5_radial_1803_277662" cx="0" cy="0" r="1" gradientUnits="userSpaceOnUse" gradientTransform="translate(15.3609 14.093) scale(43.9999 44.5217)">
<stop stop-color="#5F5D75"/>
<stop offset="1" stop-color="#373854"/>
</radialGradient>
<radialGradient id="paint6_radial_1803_277662" cx="0" cy="0" r="1" gradientUnits="userSpaceOnUse" gradientTransform="translate(24.5343 24.097) scale(22.7126 22.9819)">
<stop stop-color="#5F5D75"/>
<stop offset="1" stop-color="#373854"/>
</radialGradient>
<radialGradient id="paint7_radial_1803_277662" cx="0" cy="0" r="1" gradientUnits="userSpaceOnUse" gradientTransform="translate(21.9523 21.8434) scale(29.4818 29.8313)">
<stop stop-color="#5F5D75"/>
<stop offset="1" stop-color="#373854"/>
</radialGradient>
<radialGradient id="paint8_radial_1803_277662" cx="0" cy="0" r="1" gradientUnits="userSpaceOnUse" gradientTransform="translate(15.9837 23.3761) scale(33.8461 34.2475)">
<stop stop-color="#5F5D75"/>
<stop offset="1" stop-color="#373854"/>
</radialGradient>
<radialGradient id="paint9_radial_1803_277662" cx="0" cy="0" r="1" gradientUnits="userSpaceOnUse" gradientTransform="translate(18.7453 19.5904) scale(28.0567 28.3893)">
<stop stop-color="#818CA3"/>
<stop offset="1" stop-color="#565373"/>
</radialGradient>
<radialGradient id="paint10_radial_1803_277662" cx="0" cy="0" r="1" gradientUnits="userSpaceOnUse" gradientTransform="translate(23.1979 23.7367) scale(57.6275 58.3108)">
<stop stop-color="#5F5D75"/>
<stop offset="1" stop-color="#373854"/>
</radialGradient>
<radialGradient id="paint11_radial_1803_277662" cx="0" cy="0" r="1" gradientUnits="userSpaceOnUse" gradientTransform="translate(30.1454 19.1398) scale(16.2996 16.4929)">
<stop stop-color="#5F5D75"/>
<stop offset="1" stop-color="#373854"/>
</radialGradient>
<radialGradient id="paint12_radial_1803_277662" cx="0" cy="0" r="1" gradientUnits="userSpaceOnUse" gradientTransform="translate(47.6917 39.4184) scale(22.9797 23.2522)">
<stop stop-color="#5F5D75"/>
<stop offset="1" stop-color="#373854"/>
</radialGradient>
<radialGradient id="paint13_radial_1803_277662" cx="0" cy="0" r="1" gradientUnits="userSpaceOnUse" gradientTransform="translate(21.5947 16.1661) scale(43.1093 43.6205)">
<stop stop-color="#5F5D75"/>
<stop offset="1" stop-color="#373854"/>
</radialGradient>
<radialGradient id="paint14_radial_1803_277662" cx="0" cy="0" r="1" gradientUnits="userSpaceOnUse" gradientTransform="translate(23.0198 14.1837) scale(9.26315 9.37299)">
<stop stop-color="#5F5D75"/>
<stop offset="1" stop-color="#373854"/>
</radialGradient>
<radialGradient id="paint15_radial_1803_277662" cx="0" cy="0" r="1" gradientUnits="userSpaceOnUse" gradientTransform="translate(29.7894 13.7325) scale(4.45344 4.50625)">
<stop stop-color="#5F5D75"/>
<stop offset="1" stop-color="#373854"/>
</radialGradient>
<radialGradient id="paint16_radial_1803_277662" cx="0" cy="0" r="1" gradientUnits="userSpaceOnUse" gradientTransform="translate(23.2872 33.83) scale(10.6882 10.815)">
<stop stop-color="#373854"/>
<stop offset="1" stop-color="#5F5D75"/>
</radialGradient>
<linearGradient id="paint17_linear_1803_277662" x1="17.428" y1="2.09033" x2="17.428" y2="30.1358" gradientUnits="userSpaceOnUse">
<stop stop-color="#A0DBF0"/>
<stop offset="1" stop-color="#00FFEA"/>
</linearGradient>
<radialGradient id="paint18_radial_1803_277662" cx="0" cy="0" r="1" gradientUnits="userSpaceOnUse" gradientTransform="translate(18.6558 6.52259) scale(48.8097 49.3884)">
<stop stop-color="#818CA3"/>
<stop offset="1" stop-color="#565373"/>
</radialGradient>
<linearGradient id="paint19_linear_1803_277662" x1="23.861" y1="6.52319" x2="23.861" y2="41.6752" gradientUnits="userSpaceOnUse">
<stop stop-color="#020D1A"/>
<stop offset="1" stop-color="#08151D"/>
</linearGradient>
<linearGradient id="paint20_linear_1803_277662" x1="23.861" y1="6.52319" x2="23.861" y2="41.6752" gradientUnits="userSpaceOnUse">
<stop offset="0.5" stop-color="white" stop-opacity="0"/>
<stop offset="0.776042" stop-color="white" stop-opacity="0.1"/>
</linearGradient>
</defs>
</svg>
