<svg width="170" height="48" viewBox="0 0 170 48" fill="none" xmlns="http://www.w3.org/2000/svg">
<g clip-path="url(#clip0_82_34445)">
<path fill-rule="evenodd" clip-rule="evenodd" d="M0.139855 7.1231C0.160091 6.88027 5.25959 0.991568 6.25115 0.951096C15.2157 0.485666 54.4738 0.202361 59.3709 0C61.6778 0.667791 64.4501 1.07251 67.1011 1.09275C90.1095 1.29511 130.197 0.849916 136.389 0.951096C136.855 0.951096 142.501 6.55649 142.501 7.1231C142.501 18.4553 142.319 33.9764 142.136 41.1197C142.136 41.828 136.41 47.3929 136.126 47.3929C135.297 47.3929 117.327 48 115.142 48C114.98 48 112.288 47.231 110.851 47.231C76.2883 47.2108 41.3405 47.4739 6.77729 47.4739C6.27139 47.4739 0.504105 42.1922 0.443396 41.14C0.180327 37.7808 0.0589107 30.9815 -0.0017976 24.3238C0.301744 22.2192 0.908826 16.8162 0.88859 16.6138C0.868354 16.0675 0.281508 14.7319 -0.0220337 13.4165C-0.0017976 10.0978 0.0386746 7.70995 0.119619 7.14334H0.139855V7.1231Z" fill="#1F2B3A"/>
<path fill-rule="evenodd" clip-rule="evenodd" d="M5.36132 9.22732C5.56367 8.92379 8.13355 6.15157 8.41684 6.13133L6.23144 0.93087C5.26014 0.991576 0.16086 6.8598 0.140625 7.12286L5.36132 9.22732Z" fill="url(#paint0_radial_82_34445)"/>
<path fill-rule="evenodd" clip-rule="evenodd" d="M8.41694 6.13154C25.6986 5.36257 44.5181 6.45532 60.3023 6.75886L59.3714 -0.0202332C54.4743 0.202364 15.2163 0.485669 6.23145 0.930863L8.39671 6.13154H8.41694ZM67.1016 1.09275L68.9836 5.66611C90.7374 5.48398 124.795 6.15177 134.225 6.15177L136.39 0.951099C130.198 0.849919 90.1303 1.29511 67.1016 1.09275Z" fill="url(#paint1_radial_82_34445)"/>
<path fill-rule="evenodd" clip-rule="evenodd" d="M136.127 47.3929L133.739 42.2529C133.051 42.3339 117.732 41.4839 116.902 41.6458L115.142 48C117.327 48 135.297 47.3929 136.127 47.3929ZM110.832 47.2108L109.314 42.5767C75.8433 42.5767 42.3526 43.3659 8.90235 42.2529L6.75732 47.4536C41.3206 47.4536 76.2683 47.1905 110.832 47.2108Z" fill="url(#paint2_radial_82_34445)"/>
<path fill-rule="evenodd" clip-rule="evenodd" d="M6.75691 47.4533L8.90185 42.2528C8.57809 42.2528 5.8868 39.4604 5.70468 39.0759L0.423279 41.0994C0.50422 42.1516 6.25103 47.433 6.75691 47.433V47.4533Z" fill="url(#paint3_radial_82_34445)"/>
<path fill-rule="evenodd" clip-rule="evenodd" d="M0.423493 41.1197L5.70511 39.0961C5.38133 38.4688 5.92771 26.0236 5.88724 25.1332L-0.00146484 24.3238C0.0390073 30.9814 0.18066 37.7808 0.403257 41.1197H0.423493ZM-0.00146484 13.3963L5.70511 14.9544C5.70511 14.4081 5.19921 9.4907 5.3611 9.22763L0.140188 7.12308C0.0794795 7.68969 0.0390073 10.0775 -0.00146484 13.3963Z" fill="url(#paint4_radial_82_34445)"/>
<path fill-rule="evenodd" clip-rule="evenodd" d="M-0.00146484 24.3234L5.84652 25.1531C5.82629 24.546 4.855 19.8919 4.81452 17.2411L0.888886 16.6138C0.888886 16.8364 0.302064 22.2392 -0.00146484 24.3234Z" fill="url(#paint5_radial_82_34445)"/>
<path fill-rule="evenodd" clip-rule="evenodd" d="M0.909121 16.5934L4.83476 17.2207C4.83476 17.0184 5.70488 15.1163 5.70488 14.9342L-0.00146484 13.376C0.302064 14.6913 0.888886 16.0269 0.909121 16.5732V16.5934Z" fill="url(#paint6_radial_82_34445)"/>
<path fill-rule="evenodd" clip-rule="evenodd" d="M5.36061 9.22765C5.56297 8.92411 8.13295 6.15176 8.41625 6.13152C25.6979 5.36255 44.5174 6.4553 60.3016 6.75884C61.3336 6.75884 66.0689 5.66609 68.9829 5.64586C90.7367 5.46373 124.794 6.13152 134.224 6.13152C134.366 6.13152 137.239 8.92411 137.28 9.22765C138.291 18.9207 137.846 36.769 137.624 38.4688C137.583 38.833 133.961 42.2327 133.738 42.2732C133.05 42.3541 117.732 41.5042 116.902 41.6661C116.092 41.8077 109.718 42.6172 109.334 42.6172C75.8631 42.6172 42.3724 43.4064 8.92216 42.2934C8.59838 42.2934 5.90698 39.5008 5.72485 39.1163C5.40108 38.489 5.94745 26.0438 5.90698 25.1534C5.88674 24.5464 4.91541 19.8921 4.87494 17.2411C4.87494 17.0388 5.74509 15.1366 5.74509 14.9545C5.74509 14.4081 5.23919 9.49072 5.40108 9.22765H5.36061Z" fill="url(#paint7_radial_82_34445)"/>
<path style="mix-blend-mode:screen" opacity="0.75" fill-rule="evenodd" clip-rule="evenodd" d="M6.61604 9.73352C6.51486 9.91565 7.46595 14.3271 7.46595 15.0354C7.46595 15.2984 6.13037 17.0792 6.13037 17.3828C6.13037 18.0303 7.64808 23.8381 7.74926 25.032C7.85044 26.2259 6.69698 38.0438 6.89934 38.57C6.98029 38.7925 9.18602 40.978 9.2872 40.978C42.616 42.1922 75.9651 41.3221 109.294 41.3018C111.075 41.3018 115.547 39.3389 117.388 38.8735C118.38 38.6104 131.999 40.8566 133.132 40.5126C134.285 40.1484 136.309 38.1855 136.35 38.0236C137.301 34.4216 136.653 14.8937 136.006 9.69305C136.006 9.57163 133.82 7.44684 133.759 7.44684C112.289 7.10283 90.4946 6.57669 69.0646 6.57669C68.2552 6.57669 60.9095 9.42998 60.0798 9.36927C56.498 9.06573 37.6177 7.32543 26.3057 7.20401C20.4778 7.1433 14.6295 7.10283 8.82177 7.42661C8.68012 7.42661 6.67675 9.57163 6.5958 9.73352H6.61604Z" fill="url(#paint8_radial_82_34445)"/>
<path style="mix-blend-mode:screen" fill-rule="evenodd" clip-rule="evenodd" d="M7.78919 6.09106C7.78919 5.70657 7.28329 4.18887 7.14164 3.7032C6.93928 3.01518 6.73692 2.34738 6.53456 1.67959C6.47385 1.49747 6.57503 1.7403 6.6155 1.78077C6.93928 2.38786 8.27486 5.22091 8.72005 5.42327C9.00336 5.54469 9.40808 5.56492 9.87351 5.56492C22.0556 5.40303 34.258 5.64587 46.4199 6.3946C34.1366 6.01012 21.8937 6.03035 9.61044 6.33389C9.04383 6.33389 8.74029 6.41484 8.51769 6.47555C8.13321 6.57673 7.40471 7.10287 7.02022 7.38617C7.26306 7.04216 7.72849 6.47555 7.78919 6.07082V6.09106Z" fill="url(#paint9_radial_82_34445)"/>
<path style="mix-blend-mode:screen" fill-rule="evenodd" clip-rule="evenodd" d="M5.60384 35.6957C5.56337 34.5828 5.5229 25.8209 5.42172 25.5781C5.23961 25.1734 2.66973 24.7282 2.18408 24.6271C2.54832 24.6271 5.15866 24.7282 5.32055 24.6271C5.54313 24.4652 5.01702 19.8313 4.97655 19.1838C5.28008 21.0252 5.64431 22.8666 6.06925 24.6878C6.25137 25.4769 6.15019 26.0233 6.08949 26.7922C5.88713 29.7263 5.74549 32.6807 5.60384 35.635V35.6957Z" fill="url(#paint10_radial_82_34445)"/>
</g>
<g clip-path="url(#clip1_82_34445)">
<path fill-rule="evenodd" clip-rule="evenodd" d="M-3.81412 7.12329C-3.78714 6.88046 3.01219 0.991759 4.33428 0.951287C16.2871 0.485857 68.6311 0.202552 75.1606 0.000190735C78.2365 0.667982 81.9329 1.0727 85.4675 1.09294C116.145 1.2953 169.596 0.850106 177.852 0.951287C178.473 0.951287 186 6.55668 186 7.12329C186 18.4555 185.758 33.9766 185.515 41.1199C185.515 41.8282 177.879 47.3931 177.501 47.3931C176.395 47.3931 152.435 48.0002 149.521 48.0002C149.306 48.0002 145.717 47.2312 143.801 47.2312C97.7171 47.211 51.1201 47.4741 5.0358 47.4741C4.36126 47.4741 -3.32845 42.1924 -3.40939 41.1402C-3.76015 37.781 -3.92204 30.9816 -4.00299 24.324C-3.59827 22.2194 -2.78882 16.8164 -2.8158 16.614C-2.84278 16.0676 -3.62525 14.7321 -4.02997 13.4167C-4.00299 10.098 -3.94902 7.71014 -3.8411 7.14353H-3.81412V7.12329Z" fill="#1F2B3A"/>
<path fill-rule="evenodd" clip-rule="evenodd" d="M7.22167 6.13154C30.2638 5.36257 55.3566 6.45532 76.4021 6.75886L75.161 -0.0202332C68.6314 0.202364 16.2874 0.485669 4.30768 0.930863L7.19469 6.13154H7.22167ZM85.4679 1.09275L87.9771 5.66611C116.982 5.48398 162.392 6.15177 174.965 6.15177L177.852 0.951099C169.596 0.849919 116.173 1.29511 85.4679 1.09275Z" fill="url(#paint11_radial_82_34445)"/>
<path fill-rule="evenodd" clip-rule="evenodd" d="M75.162 0L76.4032 6.77925C77.7792 6.77925 84.0931 5.68647 87.9785 5.66624L85.4691 1.09277C81.9345 1.07254 78.211 0.688043 75.162 0Z" fill="url(#paint12_radial_82_34445)"/>
<path fill-rule="evenodd" clip-rule="evenodd" d="M177.502 47.3929L174.318 42.2529C173.401 42.3339 152.976 41.4839 151.87 41.6458L149.522 48C152.436 48 176.396 47.3929 177.502 47.3929ZM143.775 47.2108L141.752 42.5767C97.1242 42.5767 52.47 43.3659 7.86962 42.2529L5.00958 47.4536C51.0939 47.4536 97.6909 47.1905 143.775 47.2108Z" fill="url(#paint13_radial_82_34445)"/>
<path fill-rule="evenodd" clip-rule="evenodd" d="M149.523 48.0002L151.87 41.6459C150.791 41.7875 142.291 42.597 141.779 42.597L143.802 47.2312C145.745 47.2312 149.334 48.0002 149.523 48.0002Z" fill="url(#paint14_radial_82_34445)"/>
<path fill-rule="evenodd" clip-rule="evenodd" d="M3.14713 9.22771C3.41694 8.92417 6.84359 6.15182 7.22133 6.13159C30.2635 5.36261 55.3562 6.45536 76.4018 6.7589C77.7778 6.7589 84.0915 5.66616 87.9768 5.64592C116.982 5.46379 162.392 6.13159 174.965 6.13159C175.154 6.13159 178.985 8.92417 179.039 9.22771C180.388 18.9208 179.795 36.769 179.498 38.4689C179.444 38.8331 174.614 42.2328 174.317 42.2732C173.4 42.3542 152.975 41.5043 151.869 41.6662C150.79 41.8078 142.29 42.6173 141.778 42.6173C97.1505 42.6173 52.4962 43.4065 7.89586 42.2935C7.46416 42.2935 3.87563 39.5009 3.63279 39.1164C3.20109 38.4891 3.92959 26.0439 3.87563 25.1535C3.84865 24.5464 2.55354 19.8921 2.49957 17.2412C2.49957 17.0388 3.65977 15.1366 3.65977 14.9545C3.65977 14.4081 2.98524 9.49078 3.20109 9.22771H3.14713Z" fill="url(#paint15_radial_82_34445)"/>
<path style="mix-blend-mode:screen" opacity="0.75" fill-rule="evenodd" clip-rule="evenodd" d="M4.82169 9.73361C4.68678 9.91574 5.95491 14.3272 5.95491 15.0355C5.95491 15.2985 4.17413 17.0793 4.17413 17.3829C4.17413 18.0304 6.19774 23.8382 6.33265 25.0321C6.46756 26.226 4.92961 38.0439 5.19943 38.57C5.30735 38.7926 8.24833 40.9781 8.38324 40.9781C52.8217 42.1923 97.2871 41.3222 141.726 41.3019C144.1 41.3019 150.063 39.339 152.518 38.8736C153.84 38.6105 171.999 40.8567 173.51 40.5127C175.048 40.1485 177.746 38.1856 177.8 38.0237C179.068 34.4216 178.205 14.8938 177.341 9.69314C177.341 9.57172 174.427 7.44693 174.346 7.44693C145.719 7.10292 116.66 6.57678 88.0865 6.57678C87.0072 6.57678 77.2129 9.43007 76.1067 9.36936C71.331 9.06582 46.1573 7.32552 31.0746 7.2041C23.304 7.14339 15.5063 7.10292 7.76267 7.4267C7.5738 7.4267 4.90263 9.57172 4.79471 9.73361H4.82169Z" fill="url(#paint16_radial_82_34445)"/>
<path style="mix-blend-mode:screen" fill-rule="evenodd" clip-rule="evenodd" d="M6.38402 6.09114C6.38402 5.70666 5.70948 4.18894 5.52061 3.70327C5.25079 3.01523 4.98097 2.34744 4.71116 1.67964C4.63021 1.49751 4.76512 1.74035 4.81908 1.78082C5.25079 2.38791 7.03158 5.22099 7.62518 5.42335C8.00292 5.54477 8.54255 5.565 9.16313 5.565C25.4061 5.40311 41.6761 5.64595 57.892 6.39469C41.5142 6.0102 25.1902 6.03044 8.81237 6.33398C8.05688 6.33398 7.65216 6.41493 7.35536 6.47563C6.84271 6.57682 5.87137 7.10296 5.35872 7.38627C5.6825 7.04225 6.30307 6.47563 6.38402 6.07091V6.09114Z" fill="url(#paint17_radial_82_34445)"/>
<path style="mix-blend-mode:screen" fill-rule="evenodd" clip-rule="evenodd" d="M174.696 5.44356C175.128 5.18049 177.043 2.24624 177.448 1.72009C177.151 2.46883 175.856 5.38286 175.856 5.92923C175.856 6.37443 177.097 7.48743 177.529 7.91239C176.935 7.56837 175.694 6.6375 175.02 6.53632C173.239 6.29349 138.891 6.17207 133.576 5.80782C133.171 5.78758 134.358 5.80782 134.358 5.80782C138.568 5.70664 173.698 5.86853 174.723 5.4638L174.696 5.44356Z" fill="url(#paint18_radial_82_34445)"/>
</g>
<defs>
<radialGradient id="paint0_radial_82_34445" cx="0" cy="0" r="1" gradientUnits="userSpaceOnUse" gradientTransform="translate(9.06437 5.98968) scale(31.5265 31.5265)">
<stop stop-color="#75859D"/>
<stop offset="1" stop-color="#495573"/>
</radialGradient>
<radialGradient id="paint1_radial_82_34445" cx="0" cy="0" r="1" gradientUnits="userSpaceOnUse" gradientTransform="translate(56.5384 -20.1754) scale(257.808 257.808)">
<stop stop-color="#607492"/>
<stop offset="1" stop-color="#3B4762"/>
</radialGradient>
<radialGradient id="paint2_radial_82_34445" cx="0" cy="0" r="1" gradientUnits="userSpaceOnUse" gradientTransform="translate(77.1384 28.4317) scale(346.199 346.199)">
<stop stop-color="#1A2432"/>
<stop offset="1" stop-color="#181A21"/>
</radialGradient>
<radialGradient id="paint3_radial_82_34445" cx="0" cy="0" r="1" gradientUnits="userSpaceOnUse" gradientTransform="translate(9.54938 36.6274) scale(36.9496 36.9496)">
<stop stop-color="#1A232F"/>
<stop offset="1" stop-color="#1B1D24"/>
</radialGradient>
<radialGradient id="paint4_radial_82_34445" cx="0" cy="0" r="1" gradientUnits="userSpaceOnUse" gradientTransform="translate(0.544909 8.13488) scale(109.093 109.093)">
<stop stop-color="#2C3A50"/>
<stop offset="1" stop-color="#192232"/>
</radialGradient>
<radialGradient id="paint5_radial_82_34445" cx="0" cy="0" r="1" gradientUnits="userSpaceOnUse" gradientTransform="translate(1.29359 26.8528) scale(28.5519 28.5519)">
<stop stop-color="#556784"/>
<stop offset="1" stop-color="#26324A"/>
</radialGradient>
<radialGradient id="paint6_radial_82_34445" cx="0" cy="0" r="1" gradientUnits="userSpaceOnUse" gradientTransform="translate(3.60041 13.3558) scale(28.4305)">
<stop stop-color="#1A2432"/>
<stop offset="1" stop-color="#181A21"/>
</radialGradient>
<radialGradient id="paint7_radial_82_34445" cx="0" cy="0" r="1" gradientUnits="userSpaceOnUse" gradientTransform="translate(70.1768 -24.2833) scale(141.956 141.956)">
<stop offset="0.07" stop-color="#4A5B76"/>
<stop offset="1" stop-color="#263348"/>
</radialGradient>
<radialGradient id="paint8_radial_82_34445" cx="0" cy="0" r="1" gradientUnits="userSpaceOnUse" gradientTransform="translate(71.4929 -83.7572) scale(263.676 263.676)">
<stop stop-color="#1C2129"/>
<stop offset="1"/>
</radialGradient>
<radialGradient id="paint9_radial_82_34445" cx="0" cy="0" r="1" gradientUnits="userSpaceOnUse" gradientTransform="translate(8.19392 5.84823) scale(39.5616 39.5616)">
<stop stop-color="#1D2536"/>
<stop offset="0.07" stop-color="#19202F"/>
<stop offset="0.43" stop-color="#0B0E15"/>
<stop offset="0.75" stop-color="#020305"/>
<stop offset="1"/>
</radialGradient>
<radialGradient id="paint10_radial_82_34445" cx="0" cy="0" r="1" gradientUnits="userSpaceOnUse" gradientTransform="translate(5.66455 25.1127) scale(14.9336)">
<stop stop-color="#1D2536"/>
<stop offset="0.07" stop-color="#19202F"/>
<stop offset="0.43" stop-color="#0B0E15"/>
<stop offset="0.75" stop-color="#020305"/>
<stop offset="1"/>
</radialGradient>
<radialGradient id="paint11_radial_82_34445" cx="0" cy="0" r="1" gradientUnits="userSpaceOnUse" gradientTransform="translate(71.3836 -20.1754) scale(343.744 257.808)">
<stop stop-color="#607492"/>
<stop offset="1" stop-color="#3B4762"/>
</radialGradient>
<radialGradient id="paint12_radial_82_34445" cx="0" cy="0" r="1" gradientUnits="userSpaceOnUse" gradientTransform="translate(66.123 -5.40316) scale(70.4502 52.8376)">
<stop stop-color="#556784"/>
<stop offset="1" stop-color="#26324A"/>
</radialGradient>
<radialGradient id="paint13_radial_82_34445" cx="0" cy="0" r="1" gradientUnits="userSpaceOnUse" gradientTransform="translate(98.8511 28.4317) scale(461.599 346.199)">
<stop stop-color="#1A2432"/>
<stop offset="1" stop-color="#181A21"/>
</radialGradient>
<radialGradient id="paint14_radial_82_34445" cx="0" cy="0" r="1" gradientUnits="userSpaceOnUse" gradientTransform="translate(152.41 43.6291) scale(79.786 59.8395)">
<stop stop-color="#1D2738"/>
<stop offset="1" stop-color="#131924"/>
</radialGradient>
<radialGradient id="paint15_radial_82_34445" cx="0" cy="0" r="1" gradientUnits="userSpaceOnUse" gradientTransform="translate(89.5687 -24.2832) scale(189.275 141.956)">
<stop offset="0.07" stop-color="#4A5B76"/>
<stop offset="1" stop-color="#263348"/>
</radialGradient>
<radialGradient id="paint16_radial_82_34445" cx="0" cy="0" r="1" gradientUnits="userSpaceOnUse" gradientTransform="translate(91.3242 -83.7571) scale(351.568 263.676)">
<stop stop-color="#1C2129"/>
<stop offset="1"/>
</radialGradient>
<radialGradient id="paint17_radial_82_34445" cx="0" cy="0" r="1" gradientUnits="userSpaceOnUse" gradientTransform="translate(6.92365 5.84831) scale(52.7492 39.5619)">
<stop stop-color="#1D2536"/>
<stop offset="0.07" stop-color="#19202F"/>
<stop offset="0.43" stop-color="#0B0E15"/>
<stop offset="0.75" stop-color="#020305"/>
<stop offset="1"/>
</radialGradient>
<radialGradient id="paint18_radial_82_34445" cx="0" cy="0" r="1" gradientUnits="userSpaceOnUse" gradientTransform="translate(175.451 6.01018) scale(51.7508 38.8131)">
<stop stop-color="#1D2536"/>
<stop offset="0.07" stop-color="#19202F"/>
<stop offset="0.43" stop-color="#0B0E15"/>
<stop offset="0.75" stop-color="#020305"/>
<stop offset="1"/>
</radialGradient>
<clipPath id="clip0_82_34445">
<rect width="12" height="48" fill="white"/>
</clipPath>
<clipPath id="clip1_82_34445">
<rect width="158" height="48" fill="white" transform="translate(12)"/>
</clipPath>
</defs>
</svg>
