<svg width="12" height="48" viewBox="0 0 12 48" fill="none" xmlns="http://www.w3.org/2000/svg">
<g clip-path="url(#clip0_82_34444)">
<path fill-rule="evenodd" clip-rule="evenodd" d="M-130.359 7.12329C-130.338 6.88046 -125.239 0.991759 -124.247 0.951287C-115.283 0.485857 -76.0247 0.202552 -71.1276 0.000190735C-68.8207 0.667982 -66.0483 1.0727 -63.3974 1.09294C-40.389 1.2953 -0.301281 0.850106 5.89096 0.951287C6.35639 0.951287 12.0023 6.55668 12.0023 7.12329C12.0023 18.4555 11.8201 33.9766 11.638 41.1199C11.638 41.8282 5.91119 47.3931 5.62788 47.3931C4.7982 47.3931 -13.1714 48.0002 -15.3569 48.0002C-15.5188 48.0002 -18.2102 47.2312 -19.647 47.2312C-54.2102 47.211 -89.1579 47.4741 -123.721 47.4741C-124.227 47.4741 -129.994 42.1924 -130.055 41.1402C-130.318 37.781 -130.44 30.9816 -130.5 24.324C-130.197 22.2194 -129.59 16.8164 -129.61 16.614C-129.63 16.0676 -130.217 14.7321 -130.521 13.4167C-130.5 10.098 -130.46 7.71014 -130.379 7.14353H-130.359V7.12329Z" fill="#1F2B3A"/>
<path fill-rule="evenodd" clip-rule="evenodd" d="M-122.082 6.13154C-104.8 5.36257 -85.9804 6.45532 -70.1963 6.75886L-71.1271 -0.0202332C-76.0243 0.202364 -115.282 0.485669 -124.267 0.930863L-122.102 6.13154H-122.082ZM-63.3969 1.09275L-61.515 5.66611C-39.7612 5.48398 -5.70386 6.15177 3.72616 6.15177L5.89142 0.951099C-0.300822 0.849919 -40.3683 1.29511 -63.3969 1.09275Z" fill="url(#paint0_radial_82_34444)"/>
<path fill-rule="evenodd" clip-rule="evenodd" d="M5.89039 0.930908L3.7251 6.13166C3.86675 6.13166 6.74031 8.92428 6.78078 9.22783L12.0018 7.12324C12.0018 6.55662 6.35583 0.951145 5.89039 0.951145V0.930908Z" fill="url(#paint1_radial_82_34444)"/>
<path fill-rule="evenodd" clip-rule="evenodd" d="M12.0017 7.12308L6.78076 9.22763C7.79257 18.9207 7.34738 36.7689 7.12479 38.4688L11.6577 41.1197C11.8398 33.9764 12.0219 18.4553 12.0219 7.12308H12.0017Z" fill="url(#paint2_radial_82_34444)"/>
<path fill-rule="evenodd" clip-rule="evenodd" d="M11.6382 41.1198L7.10523 38.4688C7.06476 38.8331 3.44245 42.2328 3.21985 42.2732L5.60774 47.4133C5.91129 47.4133 11.5977 41.8483 11.618 41.14L11.6382 41.1198Z" fill="url(#paint3_radial_82_34444)"/>
<path fill-rule="evenodd" clip-rule="evenodd" d="M5.62809 47.3929L3.24023 42.2529C2.5522 42.3339 -12.7665 41.4839 -13.5962 41.6458L-15.3567 48C-13.1712 48 4.79841 47.3929 5.62809 47.3929ZM-19.667 47.2108L-21.1847 42.5767C-54.6552 42.5767 -88.1459 43.3659 -121.596 42.2529L-123.741 47.4536C-89.178 47.4536 -54.2303 47.1905 -19.667 47.2108Z" fill="url(#paint4_radial_82_34444)"/>
<path fill-rule="evenodd" clip-rule="evenodd" d="M-125.138 9.22766C-124.935 8.92412 -122.365 6.15178 -122.082 6.13154C-104.8 5.36257 -85.9809 6.45532 -70.1968 6.75886C-69.1647 6.75886 -64.4295 5.66611 -61.5155 5.64587C-39.7617 5.46375 -5.70436 6.13154 3.72566 6.13154C3.86731 6.13154 6.74082 8.92412 6.78129 9.22766C7.79309 18.9207 7.34791 36.769 7.12531 38.4688C7.08484 38.8331 3.46258 42.2327 3.23998 42.2732C2.55195 42.3541 -12.7668 41.5042 -13.5964 41.6661C-14.4059 41.8078 -20.7802 42.6172 -21.1647 42.6172C-54.6352 42.6172 -88.1259 43.4064 -121.576 42.2934C-121.9 42.2934 -124.591 39.5009 -124.773 39.1164C-125.097 38.489 -124.551 26.0439 -124.591 25.1535C-124.612 24.5464 -125.583 19.8921 -125.623 17.2412C-125.623 17.0388 -124.753 15.1366 -124.753 14.9545C-124.753 14.4081 -125.259 9.49073 -125.097 9.22766H-125.138Z" fill="url(#paint5_radial_82_34444)"/>
<path style="mix-blend-mode:screen" opacity="0.75" fill-rule="evenodd" clip-rule="evenodd" d="M-123.882 9.73352C-123.984 9.91565 -123.033 14.3271 -123.033 15.0354C-123.033 15.2984 -124.368 17.0792 -124.368 17.3828C-124.368 18.0303 -122.85 23.8381 -122.749 25.032C-122.648 26.2259 -123.802 38.0438 -123.599 38.57C-123.518 38.7925 -121.313 40.978 -121.211 40.978C-87.8825 42.1922 -54.5334 41.3221 -21.2046 41.3018C-19.4238 41.3018 -14.9517 39.3389 -13.1102 38.8735C-12.1186 38.6104 1.50029 40.8566 2.63351 40.5126C3.78696 40.1484 5.81056 38.1855 5.85104 38.0236C6.80213 34.4216 6.15458 14.8937 5.50703 9.69305C5.50703 9.57163 3.32153 7.44684 3.26082 7.44684C-18.2097 7.10283 -40.0039 6.57669 -61.4339 6.57669C-62.2434 6.57669 -69.5891 9.42998 -70.4188 9.36927C-74.0006 9.06573 -92.8808 7.32543 -104.193 7.20401C-110.021 7.1433 -115.869 7.10283 -121.677 7.42661C-121.818 7.42661 -123.822 9.57163 -123.903 9.73352H-123.882Z" fill="url(#paint6_radial_82_34444)"/>
<path style="mix-blend-mode:screen" fill-rule="evenodd" clip-rule="evenodd" d="M3.52331 5.44351C3.84709 5.18044 5.28385 2.24621 5.58739 1.72007C5.36479 2.46881 4.39347 5.3828 4.39347 5.92918C4.39347 6.37437 5.32432 7.48736 5.64809 7.91231C5.2029 7.5683 4.27204 6.63744 3.76614 6.53626C2.43056 6.29343 -23.33 6.17201 -27.3165 5.80776C-27.62 5.78752 -26.7296 5.80776 -26.7296 5.80776C-23.5728 5.70658 2.77457 5.86847 3.54354 5.46375L3.52331 5.44351Z" fill="url(#paint7_radial_82_34444)"/>
</g>
<defs>
<radialGradient id="paint0_radial_82_34444" cx="0" cy="0" r="1" gradientUnits="userSpaceOnUse" gradientTransform="translate(-73.9602 -20.1754) scale(257.808 257.808)">
<stop stop-color="#607492"/>
<stop offset="1" stop-color="#3B4762"/>
</radialGradient>
<radialGradient id="paint1_radial_82_34444" cx="0" cy="0" r="1" gradientUnits="userSpaceOnUse" gradientTransform="translate(-17.1588 9.73374) scale(51.3397 51.3397)">
<stop stop-color="#75859D"/>
<stop offset="1" stop-color="#495573"/>
</radialGradient>
<radialGradient id="paint2_radial_82_34444" cx="0" cy="0" r="1" gradientUnits="userSpaceOnUse" gradientTransform="translate(-7.38452 19.7302) scale(84.9715 84.9713)">
<stop stop-color="#2C3A50"/>
<stop offset="1" stop-color="#192232"/>
</radialGradient>
<radialGradient id="paint3_radial_82_34444" cx="0" cy="0" r="1" gradientUnits="userSpaceOnUse" gradientTransform="translate(-2.04161 36.688) scale(32.6615 32.6615)">
<stop stop-color="#1A232F"/>
<stop offset="1" stop-color="#1B1D24"/>
</radialGradient>
<radialGradient id="paint4_radial_82_34444" cx="0" cy="0" r="1" gradientUnits="userSpaceOnUse" gradientTransform="translate(-53.3601 28.4317) scale(346.199 346.199)">
<stop stop-color="#1A2432"/>
<stop offset="1" stop-color="#181A21"/>
</radialGradient>
<radialGradient id="paint5_radial_82_34444" cx="0" cy="0" r="1" gradientUnits="userSpaceOnUse" gradientTransform="translate(-60.3216 -24.2833) scale(141.956 141.956)">
<stop offset="0.07" stop-color="#4A5B76"/>
<stop offset="1" stop-color="#263348"/>
</radialGradient>
<radialGradient id="paint6_radial_82_34444" cx="0" cy="0" r="1" gradientUnits="userSpaceOnUse" gradientTransform="translate(-59.0056 -83.7572) scale(263.676 263.676)">
<stop stop-color="#1C2129"/>
<stop offset="1"/>
</radialGradient>
<radialGradient id="paint7_radial_82_34444" cx="0" cy="0" r="1" gradientUnits="userSpaceOnUse" gradientTransform="translate(4.08992 6.01012) scale(38.8128 38.8128)">
<stop stop-color="#1D2536"/>
<stop offset="0.07" stop-color="#19202F"/>
<stop offset="0.43" stop-color="#0B0E15"/>
<stop offset="0.75" stop-color="#020305"/>
<stop offset="1"/>
</radialGradient>
<clipPath id="clip0_82_34444">
<rect width="12" height="48" fill="white"/>
</clipPath>
</defs>
</svg>
