<svg width="522" height="130" viewBox="0 0 522 130" fill="none" xmlns="http://www.w3.org/2000/svg">
<g clip-path="url(#clip0_48_34154)">
<g clip-path="url(#clip1_48_34154)">
<path fill-rule="evenodd" clip-rule="evenodd" d="M521.472 339.62C494.625 343.288 103.414 341.454 -1.48503e-05 337.467C0.852296 330.051 1.56255 322.635 2.27281 315.219L39.3483 313.465L2.84098 308.92C6.25022 272.876 8.66513 236.514 9.80154 200.152L29.5467 196.563L9.94357 193.134C11.5061 141.222 10.6539 89.2307 7.24461 37.4783C22.8703 25.1183 38.6381 12.838 54.2638 0.478021C60.9402 -1.11682 520.194 1.83363 626.165 4.06641C624.318 20.8122 622.897 37.4783 621.761 54.224L607.414 59.0086L613.806 63.4741L612.67 66.903L620.767 69.8535C617.641 123.839 618.068 177.664 621.761 231.171L610.965 234.122L616.363 239.305L601.021 243.372L622.897 246.322C624.744 268.57 627.017 290.738 630 312.907C593.919 321.838 557.696 330.769 521.614 339.7L521.472 339.62Z" fill="url(#paint0_linear_48_34154)"/>
<path style="mix-blend-mode:multiply" fill-rule="evenodd" clip-rule="evenodd" d="M7.38583 37.3987C18.1818 34.528 64.4907 30.3016 66.6215 27.5904C68.3261 25.5171 56.962 7.73469 54.5471 0.398438C38.9214 12.7584 23.1536 25.0387 7.52791 37.3987H7.38583Z" fill="url(#paint1_radial_48_34154)"/>
<path fill-rule="evenodd" clip-rule="evenodd" d="M7.38777 37.3987C25.9966 32.6939 44.6054 28.1486 62.5039 22.6464C58.9526 15.3102 56.6798 7.89417 54.549 0.398438C50.0034 0.398438 7.52985 34.6077 7.52985 37.3987H7.38777Z" fill="url(#paint2_linear_48_34154)"/>
<path style="mix-blend-mode:screen" fill-rule="evenodd" clip-rule="evenodd" d="M55.1172 20.1744C49.7192 27.2714 25.8545 32.2154 11.3653 34.209C10.797 34.209 10.2288 34.3685 9.80268 34.4482C8.24011 35.9633 7.38777 37 7.38777 37.3987C7.81392 37.3189 8.38214 37.1594 8.95035 37C26.9909 32.4547 45.1736 27.9891 62.5039 22.6464C58.9526 15.3102 56.6798 7.89417 54.549 0.398438C54.2649 0.398438 53.8388 0.557921 53.2706 0.797147C53.2706 0.956631 53.4126 1.03637 53.5546 1.19586C56.5377 6.21959 58.9526 15.3899 55.1172 20.1744Z" fill="url(#paint3_radial_48_34154)"/>
<path style="mix-blend-mode:screen" opacity="0.5" fill-rule="evenodd" clip-rule="evenodd" d="M508.547 332.763C521.047 329.493 526.161 323.752 532.979 314.422C552.725 287.708 578.578 292.493 599.176 285.236C612.955 280.372 617.358 265.7 591.789 246.003C568.208 227.742 610.966 207.648 609.545 169.531C608.551 145.13 585.255 106.535 581.419 95.2115C577.868 84.6856 573.464 79.1036 591.221 64.1122C598.039 58.3707 590.368 55.6595 607.131 40.987C615.938 33.3318 613.097 27.9093 604.574 23.9222C577.726 11.5623 528.434 8.37258 479.994 11.5623C344.193 20.6528 335.954 26.155 220.892 13.6355C190.492 10.3661 179.696 11.2433 160.093 10.0472C144.894 9.09026 129.126 7.6549 116.057 9.88768C88.9253 14.433 101.71 29.5839 78.2715 38.834C44.6052 52.1509 7.95578 33.571 24.7179 72.3256C33.099 91.8623 42.9006 114.509 27.1328 138.671C22.5872 145.608 22.5871 163.231 27.8431 169.69C48.2985 195.367 67.3335 191.38 40.0595 206.053C17.8994 218.014 49.1508 227.902 33.099 241.299C17.6153 254.297 25.002 266.896 42.1903 293.37C44.4631 296.958 32.9569 301.424 54.5488 308.441C69.6063 313.385 16.3368 327.5 136.797 327.5C171.031 327.5 181.543 334.597 216.062 333.959C246.319 333.48 267.342 334.357 291.065 335.155C334.249 336.75 378.001 331.008 384.251 331.088C433.969 332.045 468.346 343.209 508.689 332.683L508.547 332.763Z" fill="url(#paint4_radial_48_34154)"/>
<path style="mix-blend-mode:screen" opacity="0.5" fill-rule="evenodd" clip-rule="evenodd" d="M561.956 281.967C578.576 273.594 586.531 267.215 575.025 243.85C558.121 209.163 591.361 200.391 594.912 178.781C599.6 151.111 595.764 164.667 578.008 145.05C567.07 133.009 596.333 129.182 562.24 106.535C536.955 89.6296 543.063 75.914 566.076 60.4441C584.826 47.9246 586.957 30.7801 566.928 22.487C535.677 9.56878 499.879 24.1615 475.304 25.0387C467.918 25.2779 458.542 24.321 442.917 20.9719C425.302 17.1443 380.13 27.9094 345.753 31.3383C306.547 35.3254 272.454 34.847 221.6 19.9352C177.138 6.85756 115.203 24.7197 102.702 37.7974C99.2932 41.3858 75.8546 38.3556 71.5931 58.6898C69.7464 67.5411 30.5401 73.2028 53.8366 97.1254C58.0981 101.511 61.0812 126.869 53.4104 134.445C44.7453 143.136 44.7453 162.593 53.8366 170.089C79.548 191.38 42.7566 208.923 61.6495 224.393C80.8265 240.103 64.4905 252.622 64.4905 264.583C64.4905 289.782 80.4003 274.471 71.451 299.112C63.6382 320.562 95.1737 323.513 128.414 319.206C150.574 316.336 182.251 327.101 216.202 328.058C257.113 329.174 266.346 317.851 301.149 321.439C354.276 326.862 374.448 309.478 411.381 323.034C439.649 333.401 467.065 330.849 479.566 323.832C495.334 314.821 476.867 326.064 501.442 307.165C525.023 288.905 553.433 286.193 561.814 281.967H561.956Z" fill="url(#paint5_radial_48_34154)"/>
</g>
<g clip-path="url(#clip2_48_34154)">
<path fill-rule="evenodd" clip-rule="evenodd" d="M521.472 85.9033C494.625 86.3581 103.414 86.1307 -1.48503e-05 85.6364C0.852296 84.7171 1.56255 83.7978 2.27281 82.8784L39.3483 82.6609L2.84098 82.0975C6.25022 77.6293 8.66513 73.1216 9.80154 68.6139L29.5467 68.169L9.94357 67.7439C11.5061 61.3086 10.6539 54.8633 7.24461 48.4477C22.8703 46.9155 38.6381 45.3931 54.2638 43.8609C60.9402 43.6632 520.194 44.029 626.165 44.3058C624.318 46.3817 622.897 48.4477 621.761 50.5237L607.414 51.1168L613.806 51.6704L612.67 52.0954L620.767 52.4612C617.641 59.1536 618.068 65.8262 621.761 72.4593L610.965 72.825L616.363 73.4676L601.021 73.9717L622.897 74.3375C624.744 77.0955 627.017 79.8436 630 82.5917C593.919 83.6989 557.696 84.8061 521.614 85.9132L521.472 85.9033Z" fill="url(#paint6_linear_48_34154)"/>
<path style="mix-blend-mode:screen" opacity="0.5" fill-rule="evenodd" clip-rule="evenodd" d="M508.545 85.0535C521.045 84.6482 526.159 83.9365 532.978 82.7799C552.723 79.4683 578.576 80.0614 599.174 79.1618C612.953 78.5588 617.356 76.7399 591.787 74.2983C568.206 72.0345 610.964 69.5434 609.543 64.8182C608.549 61.7933 585.253 57.0088 581.417 55.605C577.866 54.3002 573.462 53.6082 591.219 51.7497C598.037 51.038 590.366 50.7019 607.129 48.883C615.936 47.934 613.095 47.2618 604.572 46.7675C577.724 45.2353 528.432 44.8399 479.992 45.2353C344.191 46.3622 335.952 47.0443 220.89 45.4923C190.49 45.087 179.695 45.1958 160.091 45.0475C144.892 44.9289 129.124 44.7509 116.055 45.0277C88.9234 45.5912 101.708 47.4694 78.2695 48.6161C44.6032 50.2669 7.95383 47.9637 24.7159 52.7679C33.097 55.1899 42.8986 57.9973 27.1309 60.9926C22.5852 61.8526 22.5852 64.0372 27.8411 64.838C48.2966 68.021 67.3315 67.5268 40.0576 69.3457C17.8975 70.8285 49.1489 72.0543 33.097 73.715C17.6134 75.3263 25 76.8882 42.1883 80.1702C44.4612 80.615 32.955 81.1686 54.5469 82.0385C69.6044 82.6514 16.3349 84.4011 136.795 84.4011C171.029 84.4011 181.541 85.2809 216.06 85.2018C246.317 85.1425 267.341 85.2512 291.063 85.3501C334.247 85.5478 377.999 84.836 384.249 84.8459C433.967 84.9646 468.344 86.3485 508.687 85.0436L508.545 85.0535Z" fill="url(#paint7_radial_48_34154)"/>
<path style="mix-blend-mode:screen" opacity="0.5" fill-rule="evenodd" clip-rule="evenodd" d="M561.956 78.7564C578.576 77.7184 586.531 76.9276 575.025 74.0312C558.121 69.731 591.361 68.6436 594.912 65.9647C599.6 62.5345 595.764 64.215 578.008 61.7832C567.07 60.2905 596.333 59.816 562.24 57.0086C536.955 54.9129 543.063 53.2126 566.076 51.2948C584.826 49.7428 586.957 47.6175 566.928 46.5894C535.677 44.988 499.879 46.797 475.304 46.9057C467.918 46.9354 458.542 46.8168 442.917 46.4016C425.302 45.9271 380.13 47.2616 345.753 47.6867C306.547 48.1809 272.454 48.1216 221.6 46.2731C177.138 44.6519 115.203 46.8662 102.702 48.4874C99.2932 48.9322 75.8546 48.5566 71.5931 51.0774C69.7464 52.1746 30.5401 52.8765 53.8366 55.8421C58.0981 56.3858 61.0812 59.5293 53.4104 60.4684C44.7453 61.546 44.7453 63.958 53.8366 64.8872C79.548 67.5266 42.7566 69.7014 61.6495 71.6191C80.8265 73.5665 64.4905 75.1185 64.4905 76.6013C64.4905 79.7251 80.4003 77.8271 71.451 80.8817C63.6382 83.5409 95.1737 83.9066 128.414 83.3728C150.574 83.0169 182.251 84.3515 216.202 84.4701C257.113 84.6085 266.346 83.2048 301.149 83.6496C354.276 84.3218 374.448 82.1668 411.381 83.8473C439.649 85.1324 467.065 84.8161 479.566 83.9462C495.334 82.8291 476.867 84.223 501.442 81.8801C525.023 79.6164 553.433 79.2803 561.814 78.7564H561.956Z" fill="url(#paint8_radial_48_34154)"/>
</g>
<g clip-path="url(#clip3_48_34154)">
<path fill-rule="evenodd" clip-rule="evenodd" d="M521.472 127.62C494.625 131.288 103.414 129.454 -1.48503e-05 125.467C0.852296 118.051 1.56255 110.635 2.27281 103.219L39.3483 101.465L2.84098 96.9196C6.25022 60.8763 8.66513 24.514 9.80154 -11.8483L29.5467 -15.4367L9.94357 -18.8656C11.5061 -70.7776 10.6539 -122.769 7.24461 -174.522C22.8703 -186.882 38.6381 -199.162 54.2638 -211.522C60.9402 -213.117 520.194 -210.166 626.165 -207.934C624.318 -191.188 622.897 -174.522 621.761 -157.776L607.414 -152.991L613.806 -148.526L612.67 -145.097L620.767 -142.147C617.641 -88.1613 618.068 -34.3355 621.761 19.1713L610.965 22.1217L616.363 27.305L601.021 31.3718L622.897 34.3222C624.744 56.5702 627.017 78.7385 630 100.907C593.919 109.838 557.696 118.769 521.614 127.7L521.472 127.62Z" fill="url(#paint9_linear_48_34154)"/>
<path style="mix-blend-mode:multiply" fill-rule="evenodd" clip-rule="evenodd" d="M521.614 127.541C557.696 118.61 593.919 109.679 630 100.748C626.591 97.7972 592.782 82.8057 588.237 82.5665C583.833 82.3273 532.837 122.039 521.614 127.541Z" fill="url(#paint10_radial_48_34154)"/>
<path fill-rule="evenodd" clip-rule="evenodd" d="M594.629 88.8662C571.759 102.103 545.195 116.696 521.472 127.541C529.427 127.541 630 105.213 630 100.748C619.204 96.2822 607.556 92.2154 594.629 88.8662Z" fill="url(#paint11_linear_48_34154)"/>
<path style="mix-blend-mode:screen" fill-rule="evenodd" clip-rule="evenodd" d="M544.059 122.038C550.309 109.359 598.891 93.8893 615.369 95.2449C608.835 92.9324 601.874 90.8591 594.63 88.9453C571.901 102.103 545.338 116.695 521.615 127.54C521.615 127.54 521.615 127.54 521.473 127.62C523.604 127.62 532.127 126.105 543.491 123.713C543.491 123.155 543.775 122.596 544.059 122.038Z" fill="url(#paint12_radial_48_34154)"/>
<path style="mix-blend-mode:screen" opacity="0.5" fill-rule="evenodd" clip-rule="evenodd" d="M508.545 120.763C521.045 117.493 526.159 111.752 532.978 102.422C552.723 75.7084 578.576 80.4929 599.174 73.2364C612.953 68.3721 617.356 53.6996 591.787 34.0034C568.206 15.7425 610.964 -4.35246 609.543 -42.4691C608.549 -66.8701 585.253 -105.465 581.417 -116.789C577.866 -127.314 573.462 -132.896 591.219 -147.888C598.037 -153.629 590.366 -156.34 607.129 -171.013C615.936 -178.668 613.095 -184.091 604.572 -188.078C577.724 -200.438 528.432 -203.627 479.992 -200.438C344.191 -191.347 335.952 -185.845 220.89 -198.364C190.49 -201.634 179.695 -200.757 160.091 -201.953C144.892 -202.91 129.124 -204.345 116.055 -202.112C88.9234 -197.567 101.708 -182.416 78.2695 -173.166C44.6032 -159.849 7.95383 -178.429 24.7159 -139.674C33.097 -120.138 42.8986 -97.491 27.1309 -73.3292C22.5852 -66.3917 22.5852 -48.7687 27.8411 -42.3096C48.2966 -16.6327 67.3315 -20.6198 40.0576 -5.9473C17.8975 6.01398 49.1489 15.902 33.097 29.2986C17.6134 42.2965 25 54.8957 42.1883 81.37C44.4612 84.9584 32.955 89.424 54.5469 96.4413C69.6044 101.385 16.3349 115.5 136.795 115.5C171.029 115.5 181.541 122.597 216.06 121.959C246.317 121.48 267.341 122.357 291.063 123.155C334.247 124.75 377.999 119.008 384.249 119.088C433.967 120.045 468.344 131.209 508.687 120.683L508.545 120.763Z" fill="url(#paint13_radial_48_34154)"/>
<path style="mix-blend-mode:screen" opacity="0.5" fill-rule="evenodd" clip-rule="evenodd" d="M561.956 69.967C578.576 61.5942 586.531 55.2148 575.025 31.8504C558.121 -2.83729 591.361 -11.6089 594.912 -33.2189C599.6 -60.8894 595.764 -47.3333 578.008 -66.9498C567.07 -78.9908 596.333 -82.8184 562.24 -105.465C536.955 -122.37 543.063 -136.086 566.076 -151.556C584.826 -164.075 586.957 -181.22 566.928 -189.513C535.677 -202.431 499.879 -187.838 475.304 -186.961C467.918 -186.722 458.542 -187.679 442.917 -191.028C425.302 -194.856 380.13 -184.091 345.753 -180.662C306.547 -176.675 272.454 -177.153 221.6 -192.065C177.138 -205.142 115.203 -187.28 102.702 -174.203C99.2932 -170.614 75.8546 -173.644 71.5931 -153.31C69.7464 -144.459 30.5401 -138.797 53.8366 -114.875C58.0981 -110.489 61.0812 -85.1309 53.4104 -77.5554C44.7453 -68.8636 44.7453 -49.4065 53.8366 -41.9108C79.548 -20.6197 42.7566 -3.07652 61.6495 12.3934C80.8265 28.1026 64.4905 40.622 64.4905 52.5833C64.4905 77.7818 80.4003 62.4713 71.451 87.1115C63.6382 108.562 95.1737 111.513 128.414 107.206C150.574 104.336 182.251 115.101 216.202 116.058C257.113 117.174 266.346 105.851 301.149 109.439C354.276 114.862 374.448 97.478 411.381 111.034C439.649 121.401 467.065 118.849 479.566 111.832C495.334 102.821 476.867 114.064 501.442 95.1655C525.023 76.9046 553.433 74.1934 561.814 69.967H561.956Z" fill="url(#paint14_radial_48_34154)"/>
</g>
</g>
<defs>
<linearGradient id="paint0_linear_48_34154" x1="314.929" y1="341.534" x2="314.929" y2="-0.000421526" gradientUnits="userSpaceOnUse">
<stop stop-color="#EDD6B9"/>
<stop offset="1" stop-color="#D4B492"/>
</linearGradient>
<radialGradient id="paint1_radial_48_34154" cx="0" cy="0" r="1" gradientUnits="userSpaceOnUse" gradientTransform="translate(15.6248 16.4266) rotate(180) scale(56.5367 31.7373)">
<stop stop-color="#A48A7B"/>
<stop offset="1" stop-color="white"/>
</radialGradient>
<linearGradient id="paint2_linear_48_34154" x1="25.8545" y1="16.1076" x2="37.4273" y2="36.7233" gradientUnits="userSpaceOnUse">
<stop stop-color="#BF9F7E"/>
<stop offset="1" stop-color="#EDD6B9"/>
</linearGradient>
<radialGradient id="paint3_radial_48_34154" cx="0" cy="0" r="1" gradientUnits="userSpaceOnUse" gradientTransform="translate(-3.40818 -11.0844) rotate(180) scale(109.664 61.5607)">
<stop/>
<stop offset="1" stop-color="#A3805F"/>
</radialGradient>
<radialGradient id="paint4_radial_48_34154" cx="0" cy="0" r="1" gradientUnits="userSpaceOnUse" gradientTransform="translate(316.634 172.96) rotate(180) scale(594.629 333.8)">
<stop stop-color="#CA9E67"/>
<stop offset="1"/>
</radialGradient>
<radialGradient id="paint5_radial_48_34154" cx="0" cy="0" r="1" gradientUnits="userSpaceOnUse" gradientTransform="translate(321.746 172.641) rotate(180) scale(488.232 274.073)">
<stop stop-color="#CA9E67"/>
<stop offset="1"/>
</radialGradient>
<linearGradient id="paint6_linear_48_34154" x1="314.929" y1="86.1406" x2="314.929" y2="43.8016" gradientUnits="userSpaceOnUse">
<stop stop-color="#EDD6B9"/>
<stop offset="1" stop-color="#D4B492"/>
</linearGradient>
<radialGradient id="paint7_radial_48_34154" cx="0" cy="0" r="1" gradientUnits="userSpaceOnUse" gradientTransform="translate(316.633 65.2433) rotate(180) scale(594.629 41.3801)">
<stop stop-color="#CA9E67"/>
<stop offset="1"/>
</radialGradient>
<radialGradient id="paint8_radial_48_34154" cx="0" cy="0" r="1" gradientUnits="userSpaceOnUse" gradientTransform="translate(321.746 65.2035) rotate(180) scale(488.232 33.976)">
<stop stop-color="#CA9E67"/>
<stop offset="1"/>
</radialGradient>
<linearGradient id="paint9_linear_48_34154" x1="314.929" y1="129.534" x2="314.929" y2="-212" gradientUnits="userSpaceOnUse">
<stop stop-color="#EDD6B9"/>
<stop offset="1" stop-color="#D4B492"/>
</linearGradient>
<radialGradient id="paint10_radial_48_34154" cx="0" cy="0" r="1" gradientUnits="userSpaceOnUse" gradientTransform="translate(589.373 131.289) rotate(180) scale(99.0102 55.5801)">
<stop stop-color="#A48A7B"/>
<stop offset="1" stop-color="white"/>
</radialGradient>
<linearGradient id="paint11_linear_48_34154" x1="577.299" y1="116.218" x2="572.044" y2="94.2865" gradientUnits="userSpaceOnUse">
<stop stop-color="#BF9F7E"/>
<stop offset="1" stop-color="#EDD6B9"/>
</linearGradient>
<radialGradient id="paint12_radial_48_34154" cx="0" cy="0" r="1" gradientUnits="userSpaceOnUse" gradientTransform="translate(605.71 156.407) rotate(180) scale(167.195 93.8562)">
<stop/>
<stop offset="1" stop-color="#A3805F"/>
</radialGradient>
<radialGradient id="paint13_radial_48_34154" cx="0" cy="0" r="1" gradientUnits="userSpaceOnUse" gradientTransform="translate(316.633 -39.0402) rotate(180) scale(594.629 333.8)">
<stop stop-color="#CA9E67"/>
<stop offset="1"/>
</radialGradient>
<radialGradient id="paint14_radial_48_34154" cx="0" cy="0" r="1" gradientUnits="userSpaceOnUse" gradientTransform="translate(321.746 -39.3591) rotate(180) scale(488.232 274.073)">
<stop stop-color="#CA9E67"/>
<stop offset="1"/>
</radialGradient>
<clipPath id="clip0_48_34154">
<rect width="522" height="130" fill="white"/>
</clipPath>
<clipPath id="clip1_48_34154">
<rect width="630" height="50" fill="white" transform="matrix(-1 0 0 1 630 0)"/>
</clipPath>
<clipPath id="clip2_48_34154">
<rect width="630" height="30" fill="white" transform="matrix(-1 0 0 1 630 50)"/>
</clipPath>
<clipPath id="clip3_48_34154">
<rect width="630" height="50" fill="white" transform="matrix(-1 0 0 1 630 80)"/>
</clipPath>
</defs>
</svg>
