<svg width="109" height="130" viewBox="0 0 109 130" fill="none" xmlns="http://www.w3.org/2000/svg">
<g clip-path="url(#clip0_48_34113)">
<g clip-path="url(#clip1_48_34113)">
<path fill-rule="evenodd" clip-rule="evenodd" d="M0.472374 339.62C-26.3754 343.288 -417.586 341.454 -521 337.467C-520.148 330.051 -519.437 322.635 -518.727 315.219L-481.652 313.465L-518.159 308.92C-514.75 272.876 -512.335 236.514 -511.198 200.152L-491.453 196.563L-511.056 193.134C-509.494 141.222 -510.346 89.2307 -513.755 37.4783C-498.13 25.1183 -482.362 12.838 -466.736 0.478021C-460.06 -1.11682 -0.806095 1.83363 105.165 4.06641C103.318 20.8122 101.897 37.4783 100.761 54.224L86.4138 59.0086L92.8061 63.4741L91.6697 66.903L99.7666 69.8535C96.6415 123.839 97.0676 177.664 100.761 231.171L89.965 234.122L95.363 239.305L80.0214 243.372L101.897 246.322C103.744 268.57 106.017 290.738 109 312.907C72.9188 321.838 36.6956 330.769 0.614423 339.7L0.472374 339.62Z" fill="url(#paint0_linear_48_34113)"/>
<path style="mix-blend-mode:screen" opacity="0.5" fill-rule="evenodd" clip-rule="evenodd" d="M-12.4535 332.763C0.0471105 329.493 5.16098 323.752 11.9795 314.422C31.7247 287.708 57.5781 292.493 78.1756 285.236C91.9547 280.372 96.3583 265.7 70.7889 246.003C47.2083 227.742 89.9659 207.648 88.5454 169.531C87.5511 145.13 64.2545 106.535 60.4191 95.2115C56.8679 84.6856 52.4642 79.1036 70.2207 64.1122C77.0392 58.3707 69.3684 55.6595 86.1305 40.987C94.9378 33.3318 92.0967 27.9093 83.5736 23.9222C56.7258 11.5623 7.4338 8.37258 -41.0059 11.5623C-176.807 20.6528 -185.046 26.155 -300.108 13.6355C-330.508 10.3661 -341.304 11.2433 -360.907 10.0472C-376.106 9.09026 -391.874 7.6549 -404.943 9.88768C-432.075 14.433 -419.29 29.5839 -442.729 38.834C-476.395 52.1509 -513.044 33.571 -496.282 72.3256C-487.901 91.8623 -478.099 114.509 -493.867 138.671C-498.413 145.608 -498.413 163.231 -493.157 169.69C-472.701 195.367 -453.667 191.38 -480.94 206.053C-503.101 218.014 -471.849 227.902 -487.901 241.299C-503.385 254.297 -495.998 266.896 -478.81 293.37C-476.537 296.958 -488.043 301.424 -466.451 308.441C-451.394 313.385 -504.663 327.5 -384.203 327.5C-349.969 327.5 -339.457 334.597 -304.938 333.959C-274.681 333.48 -253.658 334.357 -229.935 335.155C-186.751 336.75 -142.999 331.008 -136.749 331.088C-87.0307 332.045 -52.6541 343.209 -12.3114 332.683L-12.4535 332.763Z" fill="url(#paint1_radial_48_34113)"/>
<path style="mix-blend-mode:screen" opacity="0.5" fill-rule="evenodd" clip-rule="evenodd" d="M40.9561 281.967C57.5762 273.594 65.5311 267.215 54.0249 243.85C37.1207 209.163 70.3608 200.391 73.9121 178.781C78.5999 151.111 74.7644 164.667 57.008 145.05C46.07 133.009 75.3327 129.182 41.2402 106.535C15.955 89.6296 22.0632 75.914 45.0756 60.4441C63.8265 47.9246 65.9572 30.7801 45.9279 22.487C14.6765 9.56878 -21.1206 24.1615 -45.6955 25.0387C-53.0822 25.2779 -62.4577 24.321 -78.0834 20.9719C-95.6978 17.1443 -140.87 27.9094 -175.247 31.3383C-214.453 35.3254 -248.546 34.847 -299.4 19.9352C-343.862 6.85756 -405.797 24.7197 -418.298 37.7974C-421.707 41.3858 -445.145 38.3556 -449.407 58.6898C-451.254 67.5411 -490.46 73.2028 -467.163 97.1254C-462.902 101.511 -459.919 126.869 -467.59 134.445C-476.255 143.136 -476.255 162.593 -467.163 170.089C-441.452 191.38 -478.243 208.923 -459.351 224.393C-440.174 240.103 -456.51 252.622 -456.51 264.583C-456.51 289.782 -440.6 274.471 -449.549 299.112C-457.362 320.562 -425.826 323.513 -392.586 319.206C-370.426 316.336 -338.749 327.101 -304.798 328.058C-263.887 329.174 -254.654 317.851 -219.851 321.439C-166.724 326.862 -146.552 309.478 -109.619 323.034C-81.3506 333.401 -53.9345 330.849 -41.434 323.832C-25.6662 314.821 -44.133 326.064 -19.558 307.165C4.02261 288.905 32.433 286.193 40.8141 281.967H40.9561Z" fill="url(#paint2_radial_48_34113)"/>
</g>
<g clip-path="url(#clip2_48_34113)">
<path fill-rule="evenodd" clip-rule="evenodd" d="M0.472374 85.9033C-26.3754 86.3581 -417.586 86.1307 -521 85.6364C-520.148 84.7171 -519.437 83.7978 -518.727 82.8784L-481.652 82.6609L-518.159 82.0975C-514.75 77.6293 -512.335 73.1216 -511.198 68.6139L-491.453 68.169L-511.056 67.7439C-509.494 61.3086 -510.346 54.8633 -513.755 48.4477C-498.13 46.9155 -482.362 45.3931 -466.736 43.8609C-460.06 43.6632 -0.806095 44.029 105.165 44.3058C103.318 46.3817 101.897 48.4477 100.761 50.5237L86.4138 51.1168L92.8061 51.6704L91.6697 52.0954L99.7666 52.4612C96.6415 59.1536 97.0676 65.8262 100.761 72.4593L89.965 72.825L95.363 73.4676L80.0214 73.9717L101.897 74.3375C103.744 77.0955 106.017 79.8436 109 82.5917C72.9188 83.6989 36.6956 84.8061 0.614423 85.9132L0.472374 85.9033Z" fill="url(#paint3_linear_48_34113)"/>
<path style="mix-blend-mode:screen" opacity="0.5" fill-rule="evenodd" clip-rule="evenodd" d="M-12.4554 85.0535C0.0451574 84.6482 5.15903 83.9365 11.9775 82.7799C31.7227 79.4683 57.5762 80.0614 78.1737 79.1618C91.9527 78.5588 96.3563 76.7399 70.787 74.2983C47.2064 72.0345 89.964 69.5434 88.5435 64.8182C87.5491 61.7933 64.2526 57.0088 60.4172 55.605C56.8659 54.3002 52.4623 53.6082 70.2188 51.7497C77.0373 51.038 69.3665 50.7019 86.1286 48.883C94.9358 47.934 92.0948 47.2618 83.5717 46.7675C56.7239 45.2353 7.43185 44.8399 -41.0078 45.2353C-176.809 46.3622 -185.048 47.0443 -300.11 45.4923C-330.51 45.087 -341.305 45.1958 -360.909 45.0475C-376.108 44.9289 -391.876 44.7509 -404.945 45.0277C-432.077 45.5912 -419.292 47.4694 -442.73 48.6161C-476.397 50.2669 -513.046 47.9637 -496.284 52.7679C-487.903 55.1899 -478.101 57.9973 -493.869 60.9926C-498.415 61.8526 -498.415 64.0372 -493.159 64.838C-472.703 68.021 -453.668 67.5268 -480.942 69.3457C-503.103 70.8285 -471.851 72.0543 -487.903 73.715C-503.387 75.3263 -496 76.8882 -478.812 80.1702C-476.539 80.615 -488.045 81.1686 -466.453 82.0385C-451.396 82.6514 -504.665 84.4011 -384.205 84.4011C-349.971 84.4011 -339.459 85.2809 -304.94 85.2018C-274.683 85.1425 -253.659 85.2512 -229.937 85.3501C-186.753 85.5478 -143.001 84.836 -136.751 84.8459C-87.0326 84.9646 -52.6561 86.3485 -12.3134 85.0436L-12.4554 85.0535Z" fill="url(#paint4_radial_48_34113)"/>
<path style="mix-blend-mode:screen" opacity="0.5" fill-rule="evenodd" clip-rule="evenodd" d="M40.9561 78.7564C57.5762 77.7184 65.5311 76.9276 54.0249 74.0312C37.1207 69.731 70.3608 68.6436 73.9121 65.9647C78.5999 62.5345 74.7644 64.215 57.008 61.7832C46.07 60.2905 75.3327 59.816 41.2402 57.0086C15.955 54.9129 22.0632 53.2126 45.0756 51.2948C63.8265 49.7428 65.9572 47.6175 45.9279 46.5894C14.6765 44.988 -21.1206 46.797 -45.6955 46.9057C-53.0822 46.9354 -62.4577 46.8168 -78.0834 46.4016C-95.6978 45.9271 -140.87 47.2616 -175.247 47.6867C-214.453 48.1809 -248.546 48.1216 -299.4 46.2731C-343.862 44.6519 -405.797 46.8662 -418.298 48.4874C-421.707 48.9322 -445.145 48.5566 -449.407 51.0774C-451.254 52.1746 -490.46 52.8765 -467.163 55.8421C-462.902 56.3858 -459.919 59.5293 -467.59 60.4684C-476.255 61.546 -476.255 63.958 -467.163 64.8872C-441.452 67.5266 -478.243 69.7014 -459.351 71.6191C-440.174 73.5665 -456.51 75.1185 -456.51 76.6013C-456.51 79.7251 -440.6 77.8271 -449.549 80.8817C-457.362 83.5409 -425.826 83.9066 -392.586 83.3728C-370.426 83.0169 -338.749 84.3515 -304.798 84.4701C-263.887 84.6085 -254.654 83.2048 -219.851 83.6496C-166.724 84.3218 -146.552 82.1668 -109.619 83.8473C-81.3506 85.1324 -53.9345 84.8161 -41.434 83.9462C-25.6662 82.8291 -44.133 84.223 -19.558 81.8801C4.02261 79.6164 32.433 79.2803 40.8141 78.7564H40.9561Z" fill="url(#paint5_radial_48_34113)"/>
</g>
<g clip-path="url(#clip3_48_34113)">
<path fill-rule="evenodd" clip-rule="evenodd" d="M0.472374 127.62C-26.3754 131.288 -417.586 129.454 -521 125.467C-520.148 118.051 -519.437 110.635 -518.727 103.219L-481.652 101.465L-518.159 96.9196C-514.75 60.8763 -512.335 24.514 -511.198 -11.8483L-491.453 -15.4367L-511.056 -18.8656C-509.494 -70.7776 -510.346 -122.769 -513.755 -174.522C-498.13 -186.882 -482.362 -199.162 -466.736 -211.522C-460.06 -213.117 -0.806095 -210.166 105.165 -207.934C103.318 -191.188 101.897 -174.522 100.761 -157.776L86.4138 -152.991L92.8061 -148.526L91.6697 -145.097L99.7666 -142.147C96.6415 -88.1613 97.0676 -34.3355 100.761 19.1713L89.965 22.1217L95.363 27.305L80.0214 31.3718L101.897 34.3222C103.744 56.5702 106.017 78.7385 109 100.907C72.9188 109.838 36.6956 118.769 0.614423 127.7L0.472374 127.62Z" fill="url(#paint6_linear_48_34113)"/>
<path style="mix-blend-mode:multiply" fill-rule="evenodd" clip-rule="evenodd" d="M0.614415 127.541C36.6956 118.61 72.9188 109.679 109 100.748C105.591 97.7972 71.7824 82.8057 67.2367 82.5665C62.8331 82.3273 11.8365 122.039 0.614415 127.541Z" fill="url(#paint7_radial_48_34113)"/>
<path fill-rule="evenodd" clip-rule="evenodd" d="M73.6291 88.8662C50.7587 102.103 24.195 116.696 0.472374 127.541C8.42728 127.541 109 105.213 109 100.748C98.2041 96.2822 86.5558 92.2154 73.6291 88.8662Z" fill="url(#paint8_linear_48_34113)"/>
<path style="mix-blend-mode:screen" fill-rule="evenodd" clip-rule="evenodd" d="M23.0591 122.038C29.3094 109.359 77.8911 93.8893 94.3691 95.2449C87.8348 92.9324 80.8742 90.8591 73.6296 88.9453C50.9013 102.103 24.3376 116.695 0.614908 127.54C0.614908 127.54 0.614919 127.54 0.472867 127.62C2.60364 127.62 11.1267 126.105 22.4909 123.713C22.4909 123.155 22.775 122.596 23.0591 122.038Z" fill="url(#paint9_radial_48_34113)"/>
<path style="mix-blend-mode:screen" opacity="0.5" fill-rule="evenodd" clip-rule="evenodd" d="M-12.4554 120.763C0.0451574 117.493 5.15903 111.752 11.9775 102.422C31.7227 75.7084 57.5762 80.4929 78.1737 73.2364C91.9527 68.3721 96.3563 53.6996 70.787 34.0034C47.2064 15.7425 89.964 -4.35246 88.5435 -42.4691C87.5491 -66.8701 64.2526 -105.465 60.4172 -116.789C56.8659 -127.314 52.4623 -132.896 70.2188 -147.888C77.0373 -153.629 69.3665 -156.34 86.1286 -171.013C94.9358 -178.668 92.0948 -184.091 83.5717 -188.078C56.7239 -200.438 7.43185 -203.627 -41.0078 -200.438C-176.809 -191.347 -185.048 -185.845 -300.11 -198.364C-330.51 -201.634 -341.305 -200.757 -360.909 -201.953C-376.108 -202.91 -391.876 -204.345 -404.945 -202.112C-432.077 -197.567 -419.292 -182.416 -442.73 -173.166C-476.397 -159.849 -513.046 -178.429 -496.284 -139.674C-487.903 -120.138 -478.101 -97.491 -493.869 -73.3292C-498.415 -66.3917 -498.415 -48.7687 -493.159 -42.3096C-472.703 -16.6327 -453.668 -20.6198 -480.942 -5.9473C-503.103 6.01398 -471.851 15.902 -487.903 29.2986C-503.387 42.2965 -496 54.8957 -478.812 81.37C-476.539 84.9584 -488.045 89.424 -466.453 96.4413C-451.396 101.385 -504.665 115.5 -384.205 115.5C-349.971 115.5 -339.459 122.597 -304.94 121.959C-274.683 121.48 -253.659 122.357 -229.937 123.155C-186.753 124.75 -143.001 119.008 -136.751 119.088C-87.0326 120.045 -52.6561 131.209 -12.3134 120.683L-12.4554 120.763Z" fill="url(#paint10_radial_48_34113)"/>
<path style="mix-blend-mode:screen" opacity="0.5" fill-rule="evenodd" clip-rule="evenodd" d="M40.9561 69.967C57.5762 61.5942 65.5311 55.2148 54.0249 31.8504C37.1207 -2.83729 70.3608 -11.6089 73.9121 -33.2189C78.5999 -60.8894 74.7644 -47.3333 57.008 -66.9498C46.07 -78.9908 75.3327 -82.8184 41.2402 -105.465C15.955 -122.37 22.0632 -136.086 45.0756 -151.556C63.8265 -164.075 65.9572 -181.22 45.9279 -189.513C14.6765 -202.431 -21.1206 -187.838 -45.6955 -186.961C-53.0822 -186.722 -62.4577 -187.679 -78.0834 -191.028C-95.6978 -194.856 -140.87 -184.091 -175.247 -180.662C-214.453 -176.675 -248.546 -177.153 -299.4 -192.065C-343.862 -205.142 -405.797 -187.28 -418.298 -174.203C-421.707 -170.614 -445.145 -173.644 -449.407 -153.31C-451.254 -144.459 -490.46 -138.797 -467.163 -114.875C-462.902 -110.489 -459.919 -85.1309 -467.59 -77.5554C-476.255 -68.8636 -476.255 -49.4065 -467.163 -41.9108C-441.452 -20.6197 -478.243 -3.07652 -459.351 12.3934C-440.174 28.1026 -456.51 40.622 -456.51 52.5833C-456.51 77.7818 -440.6 62.4713 -449.549 87.1115C-457.362 108.562 -425.826 111.513 -392.586 107.206C-370.426 104.336 -338.749 115.101 -304.798 116.058C-263.887 117.174 -254.654 105.851 -219.851 109.439C-166.724 114.862 -146.552 97.478 -109.619 111.034C-81.3506 121.401 -53.9345 118.849 -41.434 111.832C-25.6662 102.821 -44.133 114.064 -19.558 95.1655C4.02261 76.9046 32.433 74.1934 40.8141 69.967H40.9561Z" fill="url(#paint11_radial_48_34113)"/>
</g>
</g>
<defs>
<linearGradient id="paint0_linear_48_34113" x1="-206.071" y1="341.534" x2="-206.071" y2="-0.000421526" gradientUnits="userSpaceOnUse">
<stop stop-color="#EDD6B9"/>
<stop offset="1" stop-color="#D4B492"/>
</linearGradient>
<radialGradient id="paint1_radial_48_34113" cx="0" cy="0" r="1" gradientUnits="userSpaceOnUse" gradientTransform="translate(-204.366 172.96) rotate(180) scale(594.629 333.8)">
<stop stop-color="#CA9E67"/>
<stop offset="1"/>
</radialGradient>
<radialGradient id="paint2_radial_48_34113" cx="0" cy="0" r="1" gradientUnits="userSpaceOnUse" gradientTransform="translate(-199.254 172.641) rotate(180) scale(488.232 274.073)">
<stop stop-color="#CA9E67"/>
<stop offset="1"/>
</radialGradient>
<linearGradient id="paint3_linear_48_34113" x1="-206.071" y1="86.1406" x2="-206.071" y2="43.8016" gradientUnits="userSpaceOnUse">
<stop stop-color="#EDD6B9"/>
<stop offset="1" stop-color="#D4B492"/>
</linearGradient>
<radialGradient id="paint4_radial_48_34113" cx="0" cy="0" r="1" gradientUnits="userSpaceOnUse" gradientTransform="translate(-204.367 65.2433) rotate(180) scale(594.629 41.3801)">
<stop stop-color="#CA9E67"/>
<stop offset="1"/>
</radialGradient>
<radialGradient id="paint5_radial_48_34113" cx="0" cy="0" r="1" gradientUnits="userSpaceOnUse" gradientTransform="translate(-199.254 65.2035) rotate(180) scale(488.232 33.976)">
<stop stop-color="#CA9E67"/>
<stop offset="1"/>
</radialGradient>
<linearGradient id="paint6_linear_48_34113" x1="-206.071" y1="129.534" x2="-206.071" y2="-212" gradientUnits="userSpaceOnUse">
<stop stop-color="#EDD6B9"/>
<stop offset="1" stop-color="#D4B492"/>
</linearGradient>
<radialGradient id="paint7_radial_48_34113" cx="0" cy="0" r="1" gradientUnits="userSpaceOnUse" gradientTransform="translate(68.3732 131.289) rotate(180) scale(99.0102 55.5801)">
<stop stop-color="#A48A7B"/>
<stop offset="1" stop-color="white"/>
</radialGradient>
<linearGradient id="paint8_linear_48_34113" x1="56.2988" y1="116.218" x2="51.0439" y2="94.2865" gradientUnits="userSpaceOnUse">
<stop stop-color="#BF9F7E"/>
<stop offset="1" stop-color="#EDD6B9"/>
</linearGradient>
<radialGradient id="paint9_radial_48_34113" cx="0" cy="0" r="1" gradientUnits="userSpaceOnUse" gradientTransform="translate(84.7096 156.407) rotate(180) scale(167.195 93.8562)">
<stop/>
<stop offset="1" stop-color="#A3805F"/>
</radialGradient>
<radialGradient id="paint10_radial_48_34113" cx="0" cy="0" r="1" gradientUnits="userSpaceOnUse" gradientTransform="translate(-204.367 -39.0402) rotate(180) scale(594.629 333.8)">
<stop stop-color="#CA9E67"/>
<stop offset="1"/>
</radialGradient>
<radialGradient id="paint11_radial_48_34113" cx="0" cy="0" r="1" gradientUnits="userSpaceOnUse" gradientTransform="translate(-199.254 -39.3591) rotate(180) scale(488.232 274.073)">
<stop stop-color="#CA9E67"/>
<stop offset="1"/>
</radialGradient>
<clipPath id="clip0_48_34113">
<rect width="109" height="130" fill="white"/>
</clipPath>
<clipPath id="clip1_48_34113">
<rect width="630" height="50" fill="white" transform="matrix(-1 0 0 1 109 0)"/>
</clipPath>
<clipPath id="clip2_48_34113">
<rect width="630" height="30" fill="white" transform="matrix(-1 0 0 1 109 50)"/>
</clipPath>
<clipPath id="clip3_48_34113">
<rect width="630" height="50" fill="white" transform="matrix(-1 0 0 1 109 80)"/>
</clipPath>
</defs>
</svg>
