<svg width="34" height="54" viewBox="0 0 34 54" fill="none" xmlns="http://www.w3.org/2000/svg">
<g clip-path="url(#clip0_1686_234362)">
<path fill-rule="evenodd" clip-rule="evenodd" d="M8.67609 49.8444C-111.664 51.2926 -232.004 51.2926 -352.344 49.8444C-359.254 49.7544 -369.084 45.2871 -372.454 39.6335C-377.524 31.3699 -378.814 21.8544 -375.334 13.0017C-371.974 6.30077 -363.084 1.94805 -354.454 1.40805C-232.704 -0.072864 -110.954 -0.072864 10.7961 1.40805C19.4261 1.93986 28.3061 6.29259 31.6761 13.0017C35.1561 21.8544 33.8661 31.3617 28.7961 39.6335C25.4161 45.2871 15.5961 49.7544 8.6861 49.8444H8.67609Z" fill="url(#paint0_radial_1686_234362)"/>
<path fill-rule="evenodd" clip-rule="evenodd" d="M32.1263 35.2563C31.3264 37.7272 30.1963 40.1245 28.7863 42.4399C25.4163 48.0936 15.5863 52.5608 8.67633 52.6508C-6.90366 52.839 -22.4737 53.0026 -38.0637 53.1417C-38.0637 53.1417 -38.0836 53.1417 -38.0937 53.1417C-69.0737 53.4199 -100.074 53.5999 -131.054 53.6736C-135.624 53.6981 -140.184 53.7063 -144.764 53.7145H-144.794C-150.814 53.7145 -156.824 53.7308 -162.834 53.7308C-176.214 53.7472 -189.574 53.7308 -202.944 53.6981C-203.444 53.6981 -203.944 53.6981 -204.444 53.6981C-212.114 53.6817 -219.784 53.6572 -227.444 53.6245C-233.184 53.6081 -238.944 53.5836 -244.684 53.5508C-258.184 53.4854 -271.684 53.4036 -285.184 53.3054C-291.094 53.2563 -297.014 53.2154 -302.934 53.1663H-302.954C-303.584 53.1663 -304.234 53.1499 -304.864 53.1417C-316.384 53.0517 -327.924 52.929 -339.434 52.7899C-339.434 52.7899 -339.434 52.7899 -339.454 52.7899C-340.004 52.7899 -340.544 52.7899 -341.084 52.7736C-343.494 52.749 -345.914 52.7163 -348.324 52.6917H-348.644C-349.334 52.6917 -350.034 52.6917 -350.724 52.6672H-350.744C-351.264 52.6672 -351.794 52.6672 -352.314 52.6508C-357.874 52.5854 -365.344 49.6563 -369.794 45.5736C-369.814 45.5736 -369.824 45.5572 -369.834 45.5408C-370.544 44.8945 -371.174 44.2072 -371.704 43.5036C-371.974 43.1517 -372.214 42.7999 -372.434 42.4481C-372.824 41.8181 -373.194 41.1717 -373.524 40.5336C-373.924 39.789 -374.294 39.0445 -374.624 38.2836C-374.674 38.1936 -374.714 38.0954 -374.744 37.9972C-375.754 35.6572 -376.474 33.2436 -376.874 30.8054C-377.124 29.3572 -377.254 27.909 -377.264 26.4526C-377.264 26.199 -377.264 25.9454 -377.264 25.6917C-377.224 22.3781 -376.594 19.0563 -375.314 15.8163C-375.074 15.3417 -374.814 14.8917 -374.524 14.4417C-370.694 8.5181 -362.464 4.72992 -354.434 4.23083C-350.654 4.18174 -346.884 4.14083 -343.104 4.09992C-301.624 3.62538 -260.124 3.32265 -218.644 3.19174C-211.794 3.16719 -204.954 3.15083 -198.104 3.13447C-169.204 3.07719 -140.304 3.1181 -111.404 3.23265C-111.124 3.23265 -110.844 3.23265 -110.564 3.23265C-109.434 3.23265 -108.304 3.23265 -107.174 3.23265C-102.744 3.25719 -98.3237 3.27356 -93.8937 3.30628C-85.4137 3.34719 -76.9237 3.39628 -68.4437 3.46174C-68.3737 3.46174 -68.3137 3.46174 -68.2437 3.46174H-68.2237C-66.0137 3.46174 -63.8037 3.48628 -61.6037 3.51083C-61.5837 3.51083 -61.5637 3.51083 -61.5437 3.51083C-57.2737 3.54356 -53.0037 3.57628 -48.7437 3.60901C-48.3137 3.60901 -47.8837 3.60901 -47.4637 3.60901C-34.9137 3.71538 -22.3437 3.82992 -9.79367 3.96901C-2.92368 4.03447 3.93634 4.11628 10.7963 4.1981C15.2063 4.4681 19.6963 5.74447 23.4763 7.82265C27.0763 9.80265 30.0363 12.5108 31.6763 15.7836C32.0663 16.7654 32.3863 17.7554 32.6463 18.7536C34.1363 24.2272 33.8963 29.8645 32.1363 35.2399L32.1263 35.2563Z" fill="url(#paint1_radial_1686_234362)"/>
<path style="mix-blend-mode:multiply" opacity="0.5" fill-rule="evenodd" clip-rule="evenodd" d="M-359.514 44.3053C-358.864 45.1235 -344.674 51.2681 -337.474 51.669C-309.524 53.2317 -247.954 46.6044 -178.794 46.9562C-103.954 47.3326 -32.1136 50.2699 -17.0937 49.2308C15.3663 46.9808 25.3363 42.3008 25.3363 42.3008C25.3363 42.3008 22.1363 50.3762 -6.61368 52.5526C-35.3537 54.7208 -350.784 52.6671 -350.784 52.6671C-350.784 52.6671 -357.394 50.2944 -359.514 44.3053Z" fill="url(#paint2_radial_1686_234362)"/>
<g style="mix-blend-mode:soft-light" opacity="0.2">
<path fill-rule="evenodd" clip-rule="evenodd" d="M-8.56365 50.8998C-11.5237 51.1944 -14.1837 51.3089 -17.1337 51.2926C-20.3537 51.2762 -23.4737 51.6853 -26.7137 51.6853C-28.6537 51.6853 -31.0037 51.9471 -32.6937 50.9162C-34.6237 49.738 -31.6337 48.6989 -30.4237 48.1671C-27.3837 46.8335 -23.8037 45.8189 -20.5037 45.0253C-16.7137 44.1171 -12.8537 43.9453 -9.13366 42.7017C-5.69366 41.548 -2.38367 40.1326 0.976326 38.8644C4.36633 37.588 8.44635 37.6207 11.9663 36.6471C13.5763 36.2053 15.3863 36.0417 16.9263 35.4607C18.3063 34.9453 20.3063 33.9553 21.4363 33.1453C22.2263 32.5807 22.9463 31.7053 23.4363 30.9198C24.2863 29.5535 23.6264 28.1135 23.8464 26.6735C24.0664 25.2417 25.6463 23.3844 27.7263 23.7117C29.2663 23.9571 30.0664 25.9207 30.0964 26.968C30.1764 29.1035 29.9763 31.2471 29.4863 33.3498C29.0063 35.3953 29.2963 37.6207 28.3663 39.5844C27.4563 41.5071 26.2464 43.1598 24.5964 44.698C22.7464 46.4162 20.7963 48.6089 18.2563 49.6562C16.6363 50.3189 14.9263 51.5544 13.0063 51.7017C10.8663 51.8653 8.75634 52.078 6.58634 52.0698C0.706341 52.0535 -5.12367 51.9798 -8.58367 50.8998H-8.56365Z" fill="#36FFFF"/>
</g>
<g style="mix-blend-mode:multiply" opacity="0.3">
<path fill-rule="evenodd" clip-rule="evenodd" d="M-0.274236 23.5235C-0.114236 23.7362 0.235761 24.039 0.315761 24.268C0.355761 24.3744 0.29576 24.489 0.315761 24.5953C0.34576 24.718 0.425765 24.808 0.445765 24.939C0.465766 25.0617 0.445765 25.2008 0.445765 25.3317C0.445765 25.5526 0.36577 25.6835 0.32577 25.888C0.255771 26.2317 0.0457897 26.608 -0.15421 26.919C-0.48421 27.418 -0.764221 27.9335 -1.13422 28.3999C-1.41422 28.7517 -1.76423 28.9071 -2.23423 28.989C-2.36423 29.0135 -2.52421 28.9562 -2.65421 28.9808C-2.79421 29.0053 -2.89421 29.0708 -3.03421 29.0871C-3.40421 29.1362 -3.77423 29.0462 -4.14423 29.128C-4.45423 29.1935 -4.76423 29.1771 -5.08423 29.1771C-5.45423 29.1771 -5.77422 29.1935 -6.13422 29.2508C-6.53422 29.3162 -6.99423 29.2671 -7.39423 29.2753C-7.72423 29.2753 -7.98423 29.1853 -8.30423 29.1771C-8.63423 29.169 -8.96423 29.1771 -9.29423 29.1771C-9.69423 29.1771 -10.0442 29.2835 -10.4442 29.2753C-10.8142 29.2753 -11.1742 29.2753 -11.5342 29.2262C-11.9342 29.1608 -12.2542 29.079 -12.6342 28.9562C-13.3442 28.7435 -13.9542 28.5308 -14.3942 28.0071C-15.0542 27.2135 -15.3642 25.9699 -14.8142 25.078C-14.6442 24.7999 -14.3642 24.4971 -14.2442 24.2026C-14.1242 23.908 -13.9842 23.6462 -13.7842 23.3762C-13.5742 23.098 -13.4342 22.8771 -13.1442 22.6399C-12.7642 22.329 -12.4242 22.0262 -11.9642 21.8053C-11.1942 21.4371 -10.4642 21.0035 -9.53422 20.9708C-9.14422 20.9544 -8.75423 20.9708 -8.36423 20.9708C-8.00423 20.9708 -7.69422 21.0608 -7.35422 21.069C-7.00422 21.069 -6.73421 21.159 -6.40421 21.1671C-6.21421 21.1671 -5.99423 21.1426 -5.80423 21.1671C-5.63423 21.1835 -5.50423 21.2571 -5.33423 21.2735C-4.98423 21.3062 -4.71422 21.3062 -4.38422 21.4126C-4.05422 21.519 -3.76424 21.6499 -3.43424 21.748C-2.77424 21.9362 -2.03421 21.9608 -1.40421 22.198C-1.18421 22.2799 -0.774211 22.5499 -0.624211 22.6971C-0.384212 22.9344 -0.294236 23.2862 -0.274236 23.5153V23.5235Z" fill="#1A8EC5"/>
</g>
<g style="mix-blend-mode:multiply" opacity="0.3">
<path fill-rule="evenodd" clip-rule="evenodd" d="M6.64715 40.3126C6.02715 40.1489 5.49714 39.9935 4.85714 40.018C4.59714 40.0262 4.38715 40.1408 4.14715 40.2144C3.86715 40.2962 3.60713 40.3289 3.31713 40.3126C2.67713 40.2798 2.05716 39.9444 1.49716 39.7235C0.527156 39.3471 -0.502852 39.4453 -1.54285 39.4289C-2.57285 39.4126 -3.64284 39.8217 -4.53284 40.2144C-5.19284 40.5008 -5.69286 40.7953 -6.11286 41.3108C-6.52286 41.8262 -6.64284 42.3335 -6.59284 42.9471C-6.56284 43.2989 -6.49285 43.7162 -6.23285 44.0026C-5.99285 44.2562 -5.69286 44.4117 -5.39286 44.608C-5.12286 44.788 -4.89284 44.9353 -4.56284 45.058C-4.21284 45.1889 -3.85285 45.2626 -3.51285 45.3853C-2.88285 45.6226 -2.24285 45.868 -1.57285 46.048C-1.37285 46.0971 -1.17285 46.2035 -0.982854 46.2444C-0.742855 46.3017 -0.502853 46.3099 -0.262853 46.3835C0.297147 46.5553 0.907155 46.7517 1.52715 46.7517C1.92715 46.7517 2.28714 46.8499 2.69714 46.8499C2.96714 46.8499 3.26713 46.8171 3.53713 46.8744C4.15713 46.9971 4.81716 46.948 5.46716 46.9562C6.13716 46.9562 6.99715 46.8008 7.61715 46.588C7.91715 46.4817 8.18715 46.4244 8.45715 46.2771C8.76715 46.1053 9.12714 45.8844 9.38714 45.6635C9.70714 45.3853 9.96713 44.7553 10.0071 44.3953C10.0271 44.2399 10.0572 44.1662 10.0972 44.0271C10.1572 43.8308 10.0871 43.708 10.0371 43.5117C9.96713 43.2335 9.91714 42.988 9.76715 42.7344C9.60715 42.4399 9.41716 42.1617 9.24716 41.8753C9.07716 41.5889 8.81714 41.4253 8.57714 41.1717C8.34714 40.9262 8.16714 40.738 7.82714 40.5908C7.51714 40.4517 7.12713 40.3044 6.78713 40.2389C6.40713 40.1653 6.03715 40.1489 6.67715 40.3208L6.64715 40.3126Z" fill="#1A8EC5"/>
</g>
<g style="mix-blend-mode:multiply" opacity="0.3">
<path fill-rule="evenodd" clip-rule="evenodd" d="M-6.86343 43.0453C-6.61343 42.7753 -6.36341 42.5135 -6.12341 42.2517C-5.99341 42.1126 -5.89342 41.9408 -5.75342 41.8181C-5.47342 41.5726 -5.07342 41.4171 -4.75342 41.2208C-4.54342 41.0899 -4.40342 41.0571 -4.16342 40.9917C-3.95342 40.9344 -3.76343 40.8281 -3.54343 40.7871C-3.31343 40.7381 -3.09343 40.7299 -2.86343 40.6808C-2.60343 40.6235 -2.29344 40.5499 -2.02344 40.5335C-1.72344 40.509 -1.41343 40.5744 -1.11343 40.5417C-0.823433 40.5171 -0.573437 40.419 -0.273437 40.419C0.0365634 40.419 0.366566 40.3944 0.666566 40.419C0.946566 40.4435 1.17658 40.5417 1.46658 40.5417C2.47658 40.5417 3.35658 40.8853 4.27658 41.229C4.54658 41.3271 4.78657 41.3762 5.04657 41.4826C5.31657 41.589 5.64656 41.589 5.94656 41.6544C6.15656 41.7035 6.36657 41.6544 6.57657 41.7035C6.74657 41.7444 6.89657 41.7771 7.07657 41.8181C7.36657 41.8835 7.68656 42.0144 7.94656 42.1371C8.38656 42.3417 8.93656 42.6199 9.28656 42.9635C9.42656 43.1026 9.60657 43.3562 9.66656 43.5362C9.71656 43.6999 9.59657 44.2726 9.79657 44.3053C9.84657 44.0108 9.94656 43.8226 9.94656 43.5117C9.94656 43.1926 9.91657 42.939 9.82657 42.6526C9.68657 42.1862 9.42658 41.8181 9.02658 41.4499C8.61658 41.0653 7.96658 40.8853 7.42658 40.6808C7.08658 40.5581 6.78658 40.3944 6.46658 40.2799C6.21658 40.1899 5.92656 40.0344 5.69656 39.9935C5.40656 39.9362 4.88659 39.8953 4.59659 39.9935C4.46659 40.0344 4.33656 40.1408 4.22656 40.1981C4.06656 40.2881 3.97658 40.2799 3.80658 40.3208C3.66658 40.3617 3.65657 40.4353 3.48657 40.4353C3.32657 40.4353 3.12657 40.2635 2.95657 40.2226C2.50657 40.1162 2.06658 40.0099 1.61658 39.9117C1.42658 39.8708 1.23658 39.7808 1.05658 39.7481C0.876581 39.7153 0.73658 39.7481 0.556581 39.6826C0.17658 39.5517 -0.223412 39.4126 -0.623412 39.3881C-1.66341 39.3308 -2.61343 39.5271 -3.61343 39.7071C-4.20343 39.8135 -4.81342 39.9117 -5.35342 40.1571C-5.69342 40.3126 -6.00342 40.7135 -6.19342 41.0162C-6.39342 41.3435 -6.54342 41.7362 -6.72342 42.0799C-6.89342 42.4071 -6.90341 42.7344 -6.84341 43.0535L-6.86343 43.0453Z" fill="#6ED3A0"/>
</g>
<g style="mix-blend-mode:soft-light" opacity="0.5">
<path fill-rule="evenodd" clip-rule="evenodd" d="M-5.87305 45.2217C-5.30305 45.3035 -4.62305 45.4344 -4.12305 45.7617C-3.75305 46.0071 -3.49307 46.3999 -3.11307 46.6208C-2.64307 46.8908 -2.08306 47.128 -1.54306 47.2508C-1.25306 47.3244 -0.963065 47.3899 -0.673065 47.4799C-0.283065 47.6026 0.0569396 47.578 0.45694 47.6517C0.84694 47.7253 1.20693 47.709 1.60693 47.7335C2.01693 47.758 2.23695 47.8726 2.65695 47.7744C3.33695 47.6026 4.01695 47.5208 4.71695 47.4144C5.35695 47.3162 5.95694 47.1853 6.51694 46.8744C6.88694 46.6699 7.53695 46.4571 7.68695 46.0562C7.44695 45.9499 7.39694 46.1135 7.20694 46.1544C6.99694 46.2035 6.79692 46.1953 6.56693 46.2608C5.94693 46.449 5.10694 46.6126 4.45694 46.6044C3.78694 46.5962 3.10695 46.6208 2.43695 46.6044C2.13695 46.6044 1.83693 46.5308 1.53693 46.4735C1.11693 46.3917 0.716936 46.3753 0.296936 46.318C-0.873064 46.1544 -2.08305 46.1871 -3.19305 45.819C-4.01305 45.549 -4.86305 45.238 -5.87305 45.2299V45.2217Z" fill="#36FFFF"/>
</g>
<path fill-rule="evenodd" clip-rule="evenodd" d="M32.1255 35.2562C31.3255 37.7271 30.1955 40.1244 28.7855 42.4399C25.4155 48.0935 15.5855 52.5608 8.67554 52.6508C-6.90446 52.839 -22.4745 53.0026 -38.0645 53.1417C-34.1245 52.7162 -30.1845 52.4708 -26.2045 52.4708C-24.1545 52.4708 -22.1145 52.4708 -20.0645 52.4708C-17.1945 52.4708 -14.4645 52.0371 -11.5945 52.0699C-8.74445 52.1026 -6.08445 51.4726 -3.34445 51.309C0.575546 51.0799 4.55555 50.2044 8.40555 49.7217C11.0155 49.3944 13.6055 48.0199 15.7955 46.6862C17.3455 45.7371 19.3055 45.2626 20.9955 44.4608C22.4655 43.7571 23.9356 43.0371 25.3456 42.3008C27.3156 41.2862 28.3655 40.018 29.5055 38.3817C29.9055 37.8171 30.1755 37.3262 30.4555 36.7453C30.7755 36.1235 31.5855 35.608 31.6355 34.929C31.8255 34.9617 31.9955 35.0844 32.1355 35.2644L32.1255 35.2562Z" fill="#3B6E94"/>
<path fill-rule="evenodd" clip-rule="evenodd" d="M10.0461 49.1407C10.6861 49.2226 11.5461 49.2144 12.1861 49.3289C12.6461 49.4107 12.9661 49.5253 13.4461 49.5417C14.2961 49.5662 15.1561 49.5417 16.0061 49.5417C16.8561 49.5417 17.5761 49.3862 18.4061 49.3535C19.0661 49.3289 19.5861 49.0262 20.2861 49.1898C20.2361 49.4762 19.7361 49.6071 19.4661 49.7298C18.6861 50.0817 18.0861 50.458 17.2361 50.7117C16.5561 50.9162 15.9161 51.2762 15.2561 51.538C14.7861 51.7262 14.3161 51.8898 13.8761 52.078C13.4861 52.2498 13.1661 52.2417 12.7361 52.3153C12.5461 52.348 12.4761 52.4462 12.2161 52.4707C11.9561 52.4953 11.7961 52.4462 11.5461 52.5117C11.3661 52.5526 11.2461 52.6426 11.0261 52.6671C10.7961 52.6917 10.5361 52.6671 10.3061 52.6671C9.75612 52.6671 9.51612 52.4953 8.99612 52.4707C8.48612 52.4462 8.0461 52.4871 7.5661 52.5689C7.0261 52.6589 6.53612 52.6671 5.95612 52.6671C4.61612 52.6671 3.37612 52.8635 2.02612 52.8635C1.64612 52.8635 1.1961 52.9126 0.816101 52.8717C0.386101 52.8307 0.0161009 52.6753 -0.433899 52.6589C-1.3939 52.6098 -2.2339 52.6753 -3.1839 52.5198C-3.9939 52.3889 -4.83388 52.5935 -5.63388 52.4871C-6.01388 52.438 -7.25387 52.2907 -7.34387 51.9307C-5.77387 51.7507 -4.17388 51.4807 -2.57388 51.2598C-1.49388 51.1126 -0.423881 50.8917 0.616119 50.6298C1.26612 50.4662 1.91611 50.2862 2.57611 50.1226C3.10611 49.9917 3.59611 50.0244 4.10611 49.9017C4.44611 49.828 4.7261 49.6398 5.0661 49.5662C5.4461 49.4844 5.8661 49.468 6.2561 49.4026C6.9861 49.2798 7.65613 49.1571 8.40613 49.1571C9.27613 49.1571 10.1461 49.1571 10.0661 49.1571L10.0461 49.1407Z" fill="#3B6E94"/>
<g style="mix-blend-mode:soft-light">
<path fill-rule="evenodd" clip-rule="evenodd" d="M-25.5134 52.7571C-24.1734 52.4544 -22.9734 52.1435 -21.5934 52.1681C-20.8334 52.1844 -20.1534 52.1844 -19.4234 52.0208C-18.7734 51.8735 -18.2334 51.8899 -17.5634 51.8817C-16.6234 51.8735 -15.8034 51.6035 -14.8734 51.579C-13.9434 51.5544 -13.1334 51.6035 -12.2234 51.4399C-11.1434 51.2435 -10.1334 51.3908 -9.05344 51.2681C-6.83344 51.0144 -4.48343 50.8917 -2.32343 50.3435C-0.523426 49.8853 1.27657 49.3126 3.13657 49.0181C4.93657 48.7317 6.77657 48.5517 8.51657 48.0772C10.1866 47.619 11.9166 47.3081 13.5966 46.8335C14.4166 46.6044 15.2266 46.3508 16.0266 46.089C16.3866 45.9744 16.9266 45.6799 17.2966 45.7126C16.6566 46.1872 16.0666 46.5799 15.3566 46.989C14.6766 47.3653 14.1866 47.9544 13.4966 48.3144C12.9266 48.6172 12.2766 48.8381 11.7066 49.1081C11.5066 49.1981 11.1066 49.4353 10.9066 49.4844C10.5566 49.5662 10.2366 49.4681 9.89658 49.5335C9.56657 49.599 9.54659 49.7953 9.21658 49.8608C8.85658 49.9262 8.42657 49.8526 8.04657 49.9099C7.09657 50.049 6.17657 50.1799 5.26657 50.3681C3.67657 50.6871 1.93657 50.7444 0.416565 51.2762C-1.02344 51.7835 -2.50341 52.2008 -4.12341 52.1926C-5.19341 52.1926 -6.45343 52.0453 -7.48343 52.2172C-8.68343 52.4217 -9.68343 52.4871 -10.9234 52.4871C-13.3134 52.4871 -15.6934 52.4871 -18.0834 52.4871C-20.2334 52.4871 -22.2834 52.7817 -25.5234 52.7817L-25.5134 52.7571Z" fill="#36FFFF"/>
</g>
<g style="mix-blend-mode:multiply" opacity="0.3">
<path fill-rule="evenodd" clip-rule="evenodd" d="M32.6369 18.7781C32.0769 18.3526 31.6169 17.919 31.0469 17.3872C30.2969 16.6754 29.3169 16.1926 28.4969 15.5463C27.7269 14.9326 26.8769 14.2454 25.9469 13.7954C24.9969 13.329 24.1669 13.0508 23.4269 12.339C22.8669 11.8072 22.3169 11.4226 21.5769 11.0544C20.5869 10.5799 20.2469 10.7026 19.2569 10.8826C18.3669 11.0463 17.2769 11.079 16.5169 11.6354C15.8969 12.0935 15.9269 12.8954 15.5669 13.5172C15.1769 14.1799 15.0269 14.6135 14.1669 14.8999C13.2369 15.2108 12.2469 15.3908 11.2769 15.5544C8.63695 16.0126 5.96693 16.6999 3.66693 15.1044C2.09693 14.0244 1.63694 12.4208 0.896942 10.9235C0.386942 9.89262 -0.343071 7.88808 -1.52307 7.24171C-2.60307 6.65262 -3.80306 6.5299 -5.01306 6.19444C-6.81306 5.70353 -8.47305 4.88535 -10.123 4.13262C-10.023 4.08353 -9.91307 4.03444 -9.80307 3.98535C-2.93307 4.05081 3.92693 4.13262 10.7869 4.21444C15.1969 4.48444 19.6869 5.76081 23.4669 7.83899C27.0669 9.81899 30.0269 12.5272 31.6669 15.7999C32.0569 16.7817 32.3769 17.7717 32.6369 18.7699V18.7781Z" fill="#6ED3A0"/>
</g>
<g style="mix-blend-mode:multiply" opacity="0.2">
<path fill-rule="evenodd" clip-rule="evenodd" d="M0.806982 3.95253C-2.79302 3.95253 -5.90303 4.23889 -9.48303 4.7298C-12.583 5.15526 -16.213 6.05526 -18.203 8.21526C-20.373 10.5798 -21.733 13.8853 -22.803 16.6589C-24.173 20.2098 -23.993 24.2434 -24.023 27.9334C-24.043 30.3634 -23.323 31.9671 -20.643 33.2598C-19.023 34.0371 -17.313 34.1925 -15.483 34.4134C-13.323 34.6753 -11.253 35.2153 -9.09301 35.4934C-2.62301 36.3362 4.13696 37.2034 10.257 39.1916C13.507 40.2471 17.407 41.0734 20.947 41.0489C23.047 41.0325 24.257 41.2125 25.917 40.0916C27.597 38.9625 28.987 37.6043 29.927 35.9925C31.117 33.9716 31.647 31.3862 32.087 29.1689C32.497 27.1071 32.307 24.9634 32.307 22.8771C32.307 19.8007 32.287 16.0125 29.927 13.4925C28.387 11.8562 26.397 10.5471 24.177 9.58162C22.067 8.66526 20.137 7.55253 17.997 6.66889C15.567 5.67071 13.047 5.0898 10.517 4.33708C5.55697 2.86435 1.05698 3.88708 0.806982 3.93617V3.95253Z" fill="#4EFFFF"/>
</g>
<path fill-rule="evenodd" clip-rule="evenodd" d="M8.99566 1.39173C8.59566 2.06264 11.4356 3.17536 11.3556 3.90354C12.0956 3.77264 12.4956 4.17354 13.1356 4.36173C13.8356 4.56627 14.5957 4.75445 15.2957 4.95082C16.3956 5.25354 17.4257 5.60536 18.5157 5.95718C18.9857 6.11264 19.3257 6.41536 19.7457 6.62809C20.3657 6.939 20.9756 7.119 21.5656 7.47082C22.5156 8.05173 23.4956 8.649 24.4156 9.26264C26.4556 10.6045 28.2157 12.0445 29.6857 13.8035C30.4757 14.7445 31.3057 15.5054 32.0157 16.4545C32.2857 16.8145 32.5556 17.0926 32.7856 17.469C32.9556 17.7554 33.1356 18.3935 33.4756 18.4508C33.3256 18.0008 33.0056 17.4608 32.8256 17.0272C32.6356 16.569 32.5456 16.119 32.3856 15.6281C32.0856 14.6381 31.4556 13.5254 31.1056 12.5681C30.8856 11.9708 30.8057 11.4472 30.4057 10.8581C30.1257 10.449 29.8457 9.83536 29.5157 9.47536C28.7857 8.67354 28.2056 7.77354 27.4456 6.94718C26.6956 6.129 25.5256 5.35173 24.5056 4.79536C23.9356 4.48445 23.5156 4.17354 22.9756 3.83809C22.4156 3.48627 21.6656 3.31445 21.0056 3.03627C19.6456 2.46354 18.1957 2.03809 16.7057 1.79264C16.0457 1.68627 15.6457 1.49809 14.9257 1.49809C14.5957 1.49809 14.1557 1.41627 13.8357 1.48173C13.3957 1.57173 10.2557 1.51445 8.98565 1.38354L8.99566 1.39173Z" fill="#116E91"/>
<path fill-rule="evenodd" clip-rule="evenodd" d="M9.56641 1.7926C10.2764 2.57805 11.0964 3.91169 12.4164 4.14896C12.8564 4.23078 13.3364 4.12441 13.7864 4.19805C14.1164 4.25532 14.5864 4.42714 15.0164 4.4926C16.0864 4.63987 17.1364 5.00805 18.1564 5.23714C19.5664 5.55623 19.2164 4.68896 19.2264 3.83805C19.2464 2.41441 17.5564 1.75987 16.0064 1.78441C15.0664 1.80078 14.4864 1.48987 13.4964 1.48987C12.5464 1.48987 11.5864 1.48987 10.6364 1.48987L9.56641 1.78441V1.7926Z" fill="#116E91"/>
<path fill-rule="evenodd" clip-rule="evenodd" d="M-103.004 3.1099C-103.004 3.1099 -54.7537 3.7399 -32.7037 5.31081C-10.6537 6.88172 10.7863 4.22263 10.7863 4.22263C10.7863 4.22263 -75.0237 1.35899 -103.014 3.1099H-103.004Z" fill="#116E91"/>
<path style="mix-blend-mode:screen" fill-rule="evenodd" clip-rule="evenodd" d="M-372.504 8.33808L-358.644 15.3826C-358.644 15.3826 -349.894 8.17444 -347.484 7.41353C-345.064 6.65263 -2.74393 6.92263 5.16608 8.54262C13.0761 10.1544 15.5561 13.5254 15.5561 13.5254L27.4661 6.95535C27.4661 6.95535 25.0861 1.71081 13.5061 1.51444C1.92609 1.31808 -356.094 1.55535 -356.094 1.55535C-356.094 1.55535 -364.984 2.42263 -372.504 8.34626V8.33808Z" fill="url(#paint3_radial_1686_234362)"/>
<g style="mix-blend-mode:multiply">
<path fill-rule="evenodd" clip-rule="evenodd" d="M-367.004 4.98351C-369.554 8.25624 -371.164 10.8581 -371.504 14.7199C-371.834 18.4099 -371.934 23.1062 -369.204 26.2562C-366.974 28.8253 -361.684 29.8153 -358.054 29.9626C-352.914 30.1671 -347.254 29.6599 -342.454 28.1053C-337.384 26.469 -331.774 25.4953 -326.554 24.1535C-323.644 23.409 -320.814 22.6071 -317.984 21.699C-315.204 20.8071 -312.354 20.4553 -309.404 20.0462C-303.264 19.2035 -297.274 18.7781 -291.034 18.9499C-283.194 19.1626 -275.604 20.4144 -267.954 21.6826C-259.404 23.1062 -251.314 25.8635 -242.864 27.5081C-232.124 29.6026 -221.104 31.0017 -210.264 32.6953C-204.884 33.5381 -199.574 33.4399 -194.154 33.8899C-189.314 34.2908 -184.484 34.4053 -179.644 33.9062C-169.694 32.8835 -159.394 32.4008 -149.614 30.5844C-129.504 26.8535 -109.954 21.2571 -89.5739 18.3362C-79.0139 16.8226 -67.9239 15.9881 -57.2139 15.4481C-46.6539 14.9162 -36.5139 15.9799 -26.2939 18.0662C-19.7839 19.3917 -12.9039 20.8481 -7.08389 23.6953C-3.76389 25.3153 -0.343903 27.9171 3.4761 28.6699C9.82611 29.9299 16.8461 29.1199 21.4761 24.9308C25.5661 21.2326 27.6161 15.8162 25.5461 11.0708C23.4161 6.19442 14.1961 4.95078 8.90613 4.97533C-4.59387 5.04078 -17.9539 4.45169 -31.4339 4.36169C-33.8939 4.34533 -36.1739 4.72987 -38.5939 4.93442C-41.9239 5.2126 -45.3039 4.8526 -48.6439 5.04078C-57.6039 5.53169 -66.4639 5.59715 -75.4639 5.59715C-90.7739 5.59715 -105.964 4.63987 -121.174 3.29806C-130.384 2.47987 -139.824 2.55351 -149.084 2.55351C-154.604 2.55351 -160.134 2.6926 -165.644 2.58624C-171.684 2.47169 -177.614 1.90715 -183.684 1.93987C-189.374 1.96442 -194.904 1.9726 -200.564 2.4226C-203.204 2.63533 -205.774 2.52078 -208.414 2.53715C-211.984 2.56169 -215.454 3.1426 -219.014 3.19169C-228.334 3.3226 -237.994 2.43078 -247.254 3.29806C-254.644 3.99351 -262.074 3.7726 -269.514 3.7726C-273.264 3.7726 -277.024 3.69897 -280.774 3.74806C-285.544 3.81351 -290.234 4.41897 -295.024 4.39442C-299.974 4.36987 -304.924 4.54988 -309.854 4.10806C-314.374 3.70715 -318.784 2.82351 -323.294 2.37351C-330.904 1.6126 -339.404 1.35078 -347.004 2.40624C-349.264 2.71715 -351.554 2.91351 -353.804 3.29806C-355.394 3.56806 -356.874 4.24715 -358.464 4.4026C-359.924 4.54987 -365.034 3.54351 -367.014 4.99169L-367.004 4.98351Z" fill="#4EFFFF"/>
</g>
<path style="mix-blend-mode:multiply" opacity="0.5" fill-rule="evenodd" clip-rule="evenodd" d="M15.5568 13.5171C15.5568 13.5171 22.7468 32.5562 11.7168 49.0917L17.2268 50.7035C17.2268 50.7035 32.2268 46.4981 33.0668 28.8581C33.9068 11.2181 27.4668 6.94714 27.4668 6.94714L15.5568 13.5171Z" fill="url(#paint4_radial_1686_234362)"/>
<path style="mix-blend-mode:multiply" fill-rule="evenodd" clip-rule="evenodd" d="M-359.513 44.3053C-359.513 44.3053 -167.663 52.438 11.7166 49.0998L17.2266 50.7117C17.2266 50.7117 15.0667 52.8144 5.93665 52.6671C-3.19336 52.5117 -350.373 53.1989 -353.953 52.5608C-357.533 51.9226 -363.443 50.3189 -363.443 50.3189L-359.513 44.3135V44.3053Z" fill="url(#paint5_radial_1686_234362)"/>
<path style="mix-blend-mode:screen" opacity="0.5" fill-rule="evenodd" clip-rule="evenodd" d="M-0.134766 49.1326C9.75523 47.7581 15.9752 40.2717 15.9752 40.2717C15.9752 40.2717 14.4552 47.7335 12.1852 49.329L-0.134766 49.1326Z" fill="url(#paint6_radial_1686_234362)"/>
<g style="mix-blend-mode:soft-light">
<path fill-rule="evenodd" clip-rule="evenodd" d="M5.16602 8.54257L7.92603 1.38348C7.92603 1.38348 21.536 -0.416517 27.466 6.9553L15.556 13.5253C15.556 13.5253 11.856 9.8353 5.16602 8.54257Z" fill="#6EFFFF"/>
</g>
</g>
<defs>
<radialGradient id="paint0_radial_1686_234362" cx="0" cy="0" r="1" gradientUnits="userSpaceOnUse" gradientTransform="translate(-177.884 1.57037) scale(200.09 62.2098)">
<stop stop-color="#546E98"/>
<stop offset="0.71" stop-color="#3C6E87"/>
<stop offset="1" stop-color="#006E74"/>
</radialGradient>
<radialGradient id="paint1_radial_1686_234362" cx="0" cy="0" r="1" gradientUnits="userSpaceOnUse" gradientTransform="translate(-176.784 54.6501) scale(200.09 62.2098)">
<stop stop-color="#3AE1A4"/>
<stop offset="0.65" stop-color="#00BABE"/>
<stop offset="1" stop-color="#006F7E"/>
</radialGradient>
<radialGradient id="paint2_radial_1686_234362" cx="0" cy="0" r="1" gradientUnits="userSpaceOnUse" gradientTransform="translate(-167.084 47.9217) scale(136.15 111.395)">
<stop stop-color="#6EFFFF"/>
<stop offset="0.16" stop-color="#65FCFC"/>
<stop offset="0.41" stop-color="#4CF7F7"/>
<stop offset="0.73" stop-color="#25EDEE"/>
<stop offset="1" stop-color="#00E5E6"/>
</radialGradient>
<radialGradient id="paint3_radial_1686_234362" cx="0" cy="0" r="1" gradientUnits="userSpaceOnUse" gradientTransform="translate(-172.514 8.40353) scale(141.54 115.805)">
<stop stop-color="#6EFFE6"/>
<stop offset="0.21" stop-color="#65F6DD"/>
<stop offset="0.56" stop-color="#4CE1C5"/>
<stop offset="0.99" stop-color="#25BD9E"/>
</radialGradient>
<radialGradient id="paint4_radial_1686_234362" cx="0" cy="0" r="1" gradientUnits="userSpaceOnUse" gradientTransform="translate(22.4362 28.8253) scale(23.3259 16.3577)">
<stop stop-color="#6EFFCF"/>
<stop offset="0.13" stop-color="#67F6CC"/>
<stop offset="0.34" stop-color="#54DDC5"/>
<stop offset="0.6" stop-color="#36B6B9"/>
<stop offset="0.91" stop-color="#0D80AA"/>
<stop offset="1" stop-color="#006EA5"/>
</radialGradient>
<radialGradient id="paint5_radial_1686_234362" cx="0" cy="0" r="1" gradientUnits="userSpaceOnUse" gradientTransform="translate(-173.113 48.568) scale(134.64 110.16)">
<stop stop-color="#3ECAA7"/>
<stop offset="0.18" stop-color="#3AC1A7"/>
<stop offset="0.47" stop-color="#30A8A7"/>
<stop offset="0.84" stop-color="#2081A7"/>
<stop offset="1" stop-color="#186EA7"/>
</radialGradient>
<radialGradient id="paint6_radial_1686_234362" cx="0" cy="0" r="1" gradientUnits="userSpaceOnUse" gradientTransform="translate(7.92523 44.7963) scale(6.90999 5.65364)">
<stop stop-color="#6EFFFF"/>
<stop offset="0.17" stop-color="#67F8F6"/>
<stop offset="0.45" stop-color="#55E8DD"/>
<stop offset="0.8" stop-color="#37CDB6"/>
<stop offset="0.99" stop-color="#25BD9E"/>
</radialGradient>
<clipPath id="clip0_1686_234362">
<rect width="34" height="54" fill="white"/>
</clipPath>
</defs>
</svg>
