<svg width="137" height="54" viewBox="0 0 137 54" fill="none" xmlns="http://www.w3.org/2000/svg">
<g clip-path="url(#clip0_91_34513)">
<g clip-path="url(#clip1_91_34513)">
<path fill-rule="evenodd" clip-rule="evenodd" d="M385.676 49.8444C265.336 51.2926 144.996 51.2926 24.6561 49.8444C17.7461 49.7544 7.9161 45.2871 4.5461 39.6335C-0.523902 31.3699 -1.8139 21.8544 1.6661 13.0017C5.0261 6.30078 13.9161 1.94805 22.5461 1.40805C144.296 -0.0728564 266.046 -0.0728564 387.796 1.40805C396.426 1.93987 405.306 6.2926 408.676 13.0017C412.156 21.8544 410.866 31.3617 405.796 39.6335C402.416 45.2871 392.596 49.7544 385.686 49.8444H385.676Z" fill="url(#paint0_radial_91_34513)"/>
<path fill-rule="evenodd" clip-rule="evenodd" d="M409.126 35.2563C408.326 37.7272 407.196 40.1245 405.786 42.4399C402.416 48.0936 392.586 52.5608 385.676 52.6508C370.096 52.839 354.526 53.0026 338.936 53.1417C338.936 53.1417 338.916 53.1417 338.906 53.1417C307.926 53.4199 276.926 53.5999 245.946 53.6736C241.376 53.6981 236.816 53.7063 232.236 53.7145H232.206C226.186 53.7145 220.176 53.7308 214.166 53.7308C200.786 53.7472 187.426 53.7308 174.056 53.6981C173.556 53.6981 173.056 53.6981 172.556 53.6981C164.886 53.6817 157.216 53.6572 149.556 53.6245C143.816 53.6081 138.056 53.5836 132.316 53.5508C118.816 53.4854 105.316 53.4036 91.8163 53.3054C85.9063 53.2563 79.9863 53.2154 74.0663 53.1663H74.0463C73.4163 53.1663 72.7663 53.1499 72.1363 53.1417C60.6163 53.0517 49.0763 52.929 37.5663 52.7899C37.5663 52.7899 37.5663 52.7899 37.5463 52.7899C36.9963 52.7899 36.4563 52.7899 35.9163 52.7736C33.5063 52.749 31.0863 52.7163 28.6763 52.6917H28.3563C27.6663 52.6917 26.9663 52.6917 26.2763 52.6672H26.2563C25.7363 52.6672 25.2063 52.6672 24.6863 52.6508C19.1263 52.5854 11.6563 49.6563 7.20633 45.5736C7.18633 45.5736 7.17633 45.5572 7.16633 45.5408C6.45633 44.8945 5.82633 44.2072 5.29633 43.5036C5.02633 43.1517 4.78633 42.7999 4.56633 42.4481C4.17633 41.8181 3.80633 41.1717 3.47633 40.5336C3.07633 39.789 2.70633 39.0445 2.37633 38.2836C2.32633 38.1936 2.28633 38.0954 2.25633 37.9972C1.24633 35.6572 0.526328 33.2436 0.126328 30.8054C-0.123672 29.3572 -0.253672 27.909 -0.263672 26.4526C-0.263672 26.199 -0.263672 25.9454 -0.263672 25.6917C-0.223672 22.3781 0.406328 19.0563 1.68633 15.8163C1.92633 15.3417 2.18633 14.8917 2.47633 14.4417C6.30633 8.5181 14.5363 4.72992 22.5663 4.23083C26.3463 4.18174 30.1163 4.14083 33.8963 4.09992C75.3763 3.62538 116.876 3.32265 158.356 3.19174C165.206 3.16719 172.046 3.15083 178.896 3.13447C207.796 3.07719 236.696 3.1181 265.596 3.23265C265.876 3.23265 266.156 3.23265 266.436 3.23265C267.566 3.23265 268.696 3.23265 269.826 3.23265C274.256 3.25719 278.676 3.27356 283.106 3.30628C291.586 3.34719 300.076 3.39628 308.556 3.46174C308.626 3.46174 308.686 3.46174 308.756 3.46174H308.776C310.986 3.46174 313.196 3.48628 315.396 3.51083C315.416 3.51083 315.436 3.51083 315.456 3.51083C319.726 3.54356 323.996 3.57628 328.256 3.60901C328.686 3.60901 329.116 3.60901 329.536 3.60901C342.086 3.71538 354.656 3.82992 367.206 3.96901C374.076 4.03447 380.936 4.11628 387.796 4.1981C392.206 4.4681 396.696 5.74447 400.476 7.82265C404.076 9.80265 407.036 12.5108 408.676 15.7836C409.066 16.7654 409.386 17.7554 409.646 18.7536C411.136 24.2272 410.896 29.8645 409.136 35.2399L409.126 35.2563Z" fill="url(#paint1_radial_91_34513)"/>
<path style="mix-blend-mode:multiply" opacity="0.5" fill-rule="evenodd" clip-rule="evenodd" d="M17.4863 44.3053C18.1363 45.1235 32.3263 51.2681 39.5263 51.669C67.4763 53.2317 129.046 46.6044 198.206 46.9562C273.046 47.3326 344.886 50.2699 359.906 49.2308C392.366 46.9808 402.336 42.3008 402.336 42.3008C402.336 42.3008 399.136 50.3762 370.386 52.5526C341.646 54.7208 26.2163 52.6671 26.2163 52.6671C26.2163 52.6671 19.6063 50.2944 17.4863 44.3053Z" fill="url(#paint2_radial_91_34513)"/>
<g style="mix-blend-mode:multiply" opacity="0.3">
<path fill-rule="evenodd" clip-rule="evenodd" d="M29.6769 8.68989C28.4569 9.21353 26.1569 10.1544 26.6769 11.5863C26.8869 12.1508 27.5269 12.8953 28.0669 13.3044C28.3469 13.5172 28.6069 13.8199 28.9169 14.0081C29.5069 14.3517 30.2169 14.409 30.9369 14.409C31.7869 14.409 32.6369 14.409 33.4869 14.409C34.2969 14.409 34.9869 14.5563 35.7669 14.6872C36.4969 14.8181 37.5769 14.769 38.3169 14.7035C38.8169 14.6626 39.2269 14.499 39.6769 14.3435C39.9169 14.2617 40.1769 14.2208 40.4169 14.1472C40.7269 14.0572 40.8869 13.9344 41.1669 13.8117C41.5169 13.6563 41.8669 13.599 42.2069 13.4108C42.4669 13.2717 42.7669 13.149 43.0069 12.9935C43.5569 12.6417 43.8569 12.3144 43.8169 11.7581C43.7869 11.349 43.4769 11.1117 43.1869 10.809C42.8569 10.449 42.3069 10.1544 41.8469 9.89262C41.3569 9.62262 40.8769 9.21353 40.3069 9.04171C40.0369 8.95989 39.6669 8.86171 39.3869 8.8208C39.2569 8.80444 39.1069 8.85353 38.9769 8.83716C38.7669 8.80444 38.6169 8.71444 38.4069 8.68171C37.6669 8.57535 36.8969 8.42807 36.1569 8.24807C35.8369 8.16626 35.5469 8.13353 35.2269 8.06807C34.9269 8.0108 34.6469 7.84716 34.3369 7.79807C32.6769 7.56898 31.0169 8.28898 29.6869 8.68171L29.6769 8.68989Z" fill="#1A8EC5"/>
</g>
<g style="mix-blend-mode:multiply" opacity="0.3">
<path fill-rule="evenodd" clip-rule="evenodd" d="M22.6966 12.3553C22.3066 12.5517 21.6566 12.8053 21.3166 13.1162C21.1766 13.2389 21.1066 13.4189 20.9566 13.5335C20.7066 13.738 20.4366 13.9017 20.1866 14.1144C20.0266 14.2617 19.8666 14.4089 19.6666 14.5153C19.4266 14.638 19.1566 14.6789 18.9366 14.8344C18.6866 15.0062 18.4866 15.1617 18.2266 15.3089C17.8266 15.538 17.3266 15.9062 17.1866 16.2989C17.0066 16.8144 17.0766 17.7799 17.6766 18.0989C18.5166 18.5489 19.6766 18.328 20.5466 18.0989C21.0866 17.9599 21.6166 17.7226 22.1566 17.6162C22.5366 17.5426 22.9466 17.5099 23.3166 17.4035C24.0966 17.1908 25.2166 16.6426 25.6066 16.0371C25.9766 15.4644 25.4966 14.7117 25.0666 14.2126C24.7866 13.8935 24.4966 13.4762 24.1366 13.2144C23.6366 12.8462 22.6266 12.6908 22.6866 12.3389L22.6966 12.3553Z" fill="#1A8EC5"/>
</g>
<g style="mix-blend-mode:multiply" opacity="0.3">
<path fill-rule="evenodd" clip-rule="evenodd" d="M28.2675 13.5417C28.1575 13.288 28.0875 13.0589 27.9175 12.8544C27.8175 12.7317 27.7075 12.6089 27.5975 12.4862C27.4275 12.2817 27.0375 12.1017 27.0075 11.8562C26.9675 11.5535 27.0675 11.3244 27.2575 11.0708C27.6375 10.5635 28.1075 10.138 28.6575 9.78622C28.9575 9.59804 29.2875 9.40167 29.6175 9.26258C29.9275 9.13985 30.2675 9.06622 30.5775 8.94349C30.8075 8.85349 31.0175 8.74713 31.2575 8.68985C31.5275 8.6244 31.7875 8.63258 32.0675 8.63258C32.4375 8.63258 32.8175 8.59985 33.1775 8.72258C33.3175 8.77167 33.3275 8.82894 33.4075 8.93531C33.4775 9.03349 33.5775 9.08258 33.6775 9.1644C33.9275 9.35258 34.1975 9.51622 34.5275 9.54894C34.7375 9.57349 34.9775 9.62258 35.1875 9.63076C35.5675 9.63894 35.9675 9.46713 36.3475 9.40985C37.2775 9.27894 38.3275 9.09076 39.2475 9.36894C39.5475 9.45894 39.8275 9.54894 40.0975 9.69622C40.2175 9.76167 40.3875 9.83531 40.4975 9.92531C40.6075 10.0153 40.6675 10.1053 40.7975 10.1871C41.0075 10.3099 41.1875 10.4162 41.4275 10.4817C41.5375 10.5144 41.6475 10.5553 41.7575 10.5962C41.9275 10.6535 42.1375 10.6699 42.2975 10.7353C42.5575 10.858 42.8575 10.9726 43.0975 11.128C43.2675 11.2344 43.3475 11.3817 43.4675 11.5289C43.5375 11.6189 43.5575 11.6517 43.6075 11.758C43.6675 11.8726 43.7775 11.9462 43.8175 12.0608C43.8675 12.1999 43.7475 12.7153 43.8975 12.748C43.9675 12.5844 43.9475 12.2326 43.8975 12.0608C43.8075 11.7335 43.6475 11.4226 43.4175 11.1444C43.1775 10.8499 42.9575 10.5308 42.6475 10.3017C42.3375 10.0726 41.9975 9.91713 41.6675 9.72894C41.3875 9.57349 41.1775 9.36076 40.8975 9.21349C40.5275 9.01713 40.1775 8.75531 39.8175 8.54258C39.6775 8.46076 39.4875 8.39531 39.3375 8.34622C39.1575 8.29713 38.9875 8.32985 38.8175 8.29713C38.6475 8.2644 38.5375 8.23985 38.3675 8.23985C38.1175 8.23985 37.9175 8.30531 37.6775 8.32167C37.3075 8.33804 37.0575 8.25622 36.7675 8.05167C36.4075 7.79804 35.9675 7.58531 35.5375 7.4544C35.3575 7.39713 35.2275 7.42167 35.0475 7.38894C34.8575 7.35622 34.7275 7.31531 34.5375 7.31531C34.1175 7.31531 33.6575 7.33985 33.2675 7.47076C32.8175 7.61804 32.3775 7.80622 31.9375 7.98622C31.2875 8.25622 30.5675 8.33803 29.8975 8.57531C29.3175 8.78803 28.6775 8.97622 28.1575 9.30349C27.8975 9.46713 27.6675 9.67985 27.3975 9.84349C27.2275 9.94985 27.1175 10.0562 27.0075 10.2199C26.9175 10.3671 26.8475 10.5226 26.7775 10.678C26.6975 10.8417 26.7175 10.9808 26.6775 11.1444C26.6575 11.2099 26.6075 11.2099 26.5975 11.2589C26.5775 11.3489 26.5875 11.4635 26.5975 11.5535C26.5975 11.7008 26.6475 11.8399 26.6975 11.9789C26.8075 12.2735 27.1675 12.5517 27.4375 12.7317C27.4875 12.7644 27.5275 12.7889 27.5775 12.8217C27.6475 12.8789 27.7675 12.9362 27.8375 12.9935C28.0075 13.1408 28.0875 13.3699 28.2675 13.5089V13.5417Z" fill="#6ED3A0"/>
</g>
<g style="mix-blend-mode:multiply" opacity="0.3">
<path fill-rule="evenodd" clip-rule="evenodd" d="M17.5468 17.9762C17.6368 17.4689 17.7368 16.9371 17.9768 16.4626C18.2168 16.0126 18.7968 15.5053 19.2468 15.2353C19.6668 14.9816 20.1568 14.8016 20.6168 14.638C20.8868 14.5398 21.1568 14.5153 21.4468 14.4989C21.7668 14.4826 22.0568 14.3926 22.3668 14.3844C22.8568 14.3762 23.3768 14.2126 23.8568 14.2698C24.2668 14.3189 24.6468 14.4826 24.9768 14.6953C25.2268 14.8507 25.3568 14.9735 25.4768 15.2271C25.5468 15.3826 25.5368 15.9226 25.6568 15.9635C25.9068 16.0535 25.8668 15.5298 25.8368 15.3989C25.7868 15.2026 25.6668 15.0307 25.5568 14.8507C25.4168 14.6216 25.3168 14.3844 25.1568 14.1716C24.9468 13.8771 24.6168 13.7544 24.3568 13.5007C24.0968 13.2471 23.8368 13.108 23.5668 12.8789C23.3768 12.7235 22.9668 12.3962 22.7168 12.3798C22.4268 12.3553 22.1168 12.5598 21.8968 12.7071C21.4468 13.0098 21.0168 13.2798 20.6068 13.6398C20.1068 14.0735 19.5268 14.4335 18.9968 14.8426C18.7668 15.0226 18.5868 15.2435 18.3268 15.3907C18.1368 15.4971 17.9968 15.5789 17.8568 15.7344C17.5668 16.0616 17.3268 16.4053 17.2768 16.8307C17.2268 17.248 17.4468 17.5835 17.5268 17.9762H17.5468Z" fill="#6ED3A0"/>
</g>
<g style="mix-blend-mode:soft-light" opacity="0.5">
<path fill-rule="evenodd" clip-rule="evenodd" d="M32.3557 15.8408C32.8757 15.8408 33.2657 15.8244 33.7357 15.939C34.0857 16.029 34.4557 15.9799 34.7957 16.0617C35.4357 16.2171 36.3357 16.2171 36.9757 16.0208C37.5757 15.8326 38.0857 15.5871 38.6657 15.3744C39.2057 15.1699 39.6557 14.859 40.2157 14.6871C40.6057 14.5726 40.9857 14.4417 41.3557 14.2781C41.4957 14.2208 41.9857 14.0326 42.0057 13.9181C41.7457 13.8444 41.5757 13.959 41.3457 13.9999C41.0157 14.0571 40.6857 14.1471 40.3457 14.229C39.9857 14.319 39.6157 14.3353 39.2657 14.4253C38.9857 14.4908 38.7457 14.589 38.4557 14.6381C38.2757 14.6708 38.0957 14.7117 37.9157 14.7362C37.3857 14.8262 36.8557 14.9653 36.3457 15.1208C35.9457 15.2435 35.5457 15.2599 35.1457 15.3171C34.7657 15.3744 34.3657 15.4726 33.9857 15.5462C33.7957 15.5871 33.6157 15.669 33.4257 15.7017C33.1757 15.759 32.9757 15.7344 32.3457 15.8244L32.3557 15.8408Z" fill="#36FFFF"/>
</g>
<g style="mix-blend-mode:soft-light" opacity="0.5">
<path fill-rule="evenodd" clip-rule="evenodd" d="M18.3166 18.4262C18.8266 18.4999 19.2766 18.5653 19.7766 18.5735C20.0266 18.5735 20.3166 18.5244 20.5566 18.5735C21.1066 18.6717 21.5066 18.7944 22.0966 18.6962C22.7266 18.5899 23.3066 18.3444 23.8866 18.0908C24.1866 17.9599 24.9166 17.5426 24.1666 17.5262C23.9466 17.5262 23.7766 17.6244 23.5666 17.6817C23.3266 17.7471 23.0666 17.7799 22.8266 17.8289C22.2566 17.9517 21.6566 18.0744 21.0866 18.1317C20.8666 18.1562 20.6466 18.1317 20.4266 18.1644C20.1566 18.2135 19.8766 18.3444 19.6066 18.3935C19.1566 18.4835 18.7766 18.5653 18.3066 18.5735V18.4262H18.3166Z" fill="#36FFFF"/>
</g>
<path fill-rule="evenodd" clip-rule="evenodd" d="M35.8768 52.7735C33.3668 52.7489 30.8468 52.7162 28.3268 52.6917C27.6368 52.6917 26.9368 52.6916 26.2468 52.6671H26.2268C25.7068 52.6671 25.1768 52.6671 24.6568 52.6507C19.0968 52.5853 11.6268 49.6562 7.1768 45.5735C7.1568 45.5735 7.1468 45.5571 7.1368 45.5407C6.0768 44.5671 5.1868 43.5198 4.5368 42.4398C3.7068 41.0817 2.9768 39.6989 2.3568 38.2753C2.3068 38.1853 2.2668 38.0871 2.2368 37.9889C1.2268 35.6489 0.506797 33.2353 0.106797 30.7971C-0.143203 29.3489 -0.273203 27.9007 -0.283203 26.4444C-0.283203 26.1907 -0.283203 25.9371 -0.283203 25.6835C-0.243203 22.3698 0.386797 19.048 1.6668 15.808C1.9068 15.3335 2.1668 14.8835 2.4568 14.4335C2.1068 15.4971 1.7268 16.5526 1.2668 17.6244C0.876797 18.508 0.626797 19.9071 0.896797 20.8562C1.3568 22.4762 3.0068 23.8098 1.8668 25.528C0.296797 27.9171 2.6968 31.018 4.6168 32.8671C6.1968 34.3807 8.1668 35.338 9.8668 36.7289C11.7368 38.2589 13.4268 40.0344 15.0668 41.7362C17.1168 43.8635 19.1168 45.9826 20.8568 48.2653C21.9668 49.7298 23.2568 50.5726 25.1568 51.3989C26.2668 51.8898 26.7868 52.0535 28.1268 52.078C28.9468 52.078 29.3368 52.2171 30.1068 52.3807C31.3168 52.6262 32.5368 52.3235 33.7468 52.4462C34.4668 52.5198 35.1768 52.6426 35.8768 52.7816V52.7735Z" fill="#3B6E94"/>
<g style="mix-blend-mode:multiply" opacity="0.5">
<path fill-rule="evenodd" clip-rule="evenodd" d="M6.16648 43.8717C5.74648 43.0454 5.41648 42.2681 5.18648 41.4417C5.03648 40.9099 4.74648 40.1081 4.96648 39.5681C5.30648 38.7254 6.98648 38.799 7.83648 38.799C8.69648 38.799 9.55648 38.799 10.4065 38.799C10.7365 38.799 11.9665 38.9626 12.2465 38.799C13.0365 38.3081 10.5365 37.1708 10.2265 36.999C9.66648 36.6881 9.20648 36.3199 8.67648 35.9926C8.14648 35.6654 7.66648 35.2645 7.12648 34.9454C6.56648 34.6181 6.07648 34.1026 5.46648 33.849C4.75648 33.5545 3.97648 33.4481 3.53648 32.859C3.23648 32.4663 3.02648 31.9999 2.76648 31.5908C2.62648 31.3617 2.27648 30.4617 1.95648 30.4208C1.10648 30.2981 1.15648 33.3581 1.14648 33.7426C1.14648 34.8063 1.46648 35.6654 1.86648 36.6717C2.22648 37.5717 2.51648 38.5126 2.95648 39.3881C3.17648 39.8217 3.60648 40.1817 3.88648 40.5908C4.19648 41.0326 4.42648 41.5072 4.72648 41.949C5.29648 42.8245 6.06648 43.7326 6.15648 43.8881L6.16648 43.8717Z" fill="#6ED3A0"/>
</g>
<g style="mix-blend-mode:multiply" opacity="0.3">
<path fill-rule="evenodd" clip-rule="evenodd" d="M33.8768 4.85258C33.6168 4.9344 32.9868 4.80349 32.6668 4.85258C32.1568 4.91804 31.6068 5.18804 31.1168 5.31894C27.1968 6.42349 23.3768 7.66713 19.5268 8.92713C17.5768 9.55713 15.6068 10.0562 13.6668 10.6699C12.6768 10.9808 10.9568 11.578 10.3168 12.2408C8.9568 13.6562 9.7368 14.8344 10.0068 16.4544C10.3768 18.7617 8.6868 20.8071 7.6968 22.8035C6.7168 24.7671 6.0368 27.1971 7.6968 29.0462C8.0868 29.4962 8.8068 29.8971 9.2668 30.298C9.8468 30.7808 10.3568 31.3044 10.9468 31.7789C12.4268 32.9653 13.4968 34.3235 14.7868 35.6326C15.5068 36.3608 16.4868 36.6144 16.6968 37.6371C16.8468 38.3653 16.8168 38.8726 17.0468 39.5926C17.2568 40.2389 17.0668 40.8853 17.2668 41.5399C17.7368 43.1026 18.8168 44.7717 19.5468 46.2199C23.3868 47.668 25.5868 49.7871 27.8268 51.7344C28.0968 51.9717 28.4768 52.3399 28.6468 52.6999H28.3268C27.6368 52.6999 26.9368 52.6999 26.2468 52.6753H26.2268C25.7068 52.6753 25.1768 52.6753 24.6568 52.6589C19.0968 52.5935 11.6268 49.6644 7.1768 45.5817C7.1568 45.5817 7.1468 45.5653 7.1368 45.5489C6.4268 44.9026 5.7968 44.2153 5.2668 43.5117C4.7168 42.4889 4.2468 41.4089 3.4568 40.5335C3.0568 39.7889 2.6868 39.0444 2.3568 38.2835C2.3068 38.1935 2.2668 38.0953 2.2368 37.9971C1.2268 35.6571 0.506797 33.2435 0.106797 30.8053C-0.143203 29.3571 -0.273203 27.9089 -0.283203 26.4526C-0.283203 26.1989 -0.283203 25.9453 -0.283203 25.6917C-0.243203 22.378 0.386797 19.0562 1.6668 15.8162C1.9068 15.3417 2.1668 14.8917 2.4568 14.4417C6.2868 8.51803 14.5168 4.72985 22.5468 4.23076C26.3268 4.18167 30.0968 4.14076 33.8768 4.09985C34.3668 4.31258 34.7768 4.56622 33.8768 4.86894V4.85258Z" fill="#6ED3A0"/>
</g>
<g style="mix-blend-mode:multiply" opacity="0.3">
<path fill-rule="evenodd" clip-rule="evenodd" d="M245.937 53.6736C241.367 53.6981 236.807 53.7063 232.227 53.7145H232.197C226.177 53.7145 220.167 53.7308 214.157 53.7308C200.777 53.7472 187.417 53.7308 174.047 53.6981C173.547 53.6981 173.047 53.6981 172.547 53.6981C164.877 53.6817 157.207 53.6572 149.547 53.6245C143.807 53.6081 138.047 53.5836 132.307 53.5508C118.807 53.4854 105.307 53.4036 91.8066 53.3054C85.8966 53.2563 79.9766 53.2154 74.0566 53.1663H74.0366C73.4066 53.1663 72.7566 53.1499 72.1266 53.1417C60.6066 53.0517 49.0666 52.929 37.5566 52.7899C39.5066 52.4381 40.9466 52.0699 42.9266 52.0699C44.5766 52.0699 46.1666 51.9963 47.7866 52.2745C52.4766 53.0436 57.5566 52.2008 62.3266 52.659C65.6266 52.9781 68.6566 52.6427 71.9566 52.4627C75.6866 52.2581 79.3066 52.0781 83.0466 52.0699C86.4966 52.0699 89.9866 52.2499 93.4166 51.9881C95.6566 51.8163 97.7966 51.759 100.037 51.6936C102.337 51.6363 104.577 51.2681 106.897 51.2763C109.797 51.2926 112.907 51.039 115.787 51.3827C118.227 51.6772 120.547 51.6854 123.017 51.6854C127.337 51.6854 131.407 52.0208 135.657 52.5608C137.617 52.8145 139.377 53.0599 141.337 52.5854C142.727 52.2417 143.687 51.4236 144.637 50.5399C145.637 49.5908 146.427 48.4617 147.157 47.3817C147.867 46.3345 148.257 45.0008 149.467 44.2726C154.577 41.2126 162.627 43.1517 168.377 43.1108C172.047 43.0781 175.817 42.9717 179.447 43.5772C181.957 43.9945 183.357 44.4854 184.617 46.3181C186.017 48.3717 187.087 49.8036 190.157 50.4254C193.657 51.1208 197.157 51.4972 200.757 51.3254C202.917 51.219 204.997 50.5727 207.157 50.5072C209.627 50.4254 211.847 50.6708 214.257 51.0226C221.677 52.1108 229.267 51.3827 236.717 52.1845C239.817 52.5199 242.847 52.7736 245.817 53.6408C245.867 53.6572 245.917 53.6736 245.967 53.6899L245.937 53.6736Z" fill="#6ED3A0"/>
</g>
<g style="mix-blend-mode:multiply" opacity="0.2">
<path fill-rule="evenodd" clip-rule="evenodd" d="M142.026 52.3808C143.146 51.8081 144.616 51.1781 145.526 50.4254C145.896 50.1144 146.236 49.7381 146.616 49.419C147.686 48.519 148.206 47.6435 148.716 46.5063C149.466 44.8617 149.286 43.4954 147.876 42.1372C146.226 40.5417 143.966 40.0017 141.546 39.4126C139.846 39.0035 138.386 38.1035 136.776 37.5308C134.816 36.8354 132.756 36.3608 130.796 35.5999C127.726 34.4135 124.536 33.489 121.486 32.2944C119.926 31.6808 118.606 30.8708 116.986 30.3308C114.456 29.4881 111.916 28.5881 109.286 27.9744C102.976 26.4935 96.0858 26.0844 89.5958 26.9926C86.1258 27.4835 82.7258 28.1217 79.3758 29.0299C75.2458 30.159 72.0458 32.0981 68.4758 34.0617C66.0258 35.4035 63.8158 36.9172 61.2658 38.1363C58.1458 39.6254 55.0758 40.7708 51.7258 41.8508C48.1158 43.0126 44.4058 43.9372 40.6058 44.5754C36.4258 45.2872 32.3858 46.6372 28.3258 47.7172C26.1858 48.2899 23.3658 49.9017 26.4958 50.9244C28.2858 51.5135 30.3258 51.129 32.2358 51.2108C33.0458 51.2435 33.8358 51.4563 34.6158 51.5954C35.7558 51.7999 36.7958 51.8981 37.9458 52.0863C42.4958 52.8063 47.5358 52.5526 52.0858 51.8899C54.3158 51.5708 56.7158 51.2599 58.9858 51.1944C60.3058 51.1535 61.5758 51.2926 62.8958 51.129C64.0658 50.9817 65.1458 50.8344 66.3258 50.8099C70.8958 50.7199 75.4458 51.4563 79.9658 51.9472C92.6958 53.3217 105.596 52.7899 118.376 53.5917C121.176 53.7717 123.956 54.2872 126.766 54.3526C128.906 54.3935 131.056 54.3281 133.196 54.3363C135.156 54.3363 136.956 54.0417 138.876 53.9435C139.926 53.8944 140.886 53.8535 141.926 53.6572C143.056 53.4526 144.166 53.0272 142.006 52.3808H142.026Z" fill="#509AB9"/>
</g>
<path fill-rule="evenodd" clip-rule="evenodd" d="M0.197089 19.269C0.827089 18.1726 1.61709 17.0026 2.04709 15.9063C2.22709 15.4563 2.46709 15.1699 2.76709 14.7772C3.15709 14.2617 3.25709 13.7054 3.71709 13.2144C4.11709 12.789 4.36709 12.3308 4.84709 11.9544C5.30709 11.5944 5.71709 11.2508 6.16709 10.8826C6.43709 10.6699 6.53709 10.3999 6.77709 10.1872C7.02709 9.96627 7.31709 9.86808 7.63709 9.71263C8.58709 9.25445 9.49709 8.71445 10.4371 8.24808C11.2771 7.82263 11.9171 7.18445 12.7971 6.76718C13.4671 6.44808 13.9171 5.96536 14.5671 5.64627C15.8871 4.9999 17.3371 4.72172 18.7571 4.28808C19.3571 4.10808 19.8771 4.0099 20.4771 3.88718C20.8971 3.80536 21.4871 3.82172 21.8571 3.60899C22.0171 3.51899 22.1071 3.35536 22.2671 3.26536C22.5771 3.08536 23.0071 3.02808 23.3471 2.87263C23.7171 2.70081 24.3771 2.47172 24.5071 2.14445C23.9871 1.82536 23.2471 1.72718 22.6271 1.71081C21.9871 1.68627 21.5771 1.44899 20.9071 1.55536C20.1071 1.67808 19.3171 1.91536 18.5171 2.04627C17.7471 2.17718 16.9171 2.22627 16.1971 2.43081C15.4571 2.64354 14.6971 2.83172 13.9871 3.1099C13.1171 3.46172 12.4571 3.95263 11.5871 4.28808C10.2871 4.78718 9.04709 5.37627 7.83709 5.99808C6.61709 6.6199 5.25709 7.33172 4.49709 8.33808C3.64709 9.46718 2.79709 10.5226 2.04709 11.709C1.27709 12.9199 0.857089 14.2044 0.437089 15.5135C0.237089 16.1435 0.297089 16.6917 0.207089 17.3217C0.157089 17.6326 -0.472911 19.0154 0.197089 19.2772V19.269Z" fill="#116E91"/>
<path fill-rule="evenodd" clip-rule="evenodd" d="M18.8159 4.23896C17.9159 4.39441 17.0459 4.57441 16.1759 4.81168C15.3459 5.04078 14.7959 5.44168 14.0359 5.75259C12.9959 6.17805 12.3359 6.82441 11.4659 7.40532C10.6759 7.92896 9.89592 8.48532 8.77592 8.54259C7.99592 8.5835 7.22592 7.96987 7.41592 7.35623C7.54592 6.93896 7.73592 6.83259 8.07592 6.53805C8.40592 6.25987 8.47592 5.98987 8.90592 5.78532C9.39592 5.54805 9.62592 5.47441 10.0359 5.1635C11.3359 4.20623 12.8459 3.42896 14.4659 2.89714C15.4759 2.56168 16.9359 2.52078 17.9859 2.75805C18.5559 2.88896 18.7959 2.92168 18.8259 3.44532C18.8559 3.91987 18.6859 4.05078 18.8259 4.22259L18.8159 4.23896Z" fill="#116E91"/>
<path style="mix-blend-mode:screen" fill-rule="evenodd" clip-rule="evenodd" d="M4.49609 8.33805L18.3561 15.3826C18.3561 15.3826 27.1061 8.17441 29.5161 7.4135C31.9361 6.65259 374.256 6.92259 382.166 8.54259C390.076 10.1544 392.556 13.5253 392.556 13.5253L404.466 6.95532C404.466 6.95532 402.086 1.71078 390.506 1.51441C378.926 1.31805 20.9061 1.55532 20.9061 1.55532C20.9061 1.55532 12.0161 2.4226 4.49609 8.34623V8.33805Z" fill="url(#paint3_radial_91_34513)"/>
<path style="mix-blend-mode:multiply" opacity="0.5" fill-rule="evenodd" clip-rule="evenodd" d="M17.9761 16.4626C17.9761 16.4626 12.8261 27.8353 17.4861 44.2971L14.8461 50.4908C14.8461 50.4908 -9.18395 41.5071 4.49605 8.33805L17.9761 16.4626Z" fill="url(#paint4_radial_91_34513)"/>
<g style="mix-blend-mode:multiply">
<path fill-rule="evenodd" clip-rule="evenodd" d="M9.99611 4.9835C7.44611 8.25623 5.83611 10.858 5.49611 14.7199C5.16611 18.4099 5.06611 23.1062 7.79611 26.2562C10.0261 28.8253 15.3161 29.8153 18.9461 29.9626C24.0861 30.1671 29.7461 29.6599 34.5461 28.1053C39.6161 26.469 45.2261 25.4953 50.4461 24.1535C53.3561 23.409 56.1861 22.6071 59.0161 21.699C61.7961 20.8071 64.6461 20.4553 67.5961 20.0462C73.7361 19.2035 79.7261 18.778 85.9661 18.9499C93.8061 19.1626 101.396 20.4144 109.046 21.6826C117.596 23.1062 125.686 25.8635 134.136 27.508C144.876 29.6026 155.896 31.0017 166.736 32.6953C172.116 33.538 177.426 33.4399 182.846 33.8899C187.686 34.2908 192.516 34.4053 197.356 33.9062C207.306 32.8835 217.606 32.4008 227.386 30.5844C247.496 26.8535 267.046 21.2571 287.426 18.3362C297.986 16.8226 309.076 15.988 319.786 15.448C330.346 14.9162 340.486 15.9799 350.706 18.0662C357.216 19.3917 364.096 20.848 369.916 23.6953C373.236 25.3153 376.656 27.9171 380.476 28.6699C386.826 29.9299 393.846 29.1199 398.476 24.9308C402.566 21.2326 404.616 15.8162 402.546 11.0708C400.416 6.19441 391.196 4.95077 385.906 4.97532C372.406 5.04077 359.046 4.45168 345.566 4.36168C343.106 4.34532 340.826 4.72986 338.406 4.93441C335.076 5.21259 331.696 4.85259 328.356 5.04077C319.396 5.53168 310.536 5.59714 301.536 5.59714C286.226 5.59714 271.036 4.63986 255.826 3.29805C246.616 2.47986 237.176 2.5535 227.916 2.5535C222.396 2.5535 216.866 2.69259 211.356 2.58623C205.316 2.47168 199.386 1.90714 193.316 1.93986C187.626 1.96441 182.096 1.97259 176.436 2.42259C173.796 2.63532 171.226 2.52077 168.586 2.53714C165.016 2.56168 161.546 3.14259 157.986 3.19168C148.666 3.32259 139.006 2.43077 129.746 3.29805C122.356 3.9935 114.926 3.77259 107.486 3.77259C103.736 3.77259 99.9761 3.69895 96.2261 3.74805C91.4561 3.8135 86.7661 4.41895 81.9761 4.39441C77.0261 4.36986 72.0761 4.54986 67.1461 4.10805C62.6261 3.70714 58.2161 2.8235 53.7061 2.3735C46.0961 1.61259 37.5961 1.35077 29.9961 2.40623C27.7361 2.71714 25.4461 2.9135 23.1961 3.29805C21.6061 3.56805 20.1261 4.24714 18.5361 4.40259C17.0761 4.54986 11.9661 3.5435 9.98611 4.99168L9.99611 4.9835Z" fill="#4EFFFF"/>
</g>
<path style="mix-blend-mode:multiply" fill-rule="evenodd" clip-rule="evenodd" d="M17.4866 44.3053C17.4866 44.3053 209.337 52.438 388.717 49.0998L394.227 50.7117C394.227 50.7117 392.067 52.8144 382.937 52.6671C373.807 52.5117 26.6266 53.1989 23.0466 52.5608C19.4666 51.9226 13.5566 50.3189 13.5566 50.3189L17.4866 44.3135V44.3053Z" fill="url(#paint5_radial_91_34513)"/>
<path style="mix-blend-mode:screen" opacity="0.5" fill-rule="evenodd" clip-rule="evenodd" d="M15.3368 28.3917C15.3368 28.3917 17.5468 37.4326 21.5768 40.2717C25.6068 43.119 44.6368 45.3281 44.6368 45.3281L17.4768 44.3054C17.4768 44.3054 14.6368 32.8754 15.3268 28.3917H15.3368Z" fill="url(#paint6_radial_91_34513)"/>
<g style="mix-blend-mode:soft-light">
<path fill-rule="evenodd" clip-rule="evenodd" d="M29.5161 7.4135L24.5161 2.13623C24.5161 2.13623 14.6161 -0.0728647 4.49609 8.33804L18.3561 15.3826L29.5161 7.4135Z" fill="#6EFFFF"/>
</g>
</g>
<g clip-path="url(#clip2_91_34513)">
<path fill-rule="evenodd" clip-rule="evenodd" d="M139.533 49.8444C104.39 51.2926 69.2463 51.2926 34.1027 49.8444C32.0848 49.7544 29.2141 45.2871 28.2299 39.6335C26.7493 31.3699 26.3726 21.8544 27.3888 13.0017C28.3701 6.30078 30.9663 1.94805 33.4865 1.40805C69.0419 -0.0728564 104.597 -0.0728564 140.152 1.40805C142.673 1.93987 145.266 6.2926 146.25 13.0017C147.266 21.8544 146.89 31.3617 145.409 39.6335C144.422 45.2871 141.554 49.7544 139.536 49.8444H139.533Z" fill="url(#paint7_radial_91_34513)"/>
<path fill-rule="evenodd" clip-rule="evenodd" d="M146.383 35.2563C146.149 37.7272 145.819 40.1245 145.408 42.4399C144.423 48.0936 141.553 52.5608 139.535 52.6508C134.985 52.839 130.438 53.0026 125.885 53.1417C125.885 53.1417 125.879 53.1417 125.876 53.1417C116.829 53.4199 107.776 53.5999 98.7287 53.6736C97.3941 53.6981 96.0624 53.7063 94.7249 53.7145H94.7161C92.9581 53.7145 91.2029 53.7308 89.4478 53.7308C85.5404 53.7472 81.6388 53.7308 77.7343 53.6981C77.5883 53.6981 77.4422 53.6981 77.2962 53.6981C75.0563 53.6817 72.8164 53.6572 70.5794 53.6245C68.9031 53.6081 67.221 53.5836 65.5447 53.5508C61.6022 53.4854 57.6598 53.4036 53.7173 53.3054C51.9914 53.2563 50.2625 53.2154 48.5337 53.1663H48.5278C48.3438 53.1663 48.154 53.1499 47.97 53.1417C44.6058 53.0517 41.2357 52.929 37.8744 52.7899C37.8744 52.7899 37.8744 52.7899 37.8685 52.7899C37.7079 52.7899 37.5502 52.7899 37.3925 52.7736C36.6887 52.749 35.982 52.7163 35.2782 52.6917H35.1847C34.9832 52.6917 34.7788 52.6917 34.5773 52.6672H34.5714C34.4196 52.6672 34.2648 52.6672 34.1129 52.6508C32.4892 52.5854 30.3077 49.6563 29.0082 45.5736C29.0023 45.5736 28.9994 45.5572 28.9965 45.5408C28.7891 44.8945 28.6052 44.2072 28.4504 43.5036C28.3715 43.1517 28.3014 42.7999 28.2372 42.4481C28.1233 41.8181 28.0152 41.1717 27.9189 40.5336C27.8021 39.789 27.694 39.0445 27.5976 38.2836C27.583 38.1936 27.5714 38.0954 27.5626 37.9972C27.2676 35.6572 27.0574 33.2436 26.9406 30.8054C26.8675 29.3572 26.8296 27.909 26.8267 26.4526C26.8267 26.199 26.8267 25.9454 26.8267 25.6917C26.8383 22.3781 27.0223 19.0563 27.3961 15.8163C27.4662 15.3417 27.5421 14.8917 27.6268 14.4417C28.7453 8.5181 31.1488 4.72992 33.4938 4.23083C34.5977 4.18174 35.6987 4.14083 36.8026 4.09992C48.9162 3.62538 61.0357 3.32265 73.1493 3.19174C75.1498 3.16719 77.1473 3.15083 79.1477 3.13447C87.5875 3.07719 96.0274 3.1181 104.467 3.23265C104.549 3.23265 104.631 3.23265 104.713 3.23265C105.043 3.23265 105.373 3.23265 105.703 3.23265C106.996 3.25719 108.287 3.27356 109.581 3.30628C112.057 3.34719 114.537 3.39628 117.013 3.46174C117.033 3.46174 117.051 3.46174 117.071 3.46174H117.077C117.723 3.46174 118.368 3.48628 119.011 3.51083C119.016 3.51083 119.022 3.51083 119.028 3.51083C120.275 3.54356 121.522 3.57628 122.766 3.60901C122.892 3.60901 123.017 3.60901 123.14 3.60901C126.805 3.71538 130.476 3.82992 134.141 3.96901C136.147 4.03447 138.151 4.11628 140.154 4.1981C141.442 4.4681 142.753 5.74447 143.857 7.82265C144.908 9.80265 145.773 12.5108 146.252 15.7836C146.366 16.7654 146.459 17.7554 146.535 18.7536C146.97 24.2272 146.9 29.8645 146.386 35.2399L146.383 35.2563Z" fill="url(#paint8_radial_91_34513)"/>
<path style="mix-blend-mode:multiply" opacity="0.5" fill-rule="evenodd" clip-rule="evenodd" d="M32.0088 44.3053C32.1986 45.1235 36.3426 51.2681 38.4452 51.669C46.6076 53.2317 64.5883 46.6044 84.7854 46.9562C106.641 47.3326 127.621 50.2699 132.008 49.2308C141.487 46.9808 144.399 42.3008 144.399 42.3008C144.399 42.3008 143.464 50.3762 135.068 52.5526C126.675 54.7208 34.5583 52.6671 34.5583 52.6671C34.5583 52.6671 32.6279 50.2944 32.0088 44.3053Z" fill="url(#paint9_radial_91_34513)"/>
<g style="mix-blend-mode:soft-light" opacity="0.2">
<path fill-rule="evenodd" clip-rule="evenodd" d="M134.498 50.8998C133.634 51.1944 132.857 51.3089 131.995 51.2926C131.055 51.2762 130.144 51.6853 129.198 51.6853C128.631 51.6853 127.945 51.9471 127.451 50.9162C126.888 49.738 127.761 48.6989 128.114 48.1671C129.002 46.8335 130.048 45.8189 131.011 45.0253C132.118 44.1171 133.245 43.9453 134.332 42.7017C135.336 41.548 136.303 40.1326 137.284 38.8644C138.274 37.588 139.466 37.6207 140.494 36.6471C140.964 36.2053 141.492 36.0417 141.942 35.4607C142.345 34.9453 142.929 33.9553 143.259 33.1453C143.49 32.5807 143.7 31.7053 143.843 30.9198C144.091 29.5535 143.899 28.1135 143.963 26.6735C144.027 25.2417 144.489 23.3844 145.096 23.7117C145.546 23.9571 145.779 25.9207 145.788 26.968C145.812 29.1035 145.753 31.2471 145.61 33.3498C145.47 35.3953 145.555 37.6207 145.283 39.5844C145.017 41.5071 144.664 43.1598 144.182 44.698C143.642 46.4162 143.072 48.6089 142.331 49.6562C141.857 50.3189 141.358 51.5544 140.797 51.7017C140.172 51.8653 139.556 52.078 138.922 52.0698C137.205 52.0535 135.503 51.9798 134.492 50.8998H134.498Z" fill="#36FFFF"/>
</g>
<g style="mix-blend-mode:multiply" opacity="0.3">
<path fill-rule="evenodd" clip-rule="evenodd" d="M39.3866 31.6807C39.1559 31.6725 39.0596 31.5498 38.9165 31.9753C38.8376 32.2044 38.7675 32.4007 38.7062 32.6707C38.6011 33.1207 38.5602 33.5298 38.5105 34.0371C38.4697 34.4625 38.4463 34.7571 38.4463 35.1989C38.4463 35.608 38.5018 35.8616 38.5631 36.2216C38.7237 37.1462 39.1121 37.3344 39.4392 37.5062C39.7721 37.6862 40.1868 37.4162 40.4847 37.0153C40.803 36.5816 41.1126 35.7798 41.1126 34.7571C41.1126 34.0534 40.9928 33.3989 40.8643 32.8262C40.7972 32.5153 40.7329 32.2698 40.6161 32.0816C40.4789 31.8689 40.3679 31.9098 40.2248 31.8444C40.0904 31.7789 39.9561 31.648 39.8189 31.5744C39.6816 31.5007 39.5297 31.5416 39.3896 31.6889L39.3866 31.6807Z" fill="#1A8EC5"/>
</g>
<g style="mix-blend-mode:multiply" opacity="0.3">
<path fill-rule="evenodd" clip-rule="evenodd" d="M35.5695 8.68989C35.2132 9.21353 34.5415 10.1544 34.6934 11.5863C34.7547 12.1508 34.9416 12.8953 35.0993 13.3044C35.1811 13.5172 35.257 13.8199 35.3475 14.0081C35.5198 14.3517 35.7272 14.409 35.9375 14.409C36.1857 14.409 36.4339 14.409 36.6821 14.409C36.9187 14.409 37.1202 14.5563 37.348 14.6872C37.5612 14.8181 37.8766 14.769 38.0927 14.7035C38.2387 14.6626 38.3584 14.499 38.4898 14.3435C38.5599 14.2617 38.6359 14.2208 38.7059 14.1472C38.7965 14.0572 38.8432 13.9344 38.925 13.8117C39.0272 13.6563 39.1294 13.599 39.2287 13.4108C39.3046 13.2717 39.3922 13.149 39.4623 12.9935C39.6229 12.6417 39.7105 12.3144 39.6989 11.7581C39.6901 11.349 39.5996 11.1117 39.5149 10.809C39.4185 10.449 39.2579 10.1544 39.1236 9.89262C38.9805 9.62262 38.8403 9.21353 38.6738 9.04171C38.595 8.95989 38.4869 8.86171 38.4051 8.8208C38.3672 8.80444 38.3234 8.85353 38.2854 8.83716C38.2241 8.80444 38.1803 8.71444 38.119 8.68171C37.9028 8.57535 37.678 8.42807 37.4619 8.24807C37.3684 8.16626 37.2837 8.13353 37.1903 8.06807C37.1027 8.0108 37.0209 7.84716 36.9304 7.79807C36.4456 7.56898 35.9608 8.28898 35.5724 8.68171L35.5695 8.68989Z" fill="#1A8EC5"/>
</g>
<g style="mix-blend-mode:multiply" opacity="0.3">
<path fill-rule="evenodd" clip-rule="evenodd" d="M136.921 23.5235C136.967 23.7362 137.07 24.039 137.093 24.268C137.105 24.3744 137.087 24.489 137.093 24.5953C137.102 24.718 137.125 24.808 137.131 24.939C137.137 25.0617 137.131 25.2008 137.131 25.3317C137.131 25.5526 137.108 25.6835 137.096 25.888C137.076 26.2317 137.014 26.608 136.956 26.919C136.859 27.418 136.778 27.9335 136.67 28.3999C136.588 28.7517 136.486 28.9071 136.348 28.989C136.31 29.0135 136.264 28.9562 136.226 28.9808C136.185 29.0053 136.156 29.0708 136.115 29.0871C136.007 29.1362 135.899 29.0462 135.791 29.128C135.7 29.1935 135.61 29.1771 135.516 29.1771C135.408 29.1771 135.315 29.1935 135.209 29.2508C135.093 29.3162 134.958 29.2671 134.841 29.2753C134.745 29.2753 134.669 29.1853 134.576 29.1771C134.479 29.169 134.383 29.1771 134.287 29.1771C134.17 29.1771 134.068 29.2835 133.951 29.2753C133.843 29.2753 133.738 29.2753 133.632 29.2262C133.516 29.1608 133.422 29.079 133.311 28.9562C133.104 28.7435 132.926 28.5308 132.797 28.0071C132.604 27.2135 132.514 25.9699 132.675 25.078C132.724 24.7999 132.806 24.4971 132.841 24.2026C132.876 23.908 132.917 23.6462 132.975 23.3762C133.037 23.098 133.078 22.8771 133.162 22.6399C133.273 22.329 133.373 22.0262 133.507 21.8053C133.732 21.4371 133.945 21.0035 134.217 20.9708C134.33 20.9544 134.444 20.9708 134.558 20.9708C134.663 20.9708 134.754 21.0608 134.853 21.069C134.955 21.069 135.034 21.159 135.131 21.1671C135.186 21.1671 135.25 21.1426 135.306 21.1671C135.355 21.1835 135.393 21.2571 135.443 21.2735C135.545 21.3062 135.624 21.3062 135.72 21.4126C135.817 21.519 135.902 21.6499 135.998 21.748C136.191 21.9362 136.407 21.9608 136.591 22.198C136.655 22.2799 136.775 22.5499 136.819 22.6971C136.889 22.9344 136.915 23.2862 136.921 23.5153V23.5235Z" fill="#1A8EC5"/>
</g>
<g style="mix-blend-mode:multiply" opacity="0.3">
<path fill-rule="evenodd" clip-rule="evenodd" d="M138.942 40.3126C138.761 40.1489 138.607 39.9935 138.42 40.018C138.344 40.0262 138.282 40.1408 138.212 40.2144C138.131 40.2962 138.055 40.3289 137.97 40.3126C137.783 40.2798 137.602 39.9444 137.438 39.7235C137.155 39.3471 136.854 39.4453 136.551 39.4289C136.25 39.4126 135.937 39.8217 135.677 40.2144C135.485 40.5008 135.339 40.7953 135.216 41.3108C135.096 41.8262 135.061 42.3335 135.076 42.9471C135.085 43.2989 135.105 43.7162 135.181 44.0026C135.251 44.2562 135.339 44.4117 135.426 44.608C135.505 44.788 135.572 44.9353 135.669 45.058C135.771 45.1889 135.876 45.2626 135.975 45.3853C136.159 45.6226 136.346 45.868 136.542 46.048C136.6 46.0971 136.659 46.2035 136.714 46.2444C136.784 46.3017 136.854 46.3099 136.924 46.3835C137.088 46.5553 137.266 46.7517 137.447 46.7517C137.564 46.7517 137.669 46.8499 137.789 46.8499C137.868 46.8499 137.955 46.8171 138.034 46.8744C138.215 46.9971 138.408 46.948 138.598 46.9562C138.793 46.9562 139.045 46.8008 139.226 46.588C139.313 46.4817 139.392 46.4244 139.471 46.2771C139.562 46.1053 139.667 45.8844 139.743 45.6635C139.836 45.3853 139.912 44.7553 139.924 44.3953C139.929 44.2399 139.938 44.1662 139.95 44.0271C139.967 43.8308 139.947 43.708 139.932 43.5117C139.912 43.2335 139.897 42.988 139.854 42.7344C139.807 42.4399 139.751 42.1617 139.702 41.8753C139.652 41.5889 139.576 41.4253 139.506 41.1717C139.439 40.9262 139.386 40.738 139.287 40.5908C139.196 40.4517 139.083 40.3044 138.983 40.2389C138.872 40.1653 138.764 40.1489 138.951 40.3208L138.942 40.3126Z" fill="#1A8EC5"/>
</g>
<g style="mix-blend-mode:multiply" opacity="0.3">
<path fill-rule="evenodd" clip-rule="evenodd" d="M134.993 43.0453C135.066 42.7753 135.139 42.5135 135.209 42.2517C135.247 42.1126 135.276 41.9408 135.317 41.8181C135.399 41.5726 135.516 41.4171 135.609 41.2208C135.671 41.0899 135.712 41.0571 135.782 40.9917C135.843 40.9344 135.898 40.8281 135.963 40.7871C136.03 40.7381 136.094 40.7299 136.161 40.6808C136.237 40.6235 136.328 40.5499 136.407 40.5335C136.494 40.509 136.585 40.5744 136.672 40.5417C136.757 40.5171 136.83 40.419 136.918 40.419C137.008 40.419 137.105 40.3944 137.192 40.419C137.274 40.4435 137.341 40.5417 137.426 40.5417C137.721 40.5417 137.978 40.8853 138.246 41.229C138.325 41.3271 138.395 41.3762 138.471 41.4826C138.55 41.589 138.647 41.589 138.734 41.6544C138.795 41.7035 138.857 41.6544 138.918 41.7035C138.968 41.7444 139.012 41.7771 139.064 41.8181C139.149 41.8835 139.242 42.0144 139.318 42.1371C139.447 42.3417 139.607 42.6199 139.71 42.9635C139.75 43.1026 139.803 43.3562 139.821 43.5362C139.835 43.6999 139.8 44.2726 139.858 44.3053C139.873 44.0108 139.902 43.8226 139.902 43.5117C139.902 43.1926 139.894 42.939 139.867 42.6526C139.826 42.1862 139.75 41.8181 139.634 41.4499C139.514 41.0653 139.324 40.8853 139.166 40.6808C139.067 40.5581 138.979 40.3944 138.886 40.2799C138.813 40.1899 138.728 40.0344 138.661 39.9935C138.576 39.9362 138.425 39.8953 138.34 39.9935C138.302 40.0344 138.264 40.1408 138.232 40.1981C138.185 40.2881 138.159 40.2799 138.109 40.3208C138.068 40.3617 138.065 40.4353 138.016 40.4353C137.969 40.4353 137.911 40.2635 137.861 40.2226C137.73 40.1162 137.601 40.0099 137.47 39.9117C137.414 39.8708 137.359 39.7808 137.306 39.7481C137.254 39.7153 137.213 39.7481 137.16 39.6826C137.049 39.5517 136.932 39.4126 136.815 39.3881C136.512 39.3308 136.234 39.5271 135.942 39.7071C135.77 39.8135 135.592 39.9117 135.434 40.1571C135.335 40.3126 135.244 40.7135 135.189 41.0162C135.13 41.3435 135.087 41.7362 135.034 42.0799C134.984 42.4071 134.981 42.7344 134.999 43.0535L134.993 43.0453Z" fill="#6ED3A0"/>
</g>
<g style="mix-blend-mode:multiply" opacity="0.3">
<path fill-rule="evenodd" clip-rule="evenodd" d="M132.612 26.5098C132.641 25.8307 132.63 25.2498 132.729 24.6362C132.755 24.4725 132.767 24.2843 132.799 24.1453C132.843 23.9407 132.93 23.7362 133.003 23.5971C133.196 23.2289 133.415 23.1062 133.623 22.8443C133.818 22.5907 134.02 22.3453 134.23 22.2716C134.408 22.2062 134.604 22.2716 134.785 22.2716C134.858 22.2716 134.957 22.2225 135.018 22.3862C135.083 22.5662 135.112 22.8443 135.191 22.9998C135.351 23.3189 135.667 23.2125 135.83 22.9589C135.971 22.7462 136.172 22.5416 136.333 22.6562C136.382 22.6889 136.438 22.8198 136.487 22.8853C136.555 22.9671 136.619 23.0325 136.674 23.1553C136.718 23.2534 136.768 23.3598 136.812 23.458C136.855 23.5562 136.92 23.6789 136.958 23.8016C136.96 23.4989 136.817 23.008 136.75 22.8034C136.701 22.648 136.666 22.4762 136.61 22.3371C136.552 22.1898 136.49 22.0671 136.429 21.9443C136.374 21.8298 136.318 21.7234 136.251 21.6825C136.219 21.658 136.19 21.6825 136.157 21.6825C136.105 21.6825 136.081 21.6253 136.032 21.5925C135.968 21.5516 135.895 21.6253 135.83 21.5925C135.728 21.5353 135.623 21.4207 135.524 21.3143C135.281 21.0525 135.016 21.1753 134.767 21.0198C134.63 20.9298 134.469 21.0034 134.329 20.9953C134.163 20.9953 133.993 21.028 133.83 21.1425C133.769 21.1834 133.698 21.2407 133.643 21.3062C133.57 21.3962 133.52 21.5843 133.453 21.6989C133.406 21.7725 133.354 21.7971 133.307 21.8789C133.234 22.0098 133.184 22.2225 133.12 22.3862C132.957 22.7707 132.808 23.1389 132.738 23.7607C132.688 24.1943 132.565 24.5871 132.548 25.0371C132.539 25.2907 132.548 25.5689 132.548 25.8307C132.548 25.9534 132.539 26.1089 132.548 26.2234C132.557 26.3707 132.589 26.4607 132.612 26.518V26.5098Z" fill="#6ED3A0"/>
</g>
<g style="mix-blend-mode:multiply" opacity="0.3">
<path fill-rule="evenodd" clip-rule="evenodd" d="M35.1566 13.5417C35.1245 13.288 35.104 13.0589 35.0544 12.8544C35.0252 12.7317 34.9931 12.6089 34.9609 12.4862C34.9113 12.2817 34.7974 12.1017 34.7886 11.8562C34.777 11.5535 34.8062 11.3244 34.8616 11.0708C34.9726 10.5635 35.1099 10.138 35.2705 9.78622C35.3581 9.59804 35.4545 9.40167 35.5508 9.26258C35.6414 9.13985 35.7407 9.06622 35.8312 8.94349C35.8984 8.85349 35.9597 8.74713 36.0298 8.68985C36.1086 8.6244 36.1846 8.63258 36.2663 8.63258C36.3744 8.63258 36.4854 8.59985 36.5905 8.72258C36.6314 8.77167 36.6343 8.82894 36.6577 8.93531C36.6781 9.03349 36.7073 9.08258 36.7365 9.1644C36.8095 9.35258 36.8884 9.51622 36.9847 9.54894C37.0461 9.57349 37.1162 9.62258 37.1775 9.63076C37.2885 9.63894 37.4053 9.46713 37.5162 9.40985C37.7878 9.27894 38.0945 9.09076 38.3631 9.36894C38.4508 9.45894 38.5325 9.54894 38.6114 9.69622C38.6464 9.76167 38.6961 9.83531 38.7282 9.92531C38.7603 10.0153 38.7778 10.1053 38.8158 10.1871C38.8771 10.3099 38.9297 10.4162 38.9998 10.4817C39.0319 10.5144 39.064 10.5553 39.0962 10.5962C39.1458 10.6535 39.2071 10.6699 39.2539 10.7353C39.3298 10.858 39.4174 10.9726 39.4875 11.128C39.5371 11.2344 39.5605 11.3817 39.5955 11.5289C39.616 11.6189 39.6218 11.6517 39.6364 11.758C39.6539 11.8726 39.6861 11.9462 39.6977 12.0608C39.7124 12.1999 39.6773 12.7153 39.7211 12.748C39.7416 12.5844 39.7357 12.2326 39.7211 12.0608C39.6948 11.7335 39.6481 11.4226 39.5809 11.1444C39.5108 10.8499 39.4466 10.5308 39.3561 10.3017C39.2655 10.0726 39.1662 9.91713 39.0699 9.72894C38.9881 9.57349 38.9268 9.36076 38.845 9.21349C38.737 9.01713 38.6347 8.75531 38.5296 8.54258C38.4887 8.46076 38.4332 8.39531 38.3894 8.34622C38.3369 8.29713 38.2872 8.32985 38.2376 8.29713C38.1879 8.2644 38.1558 8.23985 38.1062 8.23985C38.0331 8.23985 37.9747 8.30531 37.9047 8.32167C37.7966 8.33804 37.7236 8.25622 37.6389 8.05167C37.5338 7.79804 37.4053 7.58531 37.2797 7.4544C37.2271 7.39713 37.1892 7.42167 37.1366 7.38894C37.0811 7.35622 37.0431 7.31531 36.9877 7.31531C36.865 7.31531 36.7307 7.33985 36.6168 7.47076C36.4854 7.61804 36.3569 7.80622 36.2284 7.98622C36.0385 8.25622 35.8283 8.33803 35.6326 8.57531C35.4632 8.78803 35.2763 8.97622 35.1245 9.30349C35.0485 9.46713 34.9814 9.67985 34.9025 9.84349C34.8529 9.94985 34.8208 10.0562 34.7886 10.2199C34.7624 10.3671 34.7419 10.5226 34.7215 10.678C34.6981 10.8417 34.7039 10.9808 34.6923 11.1444C34.6864 11.2099 34.6718 11.2099 34.6689 11.2589C34.6631 11.3489 34.666 11.4635 34.6689 11.5535C34.6689 11.7008 34.6835 11.8399 34.6981 11.9789C34.7302 12.2735 34.8354 12.5517 34.9142 12.7317C34.9288 12.7644 34.9405 12.7889 34.9551 12.8217C34.9755 12.8789 35.0106 12.9362 35.031 12.9935C35.0807 13.1408 35.104 13.3699 35.1566 13.5089V13.5417Z" fill="#6ED3A0"/>
</g>
<g style="mix-blend-mode:soft-light" opacity="0.5">
<path fill-rule="evenodd" clip-rule="evenodd" d="M135.284 45.2217C135.45 45.3035 135.649 45.4344 135.795 45.7617C135.903 46.0071 135.979 46.3999 136.09 46.6208C136.227 46.8908 136.391 47.128 136.548 47.2508C136.633 47.3244 136.718 47.3899 136.802 47.4799C136.916 47.6026 137.015 47.578 137.132 47.6517C137.246 47.7253 137.351 47.709 137.468 47.7335C137.588 47.758 137.652 47.8726 137.775 47.7744C137.973 47.6026 138.172 47.5208 138.376 47.4144C138.563 47.3162 138.738 47.1853 138.902 46.8744C139.01 46.6699 139.2 46.4571 139.244 46.0562C139.174 45.9499 139.159 46.1135 139.104 46.1544C139.042 46.2035 138.984 46.1953 138.917 46.2608C138.736 46.449 138.49 46.6126 138.3 46.6044C138.105 46.5962 137.906 46.6208 137.711 46.6044C137.623 46.6044 137.535 46.5308 137.448 46.4735C137.325 46.3917 137.208 46.3753 137.086 46.318C136.744 46.1544 136.391 46.1871 136.066 45.819C135.827 45.549 135.579 45.238 135.284 45.2299V45.2217Z" fill="#36FFFF"/>
</g>
<g style="mix-blend-mode:soft-light" opacity="0.5">
<path fill-rule="evenodd" clip-rule="evenodd" d="M133.716 29.2017C133.882 29.2017 134.049 29.2017 134.215 29.2017C134.352 29.2017 134.458 29.2835 134.592 29.3408C134.68 29.3817 134.773 29.2835 134.861 29.3408C134.89 29.3653 134.916 29.439 134.945 29.4635C134.983 29.4962 135.033 29.4962 135.071 29.5289C135.275 29.6844 135.48 29.5699 135.684 29.4308C135.836 29.3326 136 29.2017 136.146 29.038C136.207 28.9644 136.411 28.7844 136.423 28.5717C136.265 28.408 136.084 28.6453 135.927 28.6699C135.775 28.6944 135.614 28.8171 135.465 28.9071C135.319 28.9971 135.158 28.9399 135.01 28.9399C134.633 28.9399 134.256 28.9399 133.713 29.2017H133.716Z" fill="#36FFFF"/>
</g>
<g style="mix-blend-mode:multiply" opacity="0.3">
<path fill-rule="evenodd" clip-rule="evenodd" d="M38.502 36.0253C38.5195 35.4607 38.5137 34.9862 38.5691 34.4789C38.5837 34.348 38.5925 34.1925 38.61 34.0698C38.6363 33.898 38.686 33.7344 38.7298 33.6198C38.8437 33.3171 38.9722 33.2189 39.0919 32.998C39.2058 32.7853 39.3255 32.5807 39.4482 32.5234C39.5533 32.4744 39.6672 32.5234 39.7723 32.5234C39.8161 32.5234 39.8745 32.4825 39.9096 32.6216C39.9476 32.7689 39.9651 32.998 40.0118 33.1289C40.1053 33.3907 40.2922 33.3007 40.3856 33.0962C40.4674 32.9162 40.5871 32.7525 40.6806 32.8425C40.7098 32.8753 40.7419 32.9816 40.7711 33.0307C40.8091 33.0962 40.847 33.1535 40.8821 33.2516C40.9083 33.3335 40.9376 33.4234 40.9638 33.5053C40.9901 33.5871 41.0281 33.6853 41.0485 33.7916C41.0485 33.538 40.9668 33.1371 40.9288 32.9653C40.8996 32.8425 40.8791 32.6953 40.847 32.5807C40.812 32.458 40.7769 32.3598 40.739 32.2534C40.7068 32.1634 40.6747 32.0734 40.6338 32.0407C40.6163 32.0244 40.5988 32.0407 40.5783 32.0407C40.5491 32.0407 40.5345 31.9916 40.5053 31.9671C40.4674 31.9262 40.4265 31.9916 40.3856 31.9671C40.3272 31.9262 40.263 31.828 40.2075 31.738C40.0644 31.5171 39.9096 31.6234 39.7636 31.4925C39.6847 31.4189 39.5913 31.4762 39.5066 31.4762C39.4073 31.4762 39.3109 31.5089 39.2145 31.5989C39.1795 31.6316 39.1386 31.6807 39.1036 31.738C39.0598 31.8116 39.0306 31.9671 38.9926 32.0571C38.9663 32.1225 38.9342 32.1389 38.9079 32.2044C38.8641 32.3107 38.8378 32.4907 38.7969 32.6216C38.7035 32.9407 38.613 33.2434 38.5721 33.7589C38.5429 34.1107 38.4699 34.438 38.4611 34.8144C38.4553 35.0271 38.4611 35.2562 38.4611 35.4689C38.4611 35.5671 38.4553 35.698 38.4611 35.7962C38.4669 35.9189 38.4845 35.9925 38.4991 36.0416L38.502 36.0253Z" fill="#6ED3A0"/>
</g>
<g style="mix-blend-mode:soft-light" opacity="0.5">
<path fill-rule="evenodd" clip-rule="evenodd" d="M39.1484 38.2508C39.2448 38.2508 39.3441 38.2508 39.4405 38.2508C39.5222 38.2508 39.5836 38.3162 39.6595 38.3653C39.7091 38.398 39.7676 38.3162 39.8172 38.3653C39.8347 38.3817 39.8493 38.4471 39.8668 38.4635C39.8873 38.488 39.9165 38.488 39.9399 38.5126C40.0596 38.6435 40.1793 38.5453 40.2991 38.4308C40.3867 38.3489 40.483 38.2426 40.5677 38.1035C40.6028 38.0462 40.7225 37.8908 40.7313 37.7189C40.6407 37.588 40.5327 37.7844 40.4422 37.8008C40.3516 37.8171 40.2611 37.9235 40.1735 37.9971C40.0888 38.0708 39.9953 38.0217 39.9077 38.0217C39.6887 38.0217 39.4668 38.0217 39.1484 38.2344V38.2508Z" fill="#36FFFF"/>
</g>
<g style="mix-blend-mode:soft-light" opacity="0.5">
<path fill-rule="evenodd" clip-rule="evenodd" d="M36.352 15.8408C36.5039 15.8408 36.6178 15.8244 36.7551 15.939C36.8573 16.029 36.9653 15.9799 37.0646 16.0617C37.2515 16.2171 37.5143 16.2171 37.7012 16.0208C37.8765 15.8326 38.0254 15.5871 38.1948 15.3744C38.3525 15.1699 38.4839 14.859 38.6474 14.6871C38.7613 14.5726 38.8723 14.4417 38.9804 14.2781C39.0212 14.2208 39.1643 14.0326 39.1702 13.9181C39.0943 13.8444 39.0446 13.959 38.9774 13.9999C38.8811 14.0571 38.7847 14.1471 38.6854 14.229C38.5803 14.319 38.4722 14.3353 38.37 14.4253C38.2882 14.4908 38.2181 14.589 38.1335 14.6381C38.0809 14.6708 38.0283 14.7117 37.9758 14.7362C37.821 14.8262 37.6662 14.9653 37.5173 15.1208C37.4004 15.2435 37.2836 15.2599 37.1668 15.3171C37.0558 15.3744 36.939 15.4726 36.8281 15.5462C36.7726 15.5871 36.72 15.669 36.6645 15.7017C36.5915 15.759 36.5331 15.7344 36.3491 15.8244L36.352 15.8408Z" fill="#36FFFF"/>
</g>
<path fill-rule="evenodd" clip-rule="evenodd" d="M89.4402 53.7225C85.5328 53.7389 81.6312 53.7225 77.7267 53.6898C77.5807 53.6898 77.4346 53.6898 77.2886 53.6898C75.0487 53.6735 72.8088 53.6489 70.5718 53.6162C68.8955 53.5998 67.2134 53.5753 65.5371 53.5425C65.613 53.4771 65.6831 53.3871 65.7766 53.3216C66.019 53.1416 66.2672 53.2644 66.5125 53.1498C66.9009 52.9535 67.1959 52.438 67.593 52.4544C67.923 52.4707 68.2589 52.4544 68.5889 52.4544H69.5526C69.7424 52.4544 70.0724 52.6344 70.2506 52.4707C70.5776 52.1762 70.6477 50.9735 70.7937 50.2207C71.1179 48.5435 71.48 47.758 72.1517 47.4553C72.6745 47.2262 73.3461 47.1853 73.8718 47.3735C74.1668 47.4716 74.3449 47.758 74.6807 47.758C75.0545 47.758 75.4167 47.9216 75.7876 48.0525C76.6812 48.3716 77.5807 48.4862 78.4655 48.9198C79.2365 49.288 79.9491 50.0325 80.6967 50.638C81.0033 50.8835 81.3479 50.9898 81.6487 51.2844C81.8823 51.5053 82.1043 51.8735 82.3321 52.168C82.8957 52.8716 83.398 53.2644 84.0638 53.248C85.34 53.2235 86.7009 51.7753 87.9713 52.5444C88.3626 52.7816 88.6868 53.0353 89.0547 53.3135C89.1949 53.4198 89.3176 53.5753 89.4402 53.7144V53.7225Z" fill="#3B6E94"/>
<path fill-rule="evenodd" clip-rule="evenodd" d="M146.381 35.2562C146.148 37.7271 145.818 40.1244 145.406 42.4399C144.422 48.0935 141.551 52.5608 139.533 52.6508C134.983 52.839 130.436 53.0026 125.883 53.1417C127.034 52.7162 128.185 52.4708 129.347 52.4708C129.946 52.4708 130.541 52.4708 131.14 52.4708C131.978 52.4708 132.775 52.0371 133.613 52.0699C134.446 52.1026 135.223 51.4726 136.023 51.309C137.168 51.0799 138.33 50.2044 139.454 49.7217C140.216 49.3944 140.973 48.0199 141.612 46.6862C142.065 45.7371 142.637 45.2626 143.131 44.4608C143.56 43.7571 143.989 43.0371 144.401 42.3008C144.977 41.2862 145.283 40.018 145.616 38.3817C145.733 37.8171 145.812 37.3262 145.894 36.7453C145.987 36.1235 146.224 35.608 146.238 34.929C146.294 34.9617 146.343 35.0844 146.384 35.2644L146.381 35.2562Z" fill="#3B6E94"/>
<g style="mix-blend-mode:multiply" opacity="0.5">
<path fill-rule="evenodd" clip-rule="evenodd" d="M70.7969 50.7035C71.0393 49.7544 71.1853 49.3453 71.4948 48.7071C71.6116 48.4617 71.6905 48.1917 71.8248 48.0117C71.9446 47.848 72.0643 47.8235 72.1928 47.7253C72.4761 47.5044 72.6863 47.6844 72.9696 47.9626C73.1974 48.1835 73.4193 48.519 73.6501 48.7071C73.8954 48.9117 74.129 49.0753 74.3685 49.3453C74.8737 49.9099 75.4285 50.049 75.9425 50.5071C76.2696 50.8017 76.6171 51.0308 76.9501 51.2435C77.1603 51.3744 77.3764 51.669 77.5604 52.0208C77.6685 52.2253 77.7502 52.528 77.8787 52.6344C78.1824 52.888 78.4832 53.0517 78.8103 53.248C79.0381 53.3871 79.3418 53.2153 79.5784 53.2317C79.9551 53.2562 80.3172 53.428 80.6969 53.428C80.8137 53.428 80.9451 53.379 81.059 53.4199C81.1992 53.4608 81.3014 53.6162 81.4445 53.6326C81.6109 53.649 81.7774 53.6326 81.9439 53.6326H82.5747C82.747 53.6326 82.9631 53.7308 83.1237 53.5917C83.1091 53.3544 82.9864 53.109 82.9134 52.9944C82.7382 52.7162 82.4286 52.5526 82.2301 52.4053C81.9322 52.1844 81.6168 51.988 81.3335 51.6771C81.2167 51.5462 81.0853 51.448 80.9714 51.3008C80.8487 51.1371 80.7582 50.8753 80.6297 50.7444C79.1958 49.3617 77.6217 49.5499 76.1674 48.3553C75.6242 47.9135 75.0869 47.4471 74.5262 47.2017C74.4123 47.1526 74.2984 47.218 74.1845 47.1935C74.0764 47.169 73.9801 47.0462 73.872 47.0053C73.6384 46.9153 73.3288 46.9235 73.0952 47.0053C72.8324 47.1035 72.5491 47.128 72.2921 47.2835C72.1782 47.349 72.0555 47.3735 71.9475 47.4717C71.8716 47.5453 71.8131 47.7008 71.7343 47.758C71.6 47.848 71.451 47.6926 71.3167 47.758C71.1415 47.848 70.8319 48.7726 70.7939 50.6953L70.7969 50.7035Z" fill="#6ED3A0"/>
</g>
<path fill-rule="evenodd" clip-rule="evenodd" d="M139.933 49.1407C140.12 49.2226 140.372 49.2144 140.558 49.3289C140.693 49.4107 140.786 49.5253 140.926 49.5417C141.175 49.5662 141.426 49.5417 141.674 49.5417C141.922 49.5417 142.133 49.3862 142.375 49.3535C142.568 49.3289 142.719 49.0262 142.924 49.1898C142.909 49.4762 142.763 49.6071 142.684 49.7298C142.457 50.0817 142.281 50.458 142.033 50.7117C141.835 50.9162 141.648 51.2762 141.455 51.538C141.318 51.7262 141.18 51.8898 141.052 52.078C140.938 52.2498 140.845 52.2417 140.719 52.3153C140.664 52.348 140.643 52.4462 140.567 52.4707C140.491 52.4953 140.445 52.4462 140.372 52.5117C140.319 52.5526 140.284 52.6426 140.22 52.6671C140.153 52.6917 140.077 52.6671 140.009 52.6671C139.849 52.6671 139.779 52.4953 139.627 52.4707C139.478 52.4462 139.349 52.4871 139.209 52.5689C139.052 52.6589 138.908 52.6671 138.739 52.6671C138.348 52.6671 137.986 52.8635 137.591 52.8635C137.48 52.8635 137.349 52.9126 137.238 52.8717C137.112 52.8307 137.004 52.6753 136.873 52.6589C136.593 52.6098 136.347 52.6753 136.07 52.5198C135.833 52.3889 135.588 52.5935 135.354 52.4871C135.243 52.438 134.881 52.2907 134.855 51.9307C135.313 51.7507 135.781 51.4807 136.248 51.2598C136.563 51.1126 136.876 50.8917 137.18 50.6298C137.369 50.4662 137.559 50.2862 137.752 50.1226C137.907 49.9917 138.05 50.0244 138.199 49.9017C138.298 49.828 138.38 49.6398 138.479 49.5662C138.59 49.4844 138.713 49.468 138.827 49.4026C139.04 49.2798 139.236 49.1571 139.455 49.1571C139.709 49.1571 139.963 49.1571 139.939 49.1571L139.933 49.1407Z" fill="#3B6E94"/>
<g style="mix-blend-mode:soft-light">
<path fill-rule="evenodd" clip-rule="evenodd" d="M129.548 52.7571C129.94 52.4544 130.29 52.1435 130.693 52.1681C130.915 52.1844 131.114 52.1844 131.327 52.0208C131.517 51.8735 131.674 51.8899 131.87 51.8817C132.145 51.8735 132.384 51.6035 132.656 51.579C132.927 51.5544 133.164 51.6035 133.429 51.4399C133.745 51.2435 134.04 51.3908 134.355 51.2681C135.004 51.0144 135.69 50.8917 136.321 50.3435C136.846 49.8853 137.372 49.3126 137.915 49.0181C138.441 48.7317 138.978 48.5517 139.486 48.0772C139.974 47.619 140.479 47.3081 140.97 46.8335C141.209 46.6044 141.446 46.3508 141.679 46.089C141.785 45.9744 141.942 45.6799 142.05 45.7126C141.863 46.1872 141.691 46.5799 141.484 46.989C141.285 47.3653 141.142 47.9544 140.941 48.3144C140.774 48.6172 140.584 48.8381 140.418 49.1081C140.359 49.1981 140.243 49.4353 140.184 49.4844C140.082 49.5662 139.989 49.4681 139.889 49.5335C139.793 49.599 139.787 49.7953 139.691 49.8608C139.586 49.9262 139.46 49.8526 139.349 49.9099C139.072 50.049 138.803 50.1799 138.537 50.3681C138.073 50.6871 137.565 50.7444 137.121 51.2762C136.7 51.7835 136.268 52.2008 135.795 52.1926C135.482 52.1926 135.115 52.0453 134.814 52.2172C134.463 52.4217 134.171 52.4871 133.809 52.4871C133.111 52.4871 132.416 52.4871 131.718 52.4871C131.09 52.4871 130.492 52.7817 129.545 52.7817L129.548 52.7571Z" fill="#36FFFF"/>
</g>
<g style="mix-blend-mode:multiply" opacity="0.3">
<path fill-rule="evenodd" clip-rule="evenodd" d="M98.7264 53.6736C97.3918 53.6981 96.0601 53.7063 94.7226 53.7145H94.7138C92.9558 53.7145 91.2007 53.7308 89.4455 53.7308C85.5381 53.7472 81.6365 53.7308 77.732 53.6981C77.586 53.6981 77.4399 53.6981 77.2939 53.6981C75.054 53.6817 72.8141 53.6572 70.5771 53.6245C68.9008 53.6081 67.2187 53.5836 65.5424 53.5508C61.5999 53.4854 57.6575 53.4036 53.715 53.3054C51.9891 53.2563 50.2602 53.2154 48.5314 53.1663H48.5255C48.3415 53.1663 48.1517 53.1499 47.9677 53.1417C44.6035 53.0517 41.2334 52.929 37.8721 52.7899C38.4415 52.4381 38.8621 52.0699 39.4403 52.0699C39.9222 52.0699 40.3865 51.9963 40.8596 52.2745C42.2292 53.0436 43.7128 52.2008 45.1058 52.659C46.0695 52.9781 46.9544 52.6427 47.9181 52.4627C49.0074 52.2581 50.0645 52.0781 51.1568 52.0699C52.1643 52.0699 53.1835 52.2499 54.1852 51.9881C54.8393 51.8163 55.4643 51.759 56.1184 51.6936C56.7901 51.6363 57.4443 51.2681 58.1218 51.2763C58.9687 51.2926 59.8769 51.039 60.718 51.3827C61.4306 51.6772 62.1081 51.6854 62.8294 51.6854C64.091 51.6854 65.2796 52.0208 66.5207 52.5608C67.0931 52.8145 67.6071 53.0599 68.1795 52.5854C68.5854 52.2417 68.8658 51.4236 69.1432 50.5399C69.4353 49.5908 69.666 48.4617 69.8791 47.3817C70.0865 46.3345 70.2004 45.0008 70.5537 44.2726C72.046 41.2126 74.3969 43.1517 76.0761 43.1108C77.1479 43.0781 78.2489 42.9717 79.309 43.5772C80.042 43.9945 80.4508 44.4854 80.8188 46.3181C81.2276 48.3717 81.5401 49.8036 82.4367 50.4254C83.4588 51.1208 84.4809 51.4972 85.5322 51.3254C86.163 51.219 86.7705 50.5727 87.4013 50.5072C88.1226 50.4254 88.7709 50.6708 89.4747 51.0226C91.6416 52.1108 93.8582 51.3827 96.0338 52.1845C96.9391 52.5199 97.824 52.7736 98.6914 53.6408C98.706 53.6572 98.7206 53.6736 98.7352 53.6899L98.7264 53.6736Z" fill="#6ED3A0"/>
</g>
<g style="mix-blend-mode:multiply" opacity="0.3">
<path fill-rule="evenodd" clip-rule="evenodd" d="M146.531 18.7781C146.367 18.3526 146.233 17.919 146.067 17.3872C145.848 16.6754 145.561 16.1926 145.322 15.5463C145.097 14.9326 144.849 14.2454 144.577 13.7954C144.3 13.329 144.057 13.0508 143.841 12.339C143.678 11.8072 143.517 11.4226 143.301 11.0544C143.012 10.5799 142.913 10.7026 142.623 10.8826C142.364 11.0463 142.045 11.079 141.823 11.6354C141.642 12.0935 141.651 12.8954 141.546 13.5172C141.432 14.1799 141.388 14.6135 141.137 14.8999C140.865 15.2108 140.576 15.3908 140.293 15.5544C139.522 16.0126 138.742 16.6999 138.071 15.1044C137.612 14.0244 137.478 12.4208 137.262 10.9235C137.113 9.89262 136.9 7.88808 136.555 7.24172C136.24 6.65262 135.889 6.5299 135.536 6.19444C135.01 5.70353 134.525 4.88535 134.043 4.13262C134.073 4.08353 134.105 4.03444 134.137 3.98535C136.143 4.05081 138.147 4.13262 140.15 4.21444C141.438 4.48444 142.749 5.76081 143.853 7.83899C144.904 9.81899 145.769 12.5272 146.248 15.7999C146.362 16.7817 146.455 17.7717 146.531 18.7699V18.7781Z" fill="#6ED3A0"/>
</g>
<g style="mix-blend-mode:soft-light" opacity="0.5">
<path fill-rule="evenodd" clip-rule="evenodd" d="M80.729 2.67623C81.1787 2.67623 81.5496 2.6926 81.976 2.45532C82.4316 2.20987 82.8842 1.9726 83.3398 1.72714C84.137 1.28532 84.9869 0.59805 85.8016 0.622596C86.5259 0.647141 87.2239 0.647141 87.9306 0.360777C88.7716 0.017141 89.7062 0.336232 90.556 0.336232C90.9385 0.336232 91.3211 0.336232 91.7008 0.336232C91.911 0.336232 92.1213 0.303505 92.3316 0.32805C92.5856 0.352596 92.8163 0.59805 93.0675 0.647141C93.4559 0.720777 93.8326 0.50805 94.2123 0.77805C94.6153 1.06441 95.0533 0.925323 95.468 0.925323H98.1343C99.1155 0.925323 100.202 0.565323 101.163 1.0726C102.045 1.53896 102.973 1.44896 103.829 2.02987C103.957 2.11987 104.066 2.04623 104.194 2.08714C104.343 2.13623 104.463 2.35714 104.612 2.40623C104.731 2.44714 104.866 2.30805 104.983 2.38169C105.094 2.45532 105.126 2.74987 105.257 2.6926C104.837 2.65169 104.469 2.97896 104.042 2.97896C103.657 2.97896 103.268 2.97896 102.883 2.97896C102.325 2.97896 101.788 3.29805 101.233 3.2735C100.634 3.25714 100.035 3.2735 99.4368 3.2735C99.098 3.2735 98.7505 3.33896 98.4117 3.28987C98.1226 3.24896 97.8481 3.0035 97.559 2.97078C96.8026 2.88896 96.0316 2.97078 95.2724 2.99532C94.5802 3.01169 93.9027 2.6926 93.2077 2.6926C92.0132 2.70078 90.8568 2.43896 89.674 2.12805C89.1747 1.99714 88.6519 2.1035 88.1496 2.1035C87.621 2.1035 87.0866 2.00532 86.5668 2.25078C85.6469 2.68441 84.6919 2.2426 83.7632 2.38987C83.3661 2.45532 83.0098 2.70078 82.6009 2.6926C82.2184 2.6926 81.8358 2.6926 80.7231 2.6926L80.729 2.67623Z" fill="#36FFFF"/>
</g>
<path fill-rule="evenodd" clip-rule="evenodd" d="M71.3202 47.7662C71.6356 41.9326 59.8899 27.9498 53.471 19.5635C47.0521 11.1771 46.0767 3.75621 46.0767 3.75621L46.9849 0.91712L47.5427 0.900757L46.7746 3.6253C46.7746 3.6253 47.715 9.61439 56.184 22.4108C64.653 35.1989 67.8567 37.5717 70.228 42.538C72.5964 47.5044 73.3294 47.5044 73.3294 47.5044L71.3231 47.7744L71.3202 47.7662Z" fill="#043B3D" fill-opacity="0.33"/>
<path fill-rule="evenodd" clip-rule="evenodd" d="M87.9731 52.5526C87.9731 52.5526 95.4843 18.4508 105.697 3.24896L110.022 0.516235L106.92 3.10987C106.92 3.10987 100.808 16.5199 97.9987 21.6335C95.1893 26.7471 91.9536 36.7126 87.9702 52.5526H87.9731Z" fill="#043B3D" fill-opacity="0.33"/>
<g style="mix-blend-mode:multiply" opacity="0.6">
<path fill-rule="evenodd" clip-rule="evenodd" d="M104.617 7.66714C104.818 7.1026 105.023 6.52169 105.192 5.88351C105.262 5.61351 105.291 5.31078 105.347 5.02442C105.399 4.7626 105.446 4.61533 105.452 4.29624C105.463 3.76442 105.382 3.83805 105.215 3.85442C105.081 3.87078 104.944 4.06714 104.827 4.28805C104.596 4.72987 104.33 5.04896 104.129 5.58078C104.027 5.85078 103.907 5.98987 103.79 6.19442C103.632 6.46442 103.533 6.85714 103.361 7.07805C103.045 7.48714 102.753 8.13351 102.458 8.64896C102.304 8.91896 102.175 9.22169 102.029 9.52442C101.971 9.64714 101.906 9.73714 101.848 9.86805C101.758 10.0726 101.702 10.3344 101.623 10.5553C101.518 10.8581 101.39 11.0953 101.273 11.349C101.141 11.6353 101.042 12.0035 100.919 12.3144C100.636 13.0344 100.335 13.7544 100.029 14.4008C99.7688 14.949 99.5381 15.6117 99.284 16.1844C99.1438 16.4953 99.0007 16.8635 98.8752 17.2235C98.8109 17.4035 98.6999 17.7144 98.7058 17.9926C98.7408 19.3181 99.944 17.0762 100.07 16.8881C100.724 15.8653 101.299 14.499 101.93 13.3617C102.569 12.2081 103.174 10.9399 103.793 9.72078C104 9.31169 104.211 8.94351 104.412 8.5426C104.482 8.40351 104.549 8.28078 104.62 8.14169C104.672 8.04351 104.713 7.84714 104.62 7.66714H104.617Z" fill="#6ED3A0"/>
</g>
<g style="mix-blend-mode:soft-light" opacity="0.2">
<path fill-rule="evenodd" clip-rule="evenodd" d="M98.9023 19.9644C98.07 21.2571 97.2932 22.7871 96.4988 24.2598C95.9615 25.258 95.2548 26.608 95.1321 28.5553C95.0153 30.3798 95.6578 30.3553 96.1017 30.5926C97.0333 31.0917 97.9736 30.6826 98.9023 31.2062C100.073 31.8607 101.329 31.6807 102.526 31.6807C103.499 31.6807 104.638 32.1307 105.593 31.5907C106.416 31.1326 107.246 30.6416 108.072 30.2162C108.402 30.0444 108.697 29.8644 109.007 29.488C109.357 29.0544 109.705 28.9071 110.049 28.4653C110.625 27.7207 111.206 27.1153 111.761 26.2398C112.502 25.0698 113.203 23.3762 113.849 21.838C114.293 20.7826 114.842 19.948 115.221 18.7044C115.528 17.698 115.864 16.8553 116.188 15.8898C116.976 13.5416 117.984 12.028 118.81 9.83528C118.942 9.48347 118.994 9.07438 119.111 8.73892C119.278 8.27256 119.511 8.00256 119.651 7.47892C119.786 6.97983 119.838 6.41528 119.748 5.89983C119.526 4.64801 118.656 4.52528 118.244 4.25528C117.303 3.64165 116.252 3.96074 115.283 3.96074C114.661 3.96074 114.03 3.87892 113.408 3.94438C112.517 4.03438 111.629 4.54983 110.741 4.74619C110.163 4.8771 109.562 5.26165 109.01 5.75256C108.729 6.00619 108.484 6.43165 108.209 6.71801C107.859 7.09438 107.482 7.14347 107.126 7.45438C105.952 8.48528 104.676 9.97438 103.645 11.8562C102.947 13.1326 102.284 14.5644 101.574 15.7753C101.122 16.5526 100.771 17.6244 100.322 18.418C99.9098 19.1462 99.5506 19.6862 99.0775 20.0462C98.838 20.2262 98.7504 20.4144 98.5665 20.7989C98.1284 21.7071 97.6232 22.4271 98.8994 19.9726L98.9023 19.9644Z" fill="#36FFFF"/>
</g>
<g style="mix-blend-mode:multiply" opacity="0.2">
<path fill-rule="evenodd" clip-rule="evenodd" d="M89.4253 53.5508C89.2296 52.6345 89.0778 51.669 88.9697 50.6463C89.2063 50.2617 89.326 49.239 89.4954 48.6254C89.7349 47.7499 89.9159 46.7435 90.1875 45.9335C90.8826 43.8635 91.5309 41.5563 92.2989 39.6826C92.6844 38.7417 93.0787 37.8581 93.47 36.9499C93.7766 36.2381 94.0424 35.3708 94.4045 34.8881C94.7725 34.3972 95.158 33.9963 95.558 33.7263C96.0224 33.4072 96.4575 33.399 96.9131 33.1535C97.3482 32.9163 97.722 32.8917 98.1747 32.859C98.6098 32.8263 99.0128 32.4581 99.4538 32.4499C100.528 32.4335 101.638 32.7363 102.692 32.1635C103.303 31.8363 103.957 31.7299 104.573 31.689C105.405 31.6317 106.165 30.879 106.977 30.5845C107.546 30.3799 108.086 30.4535 108.653 30.1263C109.053 29.8972 109.424 29.7254 109.833 29.6108C111.24 29.1935 112.674 28.9399 114.091 28.9317C116.993 28.9154 119.677 31.2472 122.428 33.6281C123.783 34.7981 125.194 36.3445 126.233 39.1345C127.01 41.2126 127.802 43.3317 128.468 45.6881C128.762 46.7272 129.463 49.329 129.081 50.8345C129.008 51.1208 128.713 51.5463 128.593 51.6199C128.508 51.669 128.389 51.579 128.307 51.5872C128.091 51.6117 127.965 51.8817 127.761 52.0045C127.381 52.2417 126.835 52.0372 126.447 52.0045C125.608 51.9308 124.794 51.5872 123.95 51.5954C123.182 51.5954 122.382 51.7835 121.622 51.5054C120.691 51.1617 119.753 51.4726 118.827 51.1126C117.545 50.6135 116.076 50.409 114.786 50.8999C114.199 51.1208 113.594 51.0308 113.016 51.2926C112.16 51.6854 111.299 51.9145 110.431 51.9717C110.043 51.9963 109.678 52.2499 109.292 52.3399C108.805 52.4545 108.311 52.3645 107.821 52.3726C106.889 52.3808 105.99 51.9554 105.064 51.9717C103.277 52.0126 101.516 51.5872 99.7283 51.5872C98.0637 51.5872 96.4312 51.6854 94.7842 52.2745C93.4729 52.7408 92.1266 53.1581 89.4165 53.5426L89.4253 53.5508Z" fill="#509AB9"/>
</g>
<g style="mix-blend-mode:soft-light" opacity="0.2">
<path fill-rule="evenodd" clip-rule="evenodd" d="M51.2343 3.56804C50.3319 3.55986 49.5113 3.69077 48.6819 4.73804C48.4161 5.0735 48.311 5.08986 48.2993 5.89986C48.2847 6.84077 48.603 7.27441 48.8746 7.6835C49.485 8.59168 50.218 8.77168 50.8546 9.51622C51.4358 10.1871 51.8884 11.2017 52.4375 12.0035C52.9485 12.748 53.3106 14.0735 53.8129 14.8999C54.3824 15.8326 54.8409 17.109 55.4191 18.0253C56.3595 19.5144 57.3203 21.3144 58.3424 22.4271C59.2798 23.458 60.1413 25.0044 60.851 27.009C61.2482 28.1299 61.6804 28.7517 62.1009 29.7417C62.6762 31.0999 63.3917 31.7299 64.0575 32.6708C65.8886 35.2562 67.743 36.868 69.7406 38.038C71.4431 39.0362 73.1807 39.7644 74.8161 41.4335C75.8529 42.4971 76.8779 43.4626 78.0022 43.4135C78.4374 43.3971 78.8783 43.4953 79.3135 43.389C80.0027 43.2171 80.7211 42.399 81.384 41.8344C81.971 41.3353 82.5697 41.1635 83.1537 40.6971C83.767 40.198 84.3336 39.7399 84.9673 39.4208C86.2493 38.7662 87.7241 37.3508 88.79 35.2317C89.7158 33.3908 90.4108 30.9608 91.2752 28.9562C92.1397 26.9435 92.9165 24.6935 93.778 22.6726C94.6044 20.7335 95.5477 19.1953 96.4676 17.6408C96.8619 16.9699 97.2707 16.438 97.6679 15.808C98.1089 15.1044 98.4593 14.0162 98.9061 13.329C99.5895 12.2735 100.206 11.1526 100.831 9.83531C101.091 9.28713 101.701 7.84713 101.532 6.79168C101.333 5.53986 100.533 5.44168 100.156 5.23713C99.8436 5.0735 99.5369 5.21259 99.2244 5.06531C98.6813 4.8035 98.2899 4.74622 97.7205 4.95895C95.7434 5.71168 93.6466 5.89986 91.6549 5.3435C90.2619 4.95895 88.8572 4.9835 87.47 4.36986C86.4713 3.92804 85.4375 3.57622 84.4241 3.59259C83.0749 3.61713 81.7257 3.59259 80.3794 3.59259C79.588 3.59259 78.7995 3.59259 78.0081 3.59259C77.1495 3.60077 76.3318 3.28168 75.482 3.16713C74.9125 3.0935 74.3693 3.5435 73.8057 3.60077C73.1749 3.66622 72.5441 3.51077 71.9133 3.56804C70.0063 3.73986 68.0935 4.41077 66.1836 4.37804C64.6299 4.34531 63.1055 3.97713 61.5519 3.97713C60.2406 3.97713 58.8798 4.27986 57.5744 3.94441C56.9844 3.78895 56.4325 3.58441 55.8367 3.59259C55.349 3.59259 54.8497 3.68259 54.3649 3.55986C53.4216 3.32259 52.0315 2.31622 51.2401 3.59259L51.2343 3.56804Z" fill="#36FFFF"/>
</g>
<g style="mix-blend-mode:multiply" opacity="0.2">
<path fill-rule="evenodd" clip-rule="evenodd" d="M68.3799 52.3808C68.707 51.8081 69.1363 51.1781 69.402 50.4254C69.5101 50.1144 69.6094 49.7381 69.7203 49.419C70.0328 48.519 70.1847 47.6435 70.3336 46.5063C70.5526 44.8617 70.5001 43.4954 70.0883 42.1372C69.6064 40.5417 68.9464 40.0017 68.2397 39.4126C67.7433 39.0035 67.3169 38.1035 66.8467 37.5308C66.2743 36.8354 65.6727 36.3608 65.1003 35.5999C64.2038 34.4135 63.2722 33.489 62.3815 32.2944C61.9259 31.6808 61.5404 30.8708 61.0673 30.3308C60.3285 29.4881 59.5867 28.5881 58.8187 27.9744C56.9759 26.4935 54.9638 26.0844 53.0685 26.9926C52.0551 27.4835 51.0622 28.1217 50.0839 29.0299C48.8778 30.159 47.9433 32.0981 46.9007 34.0617C46.1852 35.4035 45.5398 36.9172 44.7951 38.1363C43.884 39.6254 42.9874 40.7708 42.0091 41.8508C40.9549 43.0126 39.8714 43.9372 38.7617 44.5754C37.541 45.2872 36.3611 46.6372 35.1755 47.7172C34.5505 48.2899 33.727 49.9017 34.641 50.9244C35.1638 51.5135 35.7595 51.129 36.3173 51.2108C36.5539 51.2435 36.7846 51.4563 37.0124 51.5954C37.3453 51.7999 37.649 51.8981 37.9849 52.0863C39.3136 52.8063 40.7855 52.5526 42.1142 51.8899C42.7655 51.5708 43.4664 51.2599 44.1293 51.1944C44.5148 51.1535 44.8856 51.2926 45.2711 51.129C45.6128 50.9817 45.9282 50.8344 46.2728 50.8099C47.6074 50.7199 48.9362 51.4563 50.2562 51.9472C53.9738 53.3217 57.741 52.7899 61.4733 53.5917C62.291 53.7717 63.1028 54.2872 63.9234 54.3526C64.5484 54.3935 65.1763 54.3281 65.8012 54.3363C66.3736 54.3363 66.8993 54.0417 67.46 53.9435C67.7666 53.8944 68.047 53.8535 68.3507 53.6572C68.6807 53.4526 69.0049 53.0272 68.3741 52.3808H68.3799Z" fill="#509AB9"/>
</g>
<g style="mix-blend-mode:multiply" opacity="0.2">
<path fill-rule="evenodd" clip-rule="evenodd" d="M137.234 3.95253C136.183 3.95253 135.275 4.23889 134.229 4.7298C133.324 5.15526 132.264 6.05526 131.683 8.21526C131.049 10.5798 130.652 13.8853 130.339 16.6589C129.939 20.2098 129.992 24.2434 129.983 27.9334C129.977 30.3634 130.187 31.9671 130.97 33.2598C131.443 34.0371 131.943 34.1925 132.477 34.4134C133.108 34.6753 133.712 35.2153 134.343 35.4934C136.233 36.3362 138.207 37.2034 139.994 39.1916C140.943 40.2471 142.082 41.0734 143.116 41.0489C143.729 41.0325 144.082 41.2125 144.567 40.0916C145.058 38.9625 145.464 37.6043 145.738 35.9925C146.086 33.9716 146.241 31.3862 146.369 29.1689C146.489 27.1071 146.433 24.9634 146.433 22.8771C146.433 19.8007 146.428 16.0125 145.738 13.4925C145.289 11.8562 144.707 10.5471 144.059 9.58162C143.443 8.66526 142.879 7.55253 142.254 6.66889C141.545 5.67071 140.809 5.0898 140.07 4.33708C138.621 2.86435 137.307 3.88708 137.234 3.93617V3.95253Z" fill="#4EFFFF"/>
</g>
<g style="mix-blend-mode:soft-light" opacity="0.2">
<path fill-rule="evenodd" clip-rule="evenodd" d="M52.627 18.7944C53.3016 19.3754 53.5615 19.539 54.02 20.7417C54.3383 21.5681 54.6537 22.3699 54.7063 23.6463C54.8027 25.8717 53.9178 25.6426 53.398 25.8554C52.8198 26.0926 52.2503 26.5345 51.6779 26.8945C50.9887 27.3281 50.2615 27.5899 49.5869 28.1626C48.7926 28.8335 48.0537 28.9317 47.2302 28.9481C46.3132 28.9644 45.2794 28.7681 44.5639 26.9354C43.5476 24.3417 42.7416 19.1381 43.682 15.7426C44.1901 13.9099 45.221 12.5354 46.0475 12.5026C46.5819 12.4863 47.2244 12.3144 47.7471 12.6172C48.5093 13.0508 49.1839 14.0654 49.8322 15.1863C50.6645 16.6181 51.602 17.2726 52.6212 18.7863L52.627 18.7944Z" fill="#36FFFF"/>
</g>
<g style="mix-blend-mode:soft-light" opacity="0.5">
<path fill-rule="evenodd" clip-rule="evenodd" d="M55.8335 23.0898C56.0817 25.2171 56.035 26.2726 56.7797 26.6162C57.1301 26.7798 57.4689 27.058 57.8193 27.2871C58.4969 27.7371 59.1569 28.2689 59.8052 28.9889C60.3805 29.6271 60.912 30.5844 61.4785 31.2962C61.7531 31.6398 62.0363 31.9589 62.3167 32.278C62.4598 32.4417 62.9037 33.178 62.93 32.5562C62.6788 32.5562 62.4569 31.6235 62.2554 31.2062C61.9458 30.5517 61.6216 30.1508 61.28 29.6435C60.9558 29.1689 60.62 28.8908 60.2958 28.4817C59.9512 28.048 59.6504 27.3117 59.2854 26.9026C58.64 26.1744 58.0092 25.2908 57.3667 24.5708C57.1185 24.2926 56.9199 23.7608 56.6775 23.4744C56.4205 23.1717 56.1343 23.1062 55.8364 23.098L55.8335 23.0898Z" fill="#36FFFF"/>
</g>
<g style="mix-blend-mode:soft-light" opacity="0.5">
<path fill-rule="evenodd" clip-rule="evenodd" d="M93.3276 33.4398C93.827 32.3926 94.2096 31.5007 94.7907 30.8789C95.1353 30.5107 95.3427 30.298 95.5588 29.488C95.8245 28.5062 96.0552 27.4344 96.3502 26.5507C96.4904 26.1335 96.5751 25.6344 96.7152 25.2171C96.7999 24.9635 96.9518 24.8489 96.8613 24.3989C96.6364 24.6526 96.4874 25.0862 96.2801 25.5362C95.9209 26.3217 95.5091 26.9271 95.1821 27.7944C94.6651 29.1689 94.0636 30.3962 93.3247 33.4398H93.3276Z" fill="#36FFFF"/>
</g>
<g style="mix-blend-mode:soft-light" opacity="0.5">
<path fill-rule="evenodd" clip-rule="evenodd" d="M116.605 28.948C116.266 28.0562 115.939 27.148 115.527 26.5262C115.285 26.158 115.078 25.9126 115.016 25.078C114.894 23.458 115.043 21.4944 115.212 19.948C115.279 19.3426 115.335 18.7862 115.422 18.1971C115.46 17.9435 115.469 17.608 115.53 17.4035C115.431 17.3871 115.355 17.6898 115.285 17.8535C115.084 18.328 114.867 18.778 114.657 19.228C114.362 19.858 114.079 20.3817 113.819 21.1344C113.483 22.0998 113.074 22.4762 112.698 23.278C112.108 24.5298 111.553 25.8798 110.957 27.0989C110.846 27.328 110.732 27.4344 110.61 27.5898C110.478 27.7617 110.385 28.0562 110.259 28.2444C110.116 28.4571 109.973 28.6289 109.92 29.0871C110.064 29.3817 110.367 29.5126 110.537 29.5453C110.715 29.578 110.872 29.4635 111.048 29.3816C111.2 29.308 111.346 29.3735 111.497 29.2998C111.906 29.0953 112.324 29.0135 112.739 28.8498C112.937 28.768 113.136 28.8089 113.331 28.7189C113.451 28.6617 113.545 28.5635 113.67 28.5635C114.283 28.5389 114.879 28.9398 115.49 28.9644C115.893 28.9807 116.272 29.3326 116.602 28.9644L116.605 28.948Z" fill="#36FFFF"/>
</g>
<g style="mix-blend-mode:multiply" opacity="0.2">
<path fill-rule="evenodd" clip-rule="evenodd" d="M81.5154 2.68437C80.9839 2.87255 80.7882 2.90528 80.3765 3.55164C80.1311 3.93619 79.8858 4.23891 79.661 4.72164C79.0798 5.96528 78.5308 7.35619 77.938 8.55891C77.1378 10.1789 76.1069 10.9725 75.1549 11.4798C74.2496 11.9625 73.3326 12.2325 72.4214 12.6335C71.557 13.0098 70.7101 13.6153 69.8457 13.9916C69.1418 14.2944 68.438 14.4416 67.7284 14.6298C67.1823 14.7771 66.6391 15.0798 66.0901 14.998C65.3688 14.8916 64.6708 14.1062 64.0049 13.3944C63.3041 12.6416 62.5915 12.3635 61.9578 11.1607C61.7972 10.858 61.6949 10.4244 61.546 10.0807C61.4438 9.84346 61.3591 9.73709 61.2744 9.418C61.3679 9.48346 61.508 9.21346 61.6015 9.13982C61.8848 8.92709 62.2002 8.8371 62.4922 8.62437C63.3625 8.00255 64.2882 7.64255 65.176 7.31528C65.8798 7.05346 66.5661 6.58709 67.2728 6.34982C67.9416 6.12891 68.6103 5.89982 69.2791 5.69528C70.751 5.24528 72.2579 4.52528 73.7385 4.44346C74.1707 4.41891 74.5795 4.198 75.0059 4.14073C75.3768 4.09164 75.7185 4.198 76.0865 4.00982C76.7815 3.658 77.4824 3.52709 78.1774 3.12619C79.0769 2.60255 80.248 1.84164 81.5125 2.69255L81.5154 2.68437Z" fill="#509AB9"/>
</g>
<g style="mix-blend-mode:soft-light" opacity="0.2">
<path fill-rule="evenodd" clip-rule="evenodd" d="M132.006 6.20263C131.711 5.80172 131.439 5.29445 131.112 5.31081C130.984 5.31081 130.931 5.47445 130.832 5.54808C130.592 5.73627 130.324 5.50717 130.081 5.63808C129.979 5.69536 129.944 5.86717 129.813 5.91627C129.71 5.94899 129.599 5.91627 129.497 5.91627C129.196 5.91627 128.901 5.97354 128.609 5.76899C128.174 5.47445 127.692 5.62172 127.246 5.62172C126.437 5.62172 125.675 5.4499 124.901 6.20263C124.124 6.95536 123.452 7.56081 122.807 9.04172C122.226 10.3835 121.75 12.3635 121.545 14.4008C121.335 16.4954 121.215 18.7208 121.233 20.889C121.253 23.5808 121.633 25.7163 122.293 27.6226C122.585 28.4654 122.859 29.2999 123.227 29.8726C123.557 30.3881 123.814 31.0508 124.118 31.6726C124.576 32.6135 125.166 33.2435 125.73 33.4481C126.387 33.6935 126.898 33.7426 127.546 33.3663C128.125 33.0308 128.478 32.2781 128.875 31.0917C129.573 28.9972 129.795 26.2726 129.81 23.4908C129.813 22.6644 129.894 21.9035 129.982 21.1263C130.09 20.169 130.125 19.1299 130.292 18.2381C130.549 16.8635 130.779 15.4481 130.966 13.9754C131.156 12.4699 131.285 10.8254 131.436 9.28717C131.509 8.55081 131.851 6.19445 132.012 6.21081L132.006 6.20263Z" fill="#36FFFF"/>
</g>
<path fill-rule="evenodd" clip-rule="evenodd" d="M106.919 3.1099C106.919 3.1099 121.01 3.7399 127.449 5.31081C133.888 6.88172 140.15 4.22263 140.15 4.22263C140.15 4.22263 115.09 1.35899 106.916 3.1099H106.919Z" fill="#116E91"/>
<g style="mix-blend-mode:soft-light">
<path fill-rule="evenodd" clip-rule="evenodd" d="M91.7822 14.8753C91.5456 16.4626 91.2711 17.5589 91.385 19.2117C91.496 20.848 91.7442 21.7153 92.2027 22.7217C92.521 23.4253 93.2073 24.9389 93.6045 23.8917C94.0075 22.828 94.1973 20.0626 94.0308 18.6717C93.7476 16.2826 93.0992 14.7853 92.2027 14.8753H91.7851H91.7822Z" fill="#6EFFFF"/>
<path fill-rule="evenodd" clip-rule="evenodd" d="M89.9739 11.758C89.7198 10.2771 89.3431 9.18075 89.7228 7.86348C89.9768 6.97984 90.1141 6.78348 90.3915 7.64257C90.7624 8.78802 90.8208 10.7762 90.1112 10.9807L89.971 11.758H89.9739Z" fill="#6EFFFF"/>
<path fill-rule="evenodd" clip-rule="evenodd" d="M97.7778 13.3208C97.8596 14.7199 97.8041 16.5853 98.4057 16.8063C98.6101 16.8799 98.797 16.839 98.8817 16.2172C99.0365 15.0799 98.3999 13.9508 98.0553 14.1063L97.7778 13.329V13.3208Z" fill="#6EFFFF"/>
<path fill-rule="evenodd" clip-rule="evenodd" d="M100.425 34.4053C100.729 32.8181 100.928 31.3372 101.649 31.329C102.008 31.329 102.332 32.0735 102.525 32.9244C102.706 33.7426 102.7 34.3235 102.458 35.0026C102.145 35.8781 101.669 35.5672 101.263 35.5753L100.428 34.4053H100.425Z" fill="#6EFFFF"/>
<path fill-rule="evenodd" clip-rule="evenodd" d="M74.6699 9.7862C74.7225 11.0871 74.6378 12.7235 75.07 13.3698C75.3445 13.7789 75.6716 13.7544 75.9636 13.6153C76.4689 13.3698 76.7726 12.7726 76.9682 11.3407C77.3187 8.78802 75.5986 7.01257 74.9474 8.21529L74.6699 9.77802V9.7862Z" fill="#6EFFFF"/>
</g>
<path style="mix-blend-mode:screen" fill-rule="evenodd" clip-rule="evenodd" d="M28.2158 8.33808L32.2634 15.3826C32.2634 15.3826 34.8187 8.17444 35.5225 7.41353C36.2293 6.65263 136.199 6.92263 138.509 8.54263C140.819 10.1544 141.543 13.5254 141.543 13.5254L145.021 6.95535C145.021 6.95535 144.326 1.71081 140.944 1.51444C137.563 1.31808 33.0081 1.55535 33.0081 1.55535C33.0081 1.55535 30.4119 2.42263 28.2158 8.34626V8.33808Z" fill="url(#paint10_radial_91_34513)"/>
<g style="mix-blend-mode:multiply">
<path fill-rule="evenodd" clip-rule="evenodd" d="M29.8226 4.98351C29.0779 8.25624 28.6077 10.8581 28.5084 14.7199C28.4121 18.4099 28.3829 23.1062 29.1801 26.2562C29.8314 28.8253 31.3762 29.8153 32.4363 29.9626C33.9374 30.1671 35.5903 29.6599 36.9921 28.1053C38.4727 26.469 40.111 25.4953 41.6354 24.1535C42.4853 23.409 43.3117 22.6071 44.1382 21.699C44.95 20.8071 45.7823 20.4553 46.6438 20.0462C48.4369 19.2035 50.1862 18.7781 52.0085 18.9499C54.2981 19.1626 56.5146 20.4144 58.7487 21.6826C61.2456 23.1062 63.6082 25.8635 66.0759 27.5081C69.2123 29.6026 72.4306 31.0017 75.5962 32.6953C77.1674 33.5381 78.7181 33.4399 80.3009 33.8899C81.7144 34.2908 83.1249 34.4053 84.5384 33.9062C87.4441 32.8835 90.4521 32.4008 93.3082 30.5844C99.181 26.8535 104.89 21.2571 110.842 18.3362C113.926 16.8226 117.165 15.9881 120.292 15.4481C123.376 14.9162 126.337 15.9799 129.322 18.0662C131.223 19.3917 133.232 20.8481 134.932 23.6953C135.902 25.3153 136.9 27.9171 138.016 28.6699C139.87 29.9299 141.92 29.1199 143.273 24.9308C144.467 21.2326 145.066 15.8162 144.461 11.0708C143.839 6.19442 141.146 4.95078 139.602 4.97533C135.659 5.04078 131.758 4.45169 127.821 4.36169C127.103 4.34533 126.437 4.72987 125.73 4.93442C124.757 5.2126 123.77 4.8526 122.795 5.04078C120.178 5.53169 117.591 5.59715 114.963 5.59715C110.492 5.59715 106.056 4.63987 101.614 3.29806C98.924 2.47987 96.1672 2.55351 93.463 2.55351C91.8509 2.55351 90.236 2.6926 88.6268 2.58624C86.863 2.47169 85.1312 1.90715 83.3585 1.93987C81.6969 1.96442 80.0819 1.9726 78.429 2.4226C77.658 2.63533 76.9075 2.52078 76.1365 2.53715C75.0939 2.56169 74.0806 3.1426 73.0409 3.19169C70.3192 3.3226 67.4981 2.43078 64.7938 3.29806C62.6357 3.99351 60.4659 3.7726 58.2931 3.7726C57.198 3.7726 56.1 3.69897 55.0048 3.74806C53.6118 3.81351 52.2422 4.41897 50.8433 4.39442C49.3977 4.36987 47.9522 4.54987 46.5124 4.10806C45.1924 3.70715 43.9046 2.82351 42.5875 2.37351C40.3651 1.6126 37.8828 1.35078 35.6633 2.40624C35.0033 2.71715 34.3346 2.91351 33.6775 3.29806C33.2131 3.56806 32.7809 4.24715 32.3166 4.4026C31.8902 4.54987 30.3979 3.54351 29.8197 4.99169L29.8226 4.98351Z" fill="#C7FFFF"/>
</g>
<path style="mix-blend-mode:multiply" fill-rule="evenodd" clip-rule="evenodd" d="M32.0081 44.3053C32.0081 44.3053 88.035 52.438 140.42 49.0998L142.029 50.7117C142.029 50.7117 141.399 52.8144 138.732 52.6671C136.066 52.5117 34.6773 53.1989 33.6318 52.5608C32.5863 51.9226 30.8604 50.3189 30.8604 50.3189L32.0081 44.3135V44.3053Z" fill="url(#paint11_radial_91_34513)"/>
<path style="mix-blend-mode:screen" opacity="0.5" fill-rule="evenodd" clip-rule="evenodd" d="M31.3797 28.3917C31.3797 28.3917 32.0251 37.4326 33.202 40.2717C34.3789 43.119 39.9363 45.3281 39.9363 45.3281L32.0046 44.3054C32.0046 44.3054 31.1753 32.8754 31.3768 28.3917H31.3797Z" fill="url(#paint12_radial_91_34513)"/>
<path style="mix-blend-mode:screen" opacity="0.5" fill-rule="evenodd" clip-rule="evenodd" d="M136.961 49.1326C139.85 47.7581 141.666 40.2717 141.666 40.2717C141.666 40.2717 141.222 47.7335 140.559 49.329L136.961 49.1326Z" fill="url(#paint13_radial_91_34513)"/>
<g style="mix-blend-mode:soft-light">
<path fill-rule="evenodd" clip-rule="evenodd" d="M50.3335 1.03174L51.3352 6.83265H58.747L58.5163 1.03174H50.3335Z" fill="#4EFFC5"/>
</g>
</g>
</g>
<defs>
<radialGradient id="paint0_radial_91_34513" cx="0" cy="0" r="1" gradientUnits="userSpaceOnUse" gradientTransform="translate(199.116 1.57038) scale(200.09 62.2098)">
<stop stop-color="#546E98"/>
<stop offset="0.71" stop-color="#3C6E87"/>
<stop offset="1" stop-color="#006E74"/>
</radialGradient>
<radialGradient id="paint1_radial_91_34513" cx="0" cy="0" r="1" gradientUnits="userSpaceOnUse" gradientTransform="translate(200.216 54.6501) scale(200.09 62.2098)">
<stop stop-color="#3AE1A4"/>
<stop offset="0.65" stop-color="#00BABE"/>
<stop offset="1" stop-color="#006F7E"/>
</radialGradient>
<radialGradient id="paint2_radial_91_34513" cx="0" cy="0" r="1" gradientUnits="userSpaceOnUse" gradientTransform="translate(209.916 47.9217) scale(136.15 111.395)">
<stop stop-color="#6EFFFF"/>
<stop offset="0.16" stop-color="#65FCFC"/>
<stop offset="0.41" stop-color="#4CF7F7"/>
<stop offset="0.73" stop-color="#25EDEE"/>
<stop offset="1" stop-color="#00E5E6"/>
</radialGradient>
<radialGradient id="paint3_radial_91_34513" cx="0" cy="0" r="1" gradientUnits="userSpaceOnUse" gradientTransform="translate(204.486 8.4035) scale(141.54 115.805)">
<stop stop-color="#6EFFE6"/>
<stop offset="0.21" stop-color="#65F6DD"/>
<stop offset="0.56" stop-color="#4CE1C5"/>
<stop offset="0.99" stop-color="#25BD9E"/>
</radialGradient>
<radialGradient id="paint4_radial_91_34513" cx="0" cy="0" r="1" gradientUnits="userSpaceOnUse" gradientTransform="translate(9.13605 29.4144) scale(19.26 15.7582)">
<stop stop-color="#6EFFCF"/>
<stop offset="0.13" stop-color="#67F6CC"/>
<stop offset="0.34" stop-color="#54DDC5"/>
<stop offset="0.6" stop-color="#36B6B9"/>
<stop offset="0.91" stop-color="#0D80AA"/>
<stop offset="1" stop-color="#006EA5"/>
</radialGradient>
<radialGradient id="paint5_radial_91_34513" cx="0" cy="0" r="1" gradientUnits="userSpaceOnUse" gradientTransform="translate(203.887 48.568) scale(134.64 110.16)">
<stop stop-color="#3ECAA7"/>
<stop offset="0.18" stop-color="#3AC1A7"/>
<stop offset="0.47" stop-color="#30A8A7"/>
<stop offset="0.84" stop-color="#2081A7"/>
<stop offset="1" stop-color="#186EA7"/>
</radialGradient>
<radialGradient id="paint6_radial_91_34513" cx="0" cy="0" r="1" gradientUnits="userSpaceOnUse" gradientTransform="translate(29.9368 36.8599) scale(12.72 10.4073)">
<stop stop-color="#6EFFFF"/>
<stop offset="0.17" stop-color="#67F8F6"/>
<stop offset="0.45" stop-color="#55E8DD"/>
<stop offset="0.8" stop-color="#37CDB6"/>
<stop offset="0.99" stop-color="#25BD9E"/>
</radialGradient>
<radialGradient id="paint7_radial_91_34513" cx="0" cy="0" r="1" gradientUnits="userSpaceOnUse" gradientTransform="translate(85.0512 1.57038) scale(58.4334 62.2098)">
<stop stop-color="#546E98"/>
<stop offset="0.71" stop-color="#3C6E87"/>
<stop offset="1" stop-color="#006E74"/>
</radialGradient>
<radialGradient id="paint8_radial_91_34513" cx="0" cy="0" r="1" gradientUnits="userSpaceOnUse" gradientTransform="translate(85.3739 54.6501) scale(58.4334 62.2098)">
<stop stop-color="#49FFD4"/>
<stop offset="0.65" stop-color="#00BABE"/>
<stop offset="1" stop-color="#006F7E"/>
</radialGradient>
<radialGradient id="paint9_radial_91_34513" cx="0" cy="0" r="1" gradientUnits="userSpaceOnUse" gradientTransform="translate(88.2052 47.9217) scale(39.7606 111.395)">
<stop stop-color="#6EFFFF"/>
<stop offset="0.16" stop-color="#65FCFC"/>
<stop offset="0.41" stop-color="#4CF7F7"/>
<stop offset="0.73" stop-color="#25EDEE"/>
<stop offset="1" stop-color="#00E5E6"/>
</radialGradient>
<radialGradient id="paint10_radial_91_34513" cx="0" cy="0" r="1" gradientUnits="userSpaceOnUse" gradientTransform="translate(86.62 8.40353) scale(41.3347 115.805)">
<stop stop-color="#6EFFE6"/>
<stop offset="0.21" stop-color="#65F6DD"/>
<stop offset="0.56" stop-color="#4CE1C5"/>
<stop offset="0.99" stop-color="#25BD9E"/>
</radialGradient>
<radialGradient id="paint11_radial_91_34513" cx="0" cy="0" r="1" gradientUnits="userSpaceOnUse" gradientTransform="translate(86.4434 48.568) scale(39.3196 110.16)">
<stop stop-color="#3ECAA7"/>
<stop offset="0.18" stop-color="#3AC1A7"/>
<stop offset="0.47" stop-color="#30A8A7"/>
<stop offset="0.84" stop-color="#2081A7"/>
<stop offset="1" stop-color="#186EA7"/>
</radialGradient>
<radialGradient id="paint12_radial_91_34513" cx="0" cy="0" r="1" gradientUnits="userSpaceOnUse" gradientTransform="translate(35.6434 36.8599) scale(3.71469 10.4073)">
<stop stop-color="#6EFFFF"/>
<stop offset="0.17" stop-color="#67F8F6"/>
<stop offset="0.45" stop-color="#55E8DD"/>
<stop offset="0.8" stop-color="#37CDB6"/>
<stop offset="0.99" stop-color="#25BD9E"/>
</radialGradient>
<radialGradient id="paint13_radial_91_34513" cx="0" cy="0" r="1" gradientUnits="userSpaceOnUse" gradientTransform="translate(139.315 44.7963) scale(2.01796 5.65364)">
<stop stop-color="#6EFFFF"/>
<stop offset="0.17" stop-color="#67F8F6"/>
<stop offset="0.45" stop-color="#55E8DD"/>
<stop offset="0.8" stop-color="#37CDB6"/>
<stop offset="0.99" stop-color="#25BD9E"/>
</radialGradient>
<clipPath id="clip0_91_34513">
<rect width="137" height="54" fill="white"/>
</clipPath>
<clipPath id="clip1_91_34513">
<rect width="38" height="54" fill="white"/>
</clipPath>
<clipPath id="clip2_91_34513">
<rect width="99" height="54" fill="white" transform="translate(38)"/>
</clipPath>
</defs>
</svg>
