<svg width="56" height="56" viewBox="0 0 56 56" fill="none" xmlns="http://www.w3.org/2000/svg">
<g clip-path="url(#clip0_1343_19289)">
<path d="M34.5722 6.89739C33.0478 5.91662 31.7738 4.58938 30.5212 3.27813C29.5778 2.29202 28.5917 1.20998 28 0V15.1327C28.7409 15.0954 29.4765 15.0581 30.2174 15.0154C34.8388 14.7436 39.3269 14.1679 43.5484 12.265C43.6604 11.3162 43.767 10.3621 43.8789 9.41329C40.6381 9.18408 37.3067 8.65106 34.5776 6.89739H34.5722Z" fill="url(#paint0_linear_1343_19289)"/>
<path d="M21.4278 6.89739C22.9522 5.91662 24.2262 4.58938 25.4788 3.27813C26.4223 2.29202 27.4084 1.20998 28 0V15.1327C27.2591 15.0954 26.5235 15.0581 25.7826 15.0154C21.1613 14.7436 16.6732 14.1679 12.4516 12.265C12.3396 11.3162 12.233 10.3621 12.1211 9.41329C15.3619 9.18408 18.6933 8.65106 21.4224 6.89739H21.4278Z" fill="url(#paint1_linear_1343_19289)"/>
<path d="M34.5722 49.1025C33.0478 50.0833 31.7738 51.4105 30.5212 52.7217C29.5778 53.7079 28.5917 54.7899 28 55.9999V40.8672C28.7409 40.9045 29.4765 40.9418 30.2174 40.9845C34.8388 41.2563 39.3269 41.832 43.5484 43.7349C43.6604 44.6837 43.767 45.6378 43.8789 46.5866C40.6381 46.8158 37.3067 47.3488 34.5776 49.1025H34.5722Z" fill="url(#paint2_linear_1343_19289)"/>
<path d="M21.4278 49.1025C22.9522 50.0833 24.2262 51.4105 25.4788 52.7217C26.4223 53.7079 27.4084 54.7899 28 55.9999V40.8672C27.2591 40.9045 26.5235 40.9418 25.7826 40.9845C21.1613 41.2563 16.6732 41.832 12.4516 43.7349C12.3396 44.6837 12.233 45.6378 12.1211 46.5866C15.3619 46.8158 18.6933 47.3488 21.4224 49.1025H21.4278Z" fill="url(#paint3_linear_1343_19289)"/>
<path d="M6.89739 21.4278C5.91662 22.9522 4.58938 24.2262 3.27813 25.4788C2.29202 26.4223 1.20998 27.4084 0 28H15.1327C15.0954 27.2591 15.0581 26.5235 15.0154 25.7826C14.7436 21.1613 14.1679 16.6732 12.265 12.4516C11.3162 12.3396 10.3621 12.233 9.41329 12.1211C9.18408 15.3619 8.65106 18.6933 6.89739 21.4224V21.4278Z" fill="url(#paint4_linear_1343_19289)"/>
<path d="M6.89739 34.5722C5.91662 33.0478 4.58938 31.7738 3.27813 30.5212C2.29202 29.5778 1.20998 28.5917 0 28H15.1327C15.0954 28.7409 15.0581 29.4765 15.0154 30.2174C14.7436 34.8388 14.1679 39.3269 12.265 43.5484C11.3162 43.6604 10.3621 43.767 9.41329 43.8789C9.18408 40.6381 8.65106 37.3067 6.89739 34.5776V34.5722Z" fill="url(#paint5_linear_1343_19289)"/>
<path d="M49.1025 21.4278C50.0833 22.9522 51.4105 24.2262 52.7217 25.4788C53.7079 26.4223 54.7899 27.4084 55.9999 28H40.8672C40.9045 27.2591 40.9418 26.5235 40.9845 25.7826C41.2563 21.1613 41.832 16.6732 43.7349 12.4516C44.6837 12.3396 45.6378 12.233 46.5866 12.1211C46.8158 15.3619 47.3488 18.6933 49.1025 21.4224V21.4278Z" fill="url(#paint6_linear_1343_19289)"/>
<path d="M49.1025 34.5722C50.0833 33.0478 51.4105 31.7738 52.7217 30.5212C53.7079 29.5778 54.7899 28.5917 55.9999 28H40.8672C40.9045 28.7409 40.9418 29.4765 40.9845 30.2174C41.2563 34.8388 41.832 39.3269 43.7349 43.5484C44.6837 43.6604 45.6378 43.767 46.5866 43.8789C46.8158 40.6381 47.3488 37.3067 49.1025 34.5776V34.5722Z" fill="url(#paint7_linear_1343_19289)"/>
<path d="M50.2406 33.2466C53.1396 20.9638 45.5325 8.65659 33.2498 5.75759C20.967 2.8586 8.6598 10.4656 5.76081 22.7484C2.86182 35.0311 10.4689 47.3384 22.7516 50.2374C35.0344 53.1364 47.3416 45.5293 50.2406 33.2466Z" fill="url(#paint8_linear_1343_19289)"/>
<path style="mix-blend-mode:screen" d="M47.5712 32.6192C50.1226 21.8091 43.4276 10.9775 32.6175 8.42609C21.8075 5.87468 10.9758 12.5697 8.42443 23.3797C5.87301 34.1898 12.568 45.0215 23.3781 47.5729C34.1882 50.1243 45.0198 43.4293 47.5712 32.6192Z" fill="url(#paint9_linear_1343_19289)"/>
<mask id="mask0_1343_19289" style="mask-type:luminance" maskUnits="userSpaceOnUse" x="5" y="5" width="46" height="46">
<path d="M50.2406 33.2466C53.1396 20.9638 45.5325 8.65659 33.2498 5.75759C20.967 2.8586 8.6598 10.4656 5.76081 22.7484C2.86182 35.0311 10.4689 47.3384 22.7516 50.2374C35.0344 53.1364 47.3416 45.5293 50.2406 33.2466Z" fill="white"/>
</mask>
<g mask="url(#mask0_1343_19289)">
<path style="mix-blend-mode:screen" d="M7.43359 42.7392C8.17983 43.6773 9.24589 44.3863 10.4292 44.5888C11.6125 44.7914 12.9025 44.4609 13.7553 43.6187C14.6135 42.7765 14.9653 41.428 14.5335 40.3086C19.1282 43.4748 24.6611 44.9193 30.0713 46.3105C27.7153 45.7615 25.2741 45.5962 22.8701 45.8308C21.5855 45.9534 20.2583 46.2146 19.2189 46.9821C18.1155 47.803 17.4705 49.1249 17.1933 50.4735C16.9162 51.822 16.9748 53.2132 17.0281 54.5831" fill="url(#paint10_linear_1343_19289)"/>
<path style="mix-blend-mode:screen" d="M41.1367 39.826C41.9309 38.76 43.562 38.5894 44.7507 39.181C45.9393 39.7727 46.7335 40.9614 47.2186 42.198C47.7036 43.4346 47.9328 44.7565 48.3273 46.0251C49.5959 42.5231 51.3282 39.2077 52.7781 35.7803C54.2279 32.3476 55.4112 28.7337 55.4859 25.0078C53.9774 27.06 52.6715 29.2561 51.5947 31.5641C51.2429 32.321 50.9125 33.0992 50.4221 33.7761C49.937 34.4584 49.2707 35.0447 48.4605 35.258C47.1333 35.6098 45.7101 34.8742 44.8573 33.8028C44.0044 32.7314 43.61 31.3722 43.2475 30.0449" fill="url(#paint11_linear_1343_19289)"/>
<path style="mix-blend-mode:screen" d="M45.4548 20.4866C45.2202 19.7564 44.9857 18.9888 45.1243 18.2319C45.2629 17.475 45.9078 16.7554 46.6754 16.814C47.3044 16.862 47.7788 17.395 48.1466 17.9014C49.4951 19.7457 50.4652 21.8725 50.9769 24.1005C51.8191 20.7051 50.9077 17.0166 48.9888 14.0903C47.0699 11.1639 44.2181 8.94121 41.1319 7.28882C38.0457 5.63643 34.7089 4.51707 31.3828 3.42969C33.0299 4.67164 34.6823 5.91893 36.4146 7.04895C39.3569 8.96786 42.651 10.6735 44.4687 13.6745C44.975 14.5114 45.3375 15.6041 44.8258 16.4356C44.4473 17.0539 43.6958 17.3311 42.9922 17.507C41.0466 17.9867 38.9891 18.024 37.0276 17.6136" fill="url(#paint12_linear_1343_19289)"/>
<path style="mix-blend-mode:screen" d="M19.6831 10.9575C19.0701 11.6824 17.8921 11.7464 17.0872 11.24C16.2823 10.7336 15.8346 9.79016 15.7387 8.84137C15.6427 7.89258 15.8613 6.94912 16.1331 6.04297C11.032 10.9522 6.6132 16.565 3.03125 22.6735C4.85954 20.584 6.69316 18.4999 8.52145 16.4104C9.06513 15.7921 9.66213 15.1364 10.467 14.9712C11.5917 14.7367 12.7164 15.5842 13.1854 16.6343C13.6598 17.679 13.6332 18.873 13.6065 20.0243C15.0351 18.0521 16.8207 16.3411 18.8462 14.9872" fill="url(#paint13_linear_1343_19289)"/>
</g>
<path d="M46.9259 32.4655C49.3928 22.0135 42.9196 11.5408 32.4677 9.07388C22.0157 6.607 11.5429 13.0802 9.07606 23.5321C6.60918 33.9841 13.0823 44.4568 23.5343 46.9237C33.9862 49.3906 44.459 42.9174 46.9259 32.4655Z" fill="url(#paint14_radial_1343_19289)"/>
<path d="M27.9996 46.4211C23.0797 46.4211 18.4531 44.5022 14.9724 41.0268C11.4917 37.5461 9.57812 32.9195 9.57812 27.9996C9.57812 23.0797 11.4917 18.4531 14.9724 14.9724C18.4531 11.4917 23.0797 9.57812 27.9996 9.57812C32.9195 9.57812 37.5461 11.4917 41.0268 14.9724C44.5075 18.4531 46.4211 23.0797 46.4211 27.9996C46.4211 32.9195 44.5022 37.5461 41.0268 41.0268C37.5461 44.5075 32.9195 46.4211 27.9996 46.4211Z" fill="url(#paint15_radial_1343_19289)"/>
<path style="mix-blend-mode:screen" d="M18.3386 16.0497C18.9143 15.1755 20.2842 14.6745 21.2649 14.4399C22.1338 14.2321 22.9866 14.2374 23.8821 14.2374C24.4844 14.2374 25.252 14.1628 25.7797 14.5039C26.4886 14.9623 26.8191 16.3695 26.462 17.1051C26.0515 17.9526 25.1561 18.5709 24.4578 19.1679C23.2318 20.2073 21.9525 21.1934 20.7905 22.3128C19.1222 23.9172 17.2033 25.3937 15.1671 26.513C14.4422 26.9128 13.8665 27.0194 13.648 26.0866C13.3388 24.7647 14.0211 22.8884 14.4955 21.6678C14.9112 20.5964 15.5029 19.509 16.0892 18.5229C16.6063 17.6541 17.2406 16.2949 18.3333 16.0443L18.3386 16.0497Z" fill="url(#paint16_linear_1343_19289)"/>
<path style="mix-blend-mode:multiply" opacity="0.4" d="M40.8804 22.1182C41.1629 24.6127 40.939 27.1286 40.6938 29.6232C40.4326 32.299 40.1128 35.0761 38.6629 37.3415C37.7355 38.7913 36.3869 39.9373 34.8998 40.8115C31.8082 42.6291 28.0557 43.2901 24.527 42.6398C20.9984 41.9895 17.7309 40.0279 15.4922 37.2242C18.8343 38.4928 22.4909 38.9245 26.0355 38.4715C27.8638 38.2369 29.7987 37.6826 30.9234 36.2221C32.24 34.5164 32.0481 32.1018 31.5364 30.0123C31.0193 27.9228 30.2304 25.8067 30.5556 23.6746C30.8328 21.8303 31.9361 20.1939 33.3007 18.9306C34.4627 17.8539 36.0458 16.5693 37.5702 16.0576C39.2013 15.5139 39.8836 17.9818 40.2567 19.1438C40.5659 20.1086 40.7684 21.1107 40.8857 22.1182H40.8804Z" fill="url(#paint17_linear_1343_19289)"/>
<path style="mix-blend-mode:screen" d="M12.1406 37.3924C12.9188 38.7036 13.8676 39.9243 14.971 41.0277C18.4517 44.5083 23.0784 46.4219 27.9982 46.4219C32.9181 46.4219 37.5448 44.5083 41.0255 41.0277C44.5061 37.547 46.4197 32.9203 46.4197 28.0004C46.4197 23.0806 44.5008 18.4539 41.0255 14.9732C40.743 14.6907 40.4445 14.4189 40.146 14.1523C40.146 14.1577 40.1566 14.163 40.1566 14.1683C41.0201 15.373 41.5585 16.7535 42.0968 18.1394C42.9763 20.4154 44.3249 25.202 41.0574 26.2254C39.4584 26.7265 37.678 26.9024 36.8039 28.5548C36.1163 29.8554 36.2335 31.6623 36.6813 33.0109C37.5341 35.5588 38.3177 38.4744 36.7612 40.8997C35.5193 42.84 32.9181 44.8921 30.5461 44.9294C29.7626 44.9401 29.0163 44.7322 28.2967 44.4497C27.5398 44.1512 26.7243 43.9966 25.9247 43.8474C24.3417 43.5542 22.7586 43.1118 21.2394 42.5255C19.1926 41.7312 17.1618 40.7718 15.2642 39.6258C14.2034 38.9862 13.0947 38.2612 12.1833 37.4244C12.1726 37.4137 12.1566 37.3977 12.146 37.3871L12.1406 37.3924Z" fill="url(#paint18_linear_1343_19289)"/>
<g clip-path="url(#clip1_1343_19289)">
<path d="M17.864 28.5944L28 38.7305L38.1361 28.5944C39.3295 27.401 40 25.7823 40 24.0944V23.809C40 20.4519 37.2785 17.7305 33.9215 17.7305C32.0749 17.7305 30.3285 18.5699 29.175 20.0118L28 21.4805L26.825 20.0118C25.6715 18.5699 23.9251 17.7305 22.0785 17.7305C18.7215 17.7305 16 20.4519 16 23.809V24.0944C16 25.7823 16.6705 27.401 17.864 28.5944Z" fill="white"/>
</g>
</g>
<defs>
<linearGradient id="paint0_linear_1343_19289" x1="35.9368" y1="14.4078" x2="35.9368" y2="0.0906141" gradientUnits="userSpaceOnUse">
<stop stop-color="#901947"/>
<stop offset="1" stop-color="#C03A2D"/>
</linearGradient>
<linearGradient id="paint1_linear_1343_19289" x1="20.0632" y1="14.4078" x2="20.0632" y2="0.0906141" gradientUnits="userSpaceOnUse">
<stop stop-color="#901947"/>
<stop offset="1" stop-color="#C03A2D"/>
</linearGradient>
<linearGradient id="paint2_linear_1343_19289" x1="35.9368" y1="41.5921" x2="35.9368" y2="55.9093" gradientUnits="userSpaceOnUse">
<stop stop-color="#901947"/>
<stop offset="1" stop-color="#C03A2D"/>
</linearGradient>
<linearGradient id="paint3_linear_1343_19289" x1="20.0632" y1="41.5921" x2="20.0632" y2="55.9093" gradientUnits="userSpaceOnUse">
<stop stop-color="#901947"/>
<stop offset="1" stop-color="#C03A2D"/>
</linearGradient>
<linearGradient id="paint4_linear_1343_19289" x1="14.4078" y1="20.0632" x2="0.085285" y2="20.0632" gradientUnits="userSpaceOnUse">
<stop stop-color="#901947"/>
<stop offset="1" stop-color="#C03A2D"/>
</linearGradient>
<linearGradient id="paint5_linear_1343_19289" x1="14.4078" y1="35.9368" x2="0.085285" y2="35.9368" gradientUnits="userSpaceOnUse">
<stop stop-color="#901947"/>
<stop offset="1" stop-color="#C03A2D"/>
</linearGradient>
<linearGradient id="paint6_linear_1343_19289" x1="41.5921" y1="20.0632" x2="55.9093" y2="20.0632" gradientUnits="userSpaceOnUse">
<stop stop-color="#901947"/>
<stop offset="1" stop-color="#C03A2D"/>
</linearGradient>
<linearGradient id="paint7_linear_1343_19289" x1="41.5921" y1="35.9368" x2="55.9093" y2="35.9368" gradientUnits="userSpaceOnUse">
<stop stop-color="#901947"/>
<stop offset="1" stop-color="#C03A2D"/>
</linearGradient>
<linearGradient id="paint8_linear_1343_19289" x1="28.0007" y1="-3.729" x2="28.0007" y2="39.5423" gradientUnits="userSpaceOnUse">
<stop stop-color="#901947"/>
<stop offset="1" stop-color="#C03A2D"/>
</linearGradient>
<linearGradient id="paint9_linear_1343_19289" x1="7.8866" y1="28.0042" x2="48.109" y2="28.0042" gradientUnits="userSpaceOnUse">
<stop/>
<stop offset="0.16" stop-color="#C03A2D"/>
<stop offset="0.31"/>
<stop offset="0.5" stop-color="#C03A2D"/>
<stop offset="0.72"/>
<stop offset="1" stop-color="#C03A2D"/>
</linearGradient>
<linearGradient id="paint10_linear_1343_19289" x1="7.43359" y1="47.4458" x2="30.0713" y2="47.4458" gradientUnits="userSpaceOnUse">
<stop/>
<stop offset="0.16" stop-color="#C03A2D"/>
<stop offset="0.31"/>
<stop offset="0.5" stop-color="#C03A2D"/>
<stop offset="0.72"/>
<stop offset="1" stop-color="#C03A2D"/>
</linearGradient>
<linearGradient id="paint11_linear_1343_19289" x1="41.1367" y1="35.5191" x2="55.4859" y2="35.5191" gradientUnits="userSpaceOnUse">
<stop/>
<stop offset="0.16" stop-color="#C03A2D"/>
<stop offset="0.31"/>
<stop offset="0.5" stop-color="#C03A2D"/>
<stop offset="0.72"/>
<stop offset="1" stop-color="#C03A2D"/>
</linearGradient>
<linearGradient id="paint12_linear_1343_19289" x1="31.3828" y1="13.7651" x2="51.2914" y2="13.7651" gradientUnits="userSpaceOnUse">
<stop/>
<stop offset="0.16" stop-color="#C03A2D"/>
<stop offset="0.31"/>
<stop offset="0.5" stop-color="#C03A2D"/>
<stop offset="0.72"/>
<stop offset="1" stop-color="#C03A2D"/>
</linearGradient>
<linearGradient id="paint13_linear_1343_19289" x1="3.03125" y1="14.3582" x2="19.6831" y2="14.3582" gradientUnits="userSpaceOnUse">
<stop/>
<stop offset="0.16" stop-color="#C03A2D"/>
<stop offset="0.31"/>
<stop offset="0.5" stop-color="#C03A2D"/>
<stop offset="0.72"/>
<stop offset="1" stop-color="#C03A2D"/>
</linearGradient>
<radialGradient id="paint14_radial_1343_19289" cx="0" cy="0" r="1" gradientUnits="userSpaceOnUse" gradientTransform="translate(28.0009 28.0035) scale(19.4449)">
<stop stop-color="#431326"/>
<stop offset="1" stop-color="#0B0300"/>
</radialGradient>
<radialGradient id="paint15_radial_1343_19289" cx="0" cy="0" r="1" gradientUnits="userSpaceOnUse" gradientTransform="translate(35.1315 56.9057) scale(42.6103)">
<stop stop-color="#FF001E"/>
<stop offset="1" stop-color="#470008"/>
</radialGradient>
<linearGradient id="paint16_linear_1343_19289" x1="19.0369" y1="30.8039" x2="20.9611" y2="12.5104" gradientUnits="userSpaceOnUse">
<stop stop-color="#FF001E"/>
<stop offset="1" stop-color="#470008"/>
</linearGradient>
<linearGradient id="paint17_linear_1343_19289" x1="56.8614" y1="12.966" x2="15.5846" y2="43.5698" gradientUnits="userSpaceOnUse">
<stop stop-color="#FF001E"/>
<stop offset="1" stop-color="#470008"/>
</linearGradient>
<linearGradient id="paint18_linear_1343_19289" x1="30.9299" y1="2.60694" x2="29.0696" y2="36.8434" gradientUnits="userSpaceOnUse">
<stop stop-color="#FF001E"/>
<stop offset="1" stop-color="#470008"/>
</linearGradient>
<clipPath id="clip0_1343_19289">
<rect width="56" height="56" fill="white"/>
</clipPath>
<clipPath id="clip1_1343_19289">
<rect width="24" height="24" fill="white" transform="translate(16 16.2305)"/>
</clipPath>
</defs>
</svg>
