<svg width="44" height="44" viewBox="0 0 44 44" fill="none" xmlns="http://www.w3.org/2000/svg">
<path fill-rule="evenodd" clip-rule="evenodd" d="M21.6434 0.016606C24.4045 0.196856 32.8661 2.44998 35.36 4.7031C35.8944 5.15373 39.9025 9.0291 41.4167 11.823C42.4855 13.8958 43.9106 22.0071 43.9106 22.638C43.9106 27.3245 39.7244 36.5172 34.024 40.6629C32.5989 41.6543 23.8701 44.0877 21.6434 43.9976C14.4288 43.7272 6.76893 38.4999 4.89849 36.5172C3.65153 35.2554 1.06852 28.2257 0.890386 26.964C0.712248 25.7022 -0.0893726 21.1058 0.088765 19.5737C0.266903 17.591 2.49363 10.6513 3.56246 9.11922C5.96732 5.24385 16.4774 -0.343894 21.6434 0.016606Z" fill="#A08E86"/>
<path fill-rule="evenodd" clip-rule="evenodd" d="M4.27487 19.7542C4.36394 18.2221 6.1453 12.9948 6.85785 11.9133C6.85785 11.9133 6.94693 11.7331 7.03599 11.643C5.69996 11.1022 3.91859 9.66021 3.65139 8.93921C3.65139 8.93921 3.56232 9.02933 3.56232 9.11946C2.58256 10.6516 0.266761 17.5912 0.088623 19.5739C0.890242 19.2134 3.38418 19.3036 4.27487 19.7542Z" fill="url(#paint0_radial_1737_400592)"/>
<path fill-rule="evenodd" clip-rule="evenodd" d="M7.03606 11.6422C9.26278 8.84835 18.615 4.43223 21.198 4.43223C21.5543 3.35074 21.6433 0.737113 21.198 0.0161133C15.9429 0.0161133 6.14537 5.15323 3.56238 8.93848C3.82958 9.65948 5.70002 11.1015 6.94698 11.6422H7.03606Z" fill="url(#paint1_radial_1737_400592)"/>
<path fill-rule="evenodd" clip-rule="evenodd" d="M21.466 4.52281C22.8021 4.70306 29.4822 6.41543 32.0652 8.12781C32.5996 6.59568 33.4903 5.33393 34.6482 4.16231C31.4417 2.08944 24.3162 0.286939 21.8223 0.106689C21.7332 0.106689 21.5551 0.106689 21.377 0.106689C21.7332 0.917814 21.6442 3.53144 21.377 4.52281C21.377 4.52281 21.5551 4.52281 21.6441 4.52281H21.466Z" fill="url(#paint2_radial_1737_400592)"/>
<path fill-rule="evenodd" clip-rule="evenodd" d="M34.5585 4.07166C33.4006 5.24328 32.5099 6.50503 31.9755 8.03715C32.1536 8.12728 32.3318 8.30753 32.5099 8.39765C32.8662 8.75815 35.8054 11.4619 36.9633 13.5348C38.5666 13.2644 39.9917 12.5434 41.2386 11.4619C39.6354 8.75815 35.8945 5.15315 35.4491 4.70253C35.1819 4.52228 34.9147 4.25191 34.5585 4.07166Z" fill="url(#paint3_radial_1737_400592)"/>
<path fill-rule="evenodd" clip-rule="evenodd" d="M41.2392 11.5524C39.9031 12.6339 38.5671 13.445 36.9639 13.6253C36.9639 13.6253 36.9639 13.7154 37.0529 13.8055C37.8545 15.3377 39.725 22.3674 39.725 22.818C39.725 22.9983 39.725 23.0884 39.725 23.2686C41.2391 22.818 42.5752 22.6378 44.0003 22.6378C44.0003 22.0069 42.5752 13.8055 41.5064 11.8228C41.5064 11.7327 41.4173 11.5524 41.3282 11.4623L41.2392 11.5524Z" fill="url(#paint4_radial_1737_400592)"/>
<path fill-rule="evenodd" clip-rule="evenodd" d="M43.9115 22.7278C42.5755 22.7278 41.1504 22.8179 39.6362 23.3587C39.369 27.0538 35.45 34.2638 31.2638 37.2379C32.1545 38.9503 33.0451 39.9416 34.0249 40.7528C39.7253 36.607 43.9115 27.5044 43.9115 22.7278Z" fill="url(#paint5_radial_1737_400592)"/>
<path fill-rule="evenodd" clip-rule="evenodd" d="M34.0243 40.6627C33.0445 39.8516 32.1539 38.9503 31.2632 37.1478C30.1943 37.8688 23.6032 39.7615 22 39.6713C22.4453 41.1133 22.3563 42.5553 21.7328 43.9973H22C24.4939 43.9973 32.7773 41.6541 34.1134 40.6627H34.0243Z" fill="url(#paint6_radial_1737_400592)"/>
<path fill-rule="evenodd" clip-rule="evenodd" d="M21.6447 43.9968C22.2682 42.5548 22.3573 41.1128 21.9119 39.6708C17.6366 39.3103 8.72973 33.993 8.19532 33.272C6.85928 34.2633 5.79047 35.435 4.89978 36.5165C6.77022 38.4992 14.4301 43.7265 21.6447 43.9968Z" fill="url(#paint7_radial_1737_400592)"/>
<path fill-rule="evenodd" clip-rule="evenodd" d="M4.89881 36.517C5.7895 35.3454 6.94738 34.2639 8.19434 33.2725C7.83807 32.7318 4.98788 26.3329 4.80974 25.3416C3.56277 26.2428 2.22674 26.7836 0.801636 26.9638C0.979773 28.2256 3.65184 35.2553 4.80974 36.517H4.89881Z" fill="url(#paint8_radial_1737_400592)"/>
<path fill-rule="evenodd" clip-rule="evenodd" d="M0.891199 26.9634C2.3163 26.7831 3.65234 26.2424 4.8993 25.3411C4.72116 24.3498 4.18675 20.925 4.27582 19.7534C3.38513 19.3028 0.891197 19.1225 0.0895782 19.5732C0.000509441 21.1053 0.713061 25.7016 0.891199 26.9634Z" fill="url(#paint9_radial_1737_400592)"/>
<path fill-rule="evenodd" clip-rule="evenodd" d="M7.30328 11.9131C7.30328 11.9131 6.85792 12.1835 6.67979 12.4539C5.61096 14.707 5.07656 16.7799 4.36401 19.2132C4.36401 20.9256 4.45307 22.1874 4.72028 23.8997C4.89842 24.9812 5.2547 25.2516 6.41259 24.7109C10.9551 22.8182 15.4976 21.6466 20.1292 20.5651C22.3559 18.8527 25.6514 15.7885 27.5219 13.7156C28.7689 12.2736 29.8377 10.7415 31.2628 8.75875C31.2628 8.66862 31.3519 8.48837 31.4409 8.39825C31.4409 8.218 31.4409 8.03775 31.3518 7.94762C28.0563 6.50562 24.5826 5.334 21.0199 4.70312C16.4774 5.78462 12.3802 7.58712 8.63931 10.381C8.28304 10.6514 8.01582 10.8316 7.65955 11.102C7.48141 11.2822 7.48142 11.6427 7.30328 11.9131Z" fill="url(#paint10_radial_1737_400592)"/>
<path fill-rule="evenodd" clip-rule="evenodd" d="M31.7974 8.57795C30.5504 10.02 29.4816 11.6422 28.5018 13.2645C28.3237 13.4447 28.2346 13.7151 28.5909 13.8052C29.3034 13.9854 30.016 14.1657 30.7285 14.1657C32.1536 14.1657 33.5788 13.8953 35.0929 13.7151C35.4492 13.7151 35.8055 13.7151 36.1617 13.5348C36.518 13.3546 36.4289 13.1743 36.2508 12.9941C36.0727 12.7237 35.9836 12.3632 35.7164 12.0928C35.0039 11.1916 34.2022 10.3805 33.4006 9.56933C32.9553 9.1187 32.599 8.7582 32.0646 8.39771C31.9755 8.39771 31.7974 8.3977 31.7083 8.48783L31.7974 8.57795Z" fill="url(#paint11_radial_1737_400592)"/>
<path fill-rule="evenodd" clip-rule="evenodd" d="M38.5663 23.7194C37.0521 24.3503 35.538 25.0713 34.1129 25.8824C33.4894 26.7836 32.7768 27.6849 32.1533 28.5861C32.0643 29.7577 31.8861 30.9294 31.7971 32.101C31.6189 33.2726 31.5299 34.4442 31.3517 35.6159C31.3517 36.2467 31.2627 36.7875 31.3517 36.8776C31.3517 36.8776 31.9752 36.6072 32.5096 36.0665C33.4003 35.2554 34.4691 34.0837 34.6473 33.9035C35.7161 32.5516 36.6958 31.0195 37.4975 29.4874C38.1209 28.0454 39.0116 26.333 39.2788 24.6206C39.457 23.8996 39.546 23.2688 38.4772 23.7194H38.5663Z" fill="url(#paint12_radial_1737_400592)"/>
<path fill-rule="evenodd" clip-rule="evenodd" d="M33.9349 25.7021C35.6272 25.0712 38.032 23.5391 38.4774 23.3589C39.279 23.0885 39.4572 22.9984 39.3681 22.4576C39.1009 21.3761 38.9227 20.2946 38.5665 19.3032C38.0321 17.5909 37.4086 15.9686 36.7851 14.2563C36.7851 14.1661 36.7851 13.9859 36.696 13.8958C36.1616 13.8958 35.6272 13.8958 35.0928 13.8958C33.6677 13.9859 32.3316 14.2563 30.9065 14.3464C30.5503 14.3464 30.2831 14.3464 29.9268 14.3464C29.3924 14.3464 28.947 14.1661 28.4126 14.1661C27.7891 14.1661 27.611 14.3464 27.1656 14.7069C24.8498 16.6896 22.6231 18.6724 20.5746 20.7452C15.1414 21.8267 9.97537 23.1786 5.43286 25.5219C5.611 28.0454 7.12517 31.1096 8.4612 33.2726C9.53003 34.264 10.8661 35.0751 12.2021 35.7961C15.2304 37.5085 19.4167 39.4011 21.9106 39.6715C22.5341 39.6715 23.8701 39.4912 25.2952 39.1307C27.1656 38.4999 28.947 38.0492 30.5503 37.3282C30.8175 36.7875 30.5503 36.0665 30.7284 35.5257C31.0847 33.1825 31.441 30.8392 31.7082 28.4059C32.5098 27.5046 33.1333 26.6034 33.7567 25.612L33.9349 25.7021Z" fill="url(#paint13_radial_1737_400592)"/>
<g style="mix-blend-mode:screen" opacity="0.5">
<path fill-rule="evenodd" clip-rule="evenodd" d="M17.725 9.56976C17.725 9.56976 17.2797 8.84876 17.4578 8.66851C18.2595 7.76726 19.3283 7.22651 20.308 6.59564C20.6643 6.41539 21.1097 6.41539 21.4659 6.59564C22.4457 7.13639 23.5145 7.58701 24.138 8.48826C25.0287 9.84013 21.2878 10.2006 20.6643 10.1105C19.6846 10.1105 18.6157 10.1105 17.725 9.47963V9.56976Z" fill="#3C3C96"/>
</g>
<path fill-rule="evenodd" clip-rule="evenodd" d="M17.7244 9.38983C17.7244 9.38983 17.3681 8.66883 17.5462 8.39845C18.3478 7.58733 19.3276 6.95645 20.3964 6.4157C20.7527 6.23546 21.198 6.23546 21.5543 6.4157C22.5341 6.86633 23.5138 7.40708 24.1373 8.30833C25.028 9.57008 21.2871 9.84045 20.7527 9.84045C19.7729 9.84045 18.7041 9.84045 17.8134 9.38983H17.7244Z" fill="url(#paint14_radial_1737_400592)"/>
<g style="mix-blend-mode:screen" opacity="0.5">
<path fill-rule="evenodd" clip-rule="evenodd" d="M27.2559 8.84806C27.2559 8.84806 26.4543 9.02831 26.098 9.20856C25.9199 9.29868 25.9199 9.56906 26.009 9.74931C26.2762 10.2901 26.8996 10.8308 27.5231 11.1012C27.7012 11.1913 28.0575 11.2814 28.2357 11.1012C28.5029 10.8308 28.7701 10.3802 28.8591 9.92956C28.8591 9.74931 28.7701 9.29868 28.5029 9.11843C28.2357 8.93818 27.7013 8.84806 27.2559 8.75793V8.84806Z" fill="#3C3C96"/>
</g>
<path fill-rule="evenodd" clip-rule="evenodd" d="M27.2551 8.84851C27.2551 8.84851 26.4535 9.02876 26.1863 9.20901C26.0082 9.29913 26.0082 9.56951 26.0082 9.74976C26.2754 10.2905 26.8989 10.7411 27.5223 11.0115C27.7005 11.1016 28.0568 11.1918 28.2349 11.0115C28.5021 10.7411 28.7693 10.3806 28.8584 10.0201C28.8584 9.83988 28.7693 9.38926 28.5021 9.20901C28.2349 9.02876 27.7005 8.93864 27.2551 8.84851Z" fill="url(#paint15_radial_1737_400592)"/>
<g style="mix-blend-mode:screen" opacity="0.5">
<path fill-rule="evenodd" clip-rule="evenodd" d="M19.6841 34.1728C19.1496 34.1728 17.4573 33.7222 17.012 33.6321C16.6557 33.6321 16.9229 35.2543 17.2792 35.4346C18.2589 35.9753 18.7043 36.6062 19.1496 36.7865C19.3278 36.7865 19.9513 36.9667 20.6638 37.147C21.2873 37.3272 21.9108 37.5074 22.267 37.5074C23.2468 37.4173 24.85 36.3358 25.0282 35.7951C25.2954 34.984 24.761 33.9025 24.0484 33.9025C23.6031 33.9025 21.4654 34.263 19.6841 34.0827V34.1728Z" fill="#3C3C96"/>
</g>
<path fill-rule="evenodd" clip-rule="evenodd" d="M19.6841 33.9028C19.1496 33.9028 17.4573 33.3621 17.012 33.272C16.6557 33.272 16.9229 34.8942 17.2792 35.1646C18.2589 35.7955 18.7043 36.4263 19.1496 36.6066C19.5059 36.7868 21.6436 37.3276 22.267 37.2375C23.2468 37.2375 24.9391 36.3362 25.1172 35.7053C25.3844 34.8942 24.85 33.8127 24.1375 33.8127C23.6921 33.8127 21.5545 34.1732 19.7731 33.9028H19.6841Z" fill="url(#paint16_radial_1737_400592)"/>
<path opacity="0.75" fill-rule="evenodd" clip-rule="evenodd" d="M21.3765 0.467438C25.83 1.00819 31.5304 2.81069 33.668 5.06381C36.6073 6.05518 39.5465 9.11943 40.5263 12.0936C42.4858 14.7973 43.2875 19.664 43.3765 22.7283C43.9109 23.7197 43.3765 25.7925 42.8421 28.1358C43.5546 26.0629 43.9109 24.2604 43.9109 22.7283C43.9109 22.0974 42.4858 13.896 41.417 11.9133C39.9919 9.11943 35.8947 5.24406 35.3603 4.79343C32.8664 2.45019 24.4049 0.287188 21.6437 0.106938C16.3887 -0.253562 5.87855 5.33418 3.47369 9.20955C2.49394 10.7417 0.178138 17.6813 0 19.664C0 20.5653 0.178146 22.3678 0.356283 24.0802C0.356283 22.6382 0.267217 20.385 0.445354 19.5739C1.24697 16.4195 2.22672 12.5442 3.91903 9.66018C8.90688 4.88356 15.587 1.18844 21.2875 0.647688L21.3765 0.467438Z" fill="url(#paint17_linear_1737_400592)"/>
<path fill-rule="evenodd" clip-rule="evenodd" d="M4.18626 9.65971C4.98788 10.6511 5.16601 10.9215 6.23484 11.7326C6.23484 11.9128 6.23484 12.0931 6.23484 12.2733C5.70042 14.3462 4.89881 16.5092 4.09719 18.5821C3.82998 19.3031 3.82998 19.3031 3.11743 19.3031C2.49394 19.3031 2.04861 19.3932 1.33606 19.3932C2.67209 19.5735 3.91905 19.3932 4.09719 20.2043C4.36439 22.0068 4.54252 23.5389 4.45345 25.3414C4.27532 26.0624 3.29556 26.4229 2.3158 26.6933C3.38463 26.5131 3.56278 26.5131 4.3644 26.1526C4.89881 25.8822 4.80974 26.1526 5.07695 26.6933C5.7895 28.6761 6.76925 30.5687 7.65993 32.4613C7.92714 33.0922 8.10528 33.2724 7.65993 33.8132C7.30366 34.2638 6.85832 34.6243 6.50205 35.0749C6.94739 34.7144 7.39273 34.3539 7.83808 34.0836C8.46156 33.7231 8.46155 33.8132 8.99596 34.0836C10.1539 34.7144 11.2227 35.2552 12.3806 35.8861C11.0446 35.0749 9.70852 34.2638 8.6397 33.3626C7.2146 31.1996 5.78949 28.1353 5.61136 25.6118C10.1539 23.2686 15.4089 21.9167 20.7531 20.8352C22.8016 18.7623 25.0283 16.7796 27.3441 14.7968C27.7895 14.4363 27.9676 14.2561 28.5911 14.2561C29.1255 14.2561 29.5709 14.4363 30.1053 14.4363C30.4615 14.4363 30.7288 14.4363 31.085 14.4363C32.5101 14.2561 33.8461 14.0758 35.2712 13.9857C35.8057 13.9857 36.3401 13.9857 36.8745 13.9857C36.8745 14.0758 36.8745 14.2561 36.9636 14.3462C37.5871 16.0586 38.2105 17.6808 38.745 19.3932C39.1012 20.4747 39.2794 21.4661 39.5466 22.5476C39.7247 23.0883 39.5466 23.1784 38.6559 23.4488C38.1215 23.6291 35.7166 25.1612 34.1134 25.7921C33.579 26.7834 32.8664 27.6847 32.0648 28.5859C31.7085 30.9292 31.3522 33.2724 31.085 35.7058C30.996 36.2466 31.085 36.9676 30.9069 37.5083C29.3037 38.2293 27.5223 38.6799 25.6518 39.3108C27.4332 38.9503 29.2146 38.4997 30.9959 38.0491C31.3522 38.0491 31.5304 38.0491 31.7085 38.2293C32.0648 38.4997 32.0648 38.6799 32.332 39.0404C32.5101 39.0404 33.4008 39.9417 33.5789 40.1219C33.1336 39.6713 32.7773 39.1306 32.332 38.6799C32.1539 38.4096 31.8866 37.8688 31.9757 37.5083C32.332 36.8774 32.7773 36.6071 33.3118 36.0663C33.8462 35.3453 34.3806 34.7144 34.915 33.9934C34.7369 34.1737 33.668 35.3453 32.7773 36.1564C32.2429 36.6972 31.7085 36.9676 31.6194 36.9676C31.4413 36.9676 31.4413 36.3367 31.6194 35.7058C31.7976 34.5342 31.8867 33.3626 32.0648 32.1909C32.1539 31.0193 32.332 29.8477 32.421 28.6761C33.1336 27.7748 33.7571 26.8736 34.3806 25.9723C35.8057 25.2513 37.3198 24.4402 38.834 23.8093C39.9028 23.3587 39.7247 23.9896 39.6356 24.7106C39.2794 26.4229 38.3887 28.0452 37.8542 29.5773C38.4777 28.2254 40.081 25.7921 40.1701 25.1612C40.2591 24.6204 40.1701 23.9896 40.1701 23.4488C41.1498 23.1784 42.3077 22.9982 43.4656 22.9081C42.2186 22.9081 41.417 22.9081 40.1701 23.1784C40.1701 23.0883 40.1701 22.9081 40.1701 22.8179C39.9028 21.8266 39.5466 20.8352 39.1903 19.8438C38.9231 18.9426 38.834 18.0413 38.6559 17.2302C38.3887 16.1487 37.7652 15.1573 37.6761 14.0758C37.6761 13.8055 38.2105 13.8956 38.2996 13.8956C39.0121 13.5351 39.7247 13.0845 40.4373 12.6338C39.8138 12.9042 39.2794 13.1746 38.6559 13.3548C38.2105 13.5351 37.9433 13.5351 37.498 13.5351C37.4089 13.5351 37.2308 13.5351 37.1417 13.3548C36.5182 12.5437 35.8947 11.5523 35.1822 10.7412C34.5587 10.0202 33.668 9.38933 32.9555 8.75846C32.5992 8.48808 32.5101 8.30783 32.5992 7.85721C32.5992 7.58684 32.5992 7.31646 32.7773 7.04609C33.0445 6.50534 33.3118 6.05471 33.668 5.60409C33.3118 6.05471 32.9555 6.59546 32.5992 6.86584C32.5992 6.86584 32.4211 7.22634 32.332 7.49671C32.0648 8.03746 31.8866 7.94733 31.3522 7.67696C29.8381 7.04609 28.502 6.23496 26.9879 5.69421C25.9191 5.42384 21.7328 5.06334 21.8219 3.62134C21.8219 2.44972 21.7328 2.08922 21.6437 0.647217C21.6437 1.63859 21.6437 3.80159 21.2875 4.16209C21.0203 4.43246 20.753 4.43246 20.3077 4.61271C18.8826 5.06334 17.2794 5.33371 15.7652 5.78434C14.251 6.59546 6.94738 11.1918 6.85831 11.1918C6.23483 11.1918 5.166 10.561 4.45345 9.83996L4.18626 9.65971ZM28.502 13.2647C29.4818 11.6425 30.5506 10.0202 31.7976 8.57821C31.7976 8.48808 32.0648 8.39796 32.1539 8.48808C32.6883 8.75846 33.0446 9.20908 33.4899 9.65971C34.2915 10.4708 35.0931 11.282 35.8057 12.1832C35.9838 12.4536 36.162 12.724 36.3401 13.0845C36.4292 13.3548 36.6073 13.5351 36.251 13.6252C35.8947 13.8055 35.5385 13.8055 35.1822 13.8055C33.7571 13.9857 32.332 14.2561 30.8178 14.2561C30.1053 14.2561 29.3927 14.0758 28.6802 13.8956C28.3239 13.8055 28.4129 13.6252 28.5911 13.3548L28.502 13.2647ZM6.41298 24.7106C10.9555 22.8179 15.498 21.6463 20.1296 20.5648C22.3563 18.8524 25.6518 15.7882 27.5223 13.7153C28.7692 12.2733 29.8381 10.7412 31.2632 8.75846C31.2632 8.66833 31.3522 8.48808 31.4413 8.39796C31.4413 8.21771 31.4413 8.03746 31.3522 7.94733C28.0567 6.50534 24.583 5.33371 21.0203 4.70284C16.4777 5.78434 12.3806 7.58683 8.6397 10.3807C8.28342 10.6511 8.01621 10.8313 7.65993 11.1017C7.4818 11.282 7.48181 11.6425 7.30367 11.9128C7.12553 12.0931 6.85831 12.1832 6.68017 12.4536C5.61135 14.7067 5.07695 16.7796 4.3644 19.2129C4.3644 20.9253 4.45346 22.1871 4.72067 23.8994C4.8988 24.9809 5.25508 25.2513 6.41298 24.7106Z" fill="url(#paint18_radial_1737_400592)"/>
<path fill-rule="evenodd" clip-rule="evenodd" d="M4.89847 25.342C5.07661 26.3334 7.83773 32.7323 8.28307 33.273C8.81749 33.994 17.7244 39.3114 21.9997 39.6719C23.6029 39.762 30.2831 37.9595 31.2628 37.1484C35.4491 34.1743 39.3681 26.9643 39.6353 23.2692C39.6353 23.0889 39.6353 22.9087 39.6353 22.8185C39.6353 22.2778 37.7649 15.3382 36.9632 13.8061C36.9632 13.8061 36.9632 13.7159 36.8741 13.6258C35.7163 11.5529 32.777 8.75906 32.4207 8.48869C32.2426 8.39856 32.0645 8.21831 31.8863 8.12819C29.3924 6.50594 22.6232 4.79357 21.2871 4.52319C21.2871 4.52319 21.109 4.52319 21.0199 4.52319C18.4369 4.52319 9.0847 8.84919 6.85798 11.7332C6.85798 11.7332 6.7689 11.9134 6.67983 12.0036C5.87821 13.1752 4.18592 18.4024 4.09685 19.8444C4.00778 21.0161 4.54219 24.4408 4.72033 25.4322L4.89847 25.342Z" fill="url(#paint19_linear_1737_400592)"/>
<path fill-rule="evenodd" clip-rule="evenodd" d="M4.89847 25.342C5.07661 26.3334 7.83773 32.7323 8.28307 33.273C8.81749 33.994 17.7244 39.3114 21.9997 39.6719C23.6029 39.762 30.2831 37.9595 31.2628 37.1484C35.4491 34.1743 39.3681 26.9643 39.6353 23.2692C39.6353 23.0889 39.6353 22.9087 39.6353 22.8185C39.6353 22.2778 37.7649 15.3382 36.9632 13.8061C36.9632 13.8061 36.9632 13.7159 36.8741 13.6258C35.7163 11.5529 32.777 8.75906 32.4207 8.48869C32.2426 8.39856 32.0645 8.21831 31.8863 8.12819C29.3924 6.50594 22.6232 4.79357 21.2871 4.52319C21.2871 4.52319 21.109 4.52319 21.0199 4.52319C18.4369 4.52319 9.0847 8.84919 6.85798 11.7332C6.85798 11.7332 6.7689 11.9134 6.67983 12.0036C5.87821 13.1752 4.18592 18.4024 4.09685 19.8444C4.00778 21.0161 4.54219 24.4408 4.72033 25.4322L4.89847 25.342Z" fill="url(#paint20_linear_1737_400592)"/>
<path opacity="0.5" fill-rule="evenodd" clip-rule="evenodd" d="M7.39231 11.6429C10.2425 8.84898 18.704 4.97361 21.198 4.97361C21.198 4.97361 21.3761 4.97361 21.4652 4.97361C22.7121 5.15386 28.6797 6.68598 31.5299 8.21811C31.7081 8.21811 31.7971 8.39836 31.9753 8.48848C31.9753 8.48848 32.0644 8.48848 32.1534 8.57861C32.3316 8.66873 32.5097 8.84898 32.6879 8.93911C33.0441 9.20948 35.1818 11.2824 36.5178 13.175C36.785 13.5355 36.9632 13.8059 37.1413 14.0762C37.1413 14.0762 37.1413 14.1664 37.2303 14.2565C37.8538 15.4281 39.1899 20.1146 39.6352 22.2776C39.2789 20.5652 37.7648 15.0676 37.0522 13.7157C37.0522 13.7157 37.0522 13.6256 36.9632 13.5355C35.8053 11.4626 32.866 8.66873 32.5097 8.39836C32.3316 8.30823 32.1534 8.12798 31.9753 8.03786C29.4814 6.41561 22.7121 4.70324 21.3761 4.43286C21.3761 4.43286 21.198 4.43286 21.1089 4.43286C18.5259 4.43286 9.17368 8.75886 6.94696 11.6429C6.94696 11.6429 6.85789 11.8231 6.76882 11.9132C6.05627 12.9046 4.72025 17.0503 4.2749 19.0331C4.80932 16.9602 5.96721 13.6256 6.59069 12.5441C6.59069 12.5441 6.59069 12.5441 6.59069 12.454C6.59069 12.454 6.67975 12.2737 6.76882 12.1836C6.85789 12.0034 7.03603 11.8231 7.21417 11.6429H7.39231Z" fill="#23110C"/>
<defs>
<radialGradient id="paint0_radial_1737_400592" cx="0" cy="0" r="1" gradientUnits="userSpaceOnUse" gradientTransform="translate(16.3882 20.1147) scale(36.0729 36.5006)">
<stop stop-color="#8D96B3"/>
<stop offset="1" stop-color="#777387"/>
</radialGradient>
<radialGradient id="paint1_radial_1737_400592" cx="0" cy="0" r="1" gradientUnits="userSpaceOnUse" gradientTransform="translate(19.5057 1.27786) scale(35.0931 35.5092)">
<stop stop-color="#8D96B3"/>
<stop offset="1" stop-color="#777387"/>
</radialGradient>
<radialGradient id="paint2_radial_1737_400592" cx="0" cy="0" r="1" gradientUnits="userSpaceOnUse" gradientTransform="translate(22.8021 -1.33531) scale(20.6639 20.909)">
<stop stop-color="#8D96B3"/>
<stop offset="1" stop-color="#777387"/>
</radialGradient>
<radialGradient id="paint3_radial_1737_400592" cx="0" cy="0" r="1" gradientUnits="userSpaceOnUse" gradientTransform="translate(32.688 4.34203) scale(23.7814 24.0633)">
<stop stop-color="#8D96B3"/>
<stop offset="1" stop-color="#777387"/>
</radialGradient>
<radialGradient id="paint4_radial_1737_400592" cx="0" cy="0" r="1" gradientUnits="userSpaceOnUse" gradientTransform="translate(25.0286 14.9772) scale(20.9312 21.1794)">
<stop stop-color="#818CA3"/>
<stop offset="1" stop-color="#565373"/>
</radialGradient>
<radialGradient id="paint5_radial_1737_400592" cx="0" cy="0" r="1" gradientUnits="userSpaceOnUse" gradientTransform="translate(13.361 12.093) scale(43.9999 44.5217)">
<stop stop-color="#5F5D75"/>
<stop offset="1" stop-color="#373854"/>
</radialGradient>
<radialGradient id="paint6_radial_1737_400592" cx="0" cy="0" r="1" gradientUnits="userSpaceOnUse" gradientTransform="translate(22.5344 22.097) scale(22.7126 22.9819)">
<stop stop-color="#5F5D75"/>
<stop offset="1" stop-color="#373854"/>
</radialGradient>
<radialGradient id="paint7_radial_1737_400592" cx="0" cy="0" r="1" gradientUnits="userSpaceOnUse" gradientTransform="translate(19.9524 19.8434) scale(29.4818 29.8313)">
<stop stop-color="#5F5D75"/>
<stop offset="1" stop-color="#373854"/>
</radialGradient>
<radialGradient id="paint8_radial_1737_400592" cx="0" cy="0" r="1" gradientUnits="userSpaceOnUse" gradientTransform="translate(13.9838 21.3761) scale(33.8461 34.2475)">
<stop stop-color="#5F5D75"/>
<stop offset="1" stop-color="#373854"/>
</radialGradient>
<radialGradient id="paint9_radial_1737_400592" cx="0" cy="0" r="1" gradientUnits="userSpaceOnUse" gradientTransform="translate(16.7455 17.5904) scale(28.0567 28.3893)">
<stop stop-color="#818CA3"/>
<stop offset="1" stop-color="#565373"/>
</radialGradient>
<radialGradient id="paint10_radial_1737_400592" cx="0" cy="0" r="1" gradientUnits="userSpaceOnUse" gradientTransform="translate(21.198 21.7367) scale(57.6275 58.3108)">
<stop stop-color="#5F5D75"/>
<stop offset="1" stop-color="#373854"/>
</radialGradient>
<radialGradient id="paint11_radial_1737_400592" cx="0" cy="0" r="1" gradientUnits="userSpaceOnUse" gradientTransform="translate(28.1455 17.1398) scale(16.2996 16.4929)">
<stop stop-color="#5F5D75"/>
<stop offset="1" stop-color="#373854"/>
</radialGradient>
<radialGradient id="paint12_radial_1737_400592" cx="0" cy="0" r="1" gradientUnits="userSpaceOnUse" gradientTransform="translate(45.6918 37.4184) scale(22.9797 23.2522)">
<stop stop-color="#5F5D75"/>
<stop offset="1" stop-color="#373854"/>
</radialGradient>
<radialGradient id="paint13_radial_1737_400592" cx="0" cy="0" r="1" gradientUnits="userSpaceOnUse" gradientTransform="translate(19.5948 14.1661) scale(43.1093 43.6205)">
<stop stop-color="#5F5D75"/>
<stop offset="1" stop-color="#373854"/>
</radialGradient>
<radialGradient id="paint14_radial_1737_400592" cx="0" cy="0" r="1" gradientUnits="userSpaceOnUse" gradientTransform="translate(21.0199 12.1837) scale(9.26315 9.37299)">
<stop stop-color="#5F5D75"/>
<stop offset="1" stop-color="#373854"/>
</radialGradient>
<radialGradient id="paint15_radial_1737_400592" cx="0" cy="0" r="1" gradientUnits="userSpaceOnUse" gradientTransform="translate(27.7896 11.7325) scale(4.45344 4.50625)">
<stop stop-color="#5F5D75"/>
<stop offset="1" stop-color="#373854"/>
</radialGradient>
<radialGradient id="paint16_radial_1737_400592" cx="0" cy="0" r="1" gradientUnits="userSpaceOnUse" gradientTransform="translate(21.2873 31.83) scale(10.6882 10.815)">
<stop stop-color="#373854"/>
<stop offset="1" stop-color="#5F5D75"/>
</radialGradient>
<linearGradient id="paint17_linear_1737_400592" x1="15.4282" y1="0.090332" x2="15.4282" y2="28.1358" gradientUnits="userSpaceOnUse">
<stop stop-color="#A0DBF0"/>
<stop offset="1" stop-color="#00FFEA"/>
</linearGradient>
<radialGradient id="paint18_radial_1737_400592" cx="0" cy="0" r="1" gradientUnits="userSpaceOnUse" gradientTransform="translate(16.6559 4.52259) scale(48.8097 49.3884)">
<stop stop-color="#818CA3"/>
<stop offset="1" stop-color="#565373"/>
</radialGradient>
<linearGradient id="paint19_linear_1737_400592" x1="21.8611" y1="4.52319" x2="21.8611" y2="39.6752" gradientUnits="userSpaceOnUse">
<stop stop-color="#020D1A"/>
<stop offset="1" stop-color="#08151D"/>
</linearGradient>
<linearGradient id="paint20_linear_1737_400592" x1="21.8611" y1="4.52319" x2="21.8611" y2="39.6752" gradientUnits="userSpaceOnUse">
<stop offset="0.5" stop-color="white" stop-opacity="0"/>
<stop offset="0.776042" stop-color="white" stop-opacity="0.1"/>
</linearGradient>
</defs>
</svg>
