<svg width="114" height="114" viewBox="0 0 114 114" fill="none" xmlns="http://www.w3.org/2000/svg">
<path d="M109.681 77.9939C121.546 49.2175 107.943 16.2269 79.2983 4.30733C50.6534 -7.61224 17.8136 6.05291 5.9485 34.8293C-5.91659 63.6057 7.6861 96.5963 36.331 108.516C64.9759 120.435 97.8157 106.77 109.681 77.9939Z" fill="url(#paint0_linear_1331_18175)"/>
<path d="M57.8141 108.59C29.1692 108.59 5.86719 85.1807 5.86719 56.4042C5.86719 27.6277 29.1692 4.21875 57.8141 4.21875C86.4591 4.21875 109.761 27.6277 109.761 56.4042C109.761 85.1807 86.4591 108.59 57.8141 108.59Z" fill="url(#paint1_linear_1331_18175)"/>
<mask id="mask0_1331_18175" style="mask-type:luminance" maskUnits="userSpaceOnUse" x="1" y="0" width="113" height="113">
<path d="M109.681 77.9939C121.546 49.2175 107.943 16.2269 79.2983 4.30733C50.6534 -7.61224 17.8136 6.05291 5.9485 34.8293C-5.91659 63.6057 7.6861 96.5963 36.331 108.516C64.9759 120.435 97.8157 106.77 109.681 77.9939Z" fill="white"/>
</mask>
<g mask="url(#mask0_1331_18175)">
<path opacity="0.25" d="M53.2637 71.168C57.7119 71.3221 63.5023 71.5275 65.752 77.8581C67.9761 84.1245 64.7933 88.8627 60.2045 92.882C49.0712 102.628 35.3303 107.045 21.73 111.72C20.7458 112.066 18.5983 111.681 18.3555 111.078C17.5246 109.049 19.4548 108.086 20.8352 107.302C31.0738 101.473 41.7853 96.3875 50.196 87.8226C51.1291 86.8724 51.6915 85.5369 52.4201 84.3813C51.0907 84.163 49.7486 83.7007 48.4448 83.7649C37.2732 84.3813 26.9579 88.1693 16.7705 92.4582C14.9171 93.2415 12.3223 95.3089 10.8907 92.9205C9.66357 90.8659 12.1178 88.927 13.69 87.4631C24.5165 77.3444 37.1965 71.5275 53.2509 71.1808L53.2637 71.168Z" fill="#7A401C"/>
<path opacity="0.25" d="M76.2982 43.0762C69.268 43.0762 64.8709 43.1019 60.4738 43.0762C58.5693 43.0634 56.7286 42.6653 56.3324 40.4053C55.9745 38.3636 57.4189 37.285 59.0294 36.6044C74.841 29.9143 91.279 25.1375 107.857 20.8229C109.212 20.4762 110.478 19.7571 111.794 19.2307C113.929 18.3703 116.243 17.6769 117.687 20.1038C119.246 22.7234 117.457 24.4312 115.463 25.9336C114.491 26.6655 113.648 27.5516 112.74 28.3734C113.942 28.4248 115.156 28.4376 116.358 28.5275C118.646 28.7073 122.007 27.0893 122.774 30.2738C123.58 33.6125 119.873 33.728 117.776 34.4857C103.537 39.6734 89.3488 45.3105 76.2982 43.0891V43.0762Z" fill="#7A401C"/>
<path opacity="0.25" d="M116.624 42.9958C106.309 47.747 95.5594 50.9572 84.4133 52.832C83.5696 52.7934 82.7132 52.832 81.9079 53.2557C63.5399 54.9507 44.7756 52.8576 26.8933 59.2909C17.1277 62.8094 10.6087 69.615 6.3906 78.8477C5.54697 80.6967 4.95899 83.1237 7.02971 84.5619C9.4072 86.2183 10.8388 84.0611 12.1298 82.5073C16.1434 77.7048 21.1668 74.5074 26.9316 72.1319C46.1305 64.209 67.0806 63.079 86.599 56.4274C97.1316 53.795 107.332 50.2381 116.995 45.2173C117.673 44.8578 118.056 43.9204 118.58 43.2527C117.915 43.1499 117.123 42.7519 116.612 42.9958H116.624Z" fill="#7A401C"/>
<path opacity="0.25" d="M121.902 65.1843C119.218 61.9098 115.678 63.8103 112.725 65.5053C102.627 71.2837 92.6823 77.3189 82.5205 82.9689C74.4804 87.4504 67.6292 93.2416 61.7494 100.266C55.3455 106.814 48.1491 112.195 39.6745 115.803C38.9842 116.098 38.5496 117.023 38 117.652C39.0098 117.896 40.1474 118.577 41.0166 118.333C48.8777 116.137 55.665 112.041 61.5193 106.352C72.5375 97.325 84.7574 90.4937 98.2042 85.8196C106.027 83.0973 113.99 80.4393 119.512 73.6721C121.493 71.2452 124.574 68.4587 121.89 65.1843H121.902Z" fill="#7A401C"/>
<path opacity="0.25" d="M99.8166 10.9716C93.4255 14.8752 86.2291 15.8255 79.0966 16.994C78.8282 17.0068 78.5598 17.0197 78.3169 16.994C77.9079 16.9426 77.5756 17.1609 77.2177 17.315C59.4376 18.2395 41.9004 20.7435 25.1557 27.0356C15.8758 30.5283 7.69517 36.0756 0.779995 43.2922C-0.332058 44.4607 -1.66141 45.9374 -0.383187 47.6838C-0.140325 48.0048 1.64919 47.6837 2.26273 47.1444C24.1459 27.729 52.0623 25.7258 78.8027 20.384C86.3953 19.7291 93.4639 17.4434 99.9189 13.3857C100.66 12.9234 101.005 11.8191 101.542 11.023C100.954 10.9844 100.213 10.7019 99.8038 10.9459L99.8166 10.9716Z" fill="#7A401C"/>
</g>
<path d="M11.4258 32.9845C11.4258 32.9845 21.3448 4.52904 57.544 4.00257C93.7305 3.46325 105.886 36.8111 105.886 36.8111C105.886 36.8111 92.0944 5.68472 57.8125 6.24972C23.3516 6.81472 11.4258 32.9845 11.4258 32.9845Z" fill="#EBB273"/>
<path d="M98.9867 84.0781L80.6953 93.5547L96.0468 88.2386L105.621 85.9914L98.9867 84.0781Z" fill="#63350B"/>
<path d="M94.2956 90.1873L80.6953 93.5516L95.9828 88.2611L105.621 85.9883L94.2956 90.1873Z" fill="#EBB273"/>
<path d="M2.26172 47.1602L11.81 37.6837L18.0094 36.3867L2.26172 47.1602Z" fill="#63350B"/>
<path d="M17.5742 89.3672C17.5742 89.3672 26.5601 98.5998 33.5009 100.808C40.4416 103.017 44.9537 104.455 44.9537 104.455L49.7982 103.017L57.2886 106.664C57.2886 106.664 71.4001 108.025 86.5982 99.8197C86.5982 99.8197 77.4078 110.092 57.8254 110.092C38.2431 110.092 38.7927 106.998 38.7927 106.998L31.3023 102.799C31.3023 102.799 20.872 94.632 17.587 89.3672H17.5742Z" fill="#63350B"/>
<path d="M52.087 100.679C52.087 100.679 62.9519 95.5044 66.3392 87.5174C69.7265 79.5304 63.003 74.3555 63.003 74.3555C63.003 74.3555 70.2633 82.5736 60.7022 92.23C54.0938 98.9073 52.0742 100.679 52.0742 100.679H52.087Z" fill="#B57650"/>
<path d="M40.6328 67.8463C40.6328 67.8463 60.3686 61.6056 72.435 59.1787C84.5014 56.7518 109.312 49.5352 109.312 49.5352C109.312 49.5352 80.7051 60.1032 73.9305 61.49C67.1559 62.8769 40.6456 67.8463 40.6456 67.8463H40.6328Z" fill="#B57650"/>
<path opacity="0.48" d="M57.8138 11.4844C33.1185 11.4844 13.1016 31.5932 13.1016 56.4019C13.1016 81.2105 33.1185 101.319 57.8138 101.319C82.509 101.319 102.526 81.2105 102.526 56.4019C102.526 31.5932 82.509 11.4844 57.8138 11.4844ZM57.8138 94.8732C36.6592 94.8732 19.5182 77.6536 19.5182 56.4019C19.5182 35.1502 36.6592 17.9305 57.8138 17.9305C78.9683 17.9305 96.1093 35.1502 96.1093 56.4019C96.1093 77.6536 78.9683 94.8732 57.8138 94.8732Z" fill="url(#paint2_linear_1331_18175)"/>
<path d="M56.7038 17.9331C56.7038 17.9331 84.3517 15.1595 94.5775 45.5924C94.5775 45.5924 91.5481 35.6536 82.4344 27.9619C82.1788 27.7436 76.9636 29.2331 76.6952 29.0277C76.3756 28.7708 81.0028 26.819 80.6705 26.5622C77.6539 24.315 74.0621 22.3504 69.7928 21.0021C69.5116 20.9122 56.5504 23.1337 56.2564 23.0438C55.9752 22.9668 68.3868 20.5783 68.0928 20.5013C64.8077 19.6281 61.1392 19.1273 57.0745 19.1273C46.4652 19.1273 38.6809 23.1594 33.0695 28.2829C32.9033 28.437 36.6357 27.4097 36.4696 27.5638C36.2778 27.7436 32.2003 29.1047 32.0086 29.2845C23.0482 38.119 20.1211 49.5218 20.1211 49.5218C20.1211 49.5218 24.6843 19.7308 56.691 17.9203L56.7038 17.9331Z" fill="#EBB273"/>
<path d="M59.3073 95.9268C59.3073 95.9268 31.6594 98.7005 21.4336 68.2675C21.4336 68.2675 22.3795 72.1583 26.0608 77.4359C26.1119 77.5001 30.6751 76.2931 30.7263 76.3573C30.7646 76.4215 26.6999 78.3733 26.751 78.4247C30.4834 83.6766 36.5038 89.6219 45.6815 92.6652C45.8093 92.7038 48.2507 90.6877 48.3785 90.7263C48.5319 90.7776 46.3845 92.8964 46.5379 92.9349C50.168 94.0392 54.2839 94.7069 58.9366 94.7069C88.0673 94.7069 95.89 64.3125 95.89 64.3125C95.89 64.3125 91.3268 94.1034 59.3201 95.914L59.3073 95.9268Z" fill="#542909"/>
<path d="M64.5886 98.0796C87.6185 94.3242 103.258 72.5246 99.5192 49.3889C95.7809 26.2531 74.081 10.5423 51.051 14.2978C28.021 18.0533 12.382 39.8529 16.1203 62.9886C19.8586 86.1243 41.5586 101.835 64.5886 98.0796Z" fill="url(#paint3_linear_1331_18175)"/>
<path opacity="0.2" d="M94.4737 35.2943C87.3029 41.4836 73.1274 45.7082 58.4406 45.7082C43.7539 45.7082 28.5175 41.4579 21.6406 34.3826C28.9648 22.158 42.5651 13.7344 57.8143 13.7344C73.0635 13.7344 87.2773 22.5689 94.4737 35.2943Z" fill="url(#paint4_linear_1331_18175)"/>
<path opacity="0.2" d="M57.7981 68.9492C43.6738 68.9492 29.2554 73.9957 22.7109 79.7998C30.3164 91.4337 43.2775 98.6246 57.8237 98.6246C72.3699 98.6246 85.4333 91.3052 92.9748 79.7484C86.1491 74.3424 71.9353 68.9492 57.8109 68.9492H57.7981Z" fill="url(#paint5_linear_1331_18175)"/>
<path d="M84.1953 68.8993L87.3653 68.1417L92.0692 65.8047L84.1953 68.8993Z" fill="#FBDCA3"/>
<path d="M87.2375 67.23L84.1953 68.8993L92.0692 65.8047L87.2375 67.23Z" fill="#8F5A1B"/>
<path d="M22.6484 44.3594L27.9275 48.5327L37.1435 51.7814L22.6484 44.3594Z" fill="#FBF7D8"/>
<path d="M28.8095 46.0929L22.6484 44.3594L37.1435 51.7814L28.8095 46.0929Z" fill="#8F5A1B"/>
<path d="M47.7026 82.3815L43.2544 81.5469L39.3047 84.7314L47.7026 82.3815Z" fill="#8F5A1B"/>
<path d="M45.389 84.6942L47.7026 82.3828L39.3047 84.7327L45.389 84.6942Z" fill="#FBECD0"/>
<defs>
<linearGradient id="paint0_linear_1331_18175" x1="57.818" y1="112.8" x2="57.818" y2="0.00528408" gradientUnits="userSpaceOnUse">
<stop stop-color="#77421F"/>
<stop offset="0.25" stop-color="#7A4420"/>
<stop offset="0.44" stop-color="#834C24"/>
<stop offset="0.61" stop-color="#945A2A"/>
<stop offset="0.77" stop-color="#AB6D33"/>
<stop offset="0.92" stop-color="#C9853F"/>
<stop offset="1" stop-color="#DB9446"/>
</linearGradient>
<linearGradient id="paint1_linear_1331_18175" x1="57.8141" y1="108.59" x2="57.8141" y2="4.21875" gradientUnits="userSpaceOnUse">
<stop stop-color="#99572F"/>
<stop offset="0.23" stop-color="#A05F34"/>
<stop offset="0.6" stop-color="#B57844"/>
<stop offset="1" stop-color="#D1995A"/>
</linearGradient>
<linearGradient id="paint2_linear_1331_18175" x1="57.8138" y1="101.319" x2="57.8138" y2="11.4844" gradientUnits="userSpaceOnUse">
<stop stop-color="#4D2D09"/>
<stop offset="0.28" stop-color="#3C1E03"/>
<stop offset="0.59" stop-color="#331500"/>
<stop offset="1" stop-color="#301300"/>
</linearGradient>
<linearGradient id="paint3_linear_1331_18175" x1="15.5695" y1="56.1858" x2="100.073" y2="56.1858" gradientUnits="userSpaceOnUse">
<stop stop-color="#FFE1A5"/>
<stop offset="0.51" stop-color="#E7AC4F"/>
<stop offset="0.77" stop-color="#E7AC50"/>
<stop offset="0.86" stop-color="#E9AE57"/>
<stop offset="0.93" stop-color="#EDB263"/>
<stop offset="0.98" stop-color="#F2B774"/>
<stop offset="1" stop-color="#F5BA7B"/>
</linearGradient>
<linearGradient id="paint4_linear_1331_18175" x1="58.0572" y1="45.7082" x2="58.0572" y2="13.7344" gradientUnits="userSpaceOnUse">
<stop stop-color="white"/>
<stop offset="0.14" stop-color="#FBEED9"/>
<stop offset="0.35" stop-color="#F7D8A6"/>
<stop offset="0.55" stop-color="#F4C67E"/>
<stop offset="0.73" stop-color="#F1BA61"/>
<stop offset="0.89" stop-color="#F0B250"/>
<stop offset="1" stop-color="#F0B04A"/>
</linearGradient>
<linearGradient id="paint5_linear_1331_18175" x1="57.8365" y1="94.798" x2="57.8365" y2="69.5399" gradientUnits="userSpaceOnUse">
<stop stop-color="#4F3B18"/>
<stop offset="0.18" stop-color="#6F4B20"/>
<stop offset="0.43" stop-color="#975E2B"/>
<stop offset="0.66" stop-color="#B46C32"/>
<stop offset="0.85" stop-color="#C57437"/>
<stop offset="1" stop-color="#CC7839"/>
</linearGradient>
</defs>
</svg>
