<svg width="329" height="64" viewBox="0 0 329 64" fill="none" xmlns="http://www.w3.org/2000/svg">
<g clip-path="url(#clip0_174_7461)">
<path fill-rule="evenodd" clip-rule="evenodd" d="M6.48405 2.15945C19.6372 1.79956 31.5291 0.479972 44.8624 0.00012207C53.8714 0.180066 65.8234 0.719897 77.1748 0.300028C97.9555 0.779878 119.457 0.83986 125.103 0.719897C147.265 1.43967 170.328 2.27941 193.811 2.9392C194.772 3.11915 196.995 4.73864 197.415 5.75832C198.136 8.93733 198.856 11.6365 199.337 14.3956C199.457 16.315 199.938 22.1332 199.938 26.032C199.277 37.8483 198.376 49.1847 197.895 57.882C197.355 58.8417 193.151 60.9411 190.688 61.6609C166.904 62.5606 142.4 63.0404 116.214 64.0001C92.7303 62.8605 63.1808 61.6609 39.457 61.9608C26.9645 61.241 15.5531 60.8811 5.40297 60.9411C4.26182 60.4612 2.3399 58.6618 1.97954 57.942C0.898461 46.1857 0.417981 35.2691 -0.0625 23.5128C0.35792 16.5549 1.61918 11.6365 1.97954 5.87829C2.46002 4.97857 5.34291 2.57932 6.48405 2.15945Z" fill="url(#paint0_radial_174_7461)"/>
<path fill-rule="evenodd" clip-rule="evenodd" d="M4.38438 22.2534C5.10511 18.1746 6.54655 14.5158 7.56757 9.59732L1.98198 5.87848C1.56156 11.6367 0.36036 16.4952 0 23.513L4.38438 22.2534Z" fill="url(#paint1_radial_174_7461)"/>
<path fill-rule="evenodd" clip-rule="evenodd" d="M1.98047 5.87869L7.56605 9.53755C7.56605 9.53755 9.12762 8.03801 9.3078 7.91805L6.48497 2.15985C5.40389 2.57972 2.46095 4.97897 1.98047 5.87869Z" fill="url(#paint2_radial_174_7461)"/>
<path fill-rule="evenodd" clip-rule="evenodd" d="M6.48438 2.15943L9.3072 7.91763C21.5595 7.49776 36.9348 5.75831 48.2261 4.67864L44.8628 -0.0598755C31.5294 0.539937 19.6375 1.79954 6.48438 2.15943Z" fill="url(#paint3_radial_174_7461)"/>
<path fill-rule="evenodd" clip-rule="evenodd" d="M39.8192 61.961L43.2426 56.9225C33.3928 56.3227 18.0775 54.7632 8.16755 54.6432L5.46484 60.9413C15.615 60.8813 27.0264 61.2412 39.5189 61.961C39.639 61.961 39.6991 61.961 39.8192 61.961Z" fill="url(#paint4_radial_174_7461)"/>
<path fill-rule="evenodd" clip-rule="evenodd" d="M5.46639 60.9408L8.1691 54.6427C7.62855 54.5828 6.84777 54.1629 6.66759 53.863L2.04297 58.0017C2.46339 58.7215 4.38531 60.5209 5.46639 61.0007V60.9408Z" fill="url(#paint5_radial_174_7461)"/>
<path fill-rule="evenodd" clip-rule="evenodd" d="M2.04204 57.9423L6.66667 53.8036C5.76577 43.3069 4.80481 32.7502 4.38438 22.2535L0 23.5131C0.48048 35.2694 0.960961 46.186 2.04204 57.9423Z" fill="url(#paint6_radial_174_7461)"/>
<path fill-rule="evenodd" clip-rule="evenodd" d="M35.491 17.2147C37.9535 15.5952 40.4159 13.9157 42.8183 11.8763C43.8994 10.1369 45.0405 8.39741 46.1216 6.59798C46.6622 5.75824 46.8423 5.21841 46.3018 4.85852C35.2508 5.93818 20.8363 7.4977 9.24474 7.91756C9.06456 8.03753 7.68318 9.4171 7.503 9.53706C6.6021 14.1556 5.28078 17.6345 4.5 21.3534C4.62012 21.5333 4.74024 21.6533 4.86036 21.7133C5.94144 22.1931 26.542 18.2943 31.527 17.5146C32.548 17.3346 34.5901 17.3946 35.4309 17.2147H35.491Z" fill="url(#paint7_radial_174_7461)"/>
<path fill-rule="evenodd" clip-rule="evenodd" d="M97.9564 40.1881C86.0645 34.5498 54.3528 22.1937 39.2177 18.8348C34.1726 17.6951 33.2116 18.2349 28.1666 18.9547C19.1576 20.2743 5.82425 22.1337 4.74317 22.5536C4.62305 22.5536 4.50293 22.6736 4.38281 22.7935C4.80323 33.1103 5.76419 43.487 6.6651 53.8038C6.90534 54.1037 7.68612 54.5236 8.1666 54.5836C10.4489 54.5836 12.9714 54.7035 15.6741 54.8835C24.8032 55.3633 35.614 56.443 43.2417 56.8629C55.8543 56.6829 68.527 56.323 77.536 56.503C80.8993 56.503 86.3648 56.9229 92.4309 57.3427C99.0975 57.7026 105.764 58.5423 112.491 58.7223C113.872 58.7223 115.013 58.6023 115.194 58.4824C115.494 58.2424 114.353 55.9632 113.152 53.7438C109.308 50.3249 105.644 46.846 101.98 43.2471C100.299 41.5676 100.119 41.1478 97.9564 40.1281V40.1881Z" fill="url(#paint8_radial_174_7461)"/>
<path opacity="0.75" fill-rule="evenodd" clip-rule="evenodd" d="M7.26287 3.83898C20.0557 3.35913 33.3289 3.59906 46.0016 1.61968L77.7734 2.15951C93.6893 1.43973 109.245 2.15951 124.62 2.5194C139.095 2.93926 181.077 1.8596 192.848 4.79868C193.509 4.79868 195.551 5.75838 195.731 7.01799C198.314 10.3769 198.854 14.0958 199.635 18.2345C199.515 16.555 199.395 15.1754 199.335 14.3957C198.794 11.6365 198.134 8.93739 197.413 5.75838C196.993 4.7387 194.77 3.11921 193.809 2.93926C170.266 2.21949 147.203 1.43973 125.101 0.719958C119.455 0.839921 97.9536 0.779939 77.1728 0.300089C65.8214 0.719958 53.8695 0.120146 44.8605 0.000183105C31.5271 0.540014 19.6352 1.79962 6.48209 2.15951C5.40101 2.57938 2.45806 4.97863 1.97758 5.87835C1.61722 10.8568 0.656262 15.1754 0.175781 20.8137C1.67728 16.0752 3.47908 11.5166 3.05866 6.59812C4.74035 5.93833 5.94155 5.15857 7.32293 3.83898H7.26287Z" fill="url(#paint9_linear_174_7461)"/>
<path fill-rule="evenodd" clip-rule="evenodd" d="M170.745 57.4021C175.43 57.3421 180.114 57.2222 184.799 57.1022C186.841 57.1022 188.823 56.9823 190.865 57.1022C191.045 57.1022 191.165 57.3421 191.165 57.5221C191.165 58.5418 191.045 59.6214 190.925 60.6411C191.165 59.5015 191.285 58.3018 191.646 57.1622C191.826 56.6823 193.748 55.8426 194.288 56.0825C195.37 56.5024 196.391 57.1622 197.412 57.642C196.691 57.0422 195.97 56.5024 195.249 55.9026C194.288 55.1828 194.409 55.1228 194.469 53.8632C194.589 51.9438 194.709 50.0244 194.829 48.045C194.829 41.2072 195.069 35.0291 195.61 28.2512C195.61 27.5914 195.61 26.6917 195.97 26.3918C196.09 26.2718 199.033 26.0919 199.394 26.0319C199.093 26.0319 195.97 25.792 195.91 25.732C195.43 25.0722 195.069 22.733 194.709 21.6533C194.409 20.3937 194.168 19.1341 193.868 17.8745C193.688 17.0947 193.568 16.255 193.748 16.0151C193.808 15.9551 194.228 15.6552 194.769 15.5352C195.61 15.2953 196.451 15.0554 197.291 14.8154C196.09 15.0554 195.189 15.2953 193.988 15.2353C192.907 15.2353 193.087 14.6955 193.027 13.6158C192.967 12.956 192.607 12.2362 192.547 11.5165C192.427 10.4968 192.246 10.1369 193.027 9.41711C194.228 8.33745 195.37 7.31777 196.571 6.23811C195.43 7.07784 194.228 7.91758 193.087 8.75732C191.826 9.65704 191.285 8.63736 191.886 7.25779C192.427 5.99818 192.907 4.67859 193.448 3.41899L191.406 7.07784C190.565 8.51739 190.204 8.21749 188.523 8.15751C177.772 7.8576 167.141 7.13783 156.451 6.23811C152.006 6.11814 125.58 5.6383 124.439 4.73858C124.018 4.43867 124.559 2.99912 124.859 1.01974C123.598 4.49865 124.258 4.67859 120.294 5.39837C116.871 5.63829 111.225 6.41805 108.042 6.05816C107.261 5.9382 107.081 5.9382 107.081 5.15844C107.081 4.31871 107.021 3.47897 106.961 2.57925C106.841 3.53895 106.721 4.37869 106.661 5.33839C106.601 5.99818 106.12 5.75826 105.46 5.63829C102.336 5.21843 99.2134 4.91852 96.0902 4.73858C90.5647 4.79856 85.9401 5.33839 80.4146 5.69828C78.1923 5.69828 78.1323 3.65891 77.2914 0.839795C77.4116 1.61955 77.892 4.31871 77.6518 4.85854C77.4116 5.27841 76.871 5.21843 75.7899 5.09846C73.2074 4.85854 70.5647 4.55863 67.9821 4.31871C63.6578 4.13876 59.4536 4.07878 55.1293 4.07878C52.9071 4.07878 49.5437 4.49865 47.862 3.89884C47.7419 3.89884 45.5197 1.01974 45.2194 0.659851C45.5197 1.25966 46.6608 3.17906 46.4806 3.71889C46.3004 4.31871 45.2794 4.25873 44.3785 4.31871C41.9761 4.49865 39.7539 4.6786 37.3515 4.73858C28.4025 5.87822 20.1143 6.598 11.1653 7.19781C9.90405 7.25779 9.60374 7.61768 9.00314 6.59799C8.22236 5.27841 7.44158 3.95882 6.60074 2.69921C7.2614 4.49865 7.862 5.9382 8.34248 7.79762C8.4626 8.15751 7.20134 8.8173 6.72086 8.57738C5.09924 7.73764 3.77792 7.13783 2.21636 6.23811C3.29744 7.07784 4.01816 7.8576 5.09924 8.75732C6.6608 10.0169 6.48062 9.53708 6.00014 11.5165C5.21936 14.6355 4.49864 17.6945 3.71786 20.8136C3.41756 22.0732 3.3575 22.0732 2.1563 22.553C1.43558 22.8529 0.955096 23.2128 0.234375 23.5127C1.01516 23.3328 1.73588 23.2128 2.51666 23.0329C3.29744 22.8529 3.83798 22.673 3.83798 23.5727C3.83798 24.8923 3.83798 26.1519 3.89804 27.4715C4.2584 32.09 4.61876 36.7086 4.97912 41.3871C5.33948 45.2259 5.63978 49.0647 6.00014 52.9035C6.00014 53.2034 6.00014 53.5033 5.81996 53.8032C5.4596 54.643 3.47762 56.5024 2.7569 57.2822C3.9581 56.3824 5.1593 55.5427 6.3605 54.643C6.42056 54.523 7.44158 54.8229 7.5617 55.1828C7.32146 56.0225 7.02116 56.8023 6.78092 57.642C7.20134 56.8623 7.68182 56.0825 8.10224 55.3028C8.28242 55.1828 8.4626 55.0628 8.7629 55.0029C10.0242 55.0029 11.2254 55.0029 12.4866 55.0029C13.5076 55.0029 14.5287 55.0029 15.5497 55.0029C12.847 54.8829 10.2644 54.7629 8.04218 54.703C7.50164 54.643 6.72086 54.2231 6.54068 53.9232C5.63978 43.6664 4.73888 33.2297 4.2584 22.9129C4.37852 22.7929 4.43858 22.733 4.61876 22.673C5.7599 22.2531 19.0932 20.3937 28.0422 19.0741C33.0272 18.3543 34.0482 17.8145 39.0932 18.9541C54.2284 22.3131 85.9401 34.6692 97.832 40.3075C99.9941 41.3271 100.174 41.747 101.856 43.4265C105.52 47.0853 109.243 50.5643 113.027 53.9232C114.228 56.0825 115.37 58.4218 115.069 58.6617C114.889 58.7817 113.748 58.9616 112.367 58.9016C105.64 58.7217 98.9731 57.9419 92.3064 57.5221C99.3335 58.4218 106.421 58.8417 113.868 59.7414C114.769 59.8613 115.309 59.9213 115.61 60.1613C115.85 60.3412 116.09 61.8407 116.15 63.3403C116.391 61.3009 116.391 60.1013 116.751 59.9213C116.931 59.9213 117.772 59.8614 118.613 59.8014C124.198 59.6814 129.844 59.3815 135.43 58.7817C145.219 57.1022 154.769 55.1228 163.718 52.4237C167.201 50.5043 170.745 48.7048 174.409 47.0853C177.712 45.6458 181.075 48.7648 184.258 50.5643C182.637 49.2447 181.135 48.165 179.514 47.0853C177.652 45.8257 176.571 45.7658 178.493 44.0863C183.057 40.1275 186.781 37.1884 191.706 33.7095C192.066 32.5699 194.409 27.9513 194.769 28.1313C194.829 28.1313 194.949 28.3112 195.069 28.6711C194.469 37.3084 194.409 46.8454 193.868 55.6627C193.027 56.0825 192.066 56.5024 191.345 56.8023C184.499 57.0422 177.532 57.3421 170.505 57.5821L170.745 57.4021ZM135.61 58.7817C129.844 58.7817 124.018 59.5614 118.252 58.7817C117.351 58.6617 116.871 58.4818 116.571 58.1219C115.61 57.1622 114.589 54.8829 113.928 53.6233C109.063 49.6045 104.979 45.7058 101.496 41.807C101.075 40.4874 101.075 40.1275 102.096 38.8079C109.664 28.4911 123.237 18.7742 134.889 13.3159C138.793 11.4565 143.057 9.89696 146.841 8.63736C147.922 7.79762 148.342 7.37775 148.883 7.13783C150.084 6.598 151.345 6.83792 152.607 6.8979C165.7 7.49771 179.033 8.09753 191.105 8.8173C191.526 9.11721 191.886 9.41711 192.246 9.83698C192.487 11.6964 192.547 13.5558 192.907 15.4152C193.688 18.4143 194.649 22.3731 195.189 24.7123C195.43 25.792 195.43 26.1519 194.649 27.7114C193.688 29.5708 192.667 31.4302 191.406 32.9298C186.361 37.2484 181.135 41.3271 175.85 45.1659C172.066 47.7451 167.922 49.7845 163.538 51.464C154.649 54.703 145.219 56.8623 135.67 58.7817H135.61ZM99.4536 40.0675C80.3545 30.7704 59.9941 23.7526 38.3725 18.1144C37.1713 17.8145 36.6308 17.4546 36.6308 17.3346C36.6308 17.1547 37.1713 16.6748 38.1323 15.9551C39.874 14.6355 41.6758 13.3759 43.5377 12.1763C44.5587 9.83698 46.5407 6.11814 48.2824 4.67859C57.7719 4.61861 69.2434 4.67859 78.6128 6.17813C88.7629 5.27841 97.2914 5.21843 106.901 6.53801C113.027 6.11814 118.072 6.05816 123.778 5.21843C130.925 5.69828 138.553 6.11814 146.361 6.47803C147.261 6.47803 148.282 6.53801 147.021 7.43773C145.159 8.69734 139.754 10.5568 134.709 12.956C129.664 15.3553 125.159 18.1144 123.598 18.8342C122.697 19.254 122.757 18.9541 122.757 18.1744C122.697 15.1753 122.757 11.5764 122.997 8.09753C122.577 9.777 122.156 14.8754 122.336 18.4743C122.336 19.314 122.517 19.5539 121.195 20.4537C113.327 25.732 106.541 31.6102 101.376 38.628C100.535 39.8276 100.415 40.0675 99.5136 40.0076L99.4536 40.0675ZM4.5587 21.4134C5.33948 17.6345 6.6608 14.2156 7.5617 9.59706C7.74188 9.41711 9.12326 8.09753 9.30344 7.97756C20.895 7.55769 35.3095 5.99818 46.3605 4.91852C46.901 5.27841 46.7209 5.81824 46.1803 6.65798C45.0992 8.39743 43.9581 10.1369 42.877 11.9363C40.5347 13.9757 38.0722 15.7151 35.5497 17.2747C34.7089 17.4546 32.6668 17.4546 31.6458 17.5746C26.6608 18.4143 6.00014 22.3131 4.97912 21.7733C4.859 21.7133 4.73888 21.5933 4.61876 21.4134H4.5587Z" fill="url(#paint10_radial_174_7461)"/>
<g style="mix-blend-mode:screen" opacity="0.5">
<path fill-rule="evenodd" clip-rule="evenodd" d="M22.5201 25.9124C20.8384 26.3323 19.1567 27.052 17.8954 28.2517C16.454 29.6912 14.5321 34.1898 15.6132 36.1692C16.2138 37.2488 17.475 38.2085 18.7363 38.3285C20.6582 38.4485 22.7603 37.8487 24.3219 36.709C25.8234 35.5694 26.6041 33.9499 27.7453 32.4503C28.466 31.4906 29.3669 30.5909 29.9675 29.5113C30.9885 27.7118 29.3068 25.9124 28.0456 25.6725C25.9435 25.3126 24.6222 25.3726 22.5201 25.8524V25.9124Z" fill="#373FA5"/>
</g>
<path fill-rule="evenodd" clip-rule="evenodd" d="M22.1607 25.552C20.479 25.9719 18.7973 26.6917 17.5361 27.8913C16.0946 29.3309 14.1727 33.8294 15.2538 35.8088C15.8544 36.8885 17.1156 37.8482 18.3769 37.9682C20.2988 38.0881 22.4009 37.4883 23.9625 36.3487C25.464 35.209 26.2448 33.5895 27.3859 32.09C28.1066 31.1303 29.0075 30.2306 29.6081 29.1509C30.6292 27.3515 28.9475 25.552 27.6862 25.3121C25.5841 24.9522 24.2628 25.0122 22.1607 25.4921V25.552Z" fill="url(#paint11_radial_174_7461)"/>
</g>
<g clip-path="url(#clip1_174_7461)">
<path fill-rule="evenodd" clip-rule="evenodd" d="M-2.36776 2.15914C21.1035 1.79925 42.3241 0.479667 66.1169 -0.000183105C82.1931 0.179761 103.521 0.719592 123.777 0.299723C160.859 0.779573 199.228 0.839554 209.302 0.719592C248.85 1.43937 290.005 2.2791 331.91 2.9389C333.625 3.11884 337.591 4.73834 338.341 5.75802C339.627 8.93702 340.913 11.6362 341.77 14.3953C341.985 16.3147 342.842 22.1329 342.842 26.0317C341.663 37.848 340.056 49.1844 339.198 57.8817C338.234 58.8414 330.731 60.9408 326.337 61.6605C283.896 62.5603 240.169 63.0401 193.441 63.9998C151.535 62.8602 98.8052 61.6605 56.4712 61.9605C34.1788 61.2407 13.8156 60.8808 -4.2969 60.9408C-6.33322 60.4609 -9.76281 58.6615 -10.4059 57.9417C-12.335 46.1854 -13.1924 35.2688 -14.0498 23.5125C-13.2996 16.5546 -11.0489 11.6362 -10.4059 5.87798C-9.54847 4.97826 -4.40408 2.57901 -2.36776 2.15914Z" fill="url(#paint12_radial_174_7461)"/>
<path fill-rule="evenodd" clip-rule="evenodd" d="M-2.36914 2.15925L2.66807 7.91745C24.5317 7.49758 51.9685 5.75812 72.1173 4.67846L66.1155 -0.0600586C42.3227 0.539754 21.1021 1.79936 -2.36914 2.15925Z" fill="url(#paint13_radial_174_7461)"/>
<path fill-rule="evenodd" clip-rule="evenodd" d="M66.1152 0L72.117 4.73852C89.0506 4.67854 109.628 4.73852 126.455 6.23805L124.097 0.359888C124.097 0.359888 123.882 0.359888 123.775 0.359888C103.519 0.779756 82.1914 0.179944 66.1152 0.0599813V0Z" fill="url(#paint14_radial_174_7461)"/>
<path fill-rule="evenodd" clip-rule="evenodd" d="M124.101 0.360274L126.458 6.23844C144.571 5.33872 159.79 5.27874 176.938 6.59833C187.87 6.17846 196.872 6.11847 207.054 5.27874L209.305 0.720162C199.23 0.840124 161.076 0.780143 124.101 0.300293V0.360274Z" fill="url(#paint15_radial_174_7461)"/>
<path fill-rule="evenodd" clip-rule="evenodd" d="M209.303 0.719238L207.053 5.27781C244.564 6.65738 289.256 7.5571 327.088 8.75673L332.018 2.99853C290.006 2.27875 248.851 1.49899 209.411 0.77922L209.303 0.719238Z" fill="url(#paint16_radial_174_7461)"/>
<path fill-rule="evenodd" clip-rule="evenodd" d="M327.944 56.6225C284.324 57.5222 237.167 58.6019 193.547 59.5016V64.0002C240.489 63.0405 284.11 62.5606 326.658 61.6609L328.051 56.5625L327.944 56.6225Z" fill="url(#paint17_radial_174_7461)"/>
<path fill-rule="evenodd" clip-rule="evenodd" d="M193.442 59.5008C174.686 58.4811 138.568 56.6817 124.421 56.5617C108.345 56.3818 85.7309 56.7417 63.2242 56.9216L57.1152 61.96C99.3421 61.6601 151.858 62.9197 193.549 63.9994V59.5008H193.442Z" fill="url(#paint18_radial_174_7461)"/>
<path fill-rule="evenodd" clip-rule="evenodd" d="M57.1135 61.9608L63.2225 56.9224C45.6458 56.3225 18.3163 54.763 0.632434 54.6431L-4.19043 60.9411C13.9221 60.8811 34.2853 61.241 56.5777 61.9608C56.792 61.9608 56.8992 61.9608 57.1135 61.9608Z" fill="url(#paint19_radial_174_7461)"/>
<path fill-rule="evenodd" clip-rule="evenodd" d="M49.3998 17.2145C53.794 15.595 58.1882 13.9156 62.4752 11.8762C64.4043 10.1367 66.4406 8.39729 68.3698 6.59785C69.3343 5.75812 69.6559 5.21829 68.6913 4.8584C48.9711 5.93806 23.2492 7.49757 2.56446 7.91744C2.24294 8.03741 -0.222082 9.41697 -0.543606 9.53694C-2.15123 14.1555 -4.50907 17.6344 -5.90234 21.3532C-5.68799 21.5332 -5.47364 21.6531 -5.2593 21.7131C-3.33015 22.193 33.4308 18.2942 42.3263 17.5144C44.1483 17.3345 47.7922 17.3945 49.2927 17.2145H49.3998Z" fill="url(#paint20_radial_174_7461)"/>
<path fill-rule="evenodd" clip-rule="evenodd" d="M63.7577 12.1765C60.5425 13.3762 57.3272 14.6358 54.112 15.9554C52.3972 16.6751 51.4326 17.215 51.4326 17.3349C51.4326 17.4549 52.3972 17.8148 54.5407 18.1147C93.1236 23.7529 129.456 30.7707 163.537 40.0678C165.252 40.1278 165.359 39.8879 166.86 38.6882C176.077 31.6704 188.188 25.7923 202.227 20.5139C204.585 19.6142 204.264 19.3743 204.264 18.5345C204.049 14.9357 204.693 9.89724 205.443 8.15779C204.907 11.6367 204.907 15.2356 205.014 18.2346C205.014 19.0144 205.014 19.3143 206.514 18.8944C209.301 18.1747 217.339 15.3555 226.342 13.0163C235.344 10.617 245.097 8.7576 248.313 7.49799C250.456 6.71824 249.063 6.59827 247.67 6.53829C233.63 6.11842 219.804 5.75854 206.943 5.21871C196.869 6.11842 187.759 6.17841 176.827 6.53829C159.679 5.15872 144.46 5.21871 126.348 6.17841C109.629 4.67887 89.1581 4.55891 72.2245 4.67887C69.1165 6.05844 65.5797 9.83726 63.7577 12.1765Z" fill="url(#paint21_radial_174_7461)"/>
<path fill-rule="evenodd" clip-rule="evenodd" d="M160.86 40.1879C139.639 34.5497 83.0512 22.1935 56.0432 18.8346C47.0405 17.6949 45.3257 18.2348 36.323 18.9545C20.2468 20.2741 -3.54597 22.1335 -5.47512 22.5534C-5.68947 22.5534 -5.90381 22.6734 -6.11816 22.7933C-5.36794 33.1101 -3.65314 43.4869 -2.04552 53.8036C-1.61682 54.1035 -0.223553 54.5234 0.633845 54.5834C4.70649 54.5834 9.20782 54.7034 14.0307 54.8833C30.3212 55.3632 49.6127 56.4428 63.2239 56.8627C85.7306 56.6827 108.344 56.3229 124.421 56.5028C130.422 56.5028 140.175 56.9227 151 57.3425C162.896 57.7024 174.793 58.5422 186.796 58.7221C189.261 58.7221 191.298 58.6021 191.619 58.4822C192.155 58.2423 190.119 55.963 187.975 53.7437C181.116 50.3247 174.578 46.8458 168.041 43.2469C165.04 41.5675 164.718 41.1476 160.86 40.1279V40.1879Z" fill="url(#paint22_radial_174_7461)"/>
<path fill-rule="evenodd" clip-rule="evenodd" d="M226.77 13.3155C205.978 18.8338 181.65 28.4908 168.253 38.8075C166.431 40.1871 166.538 40.547 167.181 41.8066C173.397 45.7054 180.792 49.6641 189.366 53.6229C190.545 54.8825 192.367 57.1018 194.082 58.1215C194.725 58.4814 195.475 58.6613 197.083 58.7813C207.265 59.5011 217.66 58.7813 228.056 58.7813C245.097 56.8619 261.924 54.7026 277.786 51.4636C285.716 49.7841 293.004 47.7447 299.756 45.1655C309.295 41.2668 318.619 37.248 327.515 32.9294C329.765 31.4298 331.587 29.5704 333.302 27.711C334.374 26.5114 334.695 25.9715 334.481 25.3118C334.481 25.1318 334.374 24.8919 334.267 24.7119C333.195 22.3127 331.48 18.3539 330.194 15.4148C329.551 13.6154 329.337 11.756 329.015 9.83659C328.372 9.41672 327.729 9.05683 326.979 8.81691C305.437 8.09713 281.644 7.5573 258.28 6.89751C257.208 6.89751 256.029 6.89751 254.957 6.83752C253.886 6.83752 252.707 6.89751 251.635 7.19741C250.563 7.43734 249.92 7.85721 247.991 8.69694C241.239 10.0165 233.63 11.576 226.663 13.3755L226.77 13.3155Z" fill="url(#paint23_radial_174_7461)"/>
<path fill-rule="evenodd" clip-rule="evenodd" d="M297.619 47.025C291.081 48.6445 284.758 50.5039 278.542 52.3633C262.68 55.0625 245.639 57.0419 228.062 58.7213C248.854 58.3015 269.968 57.8216 290.76 57.3418C303.299 57.0419 315.839 56.8019 327.949 56.562C329.235 56.2621 330.95 55.8422 332.451 55.4224C333.308 46.6651 333.522 37.1281 334.594 28.4308C334.38 28.1309 334.166 27.9509 334.058 27.891C333.415 27.771 329.235 32.3896 328.592 33.4692C319.804 36.9481 313.159 39.8872 305.014 43.846C301.584 45.5255 303.514 45.5854 306.836 46.845C309.73 47.9847 312.409 49.0644 315.303 50.324C309.622 48.5245 303.621 45.4055 297.726 46.845L297.619 47.025Z" fill="url(#paint24_radial_174_7461)"/>
<path opacity="0.75" fill-rule="evenodd" clip-rule="evenodd" d="M-0.971543 3.8388C21.8567 3.35895 45.5423 3.59888 68.1562 1.61949L124.852 2.15933C153.253 1.43955 181.011 2.15933 208.448 2.51921C234.277 2.93908 309.192 1.85942 330.198 4.7985C331.377 4.7985 335.021 5.7582 335.343 7.01781C339.951 10.3768 340.916 14.0956 342.309 18.2343C342.095 16.5548 341.88 15.1753 341.773 14.3955C340.809 11.6364 339.63 8.93721 338.344 5.7582C337.593 4.73852 333.628 3.11903 331.913 2.93908C289.901 2.21931 248.746 1.43955 209.305 0.719775C199.231 0.839738 160.862 0.779756 123.78 0.299906C103.524 0.719775 82.1961 0.119963 66.1198 0C42.3271 0.539831 21.1065 1.79944 -2.36481 2.15933C-4.29396 2.57919 -9.54552 4.97844 -10.4029 5.87816C-11.046 10.8566 -12.7608 15.1753 -13.6182 20.8135C-10.9388 16.075 -7.72355 11.5164 -8.47378 6.59794C-5.47288 5.93814 -3.32939 5.15839 -0.864368 3.8388H-0.971543Z" fill="url(#paint25_linear_174_7461)"/>
<path fill-rule="evenodd" clip-rule="evenodd" d="M290.753 57.4019C299.113 57.342 307.473 57.222 315.832 57.102C319.476 57.102 323.013 56.9821 326.657 57.102C326.979 57.102 327.193 57.342 327.193 57.5219C327.193 58.5416 326.979 59.6212 326.764 60.6409C327.193 59.5013 327.407 58.3017 328.05 57.162C328.372 56.6822 331.801 55.8424 332.766 56.0823C334.695 56.5022 336.517 57.162 338.339 57.6419C337.053 57.042 335.767 56.5022 334.481 55.9024C332.766 55.1826 332.98 55.1226 333.087 53.863C333.302 51.9436 333.516 50.0242 333.731 48.0449C333.731 41.207 334.159 35.0289 335.124 28.251C335.124 27.5912 335.124 26.6915 335.767 26.3916C335.981 26.2717 341.233 26.0917 341.876 26.0317C341.34 26.0317 335.767 25.7918 335.66 25.7318C334.802 25.072 334.159 22.7328 333.516 21.6531C332.98 20.3935 332.552 19.1339 332.016 17.8743C331.694 17.0945 331.48 16.2548 331.801 16.0149C331.909 15.9549 332.659 15.655 333.623 15.535C335.124 15.2951 336.624 15.0552 338.125 14.8152C335.981 15.0552 334.374 15.2951 332.23 15.2351C330.301 15.2351 330.622 14.6953 330.515 13.6156C330.408 12.9558 329.765 12.236 329.658 11.5163C329.444 10.4966 329.122 10.1367 330.515 9.41693C332.659 8.33727 334.695 7.31759 336.839 6.23792C334.802 7.07766 332.659 7.9174 330.622 8.75714C328.372 9.65686 327.407 8.63717 328.479 7.25761C329.444 5.998 330.301 4.67841 331.265 3.41881L327.622 7.07766C326.121 8.51721 325.478 8.21731 322.477 8.15732C303.293 7.85742 284.323 7.13764 265.246 6.23792C257.315 6.11796 210.158 5.63811 208.122 4.73839C207.371 4.43849 208.336 2.99894 208.872 1.01956C206.621 4.49847 207.8 4.67841 200.727 5.39819C194.618 5.63811 184.543 6.41787 178.863 6.05798C177.47 5.93802 177.148 5.93802 177.148 5.15826C177.148 4.31852 177.041 3.47879 176.934 2.57907C176.72 3.53877 176.505 4.37851 176.398 5.33821C176.291 5.998 175.433 5.75807 174.255 5.63811C168.681 5.21824 163.108 4.91834 157.535 4.73839C147.675 4.79837 139.423 5.33821 129.563 5.69809C125.597 5.69809 125.49 3.65873 123.99 0.839612C124.204 1.61937 125.061 4.31852 124.633 4.85836C124.204 5.27822 123.239 5.21824 121.31 5.09828C116.702 4.85836 111.986 4.55845 107.377 4.31852C99.6609 4.13858 92.1587 4.0786 84.4421 4.0786C80.4766 4.0786 74.4748 4.49847 71.4739 3.89866C71.2596 3.89866 67.2941 1.01956 66.7583 0.659668C67.2941 1.25948 69.3304 3.17888 69.0089 3.71871C68.6874 4.31852 66.8654 4.25854 65.2578 4.31852C60.9708 4.49847 57.0054 4.67841 52.7184 4.73839C36.7493 5.87804 21.9592 6.59781 5.99018 7.19762C3.73951 7.25761 3.20363 7.61749 2.13189 6.59781C0.738616 5.27822 -0.654656 3.95864 -2.1551 2.69903C-0.97618 4.49847 0.0955672 5.93802 0.952965 7.79744C1.16731 8.15732 -1.08335 8.81712 -1.94075 8.57719C-4.83447 7.73746 -7.19232 7.13764 -9.97886 6.23792C-8.04971 7.07766 -6.76362 7.85742 -4.83447 8.75714C-2.04793 10.0167 -2.36945 9.53689 -3.22685 11.5163C-4.62012 14.6353 -5.90622 17.6943 -7.29949 20.8134C-7.83536 22.073 -7.94254 22.073 -10.086 22.5528C-11.3721 22.8527 -12.2295 23.2126 -13.5156 23.5125C-12.1224 23.3326 -10.8363 23.2126 -9.44298 23.0327C-8.04971 22.8527 -7.08514 22.6728 -7.08514 23.5725C-7.08514 24.8921 -7.08514 26.1517 -6.97797 27.4713C-6.33492 32.0898 -5.69187 36.7084 -5.04882 41.3869C-4.40577 45.2257 -3.8699 49.0645 -3.22685 52.9033C-3.22685 53.2032 -3.22685 53.5032 -3.54837 53.8031C-4.19142 54.6428 -7.72819 56.5022 -9.01429 57.282C-6.87079 56.3823 -4.7273 55.5425 -2.5838 54.6428C-2.47663 54.5228 -0.654656 54.8227 -0.440306 55.1826C-0.869005 56.0224 -1.40488 56.8021 -1.83358 57.6419C-1.08335 56.8621 -0.225957 56.0823 0.524267 55.3026C0.845791 55.1826 1.16732 55.0627 1.70319 55.0027C3.95386 55.0027 6.09735 55.0027 8.34802 55.0027C10.17 55.0027 11.992 55.0027 13.8139 55.0027C8.99107 54.8827 4.38256 54.7628 0.417092 54.7028C-0.547481 54.6428 -1.94075 54.2229 -2.26228 53.923C-3.8699 43.6662 -5.47752 33.2295 -6.33492 22.9127C-6.12057 22.7927 -6.01339 22.7328 -5.69187 22.6728C-3.65555 22.2529 20.1372 20.3935 36.1063 19.0739C45.0018 18.3541 46.8238 17.8143 55.8264 18.954C82.8345 22.3129 139.423 34.669 160.643 40.3073C164.502 41.327 164.823 41.7468 167.824 43.4263C174.362 47.0852 181.007 50.5641 187.759 53.923C189.902 56.0823 191.938 58.4216 191.402 58.6615C191.081 58.7815 189.045 58.9614 186.58 58.9015C174.576 58.7215 162.68 57.9418 150.783 57.5219C163.323 58.4216 175.969 58.8415 189.259 59.7412C190.867 59.8612 191.831 59.9211 192.367 60.1611C192.796 60.341 193.224 61.8405 193.332 63.3401C193.76 61.3007 193.76 60.1011 194.403 59.9211C194.725 59.9211 196.225 59.8612 197.726 59.8012C207.693 59.6812 217.767 59.3813 227.735 58.7815C245.204 57.102 262.245 55.1226 278.214 52.4235C284.43 50.5041 290.753 48.7046 297.291 47.0852C303.186 45.6456 309.188 48.7646 314.868 50.5641C311.974 49.2445 309.295 48.1648 306.401 47.0852C303.079 45.8255 301.149 45.7656 304.579 44.0861C312.724 40.1273 319.369 37.1882 328.157 33.7093C328.8 32.5697 332.98 27.9511 333.623 28.1311C333.731 28.1311 333.945 28.311 334.159 28.6709C333.087 37.3082 332.98 46.8452 332.016 55.6625C330.515 56.0823 328.8 56.5022 327.514 56.8021C315.296 57.042 302.864 57.342 290.325 57.5819L290.753 57.4019ZM228.056 58.7815C217.767 58.7815 207.372 59.5613 197.083 58.7815C195.475 58.6615 194.618 58.4816 194.082 58.1217C192.367 57.162 190.545 54.8827 189.366 53.6231C180.685 49.6044 173.397 45.7056 167.181 41.8068C166.431 40.4872 166.431 40.1273 168.253 38.8077C181.757 28.491 205.978 18.774 226.77 13.3157C233.736 11.4563 241.346 9.89678 248.098 8.63717C250.027 7.79744 250.777 7.37757 251.742 7.13764C253.885 6.59781 256.136 6.83774 258.387 6.89772C281.751 7.49753 305.544 8.09734 327.086 8.81712C327.836 9.11702 328.479 9.41693 329.122 9.8368C329.551 11.6962 329.658 13.5556 330.301 15.4151C331.694 18.4141 333.409 22.3729 334.374 24.7121C334.802 25.7918 334.802 26.1517 333.409 27.7112C331.694 29.5706 329.872 31.43 327.622 32.9296C318.619 37.2482 309.295 41.327 299.863 45.1658C293.111 47.745 285.716 49.7843 277.892 51.4638C262.031 54.7028 245.204 56.8621 228.163 58.7815H228.056ZM163.537 40.0673C129.455 30.7703 93.1232 23.7525 54.5403 18.1142C52.3968 17.8143 51.4323 17.4544 51.4323 17.3345C51.4323 17.1545 52.3968 16.6747 54.1116 15.9549C57.2197 14.6353 60.4349 13.3757 63.7574 12.1761C65.5793 9.8368 69.1161 6.11796 72.2242 4.67841C89.1578 4.61843 109.628 4.67841 126.347 6.17794C144.46 5.27822 159.679 5.21824 176.827 6.53783C187.759 6.11796 196.761 6.05798 206.943 5.21824C219.697 5.69809 233.308 6.11796 247.241 6.47785C248.848 6.47785 250.67 6.53783 248.419 7.43755C245.097 8.69716 235.451 10.5566 226.449 12.9558C217.446 15.3551 209.408 18.1142 206.621 18.834C205.014 19.2539 205.121 18.9539 205.121 18.1742C205.014 15.1751 205.121 11.5763 205.55 8.09734C204.799 9.77682 204.049 14.8752 204.371 18.4741C204.371 19.3138 204.692 19.5538 202.334 20.4535C188.294 25.7318 176.184 31.61 166.967 38.6278C165.466 39.8274 165.252 40.0673 163.644 40.0074L163.537 40.0673ZM-5.79904 21.4132C-4.40577 17.6344 -2.04793 14.2154 -0.440306 9.59687C-0.118782 9.41693 2.34624 8.09734 2.66776 7.97738C23.3525 7.55751 49.0744 5.998 68.7946 4.91834C69.7591 5.27822 69.4376 5.81806 68.4731 6.65779C66.5439 8.39725 64.5076 10.1367 62.5784 11.9361C58.3986 13.9755 54.0045 15.715 49.5031 17.2745C48.0027 17.4544 44.3587 17.4544 42.5368 17.5744C33.6413 18.4141 -3.22685 22.3129 -5.04882 21.7731C-5.26317 21.7131 -5.47752 21.5931 -5.69187 21.4132H-5.79904Z" fill="url(#paint26_radial_174_7461)"/>
<g style="mix-blend-mode:screen" opacity="0.5">
<path fill-rule="evenodd" clip-rule="evenodd" d="M46.8264 37.3681C45.8618 37.3681 44.5758 37.548 43.9327 37.9679C42.5394 38.9276 41.5749 40.0672 41.1462 41.2069C40.7175 42.4665 44.4686 43.6061 46.2905 43.6661C47.791 43.6661 49.3986 43.3662 50.256 42.7064C51.6493 41.6867 49.613 37.488 46.8264 37.3081V37.3681Z" fill="#373FA5"/>
</g>
<g style="mix-blend-mode:screen" opacity="0.5">
<path fill-rule="evenodd" clip-rule="evenodd" d="M26.2449 25.9122C23.2441 26.3321 20.2432 27.0518 17.9925 28.2515C15.4203 29.691 11.9907 34.1896 13.9199 36.169C14.9916 37.2487 17.2423 38.2084 19.4929 38.3283C22.9225 38.4483 26.6736 37.8485 29.4602 36.7088C32.1396 35.5692 33.5328 33.9497 35.5692 32.4502C36.8552 31.4905 38.4629 30.5907 39.5346 29.5111C41.3566 27.7116 38.3557 25.9122 36.105 25.6723C32.3539 25.3124 29.9961 25.3724 26.2449 25.8522V25.9122Z" fill="#373FA5"/>
</g>
<g style="mix-blend-mode:screen" opacity="0.5">
<path fill-rule="evenodd" clip-rule="evenodd" d="M308.228 24.8919C304.37 25.3118 300.297 28.9706 299.333 31.1299C298.368 33.4092 300.19 34.6089 302.119 34.189C306.406 33.2293 318.41 30.5301 319.267 27.5911C319.696 26.0915 318.41 24.7719 315.516 24.532C313.158 24.2921 310.586 24.592 308.228 24.8919Z" fill="#373FA5"/>
</g>
<path fill-rule="evenodd" clip-rule="evenodd" d="M307.581 24.472C303.723 24.8918 299.65 28.5507 298.685 30.71C297.721 32.9893 299.543 34.1889 301.472 33.7691C305.759 32.8094 317.762 30.1102 318.62 27.1711C319.049 25.6716 317.762 24.352 314.869 24.1121C312.511 23.8722 309.939 24.1721 307.581 24.472Z" fill="url(#paint27_radial_174_7461)"/>
<path fill-rule="evenodd" clip-rule="evenodd" d="M46.179 36.9487C45.2144 36.9487 43.9283 37.1286 43.2852 37.5485C41.892 38.5082 40.9274 39.6478 40.4987 40.7875C40.07 42.0471 43.8211 43.1867 45.6431 43.2467C47.1435 43.2467 48.7511 42.9468 49.6085 42.287C51.0018 41.2673 48.9655 37.0686 46.179 36.8887V36.9487Z" fill="url(#paint28_radial_174_7461)"/>
<path fill-rule="evenodd" clip-rule="evenodd" d="M25.6092 25.5518C22.6083 25.9717 19.6074 26.6915 17.3568 27.8911C14.7846 29.3307 11.355 33.8293 13.2841 35.8086C14.3559 36.8883 16.6065 37.848 18.8572 37.968C22.2868 38.0879 26.0379 37.4881 28.8244 36.3485C31.5038 35.2088 32.8971 33.5893 34.9334 32.0898C36.2195 31.1301 37.8271 30.2304 38.8989 29.1507C40.7208 27.3513 37.72 25.5518 35.4693 25.3119C31.7182 24.952 29.3603 25.012 25.6092 25.4919V25.5518Z" fill="url(#paint29_radial_174_7461)"/>
</g>
<g clip-path="url(#clip2_174_7461)">
<path fill-rule="evenodd" clip-rule="evenodd" d="M135.488 2.15933C148.641 1.79944 160.533 0.47985 173.866 0C182.875 0.179944 194.827 0.719775 206.179 0.299906C226.959 0.779756 248.461 0.839738 254.107 0.719775C276.269 1.43955 299.332 2.27929 322.815 2.93908C323.776 3.11903 325.998 4.73852 326.419 5.7582C327.14 8.93721 327.86 11.6364 328.341 14.3955C328.461 16.3149 328.941 22.1331 328.941 26.0319C328.281 37.8482 327.38 49.1846 326.899 57.8819C326.359 58.8416 322.155 60.941 319.692 61.6607C295.908 62.5604 271.404 63.0403 245.218 64C221.734 62.8604 192.185 61.6607 168.461 61.9606C155.968 61.2409 144.557 60.881 134.407 60.941C133.266 60.4611 131.344 58.6617 130.983 57.9419C129.902 46.1856 129.422 35.269 128.941 23.5127C129.362 16.5548 130.623 11.6364 130.983 5.87816C131.464 4.97844 134.347 2.57919 135.488 2.15933Z" fill="url(#paint30_radial_174_7461)"/>
<path fill-rule="evenodd" clip-rule="evenodd" d="M254.105 0.719421L252.844 5.278C273.865 6.65757 298.91 7.55728 320.111 8.75691L322.874 2.99871C299.33 2.27893 276.267 1.49918 254.165 0.779403L254.105 0.719421Z" fill="url(#paint31_radial_174_7461)"/>
<path fill-rule="evenodd" clip-rule="evenodd" d="M322.876 2.99913L320.113 8.75733C320.534 9.05724 320.894 9.35714 321.254 9.77701L326.48 5.75827C326.059 4.73859 323.837 3.11909 322.876 2.93915V2.99913Z" fill="url(#paint32_radial_174_7461)"/>
<path fill-rule="evenodd" clip-rule="evenodd" d="M326.421 5.81854L321.195 9.83729C321.436 11.6967 321.496 13.5561 321.856 15.4155C322.817 19.1344 324.138 24.2928 324.439 26.1522H328.943C328.943 22.2534 328.463 16.4352 328.342 14.5158C327.802 11.7567 327.141 9.05753 326.421 5.87852V5.81854Z" fill="url(#paint33_radial_174_7461)"/>
<path fill-rule="evenodd" clip-rule="evenodd" d="M328.999 26.0319H324.495C323.714 35.329 323.654 45.8857 323.113 55.4827L327.017 57.882C327.498 49.2447 328.399 37.8482 329.059 26.0319H328.999Z" fill="url(#paint34_radial_174_7461)"/>
<path fill-rule="evenodd" clip-rule="evenodd" d="M323.116 55.4826C322.275 55.9025 321.314 56.3223 320.593 56.6222L319.812 61.7207C322.215 61.0009 326.479 58.8416 327.02 57.9418L323.116 55.5426V55.4826Z" fill="url(#paint35_radial_174_7461)"/>
<path fill-rule="evenodd" clip-rule="evenodd" d="M320.593 56.6227C296.148 57.5224 269.722 58.602 245.277 59.5018V64.0004C271.584 63.0407 296.028 62.5608 319.872 61.6611L320.653 56.5627L320.593 56.6227Z" fill="url(#paint36_radial_174_7461)"/>
<path fill-rule="evenodd" clip-rule="evenodd" d="M263.897 13.3156C252.246 18.8338 238.612 28.4908 231.105 38.8076C230.084 40.1872 230.144 40.5471 230.504 41.8067C233.987 45.7054 238.132 49.6642 242.936 53.623C243.597 54.8826 244.618 57.1019 245.579 58.1216C245.939 58.4814 246.36 58.6614 247.261 58.7814C252.966 59.5011 258.792 58.7814 264.618 58.7814C274.168 56.8619 283.597 54.7026 292.486 51.4636C296.93 49.7842 301.014 47.7448 304.798 45.1656C310.144 41.2668 315.369 37.2481 320.354 32.9294C321.615 31.4299 322.636 29.5705 323.597 27.7111C324.198 26.5114 324.378 25.9716 324.258 25.3118C324.258 25.1319 324.198 24.8919 324.138 24.712C323.537 22.3127 322.576 18.354 321.855 15.4149C321.495 13.6155 321.375 11.756 321.195 9.83665C320.834 9.41678 320.474 9.05689 320.054 8.81697C307.981 8.09719 294.648 7.55736 281.555 6.89757C280.954 6.89757 280.294 6.89757 279.693 6.83759C279.093 6.83759 278.432 6.89757 277.831 7.19747C277.231 7.4374 276.87 7.85727 275.789 8.697C272.005 10.0166 267.741 11.5761 263.837 13.3755L263.897 13.3156Z" fill="url(#paint37_radial_174_7461)"/>
<path fill-rule="evenodd" clip-rule="evenodd" d="M303.596 47.0252C299.933 48.6447 296.389 50.5041 292.905 52.3635C284.017 55.0627 274.467 57.042 264.617 58.7215C276.269 58.3016 288.101 57.8218 299.752 57.3419C306.779 57.042 313.806 56.8021 320.593 56.5622C321.314 56.2623 322.275 55.8424 323.116 55.4225C323.596 46.6653 323.716 37.1283 324.317 28.431C324.197 28.1311 324.077 27.9511 324.017 27.8911C323.656 27.7712 321.314 32.3897 320.954 33.4694C316.029 36.9483 312.305 39.8874 307.74 43.8462C305.818 45.5256 306.899 45.5856 308.761 46.8452C310.383 47.9849 311.884 49.0645 313.506 50.3241C310.323 48.5247 306.96 45.4057 303.656 46.8452L303.596 47.0252Z" fill="url(#paint38_radial_174_7461)"/>
<path opacity="0.75" fill-rule="evenodd" clip-rule="evenodd" d="M136.267 3.83898C149.06 3.35913 162.333 3.59906 175.006 1.61968L206.777 2.15951C222.693 1.43973 238.249 2.15951 253.624 2.5194C268.099 2.93926 310.081 1.8596 321.852 4.79868C322.513 4.79868 324.555 5.75838 324.735 7.01799C327.318 10.3769 327.858 14.0958 328.639 18.2345C328.519 16.555 328.399 15.1754 328.339 14.3957C327.798 11.6365 327.138 8.93739 326.417 5.75838C325.997 4.7387 323.774 3.11921 322.813 2.93926C299.27 2.21949 276.207 1.43973 254.105 0.719958C248.459 0.839921 226.957 0.779939 206.177 0.300089C194.825 0.719958 182.873 0.120146 173.864 0.000183105C160.531 0.540014 148.639 1.79962 135.486 2.15951C134.405 2.57938 131.462 4.97863 130.981 5.87835C130.621 10.8568 129.66 15.1754 129.18 20.8137C130.681 16.0752 132.483 11.5166 132.063 6.59812C133.744 5.93833 134.945 5.15857 136.327 3.83898H136.267Z" fill="url(#paint39_linear_174_7461)"/>
<path fill-rule="evenodd" clip-rule="evenodd" d="M299.753 57.4021C304.437 57.3421 309.122 57.2222 313.807 57.1022C315.849 57.1022 317.831 56.9823 319.873 57.1022C320.053 57.1022 320.173 57.3421 320.173 57.5221C320.173 58.5418 320.053 59.6214 319.933 60.6411C320.173 59.5015 320.293 58.3018 320.654 57.1622C320.834 56.6823 322.756 55.8426 323.296 56.0825C324.377 56.5024 325.398 57.1622 326.419 57.642C325.699 57.0422 324.978 56.5024 324.257 55.9026C323.296 55.1828 323.416 55.1228 323.476 53.8632C323.597 51.9438 323.717 50.0244 323.837 48.045C323.837 41.2072 324.077 35.0291 324.618 28.2512C324.618 27.5914 324.618 26.6917 324.978 26.3918C325.098 26.2718 328.041 26.0919 328.401 26.0319C328.101 26.0319 324.978 25.792 324.918 25.732C324.437 25.0722 324.077 22.733 323.717 21.6533C323.416 20.3937 323.176 19.1341 322.876 17.8745C322.696 17.0947 322.576 16.255 322.756 16.0151C322.816 15.9551 323.236 15.6552 323.777 15.5352C324.618 15.2953 325.458 15.0554 326.299 14.8154C325.098 15.0554 324.197 15.2953 322.996 15.2353C321.915 15.2353 322.095 14.6955 322.035 13.6158C321.975 12.956 321.615 12.2362 321.555 11.5165C321.434 10.4968 321.254 10.1369 322.035 9.41711C323.236 8.33745 324.377 7.31777 325.579 6.23811C324.437 7.07784 323.236 7.91758 322.095 8.75732C320.834 9.65704 320.293 8.63736 320.894 7.25779C321.434 5.99818 321.915 4.67859 322.455 3.41899L320.413 7.07784C319.573 8.51739 319.212 8.21749 317.53 8.15751C306.78 7.8576 296.149 7.13783 285.458 6.23811C281.014 6.11814 254.588 5.6383 253.446 4.73858C253.026 4.43867 253.567 2.99912 253.867 1.01974C252.606 4.49865 253.266 4.67859 249.302 5.39837C245.879 5.63829 240.233 6.41805 237.05 6.05816C236.269 5.9382 236.089 5.9382 236.089 5.15844C236.089 4.31871 236.029 3.47897 235.969 2.57925C235.849 3.53895 235.729 4.37869 235.669 5.33839C235.609 5.99818 235.128 5.75826 234.467 5.63829C231.344 5.21843 228.221 4.91852 225.098 4.73858C219.573 4.79856 214.948 5.33839 209.422 5.69828C207.2 5.69828 207.14 3.65891 206.299 0.839795C206.419 1.61955 206.9 4.31871 206.66 4.85854C206.419 5.27841 205.879 5.21843 204.798 5.09846C202.215 4.85854 199.573 4.55863 196.99 4.31871C192.666 4.13876 188.461 4.07878 184.137 4.07878C181.915 4.07878 178.551 4.49865 176.87 3.89884C176.75 3.89884 174.527 1.01974 174.227 0.659851C174.527 1.25966 175.669 3.17906 175.488 3.71889C175.308 4.31871 174.287 4.25873 173.386 4.31871C170.984 4.49865 168.762 4.6786 166.359 4.73858C157.41 5.87822 149.122 6.598 140.173 7.19781C138.912 7.25779 138.612 7.61768 138.011 6.59799C137.23 5.27841 136.449 3.95882 135.609 2.69921C136.269 4.49865 136.87 5.9382 137.35 7.79762C137.47 8.15751 136.209 8.8173 135.729 8.57738C134.107 7.73764 132.786 7.13783 131.224 6.23811C132.305 7.07784 133.026 7.8576 134.107 8.75732C135.669 10.0169 135.488 9.53708 135.008 11.5165C134.227 14.6355 133.506 17.6945 132.726 20.8136C132.425 22.0732 132.365 22.0732 131.164 22.553C130.443 22.8529 129.963 23.2128 129.242 23.5127C130.023 23.3328 130.744 23.2128 131.524 23.0329C132.305 22.8529 132.846 22.673 132.846 23.5727C132.846 24.8923 132.846 26.1519 132.906 27.4715C133.266 32.09 133.627 36.7086 133.987 41.3871C134.347 45.2259 134.648 49.0647 135.008 52.9035C135.008 53.2034 135.008 53.5033 134.828 53.8032C134.467 54.643 132.485 56.5024 131.765 57.2822C132.966 56.3824 134.167 55.5427 135.368 54.643C135.428 54.523 136.449 54.8229 136.57 55.1828C136.329 56.0225 136.029 56.8023 135.789 57.642C136.209 56.8623 136.69 56.0825 137.11 55.3028C137.29 55.1828 137.47 55.0628 137.771 55.0029C139.032 55.0029 140.233 55.0029 141.494 55.0029C142.515 55.0029 143.536 55.0029 144.558 55.0029C141.855 54.8829 139.272 54.7629 137.05 54.703C136.509 54.643 135.729 54.2231 135.548 53.9232C134.648 43.6664 133.747 33.2297 133.266 22.9129C133.386 22.7929 133.446 22.733 133.627 22.673C134.768 22.2531 148.101 20.3937 157.05 19.0741C162.035 18.3543 163.056 17.8145 168.101 18.9541C183.236 22.3131 214.948 34.6692 226.84 40.3075C229.002 41.3271 229.182 41.747 230.864 43.4265C234.527 47.0853 238.251 50.5643 242.035 53.9232C243.236 56.0825 244.377 58.4218 244.077 58.6617C243.897 58.7817 242.756 58.9616 241.374 58.9016C234.648 58.7217 227.981 57.9419 221.314 57.5221C228.341 58.4218 235.428 58.8417 242.876 59.7414C243.777 59.8613 244.317 59.9213 244.618 60.1613C244.858 60.3412 245.098 61.8407 245.158 63.3403C245.398 61.3009 245.398 60.1013 245.759 59.9213C245.939 59.9213 246.78 59.8614 247.621 59.8014C253.206 59.6814 258.852 59.3815 264.437 58.7817C274.227 57.1022 283.777 55.1228 292.726 52.4237C296.209 50.5043 299.753 48.7048 303.416 47.0853C306.72 45.6458 310.083 48.7648 313.266 50.5643C311.645 49.2447 310.143 48.165 308.521 47.0853C306.66 45.8257 305.579 45.7658 307.5 44.0863C312.065 40.1275 315.789 37.1884 320.714 33.7095C321.074 32.5699 323.416 27.9513 323.777 28.1313C323.837 28.1313 323.957 28.3112 324.077 28.6711C323.476 37.3084 323.416 46.8454 322.876 55.6627C322.035 56.0825 321.074 56.5024 320.353 56.8023C313.506 57.0422 306.539 57.3421 299.512 57.5821L299.753 57.4021ZM264.618 58.7817C258.852 58.7817 253.026 59.5614 247.26 58.7817C246.359 58.6617 245.879 58.4818 245.579 58.1219C244.618 57.1622 243.597 54.8829 242.936 53.6233C238.071 49.6045 233.987 45.7058 230.503 41.807C230.083 40.4874 230.083 40.1275 231.104 38.8079C238.672 28.4911 252.245 18.7742 263.897 13.3159C267.801 11.4565 272.065 9.89696 275.849 8.63736C276.93 7.79762 277.35 7.37775 277.891 7.13783C279.092 6.598 280.353 6.83792 281.615 6.8979C294.708 7.49771 308.041 8.09753 320.113 8.8173C320.533 9.11721 320.894 9.41711 321.254 9.83698C321.494 11.6964 321.554 13.5558 321.915 15.4152C322.696 18.4143 323.657 22.3731 324.197 24.7123C324.437 25.792 324.437 26.1519 323.657 27.7114C322.696 29.5708 321.675 31.4302 320.413 32.9298C315.368 37.2484 310.143 41.3271 304.858 45.1659C301.074 47.7451 296.93 49.7845 292.545 51.464C283.657 54.703 274.227 56.8623 264.678 58.7817H264.618ZM228.461 40.0675C209.362 30.7704 189.002 23.7526 167.38 18.1144C166.179 17.8145 165.639 17.4546 165.639 17.3346C165.639 17.1547 166.179 16.6748 167.14 15.9551C168.882 14.6355 170.684 13.3759 172.545 12.1763C173.567 9.83698 175.548 6.11814 177.29 4.67859C186.78 4.61861 198.251 4.67859 207.621 6.17813C217.771 5.27841 226.299 5.21843 235.909 6.53801C242.035 6.11814 247.08 6.05816 252.786 5.21843C259.933 5.69828 267.561 6.11814 275.368 6.47803C276.269 6.47803 277.29 6.53801 276.029 7.43773C274.167 8.69734 268.762 10.5568 263.717 12.956C258.672 15.3553 254.167 18.1144 252.606 18.8342C251.705 19.254 251.765 18.9541 251.765 18.1744C251.705 15.1753 251.765 11.5764 252.005 8.09753C251.585 9.777 251.164 14.8754 251.344 18.4743C251.344 19.314 251.524 19.5539 250.203 20.4537C242.335 25.732 235.548 31.6102 230.383 38.628C229.542 39.8276 229.422 40.0675 228.521 40.0076L228.461 40.0675ZM133.567 21.4134C134.347 17.6345 135.669 14.2156 136.57 9.59706C136.75 9.41711 138.131 8.09753 138.311 7.97756C149.903 7.55769 164.317 5.99818 175.368 4.91852C175.909 5.27841 175.729 5.81824 175.188 6.65798C174.107 8.39743 172.966 10.1369 171.885 11.9363C169.542 13.9757 167.08 15.7151 164.558 17.2747C163.717 17.4546 161.675 17.4546 160.654 17.5746C155.669 18.4143 135.008 22.3131 133.987 21.7733C133.867 21.7133 133.747 21.5933 133.627 21.4134H133.567Z" fill="url(#paint40_radial_174_7461)"/>
<g style="mix-blend-mode:screen" opacity="0.5">
<path fill-rule="evenodd" clip-rule="evenodd" d="M309.544 24.8921C307.382 25.3119 305.1 28.9708 304.559 31.1301C304.019 33.4094 305.04 34.609 306.121 34.1892C308.523 33.2295 315.25 30.5303 315.731 27.5912C315.971 26.0917 315.25 24.7721 313.629 24.5322C312.307 24.2923 310.866 24.5922 309.544 24.8921Z" fill="#373FA5"/>
</g>
<path fill-rule="evenodd" clip-rule="evenodd" d="M309.185 24.4722C307.023 24.892 304.741 28.5509 304.2 30.7102C303.66 32.9895 304.681 34.1891 305.762 33.7693C308.164 32.8096 314.891 30.1104 315.371 27.1713C315.611 25.6718 314.891 24.3522 313.269 24.1123C311.948 23.8723 310.506 24.1723 309.185 24.4722Z" fill="url(#paint41_radial_174_7461)"/>
</g>
<defs>
<radialGradient id="paint0_radial_174_7461" cx="0" cy="0" r="1" gradientUnits="userSpaceOnUse" gradientTransform="translate(34.7123 0.779875) scale(228.589 228.289)">
<stop stop-color="#676C94"/>
<stop offset="1" stop-color="#17233A"/>
</radialGradient>
<radialGradient id="paint1_radial_174_7461" cx="0" cy="0" r="1" gradientUnits="userSpaceOnUse" gradientTransform="translate(0.3003 25.9122) scale(46.4865 46.4255)">
<stop stop-color="#5A6084"/>
<stop offset="1" stop-color="#323B63"/>
</radialGradient>
<radialGradient id="paint2_radial_174_7461" cx="0" cy="0" r="1" gradientUnits="userSpaceOnUse" gradientTransform="translate(13.0916 9.23764) scale(17.1772 17.1546)">
<stop stop-color="#8899C2"/>
<stop offset="1" stop-color="#727696"/>
</radialGradient>
<radialGradient id="paint3_radial_174_7461" cx="0" cy="0" r="1" gradientUnits="userSpaceOnUse" gradientTransform="translate(48.3462 -39.5875) scale(69.6697 69.5783)">
<stop stop-color="#8899C2"/>
<stop offset="1" stop-color="#727696"/>
</radialGradient>
<radialGradient id="paint4_radial_174_7461" cx="0" cy="0" r="1" gradientUnits="userSpaceOnUse" gradientTransform="translate(43.0024 17.3349) scale(74.3544 74.2568)">
<stop stop-color="#4E5470"/>
<stop offset="1" stop-color="#252E4F"/>
</radialGradient>
<radialGradient id="paint5_radial_174_7461" cx="0" cy="0" r="1" gradientUnits="userSpaceOnUse" gradientTransform="translate(12.9739 44.8058) scale(36.5165 36.4686)">
<stop stop-color="#5A6084"/>
<stop offset="1" stop-color="#323B63"/>
</radialGradient>
<radialGradient id="paint6_radial_174_7461" cx="0" cy="0" r="1" gradientUnits="userSpaceOnUse" gradientTransform="translate(-0.420418 18.8945) scale(64.9249 64.8397)">
<stop stop-color="#5A6084"/>
<stop offset="1" stop-color="#323B63"/>
</radialGradient>
<radialGradient id="paint7_radial_174_7461" cx="0" cy="0" r="1" gradientUnits="userSpaceOnUse" gradientTransform="translate(36.5721 16.9747) scale(78.2583 78.1556)">
<stop stop-color="#4E5B7D"/>
<stop offset="1" stop-color="#313556"/>
</radialGradient>
<radialGradient id="paint8_radial_174_7461" cx="0" cy="0" r="1" gradientUnits="userSpaceOnUse" gradientTransform="translate(62.6411 -19.1334) scale(178.258 178.024)">
<stop stop-color="#4E5B7D"/>
<stop offset="1" stop-color="#313556"/>
</radialGradient>
<linearGradient id="paint9_linear_174_7461" x1="70.2561" y1="0.000183105" x2="70.2561" y2="20.8137" gradientUnits="userSpaceOnUse">
<stop stop-color="#A0DBF0"/>
<stop offset="1" stop-color="#00FFEA"/>
</linearGradient>
<radialGradient id="paint10_radial_174_7461" cx="0" cy="0" r="1" gradientUnits="userSpaceOnUse" gradientTransform="translate(29.6638 -39.2877) scale(225.045 224.75)">
<stop stop-color="#7C8FB2"/>
<stop offset="1" stop-color="#515682"/>
</radialGradient>
<radialGradient id="paint11_radial_174_7461" cx="0" cy="0" r="1" gradientUnits="userSpaceOnUse" gradientTransform="translate(28.6472 38.7479) scale(19.6396 19.6139)">
<stop stop-color="#5A6084"/>
<stop offset="1" stop-color="#323B63"/>
</radialGradient>
<radialGradient id="paint12_radial_174_7461" cx="0" cy="0" r="1" gradientUnits="userSpaceOnUse" gradientTransform="translate(48.0044 0.77957) scale(407.907 228.289)">
<stop stop-color="#676C94"/>
<stop offset="1" stop-color="#17233A"/>
</radialGradient>
<radialGradient id="paint13_radial_174_7461" cx="0" cy="0" r="1" gradientUnits="userSpaceOnUse" gradientTransform="translate(72.3317 -39.5877) scale(124.323 69.5783)">
<stop stop-color="#8899C2"/>
<stop offset="1" stop-color="#727696"/>
</radialGradient>
<radialGradient id="paint14_radial_174_7461" cx="0" cy="0" r="1" gradientUnits="userSpaceOnUse" gradientTransform="translate(106.627 -52.0637) scale(122.394 68.4986)">
<stop stop-color="#8899C2"/>
<stop offset="1" stop-color="#727696"/>
</radialGradient>
<radialGradient id="paint15_radial_174_7461" cx="0" cy="0" r="1" gradientUnits="userSpaceOnUse" gradientTransform="translate(178.331 -28.8506) scale(127.859 71.5576)">
<stop stop-color="#8899C2"/>
<stop offset="1" stop-color="#727696"/>
</radialGradient>
<radialGradient id="paint16_radial_174_7461" cx="0" cy="0" r="1" gradientUnits="userSpaceOnUse" gradientTransform="translate(230.417 -52.5441) scale(156.475 87.5726)">
<stop stop-color="#8899C2"/>
<stop offset="1" stop-color="#727696"/>
</radialGradient>
<radialGradient id="paint17_radial_174_7461" cx="0" cy="0" r="1" gradientUnits="userSpaceOnUse" gradientTransform="translate(235.131 5.51846) scale(162.584 90.9916)">
<stop stop-color="#4E5470"/>
<stop offset="1" stop-color="#252E4F"/>
</radialGradient>
<radialGradient id="paint18_radial_174_7461" cx="0" cy="0" r="1" gradientUnits="userSpaceOnUse" gradientTransform="translate(119.92 7.19717) scale(136.219 76.2362)">
<stop stop-color="#4E5470"/>
<stop offset="1" stop-color="#252E4F"/>
</radialGradient>
<radialGradient id="paint19_radial_174_7461" cx="0" cy="0" r="1" gradientUnits="userSpaceOnUse" gradientTransform="translate(62.7938 17.3347) scale(132.682 74.2568)">
<stop stop-color="#4E5470"/>
<stop offset="1" stop-color="#252E4F"/>
</radialGradient>
<radialGradient id="paint20_radial_174_7461" cx="0" cy="0" r="1" gradientUnits="userSpaceOnUse" gradientTransform="translate(51.329 16.9746) scale(139.649 78.1556)">
<stop stop-color="#4E5B7D"/>
<stop offset="1" stop-color="#313556"/>
</radialGradient>
<radialGradient id="paint21_radial_174_7461" cx="0" cy="0" r="1" gradientUnits="userSpaceOnUse" gradientTransform="translate(133.314 41.9272) scale(264.186 147.854)">
<stop stop-color="#4E5B7D"/>
<stop offset="1" stop-color="#313556"/>
</radialGradient>
<radialGradient id="paint22_radial_174_7461" cx="0" cy="0" r="1" gradientUnits="userSpaceOnUse" gradientTransform="translate(97.8413 -19.1336) scale(318.095 178.024)">
<stop stop-color="#4E5B7D"/>
<stop offset="1" stop-color="#313556"/>
</radialGradient>
<radialGradient id="paint23_radial_174_7461" cx="0" cy="0" r="1" gradientUnits="userSpaceOnUse" gradientTransform="translate(152.07 26.6313) scale(334.707 187.321)">
<stop stop-color="#4E5B7D"/>
<stop offset="1" stop-color="#313556"/>
</radialGradient>
<radialGradient id="paint24_radial_174_7461" cx="0" cy="0" r="1" gradientUnits="userSpaceOnUse" gradientTransform="translate(254.427 12.2958) scale(162.798 91.1115)">
<stop stop-color="#1A1F3A"/>
<stop offset="1" stop-color="#647394"/>
</radialGradient>
<linearGradient id="paint25_linear_174_7461" x1="111.437" y1="0" x2="111.437" y2="20.8135" gradientUnits="userSpaceOnUse">
<stop stop-color="#A0DBF0"/>
<stop offset="1" stop-color="#00FFEA"/>
</linearGradient>
<radialGradient id="paint26_radial_174_7461" cx="0" cy="0" r="1" gradientUnits="userSpaceOnUse" gradientTransform="translate(39 -39.2879) scale(401.584 224.75)">
<stop stop-color="#7C8FB2"/>
<stop offset="1" stop-color="#515682"/>
</radialGradient>
<radialGradient id="paint27_radial_174_7461" cx="0" cy="0" r="1" gradientUnits="userSpaceOnUse" gradientTransform="translate(314.762 39.8272) scale(32.2596 18.0544)">
<stop stop-color="#5A6084"/>
<stop offset="1" stop-color="#323B63"/>
</radialGradient>
<radialGradient id="paint28_radial_174_7461" cx="0" cy="0" r="1" gradientUnits="userSpaceOnUse" gradientTransform="translate(49.8229 45.7659) scale(20.3632 11.3964)">
<stop stop-color="#5A6084"/>
<stop offset="1" stop-color="#323B63"/>
</radialGradient>
<radialGradient id="paint29_radial_174_7461" cx="0" cy="0" r="1" gradientUnits="userSpaceOnUse" gradientTransform="translate(37.1841 38.7477) scale(35.0461 19.6139)">
<stop stop-color="#5A6084"/>
<stop offset="1" stop-color="#323B63"/>
</radialGradient>
<radialGradient id="paint30_radial_174_7461" cx="0" cy="0" r="1" gradientUnits="userSpaceOnUse" gradientTransform="translate(163.716 0.779753) scale(228.589 228.289)">
<stop stop-color="#676C94"/>
<stop offset="1" stop-color="#17233A"/>
</radialGradient>
<radialGradient id="paint31_radial_174_7461" cx="0" cy="0" r="1" gradientUnits="userSpaceOnUse" gradientTransform="translate(265.937 -52.5439) scale(87.6877 87.5726)">
<stop stop-color="#8899C2"/>
<stop offset="1" stop-color="#727696"/>
</radialGradient>
<radialGradient id="paint32_radial_174_7461" cx="0" cy="0" r="1" gradientUnits="userSpaceOnUse" gradientTransform="translate(312.546 -17.6944) scale(28.1081 28.0712)">
<stop stop-color="#8899C2"/>
<stop offset="1" stop-color="#727696"/>
</radialGradient>
<radialGradient id="paint33_radial_174_7461" cx="0" cy="0" r="1" gradientUnits="userSpaceOnUse" gradientTransform="translate(322.577 9.17749) scale(65.5256 65.4395)">
<stop stop-color="#5A6084"/>
<stop offset="1" stop-color="#323B63"/>
</radialGradient>
<radialGradient id="paint34_radial_174_7461" cx="0" cy="0" r="1" gradientUnits="userSpaceOnUse" gradientTransform="translate(303.654 17.9944) scale(61.3214 61.2409)">
<stop stop-color="#5A6084"/>
<stop offset="1" stop-color="#323B63"/>
</radialGradient>
<radialGradient id="paint35_radial_174_7461" cx="0" cy="0" r="1" gradientUnits="userSpaceOnUse" gradientTransform="translate(320.413 41.9868) scale(35.7958 35.7488)">
<stop stop-color="#5A6084"/>
<stop offset="1" stop-color="#323B63"/>
</radialGradient>
<radialGradient id="paint36_radial_174_7461" cx="0" cy="0" r="1" gradientUnits="userSpaceOnUse" gradientTransform="translate(268.581 5.51865) scale(91.1111 90.9916)">
<stop stop-color="#4E5470"/>
<stop offset="1" stop-color="#252E4F"/>
</radialGradient>
<radialGradient id="paint37_radial_174_7461" cx="0" cy="0" r="1" gradientUnits="userSpaceOnUse" gradientTransform="translate(222.035 26.6314) scale(187.568 187.321)">
<stop stop-color="#4E5B7D"/>
<stop offset="1" stop-color="#313556"/>
</radialGradient>
<radialGradient id="paint38_radial_174_7461" cx="0" cy="0" r="1" gradientUnits="userSpaceOnUse" gradientTransform="translate(279.392 12.296) scale(91.2312 91.1115)">
<stop stop-color="#1A1F3A"/>
<stop offset="1" stop-color="#647394"/>
</radialGradient>
<linearGradient id="paint39_linear_174_7461" x1="199.26" y1="0.000183105" x2="199.26" y2="20.8137" gradientUnits="userSpaceOnUse">
<stop stop-color="#A0DBF0"/>
<stop offset="1" stop-color="#00FFEA"/>
</linearGradient>
<radialGradient id="paint40_radial_174_7461" cx="0" cy="0" r="1" gradientUnits="userSpaceOnUse" gradientTransform="translate(158.672 -39.2877) scale(225.045 224.75)">
<stop stop-color="#7C8FB2"/>
<stop offset="1" stop-color="#515682"/>
</radialGradient>
<radialGradient id="paint41_radial_174_7461" cx="0" cy="0" r="1" gradientUnits="userSpaceOnUse" gradientTransform="translate(313.209 39.8274) scale(18.0781 18.0544)">
<stop stop-color="#5A6084"/>
<stop offset="1" stop-color="#323B63"/>
</radialGradient>
<clipPath id="clip0_174_7461">
<rect width="17.7778" height="64" fill="white"/>
</clipPath>
<clipPath id="clip1_174_7461">
<rect width="293.444" height="64" fill="white" transform="translate(17.7773)"/>
</clipPath>
<clipPath id="clip2_174_7461">
<rect width="17.7778" height="64" fill="white" transform="translate(311.223)"/>
</clipPath>
</defs>
</svg>
