<svg width="229" height="48" viewBox="0 0 229 48" fill="none" xmlns="http://www.w3.org/2000/svg">
<g clip-path="url(#clip0_174_11825)">
<path fill-rule="evenodd" clip-rule="evenodd" d="M4.86304 1.61955C14.7279 1.34964 23.6468 0.359949 33.6468 6.10352e-05C40.4036 0.135019 49.3675 0.539892 57.8811 0.224991C73.4667 0.584878 89.5928 0.629864 93.827 0.539892C110.449 1.07972 127.746 1.70953 145.359 2.20437C146.079 2.33933 147.746 3.55395 148.061 4.31871C148.602 6.70297 149.142 8.72733 149.503 10.7967C149.593 12.2362 149.953 16.5999 149.953 19.524C149.458 28.3862 148.782 36.8885 148.422 43.4115C148.016 44.1313 144.863 45.7058 143.016 46.2456C125.178 46.9204 106.8 47.2803 87.1603 48.0001C69.5477 47.1453 47.3856 46.2456 29.5928 46.4705C20.2234 45.9307 11.6648 45.6608 4.05222 45.7058C3.19637 45.3459 1.75493 43.9963 1.48466 43.4565C0.673846 34.6392 0.313485 26.4518 -0.046875 17.6346C0.26844 12.4162 1.21439 8.72733 1.48466 4.40868C1.84502 3.73389 4.00718 1.93446 4.86304 1.61955Z" fill="url(#paint0_radial_174_11825)"/>
<path fill-rule="evenodd" clip-rule="evenodd" d="M3.28829 16.69C3.82883 13.631 4.90991 10.8868 5.67568 7.198L1.48649 4.40887C1.17117 8.72752 0.27027 12.3714 0 17.6347L3.28829 16.69Z" fill="url(#paint1_radial_174_11825)"/>
<path fill-rule="evenodd" clip-rule="evenodd" d="M1.48438 4.40876L5.67356 7.1529C5.67356 7.1529 6.84474 6.02825 6.97987 5.93828L4.86275 1.61963C4.05194 1.93453 1.84474 3.73397 1.48438 4.40876Z" fill="url(#paint2_radial_174_11825)"/>
<path fill-rule="evenodd" clip-rule="evenodd" d="M4.86328 1.61956L6.9804 5.93821C16.1696 5.62331 27.7011 4.31871 36.1696 3.50897L33.6471 -0.0449219C23.6471 0.404938 14.7281 1.34964 4.86328 1.61956Z" fill="url(#paint3_radial_174_11825)"/>
<path fill-rule="evenodd" clip-rule="evenodd" d="M29.8634 46.4707L32.431 42.6919C25.0436 42.242 13.5571 41.0724 6.12468 40.9824L4.09766 45.7059C11.7103 45.661 20.2688 45.9309 29.6382 46.4707C29.7283 46.4707 29.7733 46.4707 29.8634 46.4707Z" fill="url(#paint4_radial_174_11825)"/>
<path fill-rule="evenodd" clip-rule="evenodd" d="M4.09882 45.7053L6.12584 40.9818C5.72044 40.9368 5.13485 40.6219 4.99972 40.397L1.53125 43.501C1.84657 44.0408 3.28801 45.3904 4.09882 45.7503V45.7053Z" fill="url(#paint5_radial_174_11825)"/>
<path fill-rule="evenodd" clip-rule="evenodd" d="M1.53153 43.4568L5 40.3527C4.32432 32.4802 3.6036 24.5627 3.28829 16.6901L0 17.6348C0.36036 26.4521 0.720721 34.6395 1.53153 43.4568Z" fill="url(#paint6_radial_174_11825)"/>
<path fill-rule="evenodd" clip-rule="evenodd" d="M26.6182 12.911C28.4651 11.6963 30.3119 10.4367 32.1137 8.90722C32.9246 7.60262 33.7804 6.29803 34.5912 4.94845C34.9966 4.31865 35.1318 3.91378 34.7264 3.64386C26.4381 4.45361 15.6273 5.62324 6.93356 5.93814C6.79842 6.02811 5.76239 7.06279 5.62725 7.15276C4.95158 10.6167 3.96059 13.2259 3.375 16.015C3.46509 16.15 3.55518 16.2399 3.64527 16.2849C4.45608 16.6448 19.9065 13.7207 23.6453 13.1359C24.411 13.0009 25.9426 13.0459 26.5732 12.911H26.6182Z" fill="url(#paint7_radial_174_11825)"/>
<path fill-rule="evenodd" clip-rule="evenodd" d="M73.4693 30.141C64.5503 25.9124 40.7665 16.6453 29.4152 14.1261C25.6314 13.2713 24.9107 13.6762 21.1269 14.216C14.3701 15.2057 4.37014 16.6003 3.55933 16.9152C3.46924 16.9152 3.37915 17.0051 3.28906 17.0951C3.60438 24.8327 4.3251 32.6153 5.00077 40.3529C5.18095 40.5778 5.76654 40.8927 6.1269 40.9377C7.83861 40.9377 9.7305 41.0276 11.7575 41.1626C18.6044 41.5225 26.7125 42.3322 32.4332 42.6471C41.8927 42.5122 51.3972 42.2423 58.1539 42.3772C60.6765 42.3772 64.7756 42.6921 69.3251 43.007C74.3251 43.2769 79.3251 43.9067 84.3702 44.0417C85.4062 44.0417 86.2621 43.9517 86.3972 43.8618C86.6224 43.6818 85.7666 41.9723 84.8657 40.3079C81.9828 37.7437 79.235 35.1345 76.4873 32.4353C75.226 31.1757 75.0909 30.8608 73.4693 30.0961V30.141Z" fill="url(#paint8_radial_174_11825)"/>
<path opacity="0.75" fill-rule="evenodd" clip-rule="evenodd" d="M5.44813 2.8791C15.0427 2.51921 24.9977 2.69916 34.5022 1.21462L58.331 1.61949C70.268 1.07966 81.9346 1.61949 93.4661 1.88941C104.322 2.20431 135.809 1.39456 144.637 3.59888C145.133 3.59888 146.664 4.31865 146.799 5.26336C148.736 7.78257 149.142 10.5717 149.727 13.6757C149.637 12.4161 149.547 11.3814 149.502 10.7966C149.097 8.72727 148.601 6.70291 148.061 4.31865C147.745 3.55389 146.079 2.33927 145.358 2.20431C127.7 1.66448 110.403 1.07966 93.8265 0.539831C89.5923 0.629803 73.4661 0.584817 57.8806 0.22493C49.3671 0.539831 40.4031 0.0899719 33.6463 0C23.6463 0.404873 14.7274 1.34958 4.86254 1.61949C4.05173 1.9344 1.84452 3.73383 1.48416 4.40862C1.21389 8.14246 0.493173 11.3814 0.132812 15.6101C1.25894 12.0562 2.61029 8.6373 2.29497 4.94845C3.55624 4.45361 4.45714 3.86879 5.49317 2.8791H5.44813Z" fill="url(#paint9_linear_174_11825)"/>
<path fill-rule="evenodd" clip-rule="evenodd" d="M128.059 43.0513C131.572 43.0063 135.086 42.9164 138.599 42.8264C140.131 42.8264 141.617 42.7364 143.149 42.8264C143.284 42.8264 143.374 43.0063 143.374 43.1413C143.374 43.9061 143.284 44.7158 143.194 45.4806C143.374 44.6258 143.464 43.7261 143.734 42.8714C143.869 42.5115 145.311 41.8817 145.716 42.0616C146.527 42.3765 147.293 42.8714 148.059 43.2313C147.518 42.7814 146.978 42.3765 146.437 41.9267C145.716 41.3868 145.806 41.3419 145.851 40.3972C145.942 38.9576 146.032 37.5181 146.122 36.0335C146.122 30.9051 146.302 26.2716 146.707 21.1882C146.707 20.6933 146.707 20.0185 146.978 19.7936C147.068 19.7036 149.275 19.5687 149.545 19.5237C149.32 19.5237 146.978 19.3437 146.933 19.2987C146.572 18.8039 146.302 17.0495 146.032 16.2397C145.806 15.295 145.626 14.3503 145.401 13.4056C145.266 12.8208 145.176 12.191 145.311 12.011C145.356 11.966 145.671 11.7411 146.077 11.6511C146.707 11.4712 147.338 11.2913 147.969 11.1113C147.068 11.2913 146.392 11.4712 145.491 11.4262C144.68 11.4262 144.815 11.0213 144.77 10.2116C144.725 9.71675 144.455 9.17691 144.41 8.63708C144.32 7.87232 144.185 7.60241 144.77 7.06258C145.671 6.25283 146.527 5.48807 147.428 4.67832C146.572 5.30812 145.671 5.93793 144.815 6.56773C143.869 7.24252 143.464 6.47776 143.915 5.44308C144.32 4.49838 144.68 3.50869 145.086 2.56398L143.554 5.30812C142.924 6.38779 142.653 6.16286 141.392 6.11787C133.329 5.89294 125.356 5.35311 117.338 4.67832C114.005 4.58835 94.1848 4.22846 93.3289 3.55367C93.0136 3.32874 93.419 2.24908 93.6443 0.764545C92.6983 3.37373 93.1938 3.50869 90.2208 4.04852C87.6533 4.22846 83.419 4.81328 81.0316 4.54336C80.4461 4.45339 80.3109 4.45339 80.3109 3.86857C80.3109 3.23877 80.2659 2.60897 80.2208 1.93418C80.1307 2.65395 80.0406 3.28376 79.9956 4.00353C79.9506 4.49838 79.5902 4.31843 79.0947 4.22846C76.7524 3.91356 74.41 3.68863 72.0677 3.55367C67.9235 3.59866 64.4551 4.00353 60.3109 4.27345C58.6443 4.27345 58.5992 2.74393 57.9686 0.629587C58.0587 1.2144 58.419 3.23877 58.2388 3.64364C58.0587 3.95855 57.6533 3.91356 56.8424 3.82359C54.9055 3.64364 52.9235 3.41872 50.9866 3.23877C47.7434 3.10381 44.5902 3.05883 41.347 3.05883C39.6803 3.05883 37.1578 3.37373 35.8965 2.92387C35.8064 2.92387 34.1397 0.764545 33.9145 0.494629C34.1397 0.944488 34.9956 2.38404 34.8605 2.78891C34.7253 3.23877 33.9596 3.19379 33.2839 3.23877C31.4821 3.37373 29.8154 3.50869 28.0136 3.55367C21.3019 4.40841 15.0857 4.94824 8.37398 5.3981C7.42803 5.44308 7.20281 5.713 6.75236 4.94824C6.16677 3.95855 5.58119 2.96886 4.95056 2.02415C5.44605 3.37373 5.8965 4.45339 6.25686 5.84796C6.34695 6.11787 5.40101 6.61272 5.04065 6.43277C3.82443 5.80297 2.83344 5.35311 1.66227 4.67832C2.47308 5.30812 3.01362 5.89294 3.82443 6.56773C4.9956 7.51244 4.86047 7.15255 4.50011 8.63708C3.91452 10.9764 3.37398 13.2706 2.78839 15.6099C2.56317 16.5546 2.51812 16.5546 1.61722 16.9145C1.07668 17.1394 0.716322 17.4093 0.175781 17.6343C0.761367 17.4993 1.30191 17.4093 1.88749 17.2744C2.47308 17.1394 2.87848 17.0045 2.87848 17.6793C2.87848 18.6689 2.87848 19.6137 2.92353 20.6033C3.1938 24.0673 3.46407 27.5312 3.73434 31.0401C4.00461 33.9192 4.22984 36.7983 4.50011 39.6774C4.50011 39.9023 4.50011 40.1272 4.36497 40.3522C4.0947 40.982 2.60821 42.3765 2.06767 42.9614C2.96857 42.2866 3.86947 41.6568 4.77038 40.982C4.81542 40.892 5.58119 41.1169 5.67128 41.3868C5.4911 42.0167 5.26587 42.6015 5.08569 43.2313C5.40101 42.6465 5.76137 42.0616 6.07668 41.4768C6.21182 41.3868 6.34695 41.2969 6.57218 41.2519C7.51812 41.2519 8.41902 41.2519 9.36497 41.2519C10.1307 41.2519 10.8965 41.2519 11.6623 41.2519C9.63524 41.1619 7.6983 41.0719 6.03164 41.027C5.62623 40.982 5.04065 40.6671 4.90551 40.4421C4.22984 32.7495 3.55416 24.922 3.1938 17.1844C3.28389 17.0944 3.32893 17.0495 3.46407 17.0045C4.31993 16.6896 14.3199 15.295 21.0316 14.3053C24.7704 13.7655 25.5361 13.3606 29.3199 14.2153C40.6713 16.7346 64.4551 26.0017 73.374 30.2303C74.9956 30.9951 75.1307 31.31 76.392 32.5696C79.1397 35.3137 81.9325 37.9229 84.7704 40.4421C85.6713 42.0616 86.5271 43.8161 86.3019 43.996C86.1668 44.086 85.3109 44.221 84.2749 44.176C79.2298 44.041 74.2298 43.4562 69.2298 43.1413C74.5001 43.8161 79.8154 44.131 85.401 44.8058C86.0767 44.8958 86.4821 44.9407 86.7073 45.1207C86.8875 45.2556 87.0677 46.3803 87.1127 47.5049C87.2929 45.9754 87.2929 45.0757 87.5632 44.9407C87.6983 44.9407 88.3289 44.8958 88.9596 44.8508C93.1488 44.7608 97.383 44.5359 101.572 44.086C108.915 42.8264 116.077 41.3419 122.788 39.3175C125.401 37.8779 128.059 36.5284 130.806 35.3137C133.284 34.2341 135.806 36.5734 138.194 37.9229C136.978 36.9332 135.851 36.1235 134.635 35.3137C133.239 34.369 132.428 34.3241 133.869 33.0644C137.293 30.0954 140.086 27.8911 143.779 25.2819C144.05 24.4271 145.806 20.9632 146.077 21.0982C146.122 21.0982 146.212 21.2331 146.302 21.5031C145.851 27.981 145.806 35.1338 145.401 41.7467C144.77 42.0616 144.05 42.3765 143.509 42.6015C138.374 42.7814 133.149 43.0063 127.878 43.1863L128.059 43.0513ZM101.707 44.086C97.383 44.086 93.0136 44.6708 88.6893 44.086C88.0136 43.996 87.6533 43.8611 87.428 43.5912C86.7073 42.8714 85.9415 41.1619 85.446 40.2172C81.7974 37.2032 78.7343 34.2791 76.1217 31.355C75.8064 30.3653 75.8064 30.0954 76.5722 29.1057C82.2479 21.3681 92.428 14.0804 101.167 9.98666C104.095 8.5921 107.293 7.42246 110.131 6.47776C110.942 5.84796 111.257 5.53305 111.662 5.35311C112.563 4.94824 113.509 5.12818 114.455 5.17317C124.275 5.62303 134.275 6.07289 143.329 6.61272C143.644 6.83765 143.915 7.06258 144.185 7.37748C144.365 8.77204 144.41 10.1666 144.68 11.5612C145.266 13.8105 145.987 16.7795 146.392 18.534C146.572 19.3437 146.572 19.6137 145.987 20.7833C145.266 22.1779 144.5 23.5724 143.554 24.6971C139.77 27.9361 135.851 30.9951 131.887 33.8742C129.05 35.8086 125.942 37.3381 122.653 38.5977C115.987 41.027 108.915 42.6465 101.752 44.086H101.707ZM74.5902 30.0504C60.2659 23.0776 44.9956 17.8142 28.7794 13.5855C27.8785 13.3606 27.4731 13.0907 27.4731 13.0007C27.4731 12.8658 27.8785 12.5059 28.5992 11.966C29.9055 10.9764 31.2569 10.0316 32.6533 9.13193C33.419 7.37748 34.9055 4.58835 36.2118 3.50869C43.3289 3.4637 51.9325 3.50869 58.9596 4.63334C66.5722 3.95855 72.9686 3.91356 80.1758 4.90325C84.7704 4.58835 88.5542 4.54336 92.8334 3.91356C98.1938 4.27345 103.915 4.58835 109.77 4.85826C110.446 4.85826 111.212 4.90325 110.266 5.57804C108.869 6.52274 104.815 7.91731 101.032 9.71675C97.2479 11.5162 93.8695 13.5855 92.6983 14.1254C92.0226 14.4403 92.0677 14.2153 92.0677 13.6305C92.0226 11.3812 92.0677 8.68207 92.2478 6.07289C91.9325 7.33249 91.6172 11.1563 91.7524 13.8555C91.7524 14.4853 91.8875 14.6652 90.8965 15.34C84.9956 19.2988 79.9055 23.7074 76.0316 28.9707C75.401 29.8704 75.3109 30.0504 74.6352 30.0054L74.5902 30.0504ZM3.41902 16.0598C4.00461 13.2256 4.9956 10.6615 5.67128 7.19753C5.80641 7.06258 6.84245 6.07289 6.97758 5.98291C15.6713 5.66801 26.4821 4.49838 34.7704 3.68863C35.1758 3.95855 35.0406 4.36342 34.6352 4.99322C33.8244 6.29781 32.9686 7.60241 32.1578 8.95199C30.401 10.4815 28.5542 11.7861 26.6623 12.9557C26.0316 13.0907 24.5001 13.0907 23.7343 13.1807C19.9956 13.8105 4.50011 16.7346 3.73434 16.3297C3.64425 16.2847 3.55416 16.1947 3.46407 16.0598H3.41902Z" fill="url(#paint10_radial_174_11825)"/>
<g style="mix-blend-mode:screen" opacity="0.5">
<path fill-rule="evenodd" clip-rule="evenodd" d="M16.89 19.434C15.6288 19.7489 14.3675 20.2888 13.4216 21.1885C12.3405 22.2681 10.8991 25.6421 11.7099 27.1266C12.1603 27.9364 13.1063 28.6561 14.0522 28.7461C15.4936 28.8361 17.0702 28.3862 18.2414 27.5315C19.3675 26.6768 19.9531 25.4621 20.809 24.3375C21.3495 23.6177 22.0252 22.9429 22.4756 22.1332C23.2414 20.7836 21.9801 19.434 21.0342 19.2541C19.4576 18.9842 18.4666 19.0292 16.89 19.389V19.434Z" fill="#373FA5"/>
</g>
<path fill-rule="evenodd" clip-rule="evenodd" d="M16.6205 19.164C15.3593 19.4789 14.098 20.0187 13.152 20.9185C12.071 21.9981 10.6295 25.3721 11.4403 26.8566C11.8908 27.6663 12.8367 28.3861 13.7827 28.4761C15.2241 28.5661 16.8007 28.1162 17.9719 27.2615C19.098 26.4067 19.6836 25.1921 20.5394 24.0675C21.08 23.3477 21.7556 22.6729 22.2061 21.8632C22.9719 20.5136 21.7106 19.164 20.7647 18.9841C19.1881 18.7141 18.1971 18.7591 16.6205 19.119V19.164Z" fill="url(#paint11_radial_174_11825)"/>
</g>
<g clip-path="url(#clip1_174_11825)">
<path fill-rule="evenodd" clip-rule="evenodd" d="M-0.556422 1.61937C15.6273 1.34946 30.2591 0.359765 46.6645 -0.00012207C57.7493 0.134836 72.455 0.539709 86.4218 0.224808C111.991 0.584695 138.446 0.629681 145.393 0.539709C172.661 1.07954 201.038 1.70934 229.932 2.20419C231.114 2.33915 233.849 3.55377 234.366 4.31853C235.253 6.70278 236.14 8.72715 236.731 10.7965C236.879 12.2361 237.47 16.5997 237.47 19.5238C236.657 28.386 235.548 36.8883 234.957 43.4113C234.292 44.1311 229.119 45.7056 226.089 46.2454C196.826 46.9202 166.675 47.2801 134.456 47.9999C105.561 47.1451 69.2035 46.2454 40.0137 46.4704C24.6429 45.9305 10.6022 45.6606 -1.88659 45.7056C-3.29066 45.3457 -5.6554 43.9961 -6.09879 43.4563C-7.42896 34.6391 -8.02014 26.4516 -8.61133 17.6344C-8.09404 12.416 -6.54218 8.72715 -6.09879 4.4085C-5.5076 3.73371 -1.96049 1.93427 -0.556422 1.61937Z" fill="url(#paint12_radial_174_11825)"/>
<path fill-rule="evenodd" clip-rule="evenodd" d="M-0.556641 1.61944L2.91658 5.93809C17.9918 5.62318 36.9098 4.31859 50.8026 3.50884L46.6643 -0.0450439C30.2589 0.404815 15.6271 1.34952 -0.556641 1.61944Z" fill="url(#paint13_radial_174_11825)"/>
<path fill-rule="evenodd" clip-rule="evenodd" d="M46.6641 0L50.8024 3.55389C62.4783 3.5089 76.6667 3.55389 88.2688 4.67854L86.643 0.269916C86.643 0.269916 86.4952 0.269916 86.4213 0.269916C72.4545 0.584817 57.7488 0.134958 46.6641 0.0449859V0Z" fill="url(#paint14_radial_174_11825)"/>
<path fill-rule="evenodd" clip-rule="evenodd" d="M86.6445 0.269962L88.2703 4.67858C100.759 4.00379 111.253 3.95881 123.076 4.9485C130.614 4.6336 136.821 4.58861 143.842 3.95881L145.394 0.539877C138.447 0.629849 112.139 0.584863 86.6445 0.224976V0.269962Z" fill="url(#paint15_radial_174_11825)"/>
<path fill-rule="evenodd" clip-rule="evenodd" d="M145.394 0.539429L143.842 3.95836C169.706 4.99304 200.522 5.66783 226.608 6.56755L230.007 2.24889C201.039 1.70906 172.662 1.12425 145.468 0.584415L145.394 0.539429Z" fill="url(#paint16_radial_174_11825)"/>
<path fill-rule="evenodd" clip-rule="evenodd" d="M227.198 42.4667C197.121 43.1415 164.606 43.9513 134.529 44.6261V48C166.897 47.2802 196.973 46.9203 226.311 46.2456L227.272 42.4218L227.198 42.4667Z" fill="url(#paint17_radial_174_11825)"/>
<path fill-rule="evenodd" clip-rule="evenodd" d="M134.459 44.6257C121.527 43.861 96.6236 42.5114 86.869 42.4214C75.7843 42.2865 60.1918 42.5564 44.6731 42.6913L40.4609 46.4702C69.5768 46.2452 105.787 47.1899 134.533 47.9997V44.6257H134.459Z" fill="url(#paint18_radial_174_11825)"/>
<path fill-rule="evenodd" clip-rule="evenodd" d="M40.4573 46.4706L44.6695 42.6918C32.5502 42.2419 13.7061 41.0723 1.51292 40.9823L-1.8125 45.7058C10.6763 45.6608 24.717 45.9308 40.0878 46.4706C40.2356 46.4706 40.3095 46.4706 40.4573 46.4706Z" fill="url(#paint19_radial_174_11825)"/>
<path fill-rule="evenodd" clip-rule="evenodd" d="M35.1373 12.911C38.1672 11.6964 41.197 10.4368 44.1529 8.90728C45.4831 7.60268 46.8872 6.29809 48.2173 4.94851C48.8824 4.31871 49.1041 3.91384 48.439 3.64392C34.8418 4.45367 17.1062 5.6233 2.84382 5.9382C2.62212 6.02818 0.922466 7.06285 0.700771 7.15282C-0.407703 10.6167 -2.03346 13.2259 -2.99414 16.0151C-2.84634 16.15 -2.69855 16.24 -2.55075 16.285C-1.22058 16.6449 24.1265 13.7208 30.2601 13.136C31.5163 13.001 34.0289 13.046 35.0634 12.911H35.1373Z" fill="url(#paint20_radial_174_11825)"/>
<path fill-rule="evenodd" clip-rule="evenodd" d="M45.0354 9.13215C42.8185 10.0319 40.6015 10.9766 38.3846 11.9663C37.2022 12.5061 36.5371 12.911 36.5371 13.0009C36.5371 13.0909 37.2022 13.3608 38.6802 13.5858C65.2835 17.8144 90.335 23.0778 113.835 30.0506C115.017 30.0956 115.091 29.9157 116.126 29.0159C122.481 23.7526 130.831 19.344 140.512 15.3852C142.138 14.7104 141.916 14.5305 141.916 13.9007C141.768 11.2015 142.212 7.42269 142.729 6.1181C142.359 8.72728 142.359 11.4264 142.433 13.6757C142.433 14.2606 142.433 14.4855 143.468 14.1706C145.389 13.6307 150.932 11.5164 157.139 9.76196C163.346 7.96252 170.071 6.56796 172.288 5.62325C173.766 5.03843 172.805 4.94846 171.845 4.90348C162.164 4.58857 152.631 4.31866 143.763 3.91379C136.817 4.58857 130.536 4.63356 122.998 4.90348C111.174 3.8688 100.681 3.91379 88.192 4.63356C76.6639 3.50891 62.5493 3.41894 50.8734 3.50891C48.7303 4.54359 46.2917 7.3777 45.0354 9.13215Z" fill="url(#paint21_radial_174_11825)"/>
<path fill-rule="evenodd" clip-rule="evenodd" d="M111.991 30.1409C97.359 25.9122 58.3407 16.6451 39.7184 14.1259C33.5109 13.2712 32.3286 13.6761 26.1211 14.2159C15.0364 15.2056 -1.36902 16.6002 -2.69919 16.9151C-2.84699 16.9151 -2.99478 17.005 -3.14258 17.095C-2.62529 24.8326 -1.44292 32.6151 -0.334446 40.3527C-0.0388527 40.5777 0.921824 40.8926 1.51301 40.9375C4.32114 40.9375 7.42487 41.0275 10.7503 41.1625C21.9828 41.5224 35.2845 42.3321 44.6696 42.647C60.1882 42.5121 75.7807 42.2421 86.8655 42.3771C91.0038 42.3771 97.7285 42.692 105.192 43.0069C113.395 43.2768 121.598 43.9066 129.874 44.0416C131.574 44.0416 132.978 43.9516 133.2 43.8616C133.569 43.6817 132.165 41.9722 130.687 40.3077C125.958 37.7435 121.45 35.1344 116.942 32.4352C114.873 31.1756 114.651 30.8607 111.991 30.0959V30.1409Z" fill="url(#paint22_radial_174_11825)"/>
<path fill-rule="evenodd" clip-rule="evenodd" d="M157.437 9.98678C143.101 14.1255 126.326 21.3682 117.089 29.1058C115.833 30.1405 115.907 30.4104 116.35 31.3551C120.636 34.2792 125.735 37.2483 131.647 40.2173C132.46 41.162 133.716 42.8265 134.898 43.5913C135.342 43.8612 135.859 43.9961 136.968 44.0861C143.988 44.6259 151.156 44.0861 158.324 44.0861C170.074 42.6466 181.676 41.0271 192.613 38.5978C198.081 37.3382 203.106 35.8087 207.762 33.8743C214.339 30.9502 220.768 27.9362 226.902 24.6972C228.454 23.5725 229.71 22.178 230.892 20.7834C231.631 19.8837 231.853 19.4788 231.705 18.984C231.705 18.849 231.631 18.6691 231.557 18.5341C230.818 16.7347 229.636 13.7656 228.749 11.5613C228.306 10.2117 228.158 8.81714 227.936 7.37759C227.493 7.06269 227.049 6.79278 226.532 6.61283C211.679 6.073 195.273 5.66813 179.163 5.17328C178.424 5.17328 177.612 5.17328 176.873 5.1283C176.134 5.1283 175.321 5.17328 174.582 5.39821C173.843 5.57816 173.399 5.89306 172.069 6.52286C167.414 7.51255 162.167 8.68219 157.363 10.0318L157.437 9.98678Z" fill="url(#paint23_radial_174_11825)"/>
<path fill-rule="evenodd" clip-rule="evenodd" d="M206.288 35.2686C201.78 36.4832 197.42 37.8778 193.134 39.2724C182.197 41.2967 170.447 42.7813 158.328 44.0409C172.664 43.726 187.222 43.3661 201.559 43.0062C210.205 42.7813 218.851 42.6013 227.201 42.4214C228.088 42.1965 229.27 41.8816 230.305 41.5666C230.896 34.9987 231.044 27.8459 231.783 21.323C231.635 21.098 231.487 20.9631 231.413 20.9181C230.97 20.8281 228.088 24.292 227.645 25.1018C221.585 27.711 217.003 29.9153 211.387 32.8844C209.022 34.144 210.352 34.189 212.643 35.1337C214.639 35.9884 216.486 36.7981 218.481 37.7428C214.565 36.3933 210.426 34.054 206.362 35.1337L206.288 35.2686Z" fill="url(#paint24_radial_174_11825)"/>
<path opacity="0.75" fill-rule="evenodd" clip-rule="evenodd" d="M0.403584 2.87898C16.1439 2.51909 32.4754 2.69903 48.0679 1.2145L87.1601 1.61937C106.743 1.07954 125.883 1.61937 144.801 1.88929C162.61 2.20419 214.265 1.39444 228.749 3.59875C229.562 3.59875 232.075 4.31853 232.296 5.26323C235.474 7.78245 236.139 10.5716 237.1 13.6756C236.952 12.416 236.804 11.3813 236.73 10.7965C236.065 8.72715 235.252 6.70278 234.365 4.31853C233.848 3.55377 231.114 2.33915 229.931 2.20419C200.963 1.66436 172.586 1.07954 145.392 0.539709C138.445 0.629681 111.99 0.584695 86.4211 0.224808C72.4544 0.539709 57.7486 0.0898498 46.6639 -0.00012207C30.2585 0.404751 15.6266 1.34946 -0.557093 1.61937C-1.88726 1.93427 -5.50827 3.73371 -6.09946 4.4085C-6.54285 8.14233 -7.72522 11.3813 -8.31641 15.61C-6.46895 12.0561 -4.252 8.63718 -4.76929 4.94833C-2.70014 4.45349 -1.22218 3.86867 0.477482 2.87898H0.403584Z" fill="url(#paint25_linear_174_11825)"/>
<path fill-rule="evenodd" clip-rule="evenodd" d="M201.553 43.0512C207.317 43.0062 213.081 42.9163 218.845 42.8263C221.358 42.8263 223.796 42.7363 226.309 42.8263C226.53 42.8263 226.678 43.0062 226.678 43.1412C226.678 43.9059 226.53 44.7157 226.383 45.4804C226.678 44.6257 226.826 43.726 227.269 42.8713C227.491 42.5114 229.856 41.8816 230.521 42.0615C231.851 42.3764 233.107 42.8713 234.364 43.2311C233.477 42.7813 232.59 42.3764 231.703 41.9266C230.521 41.3867 230.669 41.3417 230.743 40.397C230.89 38.9575 231.038 37.5179 231.186 36.0334C231.186 30.905 231.482 26.2714 232.147 21.188C232.147 20.6932 232.147 20.0184 232.59 19.7935C232.738 19.7035 236.359 19.5685 236.802 19.5236C236.433 19.5236 232.59 19.3436 232.516 19.2986C231.925 18.8038 231.482 17.0493 231.038 16.2396C230.669 15.2949 230.373 14.3502 230.004 13.4055C229.782 12.8207 229.634 12.1909 229.856 12.0109C229.93 11.9659 230.447 11.741 231.112 11.651C232.147 11.4711 233.181 11.2911 234.216 11.1112C232.738 11.2911 231.629 11.4711 230.151 11.4261C228.821 11.4261 229.043 11.0212 228.969 10.2115C228.895 9.71662 228.452 9.17679 228.378 8.63696C228.23 7.8722 228.008 7.60229 228.969 7.06245C230.447 6.25271 231.851 5.48795 233.329 4.6782C231.925 5.308 230.447 5.93781 229.043 6.56761C227.491 7.2424 226.826 6.47764 227.565 5.44296C228.23 4.49826 228.821 3.50856 229.486 2.56386L226.974 5.308C225.939 6.38766 225.496 6.16274 223.427 6.11775C210.199 5.89282 197.119 5.35299 183.965 4.6782C178.497 4.58823 145.981 4.22834 144.577 3.55355C144.06 3.32862 144.725 2.24896 145.095 0.764422C143.543 3.37361 144.356 3.50856 139.478 4.0484C135.266 4.22834 128.32 4.81316 124.403 4.54324C123.442 4.45327 123.221 4.45327 123.221 3.86845C123.221 3.23865 123.147 2.60885 123.073 1.93406C122.925 2.65383 122.777 3.28363 122.703 4.00341C122.63 4.49826 122.038 4.31831 121.226 4.22834C117.383 3.91344 113.54 3.68851 109.697 3.55355C102.899 3.59854 97.2086 4.00341 90.41 4.27333C87.6757 4.27333 87.6018 2.7438 86.5673 0.629465C86.7151 1.21428 87.3063 3.23865 87.0107 3.64352C86.7151 3.95842 86.05 3.91344 84.7198 3.82347C81.5422 3.64352 78.2907 3.41859 75.113 3.23865C69.7924 3.10369 64.6195 3.05871 59.2988 3.05871C56.5646 3.05871 52.4263 3.37361 50.3571 2.92375C50.2093 2.92375 47.4751 0.764422 47.1056 0.494507C47.4751 0.944366 48.8792 2.38392 48.6575 2.78879C48.4358 3.23865 47.1795 3.19366 46.071 3.23865C43.1151 3.37361 40.3809 3.50856 37.425 3.55355C26.4141 4.40828 16.2162 4.94811 5.20533 5.39797C3.65347 5.44296 3.28398 5.71288 2.545 4.94811C1.58432 3.95842 0.623646 2.96873 -0.410929 2.02403C0.401951 3.37361 1.14093 4.45327 1.73212 5.84783C1.87992 6.11775 0.328053 6.61259 -0.263133 6.43265C-2.25838 5.80285 -3.88415 5.35299 -5.8055 4.6782C-4.47533 5.308 -3.58855 5.89282 -2.25839 6.56761C-0.337032 7.51231 -0.558726 7.15243 -1.14991 8.63696C-2.11059 10.9762 -2.99737 13.2705 -3.95804 15.6098C-4.32754 16.5545 -4.40143 16.5545 -5.8794 16.9144C-6.76618 17.1393 -7.35736 17.4092 -8.24414 17.6342C-7.28346 17.4992 -6.39669 17.4092 -5.43601 17.2743C-4.47533 17.1393 -3.81025 17.0043 -3.81025 17.6791C-3.81025 18.6688 -3.81025 19.6135 -3.73635 20.6032C-3.29296 24.0671 -2.84957 27.5311 -2.40618 31.04C-1.96279 33.9191 -1.5933 36.7982 -1.14991 39.6773C-1.14991 39.9022 -1.14991 40.1271 -1.37161 40.3521C-1.815 40.9819 -4.25364 42.3764 -5.14042 42.9612C-3.66245 42.2864 -2.18449 41.6566 -0.706523 40.9819C-0.632625 40.8919 0.623645 41.1168 0.771442 41.3867C0.475849 42.0165 0.106358 42.6013 -0.189235 43.2311C0.328053 42.6463 0.919239 42.0615 1.43653 41.4767C1.65822 41.3867 1.87992 41.2968 2.24941 41.2518C3.80127 41.2518 5.27923 41.2518 6.8311 41.2518C8.08736 41.2518 9.34363 41.2518 10.5999 41.2518C7.27448 41.1618 4.09686 41.0718 1.36263 41.0268C0.697544 40.9819 -0.263133 40.667 -0.484827 40.442C-1.5933 32.7494 -2.70177 24.9219 -3.29296 17.1843C-3.14516 17.0943 -3.07127 17.0493 -2.84957 17.0043C-1.44551 16.6894 14.9599 15.2949 25.9707 14.3052C32.1043 13.7654 33.3606 13.3605 39.568 14.2152C58.1904 16.7344 97.2086 26.0015 111.84 30.2302C114.501 30.995 114.722 31.3099 116.792 32.5695C121.299 35.3136 125.881 37.9228 130.537 40.442C132.015 42.0615 133.419 43.816 133.049 43.9959C132.828 44.0859 131.423 44.2208 129.724 44.1759C121.447 44.0409 113.245 43.4561 105.042 43.1412C113.688 43.816 122.408 44.1309 131.571 44.8057C132.68 44.8956 133.345 44.9406 133.714 45.1206C134.01 45.2555 134.306 46.3802 134.379 47.5048C134.675 45.9753 134.675 45.0756 135.118 44.9406C135.34 44.9406 136.375 44.8956 137.409 44.8506C144.282 44.7607 151.228 44.5357 158.101 44.0859C170.146 42.8263 181.896 41.3417 192.907 39.3174C197.193 37.8778 201.553 36.5282 206.061 35.3136C210.125 34.234 214.263 36.5732 218.18 37.9228C216.185 36.9331 214.337 36.1234 212.342 35.3136C210.051 34.3689 208.721 34.3239 211.086 33.0643C216.702 30.0953 221.284 27.8909 227.343 25.2818C227.787 24.427 230.669 20.9631 231.112 21.0981C231.186 21.0981 231.334 21.233 231.482 21.5029C230.743 27.9809 230.669 35.1337 230.004 41.7466C228.969 42.0615 227.787 42.3764 226.9 42.6013C218.476 42.7813 209.903 43.0062 201.257 43.1862L201.553 43.0512ZM158.322 44.0859C151.228 44.0859 144.06 44.6707 136.966 44.0859C135.857 43.9959 135.266 43.861 134.897 43.591C133.714 42.8713 132.458 41.1618 131.645 40.2171C125.659 37.203 120.634 34.2789 116.348 31.3549C115.831 30.3652 115.831 30.0953 117.087 29.1056C126.398 21.368 143.099 14.0803 157.436 9.98654C162.239 8.59198 167.486 7.42234 172.141 6.47764C173.472 5.84783 173.989 5.53293 174.654 5.35299C176.132 4.94811 177.684 5.12806 179.236 5.17304C195.345 5.6229 211.751 6.07276 226.604 6.61259C227.122 6.83752 227.565 7.06245 228.008 7.37736C228.304 8.77192 228.378 10.1665 228.821 11.561C229.782 13.8103 230.964 16.7794 231.629 18.5339C231.925 19.3436 231.925 19.6135 230.964 20.7832C229.782 22.1777 228.526 23.5723 226.974 24.6969C220.766 27.9359 214.337 30.995 207.834 33.8741C203.179 35.8085 198.08 37.338 192.685 38.5976C181.748 41.0268 170.146 42.6463 158.396 44.0859H158.322ZM113.836 30.0503C90.3361 23.0774 65.2846 17.8141 38.6812 13.5854C37.2033 13.3605 36.5382 13.0906 36.5382 13.0006C36.5382 12.8656 37.2033 12.5058 38.3856 11.9659C40.5287 10.9762 42.7456 10.0315 45.0365 9.13181C46.2927 7.37736 48.7314 4.58823 50.8744 3.50856C62.5503 3.46358 76.6649 3.50856 88.193 4.63321C100.682 3.95842 111.175 3.91344 122.999 4.90313C130.537 4.58823 136.744 4.54324 143.764 3.91344C152.558 4.27333 161.943 4.58823 171.55 4.85814C172.659 4.85814 173.915 4.90313 172.363 5.57792C170.072 6.52262 163.421 7.91719 157.214 9.71662C151.007 11.5161 145.464 13.5854 143.543 14.1252C142.434 14.4401 142.508 14.2152 142.508 13.6304C142.434 11.3811 142.508 8.68195 142.804 6.07276C142.287 7.33237 141.769 11.1562 141.991 13.8553C141.991 14.4851 142.213 14.6651 140.587 15.3399C130.906 19.2986 122.556 23.7073 116.2 28.9706C115.166 29.8703 115.018 30.0503 113.91 30.0053L113.836 30.0503ZM-2.92347 16.0596C-1.96279 13.2255 -0.337031 10.6613 0.771442 7.19741C0.993136 7.06245 2.6928 6.07276 2.91449 5.98279C17.1768 5.66789 34.9124 4.49826 48.5097 3.68851C49.1748 3.95842 48.9531 4.3633 48.288 4.9931C46.9578 6.29769 45.5538 7.60228 44.2236 8.95186C41.3416 10.4814 38.3117 11.786 35.208 12.9556C34.1734 13.0906 31.6609 13.0906 30.4046 13.1805C24.2711 13.8103 -1.14991 16.7344 -2.40618 16.3296C-2.55398 16.2846 -2.70177 16.1946 -2.84957 16.0596H-2.92347Z" fill="url(#paint26_radial_174_11825)"/>
<g style="mix-blend-mode:screen" opacity="0.5">
<path fill-rule="evenodd" clip-rule="evenodd" d="M33.3638 28.0258C32.6987 28.0258 31.8119 28.1608 31.3685 28.4757C30.4078 29.1955 29.7428 30.0502 29.4472 30.9049C29.1516 31.8496 31.738 32.7044 32.9943 32.7493C34.0289 32.7493 35.1373 32.5244 35.7285 32.0296C36.6892 31.2648 35.2851 28.1158 33.3638 27.9808V28.0258Z" fill="#373FA5"/>
</g>
<g style="mix-blend-mode:screen" opacity="0.5">
<path fill-rule="evenodd" clip-rule="evenodd" d="M19.1726 19.4339C17.1035 19.7488 15.0343 20.2886 13.4824 21.1884C11.7089 22.268 9.34414 25.642 10.6743 27.1265C11.4133 27.9362 12.9651 28.656 14.517 28.746C16.8818 28.836 19.4682 28.3861 21.3895 27.5314C23.237 26.6766 24.1977 25.462 25.6017 24.3374C26.4885 23.6176 27.597 22.9428 28.336 22.1331C29.5922 20.7835 27.5231 19.4339 25.9712 19.254C23.3848 18.984 21.759 19.029 19.1726 19.3889V19.4339Z" fill="#373FA5"/>
</g>
<g style="mix-blend-mode:screen" opacity="0.5">
<path fill-rule="evenodd" clip-rule="evenodd" d="M213.604 18.6692C210.944 18.9841 208.136 21.7282 207.471 23.3477C206.806 25.0572 208.062 25.9569 209.392 25.642C212.348 24.9222 220.625 22.8978 221.216 20.6935C221.511 19.5689 220.625 18.5792 218.629 18.3993C217.004 18.2193 215.23 18.4442 213.604 18.6692Z" fill="#373FA5"/>
</g>
<path fill-rule="evenodd" clip-rule="evenodd" d="M213.157 18.3542C210.497 18.6691 207.689 21.4133 207.024 23.0328C206.358 24.7422 207.615 25.6419 208.945 25.327C211.901 24.6073 220.177 22.5829 220.769 20.3786C221.064 19.2539 220.177 18.2643 218.182 18.0843C216.556 17.9044 214.783 18.1293 213.157 18.3542Z" fill="url(#paint27_radial_174_11825)"/>
<path fill-rule="evenodd" clip-rule="evenodd" d="M32.9165 27.7114C32.2514 27.7114 31.3646 27.8463 30.9213 28.1612C29.9606 28.881 29.2955 29.7357 28.9999 30.5905C28.7043 31.5352 31.2907 32.3899 32.547 32.4349C33.5816 32.4349 34.6901 32.21 35.2813 31.7151C36.2419 30.9504 34.8379 27.8013 32.9165 27.6664V27.7114Z" fill="url(#paint28_radial_174_11825)"/>
<path fill-rule="evenodd" clip-rule="evenodd" d="M18.7331 19.1639C16.664 19.4788 14.5948 20.0186 13.043 20.9183C11.2694 21.998 8.90468 25.3719 10.2349 26.8565C10.9738 27.6662 12.5257 28.386 14.0776 28.476C16.4423 28.5659 19.0287 28.1161 20.9501 27.2614C22.7975 26.4066 23.7582 25.192 25.1623 24.0674C26.0491 23.3476 27.1575 22.6728 27.8965 21.863C29.1528 20.5135 27.0836 19.1639 25.5318 18.9839C22.9453 18.714 21.3196 18.759 18.7331 19.1189V19.1639Z" fill="url(#paint29_radial_174_11825)"/>
</g>
<g clip-path="url(#clip2_174_11825)">
<path fill-rule="evenodd" clip-rule="evenodd" d="M83.865 1.61949C93.7299 1.34958 102.649 0.359888 112.649 0C119.406 0.134958 128.37 0.539831 136.883 0.22493C152.469 0.584817 168.595 0.629803 172.829 0.539831C189.451 1.07966 206.748 1.70947 224.361 2.20431C225.081 2.33927 226.748 3.55389 227.063 4.31865C227.604 6.70291 228.144 8.72727 228.505 10.7966C228.595 12.2362 228.955 16.5998 228.955 19.5239C228.46 28.3861 227.784 36.8885 227.424 43.4114C227.018 44.1312 223.865 45.7057 222.018 46.2455C204.18 46.9203 185.802 47.2802 166.162 48C148.55 47.1453 126.388 46.2455 108.595 46.4705C99.2254 45.9306 90.6668 45.6607 83.0542 45.7057C82.1983 45.3458 80.7569 43.9963 80.4866 43.4564C79.6758 34.6392 79.3154 26.4517 78.9551 17.6345C79.2704 12.4161 80.2163 8.72727 80.4866 4.40862C80.847 3.73383 83.0091 1.9344 83.865 1.61949Z" fill="url(#paint30_radial_174_11825)"/>
<path fill-rule="evenodd" clip-rule="evenodd" d="M172.827 0.539551L171.881 3.95848C187.647 4.99316 206.43 5.66795 222.331 6.56767L224.403 2.24902C206.746 1.70919 189.448 1.12437 172.872 0.584537L172.827 0.539551Z" fill="url(#paint31_radial_174_11825)"/>
<path fill-rule="evenodd" clip-rule="evenodd" d="M224.406 2.24958L222.334 6.56823C222.649 6.79316 222.92 7.01809 223.19 7.33299L227.109 4.31893C226.793 3.55417 225.127 2.33955 224.406 2.20459V2.24958Z" fill="url(#paint32_radial_174_11825)"/>
<path fill-rule="evenodd" clip-rule="evenodd" d="M227.065 4.36377L223.146 7.37783C223.327 8.77239 223.372 10.167 223.642 11.5615C224.363 14.3506 225.354 18.2194 225.579 19.614H228.957C228.957 16.6899 228.597 12.3263 228.507 10.8867C228.101 8.81738 227.606 6.79301 227.065 4.40876V4.36377Z" fill="url(#paint33_radial_174_11825)"/>
<path fill-rule="evenodd" clip-rule="evenodd" d="M228.998 19.5239H225.62C225.034 26.4967 224.989 34.4143 224.584 41.612L227.512 43.4115C227.872 36.9335 228.548 28.3862 229.043 19.5239H228.998Z" fill="url(#paint34_radial_174_11825)"/>
<path fill-rule="evenodd" clip-rule="evenodd" d="M224.585 41.6118C223.954 41.9267 223.234 42.2416 222.693 42.4665L222.107 46.2904C223.909 45.7505 227.107 44.131 227.513 43.4562L224.585 41.6568V41.6118Z" fill="url(#paint35_radial_174_11825)"/>
<path fill-rule="evenodd" clip-rule="evenodd" d="M222.695 42.4669C204.362 43.1416 184.542 43.9514 166.209 44.6262V48.0001C185.939 47.2804 204.272 46.9205 222.155 46.2457L222.741 42.4219L222.695 42.4669Z" fill="url(#paint36_radial_174_11825)"/>
<path fill-rule="evenodd" clip-rule="evenodd" d="M180.171 9.9869C171.432 14.1256 161.207 21.3683 155.576 29.1059C154.811 30.1406 154.856 30.4105 155.126 31.3552C157.739 34.2793 160.847 37.2484 164.45 40.2174C164.946 41.1622 165.712 42.8266 166.432 43.5914C166.703 43.8613 167.018 43.9963 167.694 44.0862C171.973 44.6261 176.342 44.0862 180.712 44.0862C187.874 42.6467 194.946 41.0272 201.613 38.598C204.946 37.3383 208.009 35.8088 210.847 33.8744C214.856 30.9503 218.775 27.9363 222.513 24.6973C223.459 23.5727 224.225 22.1781 224.946 20.7835C225.396 19.8838 225.531 19.4789 225.441 18.9841C225.441 18.8491 225.396 18.6692 225.351 18.5342C224.901 16.7348 224.18 13.7657 223.64 11.5614C223.369 10.2118 223.279 8.81726 223.144 7.37771C222.874 7.06281 222.604 6.7929 222.288 6.61295C213.234 6.07312 203.234 5.66825 193.414 5.1734C192.964 5.1734 192.468 5.1734 192.018 5.12842C191.567 5.12842 191.072 5.1734 190.622 5.39833C190.171 5.57828 189.901 5.89318 189.09 6.52298C186.252 7.51267 183.054 8.68231 180.126 10.0319L180.171 9.9869Z" fill="url(#paint37_radial_174_11825)"/>
<path fill-rule="evenodd" clip-rule="evenodd" d="M209.947 35.2687C207.199 36.4834 204.542 37.8779 201.929 39.2725C195.262 41.2969 188.1 42.7814 180.713 44.041C189.452 43.7261 198.326 43.3662 207.064 43.0063C212.335 42.7814 217.605 42.6014 222.695 42.4215C223.235 42.1966 223.956 41.8817 224.587 41.5668C224.947 34.9988 225.037 27.8461 225.488 21.3231C225.398 21.0982 225.307 20.9632 225.262 20.9182C224.992 20.8283 223.235 24.2922 222.965 25.1019C219.271 27.7111 216.479 29.9154 213.055 32.8845C211.614 34.1441 212.425 34.1891 213.821 35.1338C215.037 35.9885 216.163 36.7983 217.38 37.743C214.992 36.3934 212.47 34.0541 209.992 35.1338L209.947 35.2687Z" fill="url(#paint38_radial_174_11825)"/>
<path opacity="0.75" fill-rule="evenodd" clip-rule="evenodd" d="M84.4501 2.8791C94.0447 2.51921 104 2.69916 113.504 1.21462L137.333 1.61949C149.27 1.07966 160.937 1.61949 172.468 1.88941C183.324 2.20431 214.81 1.39456 223.639 3.59888C224.135 3.59888 225.666 4.31865 225.801 5.26336C227.738 7.78257 228.144 10.5717 228.729 13.6757C228.639 12.4161 228.549 11.3814 228.504 10.7966C228.099 8.72727 227.603 6.70291 227.063 4.31865C226.747 3.55389 225.081 2.33927 224.36 2.20431C206.702 1.66448 189.405 1.07966 172.828 0.539831C168.594 0.629803 152.468 0.584817 136.883 0.22493C128.369 0.539831 119.405 0.0899719 112.648 0C102.648 0.404873 93.7294 1.34958 83.8645 1.61949C83.0537 1.9344 80.8465 3.73383 80.4861 4.40862C80.2158 8.14246 79.4951 11.3814 79.1348 15.6101C80.2609 12.0562 81.6122 8.6373 81.2969 4.94845C82.5582 4.45361 83.4591 3.86879 84.4951 2.8791H84.4501Z" fill="url(#paint39_linear_174_11825)"/>
<path fill-rule="evenodd" clip-rule="evenodd" d="M207.065 43.0513C210.578 43.0063 214.092 42.9164 217.605 42.8264C219.137 42.8264 220.623 42.7364 222.155 42.8264C222.29 42.8264 222.38 43.0063 222.38 43.1413C222.38 43.9061 222.29 44.7158 222.2 45.4806C222.38 44.6258 222.47 43.7261 222.74 42.8714C222.875 42.5115 224.317 41.8817 224.722 42.0616C225.533 42.3765 226.299 42.8714 227.065 43.2313C226.524 42.7814 225.983 42.3765 225.443 41.9267C224.722 41.3868 224.812 41.3419 224.857 40.3972C224.947 38.9576 225.037 37.5181 225.128 36.0335C225.128 30.9051 225.308 26.2716 225.713 21.1882C225.713 20.6933 225.713 20.0185 225.983 19.7936C226.074 19.7036 228.281 19.5687 228.551 19.5237C228.326 19.5237 225.983 19.3437 225.938 19.2987C225.578 18.8039 225.308 17.0495 225.037 16.2397C224.812 15.295 224.632 14.3503 224.407 13.4056C224.272 12.8208 224.182 12.191 224.317 12.011C224.362 11.966 224.677 11.7411 225.083 11.6511C225.713 11.4712 226.344 11.2913 226.974 11.1113C226.074 11.2913 225.398 11.4712 224.497 11.4262C223.686 11.4262 223.821 11.0213 223.776 10.2116C223.731 9.71675 223.461 9.17691 223.416 8.63708C223.326 7.87232 223.191 7.60241 223.776 7.06258C224.677 6.25283 225.533 5.48807 226.434 4.67832C225.578 5.30812 224.677 5.93793 223.821 6.56773C222.875 7.24252 222.47 6.47776 222.92 5.44308C223.326 4.49838 223.686 3.50869 224.092 2.56398L222.56 5.30812C221.929 6.38779 221.659 6.16286 220.398 6.11787C212.335 5.89294 204.362 5.35311 196.344 4.67832C193.01 4.58835 173.191 4.22846 172.335 3.55367C172.019 3.32874 172.425 2.24908 172.65 0.764545C171.704 3.37373 172.2 3.50869 169.227 4.04852C166.659 4.22846 162.425 4.81328 160.037 4.54336C159.452 4.45339 159.317 4.45339 159.317 3.86857C159.317 3.23877 159.272 2.60897 159.227 1.93418C159.137 2.65395 159.047 3.28376 159.001 4.00353C158.956 4.49838 158.596 4.31843 158.101 4.22846C155.758 3.91356 153.416 3.68863 151.074 3.55367C146.929 3.59866 143.461 4.00353 139.317 4.27345C137.65 4.27345 137.605 2.74393 136.974 0.629587C137.065 1.2144 137.425 3.23877 137.245 3.64364C137.065 3.95855 136.659 3.91356 135.848 3.82359C133.911 3.64364 131.929 3.41872 129.992 3.23877C126.749 3.10381 123.596 3.05883 120.353 3.05883C118.686 3.05883 116.164 3.37373 114.902 2.92387C114.812 2.92387 113.146 0.764545 112.92 0.494629C113.146 0.944488 114.001 2.38404 113.866 2.78891C113.731 3.23877 112.965 3.19379 112.29 3.23877C110.488 3.37373 108.821 3.50869 107.019 3.55367C100.308 4.40841 94.0916 4.94824 87.3798 5.3981C86.4339 5.44308 86.2087 5.713 85.7582 4.94824C85.1726 3.95855 84.587 2.96886 83.9564 2.02415C84.4519 3.37373 84.9024 4.45339 85.2627 5.84796C85.3528 6.11787 84.4069 6.61272 84.0465 6.43277C82.8303 5.80297 81.8393 5.35311 80.6681 4.67832C81.4789 5.30812 82.0195 5.89294 82.8303 6.56773C84.0015 7.51244 83.8663 7.15255 83.506 8.63708C82.9204 10.9764 82.3798 13.2706 81.7943 15.6099C81.569 16.5546 81.524 16.5546 80.6231 16.9145C80.0825 17.1394 79.7222 17.4093 79.1816 17.6343C79.7672 17.4993 80.3078 17.4093 80.8934 17.2744C81.4789 17.1394 81.8843 17.0045 81.8843 17.6793C81.8843 18.6689 81.8843 19.6137 81.9294 20.6033C82.1997 24.0673 82.4699 27.5312 82.7402 31.0401C83.0105 33.9192 83.2357 36.7983 83.506 39.6774C83.506 39.9023 83.506 40.1272 83.3708 40.3522C83.1006 40.982 81.6141 42.3765 81.0735 42.9614C81.9744 42.2866 82.8753 41.6568 83.7762 40.982C83.8213 40.892 84.587 41.1169 84.6771 41.3868C84.497 42.0167 84.2717 42.6015 84.0916 43.2313C84.4069 42.6465 84.7672 42.0616 85.0825 41.4768C85.2177 41.3868 85.3528 41.2969 85.578 41.2519C86.524 41.2519 87.4249 41.2519 88.3708 41.2519C89.1366 41.2519 89.9024 41.2519 90.6681 41.2519C88.6411 41.1619 86.7042 41.0719 85.0375 41.027C84.6321 40.982 84.0465 40.6671 83.9114 40.4421C83.2357 32.7495 82.56 24.922 82.1997 17.1844C82.2897 17.0944 82.3348 17.0495 82.4699 17.0045C83.3258 16.6896 93.3258 15.295 100.037 14.3053C103.776 13.7655 104.542 13.3606 108.326 14.2153C119.677 16.7346 143.461 26.0017 152.38 30.2303C154.001 30.9951 154.137 31.31 155.398 32.5696C158.146 35.3137 160.938 37.9229 163.776 40.4421C164.677 42.0616 165.533 43.8161 165.308 43.996C165.173 44.086 164.317 44.221 163.281 44.176C158.236 44.041 153.236 43.4562 148.236 43.1413C153.506 43.8161 158.821 44.131 164.407 44.8058C165.083 44.8958 165.488 44.9407 165.713 45.1207C165.893 45.2556 166.074 46.3803 166.119 47.5049C166.299 45.9754 166.299 45.0757 166.569 44.9407C166.704 44.9407 167.335 44.8958 167.965 44.8508C172.155 44.7608 176.389 44.5359 180.578 44.086C187.92 42.8264 195.083 41.3419 201.794 39.3175C204.407 37.8779 207.065 36.5284 209.812 35.3137C212.29 34.2341 214.812 36.5734 217.2 37.9229C215.983 36.9332 214.857 36.1235 213.641 35.3137C212.245 34.369 211.434 34.3241 212.875 33.0644C216.299 30.0954 219.092 27.8911 222.785 25.2819C223.056 24.4271 224.812 20.9632 225.083 21.0982C225.128 21.0982 225.218 21.2331 225.308 21.5031C224.857 27.981 224.812 35.1338 224.407 41.7467C223.776 42.0616 223.056 42.3765 222.515 42.6015C217.38 42.7814 212.155 43.0063 206.884 43.1863L207.065 43.0513ZM180.713 44.086C176.389 44.086 172.019 44.6708 167.695 44.086C167.019 43.996 166.659 43.8611 166.434 43.5912C165.713 42.8714 164.947 41.1619 164.452 40.2172C160.803 37.2032 157.74 34.2791 155.128 31.355C154.812 30.3653 154.812 30.0954 155.578 29.1057C161.254 21.3681 171.434 14.0804 180.173 9.98666C183.101 8.5921 186.299 7.42246 189.137 6.47776C189.947 5.84796 190.263 5.53305 190.668 5.35311C191.569 4.94824 192.515 5.12818 193.461 5.17317C203.281 5.62303 213.281 6.07289 222.335 6.61272C222.65 6.83765 222.92 7.06258 223.191 7.37748C223.371 8.77204 223.416 10.1666 223.686 11.5612C224.272 13.8105 224.992 16.7795 225.398 18.534C225.578 19.3437 225.578 19.6137 224.992 20.7833C224.272 22.1779 223.506 23.5724 222.56 24.6971C218.776 27.9361 214.857 30.9951 210.893 33.8742C208.056 35.8086 204.947 37.3381 201.659 38.5977C194.992 41.027 187.92 42.6465 180.758 44.086H180.713ZM153.596 30.0504C139.272 23.0776 124.001 17.8142 107.785 13.5855C106.884 13.3606 106.479 13.0907 106.479 13.0007C106.479 12.8658 106.884 12.5059 107.605 11.966C108.911 10.9764 110.263 10.0316 111.659 9.13193C112.425 7.37748 113.911 4.58835 115.218 3.50869C122.335 3.4637 130.938 3.50869 137.965 4.63334C145.578 3.95855 151.974 3.91356 159.182 4.90325C163.776 4.58835 167.56 4.54336 171.839 3.91356C177.2 4.27345 182.92 4.58835 188.776 4.85826C189.452 4.85826 190.218 4.90325 189.272 5.57804C187.875 6.52274 183.821 7.91731 180.037 9.71675C176.254 11.5162 172.875 13.5855 171.704 14.1254C171.028 14.4403 171.074 14.2153 171.074 13.6305C171.028 11.3812 171.074 8.68207 171.254 6.07289C170.938 7.33249 170.623 11.1563 170.758 13.8555C170.758 14.4853 170.893 14.6652 169.902 15.34C164.001 19.2988 158.911 23.7074 155.037 28.9707C154.407 29.8704 154.317 30.0504 153.641 30.0054L153.596 30.0504ZM82.4249 16.0598C83.0105 13.2256 84.0015 10.6615 84.6771 7.19753C84.8123 7.06258 85.8483 6.07289 85.9834 5.98291C94.6771 5.66801 105.488 4.49838 113.776 3.68863C114.182 3.95855 114.047 4.36342 113.641 4.99322C112.83 6.29781 111.974 7.60241 111.164 8.95199C109.407 10.4815 107.56 11.7861 105.668 12.9557C105.037 13.0907 103.506 13.0907 102.74 13.1807C99.0015 13.8105 83.506 16.7346 82.7402 16.3297C82.6501 16.2847 82.56 16.1947 82.4699 16.0598H82.4249Z" fill="url(#paint40_radial_174_11825)"/>
<g style="mix-blend-mode:screen" opacity="0.5">
<path fill-rule="evenodd" clip-rule="evenodd" d="M214.407 18.6693C212.786 18.9842 211.074 21.7283 210.669 23.3478C210.263 25.0573 211.029 25.957 211.84 25.6421C213.642 24.9223 218.687 22.898 219.047 20.6937C219.227 19.569 218.687 18.5793 217.47 18.3994C216.479 18.2194 215.398 18.4444 214.407 18.6693Z" fill="#373FA5"/>
</g>
<path fill-rule="evenodd" clip-rule="evenodd" d="M214.138 18.3543C212.516 18.6692 210.804 21.4134 210.399 23.0329C209.994 24.7424 210.759 25.6421 211.57 25.3272C213.372 24.6074 218.417 22.583 218.777 20.3787C218.958 19.2541 218.417 18.2644 217.201 18.0844C216.21 17.9045 215.129 18.1294 214.138 18.3543Z" fill="url(#paint41_radial_174_11825)"/>
</g>
<defs>
<radialGradient id="paint0_radial_174_11825" cx="0" cy="0" r="1" gradientUnits="userSpaceOnUse" gradientTransform="translate(26.0342 0.584876) scale(171.441 171.217)">
<stop stop-color="#676C94"/>
<stop offset="1" stop-color="#17233A"/>
</radialGradient>
<radialGradient id="paint1_radial_174_11825" cx="0" cy="0" r="1" gradientUnits="userSpaceOnUse" gradientTransform="translate(0.225225 19.4342) scale(34.8649 34.8191)">
<stop stop-color="#5A6084"/>
<stop offset="1" stop-color="#323B63"/>
</radialGradient>
<radialGradient id="paint2_radial_174_11825" cx="0" cy="0" r="1" gradientUnits="userSpaceOnUse" gradientTransform="translate(9.81771 6.92797) scale(12.8829 12.866)">
<stop stop-color="#8899C2"/>
<stop offset="1" stop-color="#727696"/>
</radialGradient>
<radialGradient id="paint3_radial_174_11825" cx="0" cy="0" r="1" gradientUnits="userSpaceOnUse" gradientTransform="translate(36.2597 -29.6907) scale(52.2523 52.1837)">
<stop stop-color="#8899C2"/>
<stop offset="1" stop-color="#727696"/>
</radialGradient>
<radialGradient id="paint4_radial_174_11825" cx="0" cy="0" r="1" gradientUnits="userSpaceOnUse" gradientTransform="translate(32.2508 13.0012) scale(55.7658 55.6926)">
<stop stop-color="#4E5470"/>
<stop offset="1" stop-color="#252E4F"/>
</radialGradient>
<radialGradient id="paint5_radial_174_11825" cx="0" cy="0" r="1" gradientUnits="userSpaceOnUse" gradientTransform="translate(9.72945 33.6041) scale(27.3874 27.3515)">
<stop stop-color="#5A6084"/>
<stop offset="1" stop-color="#323B63"/>
</radialGradient>
<radialGradient id="paint6_radial_174_11825" cx="0" cy="0" r="1" gradientUnits="userSpaceOnUse" gradientTransform="translate(-0.315314 14.1709) scale(48.6937 48.6298)">
<stop stop-color="#5A6084"/>
<stop offset="1" stop-color="#323B63"/>
</radialGradient>
<radialGradient id="paint7_radial_174_11825" cx="0" cy="0" r="1" gradientUnits="userSpaceOnUse" gradientTransform="translate(27.4291 12.731) scale(58.6937 58.6167)">
<stop stop-color="#4E5B7D"/>
<stop offset="1" stop-color="#313556"/>
</radialGradient>
<radialGradient id="paint8_radial_174_11825" cx="0" cy="0" r="1" gradientUnits="userSpaceOnUse" gradientTransform="translate(46.9828 -14.35) scale(133.694 133.518)">
<stop stop-color="#4E5B7D"/>
<stop offset="1" stop-color="#313556"/>
</radialGradient>
<linearGradient id="paint9_linear_174_11825" x1="52.6931" y1="0" x2="52.6931" y2="15.6101" gradientUnits="userSpaceOnUse">
<stop stop-color="#A0DBF0"/>
<stop offset="1" stop-color="#00FFEA"/>
</linearGradient>
<radialGradient id="paint10_radial_174_11825" cx="0" cy="0" r="1" gradientUnits="userSpaceOnUse" gradientTransform="translate(22.2479 -29.466) scale(168.784 168.562)">
<stop stop-color="#7C8FB2"/>
<stop offset="1" stop-color="#515682"/>
</radialGradient>
<radialGradient id="paint11_radial_174_11825" cx="0" cy="0" r="1" gradientUnits="userSpaceOnUse" gradientTransform="translate(21.4854 29.0609) scale(14.7297 14.7104)">
<stop stop-color="#5A6084"/>
<stop offset="1" stop-color="#323B63"/>
</radialGradient>
<radialGradient id="paint12_radial_174_11825" cx="0" cy="0" r="1" gradientUnits="userSpaceOnUse" gradientTransform="translate(34.1757 0.584693) scale(281.257 171.217)">
<stop stop-color="#676C94"/>
<stop offset="1" stop-color="#17233A"/>
</radialGradient>
<radialGradient id="paint13_radial_174_11825" cx="0" cy="0" r="1" gradientUnits="userSpaceOnUse" gradientTransform="translate(50.9504 -29.6908) scale(85.7219 52.1837)">
<stop stop-color="#8899C2"/>
<stop offset="1" stop-color="#727696"/>
</radialGradient>
<radialGradient id="paint14_radial_174_11825" cx="0" cy="0" r="1" gradientUnits="userSpaceOnUse" gradientTransform="translate(74.5976 -39.0478) scale(84.3918 51.3739)">
<stop stop-color="#8899C2"/>
<stop offset="1" stop-color="#727696"/>
</radialGradient>
<radialGradient id="paint15_radial_174_11825" cx="0" cy="0" r="1" gradientUnits="userSpaceOnUse" gradientTransform="translate(124.037 -21.6382) scale(88.1606 53.6682)">
<stop stop-color="#8899C2"/>
<stop offset="1" stop-color="#727696"/>
</radialGradient>
<radialGradient id="paint16_radial_174_11825" cx="0" cy="0" r="1" gradientUnits="userSpaceOnUse" gradientTransform="translate(159.952 -39.4081) scale(107.891 65.6795)">
<stop stop-color="#8899C2"/>
<stop offset="1" stop-color="#727696"/>
</radialGradient>
<radialGradient id="paint17_radial_174_11825" cx="0" cy="0" r="1" gradientUnits="userSpaceOnUse" gradientTransform="translate(163.202 4.13873) scale(112.104 68.2437)">
<stop stop-color="#4E5470"/>
<stop offset="1" stop-color="#252E4F"/>
</radialGradient>
<radialGradient id="paint18_radial_174_11825" cx="0" cy="0" r="1" gradientUnits="userSpaceOnUse" gradientTransform="translate(83.7653 5.398) scale(93.9246 57.1771)">
<stop stop-color="#4E5470"/>
<stop offset="1" stop-color="#252E4F"/>
</radialGradient>
<radialGradient id="paint19_radial_174_11825" cx="0" cy="0" r="1" gradientUnits="userSpaceOnUse" gradientTransform="translate(44.3739 13.001) scale(91.486 55.6926)">
<stop stop-color="#4E5470"/>
<stop offset="1" stop-color="#252E4F"/>
</radialGradient>
<radialGradient id="paint20_radial_174_11825" cx="0" cy="0" r="1" gradientUnits="userSpaceOnUse" gradientTransform="translate(36.4675 12.7311) scale(96.2894 58.6167)">
<stop stop-color="#4E5B7D"/>
<stop offset="1" stop-color="#313556"/>
</radialGradient>
<radialGradient id="paint21_radial_174_11825" cx="0" cy="0" r="1" gradientUnits="userSpaceOnUse" gradientTransform="translate(92.9954 31.4452) scale(182.159 110.89)">
<stop stop-color="#4E5B7D"/>
<stop offset="1" stop-color="#313556"/>
</radialGradient>
<radialGradient id="paint22_radial_174_11825" cx="0" cy="0" r="1" gradientUnits="userSpaceOnUse" gradientTransform="translate(68.5387 -14.3502) scale(219.33 133.518)">
<stop stop-color="#4E5B7D"/>
<stop offset="1" stop-color="#313556"/>
</radialGradient>
<radialGradient id="paint23_radial_174_11825" cx="0" cy="0" r="1" gradientUnits="userSpaceOnUse" gradientTransform="translate(105.93 19.9737) scale(230.784 140.491)">
<stop stop-color="#4E5B7D"/>
<stop offset="1" stop-color="#313556"/>
</radialGradient>
<radialGradient id="paint24_radial_174_11825" cx="0" cy="0" r="1" gradientUnits="userSpaceOnUse" gradientTransform="translate(176.507 9.22176) scale(112.251 68.3336)">
<stop stop-color="#1A1F3A"/>
<stop offset="1" stop-color="#647394"/>
</radialGradient>
<linearGradient id="paint25_linear_174_11825" x1="77.9108" y1="-0.00012207" x2="77.9108" y2="15.61" gradientUnits="userSpaceOnUse">
<stop stop-color="#A0DBF0"/>
<stop offset="1" stop-color="#00FFEA"/>
</linearGradient>
<radialGradient id="paint26_radial_174_11825" cx="0" cy="0" r="1" gradientUnits="userSpaceOnUse" gradientTransform="translate(27.966 -29.4661) scale(276.897 168.562)">
<stop stop-color="#7C8FB2"/>
<stop offset="1" stop-color="#515682"/>
</radialGradient>
<radialGradient id="paint27_radial_174_11825" cx="0" cy="0" r="1" gradientUnits="userSpaceOnUse" gradientTransform="translate(218.108 29.8706) scale(22.2434 13.5408)">
<stop stop-color="#5A6084"/>
<stop offset="1" stop-color="#323B63"/>
</radialGradient>
<radialGradient id="paint28_radial_174_11825" cx="0" cy="0" r="1" gradientUnits="userSpaceOnUse" gradientTransform="translate(35.429 34.3243) scale(14.0407 8.54733)">
<stop stop-color="#5A6084"/>
<stop offset="1" stop-color="#323B63"/>
</radialGradient>
<radialGradient id="paint29_radial_174_11825" cx="0" cy="0" r="1" gradientUnits="userSpaceOnUse" gradientTransform="translate(26.7142 29.0608) scale(24.1647 14.7104)">
<stop stop-color="#5A6084"/>
<stop offset="1" stop-color="#323B63"/>
</radialGradient>
<radialGradient id="paint30_radial_174_11825" cx="0" cy="0" r="1" gradientUnits="userSpaceOnUse" gradientTransform="translate(105.036 0.584815) scale(171.441 171.217)">
<stop stop-color="#676C94"/>
<stop offset="1" stop-color="#17233A"/>
</radialGradient>
<radialGradient id="paint31_radial_174_11825" cx="0" cy="0" r="1" gradientUnits="userSpaceOnUse" gradientTransform="translate(181.701 -39.408) scale(65.7658 65.6795)">
<stop stop-color="#8899C2"/>
<stop offset="1" stop-color="#727696"/>
</radialGradient>
<radialGradient id="paint32_radial_174_11825" cx="0" cy="0" r="1" gradientUnits="userSpaceOnUse" gradientTransform="translate(216.658 -13.2706) scale(21.0811 21.0534)">
<stop stop-color="#8899C2"/>
<stop offset="1" stop-color="#727696"/>
</radialGradient>
<radialGradient id="paint33_radial_174_11825" cx="0" cy="0" r="1" gradientUnits="userSpaceOnUse" gradientTransform="translate(224.183 6.88298) scale(49.1442 49.0797)">
<stop stop-color="#5A6084"/>
<stop offset="1" stop-color="#323B63"/>
</radialGradient>
<radialGradient id="paint34_radial_174_11825" cx="0" cy="0" r="1" gradientUnits="userSpaceOnUse" gradientTransform="translate(209.989 13.4958) scale(45.9911 45.9306)">
<stop stop-color="#5A6084"/>
<stop offset="1" stop-color="#323B63"/>
</radialGradient>
<radialGradient id="paint35_radial_174_11825" cx="0" cy="0" r="1" gradientUnits="userSpaceOnUse" gradientTransform="translate(222.558 31.49) scale(26.8469 26.8116)">
<stop stop-color="#5A6084"/>
<stop offset="1" stop-color="#323B63"/>
</radialGradient>
<radialGradient id="paint36_radial_174_11825" cx="0" cy="0" r="1" gradientUnits="userSpaceOnUse" gradientTransform="translate(183.686 4.13885) scale(68.3333 68.2437)">
<stop stop-color="#4E5470"/>
<stop offset="1" stop-color="#252E4F"/>
</radialGradient>
<radialGradient id="paint37_radial_174_11825" cx="0" cy="0" r="1" gradientUnits="userSpaceOnUse" gradientTransform="translate(148.775 19.9738) scale(140.676 140.491)">
<stop stop-color="#4E5B7D"/>
<stop offset="1" stop-color="#313556"/>
</radialGradient>
<radialGradient id="paint38_radial_174_11825" cx="0" cy="0" r="1" gradientUnits="userSpaceOnUse" gradientTransform="translate(191.794 9.22188) scale(68.4234 68.3336)">
<stop stop-color="#1A1F3A"/>
<stop offset="1" stop-color="#647394"/>
</radialGradient>
<linearGradient id="paint39_linear_174_11825" x1="131.695" y1="0" x2="131.695" y2="15.6101" gradientUnits="userSpaceOnUse">
<stop stop-color="#A0DBF0"/>
<stop offset="1" stop-color="#00FFEA"/>
</linearGradient>
<radialGradient id="paint40_radial_174_11825" cx="0" cy="0" r="1" gradientUnits="userSpaceOnUse" gradientTransform="translate(101.254 -29.466) scale(168.784 168.562)">
<stop stop-color="#7C8FB2"/>
<stop offset="1" stop-color="#515682"/>
</radialGradient>
<radialGradient id="paint41_radial_174_11825" cx="0" cy="0" r="1" gradientUnits="userSpaceOnUse" gradientTransform="translate(217.156 29.8708) scale(13.5586 13.5408)">
<stop stop-color="#5A6084"/>
<stop offset="1" stop-color="#323B63"/>
</radialGradient>
<clipPath id="clip0_174_11825">
<rect width="13.3333" height="48" fill="white"/>
</clipPath>
<clipPath id="clip1_174_11825">
<rect width="202.333" height="48" fill="white" transform="translate(13.334)"/>
</clipPath>
<clipPath id="clip2_174_11825">
<rect width="13.3333" height="48" fill="white" transform="translate(215.666)"/>
</clipPath>
</defs>
</svg>
