<svg width="270" height="48" viewBox="0 0 270 48" fill="none" xmlns="http://www.w3.org/2000/svg">
<g clip-path="url(#clip0_174_67025)">
<path fill-rule="evenodd" clip-rule="evenodd" d="M4.86304 1.61955C14.7279 1.34964 23.6468 0.359949 33.6468 6.10352e-05C40.4036 0.135019 49.3675 0.539892 57.8811 0.224991C73.4667 0.584878 89.5928 0.629864 93.827 0.539892C110.449 1.07972 127.746 1.70953 145.359 2.20437C146.079 2.33933 147.746 3.55395 148.061 4.31871C148.602 6.70297 149.142 8.72733 149.503 10.7967C149.593 12.2362 149.953 16.5999 149.953 19.524C149.458 28.3862 148.782 36.8885 148.422 43.4115C148.016 44.1313 144.863 45.7058 143.016 46.2456C125.178 46.9204 106.8 47.2803 87.1603 48.0001C69.5477 47.1453 47.3856 46.2456 29.5928 46.4705C20.2234 45.9307 11.6648 45.6608 4.05222 45.7058C3.19637 45.3459 1.75493 43.9963 1.48466 43.4565C0.673846 34.6392 0.313485 26.4518 -0.046875 17.6346C0.26844 12.4162 1.21439 8.72733 1.48466 4.40868C1.84502 3.73389 4.00718 1.93446 4.86304 1.61955Z" fill="url(#paint0_radial_174_67025)"/>
<path fill-rule="evenodd" clip-rule="evenodd" d="M3.28829 16.69C3.82883 13.631 4.90991 10.8868 5.67568 7.198L1.48649 4.40887C1.17117 8.72752 0.27027 12.3714 0 17.6347L3.28829 16.69Z" fill="url(#paint1_radial_174_67025)"/>
<path fill-rule="evenodd" clip-rule="evenodd" d="M1.48438 4.40876L5.67356 7.1529C5.67356 7.1529 6.84474 6.02825 6.97987 5.93828L4.86275 1.61963C4.05194 1.93453 1.84474 3.73397 1.48438 4.40876Z" fill="url(#paint2_radial_174_67025)"/>
<path fill-rule="evenodd" clip-rule="evenodd" d="M4.86328 1.61956L6.9804 5.93821C16.1696 5.62331 27.7011 4.31871 36.1696 3.50897L33.6471 -0.0449219C23.6471 0.404938 14.7281 1.34964 4.86328 1.61956Z" fill="url(#paint3_radial_174_67025)"/>
<path fill-rule="evenodd" clip-rule="evenodd" d="M29.8634 46.4707L32.431 42.6919C25.0436 42.242 13.5571 41.0724 6.12468 40.9824L4.09766 45.7059C11.7103 45.661 20.2688 45.9309 29.6382 46.4707C29.7283 46.4707 29.7733 46.4707 29.8634 46.4707Z" fill="url(#paint4_radial_174_67025)"/>
<path fill-rule="evenodd" clip-rule="evenodd" d="M4.09882 45.7053L6.12584 40.9818C5.72044 40.9368 5.13485 40.6219 4.99972 40.397L1.53125 43.501C1.84657 44.0408 3.28801 45.3904 4.09882 45.7503V45.7053Z" fill="url(#paint5_radial_174_67025)"/>
<path fill-rule="evenodd" clip-rule="evenodd" d="M1.53153 43.4568L5 40.3527C4.32432 32.4802 3.6036 24.5627 3.28829 16.6901L0 17.6348C0.36036 26.4521 0.720721 34.6395 1.53153 43.4568Z" fill="url(#paint6_radial_174_67025)"/>
<path fill-rule="evenodd" clip-rule="evenodd" d="M26.6182 12.911C28.4651 11.6963 30.3119 10.4367 32.1137 8.90722C32.9246 7.60262 33.7804 6.29803 34.5912 4.94845C34.9966 4.31865 35.1318 3.91378 34.7264 3.64386C26.4381 4.45361 15.6273 5.62324 6.93356 5.93814C6.79842 6.02811 5.76239 7.06279 5.62725 7.15276C4.95158 10.6167 3.96059 13.2259 3.375 16.015C3.46509 16.15 3.55518 16.2399 3.64527 16.2849C4.45608 16.6448 19.9065 13.7207 23.6453 13.1359C24.411 13.0009 25.9426 13.0459 26.5732 12.911H26.6182Z" fill="url(#paint7_radial_174_67025)"/>
<path fill-rule="evenodd" clip-rule="evenodd" d="M73.4693 30.141C64.5503 25.9124 40.7665 16.6453 29.4152 14.1261C25.6314 13.2713 24.9107 13.6762 21.1269 14.216C14.3701 15.2057 4.37014 16.6003 3.55933 16.9152C3.46924 16.9152 3.37915 17.0051 3.28906 17.0951C3.60438 24.8327 4.3251 32.6153 5.00077 40.3529C5.18095 40.5778 5.76654 40.8927 6.1269 40.9377C7.83861 40.9377 9.7305 41.0276 11.7575 41.1626C18.6044 41.5225 26.7125 42.3322 32.4332 42.6471C41.8927 42.5122 51.3972 42.2423 58.1539 42.3772C60.6765 42.3772 64.7756 42.6921 69.3251 43.007C74.3251 43.2769 79.3251 43.9067 84.3702 44.0417C85.4062 44.0417 86.2621 43.9517 86.3972 43.8618C86.6224 43.6818 85.7666 41.9723 84.8657 40.3079C81.9828 37.7437 79.235 35.1345 76.4873 32.4353C75.226 31.1757 75.0909 30.8608 73.4693 30.0961V30.141Z" fill="url(#paint8_radial_174_67025)"/>
<path opacity="0.75" fill-rule="evenodd" clip-rule="evenodd" d="M5.44813 2.8791C15.0427 2.51921 24.9977 2.69916 34.5022 1.21462L58.331 1.61949C70.268 1.07966 81.9346 1.61949 93.4661 1.88941C104.322 2.20431 135.809 1.39456 144.637 3.59888C145.133 3.59888 146.664 4.31865 146.799 5.26336C148.736 7.78257 149.142 10.5717 149.727 13.6757C149.637 12.4161 149.547 11.3814 149.502 10.7966C149.097 8.72727 148.601 6.70291 148.061 4.31865C147.745 3.55389 146.079 2.33927 145.358 2.20431C127.7 1.66448 110.403 1.07966 93.8265 0.539831C89.5923 0.629803 73.4661 0.584817 57.8806 0.22493C49.3671 0.539831 40.4031 0.0899719 33.6463 0C23.6463 0.404873 14.7274 1.34958 4.86254 1.61949C4.05173 1.9344 1.84452 3.73383 1.48416 4.40862C1.21389 8.14246 0.493173 11.3814 0.132812 15.6101C1.25894 12.0562 2.61029 8.6373 2.29497 4.94845C3.55624 4.45361 4.45714 3.86879 5.49317 2.8791H5.44813Z" fill="url(#paint9_linear_174_67025)"/>
<path fill-rule="evenodd" clip-rule="evenodd" d="M128.059 43.0513C131.572 43.0063 135.086 42.9164 138.599 42.8264C140.131 42.8264 141.617 42.7364 143.149 42.8264C143.284 42.8264 143.374 43.0063 143.374 43.1413C143.374 43.9061 143.284 44.7158 143.194 45.4806C143.374 44.6258 143.464 43.7261 143.734 42.8714C143.869 42.5115 145.311 41.8817 145.716 42.0616C146.527 42.3765 147.293 42.8714 148.059 43.2313C147.518 42.7814 146.978 42.3765 146.437 41.9267C145.716 41.3868 145.806 41.3419 145.851 40.3972C145.942 38.9576 146.032 37.5181 146.122 36.0335C146.122 30.9051 146.302 26.2716 146.707 21.1882C146.707 20.6933 146.707 20.0185 146.978 19.7936C147.068 19.7036 149.275 19.5687 149.545 19.5237C149.32 19.5237 146.978 19.3437 146.933 19.2987C146.572 18.8039 146.302 17.0495 146.032 16.2397C145.806 15.295 145.626 14.3503 145.401 13.4056C145.266 12.8208 145.176 12.191 145.311 12.011C145.356 11.966 145.671 11.7411 146.077 11.6511C146.707 11.4712 147.338 11.2913 147.969 11.1113C147.068 11.2913 146.392 11.4712 145.491 11.4262C144.68 11.4262 144.815 11.0213 144.77 10.2116C144.725 9.71675 144.455 9.17691 144.41 8.63708C144.32 7.87232 144.185 7.60241 144.77 7.06258C145.671 6.25283 146.527 5.48807 147.428 4.67832C146.572 5.30812 145.671 5.93793 144.815 6.56773C143.869 7.24252 143.464 6.47776 143.915 5.44308C144.32 4.49838 144.68 3.50869 145.086 2.56398L143.554 5.30812C142.924 6.38779 142.653 6.16286 141.392 6.11787C133.329 5.89294 125.356 5.35311 117.338 4.67832C114.005 4.58835 94.1848 4.22846 93.3289 3.55367C93.0136 3.32874 93.419 2.24908 93.6443 0.764545C92.6983 3.37373 93.1938 3.50869 90.2208 4.04852C87.6533 4.22846 83.419 4.81328 81.0316 4.54336C80.4461 4.45339 80.3109 4.45339 80.3109 3.86857C80.3109 3.23877 80.2659 2.60897 80.2208 1.93418C80.1307 2.65395 80.0406 3.28376 79.9956 4.00353C79.9506 4.49838 79.5902 4.31843 79.0947 4.22846C76.7524 3.91356 74.41 3.68863 72.0677 3.55367C67.9235 3.59866 64.4551 4.00353 60.3109 4.27345C58.6443 4.27345 58.5992 2.74393 57.9686 0.629587C58.0587 1.2144 58.419 3.23877 58.2388 3.64364C58.0587 3.95855 57.6533 3.91356 56.8424 3.82359C54.9055 3.64364 52.9235 3.41872 50.9866 3.23877C47.7434 3.10381 44.5902 3.05883 41.347 3.05883C39.6803 3.05883 37.1578 3.37373 35.8965 2.92387C35.8064 2.92387 34.1397 0.764545 33.9145 0.494629C34.1397 0.944488 34.9956 2.38404 34.8605 2.78891C34.7253 3.23877 33.9596 3.19379 33.2839 3.23877C31.4821 3.37373 29.8154 3.50869 28.0136 3.55367C21.3019 4.40841 15.0857 4.94824 8.37398 5.3981C7.42803 5.44308 7.20281 5.713 6.75236 4.94824C6.16677 3.95855 5.58119 2.96886 4.95056 2.02415C5.44605 3.37373 5.8965 4.45339 6.25686 5.84796C6.34695 6.11787 5.40101 6.61272 5.04065 6.43277C3.82443 5.80297 2.83344 5.35311 1.66227 4.67832C2.47308 5.30812 3.01362 5.89294 3.82443 6.56773C4.9956 7.51244 4.86047 7.15255 4.50011 8.63708C3.91452 10.9764 3.37398 13.2706 2.78839 15.6099C2.56317 16.5546 2.51812 16.5546 1.61722 16.9145C1.07668 17.1394 0.716322 17.4093 0.175781 17.6343C0.761367 17.4993 1.30191 17.4093 1.88749 17.2744C2.47308 17.1394 2.87848 17.0045 2.87848 17.6793C2.87848 18.6689 2.87848 19.6137 2.92353 20.6033C3.1938 24.0673 3.46407 27.5312 3.73434 31.0401C4.00461 33.9192 4.22984 36.7983 4.50011 39.6774C4.50011 39.9023 4.50011 40.1272 4.36497 40.3522C4.0947 40.982 2.60821 42.3765 2.06767 42.9614C2.96857 42.2866 3.86947 41.6568 4.77038 40.982C4.81542 40.892 5.58119 41.1169 5.67128 41.3868C5.4911 42.0167 5.26587 42.6015 5.08569 43.2313C5.40101 42.6465 5.76137 42.0616 6.07668 41.4768C6.21182 41.3868 6.34695 41.2969 6.57218 41.2519C7.51812 41.2519 8.41902 41.2519 9.36497 41.2519C10.1307 41.2519 10.8965 41.2519 11.6623 41.2519C9.63524 41.1619 7.6983 41.0719 6.03164 41.027C5.62623 40.982 5.04065 40.6671 4.90551 40.4421C4.22984 32.7495 3.55416 24.922 3.1938 17.1844C3.28389 17.0944 3.32893 17.0495 3.46407 17.0045C4.31993 16.6896 14.3199 15.295 21.0316 14.3053C24.7704 13.7655 25.5361 13.3606 29.3199 14.2153C40.6713 16.7346 64.4551 26.0017 73.374 30.2303C74.9956 30.9951 75.1307 31.31 76.392 32.5696C79.1397 35.3137 81.9325 37.9229 84.7704 40.4421C85.6713 42.0616 86.5271 43.8161 86.3019 43.996C86.1668 44.086 85.3109 44.221 84.2749 44.176C79.2298 44.041 74.2298 43.4562 69.2298 43.1413C74.5001 43.8161 79.8154 44.131 85.401 44.8058C86.0767 44.8958 86.4821 44.9407 86.7073 45.1207C86.8875 45.2556 87.0677 46.3803 87.1127 47.5049C87.2929 45.9754 87.2929 45.0757 87.5632 44.9407C87.6983 44.9407 88.3289 44.8958 88.9596 44.8508C93.1488 44.7608 97.383 44.5359 101.572 44.086C108.915 42.8264 116.077 41.3419 122.788 39.3175C125.401 37.8779 128.059 36.5284 130.806 35.3137C133.284 34.2341 135.806 36.5734 138.194 37.9229C136.978 36.9332 135.851 36.1235 134.635 35.3137C133.239 34.369 132.428 34.3241 133.869 33.0644C137.293 30.0954 140.086 27.8911 143.779 25.2819C144.05 24.4271 145.806 20.9632 146.077 21.0982C146.122 21.0982 146.212 21.2331 146.302 21.5031C145.851 27.981 145.806 35.1338 145.401 41.7467C144.77 42.0616 144.05 42.3765 143.509 42.6015C138.374 42.7814 133.149 43.0063 127.878 43.1863L128.059 43.0513ZM101.707 44.086C97.383 44.086 93.0136 44.6708 88.6893 44.086C88.0136 43.996 87.6533 43.8611 87.428 43.5912C86.7073 42.8714 85.9415 41.1619 85.446 40.2172C81.7974 37.2032 78.7343 34.2791 76.1217 31.355C75.8064 30.3653 75.8064 30.0954 76.5722 29.1057C82.2479 21.3681 92.428 14.0804 101.167 9.98666C104.095 8.5921 107.293 7.42246 110.131 6.47776C110.942 5.84796 111.257 5.53305 111.662 5.35311C112.563 4.94824 113.509 5.12818 114.455 5.17317C124.275 5.62303 134.275 6.07289 143.329 6.61272C143.644 6.83765 143.915 7.06258 144.185 7.37748C144.365 8.77204 144.41 10.1666 144.68 11.5612C145.266 13.8105 145.987 16.7795 146.392 18.534C146.572 19.3437 146.572 19.6137 145.987 20.7833C145.266 22.1779 144.5 23.5724 143.554 24.6971C139.77 27.9361 135.851 30.9951 131.887 33.8742C129.05 35.8086 125.942 37.3381 122.653 38.5977C115.987 41.027 108.915 42.6465 101.752 44.086H101.707ZM74.5902 30.0504C60.2659 23.0776 44.9956 17.8142 28.7794 13.5855C27.8785 13.3606 27.4731 13.0907 27.4731 13.0007C27.4731 12.8658 27.8785 12.5059 28.5992 11.966C29.9055 10.9764 31.2569 10.0316 32.6533 9.13193C33.419 7.37748 34.9055 4.58835 36.2118 3.50869C43.3289 3.4637 51.9325 3.50869 58.9596 4.63334C66.5722 3.95855 72.9686 3.91356 80.1758 4.90325C84.7704 4.58835 88.5542 4.54336 92.8334 3.91356C98.1938 4.27345 103.915 4.58835 109.77 4.85826C110.446 4.85826 111.212 4.90325 110.266 5.57804C108.869 6.52274 104.815 7.91731 101.032 9.71675C97.2479 11.5162 93.8695 13.5855 92.6983 14.1254C92.0226 14.4403 92.0677 14.2153 92.0677 13.6305C92.0226 11.3812 92.0677 8.68207 92.2478 6.07289C91.9325 7.33249 91.6172 11.1563 91.7524 13.8555C91.7524 14.4853 91.8875 14.6652 90.8965 15.34C84.9956 19.2988 79.9055 23.7074 76.0316 28.9707C75.401 29.8704 75.3109 30.0504 74.6352 30.0054L74.5902 30.0504ZM3.41902 16.0598C4.00461 13.2256 4.9956 10.6615 5.67128 7.19753C5.80641 7.06258 6.84245 6.07289 6.97758 5.98291C15.6713 5.66801 26.4821 4.49838 34.7704 3.68863C35.1758 3.95855 35.0406 4.36342 34.6352 4.99322C33.8244 6.29781 32.9686 7.60241 32.1578 8.95199C30.401 10.4815 28.5542 11.7861 26.6623 12.9557C26.0316 13.0907 24.5001 13.0907 23.7343 13.1807C19.9956 13.8105 4.50011 16.7346 3.73434 16.3297C3.64425 16.2847 3.55416 16.1947 3.46407 16.0598H3.41902Z" fill="url(#paint10_radial_174_67025)"/>
<g style="mix-blend-mode:screen" opacity="0.5">
<path fill-rule="evenodd" clip-rule="evenodd" d="M16.89 19.434C15.6288 19.7489 14.3675 20.2888 13.4216 21.1885C12.3405 22.2681 10.8991 25.6421 11.7099 27.1266C12.1603 27.9364 13.1063 28.6561 14.0522 28.7461C15.4936 28.8361 17.0702 28.3862 18.2414 27.5315C19.3675 26.6768 19.9531 25.4621 20.809 24.3375C21.3495 23.6177 22.0252 22.9429 22.4756 22.1332C23.2414 20.7836 21.9801 19.434 21.0342 19.2541C19.4576 18.9842 18.4666 19.0292 16.89 19.389V19.434Z" fill="#373FA5"/>
</g>
<path fill-rule="evenodd" clip-rule="evenodd" d="M16.6205 19.164C15.3593 19.4789 14.098 20.0187 13.152 20.9185C12.071 21.9981 10.6295 25.3721 11.4403 26.8566C11.8908 27.6663 12.8367 28.3861 13.7827 28.4761C15.2241 28.5661 16.8007 28.1162 17.9719 27.2615C19.098 26.4067 19.6836 25.1921 20.5394 24.0675C21.08 23.3477 21.7556 22.6729 22.2061 21.8632C22.9719 20.5136 21.7106 19.164 20.7647 18.9841C19.1881 18.7141 18.1971 18.7591 16.6205 19.119V19.164Z" fill="url(#paint11_radial_174_67025)"/>
</g>
<g clip-path="url(#clip1_174_67025)">
<path fill-rule="evenodd" clip-rule="evenodd" d="M-3.37147 1.61937C16.0916 1.34946 33.6884 0.359765 53.4182 -0.00012207C66.749 0.134836 84.4347 0.539709 101.232 0.224808C131.982 0.584695 163.798 0.629681 172.152 0.539709C204.946 1.07954 239.073 1.70934 273.822 2.20419C275.244 2.33915 278.533 3.55377 279.155 4.31853C280.221 6.70278 281.288 8.72715 281.999 10.7965C282.176 12.2361 282.887 16.5997 282.887 19.5238C281.91 28.386 280.577 36.8883 279.866 43.4113C279.066 44.1311 272.845 45.7056 269.201 46.2454C234.007 46.9202 197.747 47.2801 158.999 47.9999C124.25 47.1451 80.5243 46.2454 45.4196 46.4704C26.9341 45.9305 10.0483 45.6606 -4.97118 45.7056C-6.65976 45.3457 -9.50369 43.9961 -10.0369 43.4563C-11.6366 34.6391 -12.3476 26.4516 -13.0586 17.6344C-12.4365 12.416 -10.5702 8.72715 -10.0369 4.4085C-9.32594 3.73371 -5.06005 1.93427 -3.37147 1.61937Z" fill="url(#paint12_radial_174_67025)"/>
<path fill-rule="evenodd" clip-rule="evenodd" d="M-3.37109 1.61944L0.80592 5.93809C18.9359 5.62318 41.6873 4.31859 58.3954 3.50884L53.4185 -0.0450439C33.6888 0.404815 16.092 1.34952 -3.37109 1.61944Z" fill="url(#paint13_radial_174_67025)"/>
<path fill-rule="evenodd" clip-rule="evenodd" d="M53.416 0L58.3929 3.55389C72.4348 3.5089 89.4983 3.55389 103.451 4.67854L101.496 0.269916C101.496 0.269916 101.318 0.269916 101.23 0.269916C84.4326 0.584817 66.7469 0.134958 53.416 0.0449859V0Z" fill="url(#paint14_radial_174_67025)"/>
<path fill-rule="evenodd" clip-rule="evenodd" d="M101.5 0.269962L103.455 4.67858C118.475 4.00379 131.095 3.95881 145.314 4.9485C154.379 4.6336 161.845 4.58861 170.287 3.95881L172.154 0.539877C163.8 0.629849 132.161 0.584863 101.5 0.224976V0.269962Z" fill="url(#paint15_radial_174_67025)"/>
<path fill-rule="evenodd" clip-rule="evenodd" d="M172.153 0.539429L170.287 3.95836C201.393 4.99304 238.452 5.66783 269.824 6.56755L273.913 2.24889C239.075 1.70906 204.947 1.12425 172.242 0.584415L172.153 0.539429Z" fill="url(#paint16_radial_174_67025)"/>
<path fill-rule="evenodd" clip-rule="evenodd" d="M270.532 42.4667C234.361 43.1415 195.257 43.9513 159.086 44.6261V48C198.012 47.2802 234.183 46.9203 269.466 46.2456L270.621 42.4218L270.532 42.4667Z" fill="url(#paint17_radial_174_67025)"/>
<path fill-rule="evenodd" clip-rule="evenodd" d="M159.003 44.6257C143.45 43.861 113.5 42.5114 101.769 42.4214C88.4382 42.2865 69.686 42.5564 51.0228 42.6913L45.957 46.4702C80.9729 46.2452 124.52 47.1899 159.092 47.9997V44.6257H159.003Z" fill="url(#paint18_radial_174_67025)"/>
<path fill-rule="evenodd" clip-rule="evenodd" d="M45.9543 46.4706L51.02 42.6918C36.4449 42.2419 13.7824 41.0723 -0.88159 40.9823L-4.88086 45.7058C10.1386 45.6608 27.0244 45.9308 45.5099 46.4706C45.6877 46.4706 45.7766 46.4706 45.9543 46.4706Z" fill="url(#paint19_radial_174_67025)"/>
<path fill-rule="evenodd" clip-rule="evenodd" d="M39.5536 12.911C43.1974 11.6964 46.8412 10.4368 50.3961 8.90728C51.9958 7.60268 53.6844 6.29809 55.2841 4.94851C56.0839 4.31871 56.3505 3.91384 55.5507 3.64392C39.1981 4.45367 17.8687 5.6233 0.716252 5.9382C0.449634 6.02818 -1.59444 7.06285 -1.86105 7.15282C-3.19414 10.6167 -5.14934 13.2259 -6.30469 16.0151C-6.12694 16.15 -5.9492 16.24 -5.77145 16.285C-4.17174 16.6449 26.3116 13.7208 33.688 13.136C35.1988 13.001 38.2205 13.046 39.4647 12.911H39.5536Z" fill="url(#paint20_radial_174_67025)"/>
<path fill-rule="evenodd" clip-rule="evenodd" d="M51.4606 9.13215C48.7944 10.0319 46.1282 10.9766 43.4621 11.9663C42.0401 12.5061 41.2402 12.911 41.2402 13.0009C41.2402 13.0909 42.0401 13.3608 43.8175 13.5858C75.8117 17.8144 105.94 23.0778 134.201 30.0506C135.623 30.0956 135.712 29.9157 136.956 29.0159C144.599 23.7526 154.642 19.344 166.284 15.3852C168.239 14.7104 167.973 14.5305 167.973 13.9007C167.795 11.2015 168.328 7.42269 168.95 6.1181C168.506 8.72728 168.506 11.4264 168.595 13.6757C168.595 14.2606 168.595 14.4855 169.839 14.1706C172.15 13.6307 178.815 11.5164 186.28 9.76196C193.746 7.96252 201.833 6.56796 204.499 5.62325C206.277 5.03843 205.121 4.94846 203.966 4.90348C192.324 4.58857 180.859 4.31866 170.194 3.91379C161.84 4.58857 154.286 4.63356 145.221 4.90348C131.002 3.8688 118.382 3.91379 103.362 4.63356C89.4981 3.50891 72.5234 3.41894 58.4815 3.50891C55.9042 4.54359 52.9714 7.3777 51.4606 9.13215Z" fill="url(#paint21_radial_174_67025)"/>
<path fill-rule="evenodd" clip-rule="evenodd" d="M131.981 30.1409C114.384 25.9122 67.4596 16.6451 45.0637 14.1259C37.5984 13.2712 36.1765 13.6761 28.7112 14.2159C15.3803 15.2056 -4.34948 16.6002 -5.94919 16.9151C-6.12693 16.9151 -6.30468 17.005 -6.48242 17.095C-5.86031 24.8326 -4.43835 32.6151 -3.10526 40.3527C-2.74977 40.5777 -1.59443 40.8926 -0.883444 40.9375C2.49372 40.9375 6.22637 41.0275 10.2256 41.1625C23.7343 41.5224 39.7314 42.3321 51.0182 42.647C69.6814 42.5121 88.4336 42.2421 101.764 42.3771C106.741 42.3771 114.829 42.692 123.805 43.0069C133.67 43.2768 143.535 43.9066 153.488 44.0416C155.532 44.0416 157.221 43.9516 157.488 43.8616C157.932 43.6817 156.243 41.9722 154.466 40.3077C148.778 37.7435 143.357 35.1344 137.936 32.4352C135.447 31.1756 135.181 30.8607 131.981 30.0959V30.1409Z" fill="url(#paint22_radial_174_67025)"/>
<path fill-rule="evenodd" clip-rule="evenodd" d="M186.639 9.98678C169.398 14.1255 149.224 21.3682 138.114 29.1058C136.604 30.1405 136.692 30.4104 137.226 31.3551C142.38 34.2792 148.513 37.2483 155.622 40.2173C156.6 41.162 158.111 42.8265 159.533 43.5913C160.066 43.8612 160.688 43.9961 162.021 44.0861C170.464 44.6259 179.085 44.0861 187.705 44.0861C201.836 42.6466 215.789 41.0271 228.942 38.5978C235.519 37.3382 241.562 35.8087 247.161 33.8743C255.071 30.9502 262.803 27.9362 270.179 24.6972C272.046 23.5725 273.556 22.178 274.978 20.7834C275.867 19.8837 276.134 19.4788 275.956 18.984C275.956 18.849 275.867 18.6691 275.778 18.5341C274.889 16.7347 273.468 13.7656 272.401 11.5613C271.868 10.2117 271.69 8.81714 271.423 7.37759C270.89 7.06269 270.357 6.79278 269.735 6.61283C251.871 6.073 232.142 5.66813 212.767 5.17328C211.879 5.17328 210.901 5.17328 210.012 5.1283C209.124 5.1283 208.146 5.17328 207.257 5.39821C206.369 5.57816 205.835 5.89306 204.236 6.52286C198.637 7.51255 192.327 8.68219 186.55 10.0318L186.639 9.98678Z" fill="url(#paint23_radial_174_67025)"/>
<path fill-rule="evenodd" clip-rule="evenodd" d="M245.387 35.2686C239.966 36.4832 234.723 37.8778 229.568 39.2724C216.415 41.2967 202.284 42.7813 187.709 44.0409C204.95 43.726 222.458 43.3661 239.699 43.0062C250.098 42.7813 260.496 42.6013 270.538 42.4214C271.605 42.1965 273.027 41.8816 274.271 41.5666C274.982 34.9987 275.16 27.8459 276.048 21.323C275.871 21.098 275.693 20.9631 275.604 20.9181C275.071 20.8281 271.605 24.292 271.072 25.1018C263.784 27.711 258.274 29.9153 251.52 32.8844C248.676 34.144 250.275 34.189 253.03 35.1337C255.43 35.9884 257.652 36.7981 260.051 37.7428C255.341 36.3933 250.364 34.054 245.476 35.1337L245.387 35.2686Z" fill="url(#paint24_radial_174_67025)"/>
<path opacity="0.75" fill-rule="evenodd" clip-rule="evenodd" d="M-2.21615 2.87898C16.7137 2.51909 36.3546 2.69903 55.1067 1.2145L102.12 1.61937C125.672 1.07954 148.69 1.61937 171.441 1.88929C192.859 2.20419 254.981 1.39444 272.4 3.59875C273.378 3.59875 276.4 4.31853 276.666 5.26323C280.488 7.78245 281.288 10.5716 282.443 13.6756C282.265 12.416 282.087 11.3813 281.999 10.7965C281.199 8.72715 280.221 6.70278 279.155 4.31853C278.533 3.55377 275.244 2.33915 273.822 2.20419C238.984 1.66436 204.857 1.07954 172.152 0.539709C163.798 0.629681 131.982 0.584695 101.232 0.224808C84.4347 0.539709 66.749 0.0898498 53.4181 -0.00012207C33.6884 0.404751 16.0916 1.34946 -3.3715 1.61937C-4.9712 1.93427 -9.32596 3.73371 -10.0369 4.4085C-10.5702 8.14233 -11.9921 11.3813 -12.7031 15.61C-10.4813 12.0561 -7.81513 8.63718 -8.43724 4.94833C-5.9488 4.45349 -4.17135 3.86867 -2.12728 2.87898H-2.21615Z" fill="url(#paint25_linear_174_67025)"/>
<path fill-rule="evenodd" clip-rule="evenodd" d="M239.692 43.0512C246.624 43.0062 253.556 42.9163 260.488 42.8263C263.51 42.8263 266.443 42.7363 269.465 42.8263C269.731 42.8263 269.909 43.0062 269.909 43.1412C269.909 43.9059 269.731 44.7157 269.553 45.4804C269.909 44.6257 270.087 43.726 270.62 42.8713C270.887 42.5114 273.73 41.8816 274.53 42.0615C276.13 42.3764 277.641 42.8713 279.152 43.2311C278.085 42.7813 277.019 42.3764 275.952 41.9266C274.53 41.3867 274.708 41.3417 274.797 40.397C274.975 38.9575 275.152 37.5179 275.33 36.0334C275.33 30.905 275.686 26.2714 276.486 21.188C276.486 20.6932 276.486 20.0184 277.019 19.7935C277.197 19.7035 281.551 19.5685 282.084 19.5236C281.64 19.5236 277.019 19.3436 276.93 19.2986C276.219 18.8038 275.686 17.0493 275.152 16.2396C274.708 15.2949 274.353 14.3502 273.908 13.4055C273.642 12.8207 273.464 12.1909 273.73 12.0109C273.819 11.9659 274.441 11.741 275.241 11.651C276.486 11.4711 277.73 11.2911 278.974 11.1112C277.196 11.2911 275.863 11.4711 274.086 11.4261C272.486 11.4261 272.753 11.0212 272.664 10.2115C272.575 9.71662 272.042 9.17679 271.953 8.63696C271.775 7.8722 271.509 7.60229 272.664 7.06245C274.441 6.25271 276.13 5.48795 277.907 4.6782C276.219 5.308 274.441 5.93781 272.753 6.56761C270.887 7.2424 270.087 6.47764 270.975 5.44296C271.775 4.49826 272.486 3.50856 273.286 2.56386L270.264 5.308C269.02 6.38766 268.487 6.16274 265.999 6.11775C250.09 5.89282 234.36 5.35299 218.541 4.6782C211.964 4.58823 172.86 4.22834 171.171 3.55355C170.549 3.32862 171.349 2.24896 171.794 0.764422C169.927 3.37361 170.905 3.50856 165.039 4.0484C159.973 4.22834 151.619 4.81316 146.909 4.54324C145.754 4.45327 145.487 4.45327 145.487 3.86845C145.487 3.23865 145.398 2.60885 145.309 1.93406C145.132 2.65383 144.954 3.28363 144.865 4.00341C144.776 4.49826 144.065 4.31831 143.088 4.22834C138.466 3.91344 133.845 3.68851 129.224 3.55355C121.047 3.59854 114.204 4.00341 106.028 4.27333C102.74 4.27333 102.651 2.7438 101.406 0.629465C101.584 1.21428 102.295 3.23865 101.94 3.64352C101.584 3.95842 100.784 3.91344 99.1846 3.82347C95.3631 3.64352 91.4527 3.41859 87.6312 3.23865C81.2323 3.10369 75.0112 3.05871 68.6124 3.05871C65.3241 3.05871 60.3473 3.37361 57.8588 2.92375C57.6811 2.92375 54.3928 0.764422 53.9484 0.494507C54.3928 0.944366 56.0814 2.38392 55.8147 2.78879C55.5481 3.23865 54.0373 3.19366 52.7042 3.23865C49.1493 3.37361 45.861 3.50856 42.3061 3.55355C29.0641 4.40828 16.7997 4.94811 3.55763 5.39797C1.69131 5.44296 1.24695 5.71288 0.358219 4.94811C-0.797126 3.95842 -1.95247 2.96873 -3.19669 2.02403C-2.21909 3.37361 -1.33036 4.45327 -0.619381 5.84783C-0.441635 6.11775 -2.30796 6.61259 -3.01894 6.43265C-5.4185 5.80285 -7.3737 5.35299 -9.68439 4.6782C-8.08468 5.308 -7.01821 5.89282 -5.4185 6.56761C-3.10781 7.51231 -3.37443 7.15243 -4.08541 8.63696C-5.24076 10.9762 -6.30723 13.2705 -7.46257 15.6098C-7.90694 16.5545 -7.99581 16.5545 -9.77326 16.9144C-10.8397 17.1393 -11.5507 17.4092 -12.6172 17.6342C-11.4618 17.4992 -10.3954 17.4092 -9.24003 17.2743C-8.08468 17.1393 -7.28483 17.0043 -7.28483 17.6791C-7.28483 18.6688 -7.28483 19.6135 -7.19596 20.6032C-6.66272 24.0671 -6.12948 27.5311 -5.59625 31.04C-5.06301 33.9191 -4.61865 36.7982 -4.08541 39.6773C-4.08541 39.9022 -4.08541 40.1271 -4.35203 40.3521C-4.88527 40.9819 -7.81806 42.3764 -8.88454 42.9612C-7.10708 42.2864 -5.32963 41.6566 -3.55218 40.9819C-3.46331 40.8919 -1.95247 41.1168 -1.77472 41.3867C-2.13022 42.0165 -2.57458 42.6013 -2.93007 43.2311C-2.30796 42.6463 -1.59698 42.0615 -0.974871 41.4767C-0.708253 41.3867 -0.441635 41.2968 0.00272842 41.2518C1.86905 41.2518 3.64651 41.2518 5.51283 41.2518C7.02367 41.2518 8.5345 41.2518 10.0453 41.2518C6.04607 41.1618 2.22454 41.0718 -1.06374 41.0268C-1.8636 40.9819 -3.01894 40.667 -3.28556 40.442C-4.61865 32.7494 -5.95174 24.9219 -6.66272 17.1843C-6.48498 17.0943 -6.3961 17.0493 -6.12948 17.0043C-4.4409 16.6894 15.2888 15.2949 28.5308 14.3052C35.9073 13.7654 37.4181 13.3605 44.8834 14.2152C67.2793 16.7344 114.204 26.0015 131.801 30.2302C135 30.995 135.267 31.3099 137.755 32.5695C143.177 35.3136 148.687 37.9228 154.286 40.442C156.063 42.0615 157.752 43.816 157.307 43.9959C157.041 44.0859 155.352 44.2208 153.308 44.1759C143.354 44.0409 133.489 43.4561 123.625 43.1412C134.023 43.816 144.51 44.1309 155.53 44.8057C156.863 44.8956 157.663 44.9406 158.107 45.1206C158.463 45.2555 158.818 46.3802 158.907 47.5048C159.262 45.9753 159.262 45.0756 159.796 44.9406C160.062 44.9406 161.307 44.8956 162.551 44.8506C170.816 44.7607 179.17 44.5357 187.435 44.0859C201.921 42.8263 216.052 41.3417 229.294 39.3174C234.449 37.8778 239.692 36.5282 245.113 35.3136C250.001 34.234 254.978 36.5732 259.689 37.9228C257.289 36.9331 255.067 36.1234 252.668 35.3136C249.913 34.3689 248.313 34.3239 251.157 33.0643C257.911 30.0953 263.421 27.8909 270.709 25.2818C271.242 24.427 274.708 20.9631 275.241 21.0981C275.33 21.0981 275.508 21.233 275.686 21.5029C274.797 27.9809 274.708 35.1337 273.908 41.7466C272.664 42.0615 271.242 42.3764 270.176 42.6013C260.044 42.7813 249.735 43.0062 239.337 43.1862L239.692 43.0512ZM187.702 44.0859C179.17 44.0859 170.549 44.6707 162.018 44.0859C160.684 43.9959 159.973 43.861 159.529 43.591C158.107 42.8713 156.596 41.1618 155.619 40.2171C148.42 37.203 142.377 34.2789 137.222 31.3549C136.6 30.3652 136.6 30.0953 138.111 29.1056C149.309 21.368 169.394 14.0803 186.635 9.98654C192.412 8.59198 198.722 7.42234 204.321 6.47764C205.921 5.84783 206.543 5.53293 207.343 5.35299C209.12 4.94811 210.986 5.12806 212.853 5.17304C232.227 5.6229 251.957 6.07276 269.82 6.61259C270.442 6.83752 270.975 7.06245 271.509 7.37736C271.864 8.77192 271.953 10.1665 272.486 11.561C273.642 13.8103 275.064 16.7794 275.863 18.5339C276.219 19.3436 276.219 19.6135 275.064 20.7832C273.642 22.1777 272.131 23.5723 270.264 24.6969C262.799 27.9359 255.067 30.995 247.246 33.8741C241.647 35.8085 235.515 37.338 229.028 38.5976C215.874 41.0268 201.921 42.6463 187.791 44.0859H187.702ZM134.2 30.0503C105.939 23.0774 75.8111 17.8141 43.8169 13.5854C42.0395 13.3605 41.2396 13.0906 41.2396 13.0006C41.2396 12.8656 42.0395 12.5058 43.4614 11.9659C46.0388 10.9762 48.7049 10.0315 51.46 9.13181C52.9708 7.37736 55.9036 4.58823 58.4809 3.50856C72.5228 3.46358 89.4975 3.50856 103.362 4.63321C118.381 3.95842 131.001 3.91344 145.221 4.90313C154.286 4.58823 161.751 4.54324 170.194 3.91344C180.77 4.27333 192.057 4.58823 203.61 4.85814C204.943 4.85814 206.454 4.90313 204.588 5.57792C201.832 6.52262 193.834 7.91719 186.369 9.71662C178.903 11.5161 172.238 13.5854 169.927 14.1252C168.594 14.4401 168.683 14.2152 168.683 13.6304C168.594 11.3811 168.683 8.68195 169.038 6.07276C168.416 7.33237 167.794 11.1562 168.061 13.8553C168.061 14.4851 168.328 14.6651 166.372 15.3399C154.73 19.2986 144.687 23.7073 137.044 28.9706C135.8 29.8703 135.622 30.0503 134.289 30.0053L134.2 30.0503ZM-6.21836 16.0596C-5.06301 13.2255 -3.10781 10.6613 -1.77472 7.19741C-1.50811 7.06245 0.535964 6.07276 0.802581 5.98279C17.955 5.66789 39.2844 4.49826 55.637 3.68851C56.4369 3.95842 56.1702 4.3633 55.3704 4.9931C53.7707 6.29769 52.0821 7.60228 50.4824 8.95186C47.0164 10.4814 43.3726 11.786 39.6399 12.9556C38.3957 13.0906 35.374 13.0906 33.8632 13.1805C26.4868 13.8103 -4.08541 16.7344 -5.59625 16.3296C-5.77399 16.2846 -5.95174 16.1946 -6.12948 16.0596H-6.21836Z" fill="url(#paint26_radial_174_67025)"/>
<g style="mix-blend-mode:screen" opacity="0.5">
<path fill-rule="evenodd" clip-rule="evenodd" d="M37.4239 28.0258C36.624 28.0258 35.5575 28.1608 35.0243 28.4757C33.869 29.1955 33.0691 30.0502 32.7136 30.9049C32.3581 31.8496 35.4687 32.7044 36.9795 32.7493C38.2237 32.7493 39.5568 32.5244 40.2678 32.0296C41.4231 31.2648 39.7346 28.1158 37.4239 27.9808V28.0258Z" fill="#373FA5"/>
</g>
<g style="mix-blend-mode:screen" opacity="0.5">
<path fill-rule="evenodd" clip-rule="evenodd" d="M20.3563 19.4339C17.8679 19.7488 15.3795 20.2886 13.5131 21.1884C11.3802 22.268 8.53626 25.642 10.136 27.1265C11.0247 27.9362 12.891 28.656 14.7574 28.746C17.6013 28.836 20.7118 28.3861 23.0225 27.5314C25.2443 26.6766 26.3997 25.462 28.0882 24.3374C29.1547 23.6176 30.4878 22.9428 31.3765 22.1331C32.8874 20.7835 30.3989 19.4339 28.5326 19.254C25.4221 18.984 23.4669 19.029 20.3563 19.3889V19.4339Z" fill="#373FA5"/>
</g>
<g style="mix-blend-mode:screen" opacity="0.5">
<path fill-rule="evenodd" clip-rule="evenodd" d="M254.187 18.6692C250.988 18.9841 247.611 21.7282 246.811 23.3477C246.011 25.0572 247.522 25.9569 249.121 25.642C252.676 24.9222 262.63 22.8978 263.341 20.6935C263.697 19.5689 262.63 18.5792 260.231 18.3993C258.275 18.2193 256.142 18.4442 254.187 18.6692Z" fill="#373FA5"/>
</g>
<path fill-rule="evenodd" clip-rule="evenodd" d="M253.648 18.3542C250.449 18.6691 247.072 21.4133 246.272 23.0328C245.472 24.7422 246.983 25.6419 248.582 25.327C252.137 24.6073 262.091 22.5829 262.802 20.3786C263.158 19.2539 262.091 18.2643 259.691 18.0843C257.736 17.9044 255.603 18.1293 253.648 18.3542Z" fill="url(#paint27_radial_174_67025)"/>
<path fill-rule="evenodd" clip-rule="evenodd" d="M36.8848 27.7114C36.085 27.7114 35.0185 27.8463 34.4852 28.1612C33.3299 28.881 32.53 29.7357 32.1746 30.5905C31.8191 31.5352 34.9296 32.3899 36.4404 32.4349C37.6847 32.4349 39.0177 32.21 39.7287 31.7151C40.8841 30.9504 39.1955 27.8013 36.8848 27.6664V27.7114Z" fill="url(#paint28_radial_174_67025)"/>
<path fill-rule="evenodd" clip-rule="evenodd" d="M19.827 19.1639C17.3386 19.4788 14.8502 20.0186 12.9838 20.9183C10.8509 21.998 8.00697 25.3719 9.60668 26.8565C10.4954 27.6662 12.3617 28.386 14.2281 28.476C17.072 28.5659 20.1825 28.1161 22.4932 27.2614C24.715 26.4066 25.8704 25.192 27.559 24.0674C28.6254 23.3476 29.9585 22.6728 30.8472 21.863C32.3581 20.5135 29.8696 19.1639 28.0033 18.9839C24.8928 18.714 22.9376 18.759 19.827 19.1189V19.1639Z" fill="url(#paint29_radial_174_67025)"/>
</g>
<g clip-path="url(#clip2_174_67025)">
<path fill-rule="evenodd" clip-rule="evenodd" d="M124.865 1.61949C134.73 1.34958 143.649 0.359888 153.649 0C160.406 0.134958 169.37 0.539831 177.883 0.22493C193.469 0.584817 209.595 0.629803 213.829 0.539831C230.451 1.07966 247.748 1.70947 265.361 2.20431C266.081 2.33927 267.748 3.55389 268.063 4.31865C268.604 6.70291 269.144 8.72727 269.505 10.7966C269.595 12.2362 269.955 16.5998 269.955 19.5239C269.46 28.3861 268.784 36.8885 268.424 43.4114C268.018 44.1312 264.865 45.7057 263.018 46.2455C245.18 46.9203 226.802 47.2802 207.162 48C189.55 47.1453 167.388 46.2455 149.595 46.4705C140.225 45.9306 131.667 45.6607 124.054 45.7057C123.198 45.3458 121.757 43.9963 121.487 43.4564C120.676 34.6392 120.315 26.4517 119.955 17.6345C120.27 12.4161 121.216 8.72727 121.487 4.40862C121.847 3.73383 124.009 1.9344 124.865 1.61949Z" fill="url(#paint30_radial_174_67025)"/>
<path fill-rule="evenodd" clip-rule="evenodd" d="M213.827 0.539551L212.881 3.95848C228.647 4.99316 247.43 5.66795 263.331 6.56767L265.403 2.24902C247.746 1.70919 230.448 1.12437 213.872 0.584537L213.827 0.539551Z" fill="url(#paint31_radial_174_67025)"/>
<path fill-rule="evenodd" clip-rule="evenodd" d="M265.406 2.24958L263.334 6.56823C263.649 6.79316 263.92 7.01809 264.19 7.33299L268.109 4.31893C267.793 3.55417 266.127 2.33955 265.406 2.20459V2.24958Z" fill="url(#paint32_radial_174_67025)"/>
<path fill-rule="evenodd" clip-rule="evenodd" d="M268.065 4.36377L264.146 7.37783C264.327 8.77239 264.372 10.167 264.642 11.5615C265.363 14.3506 266.354 18.2194 266.579 19.614H269.957C269.957 16.6899 269.597 12.3263 269.507 10.8867C269.101 8.81738 268.606 6.79301 268.065 4.40876V4.36377Z" fill="url(#paint33_radial_174_67025)"/>
<path fill-rule="evenodd" clip-rule="evenodd" d="M269.998 19.5239H266.62C266.034 26.4967 265.989 34.4143 265.584 41.612L268.512 43.4115C268.872 36.9335 269.548 28.3862 270.043 19.5239H269.998Z" fill="url(#paint34_radial_174_67025)"/>
<path fill-rule="evenodd" clip-rule="evenodd" d="M265.585 41.6118C264.954 41.9267 264.234 42.2416 263.693 42.4665L263.107 46.2904C264.909 45.7505 268.107 44.131 268.513 43.4562L265.585 41.6568V41.6118Z" fill="url(#paint35_radial_174_67025)"/>
<path fill-rule="evenodd" clip-rule="evenodd" d="M263.695 42.4669C245.362 43.1416 225.542 43.9514 207.209 44.6262V48.0001C226.939 47.2804 245.272 46.9205 263.155 46.2457L263.741 42.4219L263.695 42.4669Z" fill="url(#paint36_radial_174_67025)"/>
<path fill-rule="evenodd" clip-rule="evenodd" d="M221.171 9.9869C212.432 14.1256 202.207 21.3683 196.576 29.1059C195.811 30.1406 195.856 30.4105 196.126 31.3552C198.739 34.2793 201.847 37.2484 205.45 40.2174C205.946 41.1622 206.712 42.8266 207.432 43.5914C207.703 43.8613 208.018 43.9963 208.694 44.0862C212.973 44.6261 217.342 44.0862 221.712 44.0862C228.874 42.6467 235.946 41.0272 242.613 38.598C245.946 37.3383 249.009 35.8088 251.847 33.8744C255.856 30.9503 259.775 27.9363 263.513 24.6973C264.459 23.5727 265.225 22.1781 265.946 20.7835C266.396 19.8838 266.531 19.4789 266.441 18.9841C266.441 18.8491 266.396 18.6692 266.351 18.5342C265.901 16.7348 265.18 13.7657 264.64 11.5614C264.369 10.2118 264.279 8.81726 264.144 7.37771C263.874 7.06281 263.604 6.7929 263.288 6.61295C254.234 6.07312 244.234 5.66825 234.414 5.1734C233.964 5.1734 233.468 5.1734 233.018 5.12842C232.567 5.12842 232.072 5.1734 231.622 5.39833C231.171 5.57828 230.901 5.89318 230.09 6.52298C227.252 7.51267 224.054 8.68231 221.126 10.0319L221.171 9.9869Z" fill="url(#paint37_radial_174_67025)"/>
<path fill-rule="evenodd" clip-rule="evenodd" d="M250.947 35.2687C248.199 36.4834 245.542 37.8779 242.929 39.2725C236.262 41.2969 229.1 42.7814 221.713 44.041C230.452 43.7261 239.326 43.3662 248.064 43.0063C253.335 42.7814 258.605 42.6014 263.695 42.4215C264.235 42.1966 264.956 41.8817 265.587 41.5668C265.947 34.9988 266.037 27.8461 266.488 21.3231C266.398 21.0982 266.307 20.9632 266.262 20.9182C265.992 20.8283 264.235 24.2922 263.965 25.1019C260.271 27.7111 257.479 29.9154 254.055 32.8845C252.614 34.1441 253.425 34.1891 254.821 35.1338C256.037 35.9885 257.163 36.7983 258.38 37.743C255.992 36.3934 253.47 34.0541 250.992 35.1338L250.947 35.2687Z" fill="url(#paint38_radial_174_67025)"/>
<path opacity="0.75" fill-rule="evenodd" clip-rule="evenodd" d="M125.45 2.8791C135.045 2.51921 145 2.69916 154.504 1.21462L178.333 1.61949C190.27 1.07966 201.937 1.61949 213.468 1.88941C224.324 2.20431 255.81 1.39456 264.639 3.59888C265.135 3.59888 266.666 4.31865 266.801 5.26336C268.738 7.78257 269.144 10.5717 269.729 13.6757C269.639 12.4161 269.549 11.3814 269.504 10.7966C269.099 8.72727 268.603 6.70291 268.063 4.31865C267.747 3.55389 266.081 2.33927 265.36 2.20431C247.702 1.66448 230.405 1.07966 213.828 0.539831C209.594 0.629803 193.468 0.584817 177.883 0.22493C169.369 0.539831 160.405 0.0899719 153.648 0C143.648 0.404873 134.729 1.34958 124.864 1.61949C124.054 1.9344 121.846 3.73383 121.486 4.40862C121.216 8.14246 120.495 11.3814 120.135 15.6101C121.261 12.0562 122.612 8.6373 122.297 4.94845C123.558 4.45361 124.459 3.86879 125.495 2.8791H125.45Z" fill="url(#paint39_linear_174_67025)"/>
<path fill-rule="evenodd" clip-rule="evenodd" d="M248.065 43.0513C251.578 43.0063 255.092 42.9164 258.605 42.8264C260.137 42.8264 261.623 42.7364 263.155 42.8264C263.29 42.8264 263.38 43.0063 263.38 43.1413C263.38 43.9061 263.29 44.7158 263.2 45.4806C263.38 44.6258 263.47 43.7261 263.74 42.8714C263.875 42.5115 265.317 41.8817 265.722 42.0616C266.533 42.3765 267.299 42.8714 268.065 43.2313C267.524 42.7814 266.983 42.3765 266.443 41.9267C265.722 41.3868 265.812 41.3419 265.857 40.3972C265.947 38.9576 266.037 37.5181 266.128 36.0335C266.128 30.9051 266.308 26.2716 266.713 21.1882C266.713 20.6933 266.713 20.0185 266.983 19.7936C267.074 19.7036 269.281 19.5687 269.551 19.5237C269.326 19.5237 266.983 19.3437 266.938 19.2987C266.578 18.8039 266.308 17.0495 266.037 16.2397C265.812 15.295 265.632 14.3503 265.407 13.4056C265.272 12.8208 265.182 12.191 265.317 12.011C265.362 11.966 265.677 11.7411 266.083 11.6511C266.713 11.4712 267.344 11.2913 267.974 11.1113C267.074 11.2913 266.398 11.4712 265.497 11.4262C264.686 11.4262 264.821 11.0213 264.776 10.2116C264.731 9.71675 264.461 9.17691 264.416 8.63708C264.326 7.87232 264.191 7.60241 264.776 7.06258C265.677 6.25283 266.533 5.48807 267.434 4.67832C266.578 5.30812 265.677 5.93793 264.821 6.56773C263.875 7.24252 263.47 6.47776 263.92 5.44308C264.326 4.49838 264.686 3.50869 265.092 2.56398L263.56 5.30812C262.929 6.38779 262.659 6.16286 261.398 6.11787C253.335 5.89294 245.362 5.35311 237.344 4.67832C234.01 4.58835 214.191 4.22846 213.335 3.55367C213.019 3.32874 213.425 2.24908 213.65 0.764545C212.704 3.37373 213.2 3.50869 210.227 4.04852C207.659 4.22846 203.425 4.81328 201.037 4.54336C200.452 4.45339 200.317 4.45339 200.317 3.86857C200.317 3.23877 200.272 2.60897 200.227 1.93418C200.137 2.65395 200.047 3.28376 200.001 4.00353C199.956 4.49838 199.596 4.31843 199.101 4.22846C196.758 3.91356 194.416 3.68863 192.074 3.55367C187.929 3.59866 184.461 4.00353 180.317 4.27345C178.65 4.27345 178.605 2.74393 177.974 0.629587C178.065 1.2144 178.425 3.23877 178.245 3.64364C178.065 3.95855 177.659 3.91356 176.848 3.82359C174.911 3.64364 172.929 3.41872 170.992 3.23877C167.749 3.10381 164.596 3.05883 161.353 3.05883C159.686 3.05883 157.164 3.37373 155.902 2.92387C155.812 2.92387 154.146 0.764545 153.92 0.494629C154.146 0.944488 155.001 2.38404 154.866 2.78891C154.731 3.23877 153.965 3.19379 153.29 3.23877C151.488 3.37373 149.821 3.50869 148.019 3.55367C141.308 4.40841 135.092 4.94824 128.38 5.3981C127.434 5.44308 127.209 5.713 126.758 4.94824C126.173 3.95855 125.587 2.96886 124.956 2.02415C125.452 3.37373 125.902 4.45339 126.263 5.84796C126.353 6.11787 125.407 6.61272 125.047 6.43277C123.83 5.80297 122.839 5.35311 121.668 4.67832C122.479 5.30812 123.019 5.89294 123.83 6.56773C125.001 7.51244 124.866 7.15255 124.506 8.63708C123.92 10.9764 123.38 13.2706 122.794 15.6099C122.569 16.5546 122.524 16.5546 121.623 16.9145C121.083 17.1394 120.722 17.4093 120.182 17.6343C120.767 17.4993 121.308 17.4093 121.893 17.2744C122.479 17.1394 122.884 17.0045 122.884 17.6793C122.884 18.6689 122.884 19.6137 122.929 20.6033C123.2 24.0673 123.47 27.5312 123.74 31.0401C124.01 33.9192 124.236 36.7983 124.506 39.6774C124.506 39.9023 124.506 40.1272 124.371 40.3522C124.101 40.982 122.614 42.3765 122.074 42.9614C122.974 42.2866 123.875 41.6568 124.776 40.982C124.821 40.892 125.587 41.1169 125.677 41.3868C125.497 42.0167 125.272 42.6015 125.092 43.2313C125.407 42.6465 125.767 42.0616 126.083 41.4768C126.218 41.3868 126.353 41.2969 126.578 41.2519C127.524 41.2519 128.425 41.2519 129.371 41.2519C130.137 41.2519 130.902 41.2519 131.668 41.2519C129.641 41.1619 127.704 41.0719 126.037 41.027C125.632 40.982 125.047 40.6671 124.911 40.4421C124.236 32.7495 123.56 24.922 123.2 17.1844C123.29 17.0944 123.335 17.0495 123.47 17.0045C124.326 16.6896 134.326 15.295 141.037 14.3053C144.776 13.7655 145.542 13.3606 149.326 14.2153C160.677 16.7346 184.461 26.0017 193.38 30.2303C195.001 30.9951 195.137 31.31 196.398 32.5696C199.146 35.3137 201.938 37.9229 204.776 40.4421C205.677 42.0616 206.533 43.8161 206.308 43.996C206.173 44.086 205.317 44.221 204.281 44.176C199.236 44.041 194.236 43.4562 189.236 43.1413C194.506 43.8161 199.821 44.131 205.407 44.8058C206.083 44.8958 206.488 44.9407 206.713 45.1207C206.893 45.2556 207.074 46.3803 207.119 47.5049C207.299 45.9754 207.299 45.0757 207.569 44.9407C207.704 44.9407 208.335 44.8958 208.965 44.8508C213.155 44.7608 217.389 44.5359 221.578 44.086C228.92 42.8264 236.083 41.3419 242.794 39.3175C245.407 37.8779 248.065 36.5284 250.812 35.3137C253.29 34.2341 255.812 36.5734 258.2 37.9229C256.983 36.9332 255.857 36.1235 254.641 35.3137C253.245 34.369 252.434 34.3241 253.875 33.0644C257.299 30.0954 260.092 27.8911 263.785 25.2819C264.056 24.4271 265.812 20.9632 266.083 21.0982C266.128 21.0982 266.218 21.2331 266.308 21.5031C265.857 27.981 265.812 35.1338 265.407 41.7467C264.776 42.0616 264.056 42.3765 263.515 42.6015C258.38 42.7814 253.155 43.0063 247.884 43.1863L248.065 43.0513ZM221.713 44.086C217.389 44.086 213.019 44.6708 208.695 44.086C208.019 43.996 207.659 43.8611 207.434 43.5912C206.713 42.8714 205.947 41.1619 205.452 40.2172C201.803 37.2032 198.74 34.2791 196.128 31.355C195.812 30.3653 195.812 30.0954 196.578 29.1057C202.254 21.3681 212.434 14.0804 221.173 9.98666C224.101 8.5921 227.299 7.42246 230.137 6.47776C230.947 5.84796 231.263 5.53305 231.668 5.35311C232.569 4.94824 233.515 5.12818 234.461 5.17317C244.281 5.62303 254.281 6.07289 263.335 6.61272C263.65 6.83765 263.92 7.06258 264.191 7.37748C264.371 8.77204 264.416 10.1666 264.686 11.5612C265.272 13.8105 265.992 16.7795 266.398 18.534C266.578 19.3437 266.578 19.6137 265.992 20.7833C265.272 22.1779 264.506 23.5724 263.56 24.6971C259.776 27.9361 255.857 30.9951 251.893 33.8742C249.056 35.8086 245.947 37.3381 242.659 38.5977C235.992 41.027 228.92 42.6465 221.758 44.086H221.713ZM194.596 30.0504C180.272 23.0776 165.001 17.8142 148.785 13.5855C147.884 13.3606 147.479 13.0907 147.479 13.0007C147.479 12.8658 147.884 12.5059 148.605 11.966C149.911 10.9764 151.263 10.0316 152.659 9.13193C153.425 7.37748 154.911 4.58835 156.218 3.50869C163.335 3.4637 171.938 3.50869 178.965 4.63334C186.578 3.95855 192.974 3.91356 200.182 4.90325C204.776 4.58835 208.56 4.54336 212.839 3.91356C218.2 4.27345 223.92 4.58835 229.776 4.85826C230.452 4.85826 231.218 4.90325 230.272 5.57804C228.875 6.52274 224.821 7.91731 221.037 9.71675C217.254 11.5162 213.875 13.5855 212.704 14.1254C212.028 14.4403 212.074 14.2153 212.074 13.6305C212.028 11.3812 212.074 8.68207 212.254 6.07289C211.938 7.33249 211.623 11.1563 211.758 13.8555C211.758 14.4853 211.893 14.6652 210.902 15.34C205.001 19.2988 199.911 23.7074 196.037 28.9707C195.407 29.8704 195.317 30.0504 194.641 30.0054L194.596 30.0504ZM123.425 16.0598C124.01 13.2256 125.001 10.6615 125.677 7.19753C125.812 7.06258 126.848 6.07289 126.983 5.98291C135.677 5.66801 146.488 4.49838 154.776 3.68863C155.182 3.95855 155.047 4.36342 154.641 4.99322C153.83 6.29781 152.974 7.60241 152.164 8.95199C150.407 10.4815 148.56 11.7861 146.668 12.9557C146.037 13.0907 144.506 13.0907 143.74 13.1807C140.001 13.8105 124.506 16.7346 123.74 16.3297C123.65 16.2847 123.56 16.1947 123.47 16.0598H123.425Z" fill="url(#paint40_radial_174_67025)"/>
<g style="mix-blend-mode:screen" opacity="0.5">
<path fill-rule="evenodd" clip-rule="evenodd" d="M255.407 18.6693C253.786 18.9842 252.074 21.7283 251.669 23.3478C251.263 25.0573 252.029 25.957 252.84 25.6421C254.642 24.9223 259.687 22.898 260.047 20.6937C260.227 19.569 259.687 18.5793 258.47 18.3994C257.479 18.2194 256.398 18.4444 255.407 18.6693Z" fill="#373FA5"/>
</g>
<path fill-rule="evenodd" clip-rule="evenodd" d="M255.138 18.3543C253.516 18.6692 251.804 21.4134 251.399 23.0329C250.994 24.7424 251.759 25.6421 252.57 25.3272C254.372 24.6074 259.417 22.583 259.777 20.3787C259.958 19.2541 259.417 18.2644 258.201 18.0844C257.21 17.9045 256.129 18.1294 255.138 18.3543Z" fill="url(#paint41_radial_174_67025)"/>
</g>
<defs>
<radialGradient id="paint0_radial_174_67025" cx="0" cy="0" r="1" gradientUnits="userSpaceOnUse" gradientTransform="translate(26.0342 0.584876) scale(171.441 171.217)">
<stop stop-color="#676C94"/>
<stop offset="1" stop-color="#17233A"/>
</radialGradient>
<radialGradient id="paint1_radial_174_67025" cx="0" cy="0" r="1" gradientUnits="userSpaceOnUse" gradientTransform="translate(0.225225 19.4342) scale(34.8649 34.8191)">
<stop stop-color="#5A6084"/>
<stop offset="1" stop-color="#323B63"/>
</radialGradient>
<radialGradient id="paint2_radial_174_67025" cx="0" cy="0" r="1" gradientUnits="userSpaceOnUse" gradientTransform="translate(9.81771 6.92797) scale(12.8829 12.866)">
<stop stop-color="#8899C2"/>
<stop offset="1" stop-color="#727696"/>
</radialGradient>
<radialGradient id="paint3_radial_174_67025" cx="0" cy="0" r="1" gradientUnits="userSpaceOnUse" gradientTransform="translate(36.2597 -29.6907) scale(52.2523 52.1837)">
<stop stop-color="#8899C2"/>
<stop offset="1" stop-color="#727696"/>
</radialGradient>
<radialGradient id="paint4_radial_174_67025" cx="0" cy="0" r="1" gradientUnits="userSpaceOnUse" gradientTransform="translate(32.2508 13.0012) scale(55.7658 55.6926)">
<stop stop-color="#4E5470"/>
<stop offset="1" stop-color="#252E4F"/>
</radialGradient>
<radialGradient id="paint5_radial_174_67025" cx="0" cy="0" r="1" gradientUnits="userSpaceOnUse" gradientTransform="translate(9.72945 33.6041) scale(27.3874 27.3515)">
<stop stop-color="#5A6084"/>
<stop offset="1" stop-color="#323B63"/>
</radialGradient>
<radialGradient id="paint6_radial_174_67025" cx="0" cy="0" r="1" gradientUnits="userSpaceOnUse" gradientTransform="translate(-0.315314 14.1709) scale(48.6937 48.6298)">
<stop stop-color="#5A6084"/>
<stop offset="1" stop-color="#323B63"/>
</radialGradient>
<radialGradient id="paint7_radial_174_67025" cx="0" cy="0" r="1" gradientUnits="userSpaceOnUse" gradientTransform="translate(27.4291 12.731) scale(58.6937 58.6167)">
<stop stop-color="#4E5B7D"/>
<stop offset="1" stop-color="#313556"/>
</radialGradient>
<radialGradient id="paint8_radial_174_67025" cx="0" cy="0" r="1" gradientUnits="userSpaceOnUse" gradientTransform="translate(46.9828 -14.35) scale(133.694 133.518)">
<stop stop-color="#4E5B7D"/>
<stop offset="1" stop-color="#313556"/>
</radialGradient>
<linearGradient id="paint9_linear_174_67025" x1="52.6931" y1="0" x2="52.6931" y2="15.6101" gradientUnits="userSpaceOnUse">
<stop stop-color="#A0DBF0"/>
<stop offset="1" stop-color="#00FFEA"/>
</linearGradient>
<radialGradient id="paint10_radial_174_67025" cx="0" cy="0" r="1" gradientUnits="userSpaceOnUse" gradientTransform="translate(22.2479 -29.466) scale(168.784 168.562)">
<stop stop-color="#7C8FB2"/>
<stop offset="1" stop-color="#515682"/>
</radialGradient>
<radialGradient id="paint11_radial_174_67025" cx="0" cy="0" r="1" gradientUnits="userSpaceOnUse" gradientTransform="translate(21.4854 29.0609) scale(14.7297 14.7104)">
<stop stop-color="#5A6084"/>
<stop offset="1" stop-color="#323B63"/>
</radialGradient>
<radialGradient id="paint12_radial_174_67025" cx="0" cy="0" r="1" gradientUnits="userSpaceOnUse" gradientTransform="translate(38.3987 0.584693) scale(338.249 171.217)">
<stop stop-color="#676C94"/>
<stop offset="1" stop-color="#17233A"/>
</radialGradient>
<radialGradient id="paint13_radial_174_67025" cx="0" cy="0" r="1" gradientUnits="userSpaceOnUse" gradientTransform="translate(58.5731 -29.6908) scale(103.092 52.1837)">
<stop stop-color="#8899C2"/>
<stop offset="1" stop-color="#727696"/>
</radialGradient>
<radialGradient id="paint14_radial_174_67025" cx="0" cy="0" r="1" gradientUnits="userSpaceOnUse" gradientTransform="translate(87.0099 -39.0478) scale(101.493 51.3739)">
<stop stop-color="#8899C2"/>
<stop offset="1" stop-color="#727696"/>
</radialGradient>
<radialGradient id="paint15_radial_174_67025" cx="0" cy="0" r="1" gradientUnits="userSpaceOnUse" gradientTransform="translate(146.47 -21.6382) scale(106.025 53.6682)">
<stop stop-color="#8899C2"/>
<stop offset="1" stop-color="#727696"/>
</radialGradient>
<radialGradient id="paint16_radial_174_67025" cx="0" cy="0" r="1" gradientUnits="userSpaceOnUse" gradientTransform="translate(189.661 -39.4081) scale(129.754 65.6795)">
<stop stop-color="#8899C2"/>
<stop offset="1" stop-color="#727696"/>
</radialGradient>
<radialGradient id="paint17_radial_174_67025" cx="0" cy="0" r="1" gradientUnits="userSpaceOnUse" gradientTransform="translate(193.569 4.13873) scale(134.82 68.2437)">
<stop stop-color="#4E5470"/>
<stop offset="1" stop-color="#252E4F"/>
</radialGradient>
<radialGradient id="paint18_radial_174_67025" cx="0" cy="0" r="1" gradientUnits="userSpaceOnUse" gradientTransform="translate(98.0364 5.398) scale(112.957 57.1771)">
<stop stop-color="#4E5470"/>
<stop offset="1" stop-color="#252E4F"/>
</radialGradient>
<radialGradient id="paint19_radial_174_67025" cx="0" cy="0" r="1" gradientUnits="userSpaceOnUse" gradientTransform="translate(50.6645 13.001) scale(110.024 55.6926)">
<stop stop-color="#4E5470"/>
<stop offset="1" stop-color="#252E4F"/>
</radialGradient>
<radialGradient id="paint20_radial_174_67025" cx="0" cy="0" r="1" gradientUnits="userSpaceOnUse" gradientTransform="translate(41.1533 12.7311) scale(115.801 58.6167)">
<stop stop-color="#4E5B7D"/>
<stop offset="1" stop-color="#313556"/>
</radialGradient>
<radialGradient id="paint21_radial_174_67025" cx="0" cy="0" r="1" gradientUnits="userSpaceOnUse" gradientTransform="translate(109.139 31.4452) scale(219.071 110.89)">
<stop stop-color="#4E5B7D"/>
<stop offset="1" stop-color="#313556"/>
</radialGradient>
<radialGradient id="paint22_radial_174_67025" cx="0" cy="0" r="1" gradientUnits="userSpaceOnUse" gradientTransform="translate(79.7241 -14.3502) scale(263.774 133.518)">
<stop stop-color="#4E5B7D"/>
<stop offset="1" stop-color="#313556"/>
</radialGradient>
<radialGradient id="paint23_radial_174_67025" cx="0" cy="0" r="1" gradientUnits="userSpaceOnUse" gradientTransform="translate(124.695 19.9737) scale(277.549 140.491)">
<stop stop-color="#4E5B7D"/>
<stop offset="1" stop-color="#313556"/>
</radialGradient>
<radialGradient id="paint24_radial_174_67025" cx="0" cy="0" r="1" gradientUnits="userSpaceOnUse" gradientTransform="translate(209.572 9.22176) scale(134.998 68.3336)">
<stop stop-color="#1A1F3A"/>
<stop offset="1" stop-color="#647394"/>
</radialGradient>
<linearGradient id="paint25_linear_174_67025" x1="90.9969" y1="-0.00012207" x2="90.9969" y2="15.61" gradientUnits="userSpaceOnUse">
<stop stop-color="#A0DBF0"/>
<stop offset="1" stop-color="#00FFEA"/>
</linearGradient>
<radialGradient id="paint26_radial_174_67025" cx="0" cy="0" r="1" gradientUnits="userSpaceOnUse" gradientTransform="translate(30.9304 -29.4661) scale(333.006 168.562)">
<stop stop-color="#7C8FB2"/>
<stop offset="1" stop-color="#515682"/>
</radialGradient>
<radialGradient id="paint27_radial_174_67025" cx="0" cy="0" r="1" gradientUnits="userSpaceOnUse" gradientTransform="translate(259.603 29.8706) scale(26.7507 13.5408)">
<stop stop-color="#5A6084"/>
<stop offset="1" stop-color="#323B63"/>
</radialGradient>
<radialGradient id="paint28_radial_174_67025" cx="0" cy="0" r="1" gradientUnits="userSpaceOnUse" gradientTransform="translate(39.9065 34.3243) scale(16.8858 8.54733)">
<stop stop-color="#5A6084"/>
<stop offset="1" stop-color="#323B63"/>
</radialGradient>
<radialGradient id="paint29_radial_174_67025" cx="0" cy="0" r="1" gradientUnits="userSpaceOnUse" gradientTransform="translate(29.4253 29.0608) scale(29.0614 14.7104)">
<stop stop-color="#5A6084"/>
<stop offset="1" stop-color="#323B63"/>
</radialGradient>
<radialGradient id="paint30_radial_174_67025" cx="0" cy="0" r="1" gradientUnits="userSpaceOnUse" gradientTransform="translate(146.036 0.584815) scale(171.441 171.217)">
<stop stop-color="#676C94"/>
<stop offset="1" stop-color="#17233A"/>
</radialGradient>
<radialGradient id="paint31_radial_174_67025" cx="0" cy="0" r="1" gradientUnits="userSpaceOnUse" gradientTransform="translate(222.701 -39.408) scale(65.7658 65.6795)">
<stop stop-color="#8899C2"/>
<stop offset="1" stop-color="#727696"/>
</radialGradient>
<radialGradient id="paint32_radial_174_67025" cx="0" cy="0" r="1" gradientUnits="userSpaceOnUse" gradientTransform="translate(257.658 -13.2706) scale(21.0811 21.0534)">
<stop stop-color="#8899C2"/>
<stop offset="1" stop-color="#727696"/>
</radialGradient>
<radialGradient id="paint33_radial_174_67025" cx="0" cy="0" r="1" gradientUnits="userSpaceOnUse" gradientTransform="translate(265.183 6.88298) scale(49.1442 49.0797)">
<stop stop-color="#5A6084"/>
<stop offset="1" stop-color="#323B63"/>
</radialGradient>
<radialGradient id="paint34_radial_174_67025" cx="0" cy="0" r="1" gradientUnits="userSpaceOnUse" gradientTransform="translate(250.989 13.4958) scale(45.9911 45.9306)">
<stop stop-color="#5A6084"/>
<stop offset="1" stop-color="#323B63"/>
</radialGradient>
<radialGradient id="paint35_radial_174_67025" cx="0" cy="0" r="1" gradientUnits="userSpaceOnUse" gradientTransform="translate(263.558 31.49) scale(26.8469 26.8116)">
<stop stop-color="#5A6084"/>
<stop offset="1" stop-color="#323B63"/>
</radialGradient>
<radialGradient id="paint36_radial_174_67025" cx="0" cy="0" r="1" gradientUnits="userSpaceOnUse" gradientTransform="translate(224.686 4.13885) scale(68.3333 68.2437)">
<stop stop-color="#4E5470"/>
<stop offset="1" stop-color="#252E4F"/>
</radialGradient>
<radialGradient id="paint37_radial_174_67025" cx="0" cy="0" r="1" gradientUnits="userSpaceOnUse" gradientTransform="translate(189.775 19.9738) scale(140.676 140.491)">
<stop stop-color="#4E5B7D"/>
<stop offset="1" stop-color="#313556"/>
</radialGradient>
<radialGradient id="paint38_radial_174_67025" cx="0" cy="0" r="1" gradientUnits="userSpaceOnUse" gradientTransform="translate(232.794 9.22188) scale(68.4234 68.3336)">
<stop stop-color="#1A1F3A"/>
<stop offset="1" stop-color="#647394"/>
</radialGradient>
<linearGradient id="paint39_linear_174_67025" x1="172.695" y1="0" x2="172.695" y2="15.6101" gradientUnits="userSpaceOnUse">
<stop stop-color="#A0DBF0"/>
<stop offset="1" stop-color="#00FFEA"/>
</linearGradient>
<radialGradient id="paint40_radial_174_67025" cx="0" cy="0" r="1" gradientUnits="userSpaceOnUse" gradientTransform="translate(142.254 -29.466) scale(168.784 168.562)">
<stop stop-color="#7C8FB2"/>
<stop offset="1" stop-color="#515682"/>
</radialGradient>
<radialGradient id="paint41_radial_174_67025" cx="0" cy="0" r="1" gradientUnits="userSpaceOnUse" gradientTransform="translate(258.156 29.8708) scale(13.5586 13.5408)">
<stop stop-color="#5A6084"/>
<stop offset="1" stop-color="#323B63"/>
</radialGradient>
<clipPath id="clip0_174_67025">
<rect width="13.3333" height="48" fill="white"/>
</clipPath>
<clipPath id="clip1_174_67025">
<rect width="243.333" height="48" fill="white" transform="translate(13.334)"/>
</clipPath>
<clipPath id="clip2_174_67025">
<rect width="13.3333" height="48" fill="white" transform="translate(256.666)"/>
</clipPath>
</defs>
</svg>
