<svg width="241" height="48" viewBox="0 0 241 48" fill="none" xmlns="http://www.w3.org/2000/svg">
<g clip-path="url(#clip0_174_51423)">
<path fill-rule="evenodd" clip-rule="evenodd" d="M4.86304 1.61955C14.7279 1.34964 23.6468 0.359949 33.6468 6.10352e-05C40.4036 0.135019 49.3675 0.539892 57.8811 0.224991C73.4667 0.584878 89.5928 0.629864 93.827 0.539892C110.449 1.07972 127.746 1.70953 145.359 2.20437C146.079 2.33933 147.746 3.55395 148.061 4.31871C148.602 6.70297 149.142 8.72733 149.503 10.7967C149.593 12.2362 149.953 16.5999 149.953 19.524C149.458 28.3862 148.782 36.8885 148.422 43.4115C148.016 44.1313 144.863 45.7058 143.016 46.2456C125.178 46.9204 106.8 47.2803 87.1603 48.0001C69.5477 47.1453 47.3856 46.2456 29.5928 46.4705C20.2234 45.9307 11.6648 45.6608 4.05222 45.7058C3.19637 45.3459 1.75493 43.9963 1.48466 43.4565C0.673846 34.6392 0.313485 26.4518 -0.046875 17.6346C0.26844 12.4162 1.21439 8.72733 1.48466 4.40868C1.84502 3.73389 4.00718 1.93446 4.86304 1.61955Z" fill="url(#paint0_radial_174_51423)"/>
<path fill-rule="evenodd" clip-rule="evenodd" d="M3.28829 16.69C3.82883 13.631 4.90991 10.8868 5.67568 7.198L1.48649 4.40887C1.17117 8.72752 0.27027 12.3714 0 17.6347L3.28829 16.69Z" fill="url(#paint1_radial_174_51423)"/>
<path fill-rule="evenodd" clip-rule="evenodd" d="M1.48438 4.40876L5.67356 7.1529C5.67356 7.1529 6.84474 6.02825 6.97987 5.93828L4.86275 1.61963C4.05194 1.93453 1.84474 3.73397 1.48438 4.40876Z" fill="url(#paint2_radial_174_51423)"/>
<path fill-rule="evenodd" clip-rule="evenodd" d="M4.86328 1.61956L6.9804 5.93821C16.1696 5.62331 27.7011 4.31871 36.1696 3.50897L33.6471 -0.0449219C23.6471 0.404938 14.7281 1.34964 4.86328 1.61956Z" fill="url(#paint3_radial_174_51423)"/>
<path fill-rule="evenodd" clip-rule="evenodd" d="M29.8634 46.4707L32.431 42.6919C25.0436 42.242 13.5571 41.0724 6.12468 40.9824L4.09766 45.7059C11.7103 45.661 20.2688 45.9309 29.6382 46.4707C29.7283 46.4707 29.7733 46.4707 29.8634 46.4707Z" fill="url(#paint4_radial_174_51423)"/>
<path fill-rule="evenodd" clip-rule="evenodd" d="M4.09882 45.7053L6.12584 40.9818C5.72044 40.9368 5.13485 40.6219 4.99972 40.397L1.53125 43.501C1.84657 44.0408 3.28801 45.3904 4.09882 45.7503V45.7053Z" fill="url(#paint5_radial_174_51423)"/>
<path fill-rule="evenodd" clip-rule="evenodd" d="M1.53153 43.4568L5 40.3527C4.32432 32.4802 3.6036 24.5627 3.28829 16.6901L0 17.6348C0.36036 26.4521 0.720721 34.6395 1.53153 43.4568Z" fill="url(#paint6_radial_174_51423)"/>
<path fill-rule="evenodd" clip-rule="evenodd" d="M26.6182 12.911C28.4651 11.6963 30.3119 10.4367 32.1137 8.90722C32.9246 7.60262 33.7804 6.29803 34.5912 4.94845C34.9966 4.31865 35.1318 3.91378 34.7264 3.64386C26.4381 4.45361 15.6273 5.62324 6.93356 5.93814C6.79842 6.02811 5.76239 7.06279 5.62725 7.15276C4.95158 10.6167 3.96059 13.2259 3.375 16.015C3.46509 16.15 3.55518 16.2399 3.64527 16.2849C4.45608 16.6448 19.9065 13.7207 23.6453 13.1359C24.411 13.0009 25.9426 13.0459 26.5732 12.911H26.6182Z" fill="url(#paint7_radial_174_51423)"/>
<path fill-rule="evenodd" clip-rule="evenodd" d="M73.4693 30.141C64.5503 25.9124 40.7665 16.6453 29.4152 14.1261C25.6314 13.2713 24.9107 13.6762 21.1269 14.216C14.3701 15.2057 4.37014 16.6003 3.55933 16.9152C3.46924 16.9152 3.37915 17.0051 3.28906 17.0951C3.60438 24.8327 4.3251 32.6153 5.00077 40.3529C5.18095 40.5778 5.76654 40.8927 6.1269 40.9377C7.83861 40.9377 9.7305 41.0276 11.7575 41.1626C18.6044 41.5225 26.7125 42.3322 32.4332 42.6471C41.8927 42.5122 51.3972 42.2423 58.1539 42.3772C60.6765 42.3772 64.7756 42.6921 69.3251 43.007C74.3251 43.2769 79.3251 43.9067 84.3702 44.0417C85.4062 44.0417 86.2621 43.9517 86.3972 43.8618C86.6224 43.6818 85.7666 41.9723 84.8657 40.3079C81.9828 37.7437 79.235 35.1345 76.4873 32.4353C75.226 31.1757 75.0909 30.8608 73.4693 30.0961V30.141Z" fill="url(#paint8_radial_174_51423)"/>
<path opacity="0.75" fill-rule="evenodd" clip-rule="evenodd" d="M5.44813 2.8791C15.0427 2.51921 24.9977 2.69916 34.5022 1.21462L58.331 1.61949C70.268 1.07966 81.9346 1.61949 93.4661 1.88941C104.322 2.20431 135.809 1.39456 144.637 3.59888C145.133 3.59888 146.664 4.31865 146.799 5.26336C148.736 7.78257 149.142 10.5717 149.727 13.6757C149.637 12.4161 149.547 11.3814 149.502 10.7966C149.097 8.72727 148.601 6.70291 148.061 4.31865C147.745 3.55389 146.079 2.33927 145.358 2.20431C127.7 1.66448 110.403 1.07966 93.8265 0.539831C89.5923 0.629803 73.4661 0.584817 57.8806 0.22493C49.3671 0.539831 40.4031 0.0899719 33.6463 0C23.6463 0.404873 14.7274 1.34958 4.86254 1.61949C4.05173 1.9344 1.84452 3.73383 1.48416 4.40862C1.21389 8.14246 0.493173 11.3814 0.132812 15.6101C1.25894 12.0562 2.61029 8.6373 2.29497 4.94845C3.55624 4.45361 4.45714 3.86879 5.49317 2.8791H5.44813Z" fill="url(#paint9_linear_174_51423)"/>
<path fill-rule="evenodd" clip-rule="evenodd" d="M128.059 43.0513C131.572 43.0063 135.086 42.9164 138.599 42.8264C140.131 42.8264 141.617 42.7364 143.149 42.8264C143.284 42.8264 143.374 43.0063 143.374 43.1413C143.374 43.9061 143.284 44.7158 143.194 45.4806C143.374 44.6258 143.464 43.7261 143.734 42.8714C143.869 42.5115 145.311 41.8817 145.716 42.0616C146.527 42.3765 147.293 42.8714 148.059 43.2313C147.518 42.7814 146.978 42.3765 146.437 41.9267C145.716 41.3868 145.806 41.3419 145.851 40.3972C145.942 38.9576 146.032 37.5181 146.122 36.0335C146.122 30.9051 146.302 26.2716 146.707 21.1882C146.707 20.6933 146.707 20.0185 146.978 19.7936C147.068 19.7036 149.275 19.5687 149.545 19.5237C149.32 19.5237 146.978 19.3437 146.933 19.2987C146.572 18.8039 146.302 17.0495 146.032 16.2397C145.806 15.295 145.626 14.3503 145.401 13.4056C145.266 12.8208 145.176 12.191 145.311 12.011C145.356 11.966 145.671 11.7411 146.077 11.6511C146.707 11.4712 147.338 11.2913 147.969 11.1113C147.068 11.2913 146.392 11.4712 145.491 11.4262C144.68 11.4262 144.815 11.0213 144.77 10.2116C144.725 9.71675 144.455 9.17691 144.41 8.63708C144.32 7.87232 144.185 7.60241 144.77 7.06258C145.671 6.25283 146.527 5.48807 147.428 4.67832C146.572 5.30812 145.671 5.93793 144.815 6.56773C143.869 7.24252 143.464 6.47776 143.915 5.44308C144.32 4.49838 144.68 3.50869 145.086 2.56398L143.554 5.30812C142.924 6.38779 142.653 6.16286 141.392 6.11787C133.329 5.89294 125.356 5.35311 117.338 4.67832C114.005 4.58835 94.1848 4.22846 93.3289 3.55367C93.0136 3.32874 93.419 2.24908 93.6443 0.764545C92.6983 3.37373 93.1938 3.50869 90.2208 4.04852C87.6533 4.22846 83.419 4.81328 81.0316 4.54336C80.4461 4.45339 80.3109 4.45339 80.3109 3.86857C80.3109 3.23877 80.2659 2.60897 80.2208 1.93418C80.1307 2.65395 80.0406 3.28376 79.9956 4.00353C79.9506 4.49838 79.5902 4.31843 79.0947 4.22846C76.7524 3.91356 74.41 3.68863 72.0677 3.55367C67.9235 3.59866 64.4551 4.00353 60.3109 4.27345C58.6443 4.27345 58.5992 2.74393 57.9686 0.629587C58.0587 1.2144 58.419 3.23877 58.2388 3.64364C58.0587 3.95855 57.6533 3.91356 56.8424 3.82359C54.9055 3.64364 52.9235 3.41872 50.9866 3.23877C47.7434 3.10381 44.5902 3.05883 41.347 3.05883C39.6803 3.05883 37.1578 3.37373 35.8965 2.92387C35.8064 2.92387 34.1397 0.764545 33.9145 0.494629C34.1397 0.944488 34.9956 2.38404 34.8605 2.78891C34.7253 3.23877 33.9596 3.19379 33.2839 3.23877C31.4821 3.37373 29.8154 3.50869 28.0136 3.55367C21.3019 4.40841 15.0857 4.94824 8.37398 5.3981C7.42803 5.44308 7.20281 5.713 6.75236 4.94824C6.16677 3.95855 5.58119 2.96886 4.95056 2.02415C5.44605 3.37373 5.8965 4.45339 6.25686 5.84796C6.34695 6.11787 5.40101 6.61272 5.04065 6.43277C3.82443 5.80297 2.83344 5.35311 1.66227 4.67832C2.47308 5.30812 3.01362 5.89294 3.82443 6.56773C4.9956 7.51244 4.86047 7.15255 4.50011 8.63708C3.91452 10.9764 3.37398 13.2706 2.78839 15.6099C2.56317 16.5546 2.51812 16.5546 1.61722 16.9145C1.07668 17.1394 0.716322 17.4093 0.175781 17.6343C0.761367 17.4993 1.30191 17.4093 1.88749 17.2744C2.47308 17.1394 2.87848 17.0045 2.87848 17.6793C2.87848 18.6689 2.87848 19.6137 2.92353 20.6033C3.1938 24.0673 3.46407 27.5312 3.73434 31.0401C4.00461 33.9192 4.22984 36.7983 4.50011 39.6774C4.50011 39.9023 4.50011 40.1272 4.36497 40.3522C4.0947 40.982 2.60821 42.3765 2.06767 42.9614C2.96857 42.2866 3.86947 41.6568 4.77038 40.982C4.81542 40.892 5.58119 41.1169 5.67128 41.3868C5.4911 42.0167 5.26587 42.6015 5.08569 43.2313C5.40101 42.6465 5.76137 42.0616 6.07668 41.4768C6.21182 41.3868 6.34695 41.2969 6.57218 41.2519C7.51812 41.2519 8.41902 41.2519 9.36497 41.2519C10.1307 41.2519 10.8965 41.2519 11.6623 41.2519C9.63524 41.1619 7.6983 41.0719 6.03164 41.027C5.62623 40.982 5.04065 40.6671 4.90551 40.4421C4.22984 32.7495 3.55416 24.922 3.1938 17.1844C3.28389 17.0944 3.32893 17.0495 3.46407 17.0045C4.31993 16.6896 14.3199 15.295 21.0316 14.3053C24.7704 13.7655 25.5361 13.3606 29.3199 14.2153C40.6713 16.7346 64.4551 26.0017 73.374 30.2303C74.9956 30.9951 75.1307 31.31 76.392 32.5696C79.1397 35.3137 81.9325 37.9229 84.7704 40.4421C85.6713 42.0616 86.5271 43.8161 86.3019 43.996C86.1668 44.086 85.3109 44.221 84.2749 44.176C79.2298 44.041 74.2298 43.4562 69.2298 43.1413C74.5001 43.8161 79.8154 44.131 85.401 44.8058C86.0767 44.8958 86.4821 44.9407 86.7073 45.1207C86.8875 45.2556 87.0677 46.3803 87.1127 47.5049C87.2929 45.9754 87.2929 45.0757 87.5632 44.9407C87.6983 44.9407 88.3289 44.8958 88.9596 44.8508C93.1488 44.7608 97.383 44.5359 101.572 44.086C108.915 42.8264 116.077 41.3419 122.788 39.3175C125.401 37.8779 128.059 36.5284 130.806 35.3137C133.284 34.2341 135.806 36.5734 138.194 37.9229C136.978 36.9332 135.851 36.1235 134.635 35.3137C133.239 34.369 132.428 34.3241 133.869 33.0644C137.293 30.0954 140.086 27.8911 143.779 25.2819C144.05 24.4271 145.806 20.9632 146.077 21.0982C146.122 21.0982 146.212 21.2331 146.302 21.5031C145.851 27.981 145.806 35.1338 145.401 41.7467C144.77 42.0616 144.05 42.3765 143.509 42.6015C138.374 42.7814 133.149 43.0063 127.878 43.1863L128.059 43.0513ZM101.707 44.086C97.383 44.086 93.0136 44.6708 88.6893 44.086C88.0136 43.996 87.6533 43.8611 87.428 43.5912C86.7073 42.8714 85.9415 41.1619 85.446 40.2172C81.7974 37.2032 78.7343 34.2791 76.1217 31.355C75.8064 30.3653 75.8064 30.0954 76.5722 29.1057C82.2479 21.3681 92.428 14.0804 101.167 9.98666C104.095 8.5921 107.293 7.42246 110.131 6.47776C110.942 5.84796 111.257 5.53305 111.662 5.35311C112.563 4.94824 113.509 5.12818 114.455 5.17317C124.275 5.62303 134.275 6.07289 143.329 6.61272C143.644 6.83765 143.915 7.06258 144.185 7.37748C144.365 8.77204 144.41 10.1666 144.68 11.5612C145.266 13.8105 145.987 16.7795 146.392 18.534C146.572 19.3437 146.572 19.6137 145.987 20.7833C145.266 22.1779 144.5 23.5724 143.554 24.6971C139.77 27.9361 135.851 30.9951 131.887 33.8742C129.05 35.8086 125.942 37.3381 122.653 38.5977C115.987 41.027 108.915 42.6465 101.752 44.086H101.707ZM74.5902 30.0504C60.2659 23.0776 44.9956 17.8142 28.7794 13.5855C27.8785 13.3606 27.4731 13.0907 27.4731 13.0007C27.4731 12.8658 27.8785 12.5059 28.5992 11.966C29.9055 10.9764 31.2569 10.0316 32.6533 9.13193C33.419 7.37748 34.9055 4.58835 36.2118 3.50869C43.3289 3.4637 51.9325 3.50869 58.9596 4.63334C66.5722 3.95855 72.9686 3.91356 80.1758 4.90325C84.7704 4.58835 88.5542 4.54336 92.8334 3.91356C98.1938 4.27345 103.915 4.58835 109.77 4.85826C110.446 4.85826 111.212 4.90325 110.266 5.57804C108.869 6.52274 104.815 7.91731 101.032 9.71675C97.2479 11.5162 93.8695 13.5855 92.6983 14.1254C92.0226 14.4403 92.0677 14.2153 92.0677 13.6305C92.0226 11.3812 92.0677 8.68207 92.2478 6.07289C91.9325 7.33249 91.6172 11.1563 91.7524 13.8555C91.7524 14.4853 91.8875 14.6652 90.8965 15.34C84.9956 19.2988 79.9055 23.7074 76.0316 28.9707C75.401 29.8704 75.3109 30.0504 74.6352 30.0054L74.5902 30.0504ZM3.41902 16.0598C4.00461 13.2256 4.9956 10.6615 5.67128 7.19753C5.80641 7.06258 6.84245 6.07289 6.97758 5.98291C15.6713 5.66801 26.4821 4.49838 34.7704 3.68863C35.1758 3.95855 35.0406 4.36342 34.6352 4.99322C33.8244 6.29781 32.9686 7.60241 32.1578 8.95199C30.401 10.4815 28.5542 11.7861 26.6623 12.9557C26.0316 13.0907 24.5001 13.0907 23.7343 13.1807C19.9956 13.8105 4.50011 16.7346 3.73434 16.3297C3.64425 16.2847 3.55416 16.1947 3.46407 16.0598H3.41902Z" fill="url(#paint10_radial_174_51423)"/>
<g style="mix-blend-mode:screen" opacity="0.5">
<path fill-rule="evenodd" clip-rule="evenodd" d="M16.89 19.434C15.6288 19.7489 14.3675 20.2888 13.4216 21.1885C12.3405 22.2681 10.8991 25.6421 11.7099 27.1266C12.1603 27.9364 13.1063 28.6561 14.0522 28.7461C15.4936 28.8361 17.0702 28.3862 18.2414 27.5315C19.3675 26.6768 19.9531 25.4621 20.809 24.3375C21.3495 23.6177 22.0252 22.9429 22.4756 22.1332C23.2414 20.7836 21.9801 19.434 21.0342 19.2541C19.4576 18.9842 18.4666 19.0292 16.89 19.389V19.434Z" fill="#373FA5"/>
</g>
<path fill-rule="evenodd" clip-rule="evenodd" d="M16.6205 19.164C15.3593 19.4789 14.098 20.0187 13.152 20.9185C12.071 21.9981 10.6295 25.3721 11.4403 26.8566C11.8908 27.6663 12.8367 28.3861 13.7827 28.4761C15.2241 28.5661 16.8007 28.1162 17.9719 27.2615C19.098 26.4067 19.6836 25.1921 20.5394 24.0675C21.08 23.3477 21.7556 22.6729 22.2061 21.8632C22.9719 20.5136 21.7106 19.164 20.7647 18.9841C19.1881 18.7141 18.1971 18.7591 16.6205 19.119V19.164Z" fill="url(#paint11_radial_174_51423)"/>
</g>
<g clip-path="url(#clip1_174_51423)">
<path fill-rule="evenodd" clip-rule="evenodd" d="M-1.37948 1.61937C15.7641 1.34946 31.2637 0.359765 48.6421 -0.00012207C60.3842 0.134836 75.9621 0.539709 90.7572 0.224808C117.842 0.584695 145.867 0.629681 153.225 0.539709C182.111 1.07954 212.171 1.70934 242.779 2.20419C244.031 2.33915 246.928 3.55377 247.476 4.31853C248.415 6.70278 249.354 8.72715 249.981 10.7965C250.137 12.2361 250.764 16.5997 250.764 19.5238C249.902 28.386 248.728 36.8883 248.102 43.4113C247.397 44.1311 241.918 45.7056 238.708 46.2454C207.709 46.9202 175.77 47.2801 141.64 47.9999C111.032 47.1451 72.5178 46.2454 41.5968 46.4704C25.3143 45.9305 10.4409 45.6606 -2.78854 45.7056C-4.27588 45.3457 -6.78087 43.9961 -7.25056 43.4563C-8.65961 34.6391 -9.28586 26.4516 -9.91211 17.6344C-9.36414 12.416 -7.72024 8.72715 -7.25056 4.4085C-6.62431 3.73371 -2.86682 1.93427 -1.37948 1.61937Z" fill="url(#paint12_radial_174_51423)"/>
<path fill-rule="evenodd" clip-rule="evenodd" d="M-1.37891 1.61944L2.3003 5.93809C18.2696 5.62318 38.3096 4.31859 53.0264 3.50884L48.6426 -0.0450439C31.2643 0.404815 15.7646 1.34952 -1.37891 1.61944Z" fill="url(#paint13_radial_174_51423)"/>
<path fill-rule="evenodd" clip-rule="evenodd" d="M48.6406 0L53.0244 3.55389C65.3928 3.5089 80.4227 3.55389 92.7128 4.67854L90.9906 0.269916C90.9906 0.269916 90.8341 0.269916 90.7558 0.269916C75.9607 0.584817 60.3828 0.134958 48.6406 0.0449859V0Z" fill="url(#paint14_radial_174_51423)"/>
<path fill-rule="evenodd" clip-rule="evenodd" d="M90.9941 0.269962L92.7163 4.67858C105.946 4.00379 117.062 3.95881 129.587 4.9485C137.571 4.6336 144.147 4.58861 151.584 3.95881L153.228 0.539877C145.869 0.629849 118.001 0.584863 90.9941 0.224976V0.269962Z" fill="url(#paint15_radial_174_51423)"/>
<path fill-rule="evenodd" clip-rule="evenodd" d="M153.228 0.539429L151.584 3.95836C178.982 4.99304 211.625 5.66783 239.259 6.56755L242.86 2.24889C212.173 1.70906 182.114 1.12425 153.306 0.584415L153.228 0.539429Z" fill="url(#paint16_radial_174_51423)"/>
<path fill-rule="evenodd" clip-rule="evenodd" d="M239.881 42.4667C208.021 43.1415 173.577 43.9513 141.717 44.6261V48C176.004 47.2802 207.864 46.9203 238.942 46.2456L239.959 42.4218L239.881 42.4667Z" fill="url(#paint17_radial_174_51423)"/>
<path fill-rule="evenodd" clip-rule="evenodd" d="M141.644 44.6257C127.945 43.861 101.564 42.5114 91.2308 42.4214C79.4886 42.2865 62.9713 42.5564 46.5323 42.6913L42.0703 46.4702C72.913 46.2452 111.271 47.1899 141.722 47.9997V44.6257H141.644Z" fill="url(#paint18_radial_174_51423)"/>
<path fill-rule="evenodd" clip-rule="evenodd" d="M42.0677 46.4706L46.5298 42.6918C33.6917 42.2419 13.73 41.0723 0.81366 40.9823L-2.70898 45.7058C10.5205 45.6608 25.3939 45.9308 41.6763 46.4706C41.8329 46.4706 41.9112 46.4706 42.0677 46.4706Z" fill="url(#paint19_radial_174_51423)"/>
<path fill-rule="evenodd" clip-rule="evenodd" d="M36.4301 12.911C39.6396 11.6964 42.8491 10.4368 45.9804 8.90728C47.3894 7.60268 48.8768 6.29809 50.2858 4.94851C50.9904 4.31871 51.2252 3.91384 50.5207 3.64392C36.117 4.45367 17.3295 5.6233 2.22131 5.9382C1.98646 6.02818 0.186002 7.06285 -0.0488412 7.15282C-1.22306 10.6167 -2.94524 13.2259 -3.96289 16.0151C-3.80633 16.15 -3.64977 16.24 -3.4932 16.285C-2.08415 16.6449 24.7662 13.7208 31.2636 13.136C32.5943 13.001 35.2559 13.046 36.3518 12.911H36.4301Z" fill="url(#paint20_radial_174_51423)"/>
<path fill-rule="evenodd" clip-rule="evenodd" d="M46.9164 9.13215C44.5679 10.0319 42.2195 10.9766 39.8711 11.9663C38.6186 12.5061 37.9141 12.911 37.9141 13.0009C37.9141 13.0909 38.6186 13.3608 40.1842 13.5858C68.3654 17.8144 94.9026 23.0778 119.796 30.0506C121.048 30.0956 121.127 29.9157 122.223 29.0159C128.955 23.7526 137.801 19.344 148.055 15.3852C149.778 14.7104 149.543 14.5305 149.543 13.9007C149.386 11.2015 149.856 7.42269 150.404 6.1181C150.012 8.72728 150.012 11.4264 150.091 13.6757C150.091 14.2606 150.091 14.4855 151.187 14.1706C153.222 13.6307 159.093 11.5164 165.669 9.76196C172.244 7.96252 179.368 6.56796 181.716 5.62325C183.282 5.03843 182.264 4.94846 181.247 4.90348C170.992 4.58857 160.894 4.31866 151.5 3.91379C144.141 4.58857 137.487 4.63356 129.503 4.90348C116.978 3.8688 105.862 3.91379 92.6325 4.63356C80.4206 3.50891 65.469 3.41894 53.1006 3.50891C50.8304 4.54359 48.2472 7.3777 46.9164 9.13215Z" fill="url(#paint21_radial_174_51423)"/>
<path fill-rule="evenodd" clip-rule="evenodd" d="M117.843 30.1409C102.343 25.9122 61.0106 16.6451 41.2838 14.1259C34.7082 13.2712 33.4557 13.6761 26.8801 14.2159C15.138 15.2056 -2.2404 16.6002 -3.64945 16.9151C-3.80602 16.9151 -3.96258 17.005 -4.11914 17.095C-3.57117 24.8326 -2.31868 32.6151 -1.14446 40.3527C-0.831339 40.5777 0.186313 40.8926 0.812561 40.9375C3.78724 40.9375 7.07504 41.0275 10.5977 41.1625C22.4964 41.5224 36.587 42.3321 46.5287 42.647C62.9677 42.5121 79.485 42.2421 91.2271 42.3771C95.6108 42.3771 102.734 42.692 110.641 43.0069C119.33 43.2768 128.019 43.9066 136.787 44.0416C138.587 44.0416 140.074 43.9516 140.309 43.8616C140.701 43.6817 139.213 41.9722 137.648 40.3077C132.638 37.7435 127.863 35.1344 123.087 32.4352C120.896 31.1756 120.661 30.8607 117.843 30.0959V30.1409Z" fill="url(#paint22_radial_174_51423)"/>
<path fill-rule="evenodd" clip-rule="evenodd" d="M165.985 9.98678C150.799 14.1255 133.029 21.3682 123.244 29.1058C121.913 30.1405 121.991 30.4104 122.461 31.3551C127.001 34.2792 132.403 37.2483 138.665 40.2173C139.526 41.162 140.857 42.8265 142.11 43.5913C142.579 43.8612 143.127 43.9961 144.301 44.0861C151.738 44.6259 159.331 44.0861 166.925 44.0861C179.371 42.6466 191.661 41.0271 203.247 38.5978C209.04 37.3382 214.363 35.8087 219.295 33.8743C226.262 30.9502 233.072 27.9362 239.569 24.6972C241.213 23.5725 242.544 22.178 243.797 20.7834C244.579 19.8837 244.814 19.4788 244.658 18.984C244.658 18.849 244.579 18.6691 244.501 18.5341C243.718 16.7347 242.466 13.7656 241.526 11.5613C241.057 10.2117 240.9 8.81714 240.665 7.37759C240.196 7.06269 239.726 6.79278 239.178 6.61283C223.444 6.073 206.065 5.66813 189 5.17328C188.217 5.17328 187.356 5.17328 186.573 5.1283C185.79 5.1283 184.929 5.17328 184.146 5.39821C183.364 5.57816 182.894 5.89306 181.485 6.52286C176.553 7.51255 170.995 8.68219 165.907 10.0318L165.985 9.98678Z" fill="url(#paint23_radial_174_51423)"/>
<path fill-rule="evenodd" clip-rule="evenodd" d="M217.734 35.2686C212.959 36.4832 208.34 37.8778 203.8 39.2724C192.214 41.2967 179.768 42.7813 166.93 44.0409C182.116 43.726 197.538 43.3661 212.724 43.0062C221.883 42.7813 231.042 42.6013 239.888 42.4214C240.827 42.1965 242.079 41.8816 243.175 41.5666C243.802 34.9987 243.958 27.8459 244.741 21.323C244.584 21.098 244.428 20.9631 244.35 20.9181C243.88 20.8281 240.827 24.292 240.357 25.1018C233.938 27.711 229.085 29.9153 223.135 32.8844C220.63 34.144 222.039 34.189 224.466 35.1337C226.58 35.9884 228.537 36.7981 230.65 37.7428C226.502 36.3933 222.118 34.054 217.812 35.1337L217.734 35.2686Z" fill="url(#paint24_radial_174_51423)"/>
<path opacity="0.75" fill-rule="evenodd" clip-rule="evenodd" d="M-0.362453 2.87898C16.3114 2.51909 33.6115 2.69903 50.1288 1.2145L91.5394 1.61937C112.284 1.07954 132.559 1.61937 152.599 1.88929C171.464 2.20419 226.183 1.39444 241.526 3.59875C242.387 3.59875 245.048 4.31853 245.283 5.26323C248.649 7.78245 249.354 10.5716 250.372 13.6756C250.215 12.416 250.058 11.3813 249.98 10.7965C249.276 8.72715 248.415 6.70278 247.475 4.31853C246.927 3.55377 244.031 2.33915 242.778 2.20419C212.092 1.66436 182.032 1.07954 153.225 0.539709C145.866 0.629681 117.842 0.584695 90.7566 0.224808C75.9615 0.539709 60.3836 0.0898498 48.6414 -0.00012207C31.2631 0.404751 15.7634 1.34946 -1.38011 1.61937C-2.78916 1.93427 -6.62493 3.73371 -7.25118 4.4085C-7.72087 8.14233 -8.97336 11.3813 -9.59961 15.61C-7.64258 12.0561 -5.29416 8.63718 -5.84212 4.94833C-3.65025 4.45349 -2.08463 3.86867 -0.284172 2.87898H-0.362453Z" fill="url(#paint25_linear_174_51423)"/>
<path fill-rule="evenodd" clip-rule="evenodd" d="M212.716 43.0512C218.822 43.0062 224.928 42.9163 231.034 42.8263C233.696 42.8263 236.279 42.7363 238.94 42.8263C239.175 42.8263 239.332 43.0062 239.332 43.1412C239.332 43.9059 239.175 44.7157 239.019 45.4804C239.332 44.6257 239.488 43.726 239.958 42.8713C240.193 42.5114 242.698 41.8816 243.402 42.0615C244.811 42.3764 246.142 42.8713 247.473 43.2311C246.534 42.7813 245.594 42.3764 244.655 41.9266C243.402 41.3867 243.559 41.3417 243.637 40.397C243.794 38.9575 243.95 37.5179 244.107 36.0334C244.107 30.905 244.42 26.2714 245.125 21.188C245.125 20.6932 245.125 20.0184 245.594 19.7935C245.751 19.7035 249.587 19.5685 250.056 19.5236C249.665 19.5236 245.594 19.3436 245.516 19.2986C244.89 18.8038 244.42 17.0493 243.95 16.2396C243.559 15.2949 243.246 14.3502 242.854 13.4055C242.62 12.8207 242.463 12.1909 242.698 12.0109C242.776 11.9659 243.324 11.741 244.029 11.651C245.125 11.4711 246.22 11.2911 247.316 11.1112C245.751 11.2911 244.577 11.4711 243.011 11.4261C241.602 11.4261 241.837 11.0212 241.758 10.2115C241.68 9.71662 241.211 9.17679 241.132 8.63696C240.976 7.8722 240.741 7.60229 241.758 7.06245C243.324 6.25271 244.811 5.48795 246.377 4.6782C244.89 5.308 243.324 5.93781 241.837 6.56761C240.193 7.2424 239.488 6.47764 240.271 5.44296C240.976 4.49826 241.602 3.50856 242.306 2.56386L239.645 5.308C238.549 6.38766 238.079 6.16274 235.887 6.11775C221.875 5.89282 208.019 5.35299 194.085 4.6782C188.293 4.58823 153.849 4.22834 152.362 3.55355C151.814 3.32862 152.518 2.24896 152.91 0.764422C151.266 3.37361 152.127 3.50856 146.96 4.0484C142.498 4.22834 135.14 4.81316 130.991 4.54324C129.973 4.45327 129.738 4.45327 129.738 3.86845C129.738 3.23865 129.66 2.60885 129.582 1.93406C129.425 2.65383 129.269 3.28363 129.19 4.00341C129.112 4.49826 128.486 4.31831 127.625 4.22834C123.554 3.91344 119.484 3.68851 115.413 3.55355C108.211 3.59854 102.184 4.00341 94.9817 4.27333C92.0853 4.27333 92.007 2.7438 90.9111 0.629465C91.0676 1.21428 91.6939 3.23865 91.3807 3.64352C91.0676 3.95842 90.3631 3.91344 88.954 3.82347C85.5879 3.64352 82.1436 3.41859 78.7775 3.23865C73.1413 3.10369 67.6616 3.05871 62.0254 3.05871C59.129 3.05871 54.7452 3.37361 52.5534 2.92375C52.3968 2.92375 49.5004 0.764422 49.109 0.494507C49.5004 0.944366 50.9878 2.38392 50.7529 2.78879C50.5181 3.23865 49.1873 3.19366 48.0131 3.23865C44.8818 3.37361 41.9854 3.50856 38.8542 3.55355C27.1903 4.40828 16.3876 4.94811 4.7237 5.39797C3.0798 5.44296 2.68839 5.71288 1.90558 4.94811C0.887932 3.95842 -0.12972 2.96873 -1.22565 2.02403C-0.364563 3.37361 0.418246 4.45327 1.04449 5.84783C1.20106 6.11775 -0.442844 6.61259 -1.06909 6.43265C-3.18268 5.80285 -4.90486 5.35299 -6.94017 4.6782C-5.53111 5.308 -4.59174 5.89282 -3.18268 6.56761C-1.14737 7.51231 -1.38222 7.15243 -2.00846 8.63696C-3.02612 10.9762 -3.96549 13.2705 -4.98314 15.6098C-5.37455 16.5545 -5.45283 16.5545 -7.01845 16.9144C-7.95782 17.1393 -8.58407 17.4092 -9.52344 17.6342C-8.50578 17.4992 -7.56641 17.4092 -6.54876 17.2743C-5.53111 17.1393 -4.82658 17.0043 -4.82658 17.6791C-4.82658 18.6688 -4.82658 19.6135 -4.7483 20.6032C-4.27861 24.0671 -3.80893 27.5311 -3.33924 31.04C-2.86956 33.9191 -2.47815 36.7982 -2.00846 39.6773C-2.00846 39.9022 -2.00846 40.1271 -2.24331 40.3521C-2.71299 40.9819 -5.29626 42.3764 -6.23564 42.9612C-4.67002 42.2864 -3.1044 41.6566 -1.53878 40.9819C-1.4605 40.8919 -0.12972 41.1168 0.0268415 41.3867C-0.286282 42.0165 -0.677687 42.6013 -0.990811 43.2311C-0.442844 42.6463 0.183404 42.0615 0.731371 41.4767C0.966213 41.3867 1.20106 41.2968 1.59246 41.2518C3.23636 41.2518 4.80198 41.2518 6.44588 41.2518C7.77666 41.2518 9.10743 41.2518 10.4382 41.2518C6.91557 41.1618 3.54949 41.0718 0.65309 41.0268C-0.0514392 40.9819 -1.06909 40.667 -1.30393 40.442C-2.47815 32.7494 -3.65236 24.9219 -4.27861 17.1843C-4.12205 17.0943 -4.04377 17.0493 -3.80893 17.0043C-2.32159 16.6894 15.0568 15.2949 26.7207 14.3052C33.218 13.7654 34.5488 13.3605 41.1244 14.2152C60.8512 16.7344 102.184 26.0015 117.683 30.2302C120.501 30.995 120.736 31.3099 122.928 32.5695C127.703 35.3136 132.557 37.9228 137.488 40.442C139.054 42.0615 140.541 43.816 140.15 43.9959C139.915 44.0859 138.428 44.2208 136.627 44.1759C127.86 44.0409 119.17 43.4561 110.481 43.1412C119.64 43.816 128.877 44.1309 138.584 44.8057C139.758 44.8956 140.463 44.9406 140.854 45.1206C141.167 45.2555 141.481 46.3802 141.559 47.5048C141.872 45.9753 141.872 45.0756 142.342 44.9406C142.576 44.9406 143.672 44.8956 144.768 44.8506C152.048 44.7607 159.407 44.5357 166.687 44.0859C179.447 42.8263 191.894 41.3417 203.557 39.3174C208.098 37.8778 212.716 36.5282 217.491 35.3136C221.797 34.234 226.181 36.5732 230.329 37.9228C228.216 36.9331 226.259 36.1234 224.145 35.3136C221.719 34.3689 220.309 34.3239 222.814 33.0643C228.764 30.0953 233.617 27.8909 240.036 25.2818C240.506 24.427 243.559 20.9631 244.029 21.0981C244.107 21.0981 244.263 21.233 244.42 21.5029C243.637 27.9809 243.559 35.1337 242.854 41.7466C241.758 42.0615 240.506 42.3764 239.567 42.6013C230.643 42.7813 221.562 43.0062 212.403 43.1862L212.716 43.0512ZM166.922 44.0859C159.407 44.0859 151.814 44.6707 144.299 44.0859C143.124 43.9959 142.498 43.861 142.107 43.591C140.854 42.8713 139.524 41.1618 138.662 40.2171C132.322 37.203 126.999 34.2789 122.458 31.3549C121.91 30.3652 121.91 30.0953 123.241 29.1056C133.104 21.368 150.796 14.0803 165.982 9.98654C171.071 8.59198 176.629 7.42234 181.56 6.47764C182.969 5.84783 183.517 5.53293 184.222 5.35299C185.788 4.94811 187.431 5.12806 189.075 5.17304C206.141 5.6229 223.519 6.07276 239.253 6.61259C239.801 6.83752 240.271 7.06245 240.741 7.37736C241.054 8.77192 241.132 10.1665 241.602 11.561C242.62 13.8103 243.872 16.7794 244.577 18.5339C244.89 19.3436 244.89 19.6135 243.872 20.7832C242.62 22.1777 241.289 23.5723 239.645 24.6969C233.069 27.9359 226.259 30.995 219.37 33.8741C214.438 35.8085 209.037 37.338 203.323 38.5976C191.737 41.0268 179.447 42.6463 167 44.0859H166.922ZM119.797 30.0503C94.9034 23.0774 68.3661 17.8141 40.185 13.5854C38.6194 13.3605 37.9148 13.0906 37.9148 13.0006C37.9148 12.8656 38.6194 12.5058 39.8719 11.9659C42.142 10.9762 44.4904 10.0315 46.9171 9.13181C48.2479 7.37736 50.8312 4.58823 53.1013 3.50856C65.4697 3.46358 80.4214 3.50856 92.6332 4.63321C105.863 3.95842 116.979 3.91344 129.504 4.90313C137.488 4.58823 144.064 4.54324 151.501 3.91344C160.816 4.27333 170.758 4.58823 180.934 4.85814C182.108 4.85814 183.439 4.90313 181.795 5.57792C179.369 6.52262 172.323 7.91719 165.748 9.71662C159.172 11.5161 153.301 13.5854 151.266 14.1252C150.091 14.4401 150.17 14.2152 150.17 13.6304C150.091 11.3811 150.17 8.68195 150.483 6.07276C149.935 7.33237 149.387 11.1562 149.622 13.8553C149.622 14.4851 149.857 14.6651 148.134 15.3399C137.88 19.2986 129.034 23.7073 122.302 28.9706C121.206 29.8703 121.049 30.0503 119.875 30.0053L119.797 30.0503ZM-3.88721 16.0596C-2.86956 13.2255 -1.14737 10.6613 0.0268415 7.19741C0.261684 7.06245 2.06215 6.07276 2.29699 5.98279C17.4052 5.66789 36.1926 4.49826 50.5963 3.68851C51.3009 3.95842 51.066 4.3633 50.3615 4.9931C48.9525 6.29769 47.4651 7.60228 46.0561 8.95186C43.0031 10.4814 39.7936 11.786 36.5058 12.9556C35.4098 13.0906 32.7483 13.0906 31.4175 13.1805C24.9202 13.8103 -2.00846 16.7344 -3.33924 16.3296C-3.4958 16.2846 -3.65236 16.1946 -3.80893 16.0596H-3.88721Z" fill="url(#paint26_radial_174_51423)"/>
<g style="mix-blend-mode:screen" opacity="0.5">
<path fill-rule="evenodd" clip-rule="evenodd" d="M34.5525 28.0258C33.848 28.0258 32.9086 28.1608 32.4389 28.4757C31.4213 29.1955 30.7168 30.0502 30.4036 30.9049C30.0905 31.8496 32.8303 32.7044 34.1611 32.7493C35.2571 32.7493 36.4313 32.5244 37.0575 32.0296C38.0752 31.2648 36.5878 28.1158 34.5525 27.9808V28.0258Z" fill="#373FA5"/>
</g>
<g style="mix-blend-mode:screen" opacity="0.5">
<path fill-rule="evenodd" clip-rule="evenodd" d="M19.52 19.4339C17.3281 19.7488 15.1363 20.2886 13.4924 21.1884C11.6136 22.268 9.10864 25.642 10.5177 27.1265C11.3005 27.9362 12.9444 28.656 14.5883 28.746C17.0933 28.836 19.8331 28.3861 21.8684 27.5314C23.8255 26.6766 24.8431 25.462 26.3305 24.3374C27.2698 23.6176 28.444 22.9428 29.2269 22.1331C30.5576 20.7835 28.3658 19.4339 26.7219 19.254C23.982 18.984 22.2598 19.029 19.52 19.3889V19.4339Z" fill="#373FA5"/>
</g>
<g style="mix-blend-mode:screen" opacity="0.5">
<path fill-rule="evenodd" clip-rule="evenodd" d="M225.483 18.6692C222.665 18.9841 219.69 21.7282 218.986 23.3477C218.281 25.0572 219.612 25.9569 221.021 25.642C224.152 24.9222 232.92 22.8978 233.546 20.6935C233.859 19.5689 232.92 18.5792 230.806 18.3993C229.084 18.2193 227.205 18.4442 225.483 18.6692Z" fill="#373FA5"/>
</g>
<path fill-rule="evenodd" clip-rule="evenodd" d="M225.008 18.3542C222.19 18.6691 219.216 21.4133 218.511 23.0328C217.806 24.7422 219.137 25.6419 220.546 25.327C223.678 24.6073 232.445 22.5829 233.071 20.3786C233.384 19.2539 232.445 18.2643 230.331 18.0843C228.609 17.9044 226.73 18.1293 225.008 18.3542Z" fill="url(#paint27_radial_174_51423)"/>
<path fill-rule="evenodd" clip-rule="evenodd" d="M34.0779 27.7114C33.3734 27.7114 32.434 27.8463 31.9643 28.1612C30.9467 28.881 30.2421 29.7357 29.929 30.5905C29.6159 31.5352 32.3557 32.3899 33.6865 32.4349C34.7824 32.4349 35.9567 32.21 36.5829 31.7151C37.6006 30.9504 36.1132 27.8013 34.0779 27.6664V27.7114Z" fill="url(#paint28_radial_174_51423)"/>
<path fill-rule="evenodd" clip-rule="evenodd" d="M19.0552 19.1639C16.8633 19.4788 14.6714 20.0186 13.0275 20.9183C11.1488 21.998 8.6438 25.3719 10.0529 26.8565C10.8357 27.6662 12.4796 28.386 14.1235 28.476C16.6285 28.5659 19.3683 28.1161 21.4036 27.2614C23.3606 26.4066 24.3783 25.192 25.8656 24.0674C26.805 23.3476 27.9792 22.6728 28.762 21.863C30.0928 20.5135 27.9009 19.1639 26.257 18.9839C23.5172 18.714 21.795 18.759 19.0552 19.1189V19.1639Z" fill="url(#paint29_radial_174_51423)"/>
</g>
<g clip-path="url(#clip2_174_51423)">
<path fill-rule="evenodd" clip-rule="evenodd" d="M95.865 1.61949C105.73 1.34958 114.649 0.359888 124.649 0C131.406 0.134958 140.37 0.539831 148.883 0.22493C164.469 0.584817 180.595 0.629803 184.829 0.539831C201.451 1.07966 218.748 1.70947 236.361 2.20431C237.081 2.33927 238.748 3.55389 239.063 4.31865C239.604 6.70291 240.144 8.72727 240.505 10.7966C240.595 12.2362 240.955 16.5998 240.955 19.5239C240.46 28.3861 239.784 36.8885 239.424 43.4114C239.018 44.1312 235.865 45.7057 234.018 46.2455C216.18 46.9203 197.802 47.2802 178.162 48C160.55 47.1453 138.388 46.2455 120.595 46.4705C111.225 45.9306 102.667 45.6607 95.0542 45.7057C94.1983 45.3458 92.7569 43.9963 92.4866 43.4564C91.6758 34.6392 91.3154 26.4517 90.9551 17.6345C91.2704 12.4161 92.2163 8.72727 92.4866 4.40862C92.847 3.73383 95.0091 1.9344 95.865 1.61949Z" fill="url(#paint30_radial_174_51423)"/>
<path fill-rule="evenodd" clip-rule="evenodd" d="M184.827 0.539551L183.881 3.95848C199.647 4.99316 218.43 5.66795 234.331 6.56767L236.403 2.24902C218.746 1.70919 201.448 1.12437 184.872 0.584537L184.827 0.539551Z" fill="url(#paint31_radial_174_51423)"/>
<path fill-rule="evenodd" clip-rule="evenodd" d="M236.406 2.24958L234.334 6.56823C234.649 6.79316 234.92 7.01809 235.19 7.33299L239.109 4.31893C238.793 3.55417 237.127 2.33955 236.406 2.20459V2.24958Z" fill="url(#paint32_radial_174_51423)"/>
<path fill-rule="evenodd" clip-rule="evenodd" d="M239.065 4.36377L235.146 7.37783C235.327 8.77239 235.372 10.167 235.642 11.5615C236.363 14.3506 237.354 18.2194 237.579 19.614H240.957C240.957 16.6899 240.597 12.3263 240.507 10.8867C240.101 8.81738 239.606 6.79301 239.065 4.40876V4.36377Z" fill="url(#paint33_radial_174_51423)"/>
<path fill-rule="evenodd" clip-rule="evenodd" d="M240.998 19.5239H237.62C237.034 26.4967 236.989 34.4143 236.584 41.612L239.512 43.4115C239.872 36.9335 240.548 28.3862 241.043 19.5239H240.998Z" fill="url(#paint34_radial_174_51423)"/>
<path fill-rule="evenodd" clip-rule="evenodd" d="M236.585 41.6118C235.954 41.9267 235.234 42.2416 234.693 42.4665L234.107 46.2904C235.909 45.7505 239.107 44.131 239.513 43.4562L236.585 41.6568V41.6118Z" fill="url(#paint35_radial_174_51423)"/>
<path fill-rule="evenodd" clip-rule="evenodd" d="M234.695 42.4669C216.362 43.1416 196.542 43.9514 178.209 44.6262V48.0001C197.939 47.2804 216.272 46.9205 234.155 46.2457L234.741 42.4219L234.695 42.4669Z" fill="url(#paint36_radial_174_51423)"/>
<path fill-rule="evenodd" clip-rule="evenodd" d="M192.171 9.9869C183.432 14.1256 173.207 21.3683 167.576 29.1059C166.811 30.1406 166.856 30.4105 167.126 31.3552C169.739 34.2793 172.847 37.2484 176.45 40.2174C176.946 41.1622 177.712 42.8266 178.432 43.5914C178.703 43.8613 179.018 43.9963 179.694 44.0862C183.973 44.6261 188.342 44.0862 192.712 44.0862C199.874 42.6467 206.946 41.0272 213.613 38.598C216.946 37.3383 220.009 35.8088 222.847 33.8744C226.856 30.9503 230.775 27.9363 234.513 24.6973C235.459 23.5727 236.225 22.1781 236.946 20.7835C237.396 19.8838 237.531 19.4789 237.441 18.9841C237.441 18.8491 237.396 18.6692 237.351 18.5342C236.901 16.7348 236.18 13.7657 235.64 11.5614C235.369 10.2118 235.279 8.81726 235.144 7.37771C234.874 7.06281 234.604 6.7929 234.288 6.61295C225.234 6.07312 215.234 5.66825 205.414 5.1734C204.964 5.1734 204.468 5.1734 204.018 5.12842C203.567 5.12842 203.072 5.1734 202.622 5.39833C202.171 5.57828 201.901 5.89318 201.09 6.52298C198.252 7.51267 195.054 8.68231 192.126 10.0319L192.171 9.9869Z" fill="url(#paint37_radial_174_51423)"/>
<path fill-rule="evenodd" clip-rule="evenodd" d="M221.947 35.2687C219.199 36.4834 216.542 37.8779 213.929 39.2725C207.262 41.2969 200.1 42.7814 192.713 44.041C201.452 43.7261 210.326 43.3662 219.064 43.0063C224.335 42.7814 229.605 42.6014 234.695 42.4215C235.235 42.1966 235.956 41.8817 236.587 41.5668C236.947 34.9988 237.037 27.8461 237.488 21.3231C237.398 21.0982 237.307 20.9632 237.262 20.9182C236.992 20.8283 235.235 24.2922 234.965 25.1019C231.271 27.7111 228.479 29.9154 225.055 32.8845C223.614 34.1441 224.425 34.1891 225.821 35.1338C227.037 35.9885 228.163 36.7983 229.38 37.743C226.992 36.3934 224.47 34.0541 221.992 35.1338L221.947 35.2687Z" fill="url(#paint38_radial_174_51423)"/>
<path opacity="0.75" fill-rule="evenodd" clip-rule="evenodd" d="M96.4501 2.8791C106.045 2.51921 116 2.69916 125.504 1.21462L149.333 1.61949C161.27 1.07966 172.937 1.61949 184.468 1.88941C195.324 2.20431 226.81 1.39456 235.639 3.59888C236.135 3.59888 237.666 4.31865 237.801 5.26336C239.738 7.78257 240.144 10.5717 240.729 13.6757C240.639 12.4161 240.549 11.3814 240.504 10.7966C240.099 8.72727 239.603 6.70291 239.063 4.31865C238.747 3.55389 237.081 2.33927 236.36 2.20431C218.702 1.66448 201.405 1.07966 184.828 0.539831C180.594 0.629803 164.468 0.584817 148.883 0.22493C140.369 0.539831 131.405 0.0899719 124.648 0C114.648 0.404873 105.729 1.34958 95.8645 1.61949C95.0537 1.9344 92.8465 3.73383 92.4861 4.40862C92.2158 8.14246 91.4951 11.3814 91.1348 15.6101C92.2609 12.0562 93.6122 8.6373 93.2969 4.94845C94.5582 4.45361 95.4591 3.86879 96.4951 2.8791H96.4501Z" fill="url(#paint39_linear_174_51423)"/>
<path fill-rule="evenodd" clip-rule="evenodd" d="M219.065 43.0513C222.578 43.0063 226.092 42.9164 229.605 42.8264C231.137 42.8264 232.623 42.7364 234.155 42.8264C234.29 42.8264 234.38 43.0063 234.38 43.1413C234.38 43.9061 234.29 44.7158 234.2 45.4806C234.38 44.6258 234.47 43.7261 234.74 42.8714C234.875 42.5115 236.317 41.8817 236.722 42.0616C237.533 42.3765 238.299 42.8714 239.065 43.2313C238.524 42.7814 237.983 42.3765 237.443 41.9267C236.722 41.3868 236.812 41.3419 236.857 40.3972C236.947 38.9576 237.037 37.5181 237.128 36.0335C237.128 30.9051 237.308 26.2716 237.713 21.1882C237.713 20.6933 237.713 20.0185 237.983 19.7936C238.074 19.7036 240.281 19.5687 240.551 19.5237C240.326 19.5237 237.983 19.3437 237.938 19.2987C237.578 18.8039 237.308 17.0495 237.037 16.2397C236.812 15.295 236.632 14.3503 236.407 13.4056C236.272 12.8208 236.182 12.191 236.317 12.011C236.362 11.966 236.677 11.7411 237.083 11.6511C237.713 11.4712 238.344 11.2913 238.974 11.1113C238.074 11.2913 237.398 11.4712 236.497 11.4262C235.686 11.4262 235.821 11.0213 235.776 10.2116C235.731 9.71675 235.461 9.17691 235.416 8.63708C235.326 7.87232 235.191 7.60241 235.776 7.06258C236.677 6.25283 237.533 5.48807 238.434 4.67832C237.578 5.30812 236.677 5.93793 235.821 6.56773C234.875 7.24252 234.47 6.47776 234.92 5.44308C235.326 4.49838 235.686 3.50869 236.092 2.56398L234.56 5.30812C233.929 6.38779 233.659 6.16286 232.398 6.11787C224.335 5.89294 216.362 5.35311 208.344 4.67832C205.01 4.58835 185.191 4.22846 184.335 3.55367C184.019 3.32874 184.425 2.24908 184.65 0.764545C183.704 3.37373 184.2 3.50869 181.227 4.04852C178.659 4.22846 174.425 4.81328 172.037 4.54336C171.452 4.45339 171.317 4.45339 171.317 3.86857C171.317 3.23877 171.272 2.60897 171.227 1.93418C171.137 2.65395 171.047 3.28376 171.001 4.00353C170.956 4.49838 170.596 4.31843 170.101 4.22846C167.758 3.91356 165.416 3.68863 163.074 3.55367C158.929 3.59866 155.461 4.00353 151.317 4.27345C149.65 4.27345 149.605 2.74393 148.974 0.629587C149.065 1.2144 149.425 3.23877 149.245 3.64364C149.065 3.95855 148.659 3.91356 147.848 3.82359C145.911 3.64364 143.929 3.41872 141.992 3.23877C138.749 3.10381 135.596 3.05883 132.353 3.05883C130.686 3.05883 128.164 3.37373 126.902 2.92387C126.812 2.92387 125.146 0.764545 124.92 0.494629C125.146 0.944488 126.001 2.38404 125.866 2.78891C125.731 3.23877 124.965 3.19379 124.29 3.23877C122.488 3.37373 120.821 3.50869 119.019 3.55367C112.308 4.40841 106.092 4.94824 99.3798 5.3981C98.4339 5.44308 98.2087 5.713 97.7582 4.94824C97.1726 3.95855 96.587 2.96886 95.9564 2.02415C96.4519 3.37373 96.9024 4.45339 97.2627 5.84796C97.3528 6.11787 96.4069 6.61272 96.0465 6.43277C94.8303 5.80297 93.8393 5.35311 92.6681 4.67832C93.4789 5.30812 94.0195 5.89294 94.8303 6.56773C96.0015 7.51244 95.8663 7.15255 95.506 8.63708C94.9204 10.9764 94.3798 13.2706 93.7943 15.6099C93.569 16.5546 93.524 16.5546 92.6231 16.9145C92.0825 17.1394 91.7222 17.4093 91.1816 17.6343C91.7672 17.4993 92.3078 17.4093 92.8934 17.2744C93.4789 17.1394 93.8843 17.0045 93.8843 17.6793C93.8843 18.6689 93.8843 19.6137 93.9294 20.6033C94.1997 24.0673 94.4699 27.5312 94.7402 31.0401C95.0105 33.9192 95.2357 36.7983 95.506 39.6774C95.506 39.9023 95.506 40.1272 95.3708 40.3522C95.1006 40.982 93.6141 42.3765 93.0735 42.9614C93.9744 42.2866 94.8753 41.6568 95.7762 40.982C95.8213 40.892 96.587 41.1169 96.6771 41.3868C96.497 42.0167 96.2717 42.6015 96.0916 43.2313C96.4069 42.6465 96.7672 42.0616 97.0825 41.4768C97.2177 41.3868 97.3528 41.2969 97.578 41.2519C98.524 41.2519 99.4249 41.2519 100.371 41.2519C101.137 41.2519 101.902 41.2519 102.668 41.2519C100.641 41.1619 98.7042 41.0719 97.0375 41.027C96.6321 40.982 96.0465 40.6671 95.9114 40.4421C95.2357 32.7495 94.56 24.922 94.1997 17.1844C94.2897 17.0944 94.3348 17.0495 94.4699 17.0045C95.3258 16.6896 105.326 15.295 112.037 14.3053C115.776 13.7655 116.542 13.3606 120.326 14.2153C131.677 16.7346 155.461 26.0017 164.38 30.2303C166.001 30.9951 166.137 31.31 167.398 32.5696C170.146 35.3137 172.938 37.9229 175.776 40.4421C176.677 42.0616 177.533 43.8161 177.308 43.996C177.173 44.086 176.317 44.221 175.281 44.176C170.236 44.041 165.236 43.4562 160.236 43.1413C165.506 43.8161 170.821 44.131 176.407 44.8058C177.083 44.8958 177.488 44.9407 177.713 45.1207C177.893 45.2556 178.074 46.3803 178.119 47.5049C178.299 45.9754 178.299 45.0757 178.569 44.9407C178.704 44.9407 179.335 44.8958 179.965 44.8508C184.155 44.7608 188.389 44.5359 192.578 44.086C199.92 42.8264 207.083 41.3419 213.794 39.3175C216.407 37.8779 219.065 36.5284 221.812 35.3137C224.29 34.2341 226.812 36.5734 229.2 37.9229C227.983 36.9332 226.857 36.1235 225.641 35.3137C224.245 34.369 223.434 34.3241 224.875 33.0644C228.299 30.0954 231.092 27.8911 234.785 25.2819C235.056 24.4271 236.812 20.9632 237.083 21.0982C237.128 21.0982 237.218 21.2331 237.308 21.5031C236.857 27.981 236.812 35.1338 236.407 41.7467C235.776 42.0616 235.056 42.3765 234.515 42.6015C229.38 42.7814 224.155 43.0063 218.884 43.1863L219.065 43.0513ZM192.713 44.086C188.389 44.086 184.019 44.6708 179.695 44.086C179.019 43.996 178.659 43.8611 178.434 43.5912C177.713 42.8714 176.947 41.1619 176.452 40.2172C172.803 37.2032 169.74 34.2791 167.128 31.355C166.812 30.3653 166.812 30.0954 167.578 29.1057C173.254 21.3681 183.434 14.0804 192.173 9.98666C195.101 8.5921 198.299 7.42246 201.137 6.47776C201.947 5.84796 202.263 5.53305 202.668 5.35311C203.569 4.94824 204.515 5.12818 205.461 5.17317C215.281 5.62303 225.281 6.07289 234.335 6.61272C234.65 6.83765 234.92 7.06258 235.191 7.37748C235.371 8.77204 235.416 10.1666 235.686 11.5612C236.272 13.8105 236.992 16.7795 237.398 18.534C237.578 19.3437 237.578 19.6137 236.992 20.7833C236.272 22.1779 235.506 23.5724 234.56 24.6971C230.776 27.9361 226.857 30.9951 222.893 33.8742C220.056 35.8086 216.947 37.3381 213.659 38.5977C206.992 41.027 199.92 42.6465 192.758 44.086H192.713ZM165.596 30.0504C151.272 23.0776 136.001 17.8142 119.785 13.5855C118.884 13.3606 118.479 13.0907 118.479 13.0007C118.479 12.8658 118.884 12.5059 119.605 11.966C120.911 10.9764 122.263 10.0316 123.659 9.13193C124.425 7.37748 125.911 4.58835 127.218 3.50869C134.335 3.4637 142.938 3.50869 149.965 4.63334C157.578 3.95855 163.974 3.91356 171.182 4.90325C175.776 4.58835 179.56 4.54336 183.839 3.91356C189.2 4.27345 194.92 4.58835 200.776 4.85826C201.452 4.85826 202.218 4.90325 201.272 5.57804C199.875 6.52274 195.821 7.91731 192.037 9.71675C188.254 11.5162 184.875 13.5855 183.704 14.1254C183.028 14.4403 183.074 14.2153 183.074 13.6305C183.028 11.3812 183.074 8.68207 183.254 6.07289C182.938 7.33249 182.623 11.1563 182.758 13.8555C182.758 14.4853 182.893 14.6652 181.902 15.34C176.001 19.2988 170.911 23.7074 167.037 28.9707C166.407 29.8704 166.317 30.0504 165.641 30.0054L165.596 30.0504ZM94.4249 16.0598C95.0105 13.2256 96.0015 10.6615 96.6771 7.19753C96.8123 7.06258 97.8483 6.07289 97.9834 5.98291C106.677 5.66801 117.488 4.49838 125.776 3.68863C126.182 3.95855 126.047 4.36342 125.641 4.99322C124.83 6.29781 123.974 7.60241 123.164 8.95199C121.407 10.4815 119.56 11.7861 117.668 12.9557C117.037 13.0907 115.506 13.0907 114.74 13.1807C111.001 13.8105 95.506 16.7346 94.7402 16.3297C94.6501 16.2847 94.56 16.1947 94.4699 16.0598H94.4249Z" fill="url(#paint40_radial_174_51423)"/>
<g style="mix-blend-mode:screen" opacity="0.5">
<path fill-rule="evenodd" clip-rule="evenodd" d="M226.407 18.6693C224.786 18.9842 223.074 21.7283 222.669 23.3478C222.263 25.0573 223.029 25.957 223.84 25.6421C225.642 24.9223 230.687 22.898 231.047 20.6937C231.227 19.569 230.687 18.5793 229.47 18.3994C228.479 18.2194 227.398 18.4444 226.407 18.6693Z" fill="#373FA5"/>
</g>
<path fill-rule="evenodd" clip-rule="evenodd" d="M226.138 18.3543C224.516 18.6692 222.804 21.4134 222.399 23.0329C221.994 24.7424 222.759 25.6421 223.57 25.3272C225.372 24.6074 230.417 22.583 230.777 20.3787C230.958 19.2541 230.417 18.2644 229.201 18.0844C228.21 17.9045 227.129 18.1294 226.138 18.3543Z" fill="url(#paint41_radial_174_51423)"/>
</g>
<defs>
<radialGradient id="paint0_radial_174_51423" cx="0" cy="0" r="1" gradientUnits="userSpaceOnUse" gradientTransform="translate(26.0342 0.584876) scale(171.441 171.217)">
<stop stop-color="#676C94"/>
<stop offset="1" stop-color="#17233A"/>
</radialGradient>
<radialGradient id="paint1_radial_174_51423" cx="0" cy="0" r="1" gradientUnits="userSpaceOnUse" gradientTransform="translate(0.225225 19.4342) scale(34.8649 34.8191)">
<stop stop-color="#5A6084"/>
<stop offset="1" stop-color="#323B63"/>
</radialGradient>
<radialGradient id="paint2_radial_174_51423" cx="0" cy="0" r="1" gradientUnits="userSpaceOnUse" gradientTransform="translate(9.81771 6.92797) scale(12.8829 12.866)">
<stop stop-color="#8899C2"/>
<stop offset="1" stop-color="#727696"/>
</radialGradient>
<radialGradient id="paint3_radial_174_51423" cx="0" cy="0" r="1" gradientUnits="userSpaceOnUse" gradientTransform="translate(36.2597 -29.6907) scale(52.2523 52.1837)">
<stop stop-color="#8899C2"/>
<stop offset="1" stop-color="#727696"/>
</radialGradient>
<radialGradient id="paint4_radial_174_51423" cx="0" cy="0" r="1" gradientUnits="userSpaceOnUse" gradientTransform="translate(32.2508 13.0012) scale(55.7658 55.6926)">
<stop stop-color="#4E5470"/>
<stop offset="1" stop-color="#252E4F"/>
</radialGradient>
<radialGradient id="paint5_radial_174_51423" cx="0" cy="0" r="1" gradientUnits="userSpaceOnUse" gradientTransform="translate(9.72945 33.6041) scale(27.3874 27.3515)">
<stop stop-color="#5A6084"/>
<stop offset="1" stop-color="#323B63"/>
</radialGradient>
<radialGradient id="paint6_radial_174_51423" cx="0" cy="0" r="1" gradientUnits="userSpaceOnUse" gradientTransform="translate(-0.315314 14.1709) scale(48.6937 48.6298)">
<stop stop-color="#5A6084"/>
<stop offset="1" stop-color="#323B63"/>
</radialGradient>
<radialGradient id="paint7_radial_174_51423" cx="0" cy="0" r="1" gradientUnits="userSpaceOnUse" gradientTransform="translate(27.4291 12.731) scale(58.6937 58.6167)">
<stop stop-color="#4E5B7D"/>
<stop offset="1" stop-color="#313556"/>
</radialGradient>
<radialGradient id="paint8_radial_174_51423" cx="0" cy="0" r="1" gradientUnits="userSpaceOnUse" gradientTransform="translate(46.9828 -14.35) scale(133.694 133.518)">
<stop stop-color="#4E5B7D"/>
<stop offset="1" stop-color="#313556"/>
</radialGradient>
<linearGradient id="paint9_linear_174_51423" x1="52.6931" y1="0" x2="52.6931" y2="15.6101" gradientUnits="userSpaceOnUse">
<stop stop-color="#A0DBF0"/>
<stop offset="1" stop-color="#00FFEA"/>
</linearGradient>
<radialGradient id="paint10_radial_174_51423" cx="0" cy="0" r="1" gradientUnits="userSpaceOnUse" gradientTransform="translate(22.2479 -29.466) scale(168.784 168.562)">
<stop stop-color="#7C8FB2"/>
<stop offset="1" stop-color="#515682"/>
</radialGradient>
<radialGradient id="paint11_radial_174_51423" cx="0" cy="0" r="1" gradientUnits="userSpaceOnUse" gradientTransform="translate(21.4854 29.0609) scale(14.7297 14.7104)">
<stop stop-color="#5A6084"/>
<stop offset="1" stop-color="#323B63"/>
</radialGradient>
<radialGradient id="paint12_radial_174_51423" cx="0" cy="0" r="1" gradientUnits="userSpaceOnUse" gradientTransform="translate(35.4126 0.584693) scale(297.937 171.217)">
<stop stop-color="#676C94"/>
<stop offset="1" stop-color="#17233A"/>
</radialGradient>
<radialGradient id="paint13_radial_174_51423" cx="0" cy="0" r="1" gradientUnits="userSpaceOnUse" gradientTransform="translate(53.1829 -29.6908) scale(90.8059 52.1837)">
<stop stop-color="#8899C2"/>
<stop offset="1" stop-color="#727696"/>
</radialGradient>
<radialGradient id="paint14_radial_174_51423" cx="0" cy="0" r="1" gradientUnits="userSpaceOnUse" gradientTransform="translate(78.2308 -39.0478) scale(89.3969 51.3739)">
<stop stop-color="#8899C2"/>
<stop offset="1" stop-color="#727696"/>
</radialGradient>
<radialGradient id="paint15_radial_174_51423" cx="0" cy="0" r="1" gradientUnits="userSpaceOnUse" gradientTransform="translate(130.604 -21.6382) scale(93.3892 53.6682)">
<stop stop-color="#8899C2"/>
<stop offset="1" stop-color="#727696"/>
</radialGradient>
<radialGradient id="paint16_radial_174_51423" cx="0" cy="0" r="1" gradientUnits="userSpaceOnUse" gradientTransform="translate(168.649 -39.4081) scale(114.29 65.6795)">
<stop stop-color="#8899C2"/>
<stop offset="1" stop-color="#727696"/>
</radialGradient>
<radialGradient id="paint17_radial_174_51423" cx="0" cy="0" r="1" gradientUnits="userSpaceOnUse" gradientTransform="translate(172.09 4.13873) scale(118.752 68.2437)">
<stop stop-color="#4E5470"/>
<stop offset="1" stop-color="#252E4F"/>
</radialGradient>
<radialGradient id="paint18_radial_174_51423" cx="0" cy="0" r="1" gradientUnits="userSpaceOnUse" gradientTransform="translate(87.943 5.398) scale(99.4951 57.1771)">
<stop stop-color="#4E5470"/>
<stop offset="1" stop-color="#252E4F"/>
</radialGradient>
<radialGradient id="paint19_radial_174_51423" cx="0" cy="0" r="1" gradientUnits="userSpaceOnUse" gradientTransform="translate(46.2166 13.001) scale(96.9118 55.6926)">
<stop stop-color="#4E5470"/>
<stop offset="1" stop-color="#252E4F"/>
</radialGradient>
<radialGradient id="paint20_radial_174_51423" cx="0" cy="0" r="1" gradientUnits="userSpaceOnUse" gradientTransform="translate(37.8392 12.7311) scale(102 58.6167)">
<stop stop-color="#4E5B7D"/>
<stop offset="1" stop-color="#313556"/>
</radialGradient>
<radialGradient id="paint21_radial_174_51423" cx="0" cy="0" r="1" gradientUnits="userSpaceOnUse" gradientTransform="translate(97.7207 31.4452) scale(192.963 110.89)">
<stop stop-color="#4E5B7D"/>
<stop offset="1" stop-color="#313556"/>
</radialGradient>
<radialGradient id="paint22_radial_174_51423" cx="0" cy="0" r="1" gradientUnits="userSpaceOnUse" gradientTransform="translate(71.8134 -14.3502) scale(232.338 133.518)">
<stop stop-color="#4E5B7D"/>
<stop offset="1" stop-color="#313556"/>
</radialGradient>
<radialGradient id="paint23_radial_174_51423" cx="0" cy="0" r="1" gradientUnits="userSpaceOnUse" gradientTransform="translate(111.423 19.9737) scale(244.471 140.491)">
<stop stop-color="#4E5B7D"/>
<stop offset="1" stop-color="#313556"/>
</radialGradient>
<radialGradient id="paint24_radial_174_51423" cx="0" cy="0" r="1" gradientUnits="userSpaceOnUse" gradientTransform="translate(186.187 9.22176) scale(118.909 68.3336)">
<stop stop-color="#1A1F3A"/>
<stop offset="1" stop-color="#647394"/>
</radialGradient>
<linearGradient id="paint25_linear_174_51423" x1="81.7416" y1="-0.00012207" x2="81.7416" y2="15.61" gradientUnits="userSpaceOnUse">
<stop stop-color="#A0DBF0"/>
<stop offset="1" stop-color="#00FFEA"/>
</linearGradient>
<radialGradient id="paint26_radial_174_51423" cx="0" cy="0" r="1" gradientUnits="userSpaceOnUse" gradientTransform="translate(28.8342 -29.4661) scale(293.319 168.562)">
<stop stop-color="#7C8FB2"/>
<stop offset="1" stop-color="#515682"/>
</radialGradient>
<radialGradient id="paint27_radial_174_51423" cx="0" cy="0" r="1" gradientUnits="userSpaceOnUse" gradientTransform="translate(230.253 29.8706) scale(23.5626 13.5408)">
<stop stop-color="#5A6084"/>
<stop offset="1" stop-color="#323B63"/>
</radialGradient>
<radialGradient id="paint28_radial_174_51423" cx="0" cy="0" r="1" gradientUnits="userSpaceOnUse" gradientTransform="translate(36.7395 34.3243) scale(14.8734 8.54733)">
<stop stop-color="#5A6084"/>
<stop offset="1" stop-color="#323B63"/>
</radialGradient>
<radialGradient id="paint29_radial_174_51423" cx="0" cy="0" r="1" gradientUnits="userSpaceOnUse" gradientTransform="translate(27.5095 29.0608) scale(25.5979 14.7104)">
<stop stop-color="#5A6084"/>
<stop offset="1" stop-color="#323B63"/>
</radialGradient>
<radialGradient id="paint30_radial_174_51423" cx="0" cy="0" r="1" gradientUnits="userSpaceOnUse" gradientTransform="translate(117.036 0.584815) scale(171.441 171.217)">
<stop stop-color="#676C94"/>
<stop offset="1" stop-color="#17233A"/>
</radialGradient>
<radialGradient id="paint31_radial_174_51423" cx="0" cy="0" r="1" gradientUnits="userSpaceOnUse" gradientTransform="translate(193.701 -39.408) scale(65.7658 65.6795)">
<stop stop-color="#8899C2"/>
<stop offset="1" stop-color="#727696"/>
</radialGradient>
<radialGradient id="paint32_radial_174_51423" cx="0" cy="0" r="1" gradientUnits="userSpaceOnUse" gradientTransform="translate(228.658 -13.2706) scale(21.0811 21.0534)">
<stop stop-color="#8899C2"/>
<stop offset="1" stop-color="#727696"/>
</radialGradient>
<radialGradient id="paint33_radial_174_51423" cx="0" cy="0" r="1" gradientUnits="userSpaceOnUse" gradientTransform="translate(236.183 6.88298) scale(49.1442 49.0797)">
<stop stop-color="#5A6084"/>
<stop offset="1" stop-color="#323B63"/>
</radialGradient>
<radialGradient id="paint34_radial_174_51423" cx="0" cy="0" r="1" gradientUnits="userSpaceOnUse" gradientTransform="translate(221.989 13.4958) scale(45.9911 45.9306)">
<stop stop-color="#5A6084"/>
<stop offset="1" stop-color="#323B63"/>
</radialGradient>
<radialGradient id="paint35_radial_174_51423" cx="0" cy="0" r="1" gradientUnits="userSpaceOnUse" gradientTransform="translate(234.558 31.49) scale(26.8469 26.8116)">
<stop stop-color="#5A6084"/>
<stop offset="1" stop-color="#323B63"/>
</radialGradient>
<radialGradient id="paint36_radial_174_51423" cx="0" cy="0" r="1" gradientUnits="userSpaceOnUse" gradientTransform="translate(195.686 4.13885) scale(68.3333 68.2437)">
<stop stop-color="#4E5470"/>
<stop offset="1" stop-color="#252E4F"/>
</radialGradient>
<radialGradient id="paint37_radial_174_51423" cx="0" cy="0" r="1" gradientUnits="userSpaceOnUse" gradientTransform="translate(160.775 19.9738) scale(140.676 140.491)">
<stop stop-color="#4E5B7D"/>
<stop offset="1" stop-color="#313556"/>
</radialGradient>
<radialGradient id="paint38_radial_174_51423" cx="0" cy="0" r="1" gradientUnits="userSpaceOnUse" gradientTransform="translate(203.794 9.22188) scale(68.4234 68.3336)">
<stop stop-color="#1A1F3A"/>
<stop offset="1" stop-color="#647394"/>
</radialGradient>
<linearGradient id="paint39_linear_174_51423" x1="143.695" y1="0" x2="143.695" y2="15.6101" gradientUnits="userSpaceOnUse">
<stop stop-color="#A0DBF0"/>
<stop offset="1" stop-color="#00FFEA"/>
</linearGradient>
<radialGradient id="paint40_radial_174_51423" cx="0" cy="0" r="1" gradientUnits="userSpaceOnUse" gradientTransform="translate(113.254 -29.466) scale(168.784 168.562)">
<stop stop-color="#7C8FB2"/>
<stop offset="1" stop-color="#515682"/>
</radialGradient>
<radialGradient id="paint41_radial_174_51423" cx="0" cy="0" r="1" gradientUnits="userSpaceOnUse" gradientTransform="translate(229.156 29.8708) scale(13.5586 13.5408)">
<stop stop-color="#5A6084"/>
<stop offset="1" stop-color="#323B63"/>
</radialGradient>
<clipPath id="clip0_174_51423">
<rect width="13.3333" height="48" fill="white"/>
</clipPath>
<clipPath id="clip1_174_51423">
<rect width="214.333" height="48" fill="white" transform="translate(13.334)"/>
</clipPath>
<clipPath id="clip2_174_51423">
<rect width="13.3333" height="48" fill="white" transform="translate(227.666)"/>
</clipPath>
</defs>
</svg>
