<svg width="278" height="64" viewBox="0 0 278 64" fill="none" xmlns="http://www.w3.org/2000/svg">
<g clip-path="url(#clip0_174_45712)">
<path fill-rule="evenodd" clip-rule="evenodd" d="M6.48405 2.15945C19.6372 1.79956 31.5291 0.479972 44.8624 0.00012207C53.8714 0.180066 65.8234 0.719897 77.1748 0.300028C97.9555 0.779878 119.457 0.83986 125.103 0.719897C147.265 1.43967 170.328 2.27941 193.811 2.9392C194.772 3.11915 196.995 4.73864 197.415 5.75832C198.136 8.93733 198.856 11.6365 199.337 14.3956C199.457 16.315 199.938 22.1332 199.938 26.032C199.277 37.8483 198.376 49.1847 197.895 57.882C197.355 58.8417 193.151 60.9411 190.688 61.6609C166.904 62.5606 142.4 63.0404 116.214 64.0001C92.7303 62.8605 63.1808 61.6609 39.457 61.9608C26.9645 61.241 15.5531 60.8811 5.40297 60.9411C4.26182 60.4612 2.3399 58.6618 1.97954 57.942C0.898461 46.1857 0.417981 35.2691 -0.0625 23.5128C0.35792 16.5549 1.61918 11.6365 1.97954 5.87829C2.46002 4.97857 5.34291 2.57932 6.48405 2.15945Z" fill="url(#paint0_radial_174_45712)"/>
<path fill-rule="evenodd" clip-rule="evenodd" d="M4.38438 22.2534C5.10511 18.1746 6.54655 14.5158 7.56757 9.59732L1.98198 5.87848C1.56156 11.6367 0.36036 16.4952 0 23.513L4.38438 22.2534Z" fill="url(#paint1_radial_174_45712)"/>
<path fill-rule="evenodd" clip-rule="evenodd" d="M1.98047 5.87869L7.56605 9.53755C7.56605 9.53755 9.12762 8.03801 9.3078 7.91805L6.48497 2.15985C5.40389 2.57972 2.46095 4.97897 1.98047 5.87869Z" fill="url(#paint2_radial_174_45712)"/>
<path fill-rule="evenodd" clip-rule="evenodd" d="M6.48438 2.15943L9.3072 7.91763C21.5595 7.49776 36.9348 5.75831 48.2261 4.67864L44.8628 -0.0598755C31.5294 0.539937 19.6375 1.79954 6.48438 2.15943Z" fill="url(#paint3_radial_174_45712)"/>
<path fill-rule="evenodd" clip-rule="evenodd" d="M39.8192 61.961L43.2426 56.9225C33.3928 56.3227 18.0775 54.7632 8.16755 54.6432L5.46484 60.9413C15.615 60.8813 27.0264 61.2412 39.5189 61.961C39.639 61.961 39.6991 61.961 39.8192 61.961Z" fill="url(#paint4_radial_174_45712)"/>
<path fill-rule="evenodd" clip-rule="evenodd" d="M5.46639 60.9408L8.1691 54.6427C7.62855 54.5828 6.84777 54.1629 6.66759 53.863L2.04297 58.0017C2.46339 58.7215 4.38531 60.5209 5.46639 61.0007V60.9408Z" fill="url(#paint5_radial_174_45712)"/>
<path fill-rule="evenodd" clip-rule="evenodd" d="M2.04204 57.9423L6.66667 53.8036C5.76577 43.3069 4.80481 32.7502 4.38438 22.2535L0 23.5131C0.48048 35.2694 0.960961 46.186 2.04204 57.9423Z" fill="url(#paint6_radial_174_45712)"/>
<path fill-rule="evenodd" clip-rule="evenodd" d="M35.491 17.2147C37.9535 15.5952 40.4159 13.9157 42.8183 11.8763C43.8994 10.1369 45.0405 8.39741 46.1216 6.59798C46.6622 5.75824 46.8423 5.21841 46.3018 4.85852C35.2508 5.93818 20.8363 7.4977 9.24474 7.91756C9.06456 8.03753 7.68318 9.4171 7.503 9.53706C6.6021 14.1556 5.28078 17.6345 4.5 21.3534C4.62012 21.5333 4.74024 21.6533 4.86036 21.7133C5.94144 22.1931 26.542 18.2943 31.527 17.5146C32.548 17.3346 34.5901 17.3946 35.4309 17.2147H35.491Z" fill="url(#paint7_radial_174_45712)"/>
<path fill-rule="evenodd" clip-rule="evenodd" d="M97.9564 40.1881C86.0645 34.5498 54.3528 22.1937 39.2177 18.8348C34.1726 17.6951 33.2116 18.2349 28.1666 18.9547C19.1576 20.2743 5.82425 22.1337 4.74317 22.5536C4.62305 22.5536 4.50293 22.6736 4.38281 22.7935C4.80323 33.1103 5.76419 43.487 6.6651 53.8038C6.90534 54.1037 7.68612 54.5236 8.1666 54.5836C10.4489 54.5836 12.9714 54.7035 15.6741 54.8835C24.8032 55.3633 35.614 56.443 43.2417 56.8629C55.8543 56.6829 68.527 56.323 77.536 56.503C80.8993 56.503 86.3648 56.9229 92.4309 57.3427C99.0975 57.7026 105.764 58.5423 112.491 58.7223C113.872 58.7223 115.013 58.6023 115.194 58.4824C115.494 58.2424 114.353 55.9632 113.152 53.7438C109.308 50.3249 105.644 46.846 101.98 43.2471C100.299 41.5676 100.119 41.1478 97.9564 40.1281V40.1881Z" fill="url(#paint8_radial_174_45712)"/>
<path opacity="0.75" fill-rule="evenodd" clip-rule="evenodd" d="M7.26287 3.83898C20.0557 3.35913 33.3289 3.59906 46.0016 1.61968L77.7734 2.15951C93.6893 1.43973 109.245 2.15951 124.62 2.5194C139.095 2.93926 181.077 1.8596 192.848 4.79868C193.509 4.79868 195.551 5.75838 195.731 7.01799C198.314 10.3769 198.854 14.0958 199.635 18.2345C199.515 16.555 199.395 15.1754 199.335 14.3957C198.794 11.6365 198.134 8.93739 197.413 5.75838C196.993 4.7387 194.77 3.11921 193.809 2.93926C170.266 2.21949 147.203 1.43973 125.101 0.719958C119.455 0.839921 97.9536 0.779939 77.1728 0.300089C65.8214 0.719958 53.8695 0.120146 44.8605 0.000183105C31.5271 0.540014 19.6352 1.79962 6.48209 2.15951C5.40101 2.57938 2.45806 4.97863 1.97758 5.87835C1.61722 10.8568 0.656262 15.1754 0.175781 20.8137C1.67728 16.0752 3.47908 11.5166 3.05866 6.59812C4.74035 5.93833 5.94155 5.15857 7.32293 3.83898H7.26287Z" fill="url(#paint9_linear_174_45712)"/>
<path fill-rule="evenodd" clip-rule="evenodd" d="M170.745 57.4021C175.43 57.3421 180.114 57.2222 184.799 57.1022C186.841 57.1022 188.823 56.9823 190.865 57.1022C191.045 57.1022 191.165 57.3421 191.165 57.5221C191.165 58.5418 191.045 59.6214 190.925 60.6411C191.165 59.5015 191.285 58.3018 191.646 57.1622C191.826 56.6823 193.748 55.8426 194.288 56.0825C195.37 56.5024 196.391 57.1622 197.412 57.642C196.691 57.0422 195.97 56.5024 195.249 55.9026C194.288 55.1828 194.409 55.1228 194.469 53.8632C194.589 51.9438 194.709 50.0244 194.829 48.045C194.829 41.2072 195.069 35.0291 195.61 28.2512C195.61 27.5914 195.61 26.6917 195.97 26.3918C196.09 26.2718 199.033 26.0919 199.394 26.0319C199.093 26.0319 195.97 25.792 195.91 25.732C195.43 25.0722 195.069 22.733 194.709 21.6533C194.409 20.3937 194.168 19.1341 193.868 17.8745C193.688 17.0947 193.568 16.255 193.748 16.0151C193.808 15.9551 194.228 15.6552 194.769 15.5352C195.61 15.2953 196.451 15.0554 197.291 14.8154C196.09 15.0554 195.189 15.2953 193.988 15.2353C192.907 15.2353 193.087 14.6955 193.027 13.6158C192.967 12.956 192.607 12.2362 192.547 11.5165C192.427 10.4968 192.246 10.1369 193.027 9.41711C194.228 8.33745 195.37 7.31777 196.571 6.23811C195.43 7.07784 194.228 7.91758 193.087 8.75732C191.826 9.65704 191.285 8.63736 191.886 7.25779C192.427 5.99818 192.907 4.67859 193.448 3.41899L191.406 7.07784C190.565 8.51739 190.204 8.21749 188.523 8.15751C177.772 7.8576 167.141 7.13783 156.451 6.23811C152.006 6.11814 125.58 5.6383 124.439 4.73858C124.018 4.43867 124.559 2.99912 124.859 1.01974C123.598 4.49865 124.258 4.67859 120.294 5.39837C116.871 5.63829 111.225 6.41805 108.042 6.05816C107.261 5.9382 107.081 5.9382 107.081 5.15844C107.081 4.31871 107.021 3.47897 106.961 2.57925C106.841 3.53895 106.721 4.37869 106.661 5.33839C106.601 5.99818 106.12 5.75826 105.46 5.63829C102.336 5.21843 99.2134 4.91852 96.0902 4.73858C90.5647 4.79856 85.9401 5.33839 80.4146 5.69828C78.1923 5.69828 78.1323 3.65891 77.2914 0.839795C77.4116 1.61955 77.892 4.31871 77.6518 4.85854C77.4116 5.27841 76.871 5.21843 75.7899 5.09846C73.2074 4.85854 70.5647 4.55863 67.9821 4.31871C63.6578 4.13876 59.4536 4.07878 55.1293 4.07878C52.9071 4.07878 49.5437 4.49865 47.862 3.89884C47.7419 3.89884 45.5197 1.01974 45.2194 0.659851C45.5197 1.25966 46.6608 3.17906 46.4806 3.71889C46.3004 4.31871 45.2794 4.25873 44.3785 4.31871C41.9761 4.49865 39.7539 4.6786 37.3515 4.73858C28.4025 5.87822 20.1143 6.598 11.1653 7.19781C9.90405 7.25779 9.60374 7.61768 9.00314 6.59799C8.22236 5.27841 7.44158 3.95882 6.60074 2.69921C7.2614 4.49865 7.862 5.9382 8.34248 7.79762C8.4626 8.15751 7.20134 8.8173 6.72086 8.57738C5.09924 7.73764 3.77792 7.13783 2.21636 6.23811C3.29744 7.07784 4.01816 7.8576 5.09924 8.75732C6.6608 10.0169 6.48062 9.53708 6.00014 11.5165C5.21936 14.6355 4.49864 17.6945 3.71786 20.8136C3.41756 22.0732 3.3575 22.0732 2.1563 22.553C1.43558 22.8529 0.955096 23.2128 0.234375 23.5127C1.01516 23.3328 1.73588 23.2128 2.51666 23.0329C3.29744 22.8529 3.83798 22.673 3.83798 23.5727C3.83798 24.8923 3.83798 26.1519 3.89804 27.4715C4.2584 32.09 4.61876 36.7086 4.97912 41.3871C5.33948 45.2259 5.63978 49.0647 6.00014 52.9035C6.00014 53.2034 6.00014 53.5033 5.81996 53.8032C5.4596 54.643 3.47762 56.5024 2.7569 57.2822C3.9581 56.3824 5.1593 55.5427 6.3605 54.643C6.42056 54.523 7.44158 54.8229 7.5617 55.1828C7.32146 56.0225 7.02116 56.8023 6.78092 57.642C7.20134 56.8623 7.68182 56.0825 8.10224 55.3028C8.28242 55.1828 8.4626 55.0628 8.7629 55.0029C10.0242 55.0029 11.2254 55.0029 12.4866 55.0029C13.5076 55.0029 14.5287 55.0029 15.5497 55.0029C12.847 54.8829 10.2644 54.7629 8.04218 54.703C7.50164 54.643 6.72086 54.2231 6.54068 53.9232C5.63978 43.6664 4.73888 33.2297 4.2584 22.9129C4.37852 22.7929 4.43858 22.733 4.61876 22.673C5.7599 22.2531 19.0932 20.3937 28.0422 19.0741C33.0272 18.3543 34.0482 17.8145 39.0932 18.9541C54.2284 22.3131 85.9401 34.6692 97.832 40.3075C99.9941 41.3271 100.174 41.747 101.856 43.4265C105.52 47.0853 109.243 50.5643 113.027 53.9232C114.228 56.0825 115.37 58.4218 115.069 58.6617C114.889 58.7817 113.748 58.9616 112.367 58.9016C105.64 58.7217 98.9731 57.9419 92.3064 57.5221C99.3335 58.4218 106.421 58.8417 113.868 59.7414C114.769 59.8613 115.309 59.9213 115.61 60.1613C115.85 60.3412 116.09 61.8407 116.15 63.3403C116.391 61.3009 116.391 60.1013 116.751 59.9213C116.931 59.9213 117.772 59.8614 118.613 59.8014C124.198 59.6814 129.844 59.3815 135.43 58.7817C145.219 57.1022 154.769 55.1228 163.718 52.4237C167.201 50.5043 170.745 48.7048 174.409 47.0853C177.712 45.6458 181.075 48.7648 184.258 50.5643C182.637 49.2447 181.135 48.165 179.514 47.0853C177.652 45.8257 176.571 45.7658 178.493 44.0863C183.057 40.1275 186.781 37.1884 191.706 33.7095C192.066 32.5699 194.409 27.9513 194.769 28.1313C194.829 28.1313 194.949 28.3112 195.069 28.6711C194.469 37.3084 194.409 46.8454 193.868 55.6627C193.027 56.0825 192.066 56.5024 191.345 56.8023C184.499 57.0422 177.532 57.3421 170.505 57.5821L170.745 57.4021ZM135.61 58.7817C129.844 58.7817 124.018 59.5614 118.252 58.7817C117.351 58.6617 116.871 58.4818 116.571 58.1219C115.61 57.1622 114.589 54.8829 113.928 53.6233C109.063 49.6045 104.979 45.7058 101.496 41.807C101.075 40.4874 101.075 40.1275 102.096 38.8079C109.664 28.4911 123.237 18.7742 134.889 13.3159C138.793 11.4565 143.057 9.89696 146.841 8.63736C147.922 7.79762 148.342 7.37775 148.883 7.13783C150.084 6.598 151.345 6.83792 152.607 6.8979C165.7 7.49771 179.033 8.09753 191.105 8.8173C191.526 9.11721 191.886 9.41711 192.246 9.83698C192.487 11.6964 192.547 13.5558 192.907 15.4152C193.688 18.4143 194.649 22.3731 195.189 24.7123C195.43 25.792 195.43 26.1519 194.649 27.7114C193.688 29.5708 192.667 31.4302 191.406 32.9298C186.361 37.2484 181.135 41.3271 175.85 45.1659C172.066 47.7451 167.922 49.7845 163.538 51.464C154.649 54.703 145.219 56.8623 135.67 58.7817H135.61ZM99.4536 40.0675C80.3545 30.7704 59.9941 23.7526 38.3725 18.1144C37.1713 17.8145 36.6308 17.4546 36.6308 17.3346C36.6308 17.1547 37.1713 16.6748 38.1323 15.9551C39.874 14.6355 41.6758 13.3759 43.5377 12.1763C44.5587 9.83698 46.5407 6.11814 48.2824 4.67859C57.7719 4.61861 69.2434 4.67859 78.6128 6.17813C88.7629 5.27841 97.2914 5.21843 106.901 6.53801C113.027 6.11814 118.072 6.05816 123.778 5.21843C130.925 5.69828 138.553 6.11814 146.361 6.47803C147.261 6.47803 148.282 6.53801 147.021 7.43773C145.159 8.69734 139.754 10.5568 134.709 12.956C129.664 15.3553 125.159 18.1144 123.598 18.8342C122.697 19.254 122.757 18.9541 122.757 18.1744C122.697 15.1753 122.757 11.5764 122.997 8.09753C122.577 9.777 122.156 14.8754 122.336 18.4743C122.336 19.314 122.517 19.5539 121.195 20.4537C113.327 25.732 106.541 31.6102 101.376 38.628C100.535 39.8276 100.415 40.0675 99.5136 40.0076L99.4536 40.0675ZM4.5587 21.4134C5.33948 17.6345 6.6608 14.2156 7.5617 9.59706C7.74188 9.41711 9.12326 8.09753 9.30344 7.97756C20.895 7.55769 35.3095 5.99818 46.3605 4.91852C46.901 5.27841 46.7209 5.81824 46.1803 6.65798C45.0992 8.39743 43.9581 10.1369 42.877 11.9363C40.5347 13.9757 38.0722 15.7151 35.5497 17.2747C34.7089 17.4546 32.6668 17.4546 31.6458 17.5746C26.6608 18.4143 6.00014 22.3131 4.97912 21.7733C4.859 21.7133 4.73888 21.5933 4.61876 21.4134H4.5587Z" fill="url(#paint10_radial_174_45712)"/>
<g style="mix-blend-mode:screen" opacity="0.5">
<path fill-rule="evenodd" clip-rule="evenodd" d="M22.5201 25.9124C20.8384 26.3323 19.1567 27.052 17.8954 28.2517C16.454 29.6912 14.5321 34.1898 15.6132 36.1692C16.2138 37.2488 17.475 38.2085 18.7363 38.3285C20.6582 38.4485 22.7603 37.8487 24.3219 36.709C25.8234 35.5694 26.6041 33.9499 27.7453 32.4503C28.466 31.4906 29.3669 30.5909 29.9675 29.5113C30.9885 27.7118 29.3068 25.9124 28.0456 25.6725C25.9435 25.3126 24.6222 25.3726 22.5201 25.8524V25.9124Z" fill="#373FA5"/>
</g>
<path fill-rule="evenodd" clip-rule="evenodd" d="M22.1607 25.552C20.479 25.9719 18.7973 26.6917 17.5361 27.8913C16.0946 29.3309 14.1727 33.8294 15.2538 35.8088C15.8544 36.8885 17.1156 37.8482 18.3769 37.9682C20.2988 38.0881 22.4009 37.4883 23.9625 36.3487C25.464 35.209 26.2448 33.5895 27.3859 32.09C28.1066 31.1303 29.0075 30.2306 29.6081 29.1509C30.6292 27.3515 28.9475 25.552 27.6862 25.3121C25.5841 24.9522 24.2628 25.0122 22.1607 25.4921V25.552Z" fill="url(#paint11_radial_174_45712)"/>
</g>
<g clip-path="url(#clip1_174_45712)">
<path fill-rule="evenodd" clip-rule="evenodd" d="M1.13318 2.15914C20.5252 1.79925 38.0577 0.479667 57.7154 -0.000183105C70.9976 0.179761 88.6186 0.719592 105.354 0.299723C135.992 0.779573 167.692 0.839554 176.015 0.719592C208.69 1.43937 242.692 2.2791 277.314 2.9389C278.731 3.11884 282.007 4.73834 282.627 5.75802C283.69 8.93702 284.752 11.6362 285.461 14.3953C285.638 16.3147 286.346 22.1329 286.346 26.0317C285.372 37.848 284.044 49.1844 283.336 57.8817C282.539 58.8414 276.34 60.9408 272.71 61.6605C237.645 62.5603 201.517 63.0401 162.91 63.9998C128.288 62.8602 84.7225 61.6605 49.746 61.9605C31.3281 61.2407 14.5039 60.8808 -0.460687 60.9408C-2.1431 60.4609 -4.97663 58.6615 -5.50792 57.9417C-7.10179 46.1854 -7.81017 35.2688 -8.51855 23.5125C-7.89872 16.5546 -6.03921 11.6362 -5.50792 5.87798C-4.79954 4.97826 -0.549234 2.57901 1.13318 2.15914Z" fill="url(#paint12_radial_174_45712)"/>
<path fill-rule="evenodd" clip-rule="evenodd" d="M1.13184 2.15925L5.29359 7.91745C23.3574 7.49758 46.0257 5.75812 62.6727 4.67846L57.714 -0.0600586C38.0564 0.539754 20.5239 1.79936 1.13184 2.15925Z" fill="url(#paint13_radial_174_45712)"/>
<path fill-rule="evenodd" clip-rule="evenodd" d="M57.7139 0L62.6726 4.73852C76.6631 4.67854 93.6644 4.73852 107.566 6.23805L105.618 0.359888C105.618 0.359888 105.441 0.359888 105.353 0.359888C88.6171 0.779756 70.9961 0.179944 57.7139 0.0599813V0Z" fill="url(#paint14_radial_174_45712)"/>
<path fill-rule="evenodd" clip-rule="evenodd" d="M105.622 0.360274L107.57 6.23844C122.535 5.33872 135.109 5.27874 149.276 6.59833C158.308 6.17846 165.746 6.11847 174.158 5.27874L176.018 0.720162C167.694 0.840124 136.171 0.780143 105.622 0.300293V0.360274Z" fill="url(#paint15_radial_174_45712)"/>
<path fill-rule="evenodd" clip-rule="evenodd" d="M176.016 0.719238L174.156 5.27781C205.148 6.65738 242.073 7.5571 273.33 8.75673L277.403 2.99853C242.692 2.27875 208.69 1.49899 176.104 0.77922L176.016 0.719238Z" fill="url(#paint16_radial_174_45712)"/>
<path fill-rule="evenodd" clip-rule="evenodd" d="M274.038 56.6225C237.999 57.5222 199.038 58.6019 162.999 59.5016V64.0002C201.783 63.0405 237.822 62.5606 272.976 61.6609L274.127 56.5625L274.038 56.6225Z" fill="url(#paint17_radial_174_45712)"/>
<path fill-rule="evenodd" clip-rule="evenodd" d="M162.911 59.5008C147.415 58.4811 117.575 56.6817 105.886 56.5617C92.6043 56.3818 73.9206 56.7417 55.3256 56.9216L50.2783 61.96C85.1662 61.6601 128.555 62.9197 163 63.9994V59.5008H162.911Z" fill="url(#paint18_radial_174_45712)"/>
<path fill-rule="evenodd" clip-rule="evenodd" d="M50.2764 61.9608L55.3237 56.9224C40.8018 56.3225 18.222 54.763 3.61161 54.6431L-0.373047 60.9411C14.5916 60.8811 31.4157 61.241 49.8337 61.9608C50.0108 61.9608 50.0993 61.9608 50.2764 61.9608Z" fill="url(#paint19_radial_174_45712)"/>
<path fill-rule="evenodd" clip-rule="evenodd" d="M43.9037 17.2145C47.5341 15.595 51.1646 13.9156 54.7065 11.8762C56.3004 10.1367 57.9828 8.39729 59.5767 6.59785C60.3736 5.75812 60.6392 5.21829 59.8423 4.8584C43.5495 5.93806 22.2979 7.49757 5.20818 7.91744C4.94254 8.03741 2.90594 9.41697 2.64029 9.53694C1.31207 14.1555 -0.635985 17.6344 -1.78711 21.3532C-1.61001 21.5332 -1.43292 21.6531 -1.25582 21.7131C0.338043 22.193 30.71 18.2942 38.0595 17.5144C39.5648 17.3345 42.5754 17.3945 43.8151 17.2145H43.9037Z" fill="url(#paint20_radial_174_45712)"/>
<path fill-rule="evenodd" clip-rule="evenodd" d="M55.766 12.1765C53.1096 13.3762 50.4531 14.6358 47.7967 15.9554C46.3799 16.6751 45.583 17.215 45.583 17.3349C45.583 17.4549 46.3799 17.8148 48.1509 18.1147C80.0282 23.7529 110.046 30.7707 138.204 40.0678C139.621 40.1278 139.71 39.8879 140.949 38.6882C148.564 31.6704 158.57 25.7923 170.17 20.5139C172.118 19.6142 171.852 19.3743 171.852 18.5345C171.675 14.9357 172.207 9.89724 172.826 8.15779C172.384 11.6367 172.384 15.2356 172.472 18.2346C172.472 19.0144 172.472 19.3143 173.712 18.8944C176.014 18.1747 182.655 15.3555 190.093 13.0163C197.531 10.617 205.589 8.7576 208.246 7.49799C210.017 6.71824 208.866 6.59827 207.714 6.53829C196.115 6.11842 184.692 5.75854 174.066 5.21871C165.743 6.11842 158.216 6.17841 149.184 6.53829C135.016 5.15872 122.443 5.21871 107.478 6.17841C93.6646 4.67887 76.7519 4.55891 62.7613 4.67887C60.1934 6.05844 57.2713 9.83726 55.766 12.1765Z" fill="url(#paint21_radial_174_45712)"/>
<path fill-rule="evenodd" clip-rule="evenodd" d="M135.993 40.1879C118.46 34.5497 71.7071 22.1935 49.393 18.8346C41.955 17.6949 40.5382 18.2348 33.1002 18.9545C19.818 20.2741 0.160309 22.1335 -1.43356 22.5534C-1.61065 22.5534 -1.78775 22.6734 -1.96484 22.7933C-1.34501 33.1101 0.0717604 43.4869 1.39998 53.8036C1.75417 54.1035 2.9053 54.5234 3.61368 54.5834C6.97851 54.5834 10.6975 54.7034 14.6822 54.8833C28.1415 55.3632 44.0801 56.4428 55.3257 56.8627C73.9208 56.6827 92.6044 56.3229 105.887 56.5028C110.845 56.5028 118.903 56.9227 127.847 57.3425C137.675 57.7024 147.504 58.5422 157.422 58.7221C159.458 58.7221 161.141 58.6021 161.406 58.4822C161.849 58.2423 160.167 55.963 158.396 53.7437C152.729 50.3247 147.327 46.8458 141.926 43.2469C139.446 41.5675 139.181 41.1476 135.993 40.1279V40.1879Z" fill="url(#paint22_radial_174_45712)"/>
<path fill-rule="evenodd" clip-rule="evenodd" d="M190.448 13.3155C173.27 18.8338 153.17 28.4908 142.101 38.8075C140.596 40.1871 140.684 40.547 141.216 41.8066C146.351 45.7054 152.461 49.6641 159.545 53.6229C160.519 54.8825 162.024 57.1018 163.441 58.1215C163.972 58.4814 164.592 58.6613 165.921 58.7813C174.333 59.5011 182.922 58.7813 191.511 58.7813C205.59 56.8619 219.492 54.7026 232.597 51.4636C239.15 49.7841 245.171 47.7447 250.75 45.1655C258.63 41.2668 266.334 37.248 273.683 32.9294C275.543 31.4298 277.048 29.5704 278.465 27.711C279.351 26.5114 279.616 25.9715 279.439 25.3118C279.439 25.1318 279.351 24.8919 279.262 24.7119C278.377 22.3127 276.96 18.3539 275.897 15.4148C275.366 13.6154 275.189 11.756 274.923 9.83659C274.392 9.41672 273.861 9.05683 273.241 8.81691C255.443 8.09713 235.785 7.5573 216.481 6.89751C215.596 6.89751 214.622 6.89751 213.736 6.83752C212.851 6.83752 211.877 6.89751 210.992 7.19741C210.106 7.43734 209.575 7.85721 207.981 8.69694C202.402 10.0165 196.115 11.576 190.36 13.3755L190.448 13.3155Z" fill="url(#paint23_radial_174_45712)"/>
<path fill-rule="evenodd" clip-rule="evenodd" d="M248.982 47.025C243.581 48.6445 238.357 50.5039 233.221 52.3633C220.116 55.0625 206.037 57.0419 191.515 58.7213C208.693 58.3015 226.137 57.8216 243.315 57.3418C253.675 57.0419 264.035 56.8019 274.041 56.562C275.104 56.2621 276.521 55.8422 277.76 55.4224C278.469 46.6651 278.646 37.1281 279.531 28.4308C279.354 28.1309 279.177 27.9509 279.089 27.891C278.557 27.771 275.104 32.3896 274.573 33.4692C267.312 36.9481 261.822 39.8872 255.092 43.846C252.259 45.5255 253.852 45.5854 256.597 46.845C258.988 47.9847 261.202 49.0644 263.593 50.324C258.9 48.5245 253.941 45.4055 249.071 46.845L248.982 47.025Z" fill="url(#paint24_radial_174_45712)"/>
<path opacity="0.75" fill-rule="evenodd" clip-rule="evenodd" d="M2.28656 3.8388C21.1473 3.35895 40.7164 3.59888 59.4 1.61949L106.242 2.15933C129.707 1.43955 152.641 2.15933 175.309 2.51921C196.649 2.93908 258.545 1.85942 275.9 4.7985C276.874 4.7985 279.885 5.7582 280.15 7.01781C283.958 10.3768 284.755 14.0956 285.906 18.2343C285.729 16.5548 285.552 15.1753 285.463 14.3955C284.666 11.6364 283.692 8.93721 282.63 5.7582C282.01 4.73852 278.733 3.11903 277.317 2.93908C242.606 2.21931 208.603 1.43955 176.018 0.719775C167.694 0.839738 135.994 0.779756 105.356 0.299906C88.6209 0.719775 70.9998 0.119963 57.7176 0C38.0599 0.539831 20.5274 1.79944 1.13543 2.15933C-0.458432 2.57919 -4.79728 4.97844 -5.50567 5.87816C-6.03696 10.8566 -7.45373 15.1753 -8.16211 20.8135C-5.94841 16.075 -3.29197 11.5164 -3.9118 6.59794C-1.43246 5.93814 0.3385 5.15839 2.3751 3.8388H2.28656Z" fill="url(#paint25_linear_174_45712)"/>
<path fill-rule="evenodd" clip-rule="evenodd" d="M243.311 57.4019C250.217 57.342 257.124 57.222 264.031 57.102C267.041 57.102 269.964 56.9821 272.974 57.102C273.24 57.102 273.417 57.342 273.417 57.5219C273.417 58.5416 273.24 59.6212 273.063 60.6409C273.417 59.5013 273.594 58.3017 274.125 57.162C274.391 56.6822 277.224 55.8424 278.021 56.0823C279.615 56.5022 281.121 57.162 282.626 57.6419C281.563 57.042 280.501 56.5022 279.438 55.9024C278.021 55.1826 278.199 55.1226 278.287 53.863C278.464 51.9436 278.641 50.0242 278.818 48.0449C278.818 41.207 279.173 35.0289 279.969 28.251C279.969 27.5912 279.97 26.6915 280.501 26.3916C280.678 26.2717 285.017 26.0917 285.548 26.0317C285.105 26.0317 280.501 25.7918 280.412 25.7318C279.704 25.072 279.173 22.7328 278.641 21.6531C278.199 20.3935 277.844 19.1339 277.402 17.8743C277.136 17.0945 276.959 16.2548 277.224 16.0149C277.313 15.9549 277.933 15.655 278.73 15.535C279.969 15.2951 281.209 15.0552 282.449 14.8152C280.678 15.0552 279.35 15.2951 277.579 15.2351C275.985 15.2351 276.25 14.6953 276.162 13.6156C276.073 12.9558 275.542 12.236 275.454 11.5163C275.276 10.4966 275.011 10.1367 276.162 9.41693C277.933 8.33727 279.615 7.31759 281.386 6.23792C279.704 7.07766 277.933 7.9174 276.25 8.75714C274.391 9.65686 273.594 8.63717 274.48 7.25761C275.276 5.998 275.985 4.67841 276.782 3.41881L273.771 7.07766C272.531 8.51721 272 8.21731 269.521 8.15732C253.671 7.85742 237.998 7.13764 222.236 6.23792C215.684 6.11796 176.723 5.63811 175.04 4.73839C174.42 4.43849 175.217 2.99894 175.66 1.01956C173.8 4.49847 174.774 4.67841 168.93 5.39819C163.883 5.63811 155.56 6.41787 150.867 6.05798C149.715 5.93802 149.45 5.93802 149.45 5.15826C149.45 4.31852 149.361 3.47879 149.273 2.57907C149.096 3.53877 148.918 4.37851 148.83 5.33821C148.741 5.998 148.033 5.75807 147.059 5.63811C142.454 5.21824 137.85 4.91834 133.245 4.73839C125.099 4.79837 118.281 5.33821 110.134 5.69809C106.858 5.69809 106.77 3.65873 105.53 0.839612C105.707 1.61937 106.415 4.31852 106.061 4.85836C105.707 5.27822 104.91 5.21824 103.316 5.09828C99.5087 4.85836 95.6126 4.55845 91.805 4.31852C85.4295 4.13858 79.2312 4.0786 72.8557 4.0786C69.5795 4.0786 64.6208 4.49847 62.1414 3.89866C61.9643 3.89866 58.688 1.01956 58.2453 0.659668C58.688 1.25948 60.3705 3.17888 60.1048 3.71871C59.8392 4.31852 58.3339 4.25854 57.0056 4.31852C53.4637 4.49847 50.1874 4.67841 46.6455 4.73839C33.4519 5.87804 21.2322 6.59781 8.03859 7.19762C6.17908 7.25761 5.73634 7.61749 4.85086 6.59781C3.69974 5.27822 2.54861 3.95864 1.30894 2.69903C2.28297 4.49847 3.16845 5.93802 3.87683 7.79744C4.05393 8.15732 2.19442 8.81712 1.48604 8.57719C-0.90476 7.73746 -2.85282 7.13764 -5.15506 6.23792C-3.5612 7.07766 -2.49862 7.85742 -0.90476 8.75714C1.39749 10.0167 1.13184 9.53689 0.42346 11.5163C-0.727664 14.6353 -1.79024 17.6943 -2.94136 20.8134C-3.3841 22.073 -3.47265 22.073 -5.24361 22.5528C-6.30619 22.8527 -7.01457 23.2126 -8.07715 23.5125C-6.92602 23.3326 -5.86345 23.2126 -4.71232 23.0327C-3.5612 22.8527 -2.76427 22.6728 -2.76427 23.5725C-2.76427 24.8921 -2.76427 26.1517 -2.67572 27.4713C-2.14443 32.0898 -1.61314 36.7084 -1.08186 41.3869C-0.550569 45.2257 -0.107828 49.0645 0.42346 52.9033C0.42346 53.2032 0.42346 53.5032 0.157816 53.8031C-0.373472 54.6428 -3.29556 56.5022 -4.35813 57.282C-2.58717 56.3823 -0.816212 55.5425 0.954748 54.6428C1.0433 54.5228 2.54861 54.8227 2.72571 55.1826C2.37152 56.0224 1.92878 56.8021 1.57458 57.6419C2.19442 56.8621 2.9028 56.0823 3.52264 55.3026C3.78828 55.1826 4.05393 55.0627 4.49667 55.0027C6.35618 55.0027 8.12714 55.0027 9.98664 55.0027C11.492 55.0027 12.9973 55.0027 14.5026 55.0027C10.5179 54.8827 6.71037 54.7628 3.43409 54.7028C2.63716 54.6428 1.48604 54.2229 1.22039 53.923C-0.107828 43.6662 -1.43605 33.2295 -2.14443 22.9127C-1.96734 22.7927 -1.87879 22.7328 -1.61314 22.6728C0.0692674 22.2529 19.7269 20.3935 32.9206 19.0739C40.2701 18.3541 41.7754 17.8143 49.2134 18.954C71.5275 22.3129 118.281 34.669 135.813 40.3073C139.001 41.327 139.267 41.7468 141.746 43.4263C147.147 47.0852 152.637 50.5641 158.216 53.923C159.987 56.0823 161.669 58.4216 161.227 58.6615C160.961 58.7815 159.279 58.9614 157.242 58.9015C147.325 58.7215 137.496 57.9418 127.667 57.5219C138.027 58.4216 148.476 58.8415 159.456 59.7412C160.784 59.8612 161.581 59.9211 162.024 60.1611C162.378 60.341 162.732 61.8405 162.82 63.3401C163.175 61.3007 163.175 60.1011 163.706 59.9211C163.972 59.9211 165.211 59.8612 166.451 59.8012C174.686 59.6812 183.009 59.3813 191.244 58.7815C205.678 57.102 219.757 55.1226 232.951 52.4235C238.086 50.5041 243.311 48.7046 248.712 47.0852C253.582 45.6456 258.541 48.7646 263.234 50.5641C260.843 49.2445 258.629 48.1648 256.239 47.0852C253.494 45.8255 251.9 45.7656 254.733 44.0861C261.463 40.1273 266.953 37.1882 274.214 33.7093C274.745 32.5697 278.199 27.9511 278.73 28.1311C278.818 28.1311 278.995 28.311 279.173 28.6709C278.287 37.3082 278.199 46.8452 277.402 55.6625C276.162 56.0823 274.745 56.5022 273.683 56.8021C263.588 57.042 253.317 57.342 242.956 57.5819L243.311 57.4019ZM191.51 58.7815C183.009 58.7815 174.42 59.5613 165.92 58.7815C164.591 58.6615 163.883 58.4816 163.44 58.1217C162.024 57.162 160.518 54.8827 159.544 53.6231C152.372 49.6044 146.351 45.7056 141.215 41.8068C140.595 40.4872 140.595 40.1273 142.1 38.8077C153.257 28.491 173.269 18.774 190.447 13.3157C196.203 11.4563 202.49 9.89678 208.069 8.63717C209.662 7.79744 210.282 7.37757 211.079 7.13764C212.85 6.59781 214.71 6.83774 216.569 6.89772C235.873 7.49753 255.53 8.09734 273.328 8.81712C273.948 9.11702 274.48 9.41693 275.011 9.8368C275.365 11.6962 275.454 13.5556 275.985 15.4151C277.136 18.4141 278.553 22.3729 279.35 24.7121C279.704 25.7918 279.704 26.1517 278.553 27.7112C277.136 29.5706 275.631 31.43 273.771 32.9296C266.333 37.2482 258.629 41.327 250.837 45.1658C245.259 47.745 239.149 49.7843 232.685 51.4638C219.58 54.7028 205.678 56.8621 191.599 58.7815H191.51ZM138.204 40.0673C110.046 30.7703 80.0281 23.7525 48.1508 18.1142C46.3799 17.8143 45.5829 17.4544 45.5829 17.3345C45.5829 17.1545 46.3799 16.6747 47.7966 15.9549C50.3645 14.6353 53.021 13.3757 55.766 12.1761C57.2713 9.8368 60.1934 6.11796 62.7613 4.67841C76.7518 4.61843 93.6645 4.67841 107.478 6.17794C122.443 5.27822 135.016 5.21824 149.184 6.53783C158.216 6.11796 165.654 6.05798 174.066 5.21824C184.603 5.69809 195.849 6.11796 207.36 6.47785C208.688 6.47785 210.194 6.53783 208.334 7.43755C205.589 8.69716 197.62 10.5566 190.182 12.9558C182.744 15.3551 176.103 18.1142 173.8 18.834C172.472 19.2539 172.561 18.9539 172.561 18.1742C172.472 15.1751 172.561 11.5763 172.915 8.09734C172.295 9.77682 171.675 14.8752 171.941 18.4741C171.941 19.3138 172.207 19.5538 170.259 20.4535C158.659 25.7318 148.653 31.61 141.038 38.6278C139.798 39.8274 139.621 40.0673 138.293 40.0074L138.204 40.0673ZM-1.70169 21.4132C-0.550569 17.6344 1.39749 14.2154 2.72571 9.59687C2.99135 9.41693 5.02796 8.09734 5.2936 7.97738C22.3834 7.55751 43.6349 5.998 59.9277 4.91834C60.7246 5.27822 60.459 5.81806 59.6621 6.65779C58.0682 8.39725 56.3858 10.1367 54.7919 11.9361C51.3386 13.9755 47.7081 15.715 43.9891 17.2745C42.7494 17.4544 39.7388 17.4544 38.2335 17.5744C30.884 18.4141 0.423459 22.3129 -1.08186 21.7731C-1.25895 21.7131 -1.43605 21.5931 -1.61314 21.4132H-1.70169Z" fill="url(#paint26_radial_174_45712)"/>
<g style="mix-blend-mode:screen" opacity="0.5">
<path fill-rule="evenodd" clip-rule="evenodd" d="M41.7777 37.3681C40.9807 37.3681 39.9181 37.548 39.3869 37.9679C38.2357 38.9276 37.4388 40.0672 37.0846 41.2069C36.7304 42.4665 39.8296 43.6061 41.3349 43.6661C42.5746 43.6661 43.9028 43.3662 44.6112 42.7064C45.7623 41.6867 44.0799 37.488 41.7777 37.3081V37.3681Z" fill="#373FA5"/>
</g>
<g style="mix-blend-mode:screen" opacity="0.5">
<path fill-rule="evenodd" clip-rule="evenodd" d="M24.7733 25.9122C22.294 26.3321 19.8147 27.0518 17.9551 28.2515C15.83 29.691 12.9965 34.1896 14.5903 36.169C15.4758 37.2487 17.3353 38.2084 19.1948 38.3283C22.0283 38.4483 25.1275 37.8485 27.4298 36.7088C29.6435 35.5692 30.7946 33.9497 32.477 32.4502C33.5396 31.4905 34.8678 30.5907 35.7533 29.5111C37.2586 27.7116 34.7793 25.9122 32.9198 25.6723C29.8206 25.3124 27.8725 25.3724 24.7733 25.8522V25.9122Z" fill="#373FA5"/>
</g>
<g style="mix-blend-mode:screen" opacity="0.5">
<path fill-rule="evenodd" clip-rule="evenodd" d="M257.748 24.8919C254.561 25.3118 251.196 28.9706 250.399 31.1299C249.602 33.4092 251.107 34.6089 252.701 34.189C256.243 33.2293 266.16 30.5301 266.869 27.5911C267.223 26.0915 266.16 24.7719 263.77 24.532C261.822 24.2921 259.696 24.592 257.748 24.8919Z" fill="#373FA5"/>
</g>
<path fill-rule="evenodd" clip-rule="evenodd" d="M257.213 24.472C254.025 24.8918 250.661 28.5507 249.864 30.71C249.067 32.9893 250.572 34.1889 252.166 33.7691C255.708 32.8094 265.625 30.1102 266.334 27.1711C266.688 25.6716 265.625 24.352 263.234 24.1121C261.286 23.8722 259.161 24.1721 257.213 24.472Z" fill="url(#paint27_radial_174_45712)"/>
<path fill-rule="evenodd" clip-rule="evenodd" d="M41.2425 36.9487C40.4456 36.9487 39.383 37.1286 38.8517 37.5485C37.7006 38.5082 36.9036 39.6478 36.5495 40.7875C36.1953 42.0471 39.2944 43.1867 40.7998 43.2467C42.0394 43.2467 43.3676 42.9468 44.076 42.287C45.2272 41.2673 43.5447 37.0686 41.2425 36.8887V36.9487Z" fill="url(#paint28_radial_174_45712)"/>
<path fill-rule="evenodd" clip-rule="evenodd" d="M24.2479 25.5518C21.7686 25.9717 19.2893 26.6915 17.4298 27.8911C15.3046 29.3307 12.4711 33.8293 14.0649 35.8086C14.9504 36.8883 16.8099 37.848 18.6694 37.968C21.503 38.0879 24.6021 37.4881 26.9044 36.3485C29.1181 35.2088 30.2692 33.5893 31.9516 32.0898C33.0142 31.1301 34.3424 30.2304 35.2279 29.1507C36.7332 27.3513 34.2539 25.5518 32.3944 25.3119C29.2952 24.952 27.3471 25.012 24.2479 25.4919V25.5518Z" fill="url(#paint29_radial_174_45712)"/>
</g>
<g clip-path="url(#clip2_174_45712)">
<path fill-rule="evenodd" clip-rule="evenodd" d="M84.488 2.15933C97.6411 1.79944 109.533 0.47985 122.866 0C131.875 0.179944 143.827 0.719775 155.179 0.299906C175.959 0.779756 197.461 0.839738 203.107 0.719775C225.269 1.43955 248.332 2.27929 271.815 2.93908C272.776 3.11903 274.998 4.73852 275.419 5.7582C276.14 8.93721 276.86 11.6364 277.341 14.3955C277.461 16.3149 277.941 22.1331 277.941 26.0319C277.281 37.8482 276.38 49.1846 275.899 57.8819C275.359 58.8416 271.155 60.941 268.692 61.6607C244.908 62.5604 220.404 63.0403 194.218 64C170.734 62.8604 141.185 61.6607 117.461 61.9606C104.968 61.2409 93.557 60.881 83.4069 60.941C82.2657 60.4611 80.3438 58.6617 79.9834 57.9419C78.9024 46.1856 78.4219 35.269 77.9414 23.5127C78.3618 16.5548 79.6231 11.6364 79.9834 5.87816C80.4639 4.97844 83.3468 2.57919 84.488 2.15933Z" fill="url(#paint30_radial_174_45712)"/>
<path fill-rule="evenodd" clip-rule="evenodd" d="M203.105 0.719421L201.844 5.278C222.865 6.65757 247.91 7.55728 269.111 8.75691L271.874 2.99871C248.33 2.27893 225.267 1.49918 203.165 0.779403L203.105 0.719421Z" fill="url(#paint31_radial_174_45712)"/>
<path fill-rule="evenodd" clip-rule="evenodd" d="M271.876 2.99913L269.113 8.75733C269.534 9.05724 269.894 9.35714 270.254 9.77701L275.48 5.75827C275.059 4.73859 272.837 3.11909 271.876 2.93915V2.99913Z" fill="url(#paint32_radial_174_45712)"/>
<path fill-rule="evenodd" clip-rule="evenodd" d="M275.421 5.81854L270.195 9.83729C270.436 11.6967 270.496 13.5561 270.856 15.4155C271.817 19.1344 273.138 24.2928 273.439 26.1522H277.943C277.943 22.2534 277.463 16.4352 277.342 14.5158C276.802 11.7567 276.141 9.05753 275.421 5.87852V5.81854Z" fill="url(#paint33_radial_174_45712)"/>
<path fill-rule="evenodd" clip-rule="evenodd" d="M277.999 26.0319H273.495C272.714 35.329 272.654 45.8857 272.113 55.4827L276.017 57.882C276.498 49.2447 277.399 37.8482 278.059 26.0319H277.999Z" fill="url(#paint34_radial_174_45712)"/>
<path fill-rule="evenodd" clip-rule="evenodd" d="M272.116 55.4826C271.275 55.9025 270.314 56.3223 269.593 56.6222L268.812 61.7207C271.215 61.0009 275.479 58.8416 276.02 57.9418L272.116 55.5426V55.4826Z" fill="url(#paint35_radial_174_45712)"/>
<path fill-rule="evenodd" clip-rule="evenodd" d="M269.593 56.6227C245.148 57.5224 218.722 58.602 194.277 59.5018V64.0004C220.584 63.0407 245.028 62.5608 268.872 61.6611L269.653 56.5627L269.593 56.6227Z" fill="url(#paint36_radial_174_45712)"/>
<path fill-rule="evenodd" clip-rule="evenodd" d="M212.897 13.3156C201.246 18.8338 187.612 28.4908 180.105 38.8076C179.084 40.1872 179.144 40.5471 179.504 41.8067C182.987 45.7054 187.132 49.6642 191.936 53.623C192.597 54.8826 193.618 57.1019 194.579 58.1216C194.939 58.4814 195.36 58.6614 196.261 58.7814C201.966 59.5011 207.792 58.7814 213.618 58.7814C223.168 56.8619 232.597 54.7026 241.486 51.4636C245.93 49.7842 250.014 47.7448 253.798 45.1656C259.144 41.2668 264.369 37.2481 269.354 32.9294C270.615 31.4299 271.636 29.5705 272.597 27.7111C273.198 26.5114 273.378 25.9716 273.258 25.3118C273.258 25.1319 273.198 24.8919 273.138 24.712C272.537 22.3127 271.576 18.354 270.855 15.4149C270.495 13.6155 270.375 11.756 270.195 9.83665C269.834 9.41678 269.474 9.05689 269.054 8.81697C256.981 8.09719 243.648 7.55736 230.555 6.89757C229.954 6.89757 229.294 6.89757 228.693 6.83759C228.093 6.83759 227.432 6.89757 226.831 7.19747C226.231 7.4374 225.87 7.85727 224.789 8.697C221.005 10.0166 216.741 11.5761 212.837 13.3755L212.897 13.3156Z" fill="url(#paint37_radial_174_45712)"/>
<path fill-rule="evenodd" clip-rule="evenodd" d="M252.596 47.0252C248.933 48.6447 245.389 50.5041 241.905 52.3635C233.017 55.0627 223.467 57.042 213.617 58.7215C225.269 58.3016 237.101 57.8218 248.752 57.3419C255.779 57.042 262.806 56.8021 269.593 56.5622C270.314 56.2623 271.275 55.8424 272.116 55.4225C272.596 46.6653 272.716 37.1283 273.317 28.431C273.197 28.1311 273.077 27.9511 273.017 27.8911C272.656 27.7712 270.314 32.3897 269.954 33.4694C265.029 36.9483 261.305 39.8874 256.74 43.8462C254.818 45.5256 255.899 45.5856 257.761 46.8452C259.383 47.9849 260.884 49.0645 262.506 50.3241C259.323 48.5247 255.96 45.4057 252.656 46.8452L252.596 47.0252Z" fill="url(#paint38_radial_174_45712)"/>
<path opacity="0.75" fill-rule="evenodd" clip-rule="evenodd" d="M85.2668 3.83898C98.0596 3.35913 111.333 3.59906 124.006 1.61968L155.777 2.15951C171.693 1.43973 187.249 2.15951 202.624 2.5194C217.099 2.93926 259.081 1.8596 270.852 4.79868C271.513 4.79868 273.555 5.75838 273.735 7.01799C276.318 10.3769 276.858 14.0958 277.639 18.2345C277.519 16.555 277.399 15.1754 277.339 14.3957C276.798 11.6365 276.138 8.93739 275.417 5.75838C274.997 4.7387 272.774 3.11921 271.813 2.93926C248.27 2.21949 225.207 1.43973 203.105 0.719958C197.459 0.839921 175.957 0.779939 155.177 0.300089C143.825 0.719958 131.873 0.120146 122.864 0.000183105C109.531 0.540014 97.6391 1.79962 84.486 2.15951C83.4049 2.57938 80.462 4.97863 79.9815 5.87835C79.6211 10.8568 78.6602 15.1754 78.1797 20.8137C79.6812 16.0752 81.483 11.5166 81.0626 6.59812C82.7443 5.93833 83.9455 5.15857 85.3268 3.83898H85.2668Z" fill="url(#paint39_linear_174_45712)"/>
<path fill-rule="evenodd" clip-rule="evenodd" d="M248.753 57.4021C253.437 57.3421 258.122 57.2222 262.807 57.1022C264.849 57.1022 266.831 56.9823 268.873 57.1022C269.053 57.1022 269.173 57.3421 269.173 57.5221C269.173 58.5418 269.053 59.6214 268.933 60.6411C269.173 59.5015 269.293 58.3018 269.654 57.1622C269.834 56.6823 271.756 55.8426 272.296 56.0825C273.377 56.5024 274.398 57.1622 275.419 57.642C274.699 57.0422 273.978 56.5024 273.257 55.9026C272.296 55.1828 272.416 55.1228 272.476 53.8632C272.597 51.9438 272.717 50.0244 272.837 48.045C272.837 41.2072 273.077 35.0291 273.618 28.2512C273.618 27.5914 273.618 26.6917 273.978 26.3918C274.098 26.2718 277.041 26.0919 277.401 26.0319C277.101 26.0319 273.978 25.792 273.918 25.732C273.437 25.0722 273.077 22.733 272.717 21.6533C272.416 20.3937 272.176 19.1341 271.876 17.8745C271.696 17.0947 271.576 16.255 271.756 16.0151C271.816 15.9551 272.236 15.6552 272.777 15.5352C273.618 15.2953 274.458 15.0554 275.299 14.8154C274.098 15.0554 273.197 15.2953 271.996 15.2353C270.915 15.2353 271.095 14.6955 271.035 13.6158C270.975 12.956 270.615 12.2362 270.555 11.5165C270.434 10.4968 270.254 10.1369 271.035 9.41711C272.236 8.33745 273.377 7.31777 274.579 6.23811C273.437 7.07784 272.236 7.91758 271.095 8.75732C269.834 9.65704 269.293 8.63736 269.894 7.25779C270.434 5.99818 270.915 4.67859 271.455 3.41899L269.413 7.07784C268.573 8.51739 268.212 8.21749 266.53 8.15751C255.78 7.8576 245.149 7.13783 234.458 6.23811C230.014 6.11814 203.588 5.6383 202.446 4.73858C202.026 4.43867 202.567 2.99912 202.867 1.01974C201.606 4.49865 202.266 4.67859 198.302 5.39837C194.879 5.63829 189.233 6.41805 186.05 6.05816C185.269 5.9382 185.089 5.9382 185.089 5.15844C185.089 4.31871 185.029 3.47897 184.969 2.57925C184.849 3.53895 184.729 4.37869 184.669 5.33839C184.609 5.99818 184.128 5.75826 183.467 5.63829C180.344 5.21843 177.221 4.91852 174.098 4.73858C168.573 4.79856 163.948 5.33839 158.422 5.69828C156.2 5.69828 156.14 3.65891 155.299 0.839795C155.419 1.61955 155.9 4.31871 155.66 4.85854C155.419 5.27841 154.879 5.21843 153.798 5.09846C151.215 4.85854 148.573 4.55863 145.99 4.31871C141.666 4.13876 137.461 4.07878 133.137 4.07878C130.915 4.07878 127.551 4.49865 125.87 3.89884C125.75 3.89884 123.527 1.01974 123.227 0.659851C123.527 1.25966 124.669 3.17906 124.488 3.71889C124.308 4.31871 123.287 4.25873 122.386 4.31871C119.984 4.49865 117.762 4.6786 115.359 4.73858C106.41 5.87822 98.1221 6.598 89.1731 7.19781C87.9119 7.25779 87.6116 7.61768 87.011 6.59799C86.2302 5.27841 85.4494 3.95882 84.6086 2.69921C85.2692 4.49865 85.8698 5.9382 86.3503 7.79762C86.4704 8.15751 85.2092 8.8173 84.7287 8.57738C83.1071 7.73764 81.7857 7.13783 80.2242 6.23811C81.3053 7.07784 82.026 7.8576 83.1071 8.75732C84.6686 10.0169 84.4884 9.53708 84.008 11.5165C83.2272 14.6355 82.5065 17.6945 81.7257 20.8136C81.4254 22.0732 81.3653 22.0732 80.1641 22.553C79.4434 22.8529 78.9629 23.2128 78.2422 23.5127C79.023 23.3328 79.7437 23.2128 80.5245 23.0329C81.3053 22.8529 81.8458 22.673 81.8458 23.5727C81.8458 24.8923 81.8458 26.1519 81.9059 27.4715C82.2662 32.09 82.6266 36.7086 82.9869 41.3871C83.3473 45.2259 83.6476 49.0647 84.008 52.9035C84.008 53.2034 84.008 53.5033 83.8278 53.8032C83.4674 54.643 81.4854 56.5024 80.7647 57.2822C81.9659 56.3824 83.1671 55.5427 84.3683 54.643C84.4284 54.523 85.4494 54.8229 85.5695 55.1828C85.3293 56.0225 85.029 56.8023 84.7887 57.642C85.2092 56.8623 85.6896 56.0825 86.1101 55.3028C86.2902 55.1828 86.4704 55.0628 86.7707 55.0029C88.032 55.0029 89.2332 55.0029 90.4944 55.0029C91.5155 55.0029 92.5365 55.0029 93.5575 55.0029C90.8548 54.8829 88.2722 54.7629 86.05 54.703C85.5095 54.643 84.7287 54.2231 84.5485 53.9232C83.6476 43.6664 82.7467 33.2297 82.2662 22.9129C82.3863 22.7929 82.4464 22.733 82.6266 22.673C83.7677 22.2531 97.101 20.3937 106.05 19.0741C111.035 18.3543 112.056 17.8145 117.101 18.9541C132.236 22.3131 163.948 34.6692 175.84 40.3075C178.002 41.3271 178.182 41.747 179.864 43.4265C183.527 47.0853 187.251 50.5643 191.035 53.9232C192.236 56.0825 193.377 58.4218 193.077 58.6617C192.897 58.7817 191.756 58.9616 190.374 58.9016C183.648 58.7217 176.981 57.9419 170.314 57.5221C177.341 58.4218 184.428 58.8417 191.876 59.7414C192.777 59.8613 193.317 59.9213 193.618 60.1613C193.858 60.3412 194.098 61.8407 194.158 63.3403C194.398 61.3009 194.398 60.1013 194.759 59.9213C194.939 59.9213 195.78 59.8614 196.621 59.8014C202.206 59.6814 207.852 59.3815 213.437 58.7817C223.227 57.1022 232.777 55.1228 241.726 52.4237C245.209 50.5043 248.753 48.7048 252.416 47.0853C255.72 45.6458 259.083 48.7648 262.266 50.5643C260.645 49.2447 259.143 48.165 257.521 47.0853C255.66 45.8257 254.579 45.7658 256.5 44.0863C261.065 40.1275 264.789 37.1884 269.714 33.7095C270.074 32.5699 272.416 27.9513 272.777 28.1313C272.837 28.1313 272.957 28.3112 273.077 28.6711C272.476 37.3084 272.416 46.8454 271.876 55.6627C271.035 56.0825 270.074 56.5024 269.353 56.8023C262.506 57.0422 255.539 57.3421 248.512 57.5821L248.753 57.4021ZM213.618 58.7817C207.852 58.7817 202.026 59.5614 196.26 58.7817C195.359 58.6617 194.879 58.4818 194.579 58.1219C193.618 57.1622 192.597 54.8829 191.936 53.6233C187.071 49.6045 182.987 45.7058 179.503 41.807C179.083 40.4874 179.083 40.1275 180.104 38.8079C187.672 28.4911 201.245 18.7742 212.897 13.3159C216.801 11.4565 221.065 9.89696 224.849 8.63736C225.93 7.79762 226.35 7.37775 226.891 7.13783C228.092 6.598 229.353 6.83792 230.615 6.8979C243.708 7.49771 257.041 8.09753 269.113 8.8173C269.533 9.11721 269.894 9.41711 270.254 9.83698C270.494 11.6964 270.554 13.5558 270.915 15.4152C271.696 18.4143 272.657 22.3731 273.197 24.7123C273.437 25.792 273.437 26.1519 272.657 27.7114C271.696 29.5708 270.675 31.4302 269.413 32.9298C264.368 37.2484 259.143 41.3271 253.858 45.1659C250.074 47.7451 245.93 49.7845 241.545 51.464C232.657 54.703 223.227 56.8623 213.678 58.7817H213.618ZM177.461 40.0675C158.362 30.7704 138.002 23.7526 116.38 18.1144C115.179 17.8145 114.639 17.4546 114.639 17.3346C114.639 17.1547 115.179 16.6748 116.14 15.9551C117.882 14.6355 119.684 13.3759 121.545 12.1763C122.567 9.83698 124.548 6.11814 126.29 4.67859C135.78 4.61861 147.251 4.67859 156.621 6.17813C166.771 5.27841 175.299 5.21843 184.909 6.53801C191.035 6.11814 196.08 6.05816 201.786 5.21843C208.933 5.69828 216.561 6.11814 224.368 6.47803C225.269 6.47803 226.29 6.53801 225.029 7.43773C223.167 8.69734 217.762 10.5568 212.717 12.956C207.672 15.3553 203.167 18.1144 201.606 18.8342C200.705 19.254 200.765 18.9541 200.765 18.1744C200.705 15.1753 200.765 11.5764 201.005 8.09753C200.585 9.777 200.164 14.8754 200.344 18.4743C200.344 19.314 200.524 19.5539 199.203 20.4537C191.335 25.732 184.548 31.6102 179.383 38.628C178.542 39.8276 178.422 40.0675 177.521 40.0076L177.461 40.0675ZM82.5665 21.4134C83.3473 17.6345 84.6686 14.2156 85.5695 9.59706C85.7497 9.41711 87.1311 8.09753 87.3113 7.97756C98.9028 7.55769 113.317 5.99818 124.368 4.91852C124.909 5.27841 124.729 5.81824 124.188 6.65798C123.107 8.39743 121.966 10.1369 120.885 11.9363C118.542 13.9757 116.08 15.7151 113.558 17.2747C112.717 17.4546 110.675 17.4546 109.654 17.5746C104.669 18.4143 84.008 22.3131 82.9869 21.7733C82.8668 21.7133 82.7467 21.5933 82.6266 21.4134H82.5665Z" fill="url(#paint40_radial_174_45712)"/>
<g style="mix-blend-mode:screen" opacity="0.5">
<path fill-rule="evenodd" clip-rule="evenodd" d="M258.544 24.8921C256.382 25.3119 254.1 28.9708 253.559 31.1301C253.019 33.4094 254.04 34.609 255.121 34.1892C257.523 33.2295 264.25 30.5303 264.731 27.5912C264.971 26.0917 264.25 24.7721 262.629 24.5322C261.307 24.2923 259.866 24.5922 258.544 24.8921Z" fill="#373FA5"/>
</g>
<path fill-rule="evenodd" clip-rule="evenodd" d="M258.185 24.4722C256.023 24.892 253.741 28.5509 253.2 30.7102C252.66 32.9895 253.681 34.1891 254.762 33.7693C257.164 32.8096 263.891 30.1104 264.371 27.1713C264.611 25.6718 263.891 24.3522 262.269 24.1123C260.948 23.8723 259.506 24.1723 258.185 24.4722Z" fill="url(#paint41_radial_174_45712)"/>
</g>
<defs>
<radialGradient id="paint0_radial_174_45712" cx="0" cy="0" r="1" gradientUnits="userSpaceOnUse" gradientTransform="translate(34.7123 0.779875) scale(228.589 228.289)">
<stop stop-color="#676C94"/>
<stop offset="1" stop-color="#17233A"/>
</radialGradient>
<radialGradient id="paint1_radial_174_45712" cx="0" cy="0" r="1" gradientUnits="userSpaceOnUse" gradientTransform="translate(0.3003 25.9122) scale(46.4865 46.4255)">
<stop stop-color="#5A6084"/>
<stop offset="1" stop-color="#323B63"/>
</radialGradient>
<radialGradient id="paint2_radial_174_45712" cx="0" cy="0" r="1" gradientUnits="userSpaceOnUse" gradientTransform="translate(13.0916 9.23764) scale(17.1772 17.1546)">
<stop stop-color="#8899C2"/>
<stop offset="1" stop-color="#727696"/>
</radialGradient>
<radialGradient id="paint3_radial_174_45712" cx="0" cy="0" r="1" gradientUnits="userSpaceOnUse" gradientTransform="translate(48.3462 -39.5875) scale(69.6697 69.5783)">
<stop stop-color="#8899C2"/>
<stop offset="1" stop-color="#727696"/>
</radialGradient>
<radialGradient id="paint4_radial_174_45712" cx="0" cy="0" r="1" gradientUnits="userSpaceOnUse" gradientTransform="translate(43.0024 17.3349) scale(74.3544 74.2568)">
<stop stop-color="#4E5470"/>
<stop offset="1" stop-color="#252E4F"/>
</radialGradient>
<radialGradient id="paint5_radial_174_45712" cx="0" cy="0" r="1" gradientUnits="userSpaceOnUse" gradientTransform="translate(12.9739 44.8058) scale(36.5165 36.4686)">
<stop stop-color="#5A6084"/>
<stop offset="1" stop-color="#323B63"/>
</radialGradient>
<radialGradient id="paint6_radial_174_45712" cx="0" cy="0" r="1" gradientUnits="userSpaceOnUse" gradientTransform="translate(-0.420418 18.8945) scale(64.9249 64.8397)">
<stop stop-color="#5A6084"/>
<stop offset="1" stop-color="#323B63"/>
</radialGradient>
<radialGradient id="paint7_radial_174_45712" cx="0" cy="0" r="1" gradientUnits="userSpaceOnUse" gradientTransform="translate(36.5721 16.9747) scale(78.2583 78.1556)">
<stop stop-color="#4E5B7D"/>
<stop offset="1" stop-color="#313556"/>
</radialGradient>
<radialGradient id="paint8_radial_174_45712" cx="0" cy="0" r="1" gradientUnits="userSpaceOnUse" gradientTransform="translate(62.6411 -19.1334) scale(178.258 178.024)">
<stop stop-color="#4E5B7D"/>
<stop offset="1" stop-color="#313556"/>
</radialGradient>
<linearGradient id="paint9_linear_174_45712" x1="70.2561" y1="0.000183105" x2="70.2561" y2="20.8137" gradientUnits="userSpaceOnUse">
<stop stop-color="#A0DBF0"/>
<stop offset="1" stop-color="#00FFEA"/>
</linearGradient>
<radialGradient id="paint10_radial_174_45712" cx="0" cy="0" r="1" gradientUnits="userSpaceOnUse" gradientTransform="translate(29.6638 -39.2877) scale(225.045 224.75)">
<stop stop-color="#7C8FB2"/>
<stop offset="1" stop-color="#515682"/>
</radialGradient>
<radialGradient id="paint11_radial_174_45712" cx="0" cy="0" r="1" gradientUnits="userSpaceOnUse" gradientTransform="translate(28.6472 38.7479) scale(19.6396 19.6139)">
<stop stop-color="#5A6084"/>
<stop offset="1" stop-color="#323B63"/>
</radialGradient>
<radialGradient id="paint12_radial_174_45712" cx="0" cy="0" r="1" gradientUnits="userSpaceOnUse" gradientTransform="translate(42.7507 0.77957) scale(337.014 228.289)">
<stop stop-color="#676C94"/>
<stop offset="1" stop-color="#17233A"/>
</radialGradient>
<radialGradient id="paint13_radial_174_45712" cx="0" cy="0" r="1" gradientUnits="userSpaceOnUse" gradientTransform="translate(62.8498 -39.5877) scale(102.716 69.5783)">
<stop stop-color="#8899C2"/>
<stop offset="1" stop-color="#727696"/>
</radialGradient>
<radialGradient id="paint14_radial_174_45712" cx="0" cy="0" r="1" gradientUnits="userSpaceOnUse" gradientTransform="translate(91.185 -52.0637) scale(101.122 68.4986)">
<stop stop-color="#8899C2"/>
<stop offset="1" stop-color="#727696"/>
</radialGradient>
<radialGradient id="paint15_radial_174_45712" cx="0" cy="0" r="1" gradientUnits="userSpaceOnUse" gradientTransform="translate(150.427 -28.8506) scale(105.638 71.5576)">
<stop stop-color="#8899C2"/>
<stop offset="1" stop-color="#727696"/>
</radialGradient>
<radialGradient id="paint16_radial_174_45712" cx="0" cy="0" r="1" gradientUnits="userSpaceOnUse" gradientTransform="translate(193.46 -52.5441) scale(129.28 87.5726)">
<stop stop-color="#8899C2"/>
<stop offset="1" stop-color="#727696"/>
</radialGradient>
<radialGradient id="paint17_radial_174_45712" cx="0" cy="0" r="1" gradientUnits="userSpaceOnUse" gradientTransform="translate(197.356 5.51846) scale(134.327 90.9916)">
<stop stop-color="#4E5470"/>
<stop offset="1" stop-color="#252E4F"/>
</radialGradient>
<radialGradient id="paint18_radial_174_45712" cx="0" cy="0" r="1" gradientUnits="userSpaceOnUse" gradientTransform="translate(102.167 7.19717) scale(112.545 76.2362)">
<stop stop-color="#4E5470"/>
<stop offset="1" stop-color="#252E4F"/>
</radialGradient>
<radialGradient id="paint19_radial_174_45712" cx="0" cy="0" r="1" gradientUnits="userSpaceOnUse" gradientTransform="translate(54.9695 17.3347) scale(109.622 74.2568)">
<stop stop-color="#4E5470"/>
<stop offset="1" stop-color="#252E4F"/>
</radialGradient>
<radialGradient id="paint20_radial_174_45712" cx="0" cy="0" r="1" gradientUnits="userSpaceOnUse" gradientTransform="translate(45.4975 16.9746) scale(115.378 78.1556)">
<stop stop-color="#4E5B7D"/>
<stop offset="1" stop-color="#313556"/>
</radialGradient>
<radialGradient id="paint21_radial_174_45712" cx="0" cy="0" r="1" gradientUnits="userSpaceOnUse" gradientTransform="translate(113.234 41.9272) scale(218.271 147.854)">
<stop stop-color="#4E5B7D"/>
<stop offset="1" stop-color="#313556"/>
</radialGradient>
<radialGradient id="paint22_radial_174_45712" cx="0" cy="0" r="1" gradientUnits="userSpaceOnUse" gradientTransform="translate(83.9267 -19.1336) scale(262.811 178.024)">
<stop stop-color="#4E5B7D"/>
<stop offset="1" stop-color="#313556"/>
</radialGradient>
<radialGradient id="paint23_radial_174_45712" cx="0" cy="0" r="1" gradientUnits="userSpaceOnUse" gradientTransform="translate(128.73 26.6313) scale(276.535 187.321)">
<stop stop-color="#4E5B7D"/>
<stop offset="1" stop-color="#313556"/>
</radialGradient>
<radialGradient id="paint24_radial_174_45712" cx="0" cy="0" r="1" gradientUnits="userSpaceOnUse" gradientTransform="translate(213.297 12.2958) scale(134.504 91.1115)">
<stop stop-color="#1A1F3A"/>
<stop offset="1" stop-color="#647394"/>
</radialGradient>
<linearGradient id="paint25_linear_174_45712" x1="95.1591" y1="0" x2="95.1591" y2="20.8135" gradientUnits="userSpaceOnUse">
<stop stop-color="#A0DBF0"/>
<stop offset="1" stop-color="#00FFEA"/>
</linearGradient>
<radialGradient id="paint26_radial_174_45712" cx="0" cy="0" r="1" gradientUnits="userSpaceOnUse" gradientTransform="translate(35.3114 -39.2879) scale(331.789 224.75)">
<stop stop-color="#7C8FB2"/>
<stop offset="1" stop-color="#515682"/>
</radialGradient>
<radialGradient id="paint27_radial_174_45712" cx="0" cy="0" r="1" gradientUnits="userSpaceOnUse" gradientTransform="translate(263.146 39.8272) scale(26.653 18.0544)">
<stop stop-color="#5A6084"/>
<stop offset="1" stop-color="#323B63"/>
</radialGradient>
<radialGradient id="paint28_radial_174_45712" cx="0" cy="0" r="1" gradientUnits="userSpaceOnUse" gradientTransform="translate(44.2531 45.7659) scale(16.8241 11.3964)">
<stop stop-color="#5A6084"/>
<stop offset="1" stop-color="#323B63"/>
</radialGradient>
<radialGradient id="paint29_radial_174_45712" cx="0" cy="0" r="1" gradientUnits="userSpaceOnUse" gradientTransform="translate(33.8111 38.7477) scale(28.9552 19.6139)">
<stop stop-color="#5A6084"/>
<stop offset="1" stop-color="#323B63"/>
</radialGradient>
<radialGradient id="paint30_radial_174_45712" cx="0" cy="0" r="1" gradientUnits="userSpaceOnUse" gradientTransform="translate(112.716 0.779753) scale(228.589 228.289)">
<stop stop-color="#676C94"/>
<stop offset="1" stop-color="#17233A"/>
</radialGradient>
<radialGradient id="paint31_radial_174_45712" cx="0" cy="0" r="1" gradientUnits="userSpaceOnUse" gradientTransform="translate(214.937 -52.5439) scale(87.6877 87.5726)">
<stop stop-color="#8899C2"/>
<stop offset="1" stop-color="#727696"/>
</radialGradient>
<radialGradient id="paint32_radial_174_45712" cx="0" cy="0" r="1" gradientUnits="userSpaceOnUse" gradientTransform="translate(261.546 -17.6944) scale(28.1081 28.0712)">
<stop stop-color="#8899C2"/>
<stop offset="1" stop-color="#727696"/>
</radialGradient>
<radialGradient id="paint33_radial_174_45712" cx="0" cy="0" r="1" gradientUnits="userSpaceOnUse" gradientTransform="translate(271.577 9.17749) scale(65.5256 65.4395)">
<stop stop-color="#5A6084"/>
<stop offset="1" stop-color="#323B63"/>
</radialGradient>
<radialGradient id="paint34_radial_174_45712" cx="0" cy="0" r="1" gradientUnits="userSpaceOnUse" gradientTransform="translate(252.654 17.9944) scale(61.3214 61.2409)">
<stop stop-color="#5A6084"/>
<stop offset="1" stop-color="#323B63"/>
</radialGradient>
<radialGradient id="paint35_radial_174_45712" cx="0" cy="0" r="1" gradientUnits="userSpaceOnUse" gradientTransform="translate(269.413 41.9868) scale(35.7958 35.7488)">
<stop stop-color="#5A6084"/>
<stop offset="1" stop-color="#323B63"/>
</radialGradient>
<radialGradient id="paint36_radial_174_45712" cx="0" cy="0" r="1" gradientUnits="userSpaceOnUse" gradientTransform="translate(217.581 5.51865) scale(91.1111 90.9916)">
<stop stop-color="#4E5470"/>
<stop offset="1" stop-color="#252E4F"/>
</radialGradient>
<radialGradient id="paint37_radial_174_45712" cx="0" cy="0" r="1" gradientUnits="userSpaceOnUse" gradientTransform="translate(171.035 26.6314) scale(187.568 187.321)">
<stop stop-color="#4E5B7D"/>
<stop offset="1" stop-color="#313556"/>
</radialGradient>
<radialGradient id="paint38_radial_174_45712" cx="0" cy="0" r="1" gradientUnits="userSpaceOnUse" gradientTransform="translate(228.392 12.296) scale(91.2312 91.1115)">
<stop stop-color="#1A1F3A"/>
<stop offset="1" stop-color="#647394"/>
</radialGradient>
<linearGradient id="paint39_linear_174_45712" x1="148.26" y1="0.000183105" x2="148.26" y2="20.8137" gradientUnits="userSpaceOnUse">
<stop stop-color="#A0DBF0"/>
<stop offset="1" stop-color="#00FFEA"/>
</linearGradient>
<radialGradient id="paint40_radial_174_45712" cx="0" cy="0" r="1" gradientUnits="userSpaceOnUse" gradientTransform="translate(107.672 -39.2877) scale(225.045 224.75)">
<stop stop-color="#7C8FB2"/>
<stop offset="1" stop-color="#515682"/>
</radialGradient>
<radialGradient id="paint41_radial_174_45712" cx="0" cy="0" r="1" gradientUnits="userSpaceOnUse" gradientTransform="translate(262.209 39.8274) scale(18.0781 18.0544)">
<stop stop-color="#5A6084"/>
<stop offset="1" stop-color="#323B63"/>
</radialGradient>
<clipPath id="clip0_174_45712">
<rect width="17.7778" height="64" fill="white"/>
</clipPath>
<clipPath id="clip1_174_45712">
<rect width="242.444" height="64" fill="white" transform="translate(17.7773)"/>
</clipPath>
<clipPath id="clip2_174_45712">
<rect width="17.7778" height="64" fill="white" transform="translate(260.223)"/>
</clipPath>
</defs>
</svg>
