<svg width="60" height="60" viewBox="0 0 60 60" fill="none" xmlns="http://www.w3.org/2000/svg">
<g clip-path="url(#clip0_79653_9750)">
<path d="M8.25013 0.981048C14.276 -0.519558 46.8341 -0.354293 52.3512 1.08021C57.9895 2.54115 59.6913 4.3789 59.9336 11.8224C60.1758 19.266 60.0547 44.2077 59.9336 48.9079C59.8124 53.608 55.3854 58.9626 50.4799 59.4848C45.5744 60.0071 10.9996 59.8749 8.25013 58.9626C5.50062 58.0503 0.595115 54.9169 0.231744 47.3412C-0.125571 39.7654 -0.246695 14.8236 0.710182 10.9102C1.66706 6.99669 1.43087 2.68658 8.24407 0.987659L8.25013 0.981048Z" fill="url(#paint0_linear_79653_9750)"/>
<path d="M35.1202 55.9145C21.1486 55.9145 10.8591 55.5576 9.1997 55.227C7.89762 54.7709 4.05195 52.9464 3.77942 47.1423C3.36154 38.2907 3.40999 14.9288 4.14279 11.9078C4.30025 11.2533 4.42743 10.6253 4.54856 10.0172C5.17234 6.85067 5.40853 5.66738 9.04224 4.76172C12.3065 3.94862 25.9814 2.95703 37.2943 2.95703C48.6073 2.95703 50.8178 3.9354 50.9026 3.97506C55.5053 6.31522 56.2138 6.67219 56.3834 11.9541C56.6135 19.1861 56.5045 44.0485 56.3834 48.7949C56.3168 51.492 53.2766 55.2865 50.1395 55.6237C48.5043 55.7955 42.6056 55.9079 35.1262 55.9079L35.1202 55.9145Z" fill="url(#paint1_linear_79653_9750)"/>
<mask id="mask0_79653_9750" style="mask-type:luminance" maskUnits="userSpaceOnUse" x="-1" y="-1" width="62" height="61">
<path d="M8.24837 0.980725C14.2743 -0.519881 46.6688 -0.354616 52.2102 0.960893C57.5093 2.21691 59.6896 4.37857 59.9258 11.8221C60.168 19.2656 60.0469 44.2074 59.9258 48.9076C59.8046 53.6077 55.3776 58.9623 50.4721 59.4845C45.5666 60.0068 10.9918 59.8746 8.24231 58.9623C5.49281 58.05 0.587302 54.9166 0.223931 47.3409C-0.133383 39.7651 -0.254507 14.8233 0.702369 10.9098C1.65925 6.99637 1.42306 2.68626 8.23626 0.987335L8.24837 0.980725Z" fill="white"/>
</mask>
<g mask="url(#mask0_79653_9750)">
<path opacity="0.5" d="M22.671 48.3589C31.3313 50.0115 41.3179 51.8228 48.87 60.2712C49.7966 61.309 51.2622 62.7634 50.0752 64.2442C48.8579 65.7646 47.2166 64.4094 46.0478 63.6161C35.0498 56.1858 23.2281 53.3102 10.492 56.1594C6.57968 57.032 2.83696 58.8235 -0.990541 60.172C-1.75968 60.4431 -2.69838 61.1306 -3.27978 60.053C-3.85511 58.9821 -2.93458 58.2748 -2.2684 57.8187C4.96268 52.8541 12.4057 48.4713 22.677 48.3589H22.671Z" fill="#7A401C"/>
<path opacity="0.15" d="M66.3751 21.7246C66.1268 22.2137 65.9693 22.8814 65.5756 23.1723C65.3031 23.3772 64.5219 23.245 64.2857 22.9541C59.5437 17.1632 52.791 15.5767 46.5835 12.9457C38.9951 9.73293 32.7451 4.32546 26.3679 -0.916742C25.6715 -1.49186 24.7267 -2.27853 25.2718 -3.40233C25.8532 -4.61207 26.9675 -4.0105 27.7366 -3.62709C38.6559 1.81343 49.6297 7.13497 60.4158 12.8862C63.4499 14.5058 65.4485 17.7648 66.3811 21.7113L66.3751 21.7246Z" fill="#7A401C"/>
<path opacity="0.25" d="M12.9474 13.4811C9.02297 11.6103 4.95927 10.0767 0.919798 8.51658C0.289956 8.27199 -0.533685 8.63557 -1.27254 8.7149C-0.751707 9.35613 -0.327775 10.156 0.308124 10.6121C2.47624 12.1855 4.60196 13.924 6.95175 15.0941C12.3902 17.8045 12.4205 20.7131 7.59371 24.1573C3.96 25.962 0.320237 27.7534 -3.30136 29.5912C-3.64051 29.763 -3.85247 30.2258 -4.125 30.5563C-3.8343 30.6423 -3.49516 30.8868 -3.27108 30.7943C0.683608 29.1483 4.62618 27.4692 8.56875 25.7901C8.80494 25.7174 9.04114 25.605 9.27127 25.4926C12.148 24.1308 15.1034 22.8285 15.5818 18.8093C15.8725 16.3832 14.849 14.3868 12.9474 13.4811Z" fill="#7A401C"/>
<path opacity="0.25" d="M37.2824 13.4682C37.1855 13.4021 37.0825 13.3426 36.9795 13.2964C29.0459 8.78132 21.5908 3.14909 12.67 0.941147C12.3975 0.742829 12.0947 0.643671 11.8282 0.689945C7.64341 -0.552848 3.34957 -0.552848 -0.950313 -0.374362C-1.3258 -0.36114 -1.68917 0.0949907 -2.05859 0.346193C-1.6286 0.518069 -1.21073 0.795714 -0.768628 0.848599C3.42831 1.351 7.63129 1.81375 11.8282 2.28971C19.9253 5.03311 26.9868 10.0241 34.2664 14.5391C34.769 14.9424 35.302 15.306 35.7683 15.7555C38.106 18.0031 42.1515 20.1053 41.4551 23.3445C40.7647 26.5837 36.3436 26.3655 33.3156 26.9142C23.6983 28.6594 10.7684 31.7796 -0.0358298 34.9593C-0.829189 35.1907 -1.79818 40.6444 -1.70734 40.8229C-1.12594 41.9467 5.23305 38.4299 6.17175 38.0861C16.007 34.4767 26.0179 32.3547 36.0711 29.9154C40.2196 28.9106 45.87 28.8445 46.2273 22.8222C46.5665 17.0578 41.3218 15.4316 37.2642 13.4682H37.2824Z" fill="#7A401C"/>
<path opacity="0.25" d="M64.1937 40.1085C60.9052 35.4678 56.2541 34.3771 51.2638 34.8134C46.6187 35.2166 42.016 36.3272 37.3709 36.6115C26.4092 37.2924 15.4475 37.7485 5.06117 42.2569C2.80827 42.9048 0.549315 43.5196 -1.68542 44.2269C-2.16991 44.3789 -2.56962 44.8615 -3.01172 45.192C-2.53328 45.3771 -2.01245 45.787 -1.5764 45.7077C0.8279 45.2714 3.22615 44.7557 5.6244 44.2533C5.99988 44.2798 6.39959 44.326 6.72662 44.022C7.76828 43.7972 8.80389 43.5658 9.84555 43.3609C27.0269 39.9763 44.063 41.2852 61.0324 45.1788C62.3042 45.4697 63.685 47.2413 64.8538 45.4763C66.0348 43.6848 65.3202 41.7083 64.1998 40.1151L64.1937 40.1085Z" fill="#7A401C"/>
</g>
<path d="M17.7617 55.7028L27.3971 55.6631L42.047 55.8746L28.8264 56.9654L17.7617 55.7028Z" fill="#542909"/>
<path d="M-0.0173812 34.9524L3.56788 34.4038L12.9247 31.429L3.10761 33.0155L-0.0234375 34.6351L-0.0173812 34.9524Z" fill="#542909"/>
<path d="M12.9264 31.4293L3.56963 34.4041L-0.015625 34.9528L3.86639 35.2502L13.0899 31.3896L12.9264 31.4293Z" fill="#EBB273"/>
<path d="M3.69758 45.1924C3.69758 45.1924 3.63096 55.657 15.9613 55.657C15.9613 55.657 8.43957 56.5692 5.98681 54.6059C3.53406 52.6425 3.69758 45.1924 3.69758 45.1924Z" fill="#542909"/>
<path d="M56.4376 45.04C56.4376 45.04 55.6745 50.7384 53.7063 53.1645C52.3255 54.87 48.5706 55.6368 44.1133 55.8682C44.1133 55.8682 52.5435 56.0401 54.8388 54.0767C57.1401 52.1134 56.4376 45.04 56.4376 45.04Z" fill="#542909"/>
<path d="M17.7422 3.80364L27.3715 3.8433L42.1607 2.95748L28.8068 2.54102L17.7422 3.80364Z" fill="#EBB273"/>
<path d="M3.82067 15.1609C3.82067 15.1609 4.5898 8.0281 6.80636 6.28951C8.19323 5.20537 12.154 4.07496 16.6053 3.81715C16.6053 3.81715 8.64139 3.61222 6.18863 5.57557C3.73588 7.53891 3.82067 15.1543 3.82067 15.1543V15.1609Z" fill="#EBB273"/>
<path d="M56.4157 14.4661C56.4157 14.4661 56.3915 8.9 54.4172 6.47391C53.0364 4.76837 48.6275 3.34709 44.1641 3.11572C44.1641 3.11572 51.8917 3.20166 54.8108 5.42943C57.203 7.26057 56.4097 14.4661 56.4097 14.4661H56.4157Z" fill="#EBB273"/>
<path d="M60.0144 36.2879L56.4897 33.6768L51.5781 34.7873L56.4897 35.7855L60.0144 36.2879Z" fill="#542909"/>
<path d="M12.875 25.6048L16.8842 23.972L19.3006 25.6048H12.875Z" fill="#542909"/>
<path d="M16.8842 26.6689L12.875 25.6046H19.3006L16.8842 26.6689Z" fill="#EBB273"/>
<path d="M23.0195 41.6488C23.0195 41.6488 34.1811 40.373 41.6786 41.0142C49.1762 41.6554 56.5405 44.2137 56.5405 44.2137C56.5405 44.2137 48.8067 42.9908 41.3879 42.528C33.9691 42.0653 23.0256 41.6554 23.0256 41.6554L23.0195 41.6488Z" fill="#B57650"/>
<path opacity="0.48" d="M46.6705 7.59103C31.1667 5.83261 13.8703 8.15293 13.8703 8.15293C11.4599 8.15293 8.98898 10.6055 8.65589 13.177C6.76636 27.9318 8.20167 45.8333 8.20167 45.8333C8.20167 48.4247 11.684 51.4391 14.1004 51.4391C14.1004 51.4391 33.1168 53.224 47.149 51.254C49.5412 50.9169 51.3944 48.8412 51.7335 46.2696C54.0348 28.7185 51.7335 13.5935 51.7335 13.5935C51.6184 10.2419 49.0748 7.85545 46.6766 7.58442L46.6705 7.59103Z" fill="url(#paint2_linear_79653_9750)"/>
<path d="M7.89062 22.1476C7.89062 22.1476 7.95724 13.382 8.67187 11.5773C9.3865 9.77257 10.1011 7.94805 13.8075 7.70345C17.744 7.43903 24.3513 6.29539 31.0858 6.18301C37.8203 6.07063 47.3285 6.78458 48.9031 7.81583C50.4837 8.84709 52.1976 9.63375 52.2885 18.7167C52.2885 18.7167 51.6405 9.69324 48.5882 8.78098C45.5358 7.86872 37.1723 7.2936 37.1723 7.2936C37.1723 7.2936 41.0058 10.4402 42.1686 10.7642C42.1686 10.7642 36.5969 7.2936 34.3319 7.35309C32.0669 7.41259 23.8608 7.69684 23.8608 7.69684L25.8048 9.13134C25.8048 9.13134 23.3339 7.57785 21.1234 7.63735C18.9129 7.69684 12.2814 8.15958 11.1791 9.47509C10.0769 10.7972 8.85356 10.8699 8.53864 15.8147C8.53864 15.8147 9.68931 16.6079 10.2162 17.3681C10.2162 17.3681 9.27749 16.6013 8.58709 16.3171L7.89062 22.141V22.1476Z" fill="#542909"/>
<path d="M7.83121 38.9321C7.83121 38.9321 8.42471 47.2813 10.2113 48.5439C11.9979 49.8066 12.4036 50.9039 16.6066 51.1221C20.8035 51.3402 25.6848 50.4412 26.0361 50.5337C26.3873 50.6263 33.5821 51.5055 34.3331 51.565C35.0901 51.6179 45.5006 51.3733 47.4628 50.5337C49.4251 49.6942 51.6053 48.1076 51.9808 44.2074C51.9808 44.2074 52.2412 48.696 49.7763 50.461C47.3114 52.2194 37.5549 52.1864 37.5549 52.1864C37.5549 52.1864 38.9055 52.7681 41.7276 54.4075C41.7276 54.4075 38.7117 52.702 34.2846 52.1864C29.8575 51.6708 21.9118 52.1533 19.5439 52.1864C17.182 52.2194 10.29 52.1665 9.13329 49.0926C7.97656 46.0187 7.6798 43.8174 7.6798 43.8174L6.41406 44.2074C6.41406 44.2074 7.63741 43.8769 7.6798 41.7879C7.7222 39.699 7.83121 38.9321 7.83121 38.9321Z" fill="#B57650"/>
</g>
<defs>
<linearGradient id="paint0_linear_79653_9750" x1="30.016" y1="59.7889" x2="30.016" y2="-0.0700393" gradientUnits="userSpaceOnUse">
<stop stop-color="#77421F"/>
<stop offset="0.25" stop-color="#7A4420"/>
<stop offset="0.44" stop-color="#834C24"/>
<stop offset="0.61" stop-color="#945A2A"/>
<stop offset="0.77" stop-color="#AB6D33"/>
<stop offset="0.92" stop-color="#C9853F"/>
<stop offset="1" stop-color="#DB9446"/>
</linearGradient>
<linearGradient id="paint1_linear_79653_9750" x1="30.0148" y1="55.9145" x2="30.0148" y2="2.95703" gradientUnits="userSpaceOnUse">
<stop stop-color="#99572F"/>
<stop offset="0.23" stop-color="#A05F34"/>
<stop offset="0.6" stop-color="#B57844"/>
<stop offset="1" stop-color="#D1995A"/>
</linearGradient>
<linearGradient id="paint2_linear_79653_9750" x1="30.2159" y1="52.1861" x2="30.2159" y2="6.93658" gradientUnits="userSpaceOnUse">
<stop stop-color="#72420C"/>
<stop offset="0.3" stop-color="#4E2A07"/>
<stop offset="0.57" stop-color="#341903"/>
<stop offset="0.81" stop-color="#240F00"/>
<stop offset="1" stop-color="#1F0C00"/>
</linearGradient>
<clipPath id="clip0_79653_9750">
<rect width="60" height="60" fill="white"/>
</clipPath>
</defs>
</svg>
