<svg width="120" height="60" viewBox="0 0 120 60" fill="none" xmlns="http://www.w3.org/2000/svg">
<g clip-path="url(#clip0_79653_30252)">
<path d="M8.13899 1.12138C14.1693 -0.375328 46.7511 -0.210493 52.2723 1.22028C57.9147 2.67742 59.6178 4.51039 59.8602 11.9346C60.1026 19.3587 59.9814 44.2357 59.8602 48.9236C59.739 53.6115 55.3087 58.9521 50.3996 59.473C45.4905 59.9939 10.8905 59.862 8.13899 58.9521C5.38748 58.0423 0.478385 54.917 0.114748 47.3609C-0.242827 39.8049 -0.36404 14.928 0.593536 11.0247C1.55111 7.12138 1.31475 2.82247 8.13293 1.12797L8.13899 1.12138Z" fill="url(#paint0_linear_79653_30252)"/>
<path d="M35.0261 55.9121C21.0442 55.9121 10.7473 55.556 9.08667 55.2264C7.78364 54.7714 3.93515 52.9516 3.66243 47.1626C3.24424 38.334 3.29273 15.0329 4.02606 12.0198C4.18364 11.367 4.31091 10.7406 4.43212 10.134C5.05636 6.9758 5.29273 5.79558 8.92909 4.89229C12.1958 4.0813 25.8806 3.09229 37.2018 3.09229C48.523 3.09229 50.7352 4.06811 50.82 4.10767C55.4261 6.44174 56.1352 6.79778 56.3049 12.0659C56.5352 19.2791 56.4261 44.0769 56.3049 48.811C56.2382 51.5011 53.1958 55.2857 50.0564 55.622C48.42 55.7934 42.517 55.9055 35.0321 55.9055L35.0261 55.9121Z" fill="url(#paint1_linear_79653_30252)"/>
<mask id="mask0_79653_30252" style="mask-type:luminance" maskUnits="userSpaceOnUse" x="-1" y="0" width="61" height="60">
<path d="M8.13724 1.12102C14.1675 -0.375686 46.5857 -0.210851 52.1312 1.10124C57.4342 2.35398 59.616 4.51003 59.8524 11.9342C60.0948 19.3584 59.9736 44.2353 59.8524 48.9232C59.7312 53.6111 55.3009 58.9518 50.3918 59.4727C45.4827 59.9935 10.8827 59.8617 8.13118 58.9518C5.37966 58.0419 0.470572 54.9166 0.106936 47.3606C-0.25064 39.8045 -0.371852 14.9276 0.585724 11.0243C1.5433 7.12102 1.30694 2.82212 8.12512 1.12761L8.13724 1.12102Z" fill="white"/>
</mask>
<g mask="url(#mask0_79653_30252)">
<path opacity="0.5" d="M22.5768 48.376C31.2434 50.0243 41.2374 51.8309 48.795 60.2573C49.7222 61.2925 51.1889 62.743 50.001 64.2199C48.7828 65.7364 47.1404 64.3848 45.9707 63.5936C34.9646 56.1826 23.1343 53.3144 10.3889 56.1562C6.47374 57.0265 2.72829 58.8133 -1.10202 60.1584C-1.87171 60.4287 -2.81111 61.1144 -3.39293 60.0397C-3.96868 58.9716 -3.04747 58.2661 -2.38081 57.8111C4.85556 52.8595 12.304 48.4881 22.5828 48.376H22.5768Z" fill="#29303F"/>
<path opacity="0.25" d="M12.8427 13.5889C8.91539 11.723 4.84872 10.1933 0.806297 8.63724C0.175994 8.39329 -0.648248 8.75592 -1.38764 8.83504C-0.86643 9.4746 -0.442187 10.2724 0.194176 10.7274C2.36387 12.2966 4.49115 14.0306 6.84266 15.1977C12.2851 17.901 12.3154 20.8021 7.48509 24.2372C3.84872 26.0372 0.206297 27.8241 -3.41795 29.657C-3.75734 29.8285 -3.96946 30.29 -4.24219 30.6197C-3.95128 30.7054 -3.61188 30.9493 -3.38764 30.857C0.569934 29.2153 4.51539 27.5405 8.46084 25.8658C8.69721 25.7933 8.93357 25.6812 9.16387 25.5691C12.0427 24.2109 15.0002 22.912 15.479 18.9032C15.7699 16.4834 14.7457 14.4922 12.8427 13.5889Z" fill="#29303F"/>
<path opacity="0.25" d="M37.1939 13.5761C37.0969 13.5101 36.9939 13.4508 36.8909 13.4046C28.9515 8.90133 21.4909 3.28375 12.5636 1.08155C12.2909 0.883747 11.9879 0.784846 11.7212 0.831C7.53331 -0.408561 3.23634 -0.408561 -1.06669 -0.230539C-1.44245 -0.217352 -1.80608 0.237593 -2.17578 0.488142C-1.74548 0.659571 -1.3273 0.936494 -0.884872 0.989241C3.31513 1.49034 7.52119 1.95188 11.7212 2.4266C19.8242 5.16287 26.8909 10.1409 34.1757 14.6442C34.6788 15.0464 35.2121 15.409 35.6788 15.8574C38.0182 18.0991 42.0666 20.1958 41.3697 23.4266C40.6788 26.6574 36.2545 26.4398 33.2242 26.987C23.6 28.7277 10.6606 31.8398 -0.151539 35.0112C-0.945478 35.242 -1.91518 40.6815 -1.82427 40.8596C-1.24245 41.9804 5.12119 38.4728 6.06058 38.1299C15.903 34.5299 25.9212 32.4134 35.9818 29.9804C40.1333 28.9783 45.7878 28.9123 46.1454 22.9057C46.4848 17.1563 41.2363 15.5343 37.1757 13.5761H37.1939Z" fill="#29303F"/>
<path opacity="0.25" d="M64.1256 40.1477C60.8347 35.5191 56.1802 34.4312 51.1862 34.8664C46.5378 35.2686 41.9317 36.3763 37.2832 36.6598C26.3135 37.3389 15.3438 37.7939 4.94988 42.2906C2.69534 42.9367 0.43473 43.5499 -1.80163 44.2554C-2.28648 44.4071 -2.68648 44.8884 -3.12891 45.218C-2.65012 45.4027 -2.12891 45.8114 -1.69254 45.7323C0.713518 45.2972 3.11352 44.7829 5.51352 44.2818C5.88928 44.3082 6.28928 44.3543 6.61655 44.051C7.65897 43.8268 8.69534 43.5961 9.73776 43.3917C26.9317 40.0158 43.9802 41.3213 60.962 45.2049C62.2347 45.495 63.6166 47.262 64.7862 45.5016C65.9681 43.7147 65.2529 41.7433 64.1317 40.1543L64.1256 40.1477Z" fill="#29303F"/>
</g>
<path d="M17.6562 55.7017L27.2987 55.6621L41.9593 55.8731L28.729 56.961L17.6562 55.7017Z" fill="#1E2328"/>
<path d="M-0.134564 35.0042L3.45331 34.457L12.8169 31.49L2.99271 33.0724L-0.140625 34.6878L-0.134564 35.0042Z" fill="#1E2328"/>
<path d="M12.8187 31.4902L3.45507 34.4573L-0.132812 35.0045L3.75204 35.3012L12.9823 31.4507L12.8187 31.4902Z" fill="#99ABCF"/>
<path d="M3.5882 45.2173C3.5882 45.2173 3.52153 55.6546 15.8609 55.6546C15.8609 55.6546 8.33366 56.5645 5.87911 54.6063C3.42457 52.6481 3.5882 45.2173 3.5882 45.2173Z" fill="#1E2328"/>
<path d="M17.6406 3.93659L27.277 3.97615L42.077 3.09263L28.7134 2.67725L17.6406 3.93659Z" fill="#99ABCF"/>
<path d="M3.70739 15.264C3.70739 15.264 4.47708 8.14973 6.69526 6.41566C8.08314 5.33435 12.0468 4.20687 16.5013 3.94973C16.5013 3.94973 8.53163 3.74533 6.07708 5.70358C3.62254 7.66182 3.70739 15.2574 3.70739 15.2574V15.264Z" fill="#99ABCF"/>
<path d="M12.7656 25.6813L16.7777 24.0527L19.1959 25.6813H12.7656Z" fill="#1E2328"/>
<path d="M16.7777 26.7427L12.7656 25.6811H19.1959L16.7777 26.7427Z" fill="#99ABCF"/>
<path opacity="0.48" d="M46.5896 7.71432C31.0745 5.96047 13.7654 8.27476 13.7654 8.27476C11.3533 8.27476 8.88056 10.7209 8.54723 13.2857C6.65632 28.0022 8.09268 45.8572 8.09268 45.8572C8.09268 48.4418 11.5775 51.4484 13.9957 51.4484C13.9957 51.4484 33.026 53.2286 47.0684 51.2638C49.4624 50.9275 51.3169 48.8572 51.6563 46.2923C53.9593 28.7868 51.6563 13.7011 51.6563 13.7011C51.5412 10.3583 48.9957 7.97805 46.5957 7.70772L46.5896 7.71432Z" fill="url(#paint2_linear_79653_30252)"/>
<path d="M7.78125 22.233C7.78125 22.233 7.84792 13.4902 8.56307 11.6902C9.27822 9.89016 9.99337 8.07038 13.7025 7.82642C17.6419 7.56269 24.254 6.42203 30.9934 6.30994C37.7328 6.19785 47.2479 6.90994 48.8237 7.93851C50.4055 8.96708 52.1206 9.75169 52.2116 18.811C52.2116 18.811 51.5631 9.81104 48.5085 8.90115C45.454 7.99126 37.0843 7.41763 37.0843 7.41763C37.0843 7.41763 40.9206 10.5561 42.0843 10.8792C42.0843 10.8792 36.5085 7.41763 34.2419 7.47697C31.9752 7.53631 23.7631 7.81983 23.7631 7.81983L25.7085 9.2506C25.7085 9.2506 23.2358 7.70115 21.0237 7.76049C18.8116 7.81983 12.1752 8.28137 11.0722 9.59345C9.96913 10.9121 8.74489 10.9847 8.42973 15.9165C8.42973 15.9165 9.58125 16.7077 10.1085 17.466C10.1085 17.466 9.16913 16.7011 8.47822 16.4176L7.78125 22.2264V22.233Z" fill="#1E2328"/>
<path d="M7.72287 38.9736C7.72287 38.9736 8.31681 47.3011 10.1047 48.5604C11.8926 49.8198 12.2986 50.9143 16.5047 51.1319C20.7047 51.3495 25.5895 50.4528 25.9411 50.5451C26.2926 50.6374 33.4926 51.5143 34.2441 51.5736C35.0017 51.6264 45.4198 51.3824 47.3835 50.5451C49.3471 49.7077 51.5289 48.1253 51.9047 44.2352C51.9047 44.2352 52.1653 48.7121 49.6986 50.4725C47.232 52.2264 37.4683 52.1934 37.4683 52.1934C37.4683 52.1934 38.8198 52.7736 41.6441 54.4088C41.6441 54.4088 38.6259 52.7077 34.1956 52.1934C29.7653 51.6791 21.8138 52.1604 19.4441 52.1934C17.0804 52.2264 10.1835 52.1736 9.0259 49.1077C7.86832 46.0418 7.57135 43.8462 7.57135 43.8462L6.30469 44.2352C6.30469 44.2352 7.52893 43.9055 7.57135 41.822C7.61378 39.7385 7.72287 38.9736 7.72287 38.9736Z" fill="#646882"/>
</g>
<g clip-path="url(#clip1_79653_30252)">
<path d="M-27.1473 1.12138C-3.17686 -0.375328 126.336 -0.210493 148.283 1.22028C170.711 2.67742 177.481 4.51039 178.444 11.9346C179.408 19.3587 178.926 44.2357 178.444 48.9236C177.963 53.6115 160.352 58.9521 140.839 59.473C121.325 59.9939 -16.21 59.862 -27.1473 58.9521C-38.0846 58.0423 -57.5982 54.917 -59.0437 47.3609C-60.465 39.8049 -60.9469 14.928 -57.1405 11.0247C-53.3341 7.12138 -54.2737 2.82247 -27.1714 1.12797L-27.1473 1.12138Z" fill="url(#paint3_linear_79653_30252)"/>
<path d="M79.7296 55.9121C24.1519 55.9121 -16.7786 55.556 -23.3795 55.2264C-28.5591 54.7714 -43.8568 52.9516 -44.9409 47.1626C-46.6032 38.334 -46.4104 15.0329 -43.4954 12.0198C-42.8691 11.367 -42.3632 10.7406 -41.8813 10.134C-39.4 6.9758 -38.4604 5.79558 -24.0059 4.89229C-11.0209 4.0813 43.3764 3.09229 88.3782 3.09229C133.38 3.09229 142.173 4.06811 142.51 4.10767C160.82 6.44174 163.638 6.79778 164.313 12.0659C165.228 19.2791 164.795 44.0769 164.313 48.811C164.048 51.5011 151.954 55.2857 139.475 55.622C132.97 55.7934 109.506 55.9055 79.7537 55.9055L79.7296 55.9121Z" fill="url(#paint4_linear_79653_30252)"/>
<mask id="mask1_79653_30252" style="mask-type:luminance" maskUnits="userSpaceOnUse" x="-61" y="0" width="240" height="60">
<path d="M-27.1545 1.12102C-3.18402 -0.375686 125.678 -0.210851 147.721 1.10124C168.801 2.35398 177.474 4.51003 178.413 11.9342C179.377 19.3584 178.895 44.2353 178.413 48.9232C177.931 53.6111 160.321 58.9518 140.807 59.4727C121.294 59.9935 -16.2413 59.8617 -27.1786 58.9518C-38.1158 58.0419 -57.6295 54.9166 -59.0749 47.3606C-60.4963 39.8045 -60.9781 14.9276 -57.1717 11.0243C-53.3654 7.12102 -54.3049 2.82212 -27.2027 1.12761L-27.1545 1.12102Z" fill="white"/>
</mask>
<g mask="url(#mask1_79653_30252)">
<path opacity="0.5" d="M30.2412 48.376C64.6912 50.0243 104.417 51.8309 134.458 60.2573C138.144 61.2925 143.974 62.743 139.253 64.2199C134.41 65.7364 127.882 64.3848 123.232 63.5936C79.483 56.1826 32.4576 53.3144 -18.2056 56.1562C-33.7683 57.0265 -48.6565 58.8133 -63.882 60.1584C-66.9415 60.4287 -70.6756 61.1144 -72.9883 60.0397C-75.277 58.9716 -71.6152 58.2661 -68.9652 57.8111C-40.2006 52.8595 -10.5929 48.4881 30.2653 48.376H30.2412Z" fill="#29303F"/>
<path opacity="0.15" d="M204.088 21.8112C203.101 22.2991 202.474 22.965 200.908 23.2551C199.824 23.4595 196.717 23.3276 195.777 23.0375C176.914 17.2617 150.053 15.6793 125.359 13.0551C95.1735 9.85071 70.3116 4.45731 44.9439 -0.771265C42.1735 -1.34489 38.4153 -2.12951 40.5835 -3.25039C42.8962 -4.45698 47.3289 -3.85698 50.3885 -3.47456C93.8244 1.95181 137.477 7.2595 180.383 12.9958C192.453 14.6112 200.403 17.8617 204.113 21.798L204.088 21.8112Z" fill="#29303F"/>
<path opacity="0.25" d="M88.3461 13.5761C87.9606 13.5101 87.5511 13.4508 87.1416 13.4046C55.5825 8.90133 25.9266 3.28375 -9.55935 1.08155C-10.6434 0.883747 -11.848 0.784846 -12.908 0.831C-29.5548 -0.408561 -46.6353 -0.408561 -63.7398 -0.230539C-65.2334 -0.217352 -66.6789 0.237593 -68.1484 0.488142C-66.438 0.659571 -64.7757 0.936494 -63.0171 0.989241C-46.3221 1.49034 -29.603 1.95188 -12.908 2.4266C19.3016 5.16287 47.3916 10.1409 76.3488 14.6442C78.3484 15.0464 80.4684 15.409 82.3234 15.8574C91.6225 18.0991 107.715 20.1958 104.945 23.4266C102.198 26.6574 84.612 26.4398 72.5666 26.987C34.3102 28.7277 -17.1239 31.8398 -60.1021 35.0112C-63.258 35.242 -67.1125 40.6815 -66.7512 40.8596C-64.4384 41.9804 -39.143 38.4728 -35.4089 38.1299C3.71474 34.5299 43.537 32.4134 83.5279 29.9805C100.03 28.9783 122.507 28.9123 123.928 22.9057C125.277 17.1563 104.415 15.5343 88.2738 13.5761H88.3461Z" fill="#29303F"/>
<path opacity="0.25" d="M195.397 40.1477C182.316 35.5191 163.814 34.4312 143.963 34.8664C125.486 35.2686 107.176 36.3763 88.6987 36.6598C45.0942 37.3389 1.48964 37.7939 -39.8263 42.2906C-48.7881 42.9367 -57.774 43.5499 -66.6635 44.2554C-68.5908 44.4071 -70.1808 44.8884 -71.9395 45.218C-70.0363 45.4027 -67.9645 45.8114 -66.2299 45.7323C-56.6658 45.2972 -47.1258 44.7829 -37.5858 44.2818C-36.0922 44.3082 -34.5022 44.3543 -33.2013 44.051C-29.0576 43.8268 -24.9381 43.5961 -20.7945 43.3917C47.5515 40.0158 115.319 41.3213 182.822 45.2049C187.881 45.495 193.374 47.262 198.023 45.5016C202.721 43.7147 199.878 41.7433 195.421 40.1543L195.397 40.1477Z" fill="#29303F"/>
</g>
<path d="M10.6836 55.7017L49.0122 55.6621L107.288 55.8731L54.6977 56.961L10.6836 55.7017Z" fill="#1E2328"/>
<path d="M10.623 3.93659L48.9276 3.97615L107.758 3.09263L54.6371 2.67725L10.623 3.93659Z" fill="#99ABCF"/>
<path d="M31.6152 41.6838C31.6152 41.6838 76.0148 40.4113 105.839 41.0509C135.664 41.6904 164.958 44.2421 164.958 44.2421C164.958 44.2421 134.194 43.0223 104.683 42.5607C75.1716 42.0992 31.6393 41.6904 31.6393 41.6904L31.6152 41.6838Z" fill="#646882"/>
<path opacity="0.48" d="M125.694 7.71432C64.0209 5.96047 -4.78271 8.27476 -4.78271 8.27476C-14.3709 8.27476 -24.2 10.7209 -25.525 13.2857C-33.0413 28.0022 -27.3318 45.8572 -27.3318 45.8572C-27.3318 48.4418 -13.4795 51.4484 -3.86725 51.4484C-3.86725 51.4484 71.7782 53.2286 127.597 51.2638C137.113 50.9275 144.485 48.8572 145.834 46.2923C154.988 28.7868 145.834 13.7011 145.834 13.7011C145.376 10.3583 135.258 7.97805 125.718 7.70772L125.694 7.71432Z" fill="url(#paint5_linear_79653_30252)"/>
<path d="M-28.5703 22.233C-28.5703 22.233 -28.3053 13.4902 -25.4626 11.6902C-22.6199 9.89016 -19.7771 8.07038 -5.03349 7.82642C10.6256 7.56269 36.9088 6.42203 63.6979 6.30994C90.487 6.19785 128.31 6.90994 134.573 7.93851C140.861 8.96708 147.679 9.75169 148.04 18.811C148.04 18.811 145.462 9.81104 133.321 8.90115C121.179 7.99126 87.9092 7.41763 87.9092 7.41763C87.9092 7.41763 103.159 10.5561 107.784 10.8792C107.784 10.8792 85.6206 7.41763 76.6106 7.47697C67.6006 7.53631 34.9574 7.81983 34.9574 7.81983L42.6906 9.2506C42.6906 9.2506 32.8615 7.70115 24.0683 7.76049C15.2751 7.81983 -11.1044 8.28137 -15.4889 9.59345C-19.8735 10.9121 -24.7399 10.9847 -25.9926 15.9165C-25.9926 15.9165 -21.4153 16.7077 -19.3194 17.466C-19.3194 17.466 -23.0535 16.7011 -25.7999 16.4176L-28.5703 22.2264V22.233Z" fill="#1E2328"/>
<path d="M-28.8022 38.9736C-28.8022 38.9736 -26.4413 47.3011 -19.3345 48.5604C-12.2276 49.8198 -10.6135 50.9143 6.10555 51.1319C22.8005 51.3495 42.2178 50.4528 43.6151 50.5451C45.0124 50.6374 73.6324 51.5143 76.6196 51.5736C79.631 51.6264 121.043 51.3824 128.849 50.5451C136.654 49.7077 145.327 48.1253 146.821 44.2352C146.821 44.2352 147.856 48.7121 138.051 50.4725C128.246 52.2264 89.436 52.1934 89.436 52.1934C89.436 52.1934 94.8083 52.7736 106.035 54.4088C106.035 54.4088 94.0374 52.7077 76.4269 52.1934C58.8165 51.6791 27.2092 52.1604 17.7896 52.1934C8.39419 52.2264 -19.0213 52.1736 -23.6226 49.1077C-28.224 46.0418 -29.4045 43.8462 -29.4045 43.8462L-34.4395 44.2352C-34.4395 44.2352 -29.5731 43.9055 -29.4045 41.822C-29.2358 39.7385 -28.8022 38.9736 -28.8022 38.9736Z" fill="#646882"/>
</g>
<g clip-path="url(#clip2_79653_30252)">
<path d="M67.639 1.12138C73.6693 -0.375328 106.251 -0.210493 111.772 1.22028C117.415 2.67742 119.118 4.51039 119.36 11.9346C119.603 19.3587 119.481 44.2357 119.36 48.9236C119.239 53.6115 114.809 58.9521 109.9 59.473C104.991 59.9939 70.3905 59.862 67.639 58.9521C64.8875 58.0423 59.9784 54.917 59.6147 47.3609C59.2572 39.8049 59.136 14.928 60.0935 11.0247C61.0511 7.12138 60.8147 2.82247 67.6329 1.12797L67.639 1.12138Z" fill="url(#paint6_linear_79653_30252)"/>
<path d="M94.5261 55.9121C80.5442 55.9121 70.2473 55.556 68.5867 55.2264C67.2836 54.7714 63.4352 52.9516 63.1624 47.1626C62.7442 38.334 62.7927 15.0329 63.5261 12.0198C63.6836 11.367 63.8109 10.7406 63.9321 10.134C64.5564 6.9758 64.7927 5.79558 68.4291 4.89229C71.6958 4.0813 85.3806 3.09229 96.7018 3.09229C108.023 3.09229 110.235 4.06811 110.32 4.10767C114.926 6.44174 115.635 6.79778 115.805 12.0659C116.035 19.2791 115.926 44.0769 115.805 48.811C115.738 51.5011 112.696 55.2857 109.556 55.622C107.92 55.7934 102.017 55.9055 94.5321 55.9055L94.5261 55.9121Z" fill="url(#paint7_linear_79653_30252)"/>
<mask id="mask2_79653_30252" style="mask-type:luminance" maskUnits="userSpaceOnUse" x="59" y="0" width="61" height="60">
<path d="M67.6372 1.12102C73.6675 -0.375686 106.086 -0.210851 111.631 1.10124C116.934 2.35398 119.116 4.51003 119.352 11.9342C119.595 19.3584 119.474 44.2353 119.352 48.9232C119.231 53.6111 114.801 58.9518 109.892 59.4727C104.983 59.9935 70.3827 59.8617 67.6312 58.9518C64.8797 58.0419 59.9706 54.9166 59.6069 47.3606C59.2494 39.8045 59.1281 14.9276 60.0857 11.0243C61.0433 7.12102 60.8069 2.82212 67.6251 1.12761L67.6372 1.12102Z" fill="white"/>
</mask>
<g mask="url(#mask2_79653_30252)">
<path opacity="0.5" d="M82.0768 48.376C90.7434 50.0243 100.737 51.8309 108.295 60.2573C109.222 61.2925 110.689 62.743 109.501 64.2199C108.283 65.7364 106.64 64.3848 105.471 63.5936C94.4646 56.1826 82.6343 53.3144 69.8889 56.1562C65.9737 57.0265 62.2283 58.8133 58.398 60.1584C57.6283 60.4287 56.6889 61.1144 56.1071 60.0397C55.5313 58.9716 56.4525 58.2661 57.1192 57.8111C64.3556 52.8595 71.804 48.4881 82.0828 48.376H82.0768Z" fill="#29303F"/>
<path opacity="0.15" d="M125.811 21.8112C125.563 22.2991 125.405 22.965 125.011 23.2551C124.739 23.4595 123.957 23.3276 123.721 23.0375C118.975 17.2617 112.218 15.6793 106.005 13.0551C98.4115 9.85071 92.1569 4.45731 85.7751 -0.771265C85.0781 -1.34489 84.1327 -2.12951 84.6781 -3.25039C85.26 -4.45698 86.3751 -3.85698 87.1448 -3.47456C98.0721 1.95181 109.054 7.2595 119.848 12.9958C122.884 14.6112 124.884 17.8617 125.818 21.798L125.811 21.8112Z" fill="#29303F"/>
<path opacity="0.25" d="M96.6939 13.5761C96.5969 13.5101 96.4939 13.4508 96.3909 13.4046C88.4515 8.90133 80.9909 3.28375 72.0636 1.08155C71.7909 0.883747 71.4879 0.784846 71.2212 0.831C67.0333 -0.408561 62.7363 -0.408561 58.4333 -0.230539C58.0576 -0.217352 57.6939 0.237593 57.3242 0.488142C57.7545 0.659571 58.1727 0.936494 58.6151 0.989241C62.8151 1.49034 67.0212 1.95188 71.2212 2.4266C79.3242 5.16287 86.3909 10.1409 93.6757 14.6442C94.1788 15.0464 94.7121 15.409 95.1788 15.8574C97.5182 18.0991 101.567 20.1958 100.87 23.4266C100.179 26.6574 95.7545 26.4398 92.7242 26.987C83.1 28.7277 70.1606 31.8398 59.3485 35.0112C58.5545 35.242 57.5848 40.6815 57.6757 40.8596C58.2576 41.9804 64.6212 38.4728 65.5606 38.1299C75.403 34.5299 85.4212 32.4134 95.4818 29.9804C99.6333 28.9783 105.288 28.9123 105.645 22.9057C105.985 17.1563 100.736 15.5343 96.6757 13.5761H96.6939Z" fill="#29303F"/>
<path opacity="0.25" d="M123.626 40.1477C120.335 35.5191 115.68 34.4312 110.686 34.8664C106.038 35.2686 101.432 36.3763 96.7832 36.6598C85.8135 37.3389 74.8438 37.7939 64.4499 42.2906C62.1953 42.9367 59.9347 43.5499 57.6984 44.2554C57.2135 44.4071 56.8135 44.8884 56.3711 45.218C56.8499 45.4027 57.3711 45.8114 57.8075 45.7323C60.2135 45.2972 62.6135 44.7829 65.0135 44.2818C65.3893 44.3082 65.7893 44.3543 66.1165 44.051C67.159 43.8268 68.1953 43.5961 69.2378 43.3917C86.4317 40.0158 103.48 41.3213 120.462 45.2049C121.735 45.495 123.117 47.262 124.286 45.5016C125.468 43.7147 124.753 41.7433 123.632 40.1543L123.626 40.1477Z" fill="#29303F"/>
</g>
<path d="M77.1562 55.7017L86.7987 55.6621L101.459 55.8731L88.229 56.961L77.1562 55.7017Z" fill="#1E2328"/>
<path d="M115.861 45.0659C115.861 45.0659 115.097 50.7494 113.127 53.1692C111.746 54.8703 107.988 55.6352 103.527 55.8659C103.527 55.8659 111.964 56.0373 114.261 54.0791C116.564 52.1209 115.861 45.0659 115.861 45.0659Z" fill="#1E2328"/>
<path d="M77.1406 3.93659L86.777 3.97615L101.577 3.09263L88.2134 2.67725L77.1406 3.93659Z" fill="#99ABCF"/>
<path d="M115.839 14.5714C115.839 14.5714 115.814 9.01972 113.839 6.59994C112.457 4.89884 108.045 3.48126 103.578 3.25049C103.578 3.25049 111.311 3.3362 114.233 5.55818C116.627 7.38455 115.833 14.5714 115.833 14.5714H115.839Z" fill="#99ABCF"/>
<path d="M119.442 36.3363L115.915 33.7319L111 34.8396L115.915 35.8352L119.442 36.3363Z" fill="#1E2328"/>
<path d="M82.4219 41.6838C82.4219 41.6838 93.5916 40.4113 101.095 41.0509C108.598 41.6904 115.967 44.2421 115.967 44.2421C115.967 44.2421 108.228 43.0223 100.804 42.5607C93.3795 42.0992 82.4279 41.6904 82.4279 41.6904L82.4219 41.6838Z" fill="#646882"/>
<path opacity="0.48" d="M106.09 7.71432C90.5745 5.96047 73.2654 8.27476 73.2654 8.27476C70.8533 8.27476 68.3806 10.7209 68.0472 13.2857C66.1563 28.0022 67.5927 45.8572 67.5927 45.8572C67.5927 48.4418 71.0775 51.4484 73.4957 51.4484C73.4957 51.4484 92.526 53.2286 106.568 51.2638C108.962 50.9275 110.817 48.8572 111.156 46.2923C113.459 28.7868 111.156 13.7011 111.156 13.7011C111.041 10.3583 108.496 7.97805 106.096 7.70772L106.09 7.71432Z" fill="url(#paint8_linear_79653_30252)"/>
<path d="M67.2812 22.233C67.2812 22.233 67.3479 13.4902 68.0631 11.6902C68.7782 9.89016 69.4934 8.07038 73.2025 7.82642C77.1419 7.56269 83.754 6.42203 90.4934 6.30994C97.2328 6.19785 106.748 6.90994 108.324 7.93851C109.905 8.96708 111.621 9.75169 111.712 18.811C111.712 18.811 111.063 9.81104 108.009 8.90115C104.954 7.99126 96.5843 7.41763 96.5843 7.41763C96.5843 7.41763 100.421 10.5561 101.584 10.8792C101.584 10.8792 96.0085 7.41763 93.7419 7.47697C91.4752 7.53631 83.2631 7.81983 83.2631 7.81983L85.2085 9.2506C85.2085 9.2506 82.7358 7.70115 80.5237 7.76049C78.3116 7.81983 71.6752 8.28137 70.5722 9.59345C69.4691 10.9121 68.2449 10.9847 67.9297 15.9165C67.9297 15.9165 69.0813 16.7077 69.6085 17.466C69.6085 17.466 68.6691 16.7011 67.9782 16.4176L67.2812 22.2264V22.233Z" fill="#1E2328"/>
<path d="M67.2229 38.9736C67.2229 38.9736 67.8168 47.3011 69.6047 48.5604C71.3926 49.8198 71.7986 50.9143 76.0047 51.1319C80.2047 51.3495 85.0895 50.4528 85.4411 50.5451C85.7926 50.6374 92.9926 51.5143 93.7441 51.5736C94.5017 51.6264 104.92 51.3824 106.883 50.5451C108.847 49.7077 111.029 48.1253 111.405 44.2352C111.405 44.2352 111.665 48.7121 109.199 50.4725C106.732 52.2264 96.9683 52.1934 96.9683 52.1934C96.9683 52.1934 98.3198 52.7736 101.144 54.4088C101.144 54.4088 98.1259 52.7077 93.6956 52.1934C89.2653 51.6791 81.3138 52.1604 78.9441 52.1934C76.5804 52.2264 69.6835 52.1736 68.5259 49.1077C67.3683 46.0418 67.0714 43.8462 67.0714 43.8462L65.8047 44.2352C65.8047 44.2352 67.0289 43.9055 67.0714 41.822C67.1138 39.7385 67.2229 38.9736 67.2229 38.9736Z" fill="#646882"/>
</g>
<defs>
<linearGradient id="paint0_linear_79653_30252" x1="29.9208" y1="59.7763" x2="29.9208" y2="0.0730213" gradientUnits="userSpaceOnUse">
<stop stop-color="#28313F"/>
<stop offset="0.22" stop-color="#2A3342"/>
<stop offset="0.39" stop-color="#313B4B"/>
<stop offset="0.55" stop-color="#3E495C"/>
<stop offset="0.7" stop-color="#4F5C73"/>
<stop offset="0.83" stop-color="#667491"/>
<stop offset="0.96" stop-color="#8192B5"/>
<stop offset="1" stop-color="#8A9CC1"/>
</linearGradient>
<linearGradient id="paint1_linear_79653_30252" x1="29.917" y1="55.9121" x2="29.917" y2="3.09229" gradientUnits="userSpaceOnUse">
<stop stop-color="#544F74"/>
<stop offset="0.31" stop-color="#58577C"/>
<stop offset="0.82" stop-color="#647092"/>
<stop offset="1" stop-color="#6A7A9C"/>
</linearGradient>
<linearGradient id="paint2_linear_79653_30252" x1="30.123" y1="52.1934" x2="30.123" y2="7.06157" gradientUnits="userSpaceOnUse">
<stop stop-color="#2B5747"/>
<stop offset="0.07" stop-color="#295144"/>
<stop offset="0.43" stop-color="#243534"/>
<stop offset="0.75" stop-color="#242424"/>
<stop offset="1" stop-color="#202020"/>
</linearGradient>
<linearGradient id="paint3_linear_79653_30252" x1="59.4354" y1="59.7763" x2="59.4354" y2="0.0730213" gradientUnits="userSpaceOnUse">
<stop stop-color="#28313F"/>
<stop offset="0.22" stop-color="#2A3342"/>
<stop offset="0.39" stop-color="#313B4B"/>
<stop offset="0.55" stop-color="#3E495C"/>
<stop offset="0.7" stop-color="#4F5C73"/>
<stop offset="0.83" stop-color="#667491"/>
<stop offset="0.96" stop-color="#8192B5"/>
<stop offset="1" stop-color="#8A9CC1"/>
</linearGradient>
<linearGradient id="paint4_linear_79653_30252" x1="59.4209" y1="55.9121" x2="59.4209" y2="3.09229" gradientUnits="userSpaceOnUse">
<stop stop-color="#544F74"/>
<stop offset="0.31" stop-color="#58577C"/>
<stop offset="0.82" stop-color="#647092"/>
<stop offset="1" stop-color="#6A7A9C"/>
</linearGradient>
<linearGradient id="paint5_linear_79653_30252" x1="60.2387" y1="52.1934" x2="60.2387" y2="7.06157" gradientUnits="userSpaceOnUse">
<stop stop-color="#2B5747"/>
<stop offset="0.07" stop-color="#295144"/>
<stop offset="0.43" stop-color="#243534"/>
<stop offset="0.75" stop-color="#242424"/>
<stop offset="1" stop-color="#202020"/>
</linearGradient>
<linearGradient id="paint6_linear_79653_30252" x1="89.4208" y1="59.7763" x2="89.4208" y2="0.0730213" gradientUnits="userSpaceOnUse">
<stop stop-color="#28313F"/>
<stop offset="0.22" stop-color="#2A3342"/>
<stop offset="0.39" stop-color="#313B4B"/>
<stop offset="0.55" stop-color="#3E495C"/>
<stop offset="0.7" stop-color="#4F5C73"/>
<stop offset="0.83" stop-color="#667491"/>
<stop offset="0.96" stop-color="#8192B5"/>
<stop offset="1" stop-color="#8A9CC1"/>
</linearGradient>
<linearGradient id="paint7_linear_79653_30252" x1="89.417" y1="55.9121" x2="89.417" y2="3.09229" gradientUnits="userSpaceOnUse">
<stop stop-color="#544F74"/>
<stop offset="0.31" stop-color="#58577C"/>
<stop offset="0.82" stop-color="#647092"/>
<stop offset="1" stop-color="#6A7A9C"/>
</linearGradient>
<linearGradient id="paint8_linear_79653_30252" x1="89.623" y1="52.1934" x2="89.623" y2="7.06157" gradientUnits="userSpaceOnUse">
<stop stop-color="#2B5747"/>
<stop offset="0.07" stop-color="#295144"/>
<stop offset="0.43" stop-color="#243534"/>
<stop offset="0.75" stop-color="#242424"/>
<stop offset="1" stop-color="#202020"/>
</linearGradient>
<clipPath id="clip0_79653_30252">
<rect width="20" height="60" fill="white"/>
</clipPath>
<clipPath id="clip1_79653_30252">
<rect width="79.5" height="60" fill="white" transform="translate(20)"/>
</clipPath>
<clipPath id="clip2_79653_30252">
<rect width="20" height="60" fill="white" transform="translate(99.5)"/>
</clipPath>
</defs>
</svg>
