<svg width="137" height="60" viewBox="0 0 137 60" fill="none" xmlns="http://www.w3.org/2000/svg">
<g clip-path="url(#clip0_79653_363)">
<path d="M8.13899 1.12138C14.1693 -0.375328 46.7511 -0.210493 52.2723 1.22028C57.9147 2.67742 59.6178 4.51039 59.8602 11.9346C60.1026 19.3587 59.9814 44.2357 59.8602 48.9236C59.739 53.6115 55.3087 58.9521 50.3996 59.473C45.4905 59.9939 10.8905 59.862 8.13899 58.9521C5.38748 58.0423 0.478385 54.917 0.114748 47.3609C-0.242827 39.8049 -0.36404 14.928 0.593536 11.0247C1.55111 7.12138 1.31475 2.82247 8.13293 1.12797L8.13899 1.12138Z" fill="url(#paint0_linear_79653_363)"/>
<path d="M35.0261 55.9121C21.0442 55.9121 10.7473 55.556 9.08667 55.2264C7.78364 54.7714 3.93515 52.9516 3.66243 47.1626C3.24424 38.334 3.29273 15.0329 4.02606 12.0198C4.18364 11.367 4.31091 10.7406 4.43212 10.134C5.05636 6.9758 5.29273 5.79558 8.92909 4.89229C12.1958 4.0813 25.8806 3.09229 37.2018 3.09229C48.523 3.09229 50.7352 4.06811 50.82 4.10767C55.4261 6.44174 56.1352 6.79778 56.3049 12.0659C56.5352 19.2791 56.4261 44.0769 56.3049 48.811C56.2382 51.5011 53.1958 55.2857 50.0564 55.622C48.42 55.7934 42.517 55.9055 35.0321 55.9055L35.0261 55.9121Z" fill="url(#paint1_linear_79653_363)"/>
<mask id="mask0_79653_363" style="mask-type:luminance" maskUnits="userSpaceOnUse" x="-1" y="0" width="61" height="60">
<path d="M8.13724 1.12102C14.1675 -0.375686 46.5857 -0.210851 52.1312 1.10124C57.4342 2.35398 59.616 4.51003 59.8524 11.9342C60.0948 19.3584 59.9736 44.2353 59.8524 48.9232C59.7312 53.6111 55.3009 58.9518 50.3918 59.4727C45.4827 59.9935 10.8827 59.8617 8.13118 58.9518C5.37966 58.0419 0.470572 54.9166 0.106936 47.3606C-0.25064 39.8045 -0.371852 14.9276 0.585724 11.0243C1.5433 7.12102 1.30694 2.82212 8.12512 1.12761L8.13724 1.12102Z" fill="white"/>
</mask>
<g mask="url(#mask0_79653_363)">
<path opacity="0.5" d="M22.5768 48.376C31.2434 50.0243 41.2374 51.8309 48.795 60.2573C49.7222 61.2925 51.1889 62.743 50.001 64.2199C48.7828 65.7364 47.1404 64.3848 45.9707 63.5936C34.9646 56.1826 23.1343 53.3144 10.3889 56.1562C6.47374 57.0265 2.72829 58.8133 -1.10202 60.1584C-1.87171 60.4287 -2.81111 61.1144 -3.39293 60.0397C-3.96868 58.9716 -3.04747 58.2661 -2.38081 57.8111C4.85556 52.8595 12.304 48.4881 22.5828 48.376H22.5768Z" fill="#29303F"/>
<path opacity="0.25" d="M12.8427 13.5889C8.91539 11.723 4.84872 10.1933 0.806297 8.63724C0.175994 8.39329 -0.648248 8.75592 -1.38764 8.83504C-0.86643 9.4746 -0.442187 10.2724 0.194176 10.7274C2.36387 12.2966 4.49115 14.0306 6.84266 15.1977C12.2851 17.901 12.3154 20.8021 7.48509 24.2372C3.84872 26.0372 0.206297 27.8241 -3.41795 29.657C-3.75734 29.8285 -3.96946 30.29 -4.24219 30.6197C-3.95128 30.7054 -3.61188 30.9493 -3.38764 30.857C0.569934 29.2153 4.51539 27.5405 8.46084 25.8658C8.69721 25.7933 8.93357 25.6812 9.16387 25.5691C12.0427 24.2109 15.0002 22.912 15.479 18.9032C15.7699 16.4834 14.7457 14.4922 12.8427 13.5889Z" fill="#29303F"/>
<path opacity="0.25" d="M37.1939 13.5761C37.0969 13.5101 36.9939 13.4508 36.8909 13.4046C28.9515 8.90133 21.4909 3.28375 12.5636 1.08155C12.2909 0.883747 11.9879 0.784846 11.7212 0.831C7.53331 -0.408561 3.23634 -0.408561 -1.06669 -0.230539C-1.44245 -0.217352 -1.80608 0.237593 -2.17578 0.488142C-1.74548 0.659571 -1.3273 0.936494 -0.884872 0.989241C3.31513 1.49034 7.52119 1.95188 11.7212 2.4266C19.8242 5.16287 26.8909 10.1409 34.1757 14.6442C34.6788 15.0464 35.2121 15.409 35.6788 15.8574C38.0182 18.0991 42.0666 20.1958 41.3697 23.4266C40.6788 26.6574 36.2545 26.4398 33.2242 26.987C23.6 28.7277 10.6606 31.8398 -0.151539 35.0112C-0.945478 35.242 -1.91518 40.6815 -1.82427 40.8596C-1.24245 41.9804 5.12119 38.4728 6.06058 38.1299C15.903 34.5299 25.9212 32.4134 35.9818 29.9804C40.1333 28.9783 45.7878 28.9123 46.1454 22.9057C46.4848 17.1563 41.2363 15.5343 37.1757 13.5761H37.1939Z" fill="#29303F"/>
<path opacity="0.25" d="M64.1256 40.1477C60.8347 35.5191 56.1802 34.4312 51.1862 34.8664C46.5378 35.2686 41.9317 36.3763 37.2832 36.6598C26.3135 37.3389 15.3438 37.7939 4.94988 42.2906C2.69534 42.9367 0.43473 43.5499 -1.80163 44.2554C-2.28648 44.4071 -2.68648 44.8884 -3.12891 45.218C-2.65012 45.4027 -2.12891 45.8114 -1.69254 45.7323C0.713518 45.2972 3.11352 44.7829 5.51352 44.2818C5.88928 44.3082 6.28928 44.3543 6.61655 44.051C7.65897 43.8268 8.69534 43.5961 9.73776 43.3917C26.9317 40.0158 43.9802 41.3213 60.962 45.2049C62.2347 45.495 63.6166 47.262 64.7862 45.5016C65.9681 43.7147 65.2529 41.7433 64.1317 40.1543L64.1256 40.1477Z" fill="#29303F"/>
</g>
<path d="M17.6562 55.7017L27.2987 55.6621L41.9593 55.8731L28.729 56.961L17.6562 55.7017Z" fill="#1E2328"/>
<path d="M-0.134564 35.0042L3.45331 34.457L12.8169 31.49L2.99271 33.0724L-0.140625 34.6878L-0.134564 35.0042Z" fill="#1E2328"/>
<path d="M12.8187 31.4902L3.45507 34.4573L-0.132812 35.0045L3.75204 35.3012L12.9823 31.4507L12.8187 31.4902Z" fill="#99ABCF"/>
<path d="M3.5882 45.2173C3.5882 45.2173 3.52153 55.6546 15.8609 55.6546C15.8609 55.6546 8.33366 56.5645 5.87911 54.6063C3.42457 52.6481 3.5882 45.2173 3.5882 45.2173Z" fill="#1E2328"/>
<path d="M17.6406 3.93659L27.277 3.97615L42.077 3.09263L28.7134 2.67725L17.6406 3.93659Z" fill="#99ABCF"/>
<path d="M3.70739 15.264C3.70739 15.264 4.47708 8.14973 6.69526 6.41566C8.08314 5.33435 12.0468 4.20687 16.5013 3.94973C16.5013 3.94973 8.53163 3.74533 6.07708 5.70358C3.62254 7.66182 3.70739 15.2574 3.70739 15.2574V15.264Z" fill="#99ABCF"/>
<path d="M12.7656 25.6813L16.7777 24.0527L19.1959 25.6813H12.7656Z" fill="#1E2328"/>
<path d="M16.7777 26.7427L12.7656 25.6811H19.1959L16.7777 26.7427Z" fill="#99ABCF"/>
<path opacity="0.48" d="M46.5896 7.71432C31.0745 5.96047 13.7654 8.27476 13.7654 8.27476C11.3533 8.27476 8.88056 10.7209 8.54723 13.2857C6.65632 28.0022 8.09268 45.8572 8.09268 45.8572C8.09268 48.4418 11.5775 51.4484 13.9957 51.4484C13.9957 51.4484 33.026 53.2286 47.0684 51.2638C49.4624 50.9275 51.3169 48.8572 51.6563 46.2923C53.9593 28.7868 51.6563 13.7011 51.6563 13.7011C51.5412 10.3583 48.9957 7.97805 46.5957 7.70772L46.5896 7.71432Z" fill="url(#paint2_linear_79653_363)"/>
<path d="M7.78125 22.233C7.78125 22.233 7.84792 13.4902 8.56307 11.6902C9.27822 9.89016 9.99337 8.07038 13.7025 7.82642C17.6419 7.56269 24.254 6.42203 30.9934 6.30994C37.7328 6.19785 47.2479 6.90994 48.8237 7.93851C50.4055 8.96708 52.1206 9.75169 52.2116 18.811C52.2116 18.811 51.5631 9.81104 48.5085 8.90115C45.454 7.99126 37.0843 7.41763 37.0843 7.41763C37.0843 7.41763 40.9206 10.5561 42.0843 10.8792C42.0843 10.8792 36.5085 7.41763 34.2419 7.47697C31.9752 7.53631 23.7631 7.81983 23.7631 7.81983L25.7085 9.2506C25.7085 9.2506 23.2358 7.70115 21.0237 7.76049C18.8116 7.81983 12.1752 8.28137 11.0722 9.59345C9.96913 10.9121 8.74489 10.9847 8.42973 15.9165C8.42973 15.9165 9.58125 16.7077 10.1085 17.466C10.1085 17.466 9.16913 16.7011 8.47822 16.4176L7.78125 22.2264V22.233Z" fill="#1E2328"/>
<path d="M7.72287 38.9736C7.72287 38.9736 8.31681 47.3011 10.1047 48.5604C11.8926 49.8198 12.2986 50.9143 16.5047 51.1319C20.7047 51.3495 25.5895 50.4528 25.9411 50.5451C26.2926 50.6374 33.4926 51.5143 34.2441 51.5736C35.0017 51.6264 45.4198 51.3824 47.3835 50.5451C49.3471 49.7077 51.5289 48.1253 51.9047 44.2352C51.9047 44.2352 52.1653 48.7121 49.6986 50.4725C47.232 52.2264 37.4683 52.1934 37.4683 52.1934C37.4683 52.1934 38.8198 52.7736 41.6441 54.4088C41.6441 54.4088 38.6259 52.7077 34.1956 52.1934C29.7653 51.6791 21.8138 52.1604 19.4441 52.1934C17.0804 52.2264 10.1835 52.1736 9.0259 49.1077C7.86832 46.0418 7.57135 43.8462 7.57135 43.8462L6.30469 44.2352C6.30469 44.2352 7.52893 43.9055 7.57135 41.822C7.61378 39.7385 7.72287 38.9736 7.72287 38.9736Z" fill="#646882"/>
</g>
<g clip-path="url(#clip1_79653_363)">
<path d="M-37.5247 1.12138C-8.27776 -0.375328 149.744 -0.210493 176.522 1.22028C203.888 2.67742 212.147 4.51039 213.323 11.9346C214.499 19.3587 213.911 44.2357 213.323 48.9236C212.735 53.6115 191.248 58.9521 167.439 59.473C143.63 59.9939 -24.1799 59.862 -37.5247 58.9521C-50.8696 58.0423 -74.6787 54.917 -76.4423 47.3609C-78.1765 39.8049 -78.7644 14.928 -74.1202 11.0247C-69.4759 7.12138 -70.6223 2.82247 -37.5541 1.12797L-37.5247 1.12138Z" fill="url(#paint3_linear_79653_363)"/>
<path d="M92.8784 55.9121C25.0666 55.9121 -24.8738 55.556 -32.9277 55.2264C-39.2474 54.7714 -57.9126 52.9516 -59.2353 47.1626C-61.2635 38.334 -61.0283 15.0329 -57.4716 12.0198C-56.7074 11.367 -56.0901 10.7406 -55.5023 10.134C-52.4747 6.9758 -51.3283 5.79558 -33.6919 4.89229C-17.8486 4.0813 48.5229 3.09229 103.431 3.09229C158.339 3.09229 169.067 4.06811 169.479 4.10767C191.818 6.44174 195.257 6.79778 196.081 12.0659C197.197 19.2791 196.668 44.0769 196.081 48.811C195.757 51.5011 181.001 55.2857 165.775 55.622C157.839 55.7934 129.209 55.9055 92.9077 55.9055L92.8784 55.9121Z" fill="url(#paint4_linear_79653_363)"/>
<mask id="mask1_79653_363" style="mask-type:luminance" maskUnits="userSpaceOnUse" x="-78" y="0" width="292" height="60">
<path d="M-37.5344 1.12102C-8.28742 -0.375686 148.941 -0.210851 175.836 1.10124C201.556 2.35398 212.138 4.51003 213.284 11.9342C214.46 19.3584 213.872 44.2353 213.284 48.9232C212.696 53.6111 191.209 58.9518 167.4 59.4727C143.591 59.9935 -24.2189 59.8617 -37.5638 58.9518C-50.9086 58.0419 -74.7177 54.9166 -76.4814 47.3606C-78.2156 39.8045 -78.8035 14.9276 -74.1592 11.0243C-69.515 7.12102 -70.6614 2.82212 -37.5932 1.12761L-37.5344 1.12102Z" fill="white"/>
</mask>
<g mask="url(#mask1_79653_363)">
<path opacity="0.5" d="M32.4964 48.376C74.5297 50.0243 123 51.8309 159.655 60.2573C164.152 61.2925 171.265 62.743 165.504 64.2199C159.596 65.7364 151.63 64.3848 145.957 63.5936C92.5776 56.1826 35.2006 53.3144 -26.6149 56.1562C-45.6033 57.0265 -63.7688 58.8133 -82.3458 60.1584C-86.0788 60.4287 -90.6349 61.1144 -93.4567 60.0397C-96.2491 58.9716 -91.7812 58.2661 -88.5479 57.8111C-53.4515 52.8595 -17.3264 48.4881 32.5257 48.376H32.4964Z" fill="#29303F"/>
<path opacity="0.15" d="M244.613 21.8112C243.408 22.2991 242.644 22.965 240.733 23.2551C239.41 23.4595 235.618 23.3276 234.472 23.0375C211.457 17.2617 178.682 15.6793 148.554 13.0551C111.723 9.85071 81.3884 4.45731 50.4366 -0.771265C47.0563 -1.34489 42.4708 -2.12951 45.1163 -3.25039C47.9381 -4.45698 53.3466 -3.85698 57.0796 -3.47456C110.077 1.95181 163.339 7.2595 215.689 12.9958C230.416 14.6112 240.116 17.8617 244.642 21.798L244.613 21.8112Z" fill="#29303F"/>
<path opacity="0.25" d="M103.392 13.5761C102.922 13.5101 102.422 13.4508 101.923 13.4046C63.4165 8.90133 27.2325 3.28375 -16.0647 1.08155C-17.3875 0.883747 -18.8571 0.784846 -20.1505 0.831C-40.4617 -0.408561 -61.302 -0.408561 -82.1717 -0.230539C-83.9941 -0.217352 -85.7578 0.237593 -87.5508 0.488142C-85.4638 0.659571 -83.4356 0.936494 -81.2899 0.989241C-60.9199 1.49034 -40.5205 1.95188 -20.1505 2.4266C19.1492 5.16287 53.4225 10.1409 88.7541 14.6442C91.1938 15.0464 93.7804 15.409 96.0438 15.8574C107.39 18.0991 127.025 20.1958 123.645 23.4266C120.294 26.6574 98.8362 26.4398 84.1392 26.987C37.4616 28.7277 -25.2944 31.8398 -77.7332 35.0112C-81.5838 35.242 -86.2868 40.6815 -85.8459 40.8596C-83.0241 41.9804 -52.1605 38.4728 -47.6044 38.1299C0.131332 34.5299 48.7195 32.4134 97.5135 29.9804C117.648 28.9783 145.073 28.9123 146.807 22.9057C148.453 17.1563 122.998 15.5343 103.304 13.5761H103.392Z" fill="#29303F"/>
<path opacity="0.25" d="M234.009 40.1477C218.048 35.5191 195.473 34.4312 171.253 34.8664C148.708 35.2686 126.368 36.3763 103.823 36.6598C50.62 37.3389 -2.58305 37.7939 -52.9937 42.2906C-63.9282 42.9367 -74.8921 43.5499 -85.7385 44.2554C-88.09 44.4071 -90.03 44.8884 -92.1758 45.218C-89.8537 45.4027 -87.3258 45.8114 -85.2094 45.7323C-73.54 45.2972 -61.9 44.7829 -50.26 44.2818C-48.4376 44.3082 -46.4976 44.3543 -44.9103 44.051C-39.8546 43.8268 -34.8282 43.5961 -29.7724 43.3917C53.6182 40.0158 136.303 41.3213 218.665 45.2049C224.838 45.495 231.54 47.262 237.213 45.5016C242.945 43.7147 239.476 41.7433 234.038 40.1543L234.009 40.1477Z" fill="#29303F"/>
</g>
<path d="M8.63281 55.7017L55.3986 55.6621L126.503 55.8731L62.3355 56.961L8.63281 55.7017Z" fill="#1E2328"/>
<path d="M8.55859 3.93659L55.295 3.97615L127.075 3.09263L62.2613 2.67725L8.55859 3.93659Z" fill="#99ABCF"/>
<path d="M34.1719 41.6838C34.1719 41.6838 88.3449 40.4113 124.735 41.0509C161.124 41.6904 196.867 44.2421 196.867 44.2421C196.867 44.2421 159.331 43.0223 123.324 42.5607C87.3161 42.0992 34.2013 41.6904 34.2013 41.6904L34.1719 41.6838Z" fill="#646882"/>
<path opacity="0.48" d="M148.959 7.71432C73.7101 5.96047 -10.239 8.27476 -10.239 8.27476C-21.9377 8.27476 -33.9305 10.7209 -35.5471 13.2857C-44.718 28.0022 -37.7517 45.8572 -37.7517 45.8572C-37.7517 48.4418 -20.8502 51.4484 -9.12198 51.4484C-9.12198 51.4484 83.175 53.2286 151.281 51.2638C162.891 50.9275 171.886 48.8572 173.532 46.2923C184.702 28.7868 173.532 13.7011 173.532 13.7011C172.973 10.3583 160.628 7.97805 148.988 7.70772L148.959 7.71432Z" fill="url(#paint5_linear_79653_363)"/>
<path d="M-39.2617 22.233C-39.2617 22.233 -38.9384 13.4902 -35.4699 11.6902C-32.0014 9.89016 -28.5329 8.07038 -10.5438 7.82642C8.56222 7.56269 40.631 6.42203 73.3171 6.30994C106.003 6.19785 152.152 6.90994 159.794 7.93851C167.466 8.96708 175.784 9.75169 176.225 18.811C176.225 18.811 173.08 9.81104 158.266 8.90115C143.451 7.99126 102.858 7.41763 102.858 7.41763C102.858 7.41763 121.464 10.5561 127.108 10.8792C127.108 10.8792 100.066 7.41763 89.0722 7.47697C78.0789 7.53631 38.2501 7.81983 38.2501 7.81983L47.6855 9.2506C47.6855 9.2506 35.6928 7.70115 24.964 7.76049C14.2352 7.81983 -17.9511 8.28137 -23.3008 9.59345C-28.6505 10.9121 -34.5881 10.9847 -36.1166 15.9165C-36.1166 15.9165 -30.5317 16.7077 -27.9744 17.466C-27.9744 17.466 -32.5305 16.7011 -35.8814 16.4176L-39.2617 22.2264V22.233Z" fill="#1E2328"/>
<path d="M-39.5437 38.9736C-39.5437 38.9736 -36.6631 47.3011 -27.9919 48.5604C-19.3207 49.8198 -17.3513 50.9143 3.04813 51.1319C23.4181 51.3495 47.1096 50.4528 48.8145 50.5451C50.5193 50.6374 85.4393 51.5143 89.0842 51.5736C92.7584 51.6264 143.287 51.3824 152.81 50.5451C162.334 49.7077 172.916 48.1253 174.738 44.2352C174.738 44.2352 176.002 48.7121 164.039 50.4725C152.075 52.2264 104.722 52.1934 104.722 52.1934C104.722 52.1934 111.277 52.7736 124.974 54.4088C124.974 54.4088 110.336 52.7077 88.849 52.1934C67.3621 51.6791 28.7972 52.1604 17.3042 52.1934C5.84056 52.2264 -27.6098 52.1736 -33.224 49.1077C-38.8382 46.0418 -40.2785 43.8462 -40.2785 43.8462L-46.4219 44.2352C-46.4219 44.2352 -40.4843 43.9055 -40.2785 41.822C-40.0728 39.7385 -39.5437 38.9736 -39.5437 38.9736Z" fill="#646882"/>
</g>
<g clip-path="url(#clip2_79653_363)">
<path d="M85.139 1.12138C91.1693 -0.375328 123.751 -0.210493 129.272 1.22028C134.915 2.67742 136.618 4.51039 136.86 11.9346C137.103 19.3587 136.981 44.2357 136.86 48.9236C136.739 53.6115 132.309 58.9521 127.4 59.473C122.491 59.9939 87.8905 59.862 85.139 58.9521C82.3875 58.0423 77.4784 54.917 77.1147 47.3609C76.7572 39.8049 76.636 14.928 77.5935 11.0247C78.5511 7.12138 78.3147 2.82247 85.1329 1.12797L85.139 1.12138Z" fill="url(#paint6_linear_79653_363)"/>
<path d="M112.026 55.9121C98.0442 55.9121 87.7473 55.556 86.0867 55.2264C84.7836 54.7714 80.9352 52.9516 80.6624 47.1626C80.2442 38.334 80.2927 15.0329 81.0261 12.0198C81.1836 11.367 81.3109 10.7406 81.4321 10.134C82.0564 6.9758 82.2927 5.79558 85.9291 4.89229C89.1958 4.0813 102.881 3.09229 114.202 3.09229C125.523 3.09229 127.735 4.06811 127.82 4.10767C132.426 6.44174 133.135 6.79778 133.305 12.0659C133.535 19.2791 133.426 44.0769 133.305 48.811C133.238 51.5011 130.196 55.2857 127.056 55.622C125.42 55.7934 119.517 55.9055 112.032 55.9055L112.026 55.9121Z" fill="url(#paint7_linear_79653_363)"/>
<mask id="mask2_79653_363" style="mask-type:luminance" maskUnits="userSpaceOnUse" x="76" y="0" width="61" height="60">
<path d="M85.1372 1.12102C91.1675 -0.375686 123.586 -0.210851 129.131 1.10124C134.434 2.35398 136.616 4.51003 136.852 11.9342C137.095 19.3584 136.974 44.2353 136.852 48.9232C136.731 53.6111 132.301 58.9518 127.392 59.4727C122.483 59.9935 87.8827 59.8617 85.1312 58.9518C82.3797 58.0419 77.4706 54.9166 77.1069 47.3606C76.7494 39.8045 76.6281 14.9276 77.5857 11.0243C78.5433 7.12102 78.3069 2.82212 85.1251 1.12761L85.1372 1.12102Z" fill="white"/>
</mask>
<g mask="url(#mask2_79653_363)">
<path opacity="0.5" d="M99.5768 48.376C108.243 50.0243 118.237 51.8309 125.795 60.2573C126.722 61.2925 128.189 62.743 127.001 64.2199C125.783 65.7364 124.14 64.3848 122.971 63.5936C111.965 56.1826 100.134 53.3144 87.3889 56.1562C83.4737 57.0265 79.7283 58.8133 75.898 60.1584C75.1283 60.4287 74.1889 61.1144 73.6071 60.0397C73.0313 58.9716 73.9525 58.2661 74.6192 57.8111C81.8556 52.8595 89.304 48.4881 99.5828 48.376H99.5768Z" fill="#29303F"/>
<path opacity="0.15" d="M143.311 21.8112C143.063 22.2991 142.905 22.965 142.511 23.2551C142.239 23.4595 141.457 23.3276 141.221 23.0375C136.475 17.2617 129.718 15.6793 123.505 13.0551C115.911 9.85071 109.657 4.45731 103.275 -0.771265C102.578 -1.34489 101.633 -2.12951 102.178 -3.25039C102.76 -4.45698 103.875 -3.85698 104.645 -3.47456C115.572 1.95181 126.554 7.2595 137.348 12.9958C140.384 14.6112 142.384 17.8617 143.318 21.798L143.311 21.8112Z" fill="#29303F"/>
<path opacity="0.25" d="M114.194 13.5761C114.097 13.5101 113.994 13.4508 113.891 13.4046C105.951 8.90133 98.4909 3.28375 89.5636 1.08155C89.2909 0.883747 88.9879 0.784846 88.7212 0.831C84.5333 -0.408561 80.2363 -0.408561 75.9333 -0.230539C75.5576 -0.217352 75.1939 0.237593 74.8242 0.488142C75.2545 0.659571 75.6727 0.936494 76.1151 0.989241C80.3151 1.49034 84.5212 1.95188 88.7212 2.4266C96.8242 5.16287 103.891 10.1409 111.176 14.6442C111.679 15.0464 112.212 15.409 112.679 15.8574C115.018 18.0991 119.067 20.1958 118.37 23.4266C117.679 26.6574 113.255 26.4398 110.224 26.987C100.6 28.7277 87.6606 31.8398 76.8485 35.0112C76.0545 35.242 75.0848 40.6815 75.1757 40.8596C75.7576 41.9804 82.1212 38.4728 83.0606 38.1299C92.903 34.5299 102.921 32.4134 112.982 29.9804C117.133 28.9783 122.788 28.9123 123.145 22.9057C123.485 17.1563 118.236 15.5343 114.176 13.5761H114.194Z" fill="#29303F"/>
<path opacity="0.25" d="M141.126 40.1477C137.835 35.5191 133.18 34.4312 128.186 34.8664C123.538 35.2686 118.932 36.3763 114.283 36.6598C103.314 37.3389 92.3438 37.7939 81.9499 42.2906C79.6953 42.9367 77.4347 43.5499 75.1984 44.2554C74.7135 44.4071 74.3135 44.8884 73.8711 45.218C74.3499 45.4027 74.8711 45.8114 75.3075 45.7323C77.7135 45.2972 80.1135 44.7829 82.5135 44.2818C82.8893 44.3082 83.2893 44.3543 83.6165 44.051C84.659 43.8268 85.6953 43.5961 86.7378 43.3917C103.932 40.0158 120.98 41.3213 137.962 45.2049C139.235 45.495 140.617 47.262 141.786 45.5016C142.968 43.7147 142.253 41.7433 141.132 40.1543L141.126 40.1477Z" fill="#29303F"/>
</g>
<path d="M94.6562 55.7017L104.299 55.6621L118.959 55.8731L105.729 56.961L94.6562 55.7017Z" fill="#1E2328"/>
<path d="M133.361 45.0659C133.361 45.0659 132.597 50.7494 130.627 53.1692C129.246 54.8703 125.488 55.6352 121.027 55.8659C121.027 55.8659 129.464 56.0373 131.761 54.0791C134.064 52.1209 133.361 45.0659 133.361 45.0659Z" fill="#1E2328"/>
<path d="M94.6406 3.93659L104.277 3.97615L119.077 3.09263L105.713 2.67725L94.6406 3.93659Z" fill="#99ABCF"/>
<path d="M133.339 14.5714C133.339 14.5714 133.314 9.01972 131.339 6.59994C129.957 4.89884 125.545 3.48126 121.078 3.25049C121.078 3.25049 128.811 3.3362 131.733 5.55818C134.127 7.38455 133.333 14.5714 133.333 14.5714H133.339Z" fill="#99ABCF"/>
<path d="M136.942 36.3363L133.415 33.7319L128.5 34.8396L133.415 35.8352L136.942 36.3363Z" fill="#1E2328"/>
<path d="M99.9219 41.6838C99.9219 41.6838 111.092 40.4113 118.595 41.0509C126.098 41.6904 133.467 44.2421 133.467 44.2421C133.467 44.2421 125.728 43.0223 118.304 42.5607C110.879 42.0992 99.9279 41.6904 99.9279 41.6904L99.9219 41.6838Z" fill="#646882"/>
<path opacity="0.48" d="M123.59 7.71432C108.074 5.96047 90.7654 8.27476 90.7654 8.27476C88.3533 8.27476 85.8806 10.7209 85.5472 13.2857C83.6563 28.0022 85.0927 45.8572 85.0927 45.8572C85.0927 48.4418 88.5775 51.4484 90.9957 51.4484C90.9957 51.4484 110.026 53.2286 124.068 51.2638C126.462 50.9275 128.317 48.8572 128.656 46.2923C130.959 28.7868 128.656 13.7011 128.656 13.7011C128.541 10.3583 125.996 7.97805 123.596 7.70772L123.59 7.71432Z" fill="url(#paint8_linear_79653_363)"/>
<path d="M84.7812 22.233C84.7812 22.233 84.8479 13.4902 85.5631 11.6902C86.2782 9.89016 86.9934 8.07038 90.7025 7.82642C94.6419 7.56269 101.254 6.42203 107.993 6.30994C114.733 6.19785 124.248 6.90994 125.824 7.93851C127.405 8.96708 129.121 9.75169 129.212 18.811C129.212 18.811 128.563 9.81104 125.509 8.90115C122.454 7.99126 114.084 7.41763 114.084 7.41763C114.084 7.41763 117.921 10.5561 119.084 10.8792C119.084 10.8792 113.509 7.41763 111.242 7.47697C108.975 7.53631 100.763 7.81983 100.763 7.81983L102.709 9.2506C102.709 9.2506 100.236 7.70115 98.0237 7.76049C95.8116 7.81983 89.1752 8.28137 88.0722 9.59345C86.9691 10.9121 85.7449 10.9847 85.4297 15.9165C85.4297 15.9165 86.5813 16.7077 87.1085 17.466C87.1085 17.466 86.1691 16.7011 85.4782 16.4176L84.7812 22.2264V22.233Z" fill="#1E2328"/>
<path d="M84.7229 38.9736C84.7229 38.9736 85.3168 47.3011 87.1047 48.5604C88.8926 49.8198 89.2986 50.9143 93.5047 51.1319C97.7047 51.3495 102.59 50.4528 102.941 50.5451C103.293 50.6374 110.493 51.5143 111.244 51.5736C112.002 51.6264 122.42 51.3824 124.383 50.5451C126.347 49.7077 128.529 48.1253 128.905 44.2352C128.905 44.2352 129.165 48.7121 126.699 50.4725C124.232 52.2264 114.468 52.1934 114.468 52.1934C114.468 52.1934 115.82 52.7736 118.644 54.4088C118.644 54.4088 115.626 52.7077 111.196 52.1934C106.765 51.6791 98.8138 52.1604 96.4441 52.1934C94.0804 52.2264 87.1835 52.1736 86.0259 49.1077C84.8683 46.0418 84.5714 43.8462 84.5714 43.8462L83.3047 44.2352C83.3047 44.2352 84.5289 43.9055 84.5714 41.822C84.6138 39.7385 84.7229 38.9736 84.7229 38.9736Z" fill="#646882"/>
</g>
<defs>
<linearGradient id="paint0_linear_79653_363" x1="29.9208" y1="59.7763" x2="29.9208" y2="0.0730213" gradientUnits="userSpaceOnUse">
<stop stop-color="#28313F"/>
<stop offset="0.22" stop-color="#2A3342"/>
<stop offset="0.39" stop-color="#313B4B"/>
<stop offset="0.55" stop-color="#3E495C"/>
<stop offset="0.7" stop-color="#4F5C73"/>
<stop offset="0.83" stop-color="#667491"/>
<stop offset="0.96" stop-color="#8192B5"/>
<stop offset="1" stop-color="#8A9CC1"/>
</linearGradient>
<linearGradient id="paint1_linear_79653_363" x1="29.917" y1="55.9121" x2="29.917" y2="3.09229" gradientUnits="userSpaceOnUse">
<stop stop-color="#544F74"/>
<stop offset="0.31" stop-color="#58577C"/>
<stop offset="0.82" stop-color="#647092"/>
<stop offset="1" stop-color="#6A7A9C"/>
</linearGradient>
<linearGradient id="paint2_linear_79653_363" x1="30.123" y1="52.1934" x2="30.123" y2="7.06157" gradientUnits="userSpaceOnUse">
<stop stop-color="#2B5747"/>
<stop offset="0.07" stop-color="#295144"/>
<stop offset="0.43" stop-color="#243534"/>
<stop offset="0.75" stop-color="#242424"/>
<stop offset="1" stop-color="#202020"/>
</linearGradient>
<linearGradient id="paint3_linear_79653_363" x1="68.1171" y1="59.7763" x2="68.1171" y2="0.0730213" gradientUnits="userSpaceOnUse">
<stop stop-color="#28313F"/>
<stop offset="0.22" stop-color="#2A3342"/>
<stop offset="0.39" stop-color="#313B4B"/>
<stop offset="0.55" stop-color="#3E495C"/>
<stop offset="0.7" stop-color="#4F5C73"/>
<stop offset="0.83" stop-color="#667491"/>
<stop offset="0.96" stop-color="#8192B5"/>
<stop offset="1" stop-color="#8A9CC1"/>
</linearGradient>
<linearGradient id="paint4_linear_79653_363" x1="68.0993" y1="55.9121" x2="68.0993" y2="3.09229" gradientUnits="userSpaceOnUse">
<stop stop-color="#544F74"/>
<stop offset="0.31" stop-color="#58577C"/>
<stop offset="0.82" stop-color="#647092"/>
<stop offset="1" stop-color="#6A7A9C"/>
</linearGradient>
<linearGradient id="paint5_linear_79653_363" x1="69.0953" y1="52.1934" x2="69.0953" y2="7.06157" gradientUnits="userSpaceOnUse">
<stop stop-color="#2B5747"/>
<stop offset="0.07" stop-color="#295144"/>
<stop offset="0.43" stop-color="#243534"/>
<stop offset="0.75" stop-color="#242424"/>
<stop offset="1" stop-color="#202020"/>
</linearGradient>
<linearGradient id="paint6_linear_79653_363" x1="106.921" y1="59.7763" x2="106.921" y2="0.0730213" gradientUnits="userSpaceOnUse">
<stop stop-color="#28313F"/>
<stop offset="0.22" stop-color="#2A3342"/>
<stop offset="0.39" stop-color="#313B4B"/>
<stop offset="0.55" stop-color="#3E495C"/>
<stop offset="0.7" stop-color="#4F5C73"/>
<stop offset="0.83" stop-color="#667491"/>
<stop offset="0.96" stop-color="#8192B5"/>
<stop offset="1" stop-color="#8A9CC1"/>
</linearGradient>
<linearGradient id="paint7_linear_79653_363" x1="106.917" y1="55.9121" x2="106.917" y2="3.09229" gradientUnits="userSpaceOnUse">
<stop stop-color="#544F74"/>
<stop offset="0.31" stop-color="#58577C"/>
<stop offset="0.82" stop-color="#647092"/>
<stop offset="1" stop-color="#6A7A9C"/>
</linearGradient>
<linearGradient id="paint8_linear_79653_363" x1="107.123" y1="52.1934" x2="107.123" y2="7.06157" gradientUnits="userSpaceOnUse">
<stop stop-color="#2B5747"/>
<stop offset="0.07" stop-color="#295144"/>
<stop offset="0.43" stop-color="#243534"/>
<stop offset="0.75" stop-color="#242424"/>
<stop offset="1" stop-color="#202020"/>
</linearGradient>
<clipPath id="clip0_79653_363">
<rect width="20" height="60" fill="white"/>
</clipPath>
<clipPath id="clip1_79653_363">
<rect width="97" height="60" fill="white" transform="translate(20)"/>
</clipPath>
<clipPath id="clip2_79653_363">
<rect width="20" height="60" fill="white" transform="translate(117)"/>
</clipPath>
</defs>
</svg>
