<svg width="122" height="60" viewBox="0 0 122 60" fill="none" xmlns="http://www.w3.org/2000/svg">
<g clip-path="url(#clip0_2329_220986)">
<path d="M10.495 0.981048C18.5295 -0.519558 61.9402 -0.354293 69.2964 1.08021C76.8142 2.54115 79.0832 4.3789 79.4062 11.8224C79.7292 19.266 79.5677 44.2077 79.4062 48.9079C79.2447 53.608 73.342 58.9626 66.8013 59.4848C60.2606 60.0071 14.161 59.8749 10.495 58.9626C6.82895 58.0503 0.288278 54.9169 -0.196217 47.3412C-0.672636 39.7654 -0.834134 14.8236 0.441701 10.9102C1.71754 6.99669 1.40262 2.68658 10.4869 0.987659L10.495 0.981048Z" fill="url(#paint0_linear_2329_220986)"/>
<path d="M46.323 55.9145C27.6942 55.9145 13.9749 55.5576 11.7624 55.227C10.0263 54.7709 4.89869 52.9464 4.53532 47.1423C3.97815 38.2907 4.04275 14.9288 5.01982 11.9078C5.22976 11.2533 5.39934 10.6253 5.56083 10.0172C6.39255 6.85067 6.70747 5.66738 11.5524 4.76172C15.9048 3.94862 34.1379 2.95703 49.2219 2.95703C64.3058 2.95703 67.2531 3.9354 67.3662 3.97506C73.5031 6.31522 74.4479 6.67219 74.674 11.9541C74.9808 19.1861 74.8355 44.0485 74.674 48.7949C74.5851 51.492 70.5315 55.2865 66.3487 55.6237C64.1685 55.7955 56.3036 55.9079 46.331 55.9079L46.323 55.9145Z" fill="url(#paint1_linear_2329_220986)"/>
<mask id="mask0_2329_220986" style="mask-type:luminance" maskUnits="userSpaceOnUse" x="-1" y="-1" width="81" height="61">
<path d="M10.4952 0.980725C18.5298 -0.519882 61.7224 -0.354616 69.111 0.960893C76.1765 2.21691 79.0835 4.37857 79.3984 11.8221C79.7214 19.2656 79.5599 44.2074 79.3984 48.9076C79.2369 53.6077 73.3342 58.9623 66.7935 59.4845C60.2528 60.0068 14.1532 59.8746 10.4871 58.9623C6.82114 58.05 0.280465 54.9166 -0.204029 47.3409C-0.680449 39.7651 -0.841947 14.8233 0.433888 10.9098C1.70972 6.99637 1.3948 2.68626 10.4791 0.987335L10.4952 0.980725Z" fill="white"/>
</mask>
<g mask="url(#mask0_2329_220986)">
<path opacity="0.5" d="M29.7331 48.3594C41.2803 50.012 54.5958 51.8233 64.6652 60.2717C65.9007 61.3095 67.8548 62.7639 66.2721 64.2446C64.649 65.7651 62.4607 64.4099 60.9023 63.6166C46.2383 56.1863 30.476 53.3107 13.4945 56.1599C8.27812 57.0325 3.28783 58.8239 -1.81551 60.1725C-2.84103 60.4435 -4.09264 61.131 -4.86783 60.0535C-5.63494 58.9826 -4.40756 58.2753 -3.51932 57.8191C6.12212 52.8546 16.0462 48.4718 29.7412 48.3594H29.7331Z" fill="#7A401C"/>
<path opacity="0.25" d="M16.7632 13.4806C11.5306 11.6098 6.11236 10.0761 0.726398 8.516C-0.113392 8.27141 -1.21158 8.63499 -2.19672 8.71432C-1.50228 9.35555 -0.937033 10.1554 -0.0891676 10.6116C2.80165 12.1849 5.63594 13.9235 8.76901 15.0935C16.0203 17.8039 16.0606 20.7126 9.62495 24.1567C4.78 25.9614 -0.0730176 27.7528 -4.90181 29.5906C-5.35401 29.7625 -5.63663 30.2252 -6 30.5557C-5.6124 30.6417 -5.16021 30.8863 -4.86144 30.7937C0.411477 29.1477 5.66824 27.4686 10.925 25.7895C11.2399 25.7168 11.5548 25.6044 11.8617 25.492C15.6973 24.1302 19.6378 22.8279 20.2758 18.8087C20.6633 16.3826 19.2987 14.3862 16.7632 13.4806Z" fill="#7A401C"/>
<path opacity="0.25" d="M49.2085 13.4677C49.0793 13.4016 48.942 13.3421 48.8048 13.2959C38.2266 8.78083 28.2864 3.1486 16.3921 0.940659C16.0287 0.742341 15.625 0.643183 15.2697 0.689457C9.68991 -0.553336 3.9648 -0.553336 -1.76839 -0.37485C-2.26903 -0.361629 -2.75352 0.0945024 -3.24609 0.345705C-2.67278 0.517581 -2.11561 0.795226 -1.52614 0.848111C4.06977 1.35052 9.67376 1.81326 15.2697 2.28922C26.0658 5.03262 35.4812 10.0236 45.1872 14.5387C45.8574 14.9419 46.568 15.3055 47.1898 15.755C50.3067 18.0026 55.7007 20.1048 54.7721 23.344C53.8516 26.5832 47.9569 26.365 43.9194 26.9137C31.0965 28.6589 13.8566 31.7791 -0.549075 34.9588C-1.60689 35.1902 -2.89887 40.6439 -2.77775 40.8224C-2.00256 41.9462 6.47609 38.4294 7.72771 38.0856C20.8414 34.4762 34.1892 32.3542 47.5935 29.9149C53.1248 28.9101 60.6587 28.844 61.1351 22.8217C61.5873 17.0573 54.5945 15.4311 49.1843 13.4677H49.2085Z" fill="#7A401C"/>
<path opacity="0.25" d="M85.0916 40.109C80.707 35.4683 74.5054 34.3776 67.8517 34.8139C61.6582 35.2171 55.5213 36.3277 49.3279 36.612C34.7123 37.2929 20.0967 37.749 6.24823 42.2574C3.24436 42.9053 0.232421 43.52 -2.74722 44.2274C-3.39321 44.3794 -3.92616 44.862 -4.51562 45.1925C-3.87771 45.3776 -3.18327 45.7875 -2.60187 45.7082C0.603867 45.2719 3.80153 44.7562 6.99919 44.2538C7.49984 44.2803 8.03278 44.3265 8.46883 44.0225C9.85771 43.7977 11.2385 43.5663 12.6274 43.3614C35.5359 39.9768 58.2506 41.2857 80.8765 45.1793C82.5723 45.4702 84.4133 47.2418 85.9718 45.4768C87.5464 43.6853 86.5936 41.7087 85.0997 40.1156L85.0916 40.109Z" fill="#7A401C"/>
</g>
<path d="M23.1797 55.7028L36.0269 55.6631L55.5601 55.8746L37.9325 56.9654L23.1797 55.7028Z" fill="#542909"/>
<path d="M-0.527081 34.9522L4.25326 34.4035L16.729 31.4287L3.63957 33.0153L-0.535156 34.6349L-0.527081 34.9522Z" fill="#542909"/>
<path d="M16.7287 31.4288L4.253 34.4036L-0.527344 34.9523L4.64867 35.2498L16.9468 31.3892L16.7287 31.4288Z" fill="#EBB273"/>
<path d="M4.43271 45.1924C4.43271 45.1924 4.34388 55.657 20.7844 55.657C20.7844 55.657 10.7554 56.5692 7.48502 54.6059C4.21468 52.6425 4.43271 45.1924 4.43271 45.1924Z" fill="#542909"/>
<path d="M23.1562 3.80378L35.9954 3.84344L55.7143 2.95762L37.9091 2.54115L23.1562 3.80378Z" fill="#EBB273"/>
<path d="M4.59422 15.1614C4.59422 15.1614 5.61974 8.02859 8.57515 6.29C10.4243 5.20586 15.7053 4.07545 21.6404 3.81764C21.6404 3.81764 11.0219 3.61271 7.75151 5.57605C4.48117 7.5394 4.59422 15.1548 4.59422 15.1548V15.1614Z" fill="#EBB273"/>
<path d="M16.6641 25.6048L22.0097 23.972L25.2315 25.6048H16.6641Z" fill="#542909"/>
<path d="M22.0097 26.6689L16.6641 25.6046H25.2315L22.0097 26.6689Z" fill="#EBB273"/>
<path opacity="0.48" d="M61.7222 7.59103C41.0504 5.83261 17.9885 8.15293 17.9885 8.15293C14.7747 8.15293 11.4801 10.6055 11.036 13.177C8.5166 27.9318 10.4304 45.8333 10.4304 45.8333C10.4304 48.4247 15.0734 51.4391 18.2953 51.4391C18.2953 51.4391 43.6505 53.224 62.3601 51.254C65.5497 50.9169 68.0206 48.8412 68.4728 46.2696C71.5413 28.7185 68.4728 13.5935 68.4728 13.5935C68.3194 10.2419 64.9279 7.85545 61.7302 7.58442L61.7222 7.59103Z" fill="url(#paint2_linear_2329_220986)"/>
<path d="M10.0195 22.1476C10.0195 22.1476 10.1084 13.382 11.0612 11.5773C12.014 9.77257 12.9669 7.94805 17.9087 7.70345C23.1574 7.43903 31.9671 6.29539 40.9464 6.18301C49.9257 6.07063 62.6033 6.78458 64.7028 7.81583C66.8104 8.84709 69.0956 9.63375 69.2167 18.7167C69.2167 18.7167 68.3527 9.69324 64.2829 8.78098C60.2132 7.86872 49.0617 7.2936 49.0617 7.2936C49.0617 7.2936 54.1731 10.4402 55.7235 10.7642C55.7235 10.7642 48.2946 7.2936 45.2746 7.35309C42.2546 7.41259 31.3131 7.69684 31.3131 7.69684L33.9051 9.13134C33.9051 9.13134 30.6105 7.57785 27.6632 7.63735C24.7159 7.69684 15.8738 8.15958 14.4042 9.47509C12.9346 10.7972 11.3034 10.8699 10.8835 15.8147C10.8835 15.8147 12.4178 16.6079 13.1203 17.3681C13.1203 17.3681 11.8687 16.6013 10.9481 16.3171L10.0195 22.141V22.1476Z" fill="#542909"/>
<path d="M9.94031 38.9316C9.94031 38.9316 10.7317 47.2808 13.1137 48.5435C15.4958 49.8061 16.0369 50.9034 21.6409 51.1216C27.2368 51.3397 33.7451 50.4407 34.2135 50.5332C34.6818 50.6258 44.2748 51.505 45.2761 51.5645C46.2855 51.6174 60.1662 51.3728 62.7825 50.5332C65.3988 49.6937 68.3057 48.1071 68.8064 44.2069C68.8064 44.2069 69.1536 48.6955 65.8671 50.4605C62.5806 52.2189 49.572 52.1859 49.572 52.1859C49.572 52.1859 51.3727 52.7676 55.1356 54.4071C55.1356 54.4071 51.1143 52.7015 45.2115 52.1859C39.3087 51.6703 28.7145 52.1528 25.5572 52.1859C22.408 52.2189 13.2187 52.1661 11.6764 49.0921C10.1341 46.0182 9.73844 43.8169 9.73844 43.8169L8.05078 44.2069C8.05078 44.2069 9.68191 43.8764 9.73844 41.7874C9.79496 39.6985 9.94031 38.9316 9.94031 38.9316Z" fill="#B57650"/>
</g>
<g clip-path="url(#clip1_2329_220986)">
<path d="M-9.80624 0.981048C9.47664 -0.519558 113.662 -0.354293 131.317 1.08021C149.36 2.54115 154.806 4.3789 155.581 11.8224C156.356 19.266 155.968 44.2077 155.581 48.9079C155.193 53.608 141.027 58.9626 125.329 59.4848C109.631 60.0071 -1.00782 59.8749 -9.80624 58.9626C-18.6047 58.0503 -34.3023 54.9169 -35.4651 47.3412C-36.6085 39.7654 -36.9961 14.8236 -33.9341 10.9102C-30.8721 6.99669 -31.6279 2.68658 -9.82562 0.987659L-9.80624 0.981048Z" fill="url(#paint3_linear_2329_220986)"/>
<path d="M76.1833 55.9145C31.4742 55.9145 -1.45207 55.5576 -6.76213 55.227C-10.9288 54.7709 -23.2349 52.9464 -24.107 47.1423C-25.4442 38.2907 -25.2892 14.9288 -22.9442 11.9078C-22.4404 11.2533 -22.0334 10.6253 -21.6458 10.0172C-19.6497 6.85067 -18.8939 5.66738 -7.266 4.76172C3.1797 3.94862 46.9392 2.95703 83.1407 2.95703C119.342 2.95703 126.416 3.9354 126.687 3.97506C141.416 6.31522 143.683 6.67219 144.226 11.9541C144.962 19.1861 144.613 44.0485 144.226 48.7949C144.013 51.492 134.284 55.2865 124.245 55.6237C119.013 55.7955 100.137 55.9079 76.2027 55.9079L76.1833 55.9145Z" fill="url(#paint4_linear_2329_220986)"/>
<mask id="mask1_2329_220986" style="mask-type:luminance" maskUnits="userSpaceOnUse" x="-37" y="-1" width="194" height="61">
<path d="M-9.80639 0.980725C9.47649 -0.519882 113.139 -0.354616 130.871 0.960893C147.829 2.21691 154.805 4.37857 155.561 11.8221C156.336 19.2656 155.949 44.2074 155.561 48.9076C155.174 53.6077 141.007 58.9623 125.309 59.4845C109.612 60.0068 -1.02735 59.8746 -9.82577 58.9623C-18.6242 58.05 -34.3218 54.9166 -35.4846 47.3409C-36.628 39.7651 -37.0156 14.8233 -33.9536 10.9098C-30.8916 6.99637 -31.6474 2.68626 -9.84515 0.987335L-9.80639 0.980725Z" fill="white"/>
</mask>
<g mask="url(#mask1_2329_220986)">
<path opacity="0.5" d="M36.3564 48.3594C64.0695 50.012 96.0268 51.8233 120.193 60.2717C123.158 61.3095 127.848 62.7639 124.05 64.2446C120.155 65.7651 114.903 64.4099 111.162 63.6166C75.9687 56.1863 38.1394 53.3107 -2.6163 56.1599C-15.1356 57.0325 -27.1123 58.8239 -39.3604 60.1725C-41.8216 60.4435 -44.8255 61.131 -46.6859 60.0535C-48.527 58.9826 -45.5813 58.2753 -43.4495 57.8191C-20.31 52.8546 3.50771 48.4718 36.3758 48.3594H36.3564Z" fill="#7A401C"/>
<path opacity="0.15" d="M176.203 21.7246C175.408 22.2137 174.904 22.8814 173.644 23.1723C172.772 23.3772 170.272 23.245 169.517 22.9541C154.342 17.1632 132.734 15.5767 112.869 12.9457C88.5866 9.73293 68.5866 4.32546 48.1797 -0.916742C45.9511 -1.49186 42.9278 -2.27853 44.672 -3.40233C46.5324 -4.61207 50.0983 -4.0105 52.5596 -3.62709C87.5013 1.81343 122.617 7.13497 157.133 12.8862C166.842 14.5058 173.237 17.7648 176.222 21.7113L176.203 21.7246Z" fill="#7A401C"/>
<path opacity="0.25" d="M83.102 13.4677C82.7919 13.4016 82.4624 13.3421 82.133 13.2959C56.7455 8.78083 32.889 3.1486 4.34255 0.940659C3.47046 0.742341 2.50147 0.643183 1.64876 0.689457C-11.7427 -0.553336 -25.4829 -0.553336 -39.2426 -0.37485C-40.4441 -0.361629 -41.6069 0.0945024 -42.7891 0.345705C-41.4131 0.517581 -40.0759 0.795226 -38.6612 0.848111C-25.231 1.35052 -11.7814 1.81326 1.64876 2.28922C27.5595 5.03262 50.1563 10.0236 73.4508 14.5387C75.0593 14.9419 76.7648 15.3055 78.257 15.755C85.7376 18.0026 98.6833 20.1048 96.4546 23.344C94.2453 26.5832 80.0981 26.365 70.4082 26.9137C39.6331 28.6589 -1.7427 31.7791 -36.3162 34.9588C-38.855 35.1902 -41.9557 40.6439 -41.665 40.8224C-39.8046 41.9462 -19.4558 38.4294 -16.4519 38.0856C15.0208 34.4762 47.0556 32.3542 79.226 29.9149C92.5012 28.9101 110.582 28.844 111.726 22.8217C112.811 17.0573 96.0283 15.4311 83.0438 13.4677H83.102Z" fill="#7A401C"/>
<path opacity="0.25" d="M169.223 40.109C158.7 35.4683 143.817 34.3776 127.848 34.8139C112.983 35.2171 98.2547 36.3277 83.3904 36.612C48.313 37.2929 13.2356 37.749 -20.0007 42.2574C-27.21 42.9053 -34.4387 43.52 -41.5898 44.2274C-43.1402 44.3794 -44.4193 44.862 -45.834 45.1925C-44.303 45.3776 -42.6363 45.7875 -41.241 45.7082C-33.5472 45.2719 -25.8728 44.7562 -18.1984 44.2538C-16.9969 44.2803 -15.7178 44.3265 -14.6713 44.0225C-11.338 43.7977 -8.02404 43.5663 -4.69072 43.3614C50.2897 39.9768 104.805 41.2857 159.107 45.1793C163.177 45.4702 167.596 47.2418 171.336 45.4768C175.115 43.6853 172.828 41.7087 169.243 40.1156L169.223 40.109Z" fill="#7A401C"/>
</g>
<path d="M20.6387 55.7028L51.4719 55.6631L98.3516 55.8746L56.0455 56.9654L20.6387 55.7028Z" fill="#542909"/>
<path d="M20.5801 3.80364L51.3939 3.8433L98.7193 2.95748L55.9869 2.54102L20.5801 3.80364Z" fill="#EBB273"/>
<path d="M4.99805 25.6045L17.8275 23.9717L25.56 25.6045H4.99805Z" fill="#542909"/>
<path d="M17.8275 26.6686L4.99805 25.6043H25.56L17.8275 26.6686Z" fill="#EBB273"/>
<path d="M37.4609 41.6493C37.4609 41.6493 73.1779 40.3735 97.17 41.0147C121.162 41.6559 144.728 44.2142 144.728 44.2142C144.728 44.2142 119.98 42.9913 96.2398 42.5285C72.4996 42.0658 37.4803 41.6559 37.4803 41.6559L37.4609 41.6493Z" fill="#B57650"/>
<path opacity="0.48" d="M113.138 7.59103C63.5257 5.83261 8.17701 8.15293 8.17701 8.15293C0.463861 8.15293 -7.44309 10.6055 -8.50897 13.177C-14.5555 27.9318 -9.96246 45.8333 -9.96246 45.8333C-9.96246 48.4247 1.18092 51.4391 8.91345 51.4391C8.91345 51.4391 69.766 53.224 114.669 51.254C122.324 50.9169 128.254 48.8412 129.339 46.2696C136.704 28.7185 129.339 13.5935 129.339 13.5935C128.971 10.2419 120.832 7.85545 113.157 7.58442L113.138 7.59103Z" fill="url(#paint5_linear_2329_220986)"/>
<path d="M-10.9512 22.1476C-10.9512 22.1476 -10.738 13.382 -8.45118 11.5773C-6.16437 9.77257 -3.87755 7.94805 7.98287 7.70345C20.5797 7.43903 41.7231 6.29539 63.2734 6.18301C84.8237 6.07063 115.25 6.78458 120.289 7.81583C125.347 8.84709 130.831 9.63375 131.122 18.7167C131.122 18.7167 129.048 9.69324 119.281 8.78098C109.514 7.86872 82.7501 7.2936 82.7501 7.2936C82.7501 7.2936 95.0174 10.4402 98.7384 10.7642C98.7384 10.7642 80.909 7.2936 73.6609 7.35309C66.4129 7.41259 40.1533 7.69684 40.1533 7.69684L46.3742 9.13134C46.3742 9.13134 38.4673 7.57785 31.3936 7.63735C24.32 7.69684 3.09917 8.15958 -0.427953 9.47509C-3.95507 10.7972 -7.86979 10.8699 -8.87754 15.8147C-8.87754 15.8147 -5.19538 16.6079 -3.50934 17.3681C-3.50934 17.3681 -6.5132 16.6013 -8.7225 16.3171L-10.9512 22.141V22.1476Z" fill="#542909"/>
<path d="M-11.1448 38.9316C-11.1448 38.9316 -9.2456 47.2808 -3.52857 48.5435C2.18847 49.8061 3.48691 50.9034 16.9365 51.1216C30.3667 51.3397 45.9868 50.4407 47.1108 50.5332C48.2348 50.6258 71.258 51.505 73.6611 51.5645C76.0836 51.6174 109.397 51.3728 115.676 50.5332C121.955 49.6937 128.932 48.1071 130.134 44.2069C130.134 44.2069 130.967 48.6955 123.08 50.4605C115.192 52.2189 83.9711 52.1859 83.9711 52.1859C83.9711 52.1859 88.2928 52.7676 97.3238 54.4071C97.3238 54.4071 87.6727 52.7015 73.506 52.1859C59.3394 51.6703 33.9132 52.1528 26.3357 52.1859C18.7776 52.2189 -3.27663 52.1661 -6.97817 49.0921C-10.6797 46.0182 -11.6293 43.8169 -11.6293 43.8169L-15.6797 44.2069C-15.6797 44.2069 -11.765 43.8764 -11.6293 41.7874C-11.4937 39.6985 -11.1448 38.9316 -11.1448 38.9316Z" fill="#B57650"/>
</g>
<g clip-path="url(#clip2_2329_220986)">
<path d="M52.495 0.981048C60.5295 -0.519558 103.94 -0.354293 111.296 1.08021C118.814 2.54115 121.083 4.3789 121.406 11.8224C121.729 19.266 121.568 44.2077 121.406 48.9079C121.245 53.608 115.342 58.9626 108.801 59.4848C102.261 60.0071 56.161 59.8749 52.495 58.9626C48.829 58.0503 42.2883 54.9169 41.8038 47.3412C41.3274 39.7654 41.1659 14.8236 42.4417 10.9102C43.7175 6.99669 43.4026 2.68658 52.4869 0.987659L52.495 0.981048Z" fill="url(#paint6_linear_2329_220986)"/>
<path d="M88.323 55.9145C69.6942 55.9145 55.9749 55.5576 53.7624 55.227C52.0263 54.7709 46.8987 52.9464 46.5353 47.1423C45.9782 38.2907 46.0428 14.9288 47.0198 11.9078C47.2298 11.2533 47.3993 10.6253 47.5608 10.0172C48.3925 6.85067 48.7075 5.66738 53.5524 4.76172C57.9048 3.94862 76.1379 2.95703 91.2219 2.95703C106.306 2.95703 109.253 3.9354 109.366 3.97506C115.503 6.31522 116.448 6.67219 116.674 11.9541C116.981 19.1861 116.835 44.0485 116.674 48.7949C116.585 51.492 112.532 55.2865 108.349 55.6237C106.169 55.7955 98.3036 55.9079 88.331 55.9079L88.323 55.9145Z" fill="url(#paint7_linear_2329_220986)"/>
<mask id="mask2_2329_220986" style="mask-type:luminance" maskUnits="userSpaceOnUse" x="41" y="-1" width="81" height="61">
<path d="M52.4952 0.980725C60.5298 -0.519882 103.722 -0.354616 111.111 0.960893C118.177 2.21691 121.083 4.37857 121.398 11.8221C121.721 19.2656 121.56 44.2074 121.398 48.9076C121.237 53.6077 115.334 58.9623 108.793 59.4845C102.253 60.0068 56.1532 59.8746 52.4871 58.9623C48.8211 58.05 42.2805 54.9166 41.796 47.3409C41.3196 39.7651 41.1581 14.8233 42.4339 10.9098C43.7097 6.99637 43.3948 2.68626 52.4791 0.987335L52.4952 0.980725Z" fill="white"/>
</mask>
<g mask="url(#mask2_2329_220986)">
<path opacity="0.5" d="M71.7331 48.3594C83.2803 50.012 96.5958 51.8233 106.665 60.2717C107.901 61.3095 109.855 62.7639 108.272 64.2446C106.649 65.7651 104.461 64.4099 102.902 63.6166C88.2383 56.1863 72.476 53.3107 55.4945 56.1599C50.2781 57.0325 45.2878 58.8239 40.1845 60.1725C39.159 60.4435 37.9074 61.131 37.1322 60.0535C36.3651 58.9826 37.5924 58.2753 38.4807 57.8191C48.1221 52.8546 58.0462 48.4718 71.7412 48.3594H71.7331Z" fill="#7A401C"/>
<path opacity="0.15" d="M130.001 21.7246C129.67 22.2137 129.46 22.8814 128.935 23.1723C128.572 23.3772 127.53 23.245 127.216 22.9541C120.893 17.1632 111.889 15.5767 103.613 12.9457C93.4947 9.73293 85.1614 4.32546 76.6585 -0.916742C75.7299 -1.49186 74.4702 -2.27853 75.197 -3.40233C75.9722 -4.61207 77.458 -4.0105 78.4835 -3.62709C93.0425 1.81343 107.674 7.13497 122.056 12.8862C126.101 14.5058 128.766 17.7648 130.009 21.7113L130.001 21.7246Z" fill="#7A401C"/>
<path opacity="0.25" d="M91.2085 13.4677C91.0793 13.4016 90.942 13.3421 90.8048 13.2959C80.2266 8.78083 70.2864 3.1486 58.3921 0.940659C58.0287 0.742341 57.625 0.643183 57.2697 0.689457C51.6899 -0.553336 45.9648 -0.553336 40.2316 -0.37485C39.731 -0.361629 39.2465 0.0945024 38.7539 0.345705C39.3272 0.517581 39.8844 0.795226 40.4739 0.848111C46.0698 1.35052 51.6738 1.81326 57.2697 2.28922C68.0658 5.03262 77.4812 10.0236 87.1872 14.5387C87.8574 14.9419 88.568 15.3055 89.1898 15.755C92.3067 18.0026 97.7007 20.1048 96.7721 23.344C95.8516 26.5832 89.9569 26.365 85.9194 26.9137C73.0965 28.6589 55.8566 31.7791 41.4509 34.9588C40.3931 35.1902 39.1011 40.6439 39.2223 40.8224C39.9974 41.9462 48.4761 38.4294 49.7277 38.0856C62.8414 34.4762 76.1892 32.3542 89.5935 29.9149C95.1248 28.9101 102.659 28.844 103.135 22.8217C103.587 17.0573 96.5945 15.4311 91.1843 13.4677H91.2085Z" fill="#7A401C"/>
<path opacity="0.25" d="M127.092 40.109C122.707 35.4683 116.505 34.3776 109.852 34.8139C103.658 35.2171 97.5213 36.3277 91.3279 36.612C76.7123 37.2929 62.0967 37.749 48.2482 42.2574C45.2444 42.9053 42.2324 43.52 39.2528 44.2274C38.6068 44.3794 38.0738 44.862 37.4844 45.1925C38.1223 45.3776 38.8167 45.7875 39.3981 45.7082C42.6039 45.2719 45.8015 44.7562 48.9992 44.2538C49.4998 44.2803 50.0328 44.3265 50.4688 44.0225C51.8577 43.7977 53.2385 43.5663 54.6274 43.3614C77.5359 39.9768 100.251 41.2857 122.877 45.1793C124.572 45.4702 126.413 47.2418 127.972 45.4768C129.546 43.6853 128.594 41.7087 127.1 40.1156L127.092 40.109Z" fill="#7A401C"/>
</g>
<path d="M65.1797 55.7028L78.0269 55.6631L97.5601 55.8746L79.9325 56.9654L65.1797 55.7028Z" fill="#542909"/>
<path d="M116.745 45.04C116.745 45.04 115.727 50.7384 113.103 53.1645C111.262 54.87 106.256 55.6368 100.312 55.8682C100.312 55.8682 111.553 56.0401 114.613 54.0767C117.682 52.1134 116.745 45.04 116.745 45.04Z" fill="#542909"/>
<path d="M65.1562 3.80378L77.9954 3.84344L97.7143 2.95762L79.9091 2.54115L65.1562 3.80378Z" fill="#EBB273"/>
<path d="M116.714 14.4666C116.714 14.4666 116.682 8.90048 114.05 6.4744C112.209 4.76886 106.33 3.34758 100.379 3.11621C100.379 3.11621 110.682 3.20215 114.575 5.42992C117.764 7.26106 116.706 14.4666 116.706 14.4666H116.714Z" fill="#EBB273"/>
<path d="M121.522 36.2884L116.822 33.6772L110.273 34.7878L116.822 35.786L121.522 36.2884Z" fill="#542909"/>
<path d="M72.1875 41.6493C72.1875 41.6493 87.0696 40.3735 97.0663 41.0147C107.063 41.6559 116.882 44.2142 116.882 44.2142C116.882 44.2142 106.57 42.9913 96.6787 42.5285C86.7869 42.0658 72.1956 41.6559 72.1956 41.6559L72.1875 41.6493Z" fill="#B57650"/>
<path opacity="0.48" d="M103.722 7.59103C83.0504 5.83261 59.9885 8.15293 59.9885 8.15293C56.7747 8.15293 53.4801 10.6055 53.036 13.177C50.5166 27.9318 52.4304 45.8333 52.4304 45.8333C52.4304 48.4247 57.0734 51.4391 60.2953 51.4391C60.2953 51.4391 85.6505 53.224 104.36 51.254C107.55 50.9169 110.021 48.8412 110.473 46.2696C113.541 28.7185 110.473 13.5935 110.473 13.5935C110.319 10.2419 106.928 7.85545 103.73 7.58442L103.722 7.59103Z" fill="url(#paint8_linear_2329_220986)"/>
<path d="M52.0195 22.1476C52.0195 22.1476 52.1084 13.382 53.0612 11.5773C54.014 9.77257 54.9669 7.94805 59.9087 7.70345C65.1574 7.43903 73.9671 6.29539 82.9464 6.18301C91.9257 6.07063 104.603 6.78458 106.703 7.81583C108.81 8.84709 111.096 9.63375 111.217 18.7167C111.217 18.7167 110.353 9.69324 106.283 8.78098C102.213 7.86872 91.0617 7.2936 91.0617 7.2936C91.0617 7.2936 96.1731 10.4402 97.7235 10.7642C97.7235 10.7642 90.2946 7.2936 87.2746 7.35309C84.2546 7.41259 73.3131 7.69684 73.3131 7.69684L75.9051 9.13134C75.9051 9.13134 72.6105 7.57785 69.6632 7.63735C66.7159 7.69684 57.8738 8.15958 56.4042 9.47509C54.9346 10.7972 53.3034 10.8699 52.8835 15.8147C52.8835 15.8147 54.4178 16.6079 55.1203 17.3681C55.1203 17.3681 53.8687 16.6013 52.9481 16.3171L52.0195 22.141V22.1476Z" fill="#542909"/>
<path d="M51.9403 38.9316C51.9403 38.9316 52.7317 47.2808 55.1137 48.5435C57.4958 49.8061 58.0369 50.9034 63.6409 51.1216C69.2368 51.3397 75.7451 50.4407 76.2135 50.5332C76.6818 50.6258 86.2748 51.505 87.2761 51.5645C88.2855 51.6174 102.166 51.3728 104.783 50.5332C107.399 49.6937 110.306 48.1071 110.806 44.2069C110.806 44.2069 111.154 48.6955 107.867 50.4605C104.581 52.2189 91.572 52.1859 91.572 52.1859C91.572 52.1859 93.3727 52.7676 97.1356 54.4071C97.1356 54.4071 93.1143 52.7015 87.2115 52.1859C81.3087 51.6703 70.7145 52.1528 67.5572 52.1859C64.408 52.2189 55.2187 52.1661 53.6764 49.0921C52.1341 46.0182 51.7384 43.8169 51.7384 43.8169L50.0508 44.2069C50.0508 44.2069 51.6819 43.8764 51.7384 41.7874C51.795 39.6985 51.9403 38.9316 51.9403 38.9316Z" fill="#B57650"/>
</g>
<defs>
<linearGradient id="paint0_linear_2329_220986" x1="39.5162" y1="59.7889" x2="39.5162" y2="-0.0700393" gradientUnits="userSpaceOnUse">
<stop stop-color="#77421F"/>
<stop offset="0.25" stop-color="#7A4420"/>
<stop offset="0.44" stop-color="#834C24"/>
<stop offset="0.61" stop-color="#945A2A"/>
<stop offset="0.77" stop-color="#AB6D33"/>
<stop offset="0.92" stop-color="#C9853F"/>
<stop offset="1" stop-color="#DB9446"/>
</linearGradient>
<linearGradient id="paint1_linear_2329_220986" x1="39.5158" y1="55.9145" x2="39.5158" y2="2.95703" gradientUnits="userSpaceOnUse">
<stop stop-color="#99572F"/>
<stop offset="0.23" stop-color="#A05F34"/>
<stop offset="0.6" stop-color="#B57844"/>
<stop offset="1" stop-color="#D1995A"/>
</linearGradient>
<linearGradient id="paint2_linear_2329_220986" x1="39.7826" y1="52.1861" x2="39.7826" y2="6.93658" gradientUnits="userSpaceOnUse">
<stop stop-color="#72420C"/>
<stop offset="0.3" stop-color="#4E2A07"/>
<stop offset="0.57" stop-color="#341903"/>
<stop offset="0.81" stop-color="#240F00"/>
<stop offset="1" stop-color="#1F0C00"/>
</linearGradient>
<linearGradient id="paint3_linear_2329_220986" x1="59.8447" y1="59.7889" x2="59.8447" y2="-0.0700393" gradientUnits="userSpaceOnUse">
<stop stop-color="#77421F"/>
<stop offset="0.25" stop-color="#7A4420"/>
<stop offset="0.44" stop-color="#834C24"/>
<stop offset="0.61" stop-color="#945A2A"/>
<stop offset="0.77" stop-color="#AB6D33"/>
<stop offset="0.92" stop-color="#C9853F"/>
<stop offset="1" stop-color="#DB9446"/>
</linearGradient>
<linearGradient id="paint4_linear_2329_220986" x1="59.8462" y1="55.9145" x2="59.8462" y2="2.95703" gradientUnits="userSpaceOnUse">
<stop stop-color="#99572F"/>
<stop offset="0.23" stop-color="#A05F34"/>
<stop offset="0.6" stop-color="#B57844"/>
<stop offset="1" stop-color="#D1995A"/>
</linearGradient>
<linearGradient id="paint5_linear_2329_220986" x1="60.483" y1="52.1861" x2="60.483" y2="6.93658" gradientUnits="userSpaceOnUse">
<stop stop-color="#72420C"/>
<stop offset="0.3" stop-color="#4E2A07"/>
<stop offset="0.57" stop-color="#341903"/>
<stop offset="0.81" stop-color="#240F00"/>
<stop offset="1" stop-color="#1F0C00"/>
</linearGradient>
<linearGradient id="paint6_linear_2329_220986" x1="81.5162" y1="59.7889" x2="81.5162" y2="-0.0700393" gradientUnits="userSpaceOnUse">
<stop stop-color="#77421F"/>
<stop offset="0.25" stop-color="#7A4420"/>
<stop offset="0.44" stop-color="#834C24"/>
<stop offset="0.61" stop-color="#945A2A"/>
<stop offset="0.77" stop-color="#AB6D33"/>
<stop offset="0.92" stop-color="#C9853F"/>
<stop offset="1" stop-color="#DB9446"/>
</linearGradient>
<linearGradient id="paint7_linear_2329_220986" x1="81.5158" y1="55.9145" x2="81.5158" y2="2.95703" gradientUnits="userSpaceOnUse">
<stop stop-color="#99572F"/>
<stop offset="0.23" stop-color="#A05F34"/>
<stop offset="0.6" stop-color="#B57844"/>
<stop offset="1" stop-color="#D1995A"/>
</linearGradient>
<linearGradient id="paint8_linear_2329_220986" x1="81.7826" y1="52.1861" x2="81.7826" y2="6.93658" gradientUnits="userSpaceOnUse">
<stop stop-color="#72420C"/>
<stop offset="0.3" stop-color="#4E2A07"/>
<stop offset="0.57" stop-color="#341903"/>
<stop offset="0.81" stop-color="#240F00"/>
<stop offset="1" stop-color="#1F0C00"/>
</linearGradient>
<clipPath id="clip0_2329_220986">
<rect width="25" height="60" fill="white"/>
</clipPath>
<clipPath id="clip1_2329_220986">
<rect width="72" height="60" fill="white" transform="translate(25)"/>
</clipPath>
<clipPath id="clip2_2329_220986">
<rect width="25" height="60" fill="white" transform="translate(97)"/>
</clipPath>
</defs>
</svg>
