<svg width="60" height="60" viewBox="0 0 60 60" fill="none" xmlns="http://www.w3.org/2000/svg">
<g clip-path="url(#clip0_79653_7062)">
<path d="M8.13899 1.12138C14.1693 -0.375328 46.7511 -0.210493 52.2723 1.22028C57.9147 2.67742 59.6178 4.51039 59.8602 11.9346C60.1026 19.3587 59.9814 44.2357 59.8602 48.9236C59.739 53.6115 55.3087 58.9521 50.3996 59.473C45.4905 59.9939 10.8905 59.862 8.13899 58.9521C5.38748 58.0423 0.478385 54.917 0.114748 47.3609C-0.242827 39.8049 -0.36404 14.928 0.593536 11.0247C1.55111 7.12138 1.31475 2.82247 8.13293 1.12797L8.13899 1.12138Z" fill="url(#paint0_linear_79653_7062)"/>
<path d="M35.0261 55.9121C21.0442 55.9121 10.7473 55.556 9.08667 55.2264C7.78364 54.7714 3.93515 52.9516 3.66243 47.1626C3.24424 38.334 3.29273 15.0329 4.02606 12.0198C4.18364 11.367 4.31091 10.7406 4.43212 10.134C5.05636 6.9758 5.29273 5.79558 8.92909 4.89229C12.1958 4.0813 25.8806 3.09229 37.2018 3.09229C48.523 3.09229 50.7352 4.06811 50.82 4.10767C55.4261 6.44174 56.1352 6.79778 56.3049 12.0659C56.5352 19.2791 56.4261 44.0769 56.3049 48.811C56.2382 51.5011 53.1958 55.2857 50.0564 55.622C48.42 55.7934 42.517 55.9055 35.0321 55.9055L35.0261 55.9121Z" fill="url(#paint1_linear_79653_7062)"/>
<mask id="mask0_79653_7062" style="mask-type:luminance" maskUnits="userSpaceOnUse" x="-1" y="0" width="61" height="60">
<path d="M8.13724 1.12102C14.1675 -0.375686 46.5857 -0.210851 52.1312 1.10124C57.4342 2.35398 59.616 4.51003 59.8524 11.9342C60.0948 19.3584 59.9736 44.2353 59.8524 48.9232C59.7312 53.6111 55.3009 58.9518 50.3918 59.4727C45.4827 59.9935 10.8827 59.8617 8.13118 58.9518C5.37966 58.0419 0.470572 54.9166 0.106936 47.3606C-0.25064 39.8045 -0.371852 14.9276 0.585724 11.0243C1.5433 7.12102 1.30694 2.82212 8.12512 1.12761L8.13724 1.12102Z" fill="white"/>
</mask>
<g mask="url(#mask0_79653_7062)">
<path opacity="0.5" d="M22.5768 48.376C31.2434 50.0243 41.2374 51.8309 48.795 60.2573C49.7222 61.2925 51.1889 62.743 50.001 64.2199C48.7828 65.7364 47.1404 64.3848 45.9707 63.5936C34.9646 56.1826 23.1343 53.3144 10.3889 56.1562C6.47374 57.0265 2.72829 58.8133 -1.10202 60.1584C-1.87171 60.4287 -2.81111 61.1144 -3.39293 60.0397C-3.96868 58.9716 -3.04747 58.2661 -2.38081 57.8111C4.85556 52.8595 12.304 48.4881 22.5828 48.376H22.5768Z" fill="#29303F"/>
<path opacity="0.15" d="M66.3115 21.8112C66.063 22.2991 65.9054 22.965 65.5115 23.2551C65.2387 23.4595 64.4569 23.3276 64.2206 23.0375C59.4751 17.2617 52.7175 15.6793 46.5054 13.0551C38.9115 9.85071 32.6569 4.45731 26.2751 -0.771265C25.5781 -1.34489 24.6327 -2.12951 25.1781 -3.25039C25.76 -4.45698 26.8751 -3.85698 27.6448 -3.47456C38.5721 1.95181 49.5539 7.2595 60.3478 12.9958C63.3842 14.6112 65.3842 17.8617 66.3175 21.798L66.3115 21.8112Z" fill="#29303F"/>
<path opacity="0.25" d="M12.8427 13.5889C8.91539 11.723 4.84872 10.1933 0.806297 8.63724C0.175994 8.39329 -0.648248 8.75592 -1.38764 8.83504C-0.86643 9.4746 -0.442187 10.2724 0.194176 10.7274C2.36387 12.2966 4.49115 14.0306 6.84266 15.1977C12.2851 17.901 12.3154 20.8021 7.48509 24.2372C3.84872 26.0372 0.206297 27.8241 -3.41795 29.657C-3.75734 29.8285 -3.96946 30.29 -4.24219 30.6197C-3.95128 30.7054 -3.61188 30.9493 -3.38764 30.857C0.569934 29.2153 4.51539 27.5405 8.46084 25.8658C8.69721 25.7933 8.93357 25.6812 9.16387 25.5691C12.0427 24.2109 15.0002 22.912 15.479 18.9032C15.7699 16.4834 14.7457 14.4922 12.8427 13.5889Z" fill="#29303F"/>
<path opacity="0.25" d="M37.1939 13.5761C37.0969 13.5101 36.9939 13.4508 36.8909 13.4046C28.9515 8.90133 21.4909 3.28375 12.5636 1.08155C12.2909 0.883747 11.9879 0.784846 11.7212 0.831C7.53331 -0.408561 3.23634 -0.408561 -1.06669 -0.230539C-1.44245 -0.217352 -1.80608 0.237593 -2.17578 0.488142C-1.74548 0.659571 -1.3273 0.936494 -0.884872 0.989241C3.31513 1.49034 7.52119 1.95188 11.7212 2.4266C19.8242 5.16287 26.8909 10.1409 34.1757 14.6442C34.6788 15.0464 35.2121 15.409 35.6788 15.8574C38.0182 18.0991 42.0666 20.1958 41.3697 23.4266C40.6788 26.6574 36.2545 26.4398 33.2242 26.987C23.6 28.7277 10.6606 31.8398 -0.151539 35.0112C-0.945478 35.242 -1.91518 40.6815 -1.82427 40.8596C-1.24245 41.9804 5.12119 38.4728 6.06058 38.1299C15.903 34.5299 25.9212 32.4134 35.9818 29.9804C40.1333 28.9783 45.7878 28.9123 46.1454 22.9057C46.4848 17.1563 41.2363 15.5343 37.1757 13.5761H37.1939Z" fill="#29303F"/>
<path opacity="0.25" d="M64.1256 40.1477C60.8347 35.5191 56.1802 34.4312 51.1862 34.8664C46.5378 35.2686 41.9317 36.3763 37.2832 36.6598C26.3135 37.3389 15.3438 37.7939 4.94988 42.2906C2.69534 42.9367 0.43473 43.5499 -1.80163 44.2554C-2.28648 44.4071 -2.68648 44.8884 -3.12891 45.218C-2.65012 45.4027 -2.12891 45.8114 -1.69254 45.7323C0.713518 45.2972 3.11352 44.7829 5.51352 44.2818C5.88928 44.3082 6.28928 44.3543 6.61655 44.051C7.65897 43.8268 8.69534 43.5961 9.73776 43.3917C26.9317 40.0158 43.9802 41.3213 60.962 45.2049C62.2347 45.495 63.6166 47.262 64.7862 45.5016C65.9681 43.7147 65.2529 41.7433 64.1317 40.1543L64.1256 40.1477Z" fill="#29303F"/>
</g>
<path d="M17.6562 55.7017L27.2987 55.6621L41.9593 55.8731L28.729 56.961L17.6562 55.7017Z" fill="#1E2328"/>
<path d="M-0.134564 35.0042L3.45331 34.457L12.8169 31.49L2.99271 33.0724L-0.140625 34.6878L-0.134564 35.0042Z" fill="#1E2328"/>
<path d="M12.8187 31.4902L3.45507 34.4573L-0.132812 35.0045L3.75204 35.3012L12.9823 31.4507L12.8187 31.4902Z" fill="#99ABCF"/>
<path d="M3.5882 45.2173C3.5882 45.2173 3.52153 55.6546 15.8609 55.6546C15.8609 55.6546 8.33366 56.5645 5.87911 54.6063C3.42457 52.6481 3.5882 45.2173 3.5882 45.2173Z" fill="#1E2328"/>
<path d="M56.3607 45.0659C56.3607 45.0659 55.597 50.7494 53.6273 53.1692C52.2455 54.8703 48.4879 55.6352 44.0273 55.8659C44.0273 55.8659 52.4637 56.0373 54.7607 54.0791C57.0637 52.1209 56.3607 45.0659 56.3607 45.0659Z" fill="#1E2328"/>
<path d="M17.6406 3.93659L27.277 3.97615L42.077 3.09263L28.7134 2.67725L17.6406 3.93659Z" fill="#99ABCF"/>
<path d="M3.70739 15.264C3.70739 15.264 4.47708 8.14973 6.69526 6.41566C8.08314 5.33435 12.0468 4.20687 16.5013 3.94973C16.5013 3.94973 8.53163 3.74533 6.07708 5.70358C3.62254 7.66182 3.70739 15.2574 3.70739 15.2574V15.264Z" fill="#99ABCF"/>
<path d="M56.3387 14.5714C56.3387 14.5714 56.3145 9.01972 54.3387 6.59994C52.9569 4.89884 48.5448 3.48126 44.0781 3.25049C44.0781 3.25049 51.8115 3.3362 54.7327 5.55818C57.1266 7.38455 56.3327 14.5714 56.3327 14.5714H56.3387Z" fill="#99ABCF"/>
<path d="M59.9424 36.3363L56.4151 33.7319L51.5 34.8396L56.4151 35.8352L59.9424 36.3363Z" fill="#1E2328"/>
<path d="M12.7656 25.6813L16.7777 24.0527L19.1959 25.6813H12.7656Z" fill="#1E2328"/>
<path d="M16.7777 26.7427L12.7656 25.6811H19.1959L16.7777 26.7427Z" fill="#99ABCF"/>
<path d="M22.9219 41.6838C22.9219 41.6838 34.0916 40.4113 41.5946 41.0509C49.0976 41.6904 56.4673 44.2421 56.4673 44.2421C56.4673 44.2421 48.7279 43.0223 41.3037 42.5607C33.8795 42.0992 22.9279 41.6904 22.9279 41.6904L22.9219 41.6838Z" fill="#646882"/>
<path opacity="0.48" d="M46.5896 7.71432C31.0745 5.96047 13.7654 8.27476 13.7654 8.27476C11.3533 8.27476 8.88056 10.7209 8.54723 13.2857C6.65632 28.0022 8.09268 45.8572 8.09268 45.8572C8.09268 48.4418 11.5775 51.4484 13.9957 51.4484C13.9957 51.4484 33.026 53.2286 47.0684 51.2638C49.4624 50.9275 51.3169 48.8572 51.6563 46.2923C53.9593 28.7868 51.6563 13.7011 51.6563 13.7011C51.5412 10.3583 48.9957 7.97805 46.5957 7.70772L46.5896 7.71432Z" fill="url(#paint2_linear_79653_7062)"/>
<path d="M7.78125 22.233C7.78125 22.233 7.84792 13.4902 8.56307 11.6902C9.27822 9.89016 9.99337 8.07038 13.7025 7.82642C17.6419 7.56269 24.254 6.42203 30.9934 6.30994C37.7328 6.19785 47.2479 6.90994 48.8237 7.93851C50.4055 8.96708 52.1206 9.75169 52.2116 18.811C52.2116 18.811 51.5631 9.81104 48.5085 8.90115C45.454 7.99126 37.0843 7.41763 37.0843 7.41763C37.0843 7.41763 40.9206 10.5561 42.0843 10.8792C42.0843 10.8792 36.5085 7.41763 34.2419 7.47697C31.9752 7.53631 23.7631 7.81983 23.7631 7.81983L25.7085 9.2506C25.7085 9.2506 23.2358 7.70115 21.0237 7.76049C18.8116 7.81983 12.1752 8.28137 11.0722 9.59345C9.96913 10.9121 8.74489 10.9847 8.42973 15.9165C8.42973 15.9165 9.58125 16.7077 10.1085 17.466C10.1085 17.466 9.16913 16.7011 8.47822 16.4176L7.78125 22.2264V22.233Z" fill="#1E2328"/>
<path d="M7.72287 38.9736C7.72287 38.9736 8.31681 47.3011 10.1047 48.5604C11.8926 49.8198 12.2986 50.9143 16.5047 51.1319C20.7047 51.3495 25.5895 50.4528 25.9411 50.5451C26.2926 50.6374 33.4926 51.5143 34.2441 51.5736C35.0017 51.6264 45.4198 51.3824 47.3835 50.5451C49.3471 49.7077 51.5289 48.1253 51.9047 44.2352C51.9047 44.2352 52.1653 48.7121 49.6986 50.4725C47.232 52.2264 37.4683 52.1934 37.4683 52.1934C37.4683 52.1934 38.8198 52.7736 41.6441 54.4088C41.6441 54.4088 38.6259 52.7077 34.1956 52.1934C29.7653 51.6791 21.8138 52.1604 19.4441 52.1934C17.0804 52.2264 10.1835 52.1736 9.0259 49.1077C7.86832 46.0418 7.57135 43.8462 7.57135 43.8462L6.30469 44.2352C6.30469 44.2352 7.52893 43.9055 7.57135 41.822C7.61378 39.7385 7.72287 38.9736 7.72287 38.9736Z" fill="#646882"/>
</g>
<defs>
<linearGradient id="paint0_linear_79653_7062" x1="29.9208" y1="59.7763" x2="29.9208" y2="0.0730213" gradientUnits="userSpaceOnUse">
<stop stop-color="#28313F"/>
<stop offset="0.22" stop-color="#2A3342"/>
<stop offset="0.39" stop-color="#313B4B"/>
<stop offset="0.55" stop-color="#3E495C"/>
<stop offset="0.7" stop-color="#4F5C73"/>
<stop offset="0.83" stop-color="#667491"/>
<stop offset="0.96" stop-color="#8192B5"/>
<stop offset="1" stop-color="#8A9CC1"/>
</linearGradient>
<linearGradient id="paint1_linear_79653_7062" x1="29.917" y1="55.9121" x2="29.917" y2="3.09229" gradientUnits="userSpaceOnUse">
<stop stop-color="#544F74"/>
<stop offset="0.31" stop-color="#58577C"/>
<stop offset="0.82" stop-color="#647092"/>
<stop offset="1" stop-color="#6A7A9C"/>
</linearGradient>
<linearGradient id="paint2_linear_79653_7062" x1="30.123" y1="52.1934" x2="30.123" y2="7.06157" gradientUnits="userSpaceOnUse">
<stop stop-color="#2B5747"/>
<stop offset="0.07" stop-color="#295144"/>
<stop offset="0.43" stop-color="#243534"/>
<stop offset="0.75" stop-color="#242424"/>
<stop offset="1" stop-color="#202020"/>
</linearGradient>
<clipPath id="clip0_79653_7062">
<rect width="60" height="60" fill="white"/>
</clipPath>
</defs>
</svg>
