<svg width="212" height="60" viewBox="0 0 212 60" fill="none" xmlns="http://www.w3.org/2000/svg">
<g clip-path="url(#clip0_79653_9783)">
<path d="M10.495 0.981048C18.5295 -0.519558 61.9402 -0.354293 69.2964 1.08021C76.8142 2.54115 79.0832 4.3789 79.4062 11.8224C79.7292 19.266 79.5677 44.2077 79.4062 48.9079C79.2447 53.608 73.342 58.9626 66.8013 59.4848C60.2606 60.0071 14.161 59.8749 10.495 58.9626C6.82895 58.0503 0.288278 54.9169 -0.196217 47.3412C-0.672636 39.7654 -0.834134 14.8236 0.441701 10.9102C1.71754 6.99669 1.40262 2.68658 10.4869 0.987659L10.495 0.981048Z" fill="url(#paint0_linear_79653_9783)"/>
<path d="M46.323 55.9145C27.6942 55.9145 13.9749 55.5576 11.7624 55.227C10.0263 54.7709 4.89869 52.9464 4.53532 47.1423C3.97815 38.2907 4.04275 14.9288 5.01982 11.9078C5.22976 11.2533 5.39934 10.6253 5.56083 10.0172C6.39255 6.85067 6.70747 5.66738 11.5524 4.76172C15.9048 3.94862 34.1379 2.95703 49.2219 2.95703C64.3058 2.95703 67.2531 3.9354 67.3662 3.97506C73.5031 6.31522 74.4479 6.67219 74.674 11.9541C74.9808 19.1861 74.8355 44.0485 74.674 48.7949C74.5851 51.492 70.5315 55.2865 66.3487 55.6237C64.1685 55.7955 56.3036 55.9079 46.331 55.9079L46.323 55.9145Z" fill="url(#paint1_linear_79653_9783)"/>
<mask id="mask0_79653_9783" style="mask-type:luminance" maskUnits="userSpaceOnUse" x="-1" y="-1" width="81" height="61">
<path d="M10.4952 0.980725C18.5298 -0.519881 61.7224 -0.354616 69.111 0.960893C76.1765 2.21691 79.0835 4.37857 79.3984 11.8221C79.7214 19.2656 79.5599 44.2074 79.3984 48.9076C79.2369 53.6077 73.3342 58.9623 66.7935 59.4845C60.2528 60.0068 14.1532 59.8746 10.4871 58.9623C6.82114 58.05 0.280465 54.9166 -0.204029 47.3409C-0.680449 39.7651 -0.841947 14.8233 0.433888 10.9098C1.70972 6.99637 1.3948 2.68626 10.4791 0.987335L10.4952 0.980725Z" fill="white"/>
</mask>
<g mask="url(#mask0_79653_9783)">
<path opacity="0.5" d="M29.7331 48.3594C41.2803 50.012 54.5958 51.8233 64.6652 60.2717C65.9007 61.3095 67.8548 62.7639 66.2721 64.2446C64.649 65.7651 62.4607 64.4099 60.9023 63.6166C46.2383 56.1863 30.476 53.3107 13.4945 56.1599C8.27812 57.0325 3.28783 58.8239 -1.81551 60.1725C-2.84103 60.4435 -4.09264 61.131 -4.86783 60.0535C-5.63494 58.9826 -4.40756 58.2753 -3.51932 57.8191C6.12212 52.8546 16.0462 48.4718 29.7412 48.3594H29.7331Z" fill="#7A401C"/>
<path opacity="0.25" d="M16.7632 13.4806C11.5306 11.6098 6.11236 10.0761 0.726398 8.516C-0.113392 8.27141 -1.21158 8.63499 -2.19672 8.71432C-1.50228 9.35555 -0.937033 10.1554 -0.0891676 10.6116C2.80165 12.1849 5.63594 13.9235 8.76901 15.0935C16.0203 17.8039 16.0606 20.7126 9.62495 24.1567C4.78 25.9614 -0.0730176 27.7528 -4.90181 29.5906C-5.35401 29.7625 -5.63663 30.2252 -6 30.5557C-5.6124 30.6417 -5.16021 30.8863 -4.86144 30.7937C0.411477 29.1477 5.66824 27.4686 10.925 25.7895C11.2399 25.7168 11.5548 25.6044 11.8617 25.492C15.6973 24.1302 19.6378 22.8279 20.2758 18.8087C20.6633 16.3826 19.2987 14.3862 16.7632 13.4806Z" fill="#7A401C"/>
<path opacity="0.25" d="M49.2085 13.4677C49.0793 13.4016 48.942 13.3421 48.8048 13.2959C38.2266 8.78083 28.2864 3.1486 16.3921 0.940659C16.0287 0.742341 15.625 0.643183 15.2697 0.689457C9.68991 -0.553336 3.9648 -0.553336 -1.76839 -0.37485C-2.26903 -0.361629 -2.75352 0.0945024 -3.24609 0.345705C-2.67278 0.517581 -2.11561 0.795226 -1.52614 0.848111C4.06977 1.35052 9.67376 1.81326 15.2697 2.28922C26.0658 5.03262 35.4812 10.0236 45.1872 14.5387C45.8574 14.9419 46.568 15.3055 47.1898 15.755C50.3067 18.0026 55.7007 20.1048 54.7721 23.344C53.8516 26.5832 47.9569 26.365 43.9194 26.9137C31.0965 28.6589 13.8566 31.7791 -0.549075 34.9588C-1.60689 35.1902 -2.89887 40.6439 -2.77775 40.8224C-2.00256 41.9462 6.47609 38.4294 7.72771 38.0856C20.8414 34.4762 34.1892 32.3542 47.5935 29.9149C53.1248 28.9101 60.6587 28.844 61.1351 22.8217C61.5873 17.0573 54.5945 15.4311 49.1843 13.4677H49.2085Z" fill="#7A401C"/>
<path opacity="0.25" d="M85.0916 40.109C80.707 35.4683 74.5054 34.3776 67.8517 34.8139C61.6582 35.2171 55.5213 36.3277 49.3279 36.612C34.7123 37.2929 20.0967 37.749 6.24823 42.2574C3.24436 42.9053 0.232421 43.52 -2.74722 44.2274C-3.39321 44.3794 -3.92616 44.862 -4.51562 45.1925C-3.87771 45.3776 -3.18327 45.7875 -2.60187 45.7082C0.603867 45.2719 3.80153 44.7562 6.99919 44.2538C7.49984 44.2803 8.03278 44.3265 8.46883 44.0225C9.85771 43.7977 11.2385 43.5663 12.6274 43.3614C35.5359 39.9768 58.2506 41.2857 80.8765 45.1793C82.5723 45.4702 84.4133 47.2418 85.9718 45.4768C87.5464 43.6853 86.5936 41.7087 85.0997 40.1156L85.0916 40.109Z" fill="#7A401C"/>
</g>
<path d="M23.1797 55.7028L36.0269 55.6631L55.5601 55.8746L37.9325 56.9654L23.1797 55.7028Z" fill="#542909"/>
<path d="M-0.527081 34.9522L4.25326 34.4035L16.729 31.4287L3.63957 33.0153L-0.535156 34.6349L-0.527081 34.9522Z" fill="#542909"/>
<path d="M16.7287 31.4288L4.253 34.4036L-0.527344 34.9523L4.64867 35.2498L16.9468 31.3892L16.7287 31.4288Z" fill="#EBB273"/>
<path d="M4.43271 45.1924C4.43271 45.1924 4.34388 55.657 20.7844 55.657C20.7844 55.657 10.7554 56.5692 7.48502 54.6059C4.21468 52.6425 4.43271 45.1924 4.43271 45.1924Z" fill="#542909"/>
<path d="M23.1562 3.80378L35.9954 3.84344L55.7143 2.95762L37.9091 2.54115L23.1562 3.80378Z" fill="#EBB273"/>
<path d="M4.59422 15.1614C4.59422 15.1614 5.61974 8.02859 8.57515 6.29C10.4243 5.20586 15.7053 4.07545 21.6404 3.81764C21.6404 3.81764 11.0219 3.61271 7.75151 5.57605C4.48117 7.5394 4.59422 15.1548 4.59422 15.1548V15.1614Z" fill="#EBB273"/>
<path d="M16.6641 25.6048L22.0097 23.972L25.2315 25.6048H16.6641Z" fill="#542909"/>
<path d="M22.0097 26.6689L16.6641 25.6046H25.2315L22.0097 26.6689Z" fill="#EBB273"/>
<path opacity="0.48" d="M61.7222 7.59103C41.0504 5.83261 17.9885 8.15293 17.9885 8.15293C14.7747 8.15293 11.4801 10.6055 11.036 13.177C8.5166 27.9318 10.4304 45.8333 10.4304 45.8333C10.4304 48.4247 15.0734 51.4391 18.2953 51.4391C18.2953 51.4391 43.6505 53.224 62.3601 51.254C65.5497 50.9169 68.0206 48.8412 68.4728 46.2696C71.5413 28.7185 68.4728 13.5935 68.4728 13.5935C68.3194 10.2419 64.9279 7.85545 61.7302 7.58442L61.7222 7.59103Z" fill="url(#paint2_linear_79653_9783)"/>
<path d="M10.0195 22.1476C10.0195 22.1476 10.1084 13.382 11.0612 11.5773C12.014 9.77257 12.9669 7.94805 17.9087 7.70345C23.1574 7.43903 31.9671 6.29539 40.9464 6.18301C49.9257 6.07063 62.6033 6.78458 64.7028 7.81583C66.8104 8.84709 69.0956 9.63375 69.2167 18.7167C69.2167 18.7167 68.3527 9.69324 64.2829 8.78098C60.2132 7.86872 49.0617 7.2936 49.0617 7.2936C49.0617 7.2936 54.1731 10.4402 55.7235 10.7642C55.7235 10.7642 48.2946 7.2936 45.2746 7.35309C42.2546 7.41259 31.3131 7.69684 31.3131 7.69684L33.9051 9.13134C33.9051 9.13134 30.6105 7.57785 27.6632 7.63735C24.7159 7.69684 15.8738 8.15958 14.4042 9.47509C12.9346 10.7972 11.3034 10.8699 10.8835 15.8147C10.8835 15.8147 12.4178 16.6079 13.1203 17.3681C13.1203 17.3681 11.8687 16.6013 10.9481 16.3171L10.0195 22.141V22.1476Z" fill="#542909"/>
<path d="M9.94031 38.9316C9.94031 38.9316 10.7317 47.2808 13.1137 48.5435C15.4958 49.8061 16.0369 50.9034 21.6409 51.1216C27.2368 51.3397 33.7451 50.4407 34.2135 50.5332C34.6818 50.6258 44.2748 51.505 45.2761 51.5645C46.2855 51.6174 60.1662 51.3728 62.7825 50.5332C65.3988 49.6937 68.3057 48.1071 68.8064 44.2069C68.8064 44.2069 69.1536 48.6955 65.8671 50.4605C62.5806 52.2189 49.572 52.1859 49.572 52.1859C49.572 52.1859 51.3727 52.7676 55.1356 54.407C55.1356 54.407 51.1143 52.7015 45.2115 52.1859C39.3087 51.6703 28.7145 52.1528 25.5572 52.1859C22.408 52.2189 13.2187 52.1661 11.6764 49.0921C10.1341 46.0182 9.73844 43.8169 9.73844 43.8169L8.05078 44.2069C8.05078 44.2069 9.68191 43.8764 9.73844 41.7874C9.79496 39.6985 9.94031 38.9316 9.94031 38.9316Z" fill="#B57650"/>
</g>
<g clip-path="url(#clip1_79653_9783)">
<path d="M-53.3155 0.981048C-9.92902 -0.519558 224.489 -0.354293 264.212 1.08021C304.808 2.54115 317.061 4.3789 318.805 11.8224C320.549 19.266 319.677 44.2077 318.805 48.9079C317.933 53.608 286.058 58.9626 250.739 59.4848C215.419 60.0071 -33.5191 59.8749 -53.3155 58.9626C-73.1119 58.0503 -108.432 54.9169 -111.048 47.3412C-113.621 39.7654 -114.493 14.8236 -107.603 10.9102C-100.714 6.99669 -102.414 2.68658 -53.3591 0.987659L-53.3155 0.981048Z" fill="url(#paint3_linear_79653_9783)"/>
<path d="M140.162 55.9145C39.5664 55.9145 -34.5176 55.5576 -46.4653 55.227C-55.8402 54.7709 -83.5291 52.9464 -85.4913 47.1423C-88.5 38.2907 -88.1512 14.9288 -82.875 11.9078C-81.7413 11.2533 -80.8256 10.6253 -79.9535 10.0172C-75.4623 6.85067 -73.7617 5.66738 -47.599 4.76172C-24.0962 3.94862 74.3628 2.95703 155.816 2.95703C237.269 2.95703 253.185 3.9354 253.795 3.97506C286.935 6.31522 292.036 6.67219 293.257 11.9541C294.914 19.1861 294.129 44.0485 293.257 48.7949C292.778 51.492 270.888 55.2865 248.301 55.6237C236.528 55.7955 194.057 55.9079 140.206 55.9079L140.162 55.9145Z" fill="url(#paint4_linear_79653_9783)"/>
<mask id="mask1_79653_9783" style="mask-type:luminance" maskUnits="userSpaceOnUse" x="-113" y="-1" width="433" height="61">
<path d="M-53.3149 0.980725C-9.92839 -0.519881 223.312 -0.354616 263.21 0.960893C301.364 2.21691 317.062 4.37857 318.762 11.8221C320.506 19.2656 319.634 44.2074 318.762 48.9076C317.89 53.6077 286.015 58.9623 250.696 59.4845C215.376 60.0068 -33.562 59.8746 -53.3585 58.9623C-73.1549 58.05 -108.475 54.9166 -111.091 47.3409C-113.663 39.7651 -114.536 14.8233 -107.646 10.9098C-100.757 6.99637 -102.457 2.68626 -53.4021 0.987335L-53.3149 0.980725Z" fill="white"/>
</mask>
<g mask="url(#mask1_79653_9783)">
<path opacity="0.5" d="M50.552 48.3594C112.906 50.012 184.81 51.8233 239.185 60.2717C245.857 61.3095 256.409 62.7639 247.862 64.2446C239.098 65.7651 227.281 64.4099 218.865 63.6166C139.68 56.1863 54.5636 53.3107 -37.1367 56.1599C-65.3052 57.0325 -92.2528 58.8239 -119.811 60.1725C-125.349 60.4435 -132.107 61.131 -136.293 60.0535C-140.436 58.9826 -133.808 58.2753 -129.011 57.8191C-76.9476 52.8546 -23.3577 48.4718 50.5956 48.3594H50.552Z" fill="#7A401C"/>
<path opacity="0.15" d="M365.203 21.7246C363.415 22.2137 362.281 22.8814 359.447 23.1723C357.485 23.3772 351.86 23.245 350.159 22.9541C316.017 17.1632 267.398 15.5767 222.703 12.9457C168.067 9.73293 123.067 4.32546 77.1515 -0.916742C72.1369 -1.49186 65.3346 -2.27853 69.2591 -3.40233C73.4451 -4.61207 81.4683 -4.0105 87.0061 -3.62709C165.625 1.81343 244.636 7.13497 322.296 12.8862C344.142 14.5058 358.531 17.7648 365.246 21.7113L365.203 21.7246Z" fill="#7A401C"/>
<path opacity="0.25" d="M155.727 13.4677C155.03 13.4016 154.289 13.3421 153.547 13.2959C96.4254 8.78083 42.7482 3.1486 -21.4812 0.940659C-23.4434 0.742341 -25.6236 0.643183 -27.5422 0.689457C-57.6729 -0.553336 -88.5885 -0.553336 -119.548 -0.37485C-122.251 -0.361629 -124.867 0.0945024 -127.527 0.345705C-124.431 0.517581 -121.423 0.795226 -118.24 0.848111C-88.0217 1.35052 -57.7601 1.81326 -27.5422 2.28922C30.757 5.03262 81.5998 10.0236 134.012 14.5387C137.632 14.9419 141.469 15.3055 144.826 15.755C161.658 18.0026 190.785 20.1048 185.771 23.344C180.8 26.5832 148.969 26.365 127.167 26.9137C57.9226 28.6589 -35.173 31.7791 -112.963 34.9588C-118.676 35.1902 -125.652 40.6439 -124.998 40.8224C-120.812 41.9462 -75.0275 38.4294 -68.2688 38.0856C2.54488 34.4762 74.6231 32.3542 147.007 29.9149C176.876 28.9101 217.559 28.844 220.131 22.8217C222.573 17.0573 184.812 15.4311 155.597 13.4677H155.727Z" fill="#7A401C"/>
<path opacity="0.25" d="M349.5 40.109C325.823 35.4683 292.335 34.3776 256.405 34.8139C222.96 35.2171 189.821 36.3277 156.376 36.612C77.4518 37.2929 -1.4724 37.749 -76.2541 42.2574C-92.475 42.9053 -108.739 43.52 -124.83 44.2274C-128.318 44.3794 -131.196 44.862 -134.379 45.1925C-130.934 45.3776 -127.184 45.7875 -124.045 45.7082C-106.734 45.2719 -89.4663 44.7562 -72.1989 44.2538C-69.4954 44.2803 -66.6175 44.3265 -64.2629 44.0225C-56.7629 43.7977 -49.3065 43.5663 -41.8066 43.3614C81.8994 39.9768 204.559 41.2857 326.739 45.1793C335.896 45.4702 345.837 47.2418 354.253 45.4768C362.756 43.6853 357.611 41.7087 349.544 40.1156L349.5 40.109Z" fill="#7A401C"/>
</g>
<path d="M15.1875 55.7028L84.5623 55.6631L190.042 55.8746L94.8529 56.9654L15.1875 55.7028Z" fill="#542909"/>
<path d="M15.0547 3.80364L84.3858 3.8433L190.868 2.95748L94.7201 2.54102L15.0547 3.80364Z" fill="#EBB273"/>
<path d="M-20.0039 25.6045L8.86227 23.9717L26.2605 25.6045H-20.0039Z" fill="#542909"/>
<path d="M8.86227 26.6686L-20.0039 25.6043H26.2605L8.86227 26.6686Z" fill="#EBB273"/>
<path d="M53.0352 41.6493C53.0352 41.6493 133.398 40.3735 187.381 41.0147C241.363 41.6559 294.386 44.2142 294.386 44.2142C294.386 44.2142 238.703 42.9913 185.288 42.5285C131.872 42.0658 53.0788 41.6559 53.0788 41.6559L53.0352 41.6493Z" fill="#B57650"/>
<path opacity="0.48" d="M223.312 7.59103C111.685 5.83261 -12.8498 8.15293 -12.8498 8.15293C-30.2044 8.15293 -47.995 10.6055 -50.3932 13.177C-63.9978 27.9318 -53.6636 45.8333 -53.6636 45.8333C-53.6636 48.4247 -28.591 51.4391 -11.1928 51.4391C-11.1928 51.4391 125.725 53.224 226.757 51.254C243.981 50.9169 257.324 48.8412 259.766 46.2696C276.335 28.7185 259.766 13.5935 259.766 13.5935C258.937 10.2419 240.623 7.85545 223.356 7.58442L223.312 7.59103Z" fill="url(#paint5_linear_79653_9783)"/>
<path d="M-55.8906 22.1476C-55.8906 22.1476 -55.411 13.382 -50.2656 11.5773C-45.1203 9.77257 -39.975 7.94805 -13.289 7.70345C15.0539 7.43903 62.6264 6.29539 111.115 6.18301C159.603 6.07063 228.062 6.78458 239.399 7.81583C250.78 8.84709 263.12 9.63375 263.774 18.7167C263.774 18.7167 259.108 9.69324 237.132 8.78098C215.155 7.86872 154.937 7.2936 154.937 7.2936C154.937 7.2936 182.539 10.4402 190.911 10.7642C190.911 10.7642 150.795 7.2936 134.487 7.35309C118.179 7.41259 59.0944 7.69684 59.0944 7.69684L73.0915 9.13134C73.0915 9.13134 55.3008 7.57785 39.3852 7.63735C23.4696 7.69684 -24.2774 8.15958 -32.2134 9.47509C-40.1494 10.7972 -48.9575 10.8699 -51.2249 15.8147C-51.2249 15.8147 -42.9401 16.6079 -39.1465 17.3681C-39.1465 17.3681 -45.9052 16.6013 -50.8761 16.3171L-55.8906 22.141V22.1476Z" fill="#542909"/>
<path d="M-56.3239 38.9316C-56.3239 38.9316 -52.0506 47.2808 -39.1873 48.5435C-26.324 49.8061 -23.4025 50.9034 6.85902 51.1216C37.0769 51.3397 72.2222 50.4407 74.7512 50.5332C77.2803 50.6258 129.082 51.505 134.489 51.5645C139.94 51.6174 214.896 51.3728 229.024 50.5332C243.152 49.6937 258.849 48.1071 261.553 44.2069C261.553 44.2069 263.428 48.6955 245.681 50.4605C227.934 52.2189 157.687 52.1859 157.687 52.1859C157.687 52.1859 167.411 52.7676 187.73 54.407C187.73 54.407 166.015 52.7015 134.141 52.1859C102.266 51.6703 45.0566 52.1528 28.0072 52.1859C11.0015 52.2189 -38.6205 52.1661 -46.9489 49.0921C-55.2774 46.0182 -57.414 43.8169 -57.414 43.8169L-66.5273 44.2069C-66.5273 44.2069 -57.7192 43.8764 -57.414 41.7874C-57.1088 39.6985 -56.3239 38.9316 -56.3239 38.9316Z" fill="#B57650"/>
</g>
<g clip-path="url(#clip2_79653_9783)">
<path d="M142.495 0.981048C150.529 -0.519558 193.94 -0.354293 201.296 1.08021C208.814 2.54115 211.083 4.3789 211.406 11.8224C211.729 19.266 211.568 44.2077 211.406 48.9079C211.245 53.608 205.342 58.9626 198.801 59.4848C192.261 60.0071 146.161 59.8749 142.495 58.9626C138.829 58.0503 132.288 54.9169 131.804 47.3412C131.327 39.7654 131.166 14.8236 132.442 10.9102C133.718 6.99669 133.403 2.68658 142.487 0.987659L142.495 0.981048Z" fill="url(#paint6_linear_79653_9783)"/>
<path d="M178.323 55.9145C159.694 55.9145 145.975 55.5576 143.762 55.227C142.026 54.7709 136.899 52.9464 136.535 47.1423C135.978 38.2907 136.043 14.9288 137.02 11.9078C137.23 11.2533 137.399 10.6253 137.561 10.0172C138.393 6.85067 138.707 5.66738 143.552 4.76172C147.905 3.94862 166.138 2.95703 181.222 2.95703C196.306 2.95703 199.253 3.9354 199.366 3.97506C205.503 6.31522 206.448 6.67219 206.674 11.9541C206.981 19.1861 206.835 44.0485 206.674 48.7949C206.585 51.492 202.532 55.2865 198.349 55.6237C196.169 55.7955 188.304 55.9079 178.331 55.9079L178.323 55.9145Z" fill="url(#paint7_linear_79653_9783)"/>
<mask id="mask2_79653_9783" style="mask-type:luminance" maskUnits="userSpaceOnUse" x="131" y="-1" width="81" height="61">
<path d="M142.495 0.980725C150.53 -0.519881 193.722 -0.354616 201.111 0.960893C208.177 2.21691 211.083 4.37857 211.398 11.8221C211.721 19.2656 211.56 44.2074 211.398 48.9076C211.237 53.6077 205.334 58.9623 198.793 59.4845C192.253 60.0068 146.153 59.8746 142.487 58.9623C138.821 58.05 132.28 54.9166 131.796 47.3409C131.32 39.7651 131.158 14.8233 132.434 10.9098C133.71 6.99637 133.395 2.68626 142.479 0.987335L142.495 0.980725Z" fill="white"/>
</mask>
<g mask="url(#mask2_79653_9783)">
<path opacity="0.5" d="M161.733 48.3594C173.28 50.012 186.596 51.8233 196.665 60.2717C197.901 61.3095 199.855 62.7639 198.272 64.2446C196.649 65.7651 194.461 64.4099 192.902 63.6166C178.238 56.1863 162.476 53.3107 145.495 56.1599C140.278 57.0325 135.288 58.8239 130.184 60.1725C129.159 60.4435 127.907 61.131 127.132 60.0535C126.365 58.9826 127.592 58.2753 128.481 57.8191C138.122 52.8546 148.046 48.4718 161.741 48.3594H161.733Z" fill="#7A401C"/>
<path opacity="0.15" d="M220.001 21.7246C219.67 22.2137 219.46 22.8814 218.935 23.1723C218.572 23.3772 217.53 23.245 217.216 22.9541C210.893 17.1632 201.889 15.5767 193.613 12.9457C183.495 9.73293 175.161 4.32546 166.659 -0.916742C165.73 -1.49186 164.47 -2.27853 165.197 -3.40233C165.972 -4.61207 167.458 -4.0105 168.483 -3.62709C183.043 1.81343 197.674 7.13497 212.056 12.8862C216.101 14.5058 218.766 17.7648 220.009 21.7113L220.001 21.7246Z" fill="#7A401C"/>
<path opacity="0.25" d="M181.208 13.4677C181.079 13.4016 180.942 13.3421 180.805 13.2959C170.227 8.78083 160.286 3.1486 148.392 0.940659C148.029 0.742341 147.625 0.643183 147.27 0.689457C141.69 -0.553336 135.965 -0.553336 130.232 -0.37485C129.731 -0.361629 129.246 0.0945024 128.754 0.345705C129.327 0.517581 129.884 0.795226 130.474 0.848111C136.07 1.35052 141.674 1.81326 147.27 2.28922C158.066 5.03262 167.481 10.0236 177.187 14.5387C177.857 14.9419 178.568 15.3055 179.19 15.755C182.307 18.0026 187.701 20.1048 186.772 23.344C185.852 26.5832 179.957 26.365 175.919 26.9137C163.096 28.6589 145.857 31.7791 131.451 34.9588C130.393 35.1902 129.101 40.6439 129.222 40.8224C129.997 41.9462 138.476 38.4294 139.728 38.0856C152.841 34.4762 166.189 32.3542 179.594 29.9149C185.125 28.9101 192.659 28.844 193.135 22.8217C193.587 17.0573 186.594 15.4311 181.184 13.4677H181.208Z" fill="#7A401C"/>
<path opacity="0.25" d="M217.092 40.109C212.707 35.4683 206.505 34.3776 199.852 34.8139C193.658 35.2171 187.521 36.3277 181.328 36.612C166.712 37.2929 152.097 37.749 138.248 42.2574C135.244 42.9053 132.232 43.52 129.253 44.2274C128.607 44.3794 128.074 44.862 127.484 45.1925C128.122 45.3776 128.817 45.7875 129.398 45.7082C132.604 45.2719 135.802 44.7562 138.999 44.2538C139.5 44.2803 140.033 44.3265 140.469 44.0225C141.858 43.7977 143.239 43.5663 144.627 43.3614C167.536 39.9768 190.251 41.2857 212.877 45.1793C214.572 45.4702 216.413 47.2418 217.972 45.4768C219.546 43.6853 218.594 41.7087 217.1 40.1156L217.092 40.109Z" fill="#7A401C"/>
</g>
<path d="M155.18 55.7028L168.027 55.6631L187.56 55.8746L169.933 56.9654L155.18 55.7028Z" fill="#542909"/>
<path d="M206.745 45.04C206.745 45.04 205.727 50.7384 203.103 53.1645C201.262 54.87 196.256 55.6368 190.312 55.8682C190.312 55.8682 201.553 56.0401 204.613 54.0767C207.682 52.1134 206.745 45.04 206.745 45.04Z" fill="#542909"/>
<path d="M155.156 3.80378L167.995 3.84344L187.714 2.95762L169.909 2.54115L155.156 3.80378Z" fill="#EBB273"/>
<path d="M206.714 14.4666C206.714 14.4666 206.682 8.90048 204.05 6.4744C202.209 4.76886 196.33 3.34758 190.379 3.11621C190.379 3.11621 200.682 3.20215 204.575 5.42992C207.764 7.26106 206.706 14.4666 206.706 14.4666H206.714Z" fill="#EBB273"/>
<path d="M211.522 36.2884L206.822 33.6772L200.273 34.7878L206.822 35.786L211.522 36.2884Z" fill="#542909"/>
<path d="M162.188 41.6493C162.188 41.6493 177.07 40.3735 187.066 41.0147C197.063 41.6559 206.882 44.2142 206.882 44.2142C206.882 44.2142 196.57 42.9913 186.679 42.5285C176.787 42.0658 162.196 41.6559 162.196 41.6559L162.188 41.6493Z" fill="#B57650"/>
<path opacity="0.48" d="M193.722 7.59103C173.05 5.83261 149.988 8.15293 149.988 8.15293C146.775 8.15293 143.48 10.6055 143.036 13.177C140.517 27.9318 142.43 45.8333 142.43 45.8333C142.43 48.4247 147.073 51.4391 150.295 51.4391C150.295 51.4391 175.651 53.224 194.36 51.254C197.55 50.9169 200.021 48.8412 200.473 46.2696C203.541 28.7185 200.473 13.5935 200.473 13.5935C200.319 10.2419 196.928 7.85545 193.73 7.58442L193.722 7.59103Z" fill="url(#paint8_linear_79653_9783)"/>
<path d="M142.02 22.1476C142.02 22.1476 142.108 13.382 143.061 11.5773C144.014 9.77257 144.967 7.94805 149.909 7.70345C155.157 7.43903 163.967 6.29539 172.946 6.18301C181.926 6.07063 194.603 6.78458 196.703 7.81583C198.81 8.84709 201.096 9.63375 201.217 18.7167C201.217 18.7167 200.353 9.69324 196.283 8.78098C192.213 7.86872 181.062 7.2936 181.062 7.2936C181.062 7.2936 186.173 10.4402 187.724 10.7642C187.724 10.7642 180.295 7.2936 177.275 7.35309C174.255 7.41259 163.313 7.69684 163.313 7.69684L165.905 9.13134C165.905 9.13134 162.611 7.57785 159.663 7.63735C156.716 7.69684 147.874 8.15958 146.404 9.47509C144.935 10.7972 143.303 10.8699 142.884 15.8147C142.884 15.8147 144.418 16.6079 145.12 17.3681C145.12 17.3681 143.869 16.6013 142.948 16.3171L142.02 22.141V22.1476Z" fill="#542909"/>
<path d="M141.94 38.9316C141.94 38.9316 142.732 47.2808 145.114 48.5435C147.496 49.8061 148.037 50.9034 153.641 51.1216C159.237 51.3397 165.745 50.4407 166.213 50.5332C166.682 50.6258 176.275 51.505 177.276 51.5645C178.285 51.6174 192.166 51.3728 194.783 50.5332C197.399 49.6937 200.306 48.1071 200.806 44.2069C200.806 44.2069 201.154 48.6955 197.867 50.4605C194.581 52.2189 181.572 52.1859 181.572 52.1859C181.572 52.1859 183.373 52.7676 187.136 54.407C187.136 54.407 183.114 52.7015 177.212 52.1859C171.309 51.6703 160.714 52.1528 157.557 52.1859C154.408 52.2189 145.219 52.1661 143.676 49.0921C142.134 46.0182 141.738 43.8169 141.738 43.8169L140.051 44.2069C140.051 44.2069 141.682 43.8764 141.738 41.7874C141.795 39.6985 141.94 38.9316 141.94 38.9316Z" fill="#B57650"/>
</g>
<defs>
<linearGradient id="paint0_linear_79653_9783" x1="39.5162" y1="59.7889" x2="39.5162" y2="-0.0700393" gradientUnits="userSpaceOnUse">
<stop stop-color="#77421F"/>
<stop offset="0.25" stop-color="#7A4420"/>
<stop offset="0.44" stop-color="#834C24"/>
<stop offset="0.61" stop-color="#945A2A"/>
<stop offset="0.77" stop-color="#AB6D33"/>
<stop offset="0.92" stop-color="#C9853F"/>
<stop offset="1" stop-color="#DB9446"/>
</linearGradient>
<linearGradient id="paint1_linear_79653_9783" x1="39.5158" y1="55.9145" x2="39.5158" y2="2.95703" gradientUnits="userSpaceOnUse">
<stop stop-color="#99572F"/>
<stop offset="0.23" stop-color="#A05F34"/>
<stop offset="0.6" stop-color="#B57844"/>
<stop offset="1" stop-color="#D1995A"/>
</linearGradient>
<linearGradient id="paint2_linear_79653_9783" x1="39.7826" y1="52.1861" x2="39.7826" y2="6.93658" gradientUnits="userSpaceOnUse">
<stop stop-color="#72420C"/>
<stop offset="0.3" stop-color="#4E2A07"/>
<stop offset="0.57" stop-color="#341903"/>
<stop offset="0.81" stop-color="#240F00"/>
<stop offset="1" stop-color="#1F0C00"/>
</linearGradient>
<linearGradient id="paint3_linear_79653_9783" x1="103.399" y1="59.7889" x2="103.399" y2="-0.0700393" gradientUnits="userSpaceOnUse">
<stop stop-color="#77421F"/>
<stop offset="0.25" stop-color="#7A4420"/>
<stop offset="0.44" stop-color="#834C24"/>
<stop offset="0.61" stop-color="#945A2A"/>
<stop offset="0.77" stop-color="#AB6D33"/>
<stop offset="0.92" stop-color="#C9853F"/>
<stop offset="1" stop-color="#DB9446"/>
</linearGradient>
<linearGradient id="paint4_linear_79653_9783" x1="103.403" y1="55.9145" x2="103.403" y2="2.95703" gradientUnits="userSpaceOnUse">
<stop stop-color="#99572F"/>
<stop offset="0.23" stop-color="#A05F34"/>
<stop offset="0.6" stop-color="#B57844"/>
<stop offset="1" stop-color="#D1995A"/>
</linearGradient>
<linearGradient id="paint5_linear_79653_9783" x1="104.839" y1="52.1861" x2="104.839" y2="6.93658" gradientUnits="userSpaceOnUse">
<stop stop-color="#72420C"/>
<stop offset="0.3" stop-color="#4E2A07"/>
<stop offset="0.57" stop-color="#341903"/>
<stop offset="0.81" stop-color="#240F00"/>
<stop offset="1" stop-color="#1F0C00"/>
</linearGradient>
<linearGradient id="paint6_linear_79653_9783" x1="171.516" y1="59.7889" x2="171.516" y2="-0.0700393" gradientUnits="userSpaceOnUse">
<stop stop-color="#77421F"/>
<stop offset="0.25" stop-color="#7A4420"/>
<stop offset="0.44" stop-color="#834C24"/>
<stop offset="0.61" stop-color="#945A2A"/>
<stop offset="0.77" stop-color="#AB6D33"/>
<stop offset="0.92" stop-color="#C9853F"/>
<stop offset="1" stop-color="#DB9446"/>
</linearGradient>
<linearGradient id="paint7_linear_79653_9783" x1="171.516" y1="55.9145" x2="171.516" y2="2.95703" gradientUnits="userSpaceOnUse">
<stop stop-color="#99572F"/>
<stop offset="0.23" stop-color="#A05F34"/>
<stop offset="0.6" stop-color="#B57844"/>
<stop offset="1" stop-color="#D1995A"/>
</linearGradient>
<linearGradient id="paint8_linear_79653_9783" x1="171.783" y1="52.1861" x2="171.783" y2="6.93658" gradientUnits="userSpaceOnUse">
<stop stop-color="#72420C"/>
<stop offset="0.3" stop-color="#4E2A07"/>
<stop offset="0.57" stop-color="#341903"/>
<stop offset="0.81" stop-color="#240F00"/>
<stop offset="1" stop-color="#1F0C00"/>
</linearGradient>
<clipPath id="clip0_79653_9783">
<rect width="25" height="60" fill="white"/>
</clipPath>
<clipPath id="clip1_79653_9783">
<rect width="162" height="60" fill="white" transform="translate(25)"/>
</clipPath>
<clipPath id="clip2_79653_9783">
<rect width="25" height="60" fill="white" transform="translate(187)"/>
</clipPath>
</defs>
</svg>
