<svg width="60" height="60" viewBox="0 0 60 60" fill="none" xmlns="http://www.w3.org/2000/svg">
<mask id="mask0_79653_13173" style="mask-type:luminance" maskUnits="userSpaceOnUse" x="0" y="0" width="60" height="60">
<path d="M60 0H0V60H60V0Z" fill="white"/>
</mask>
<g mask="url(#mask0_79653_13173)">
<path d="M8.24933 0.980006C14.2793 -0.519994 46.8293 -0.359995 52.3493 1.08001C57.9893 2.54001 59.6893 4.38001 59.9293 11.82C60.1693 19.26 60.0493 44.21 59.9293 48.91C59.8093 53.61 55.3793 58.96 50.4793 59.49C45.5693 60.01 10.9993 59.88 8.24933 58.97C5.49933 58.06 0.589334 54.92 0.229334 47.35C-0.130666 39.77 -0.250666 14.83 0.709334 10.92C1.66933 7.01001 1.42933 2.70001 8.23933 1.00001L8.24933 0.980006Z" fill="url(#paint0_linear_79653_13173)"/>
<path d="M35.1207 55.91C21.1507 55.91 10.8607 55.55 9.20073 55.22C7.90073 54.76 4.05073 52.94 3.78073 47.14C3.36073 38.29 3.41073 14.93 4.14073 11.91C4.30073 11.26 4.42073 10.63 4.55073 10.02C5.17073 6.85002 5.41073 5.67002 9.04073 4.76002C12.3007 3.95002 25.9807 2.96002 37.2907 2.96002C48.6007 2.96002 50.8107 3.94002 50.9007 3.98002C55.5007 6.32002 56.2107 6.68002 56.3807 11.96C56.6107 19.19 56.5007 44.05 56.3807 48.8C56.3107 51.5 53.2707 55.29 50.1407 55.63C48.5007 55.8 42.6107 55.91 35.1307 55.91H35.1207Z" fill="url(#paint1_linear_79653_13173)"/>
<path opacity="0.5" d="M28.1852 40.8901C36.8452 42.5401 46.8352 44.3501 54.3852 52.8001C55.3152 53.8401 56.7752 55.2901 55.5952 56.7701C54.3752 58.2901 52.7352 56.9401 51.5652 56.1401C40.5652 48.7101 28.7452 45.8301 16.0052 48.6801C12.0952 49.5501 8.34524 51.3401 4.52524 52.6901C3.75524 52.9601 2.81524 53.6501 2.23524 52.5701C1.65524 51.5001 2.58524 50.7901 3.24524 50.3401C10.4752 45.3801 17.9152 40.9901 28.1952 40.8801L28.1852 40.8901Z" fill="#9B2C1C"/>
<path opacity="0.15" d="M66.3797 21.72C66.1297 22.21 65.9697 22.88 65.5797 23.17C65.3097 23.37 64.5297 23.24 64.2897 22.95C59.5497 17.16 52.7997 15.57 46.5897 12.94C38.9997 9.73003 32.7497 4.32003 26.3697 -0.919972C25.6697 -1.49997 24.7297 -2.27997 25.2697 -3.40997C25.8497 -4.61997 26.9697 -4.01997 27.7297 -3.62997C38.6497 1.81003 49.6197 7.13003 60.4097 12.88C63.4397 14.5 65.4397 17.76 66.3797 21.71V21.72Z" fill="#9B2C1C"/>
<path opacity="0.25" d="M17.08 14.0831C13.16 12.2131 9.09 10.6831 5.05 9.12311C4.42 8.88311 3.6 9.24311 2.86 9.32311C3.38 9.96311 3.8 10.7631 4.44 11.2231C6.61 12.7931 8.73 14.5331 11.08 15.7031C16.52 18.4131 16.55 21.3231 11.72 24.7631C8.09 26.5631 4.45 28.3631 0.82 30.1931C0.48 30.3631 0.27 30.8231 0 31.1631C0.29 31.2531 0.63 31.4931 0.85 31.4031C4.8 29.7531 8.75 28.0731 12.69 26.4031C12.93 26.3331 13.16 26.2131 13.39 26.1031C16.27 24.7431 19.22 23.4431 19.7 19.4231C19.99 16.9931 18.97 15.0031 17.07 14.0931L17.08 14.0831Z" fill="#9B2C1C"/>
<path opacity="0.25" d="M42.8459 17.5375C42.7459 17.4675 42.6459 17.4075 42.5459 17.3675C34.6159 12.8475 27.1559 7.2175 18.2359 5.0075C17.9659 4.8075 17.6559 4.7075 17.3959 4.7575C13.2159 3.5175 8.91586 3.5175 4.61586 3.6975C4.23586 3.7075 3.87586 4.1675 3.50586 4.4175C3.93586 4.5875 4.35586 4.8675 4.79586 4.9175C8.99586 5.4175 13.1959 5.8875 17.3959 6.3575C25.4959 9.0975 32.5559 14.0875 39.8359 18.6075C40.3359 19.0075 40.8759 19.3775 41.3359 19.8275C43.6759 22.0775 47.7159 24.1775 47.0259 27.4175C46.3359 30.6575 41.9159 30.4375 38.8859 30.9875C29.2659 32.7375 16.3359 35.8575 5.53586 39.0375C4.74586 39.2675 3.77586 44.7275 3.86586 44.8975C4.44586 46.0175 10.8059 42.5075 11.7459 42.1575C21.5859 38.5475 31.5959 36.4275 41.6459 33.9875C45.7959 32.9875 51.4459 32.9175 51.8059 26.8975C52.1459 21.1375 46.8959 19.5075 42.8459 17.5475H42.8659L42.8459 17.5375Z" fill="#9B2C1C"/>
<path opacity="0.25" d="M64.2002 40.1101C60.9102 35.4701 56.2602 34.3801 51.2702 34.8101C46.6202 35.2101 42.0202 36.3201 37.3802 36.6101C26.4202 37.2901 15.4602 37.7501 5.07023 42.2601C2.82023 42.9101 0.560235 43.5201 -1.67977 44.2301C-2.15977 44.3801 -2.55977 44.8601 -3.00977 45.2001C-2.52977 45.3901 -2.00977 45.7901 -1.56977 45.7201C0.830235 45.2801 3.23023 44.7701 5.63023 44.2701C6.01023 44.3001 6.41024 44.3401 6.73024 44.0401C7.77024 43.8201 8.81024 43.5801 9.85023 43.3801C27.0302 40.0001 44.0702 41.3001 61.0402 45.2001C62.3102 45.4901 63.6902 47.2601 64.8602 45.5001C66.0402 43.7101 65.3302 41.7301 64.2102 40.1401L64.2002 40.1101Z" fill="#9B2C1C"/>
<path d="M17.7695 55.7L27.4095 55.66L42.0595 55.87L28.8395 56.96L17.7795 55.7H17.7695Z" fill="#751509"/>
<path d="M-0.00976562 34.9501L3.58023 34.4001L12.9402 31.4301L3.12023 33.0201L-0.00976562 34.6401V34.9601V34.9501Z" fill="#751509"/>
<path d="M12.9305 31.43L3.57047 34.4L-0.0195312 34.95L3.86047 35.25L13.0805 31.39L12.9205 31.43H12.9305Z" fill="#FF9E73"/>
<path d="M3.6994 45.19C3.6994 45.19 3.6294 55.65 15.9594 55.65C15.9594 55.65 8.4394 56.56 5.9894 54.6C3.5394 52.64 3.6994 45.19 3.6994 45.19Z" fill="#751509"/>
<path d="M56.4411 45.04C56.4411 45.04 55.6811 50.74 53.7111 53.16C52.3311 54.87 48.5711 55.63 44.1211 55.86C44.1211 55.86 52.5511 56.03 54.8511 54.07C57.1511 52.11 56.4511 45.03 56.4511 45.03L56.4411 45.04Z" fill="#751509"/>
<path d="M17.75 3.80003L27.38 3.84003L42.17 2.95003L28.82 2.53003L17.76 3.79003L17.75 3.80003Z" fill="#FF9E73"/>
<path d="M3.82061 15.16C3.82061 15.16 4.59061 8.03001 6.81061 6.29002C8.20061 5.21002 12.1606 4.08002 16.6106 3.82002C16.6106 3.82002 8.65061 3.62002 6.19061 5.58002C3.74061 7.54002 3.82061 15.16 3.82061 15.16Z" fill="#FF9E73"/>
<path d="M56.4199 14.4701C56.4199 14.4701 56.3999 8.90006 54.4199 6.48006C53.0399 4.77006 48.6299 3.35006 44.1699 3.12006C44.1699 3.12006 51.8999 3.21006 54.8199 5.43006C57.2099 7.26006 56.4199 14.4701 56.4199 14.4701Z" fill="#FF9E73"/>
<path d="M60.0198 36.2901L56.4998 33.6801L51.5898 34.7901L56.4998 35.7901L60.0198 36.2901Z" fill="#751509"/>
<path d="M12.8809 25.6L16.8909 23.97L19.3109 25.6H12.8809Z" fill="#751509"/>
<path d="M16.8909 26.67L12.8809 25.61H19.3109L16.8909 26.67Z" fill="#FF9E73"/>
<path d="M23.0195 41.65C23.0195 41.65 34.1795 40.37 41.6795 41.02C49.1795 41.66 56.5395 44.22 56.5395 44.22C56.5395 44.22 48.8095 43 41.3895 42.53C33.9695 42.07 23.0295 41.66 23.0295 41.66L23.0195 41.65Z" fill="#D66250"/>
<path opacity="0.48" d="M46.6705 7.59005C31.1705 5.83005 13.8705 8.15005 13.8705 8.15005C11.4605 8.15005 8.99049 10.6001 8.66049 13.1701C6.77049 27.9201 8.21049 45.8301 8.21049 45.8301C8.21049 48.4201 11.6905 51.4401 14.1105 51.4401C14.1105 51.4401 33.1305 53.2201 47.1605 51.2501C49.5505 50.9101 51.4105 48.8401 51.7405 46.2701C54.0405 28.7201 51.7405 13.5901 51.7405 13.5901C51.6305 10.2401 49.0805 7.85005 46.6805 7.58005L46.6705 7.59005Z" fill="url(#paint2_linear_79653_13173)"/>
<path d="M7.89062 22.1501C7.89062 22.1501 7.96062 13.3801 8.67062 11.5801C9.38062 9.78006 10.1006 7.95006 13.8106 7.71006C17.7506 7.45006 24.3506 6.30006 31.0906 6.19006C37.8306 6.08006 47.3306 6.79006 48.9106 7.82006C50.4906 8.85005 52.2006 9.64006 52.3006 18.7201C52.3006 18.7201 51.6506 9.70006 48.6006 8.78006C45.5506 7.87005 37.1806 7.29006 37.1806 7.29006C37.1806 7.29006 41.0106 10.4401 42.1806 10.7601C42.1806 10.7601 36.6106 7.29006 34.3406 7.35006C32.0706 7.41006 23.8706 7.69006 23.8706 7.69006L25.8106 9.12006C25.8106 9.12006 23.3406 7.57006 21.1306 7.63006C18.9206 7.69006 12.2906 8.15006 11.1906 9.47006C10.0906 10.7901 8.86062 10.8601 8.55062 15.8101C8.55062 15.8101 9.70063 16.6001 10.2306 17.3601C10.2306 17.3601 9.29063 16.5901 8.60063 16.3101L7.90063 22.1301L7.89062 22.1501Z" fill="#751509"/>
<path d="M7.82969 38.93C7.82969 38.93 8.41969 47.28 10.2097 48.54C11.9997 49.8 12.3997 50.9 16.6097 51.12C20.8097 51.34 25.6897 50.44 26.0397 50.53C26.3897 50.62 33.5897 51.5 34.3397 51.56C35.0997 51.61 45.5097 51.37 47.4697 50.53C49.4297 49.69 51.6097 48.1 51.9897 44.2C51.9897 44.2 52.2497 48.69 49.7897 50.45C47.3297 52.21 37.5697 52.18 37.5697 52.18C37.5697 52.18 38.9197 52.76 41.7397 54.4C41.7397 54.4 38.7197 52.69 34.2997 52.18C29.8697 51.66 21.9297 52.15 19.5597 52.18C17.1997 52.21 10.3097 52.16 9.14969 49.09C7.98969 46.02 7.69969 43.81 7.69969 43.81L6.42969 44.2C6.42969 44.2 7.64969 43.87 7.69969 41.78C7.73969 39.69 7.84969 38.92 7.84969 38.92L7.82969 38.93Z" fill="#D66250"/>
</g>
<defs>
<linearGradient id="paint0_linear_79653_13173" x1="30.0193" y1="59.79" x2="30.0193" y2="-0.0799952" gradientUnits="userSpaceOnUse">
<stop stop-color="#982E1F"/>
<stop offset="0.25" stop-color="#9B3020"/>
<stop offset="0.44" stop-color="#A43824"/>
<stop offset="0.61" stop-color="#B5462A"/>
<stop offset="0.77" stop-color="#CC5933"/>
<stop offset="0.92" stop-color="#EA713F"/>
<stop offset="1" stop-color="#FC8046"/>
</linearGradient>
<linearGradient id="paint1_linear_79653_13173" x1="30.0207" y1="55.91" x2="30.0207" y2="2.95002" gradientUnits="userSpaceOnUse">
<stop stop-color="#BA432F"/>
<stop offset="0.23" stop-color="#C14B34"/>
<stop offset="0.6" stop-color="#D66444"/>
<stop offset="1" stop-color="#F2855A"/>
</linearGradient>
<linearGradient id="paint2_linear_79653_13173" x1="30.2205" y1="52.1801" x2="30.2205" y2="6.93005" gradientUnits="userSpaceOnUse">
<stop stop-color="#932E0C"/>
<stop offset="0.3" stop-color="#6F1607"/>
<stop offset="0.57" stop-color="#550503"/>
<stop offset="0.81" stop-color="#450000"/>
<stop offset="1" stop-color="#400000"/>
</linearGradient>
</defs>
</svg>
