<svg width="64" height="64" viewBox="0 0 64 64" fill="none" xmlns="http://www.w3.org/2000/svg">
<g clip-path="url(#clip0_1253_18898)">
<path fill-rule="evenodd" clip-rule="evenodd" d="M41.8276 10.2172C44.1607 7.51322 45.7333 3.74714 45.3029 0C41.9409 0.128 37.8734 2.14767 35.4627 4.84844C33.298 7.2452 31.4083 11.0749 31.9163 14.7484C35.6666 15.0268 39.4946 12.9243 41.8276 10.2172ZM50.2375 34C50.3314 43.6863 59.1037 46.9084 59.2008 46.95C59.1296 47.1772 57.7997 51.5412 54.58 56.0531C51.794 59.9507 48.9044 63.8324 44.3516 63.9156C39.8796 63.9956 38.4397 61.375 33.3239 61.375C28.2113 61.375 26.6128 63.8321 22.3803 63.9953C17.986 64.1521 14.637 59.7785 11.8315 55.8937C6.09113 47.9482 1.70659 33.4403 7.5958 23.6484C10.521 18.7877 15.7468 15.7049 21.4225 15.6281C25.7358 15.5481 29.8098 18.4094 32.447 18.4094C35.0842 18.4094 40.035 14.9694 45.2382 15.475C47.4159 15.5614 53.5316 16.3163 57.4567 21.8234C57.1395 22.0122 50.1599 25.9041 50.2375 34Z" fill="white"/>
</g>
<defs>
<clipPath id="clip0_1253_18898">
<rect width="64" height="64" fill="white"/>
</clipPath>
</defs>
</svg>
