<svg width="20" height="20" viewBox="0 0 20 20" fill="none" xmlns="http://www.w3.org/2000/svg">
<path d="M18.3335 5.41663H13.3335" stroke="url(#paint0_linear_1249_60173)" stroke-width="1.5" stroke-miterlimit="10" stroke-linecap="round" stroke-linejoin="round"/>
<path d="M4.99984 5.41663H1.6665" stroke="url(#paint1_linear_1249_60173)" stroke-width="1.5" stroke-miterlimit="10" stroke-linecap="round" stroke-linejoin="round"/>
<path d="M8.33317 8.33333C9.944 8.33333 11.2498 7.0275 11.2498 5.41667C11.2498 3.80584 9.944 2.5 8.33317 2.5C6.72234 2.5 5.4165 3.80584 5.4165 5.41667C5.4165 7.0275 6.72234 8.33333 8.33317 8.33333Z" stroke="url(#paint2_linear_1249_60173)" stroke-width="1.5" stroke-miterlimit="10" stroke-linecap="round" stroke-linejoin="round"/>
<path d="M18.3333 14.5834H15" stroke="url(#paint3_linear_1249_60173)" stroke-width="1.5" stroke-miterlimit="10" stroke-linecap="round" stroke-linejoin="round"/>
<path d="M6.6665 14.5834H1.6665" stroke="url(#paint4_linear_1249_60173)" stroke-width="1.5" stroke-miterlimit="10" stroke-linecap="round" stroke-linejoin="round"/>
<path d="M11.6667 17.5C13.2775 17.5 14.5833 16.1941 14.5833 14.5833C14.5833 12.9725 13.2775 11.6666 11.6667 11.6666C10.0558 11.6666 8.75 12.9725 8.75 14.5833C8.75 16.1941 10.0558 17.5 11.6667 17.5Z" stroke="url(#paint5_linear_1249_60173)" stroke-width="1.5" stroke-miterlimit="10" stroke-linecap="round" stroke-linejoin="round"/>
<defs>
<linearGradient id="paint0_linear_1249_60173" x1="15.0903" y1="5.41663" x2="15.0903" y2="6.41663" gradientUnits="userSpaceOnUse">
<stop stop-color="#A0DBF0"/>
<stop offset="1" stop-color="#00FFEA"/>
</linearGradient>
<linearGradient id="paint1_linear_1249_60173" x1="2.83767" y1="5.41663" x2="2.83767" y2="6.41663" gradientUnits="userSpaceOnUse">
<stop stop-color="#A0DBF0"/>
<stop offset="1" stop-color="#00FFEA"/>
</linearGradient>
<linearGradient id="paint2_linear_1249_60173" x1="7.46605" y1="2.5" x2="7.46605" y2="8.33333" gradientUnits="userSpaceOnUse">
<stop stop-color="#A0DBF0"/>
<stop offset="1" stop-color="#00FFEA"/>
</linearGradient>
<linearGradient id="paint3_linear_1249_60173" x1="16.1712" y1="14.5834" x2="16.1712" y2="15.5834" gradientUnits="userSpaceOnUse">
<stop stop-color="#A0DBF0"/>
<stop offset="1" stop-color="#00FFEA"/>
</linearGradient>
<linearGradient id="paint4_linear_1249_60173" x1="3.42326" y1="14.5834" x2="3.42326" y2="15.5834" gradientUnits="userSpaceOnUse">
<stop stop-color="#A0DBF0"/>
<stop offset="1" stop-color="#00FFEA"/>
</linearGradient>
<linearGradient id="paint5_linear_1249_60173" x1="10.7995" y1="11.6666" x2="10.7995" y2="17.5" gradientUnits="userSpaceOnUse">
<stop stop-color="#A0DBF0"/>
<stop offset="1" stop-color="#00FFEA"/>
</linearGradient>
</defs>
</svg>
