<svg width="24" height="24" viewBox="0 0 24 24" fill="none" xmlns="http://www.w3.org/2000/svg">
<g style="mix-blend-mode:multiply" opacity="0.5">
<path d="M19.8894 16.6203C19.7145 17.6922 19.8894 19.7942 19.8894 19.7942L19.7919 23.0414C19.7919 23.0414 19.5733 24.0191 17.7436 23.9981C15.9105 23.9772 12.8095 21.8089 12.1402 21.746C11.4743 21.6867 9.9641 22.5002 7.98643 23.5303C6.00204 24.5568 4.61633 23.5896 4.51543 23.5303C4.41453 23.4709 3.96047 21.746 3.96047 21.746C3.96047 21.746 3.95711 17.1755 3.76203 16.1105C3.74521 16.0092 3.69813 15.8766 3.63086 15.7194C9.13671 15.674 14.7737 15.6915 20.256 15.7578C20.061 16.1175 19.9264 16.4178 19.8928 16.6168L19.8894 16.6203Z" fill="#941DA8"/>
</g>
<path d="M18.991 16.114C18.991 16.114 19.7881 18.4918 19.9933 20.6077C20.1211 21.9101 20.0236 23.1077 19.3812 23.5896C17.6961 24.864 11.9986 20.6182 11.9986 20.6182C11.9986 20.6182 6.301 24.864 4.61595 23.5896C2.9309 22.3186 5.0061 16.114 5.0061 16.114C5.0061 16.114 -0.593922 11.0685 0.051846 9.01194C0.12584 8.7815 0.270466 8.572 0.475632 8.38694C1.08777 7.82129 2.21786 7.44419 3.37823 7.1928C3.59348 7.1474 3.80538 7.1055 4.01727 7.0671C4.02063 7.0671 4.02736 7.0671 4.03745 7.0671C5.71914 6.76681 7.28983 6.70746 7.28983 6.70746C7.28983 6.70746 8.29885 4.12364 9.56684 2.16482C10.3404 0.967187 11.2082 0 11.9986 0C12.6544 0 13.3641 0.663413 14.03 1.57473C15.4763 3.55799 16.7107 6.70746 16.7107 6.70746C16.7107 6.70746 17.4271 6.73539 18.4125 6.84363C19.0415 6.91346 19.7781 7.01821 20.5113 7.16835C22.1021 7.50006 23.6527 8.06222 23.9486 9.00845C24.591 11.0685 18.9944 16.1105 18.9944 16.1105L18.991 16.114Z" fill="url(#paint0_radial_79682_23536)"/>
<g style="mix-blend-mode:soft-light" opacity="0.3">
<path d="M17.5484 14.637C17.5484 14.637 19.0787 19.2076 17.8377 20.1433C16.5966 21.0826 12.3991 17.9541 12.3991 17.9541C12.3991 17.9541 8.20158 21.0791 6.96049 20.1433C5.71941 19.2076 7.24975 14.637 7.24975 14.637C7.24975 14.637 3.12624 10.9219 3.60048 9.40653C3.65429 9.23893 3.76192 9.08181 3.91327 8.94563C4.44805 8.45331 5.51088 8.15652 6.52326 7.97496C6.52662 7.97496 6.53335 7.97496 6.53671 7.97496C7.77443 7.75498 8.93143 7.70959 8.93143 7.70959C8.93143 7.70959 9.67474 5.80664 10.6098 4.36459C11.1782 3.4812 11.8172 2.7724 12.4024 2.7724C12.8868 2.7724 13.4081 3.26123 13.8991 3.93163C14.9653 5.39114 15.8734 7.71308 15.8734 7.71308C15.8734 7.71308 16.4015 7.73403 17.1246 7.81434C17.5888 7.86322 18.1303 7.94353 18.6718 8.05526C19.8422 8.29968 20.9858 8.71519 21.2044 9.41002C21.6786 10.9254 17.5551 14.6405 17.5551 14.6405L17.5484 14.637Z" fill="white"/>
</g>
<g style="mix-blend-mode:multiply" opacity="0.5">
<path d="M18.992 16.114C18.992 16.114 21.0705 22.3186 19.3821 23.5896C17.6971 24.8641 11.9995 20.6182 11.9995 20.6182C11.9995 20.6182 6.30194 24.8641 4.61689 23.5896C4.19311 23.2684 4.00812 22.6399 3.96776 21.8717C3.84668 19.5917 5.01041 16.114 5.01041 16.114C5.01041 16.114 0.6212 12.1614 0.0628792 9.82204C-0.011115 9.52175 -0.0178407 9.24591 0.0561536 9.01197C0.130148 8.78152 0.274773 8.57203 0.479939 8.38697C0.446305 8.49172 0.412671 8.60345 0.3824 8.71867C0.33195 8.92468 0.365584 9.26686 0.503482 9.69284C0.823003 10.7089 1.72439 12.2103 3.46998 13.4918C4.80524 14.4694 6.61137 15.3144 6.61137 15.3144C6.61137 15.3144 3.8904 19.0819 4.30746 21.6936C4.36128 22.0358 4.4689 22.3571 4.64716 22.6504C6.38939 25.5379 11.1486 20.07 11.8986 19.1692C11.9659 19.0924 12.0029 19.047 12.0029 19.047C12.0029 19.047 14.1521 23.3871 18.363 23.1531C22.2881 22.9332 17.391 15.1189 17.4717 15.1084C17.8249 15.07 21.6053 13.195 23.2265 10.0874C23.3307 9.88838 23.398 9.70332 23.4316 9.52874C23.6772 8.31364 22.352 7.62579 20.5122 7.17188C22.1031 7.50358 23.6536 8.06574 23.9496 9.01197C23.9799 9.10974 23.9967 9.21449 24 9.32622C24.0707 11.5399 18.992 16.1175 18.992 16.1175V16.114Z" fill="#E07090"/>
</g>
<g style="mix-blend-mode:multiply" opacity="0.5">
<path d="M9.5665 2.16486C8.50368 4.65789 8.31869 7.26266 8.31869 7.26266C8.31869 7.26266 7.4274 7.06015 6.38475 6.98682C5.45309 6.92397 4.26582 7.04269 4.03711 7.06713C5.7188 6.76685 7.2895 6.70749 7.2895 6.70749C7.2895 6.70749 8.29851 4.12367 9.5665 2.16486Z" fill="#E07090"/>
</g>
<g style="mix-blend-mode:multiply" opacity="0.5">
<path d="M18.4123 6.8436C16.4481 6.97978 15.7956 7.41973 15.7956 7.41973C15.7956 7.41973 15.7956 6.68648 15.5097 5.40854C15.2945 4.4623 14.4671 2.54189 14.0332 1.57471C15.4795 3.55796 16.7138 6.70743 16.7138 6.70743C16.7138 6.70743 17.4302 6.73536 18.4157 6.8436H18.4123Z" fill="#E07090"/>
</g>
<path style="mix-blend-mode:multiply" opacity="0.5" d="M23.9985 9.32281C24.0691 11.5365 18.9904 16.1141 18.9904 16.1141C18.2774 15.2621 17.4668 15.105 17.4668 15.105C17.82 15.0666 21.6004 13.1916 23.2215 10.084C23.3258 9.88497 23.3931 9.69991 23.4267 9.52533C23.6386 9.44153 23.8303 9.37519 23.9951 9.32281H23.9985Z" fill="url(#paint1_linear_79682_23536)"/>
<path style="mix-blend-mode:multiply" opacity="0.5" d="M11.9985 20.6184C11.9985 20.6184 6.30098 24.8642 4.61593 23.5898C4.19214 23.2685 4.00716 22.64 3.9668 21.8719C4.07442 21.8125 4.18878 21.7531 4.3065 21.6903C4.36031 22.0325 4.46794 22.3537 4.6462 22.647C6.38843 25.5346 11.1476 20.0667 11.8976 19.1658C11.8472 19.3264 11.827 19.714 12.0019 20.6184H11.9985Z" fill="url(#paint2_linear_79682_23536)"/>
<path style="mix-blend-mode:multiply" opacity="0.5" d="M6.60709 15.3109C6.60709 15.3109 5.57117 15.51 5.00612 16.114C5.00612 16.114 0.616914 12.1615 0.0585938 9.82206L0.499197 9.69287C0.818718 10.7089 1.7201 12.2103 3.4657 13.4918C4.80096 14.4694 6.60709 15.3144 6.60709 15.3144V15.3109Z" fill="url(#paint3_linear_79682_23536)"/>
<path style="mix-blend-mode:screen" opacity="0.5" d="M18.9912 16.114C18.9912 16.114 19.7883 18.4918 19.9934 20.6077C15.0695 12.1195 8.70595 8.60342 3.375 7.1928C3.59026 7.1474 3.80215 7.1055 4.01404 7.0671C4.0174 7.0671 4.02413 7.0671 4.03422 7.0671C5.71591 6.76681 7.28661 6.70746 7.28661 6.70746C7.28661 6.70746 8.29562 4.12364 9.56361 2.16482C10.3372 0.967187 11.2049 0 11.9953 0C12.6512 0 13.3609 0.663413 14.0268 1.57473C15.4731 3.55799 16.7074 6.70746 16.7074 6.70746C16.7074 6.70746 17.4238 6.73539 18.4093 6.84363C19.0382 6.91346 19.7748 7.01821 20.508 7.16835C22.0989 7.50006 23.6494 8.06222 23.9454 9.00845C24.5878 11.0685 18.9912 16.1105 18.9912 16.1105V16.114Z" fill="url(#paint4_radial_79682_23536)"/>
<g style="mix-blend-mode:soft-light" opacity="0.5">
<path d="M7.26912 15.4994C5.70851 15.8206 3.98983 21.8507 5.81614 22.6049C7.64245 23.3591 11.998 19.1831 11.7256 18.2438C11.4532 17.3046 8.13351 15.3213 7.26912 15.4994Z" fill="white"/>
</g>
<g style="mix-blend-mode:soft-light">
<path d="M11.8198 0.34213C10.6595 0.485288 9.90608 3.12847 10.8714 5.47834C11.84 7.82822 15.4758 8.73954 15.6743 7.61174C15.8693 6.48394 14.2583 0.0453402 11.8198 0.345622V0.34213Z" fill="white"/>
</g>
<path d="M12.9128 1.24994C12.0551 1.00901 11.4665 3.54395 12.3948 5.27232C13.3231 6.99719 15.4791 7.45809 15.5161 6.82261C15.5564 6.18364 14.5474 1.71433 12.9128 1.25343V1.24994Z" fill="white"/>
<g style="mix-blend-mode:soft-light">
<path d="M0.797389 9.09584C0.565316 9.2355 1.25144 8.12167 3.11476 7.68172C5.94336 7.01481 8.78204 7.70965 8.46589 7.88424C8.15309 8.06231 3.70335 7.33954 0.797389 9.09235V9.09584Z" fill="white"/>
</g>
<g style="mix-blend-mode:soft-light">
<path d="M16.0723 7.73049C16.0723 7.73049 17.5925 7.29403 19.3516 7.35339C21.1072 7.41275 22.688 8.45326 22.493 8.45326C22.2979 8.45326 21.1476 7.77239 16.0756 7.73049H16.0723Z" fill="white"/>
</g>
<g style="mix-blend-mode:soft-light">
<path d="M6.27762 16.4841C6.27762 16.4841 5.26524 18.0344 5.08026 19.0923C4.89527 20.1503 5.10044 21.9241 5.20806 21.739C5.31569 21.5539 4.80446 20.4715 6.27762 16.4841Z" fill="white"/>
</g>
<defs>
<radialGradient id="paint0_radial_79682_23536" cx="0" cy="0" r="1" gradientUnits="userSpaceOnUse" gradientTransform="translate(14.9819 8.46376) scale(21.418 22.2348)">
<stop offset="0.03" stop-color="#FFC700"/>
<stop offset="0.47" stop-color="#FF9200"/>
<stop offset="0.9" stop-color="#FF7600"/>
<stop offset="0.92" stop-color="#FF7C00"/>
<stop offset="0.95" stop-color="#FF8D00"/>
<stop offset="0.98" stop-color="#FFA900"/>
<stop offset="1" stop-color="#FFBB00"/>
</radialGradient>
<linearGradient id="paint1_linear_79682_23536" x1="17.4668" y1="12.7202" x2="24.0018" y2="12.7202" gradientUnits="userSpaceOnUse">
<stop stop-color="#F63F00"/>
<stop offset="1" stop-color="#FAFAFA"/>
</linearGradient>
<linearGradient id="paint2_linear_79682_23536" x1="12.3248" y1="19.7908" x2="4.15601" y2="22.9822" gradientUnits="userSpaceOnUse">
<stop stop-color="#F63F00"/>
<stop offset="1" stop-color="#FAFAFA"/>
</linearGradient>
<linearGradient id="paint3_linear_79682_23536" x1="6.27075" y1="16.6447" x2="0.794859" y2="10.2257" gradientUnits="userSpaceOnUse">
<stop stop-color="#F63F00"/>
<stop offset="1" stop-color="#FAFAFA"/>
</linearGradient>
<radialGradient id="paint4_radial_79682_23536" cx="0" cy="0" r="1" gradientUnits="userSpaceOnUse" gradientTransform="translate(13.6871 10.3039) scale(10.1204 10.5064)">
<stop stop-color="#FFF261"/>
<stop offset="0.11" stop-color="#FAED5F"/>
<stop offset="0.23" stop-color="#ECE05A"/>
<stop offset="0.36" stop-color="#D6CB51"/>
<stop offset="0.5" stop-color="#B6AD45"/>
<stop offset="0.64" stop-color="#8E8636"/>
<stop offset="0.78" stop-color="#5C5723"/>
<stop offset="0.92" stop-color="#22210D"/>
<stop offset="1"/>
</radialGradient>
</defs>
</svg>
