<svg width="137" height="48" viewBox="0 0 137 48" fill="none" xmlns="http://www.w3.org/2000/svg">
<g clip-path="url(#clip0_114_34988)">
<path fill-rule="evenodd" clip-rule="evenodd" d="M145.177 41.1362C134.961 41.3642 124.734 41.4646 114.507 41.5466C99.1042 41.6743 83.701 41.7199 68.2872 41.7199C52.8735 41.7199 37.4808 41.6743 22.0671 41.5466C11.8508 41.4646 1.61344 41.3642 -8.60287 41.1362L-10.9653 46.8638C5.03638 47.2468 34.5304 47.5022 68.2767 47.5022C102.023 47.5022 131.528 47.2468 147.519 46.8638L145.156 41.1362H145.177Z" fill="url(#paint0_radial_114_34988)"/>
<path style="mix-blend-mode:screen" fill-rule="evenodd" clip-rule="evenodd" d="M68.2987 45.5506C25.8375 45.5506 -8.5809 43.5806 -8.5809 41.1455L-10.9434 46.873C5.05835 47.2561 34.5523 47.5115 68.2987 47.5115C102.045 47.5115 131.55 47.2561 147.541 46.873L145.178 41.1455C145.178 43.5806 110.76 45.5506 68.2987 45.5506Z" fill="url(#paint1_radial_114_34988)"/>
<path fill-rule="evenodd" clip-rule="evenodd" d="M152.719 34.5697C151.564 35.7736 150.168 36.9866 149.003 38.0081C147.869 38.9931 146.525 40.1513 145.191 41.1363C134.975 41.3643 124.748 41.4647 114.521 41.5467C108.379 41.6015 102.247 41.6379 96.1045 41.6653C112.274 41.72 128.444 41.7109 144.635 41.6015L145.097 41.8659C145.853 43.3982 146.619 44.9304 147.375 46.4626C146.829 44.8848 146.283 43.3161 145.737 41.7383L145.863 41.2458C148.058 39.1755 150.305 37.1599 152.625 35.199L153.181 35.0805C154.62 35.4453 156.069 35.8101 157.507 36.1749C156.163 35.6368 154.819 35.0896 153.475 34.5515L153.181 34.1411C153.454 27.0729 153.454 20.0047 153.181 12.9364L153.465 12.5169C154.746 11.9697 156.016 11.4316 157.297 10.8844C155.89 11.2583 154.588 11.614 153.192 11.9879L152.646 11.8602C150.704 10.0818 148.52 8.43103 146.378 6.80762C147.302 7.54636 148.184 8.31246 148.971 8.99648C150.137 10.0088 151.533 11.2309 152.688 12.4348C152.971 16.0829 152.982 19.8952 152.982 23.4977C152.982 27.1002 152.982 30.9125 152.688 34.5606L152.719 34.5697Z" fill="#6ED3A0"/>
</g>
<defs>
<radialGradient id="paint0_radial_114_34988" cx="0" cy="0" r="1" gradientUnits="userSpaceOnUse" gradientTransform="translate(23.6315 -24.2744) scale(140.193 121.774)">
<stop stop-color="#00ABB2"/>
<stop offset="1" stop-color="#296C7B"/>
</radialGradient>
<radialGradient id="paint1_radial_114_34988" cx="0" cy="0" r="1" gradientUnits="userSpaceOnUse" gradientTransform="translate(68.2987 44.3194) scale(128.875 111.942)">
<stop stop-color="#007F8D"/>
<stop offset="1"/>
</radialGradient>
<clipPath id="clip0_114_34988">
<rect width="137" height="48" fill="white"/>
</clipPath>
</defs>
</svg>
