<svg width="20" height="48" viewBox="0 0 20 48" fill="none" xmlns="http://www.w3.org/2000/svg">
<g clip-path="url(#clip0_1_3816)">
<path fill-rule="evenodd" clip-rule="evenodd" d="M5.85647 23.5068C5.85647 19.9043 5.85647 16.0921 6.11184 12.4439L0.484631 10.2733C0.238384 12.9456 0.0742188 17.8705 0.0742188 23.516C0.0742188 29.1614 0.238384 34.0864 0.484631 36.7586L6.11184 34.5788C5.86559 30.9307 5.85647 27.1185 5.85647 23.516V23.5068Z" fill="url(#paint0_radial_1_3816)"/>
<path fill-rule="evenodd" clip-rule="evenodd" d="M6.11158 12.4439C7.11481 11.24 8.32781 10.027 9.34016 9.00557C10.3252 8.02058 11.4925 6.8623 12.6508 5.87731L10.5988 0.14978C9.404 0.997966 7.40666 2.7673 5.25428 4.91968C3.10189 7.07207 1.33256 9.07853 0.484375 10.2733L6.11158 12.453V12.4439Z" fill="url(#paint1_radial_1_3816)"/>
<path fill-rule="evenodd" clip-rule="evenodd" d="M12.6608 5.8773C21.5348 5.6493 30.418 5.54897 39.3011 5.46689C52.6805 5.33921 66.06 5.29361 79.4485 5.29361C92.8371 5.29361 106.207 5.33921 119.596 5.46689C128.47 5.54897 137.362 5.6493 146.236 5.8773L148.288 0.149772C134.389 -0.23328 108.77 -0.488647 79.4577 -0.488647C50.1451 -0.488647 24.4989 -0.23328 10.5996 0.149772L12.6517 5.8773H12.6608Z" fill="url(#paint2_radial_1_3816)"/>
<path fill-rule="evenodd" clip-rule="evenodd" d="M146.217 41.1362C137.343 41.3642 128.46 41.4646 119.577 41.5466C106.198 41.6743 92.8182 41.7199 79.4297 41.7199C66.0411 41.7199 52.6708 41.6743 39.2822 41.5466C30.4082 41.4646 21.5159 41.3642 12.6419 41.1362L10.5898 46.8638C24.4891 47.2468 50.108 47.5022 79.4205 47.5022C108.733 47.5022 134.361 47.2468 148.251 46.8638L146.199 41.1362H146.217Z" fill="url(#paint3_radial_1_3816)"/>
<path fill-rule="evenodd" clip-rule="evenodd" d="M12.6606 41.1362C11.5023 40.1512 10.3258 38.9838 9.34993 38.0079C8.33758 36.9956 7.12458 35.7735 6.12135 34.5696L0.494141 36.7493C1.34233 37.9441 3.11166 39.9414 5.26404 42.0938C7.41643 44.2462 9.42289 46.0155 10.6085 46.8637L12.6606 41.1362Z" fill="url(#paint4_radial_1_3816)"/>
<path style="mix-blend-mode:screen" fill-rule="evenodd" clip-rule="evenodd" d="M79.4381 45.5506C42.5557 45.5506 12.6595 43.5806 12.6595 41.1455L10.6074 46.873C24.5067 47.2561 50.1256 47.5115 79.4381 47.5115C108.751 47.5115 134.379 47.2561 148.269 46.873L146.217 41.1455C146.217 43.5806 116.321 45.5506 79.4381 45.5506Z" fill="url(#paint5_radial_1_3816)"/>
<path style="mix-blend-mode:multiply" fill-rule="evenodd" clip-rule="evenodd" d="M10.5988 0.14978C12.4137 6.96262 5.38196 11.8967 0.484375 10.2733L6.11158 12.453C7.11481 11.2492 8.32781 10.0362 9.34016 9.01469C10.3252 8.0297 11.4925 6.87142 12.6508 5.88643L10.5988 0.14978Z" fill="url(#paint6_radial_1_3816)"/>
<g style="mix-blend-mode:screen">
<path fill-rule="evenodd" clip-rule="evenodd" d="M12.6595 5.87735C21.5336 5.64935 30.4167 5.54902 39.2999 5.46694C52.6793 5.33926 66.0587 5.29366 79.4473 5.29366C92.8359 5.29366 106.206 5.33926 119.595 5.46694C120.406 5.46694 121.218 5.48518 122.03 5.4943C86.1051 4.8194 49.4872 4.60052 13.1885 5.22069L12.7781 4.96533C12.085 3.46048 11.4739 2.1198 10.7808 0.605835C11.1912 2.211 11.5104 3.70673 11.9117 5.30278L11.8022 5.80439C10.2974 7.61933 8.13589 9.81731 6.09295 11.687L5.60046 11.7964C4.07737 11.3313 2.63637 10.9665 1.11328 10.5013C2.54516 11.158 3.88584 11.8238 5.32685 12.4804L5.58222 12.8908C5.47277 20.0411 5.46365 27.0911 5.58222 34.0043L5.33597 34.4329C4.44218 34.9163 3.6396 35.3906 2.74581 35.8739C3.7308 35.6186 4.67931 35.427 5.6643 35.1717L6.14767 35.3085C8.08117 37.242 10.1697 39.2667 12.0667 41.2093L12.1944 41.6927C12.0029 42.4679 11.8752 43.0789 11.6746 43.8815C12.0485 43.1519 12.4407 42.5409 12.8055 41.8112L13.225 41.5559C28.6839 41.8842 48.6573 41.9024 64.0888 41.7018C57.2942 41.6744 46.0854 41.6106 39.2907 41.5467C30.4167 41.4647 21.5245 41.3643 12.6504 41.1363C11.4922 40.1513 10.3156 38.9839 9.33977 38.0081C8.32742 36.9957 7.11442 35.7736 6.11119 34.5697C5.86494 30.9216 5.85582 27.1093 5.85582 23.5068C5.85582 19.9043 5.85582 16.0921 6.11119 12.444C7.11442 11.2401 8.32742 10.0271 9.33977 9.00561C10.3248 8.02062 11.4922 6.86234 12.6504 5.87735H12.6595Z" fill="#00AAAB"/>
</g>
<path fill-rule="evenodd" clip-rule="evenodd" d="M10.6087 0.158892C10.9097 0.587545 41.6177 0.924995 79.4394 0.924995C117.261 0.924995 147.969 0.578424 148.27 0.158892C134.371 -0.23328 108.752 -0.488647 79.4394 -0.488647C50.1269 -0.488647 24.4989 -0.23328 10.5996 0.149772L10.6087 0.158892Z" fill="#36FFFF"/>
</g>
<defs>
<radialGradient id="paint0_radial_1_3816" cx="0" cy="0" r="1" gradientUnits="userSpaceOnUse" gradientTransform="translate(-38.2674 -0.899023) scale(59.3091 59.3091)">
<stop stop-color="#2AD3D0"/>
<stop offset="1" stop-color="#008E91"/>
</radialGradient>
<radialGradient id="paint1_radial_1_3816" cx="0" cy="0" r="1" gradientUnits="userSpaceOnUse" gradientTransform="translate(6.31223 1.4175) scale(41.2054 41.2054)">
<stop stop-color="#2AFAFA"/>
<stop offset="1" stop-color="#008E91"/>
</radialGradient>
<radialGradient id="paint2_radial_1_3816" cx="0" cy="0" r="1" gradientUnits="userSpaceOnUse" gradientTransform="translate(42.703 -56.6513) scale(108.011 108.011)">
<stop stop-color="#2AD3D0"/>
<stop offset="1" stop-color="#008E91"/>
</radialGradient>
<radialGradient id="paint3_radial_1_3816" cx="0" cy="0" r="1" gradientUnits="userSpaceOnUse" gradientTransform="translate(40.6411 -24.2744) scale(121.774 121.774)">
<stop stop-color="#00ABB2"/>
<stop offset="1" stop-color="#296C7B"/>
</radialGradient>
<radialGradient id="paint4_radial_1_3816" cx="0" cy="0" r="1" gradientUnits="userSpaceOnUse" gradientTransform="translate(-6.01773 29.672) scale(37.9039)">
<stop stop-color="#00ABB2"/>
<stop offset="1" stop-color="#091E66"/>
</radialGradient>
<radialGradient id="paint5_radial_1_3816" cx="0" cy="0" r="1" gradientUnits="userSpaceOnUse" gradientTransform="translate(79.4381 44.3194) scale(111.942 111.942)">
<stop stop-color="#007F8D"/>
<stop offset="1"/>
</radialGradient>
<radialGradient id="paint6_radial_1_3816" cx="0" cy="0" r="1" gradientUnits="userSpaceOnUse" gradientTransform="translate(14.9218 16.32) scale(20.7577)">
<stop stop-color="#008894"/>
<stop offset="1" stop-color="white"/>
</radialGradient>
<clipPath id="clip0_1_3816">
<rect width="20" height="48" fill="white"/>
</clipPath>
</defs>
</svg>
