<svg width="303" height="22" viewBox="0 0 303 22" fill="none" xmlns="http://www.w3.org/2000/svg">
<g clip-path="url(#clip0_499_125191)">
<path fill-rule="evenodd" clip-rule="evenodd" d="M306.827 10.3876C291.814 10.9599 276.818 11.4272 261.797 11.8087C255.654 11.9661 250.404 12.2809 244.335 12.6195C238.643 12.939 233.712 12.4716 227.955 12.5289C209.445 12.7244 191.27 13.125 172.703 13.0582C166.003 13.0344 159.271 12.3715 152.735 12.6147C146.896 12.8341 142.096 13.1011 136.109 13.0916C89.8177 13.0391 42.7565 12.1426 -3.43654 10.3828L-16.2461 18.7572L-15.6318 18.781C6.55558 19.7062 28.7757 20.3834 51.0041 20.8842C70.4068 21.3229 90.3746 21.733 109.769 21.7903C117.828 21.8141 127.329 21.0177 135.069 21.5566C141.138 21.981 145.602 21.9858 151.695 21.9858C175.914 21.9858 200.124 21.8046 224.343 21.4231C228.544 21.3611 234.253 21.3849 238.291 21.0844C241.55 20.8412 241.821 20.3357 245.408 20.5599C249.094 20.7888 251.321 20.9032 255.048 20.8269C276.498 20.3882 298.227 19.6585 319.644 18.7619L306.835 10.3876H306.827Z" fill="url(#paint0_radial_499_125191)"/>
<path fill-rule="evenodd" clip-rule="evenodd" d="M309.901 -3.06992C305.913 -0.766489 302.571 1.84694 300.016 4.72265L306.83 10.3882C308.927 6.9593 312.35 3.83561 317.043 1.12681C321.507 -1.44845 326.618 -3.35606 332.203 -4.55784L322.113 -8.37305C317.641 -6.96619 313.546 -5.17781 309.901 -3.07468V-3.06992Z" fill="url(#paint1_radial_499_125191)"/>
<path fill-rule="evenodd" clip-rule="evenodd" d="M300.011 4.72461C250.641 6.51775 201.155 7.21403 151.694 7.21403C102.233 7.21403 52.7476 6.51775 3.37679 4.72461L-3.4375 10.3902C42.7555 12.1499 89.8167 13.0513 136.108 13.099C142.103 13.1037 146.903 12.8415 152.734 12.6221C159.27 12.3741 165.994 13.037 172.702 13.0656C191.269 13.1324 209.435 12.7365 227.954 12.5362C233.711 12.4742 238.642 12.9464 244.334 12.6268C250.403 12.2835 255.653 11.9735 261.796 11.8161C276.825 11.4298 291.821 10.9625 306.826 10.3949L300.011 4.72937V4.72461Z" fill="url(#paint2_radial_499_125191)"/>
<path fill-rule="evenodd" clip-rule="evenodd" d="M3.38301 4.72373C0.827655 1.84802 -2.51397 -0.765403 -6.50262 -3.06883C-10.1473 -5.17196 -14.2424 -6.95556 -18.7143 -8.36719L-28.8047 -4.55198C-23.2189 -3.3502 -18.1082 -1.44259 -13.6527 1.13267C-8.9597 3.8367 -5.52798 6.96039 -3.43947 10.3941L3.37483 4.72849L3.38301 4.72373Z" fill="url(#paint3_radial_499_125191)"/>
<path style="mix-blend-mode:screen" fill-rule="evenodd" clip-rule="evenodd" d="M-16.9844 -0.613281C-11.6361 2.16705 -7.52463 5.33366 -5.46887 9.15363C-5.26412 9.52084 -5.22317 9.88806 -5.32145 10.2457C-5.60811 11.2711 -10.4076 14.7572 -11.7017 15.7969C-9.8998 14.8144 -4.98565 11.81 -2.97904 11.3808C-2.29924 11.2329 -1.57031 11.1709 -0.784047 11.1948C4.70342 11.3378 10.1581 11.4475 15.6456 11.5524C20.527 11.6526 21.5672 12.9545 25.5886 14.018C28.5043 14.762 31.5838 15.0195 33.9181 14.8335C36.5635 14.5903 38.7585 13.7986 40.8716 12.8973C43.4188 11.8052 45.0568 12.139 48.0544 12.1915C57.0801 12.3489 66.1549 12.4872 75.1888 12.5539C65.4014 12.2726 55.5813 11.9483 45.7939 11.7146C41.535 11.6097 41.2156 10.4699 37.9395 9.5113C37.7347 9.45407 37.5791 9.41593 37.3662 9.37301C33.6724 8.68628 26.7434 8.12829 25.1545 8.22844C20.7563 8.57658 20.5761 10.9325 15.187 10.7083C10.068 10.4937 4.90818 10.2887 -0.20254 10.0359C-1.84059 9.95482 -3.18379 9.4207 -3.91272 8.56228C-6.83665 5.10475 -10.899 1.96674 -16.9844 -0.603748V-0.613281Z" fill="url(#paint4_radial_499_125191)"/>
<path style="mix-blend-mode:screen" fill-rule="evenodd" clip-rule="evenodd" d="M320.371 -0.613281C315.022 2.16705 310.911 5.33366 308.855 9.15363C308.658 9.52084 308.609 9.88806 308.708 10.2457C308.994 11.2711 313.794 14.7572 315.088 15.7969C313.286 14.8144 308.372 11.81 306.365 11.3808C305.685 11.2329 304.956 11.1709 304.178 11.1948C286.266 11.6669 269.845 11.748 251.654 12.2249C264.464 11.2711 303.54 10.446 305.718 9.621C306.382 9.36824 306.93 9.01056 307.307 8.56228C310.231 5.10475 314.293 1.96674 320.379 -0.603748L320.371 -0.613281Z" fill="url(#paint5_radial_499_125191)"/>
<path fill-rule="evenodd" clip-rule="evenodd" d="M18.6215 11.1653C18.4495 10.8077 22.4791 8.72361 24.756 8.35163C26.4677 8.07503 35.4934 8.89052 38.2289 9.80617C39.8097 10.3355 42.9957 11.6756 42.3732 11.8855C41.546 12.1716 35.993 13.0252 32.6923 13.1588C31.5948 13.2017 26.738 13.0348 25.3047 12.8154C24.0926 12.6342 18.8017 11.5659 18.6133 11.1653H18.6215Z" fill="url(#paint6_radial_499_125191)"/>
<path style="mix-blend-mode:multiply" fill-rule="evenodd" clip-rule="evenodd" d="M20.9284 11.9141C22.0832 11.4372 23.8605 10.9555 25.4412 10.6503C27.5625 10.2449 35.6053 9.65357 37.7758 10.0732C39.7578 10.4548 40.8799 10.9937 42.3869 11.6804C41.9364 11.2321 39.5449 10.2401 38.2344 9.80617C35.4989 8.89052 26.4732 8.07503 24.7614 8.35163C22.4764 8.72361 18.4468 10.8077 18.6269 11.1653C18.7088 11.337 19.7081 11.6279 20.9284 11.9188V11.9141Z" fill="url(#paint7_radial_499_125191)"/>
<path style="mix-blend-mode:screen" fill-rule="evenodd" clip-rule="evenodd" d="M32.7064 13.1535C35.6303 13.0343 40.3152 12.3523 41.9287 11.9994C41.8631 11.9708 41.7976 11.947 41.7321 11.9184C37.0636 10.1634 28.8161 11.6322 23.8691 12.5431C24.4998 12.6671 25.024 12.7625 25.3188 12.8054C26.7603 13.02 31.6089 13.1917 32.7064 13.1488V13.1535Z" fill="url(#paint8_radial_499_125191)"/>
<path style="mix-blend-mode:screen" fill-rule="evenodd" clip-rule="evenodd" d="M156.242 12.5671C160.902 12.2905 164.793 12.6196 169.347 12.6482C170.993 12.6529 175.063 12.6672 176.48 12.4002C177.889 12.1331 179.83 11.1984 181.296 10.7215C182.017 10.4878 182.68 10.3018 183.45 10.1301C184.72 9.92508 187.398 10.0777 188.528 10.4735C191.419 11.4893 191.043 12.4574 195.179 12.3906C198.897 12.3239 202.894 12.3906 206.637 12.4097C213.328 12.4431 220.02 12.4908 226.711 12.548C215.974 12.7865 205.245 13.0917 194.515 13.4255C190.723 13.54 190.125 14.6702 187.119 15.7766C185.662 16.3108 184.105 16.7495 182.345 16.7161C180.51 16.6064 178.077 16.1105 177.144 15.1185C175.964 13.8595 176.095 13.5638 173.302 13.54C172.172 13.5304 171.173 13.4971 170.043 13.4351C165.333 13.1537 161.033 12.7149 156.242 12.5719V12.5671Z" fill="url(#paint9_radial_499_125191)"/>
<path fill-rule="evenodd" clip-rule="evenodd" d="M177.206 13.0694C176.976 13.2697 177.902 14.4763 178.426 14.729C179.409 15.2107 181.637 15.6399 181.932 15.6638C182.644 15.7162 184.946 15.6018 185.568 15.4444C188.033 14.8149 192.071 13.3699 192.358 13.0122C192.636 12.6641 189.917 11.0331 188.132 10.4894C187.755 10.3749 184.372 10.1651 183.611 10.3463C181.153 10.9281 178.254 12.1538 177.198 13.0742L177.206 13.0694Z" fill="url(#paint10_radial_499_125191)"/>
<path style="mix-blend-mode:multiply" fill-rule="evenodd" clip-rule="evenodd" d="M178.058 14.462C180.195 13.3699 181.891 12.4542 184.503 11.6673C185.658 11.3192 187.624 11.0664 188.926 11.1618C189.663 11.2143 190.302 11.467 190.884 11.7389C190.04 11.2477 188.983 10.7469 188.14 10.4894C187.763 10.3749 184.38 10.1651 183.619 10.3463C181.162 10.9281 178.262 12.1538 177.206 13.0742C177.026 13.2316 177.558 14.0137 178.049 14.462H178.058Z" fill="url(#paint11_radial_499_125191)"/>
<path style="mix-blend-mode:screen" fill-rule="evenodd" clip-rule="evenodd" d="M192.383 12.9785C187.837 12.5827 183.406 13.8846 179.508 15.1246C180.532 15.425 181.727 15.6492 181.94 15.6635C182.653 15.7159 184.954 15.6015 185.577 15.4441C188.042 14.8146 192.08 13.3696 192.367 13.0119L192.383 12.9785Z" fill="url(#paint12_radial_499_125191)"/>
</g>
<defs>
<radialGradient id="paint0_radial_499_125191" cx="0" cy="0" r="1" gradientUnits="userSpaceOnUse" gradientTransform="translate(140.974 -37.6601) scale(273.833 159.447)">
<stop stop-color="#313D50"/>
<stop offset="1" stop-color="#192033"/>
</radialGradient>
<radialGradient id="paint1_radial_499_125191" cx="0" cy="0" r="1" gradientUnits="userSpaceOnUse" gradientTransform="translate(305.823 -12.3075) scale(59.5022 34.6468)">
<stop stop-color="#506283"/>
<stop offset="1" stop-color="#39456F"/>
</radialGradient>
<radialGradient id="paint2_radial_499_125191" cx="0" cy="0" r="1" gradientUnits="userSpaceOnUse" gradientTransform="translate(244.842 -25.425) scale(358.438 208.711)">
<stop stop-color="#607099"/>
<stop offset="1" stop-color="#495586"/>
</radialGradient>
<radialGradient id="paint3_radial_499_125191" cx="0" cy="0" r="1" gradientUnits="userSpaceOnUse" gradientTransform="translate(13.4243 2.96396) scale(51.8443 30.1878)">
<stop stop-color="#434F73"/>
<stop offset="1" stop-color="#323C59"/>
</radialGradient>
<radialGradient id="paint4_radial_499_125191" cx="0" cy="0" r="1" gradientUnits="userSpaceOnUse" gradientTransform="translate(1.46008 7.2985) scale(87.7832 51.1142)">
<stop stop-color="#20377D"/>
<stop offset="0.21" stop-color="#152554"/>
<stop offset="0.44" stop-color="#0C152F"/>
<stop offset="0.66" stop-color="#050915"/>
<stop offset="0.85" stop-color="#010205"/>
<stop offset="1"/>
</radialGradient>
<radialGradient id="paint5_radial_499_125191" cx="0" cy="0" r="1" gradientUnits="userSpaceOnUse" gradientTransform="translate(305.612 9.34917) scale(74.6296 43.4552)">
<stop stop-color="#20377D"/>
<stop offset="0.21" stop-color="#152554"/>
<stop offset="0.44" stop-color="#0C152F"/>
<stop offset="0.66" stop-color="#050915"/>
<stop offset="0.85" stop-color="#010205"/>
<stop offset="1"/>
</radialGradient>
<radialGradient id="paint6_radial_499_125191" cx="0" cy="0" r="1" gradientUnits="userSpaceOnUse" gradientTransform="translate(36.3124 15.4097) scale(34.8823 20.3112)">
<stop stop-color="#475979"/>
<stop offset="0.34" stop-color="#3F4F70"/>
<stop offset="0.89" stop-color="#2A3758"/>
<stop offset="1" stop-color="#263153"/>
</radialGradient>
<radialGradient id="paint7_radial_499_125191" cx="0" cy="0" r="1" gradientUnits="userSpaceOnUse" gradientTransform="translate(37.874 21.6142) scale(36.3975 21.1935)">
<stop offset="0.33" stop-color="#F7F7EA"/>
<stop offset="0.44" stop-color="#EBECE2"/>
<stop offset="0.63" stop-color="#CDD1CF"/>
<stop offset="0.88" stop-color="#9DA5B1"/>
<stop offset="1" stop-color="#858FA2"/>
</radialGradient>
<radialGradient id="paint8_radial_499_125191" cx="0" cy="0" r="1" gradientUnits="userSpaceOnUse" gradientTransform="translate(47.9731 15.0611) scale(30.91 17.9982)">
<stop stop-color="#232536"/>
<stop offset="1"/>
</radialGradient>
<radialGradient id="paint9_radial_499_125191" cx="0" cy="0" r="1" gradientUnits="userSpaceOnUse" gradientTransform="translate(176.398 12.405) scale(66.6933 38.834)">
<stop stop-color="#20377D"/>
<stop offset="0.21" stop-color="#152554"/>
<stop offset="0.44" stop-color="#0C152F"/>
<stop offset="0.66" stop-color="#050915"/>
<stop offset="0.85" stop-color="#010205"/>
<stop offset="1"/>
</radialGradient>
<radialGradient id="paint10_radial_499_125191" cx="0" cy="0" r="1" gradientUnits="userSpaceOnUse" gradientTransform="translate(190.81 18.5347) scale(25.4799 14.8364)">
<stop stop-color="#475979"/>
<stop offset="0.34" stop-color="#3F4F70"/>
<stop offset="0.89" stop-color="#2A3758"/>
<stop offset="1" stop-color="#263153"/>
</radialGradient>
<radialGradient id="paint11_radial_499_125191" cx="0" cy="0" r="1" gradientUnits="userSpaceOnUse" gradientTransform="translate(191.318 19.975) scale(27.0033 15.7235)">
<stop offset="0.33" stop-color="#F7F7EA"/>
<stop offset="0.44" stop-color="#EBECE2"/>
<stop offset="0.63" stop-color="#CDD1CF"/>
<stop offset="0.88" stop-color="#9DA5B1"/>
<stop offset="1" stop-color="#858FA2"/>
</radialGradient>
<radialGradient id="paint12_radial_499_125191" cx="0" cy="0" r="1" gradientUnits="userSpaceOnUse" gradientTransform="translate(200.344 18.7776) scale(40.722 23.7114)">
<stop stop-color="#232536"/>
<stop offset="1"/>
</radialGradient>
<clipPath id="clip0_499_125191">
<rect width="303" height="22" fill="white"/>
</clipPath>
</defs>
</svg>
