<svg width="27" height="432" viewBox="0 0 27 432" fill="none" xmlns="http://www.w3.org/2000/svg">
<g clip-path="url(#clip0_499_125019)">
<path fill-rule="evenodd" clip-rule="evenodd" d="M8.52322 26.4535C15.0775 23.8401 20.255 18.4463 22.6456 11.7268L15.318 3.34766C15.318 12.0845 8.32989 19.2237 -0.308594 19.3047L8.52793 26.4487L8.52322 26.4535Z" fill="url(#paint0_radial_499_125019)"/>
<path fill-rule="evenodd" clip-rule="evenodd" d="M22.6401 11.732C53.1247 9.7052 83.8026 8.91831 114.33 8.91831C144.857 8.91831 175.535 9.7052 206.024 11.732L213.352 3.35288C184.522 1.25929 150.619 0.0527344 114.334 0.0527344C78.0499 0.0527344 44.142 1.25929 15.3125 3.35288L22.6401 11.732Z" fill="url(#paint1_radial_499_125019)"/>
<path fill-rule="evenodd" clip-rule="evenodd" d="M10.4149 226.447C10.3724 221.735 10.3253 217.018 10.2828 212.306C10.2498 208.94 10.2168 205.573 10.1838 202.206C10.1555 199.006 10.1225 195.811 10.0942 192.611C10.0094 183.626 10.0329 174.631 9.83489 165.647C9.78302 163.186 9.17946 160.496 9.23604 158.288C9.3162 154.974 9.64156 151.65 9.66514 148.264C9.74058 136.503 9.45295 124.59 9.33978 112.816C9.30677 109.449 9.27848 106.082 9.24547 102.715C9.1606 94.0018 8.93426 85.0409 9.02857 76.3517C9.09458 71.9643 9.5001 67.6531 9.54725 63.2084C9.57554 60.428 8.99084 58.592 8.83995 55.969C8.48159 49.7645 8.67492 42.8352 8.61833 36.5544C8.58533 33.1875 8.55703 29.8206 8.52403 26.4537L-0.3125 19.3145C-0.204047 30.8793 -0.0955949 42.4441 0.017573 54.009C0.0552956 58.0292 -0.0861642 63.0891 0.357077 66.9854C0.569266 68.8739 1.46518 72.6653 0.988931 74.3392C0.234478 76.9956 0.253339 78.0781 0.272201 80.8346C0.479675 111.194 0.823894 141.554 1.13039 171.913C1.15868 174.884 1.02194 179.582 1.44632 182.371C1.59249 183.325 2.16776 184.832 2.09232 185.6C1.9037 187.536 1.48404 188.996 1.3803 191.127C1.21527 194.747 1.38973 198.982 1.42274 202.664C1.52176 213.046 1.62078 223.428 1.71981 233.815L10.4149 226.451V226.447Z" fill="url(#paint2_radial_499_125019)"/>
<path fill-rule="evenodd" clip-rule="evenodd" d="M14.4035 30.1531C19.595 27.1963 23.8341 22.7516 26.5643 17.396L22.6458 11.7305C20.2552 18.45 15.0777 23.839 8.52344 26.4572L14.4035 30.1579V30.1531Z" fill="url(#paint3_radial_499_125019)"/>
<path fill-rule="evenodd" clip-rule="evenodd" d="M26.5669 17.3992C55.783 15.5488 85.0652 14.8287 114.338 14.8287C143.611 14.8287 172.893 15.5536 202.109 17.3992L206.032 11.7336C175.548 9.70681 144.87 8.91992 114.338 8.91992C83.8062 8.91992 53.133 9.70681 22.6484 11.7336L26.5669 17.3992Z" fill="url(#paint4_radial_499_125019)"/>
<path fill-rule="evenodd" clip-rule="evenodd" d="M16.2197 222.631L14.3995 30.1539L8.51953 26.4531C8.55254 29.82 8.58555 33.187 8.61384 36.5539C8.67042 42.8394 8.47709 49.764 8.83546 55.9685C8.98635 58.5962 9.57105 60.4275 9.54276 63.2078C9.4956 67.6525 9.09009 71.9637 9.02407 76.3512C8.92976 85.0403 9.1561 93.9965 9.24098 102.714C9.27398 106.081 9.30699 109.443 9.33528 112.815C9.44845 124.594 9.73609 136.503 9.66064 148.263C9.63706 151.654 9.31171 154.973 9.23155 158.287C9.17496 160.491 9.77852 163.185 9.83039 165.646C10.0284 174.631 10.0096 183.625 10.0897 192.61C10.118 195.81 10.151 199.005 10.1793 202.205C10.2123 205.572 10.2453 208.939 10.2783 212.306C10.3255 217.018 10.3679 221.734 10.4104 226.446L16.2197 222.631Z" fill="url(#paint5_radial_499_125019)"/>
</g>
<g clip-path="url(#clip1_499_125019)">
<path fill-rule="evenodd" clip-rule="evenodd" d="M10.4149 421.807C10.3724 412.104 10.3253 402.392 10.2828 392.69C10.2498 385.757 10.2168 378.824 10.1838 371.891C10.1555 365.301 10.1225 358.722 10.0942 352.132C10.0094 333.631 10.0329 315.11 9.83489 296.609C9.78302 291.542 9.17946 286.003 9.23604 281.456C9.3162 274.631 9.64156 267.787 9.66514 260.814C9.74058 236.598 9.45295 212.067 9.33978 187.821C9.30677 180.888 9.27848 173.955 9.24547 167.022C9.1606 149.08 8.93426 130.628 9.02857 112.736C9.09458 103.701 9.5001 94.8236 9.54725 85.6712C9.57554 79.946 8.99084 76.1653 8.83995 70.7642C8.48159 57.9881 8.67492 43.7193 8.61833 30.7861C8.58533 23.8531 8.55703 16.92 8.52403 9.98697L-0.3125 -4.71387C-0.204047 19.1001 -0.0955949 42.9141 0.017573 66.7281C0.0552956 75.0065 -0.0861642 85.4257 0.357077 93.4488C0.569266 97.3376 1.46518 105.145 0.988931 108.592C0.234478 114.061 0.253339 116.291 0.272201 121.967C0.479675 184.482 0.823894 246.997 1.13039 309.513C1.15868 315.631 1.02194 325.304 1.44632 331.048C1.59249 333.012 2.16776 336.116 2.09232 337.697C1.9037 341.684 1.48404 344.689 1.3803 349.078C1.21527 356.532 1.38973 365.252 1.42274 372.833C1.52176 394.212 1.62078 415.591 1.71981 436.979L10.4149 421.817V421.807Z" fill="url(#paint6_radial_499_125019)"/>
<path fill-rule="evenodd" clip-rule="evenodd" d="M16.2197 413.95L14.3995 17.6068L8.51953 9.98633C8.55254 16.9194 8.58555 23.8524 8.61384 30.7855C8.67042 43.7285 8.47709 57.9874 8.83546 70.7635C8.98635 76.1744 9.57105 79.9454 9.54276 85.6706C9.4956 94.823 9.09009 103.7 9.02407 112.735C8.92976 130.627 9.1561 149.07 9.24098 167.021C9.27398 173.954 9.30699 180.877 9.33528 187.82C9.44845 212.076 9.73609 236.597 9.66064 260.814C9.63706 267.796 9.31171 274.631 9.23155 281.456C9.17496 285.993 9.77852 291.541 9.83039 296.608C10.0284 315.11 10.0096 333.63 10.0897 352.132C10.118 358.721 10.151 365.301 10.1793 371.89C10.2123 378.823 10.2453 385.756 10.2783 392.689C10.3255 402.392 10.3679 412.104 10.4104 421.806L16.2197 413.95Z" fill="url(#paint7_radial_499_125019)"/>
<path fill-rule="evenodd" clip-rule="evenodd" d="M9.19782 158.863C8.74515 158.598 7.25511 162.398 6.81658 165.432C5.78392 172.65 8.26419 189.256 9.35814 189.276C10.9755 189.305 14.1961 171.845 13.4888 168.221C12.6353 163.861 10.7869 159.796 9.19782 158.863Z" fill="url(#paint8_radial_499_125019)"/>
<path style="mix-blend-mode:multiply" fill-rule="evenodd" clip-rule="evenodd" d="M6.59072 171.15C8.04776 163.205 12.4802 164.934 13.0507 175.579C13.5081 172.348 13.7297 169.461 13.4892 168.214C12.6358 163.853 10.7874 159.788 9.1983 158.855C8.74563 158.59 7.25558 162.39 6.81706 165.425C6.59072 166.976 6.53414 168.97 6.59072 171.14V171.15Z" fill="url(#paint9_radial_499_125019)"/>
</g>
<g clip-path="url(#clip2_499_125019)">
<path fill-rule="evenodd" clip-rule="evenodd" d="M203.649 420.388C195.006 420.96 186.372 421.427 177.724 421.809C174.188 421.966 171.165 422.281 167.671 422.619C164.394 422.939 161.556 422.472 158.241 422.529C147.584 422.724 137.121 423.125 126.431 423.058C122.574 423.034 118.698 422.371 114.935 422.615C111.573 422.834 108.81 423.101 105.363 423.092C78.7119 423.039 51.6177 422.143 25.0232 420.383L17.6484 428.757L18.0021 428.781C30.7759 429.706 43.5686 430.383 56.366 430.884C67.5366 431.323 79.0326 431.733 90.1985 431.79C94.8384 431.814 100.308 431.018 104.764 431.557C108.258 431.981 110.828 431.986 114.336 431.986C128.279 431.986 142.218 431.805 156.161 431.423C158.58 431.361 161.867 431.385 164.191 431.084C166.068 430.841 166.224 430.336 168.289 430.56C170.411 430.789 171.693 430.903 173.839 430.827C186.188 430.388 198.698 429.659 211.029 428.762L203.654 420.388H203.649Z" fill="url(#paint10_radial_499_125019)"/>
<path fill-rule="evenodd" clip-rule="evenodd" d="M25.0211 420.387C23.8187 416.959 21.843 413.835 19.1411 411.126C16.5712 408.551 13.6289 406.643 10.4177 405.441L1.72266 412.805C6.09377 412.762 9.87074 414.312 12.9781 417.426C16.0808 420.54 17.651 424.341 17.651 428.767L25.0258 420.392L25.0211 420.387Z" fill="url(#paint11_radial_499_125019)"/>
<path fill-rule="evenodd" clip-rule="evenodd" d="M10.4149 405.447C10.3724 400.735 10.3253 396.018 10.2828 391.306C10.2498 387.94 10.2168 384.573 10.1838 381.206C10.1555 378.006 10.1225 374.811 10.0942 371.611C10.0094 362.626 10.0329 353.631 9.83489 344.647C9.78302 342.186 9.17946 339.496 9.23604 337.288C9.3162 333.974 9.64156 330.65 9.66514 327.264C9.74058 315.503 9.45295 303.59 9.33978 291.816C9.30677 288.449 9.27848 285.082 9.24547 281.715C9.1606 273.002 8.93426 264.041 9.02857 255.352C9.09458 250.964 9.5001 246.653 9.54725 242.208C9.57554 239.428 8.99084 237.592 8.83995 234.969C8.48159 228.765 8.67492 221.835 8.61833 215.554C8.58533 212.187 8.55703 208.821 8.52403 205.454L-0.3125 198.314C-0.204047 209.879 -0.0955949 221.444 0.017573 233.009C0.0552956 237.029 -0.0861642 242.089 0.357077 245.985C0.569266 247.874 1.46518 251.665 0.988931 253.339C0.234478 255.996 0.253339 257.078 0.272201 259.835C0.479675 290.194 0.823894 320.554 1.13039 350.913C1.15868 353.884 1.02194 358.582 1.44632 361.371C1.59249 362.325 2.16776 363.832 2.09232 364.6C1.9037 366.536 1.48404 367.996 1.3803 370.127C1.21527 373.747 1.38973 377.982 1.42274 381.664C1.52176 392.046 1.62078 402.428 1.71981 412.815L10.4149 405.451V405.447Z" fill="url(#paint12_radial_499_125019)"/>
<path fill-rule="evenodd" clip-rule="evenodd" d="M199.726 414.725C171.302 416.518 142.812 417.214 114.336 417.214C85.8606 417.214 57.3706 416.518 28.9466 414.725L25.0234 420.39C51.6179 422.15 78.7122 423.051 105.363 423.099C108.815 423.104 111.578 422.841 114.935 422.622C118.698 422.374 122.569 423.037 126.431 423.066C137.121 423.132 147.58 422.737 158.241 422.536C161.556 422.474 164.394 422.946 167.672 422.627C171.166 422.283 174.188 421.973 177.725 421.816C186.377 421.43 195.011 420.962 203.65 420.395L199.726 414.729V414.725Z" fill="url(#paint13_radial_499_125019)"/>
<path fill-rule="evenodd" clip-rule="evenodd" d="M28.9492 414.724C27.478 411.848 25.5542 409.235 23.2578 406.931C21.1595 404.828 18.8018 403.044 16.2273 401.633L10.418 405.448C13.6338 406.65 16.5762 408.557 19.1413 411.133C21.8432 413.837 23.8189 416.96 25.0213 420.394L28.9445 414.728L28.9492 414.724Z" fill="url(#paint14_radial_499_125019)"/>
<path fill-rule="evenodd" clip-rule="evenodd" d="M16.2197 401.631L14.3995 209.154L8.51953 205.453C8.55254 208.82 8.58555 212.187 8.61384 215.554C8.67042 221.839 8.47709 228.764 8.83546 234.968C8.98635 237.596 9.57105 239.427 9.54276 242.208C9.4956 246.653 9.09009 250.964 9.02407 255.351C8.92976 264.04 9.1561 272.997 9.24098 281.714C9.27398 285.081 9.30699 288.443 9.33528 291.815C9.44845 303.594 9.73609 315.503 9.66064 327.263C9.63706 330.654 9.31171 333.973 9.23155 337.287C9.17496 339.491 9.77852 342.185 9.83039 344.646C10.0284 353.631 10.0096 362.625 10.0897 371.61C10.118 374.81 10.151 378.005 10.1793 381.205C10.2123 384.572 10.2453 387.939 10.2783 391.306C10.3255 396.018 10.3679 400.734 10.4104 405.446L16.2197 401.631Z" fill="url(#paint15_radial_499_125019)"/>
</g>
<defs>
<radialGradient id="paint0_radial_499_125019" cx="0" cy="0" r="1" gradientUnits="userSpaceOnUse" gradientTransform="translate(5.85434 28.3277) scale(51.3358 51.9201)">
<stop stop-color="#7082A5"/>
<stop offset="1" stop-color="#505D8B"/>
</radialGradient>
<radialGradient id="paint1_radial_499_125019" cx="0" cy="0" r="1" gradientUnits="userSpaceOnUse" gradientTransform="translate(114.334 -56.2978) scale(116.761 118.09)">
<stop offset="0.72" stop-color="#262E44"/>
<stop offset="0.76" stop-color="#313A51"/>
<stop offset="0.85" stop-color="#46536B"/>
<stop offset="0.94" stop-color="#53627B"/>
<stop offset="1" stop-color="#586881"/>
</radialGradient>
<radialGradient id="paint2_radial_499_125019" cx="0" cy="0" r="1" gradientUnits="userSpaceOnUse" gradientTransform="translate(-56.4485 82.7088) scale(200.067 202.344)">
<stop stop-color="#677A9E"/>
<stop offset="1" stop-color="#39456F"/>
</radialGradient>
<radialGradient id="paint3_radial_499_125019" cx="0" cy="0" r="1" gradientUnits="userSpaceOnUse" gradientTransform="translate(-8.11696 30.3391) scale(49.1432 49.7026)">
<stop stop-color="#475979"/>
<stop offset="1" stop-color="#252F51"/>
</radialGradient>
<radialGradient id="paint4_radial_499_125019" cx="0" cy="0" r="1" gradientUnits="userSpaceOnUse" gradientTransform="translate(115.663 14.4997) scale(149.891 151.597)">
<stop stop-color="#38465E"/>
<stop offset="1" stop-color="#1F263F"/>
</radialGradient>
<radialGradient id="paint5_radial_499_125019" cx="0" cy="0" r="1" gradientUnits="userSpaceOnUse" gradientTransform="translate(-81.3688 108.89) scale(259.867 262.825)">
<stop stop-color="#344156"/>
<stop offset="1" stop-color="#19202F"/>
</radialGradient>
<radialGradient id="paint6_radial_499_125019" cx="0" cy="0" r="1" gradientUnits="userSpaceOnUse" gradientTransform="translate(-56.4485 125.826) scale(200.067 416.661)">
<stop stop-color="#677A9E"/>
<stop offset="1" stop-color="#39456F"/>
</radialGradient>
<radialGradient id="paint7_radial_499_125019" cx="0" cy="0" r="1" gradientUnits="userSpaceOnUse" gradientTransform="translate(-81.3688 179.738) scale(259.867 541.201)">
<stop stop-color="#344156"/>
<stop offset="1" stop-color="#19202F"/>
</radialGradient>
<radialGradient id="paint8_radial_499_125019" cx="0" cy="0" r="1" gradientUnits="userSpaceOnUse" gradientTransform="translate(5.88294 198.468) scale(24.3028 50.6133)">
<stop stop-color="#475979"/>
<stop offset="0.34" stop-color="#3F4F70"/>
<stop offset="0.89" stop-color="#2A3758"/>
<stop offset="1" stop-color="#263153"/>
</radialGradient>
<radialGradient id="paint9_radial_499_125019" cx="0" cy="0" r="1" gradientUnits="userSpaceOnUse" gradientTransform="translate(3.52104 189.71) scale(25.1186 52.3122)">
<stop offset="0.33" stop-color="#F7F7EA"/>
<stop offset="0.44" stop-color="#EBECE2"/>
<stop offset="0.63" stop-color="#CDD1CF"/>
<stop offset="0.88" stop-color="#9DA5B1"/>
<stop offset="1" stop-color="#858FA2"/>
</radialGradient>
<radialGradient id="paint10_radial_499_125019" cx="0" cy="0" r="1" gradientUnits="userSpaceOnUse" gradientTransform="translate(108.164 372.34) scale(157.652 159.447)">
<stop stop-color="#313D50"/>
<stop offset="1" stop-color="#192033"/>
</radialGradient>
<radialGradient id="paint11_radial_499_125019" cx="0" cy="0" r="1" gradientUnits="userSpaceOnUse" gradientTransform="translate(26.8695 429.592) scale(40.9102 41.3759)">
<stop stop-color="#3A4763"/>
<stop offset="1" stop-color="#232C47"/>
</radialGradient>
<radialGradient id="paint12_radial_499_125019" cx="0" cy="0" r="1" gradientUnits="userSpaceOnUse" gradientTransform="translate(-56.4485 261.709) scale(200.067 202.344)">
<stop stop-color="#677A9E"/>
<stop offset="1" stop-color="#39456F"/>
</radialGradient>
<radialGradient id="paint13_radial_499_125019" cx="0" cy="0" r="1" gradientUnits="userSpaceOnUse" gradientTransform="translate(167.964 384.575) scale(206.362 208.711)">
<stop stop-color="#607099"/>
<stop offset="1" stop-color="#495586"/>
</radialGradient>
<radialGradient id="paint14_radial_499_125019" cx="0" cy="0" r="1" gradientUnits="userSpaceOnUse" gradientTransform="translate(34.7302 412.964) scale(29.848 30.1878)">
<stop stop-color="#434F73"/>
<stop offset="1" stop-color="#323C59"/>
</radialGradient>
<radialGradient id="paint15_radial_499_125019" cx="0" cy="0" r="1" gradientUnits="userSpaceOnUse" gradientTransform="translate(-81.3688 287.89) scale(259.867 262.825)">
<stop stop-color="#344156"/>
<stop offset="1" stop-color="#19202F"/>
</radialGradient>
<clipPath id="clip0_499_125019">
<rect width="27" height="42" fill="white"/>
</clipPath>
<clipPath id="clip1_499_125019">
<rect width="27" height="348" fill="white" transform="translate(0 42)"/>
</clipPath>
<clipPath id="clip2_499_125019">
<rect width="27" height="42" fill="white" transform="translate(0 390)"/>
</clipPath>
</defs>
</svg>
