<svg width="27" height="432" viewBox="0 0 27 432" fill="none" xmlns="http://www.w3.org/2000/svg">
<g clip-path="url(#clip0_499_125225)">
<path fill-rule="evenodd" clip-rule="evenodd" d="M-179.36 11.732C-148.875 9.7052 -118.197 8.91831 -87.6703 8.91831C-57.1433 8.91831 -26.4654 9.7052 4.02394 11.732L11.3516 3.35288C-17.478 1.25929 -51.3812 0.0527344 -87.6656 0.0527344C-123.95 0.0527344 -157.858 1.25929 -186.688 3.35288L-179.36 11.732Z" fill="url(#paint0_radial_499_125225)"/>
<path fill-rule="evenodd" clip-rule="evenodd" d="M4.02734 11.7337C6.4133 18.4533 11.5907 23.8422 18.1497 26.4604L26.9863 19.3165C18.3478 19.2306 11.3597 12.0962 11.3597 3.35938L4.03205 11.7385L4.02734 11.7337Z" fill="url(#paint1_radial_499_125225)"/>
<path fill-rule="evenodd" clip-rule="evenodd" d="M18.0685 35.042C18.0402 38.0703 18.0119 41.1034 17.9836 44.1317C17.9082 52.0578 17.5828 60.5752 18.0685 68.4346C18.2571 71.4963 17.7714 73.9761 17.696 77.0331C17.4602 86.3565 17.4979 95.8945 17.4084 105.242C17.3612 110.292 17.314 115.342 17.2622 120.393C17.2009 126.984 16.984 133.923 17.1066 140.475C17.149 142.807 17.6111 145.168 17.3989 147.371C16.7435 154.086 16.9038 159.713 17.2339 166.404C17.3706 169.208 16.8614 171.66 16.7765 174.497C16.5643 181.627 16.6162 189 16.5455 196.153C16.5124 199.52 16.4794 202.887 16.4511 206.254C16.3898 212.988 16.3238 219.722 16.2578 226.455L24.9529 233.819C25.0189 226.928 25.0849 220.036 25.1462 213.145C25.1651 211.099 25.1839 209.049 25.2028 207.007C25.2641 200.545 25.3254 194.083 25.3867 187.621C25.4103 185.103 25.5564 181.956 25.3914 179.505C25.2924 177.974 24.637 175.36 24.967 174.068C25.3254 172.666 25.4669 171.96 25.5282 170.491C25.6555 167.458 25.6083 164.191 25.6366 161.134C25.6979 154.782 25.7592 148.43 25.8158 142.073C25.8959 133.46 25.9761 124.847 26.061 116.234C26.0798 114.079 26.0987 111.923 26.1223 109.772C26.1459 107.407 26.4005 101.946 25.8158 99.9386C25.4857 98.7893 25.0048 98.5556 25.283 97.3586C25.7451 95.3937 26.1364 94.4972 26.2496 92.3654C26.3958 89.504 26.3816 86.4614 26.3345 83.5857C26.2826 80.5144 25.6366 77.7007 25.7545 74.7487C25.9478 69.9177 26.4995 65.2679 26.5797 60.3511C26.806 46.7022 26.8437 32.9866 26.9758 19.3281L18.1392 26.4721L18.1298 27.4831C18.1062 30.0059 18.0826 32.5335 18.0591 35.0563L18.0685 35.042Z" fill="url(#paint2_radial_499_125225)"/>
<path fill-rule="evenodd" clip-rule="evenodd" d="M-175.433 17.3992C-146.217 15.5488 -116.935 14.8287 -87.662 14.8287C-58.3892 14.8287 -29.1071 15.5536 0.109112 17.3992L4.03227 11.7336C-26.4523 9.70681 -57.1303 8.91992 -87.662 8.91992C-118.194 8.91992 -148.867 9.70681 -179.352 11.7336L-175.433 17.3992Z" fill="url(#paint3_radial_499_125225)"/>
<path fill-rule="evenodd" clip-rule="evenodd" d="M0.105469 17.3969C2.83564 22.7525 7.07472 27.202 12.271 30.154L18.151 26.4532C11.5967 23.8398 6.4193 18.4461 4.02863 11.7266L0.105469 17.3921V17.3969Z" fill="url(#paint4_radial_499_125225)"/>
<path fill-rule="evenodd" clip-rule="evenodd" d="M12.2732 30.1547L10.4531 222.632L16.2624 226.447C16.3284 219.713 16.3897 212.979 16.4557 206.245C16.4888 202.883 16.5217 199.512 16.55 196.145C16.6161 188.991 16.5689 181.618 16.7811 174.489C16.866 171.651 17.3752 169.2 17.2385 166.396C16.9037 159.705 16.7481 154.077 17.4035 147.363C17.6157 145.164 17.1583 142.799 17.1112 140.467C16.9886 133.914 17.2008 126.975 17.2668 120.384C17.3186 115.334 17.3658 110.284 17.413 105.233C17.5025 95.8859 17.4648 86.3527 17.7006 77.0245C17.7807 73.9723 18.2617 71.4877 18.0731 68.426C17.5874 60.5667 17.9128 52.054 17.9882 44.1231C18.0165 41.0901 18.0448 38.0617 18.0731 35.0334C18.0967 32.5059 18.1202 29.9831 18.1438 27.4602L18.1533 26.4492L12.2732 30.15V30.1547Z" fill="url(#paint5_radial_499_125225)"/>
<path style="mix-blend-mode:screen" fill-rule="evenodd" clip-rule="evenodd" d="M7.04688 17.6035C10.1448 21.2375 12.7571 23.2786 16.9066 24.9716C17.2744 25.1195 17.6517 25.1767 18.0147 25.1385C19.1228 25.0289 24.6398 21.0277 25.9459 20.1549C24.7246 21.309 19.7405 25.6631 19.2266 26.7982C19.0757 27.132 18.9908 27.4944 18.9767 27.8903L17.845 62.704L17.2744 28.5484C17.2603 27.6137 16.7746 26.8268 15.9683 26.3785C11.9272 24.1466 9.28195 21.2327 7.05159 17.6131L7.04688 17.6035Z" fill="url(#paint6_radial_499_125225)"/>
</g>
<g clip-path="url(#clip1_499_125225)">
<path fill-rule="evenodd" clip-rule="evenodd" d="M18.0685 27.672C18.0402 33.9078 18.0119 40.1535 17.9836 46.3893C17.9082 62.7105 17.5828 80.2493 18.0685 96.433C18.2571 102.738 17.7714 107.844 17.696 114.139C17.4602 133.337 17.4979 152.978 17.4084 172.225C17.3612 182.625 17.314 193.024 17.2622 203.424C17.2009 216.996 16.984 231.284 17.1066 244.777C17.149 249.579 17.6111 254.44 17.3989 258.977C16.7435 272.804 16.9038 284.392 17.2339 298.169C17.3706 303.944 16.8614 308.991 16.7765 314.834C16.5643 329.515 16.6162 344.697 16.5455 359.428C16.5124 366.361 16.4794 373.294 16.4511 380.227C16.3898 394.093 16.3238 407.959 16.2578 421.825L24.9529 436.988C25.0189 422.797 25.0849 408.607 25.1462 394.417C25.1651 390.204 25.1839 385.982 25.2028 381.778C25.2641 368.472 25.3254 355.166 25.3867 341.859C25.4103 336.674 25.5564 330.193 25.3914 325.145C25.2924 321.993 24.637 316.612 24.967 313.95C25.3254 311.063 25.4669 309.61 25.5282 306.585C25.6555 300.34 25.6083 293.613 25.6366 287.318C25.6979 274.237 25.7592 261.157 25.8158 248.067C25.8959 230.331 25.9761 212.596 26.061 194.861C26.0798 190.422 26.0987 185.983 26.1223 181.555C26.1459 176.684 26.4005 165.44 25.8158 161.305C25.4857 158.939 25.0048 158.457 25.283 155.993C25.7451 151.947 26.1364 150.1 26.2496 145.711C26.3958 139.819 26.3816 133.553 26.3345 127.632C26.2826 121.308 25.6366 115.514 25.7545 109.435C25.9478 99.4871 26.4995 89.9124 26.5797 79.7878C26.806 51.6824 26.8437 23.4395 26.9758 -4.68555L18.1392 10.0251L18.1298 12.107C18.1062 17.3019 18.0826 22.5066 18.0591 27.7015L18.0685 27.672Z" fill="url(#paint7_radial_499_125225)"/>
<path fill-rule="evenodd" clip-rule="evenodd" d="M12.2732 17.6078L10.4531 413.951L16.2624 421.807C16.3284 407.941 16.3897 394.075 16.4557 380.209C16.4888 373.286 16.5217 366.343 16.55 359.41C16.6161 344.679 16.5689 329.497 16.7811 314.816C16.866 308.973 17.3752 303.925 17.2385 298.151C16.9037 284.373 16.7481 272.786 17.4035 258.959C17.6157 254.432 17.1583 249.561 17.1112 244.759C16.9886 231.266 17.2008 216.977 17.2668 203.406C17.3186 193.006 17.3658 182.607 17.413 172.207C17.5025 152.96 17.4648 133.329 17.7006 114.121C17.7807 107.836 18.2617 102.719 18.0731 96.4149C17.5874 80.2312 17.9128 62.7022 17.9882 46.3712C18.0165 40.1255 18.0448 33.8897 18.0731 27.6539C18.0967 22.4492 18.1202 17.2543 18.1438 12.0594L18.1533 9.97754L12.2732 17.598V17.6078Z" fill="url(#paint8_radial_499_125225)"/>
<path style="mix-blend-mode:screen" fill-rule="evenodd" clip-rule="evenodd" d="M7.04688 -8.2373C10.1448 -0.754316 12.7571 3.44873 16.9066 6.9349C17.2744 7.23932 17.6517 7.35716 18.0147 7.2786C19.1228 7.05274 24.6398 -1.1864 25.9459 -2.9835C24.7246 -0.607011 19.7405 8.35883 19.2266 10.696C19.0757 11.3834 18.9908 12.1298 18.9767 12.9449L17.845 84.6323L17.2744 14.3C17.2603 12.3753 16.7746 10.755 15.9683 9.83186C11.9272 5.23601 9.28195 -0.764135 7.05159 -8.21766L7.04688 -8.2373Z" fill="url(#paint9_radial_499_125225)"/>
</g>
<g clip-path="url(#clip2_499_125225)">
<path fill-rule="evenodd" clip-rule="evenodd" d="M18.0685 214.042C18.0402 217.07 18.0119 220.103 17.9836 223.132C17.9082 231.058 17.5828 239.575 18.0685 247.435C18.2571 250.496 17.7714 252.976 17.696 256.033C17.4602 265.356 17.4979 274.894 17.4084 284.242C17.3612 289.292 17.314 294.342 17.2622 299.393C17.2009 305.984 16.984 312.923 17.1066 319.475C17.149 321.807 17.6111 324.168 17.3989 326.371C16.7435 333.086 16.9038 338.713 17.2339 345.404C17.3706 348.208 16.8614 350.66 16.7765 353.497C16.5643 360.627 16.6162 368 16.5455 375.153C16.5124 378.52 16.4794 381.887 16.4511 385.254C16.3898 391.988 16.3238 398.722 16.2578 405.455L24.9529 412.819C25.0189 405.928 25.0849 399.036 25.1462 392.145C25.1651 390.099 25.1839 388.049 25.2028 386.007C25.2641 379.545 25.3254 373.083 25.3867 366.621C25.4103 364.103 25.5564 360.956 25.3914 358.505C25.2924 356.974 24.637 354.36 24.967 353.068C25.3254 351.666 25.4669 350.96 25.5282 349.491C25.6555 346.458 25.6083 343.191 25.6366 340.134C25.6979 333.782 25.7592 327.43 25.8158 321.073C25.8959 312.46 25.9761 303.847 26.061 295.234C26.0798 293.079 26.0987 290.923 26.1223 288.772C26.1459 286.407 26.4005 280.946 25.8158 278.939C25.4857 277.789 25.0048 277.556 25.283 276.359C25.7451 274.394 26.1364 273.497 26.2496 271.365C26.3958 268.504 26.3816 265.461 26.3345 262.586C26.2826 259.514 25.6366 256.701 25.7545 253.749C25.9478 248.918 26.4995 244.268 26.5797 239.351C26.806 225.702 26.8437 211.987 26.9758 198.328L18.1392 205.472L18.1298 206.483C18.1062 209.006 18.0826 211.533 18.0591 214.056L18.0685 214.042Z" fill="url(#paint10_radial_499_125225)"/>
<path fill-rule="evenodd" clip-rule="evenodd" d="M16.2565 405.446C13.0407 406.648 10.103 408.556 7.52845 411.131C4.82657 413.835 2.85556 416.959 1.64844 420.392L9.02322 428.767C9.02322 424.346 10.5934 420.54 13.6961 417.426C16.8035 414.312 20.5805 412.767 24.9516 412.805L16.2565 405.441V405.446Z" fill="url(#paint11_radial_499_125225)"/>
<path fill-rule="evenodd" clip-rule="evenodd" d="M1.64926 420.388C-6.99394 420.96 -15.6277 421.427 -24.2756 421.809C-27.8121 421.966 -30.8346 422.281 -34.3287 422.619C-37.6058 422.939 -40.4445 422.472 -43.7593 422.529C-54.416 422.724 -64.8793 423.125 -75.5689 423.058C-79.4261 423.034 -83.3021 422.371 -87.0649 422.615C-90.4269 422.834 -93.1901 423.101 -96.637 423.092C-123.288 423.039 -150.382 422.143 -176.977 420.383L-184.352 428.757L-183.998 428.781C-171.224 429.706 -158.431 430.383 -145.634 430.884C-134.463 431.323 -122.967 431.733 -111.802 431.79C-107.162 431.814 -101.692 431.018 -97.2359 431.557C-93.7418 431.981 -91.172 431.986 -87.6638 431.986C-73.7205 431.986 -59.782 431.805 -45.8388 431.423C-43.4198 431.361 -40.1333 431.385 -37.8086 431.084C-35.9319 430.841 -35.7763 430.336 -33.711 430.56C-31.5891 430.789 -30.3065 430.903 -28.161 430.827C-15.8116 430.388 -3.30182 429.659 9.02876 428.762L1.65398 420.388H1.64926Z" fill="url(#paint12_radial_499_125225)"/>
<path fill-rule="evenodd" clip-rule="evenodd" d="M12.2732 209.155L10.4531 401.632L16.2624 405.447C16.3284 398.713 16.3897 391.979 16.4557 385.245C16.4888 381.883 16.5217 378.512 16.55 375.145C16.6161 367.991 16.5689 360.618 16.7811 353.489C16.866 350.651 17.3752 348.2 17.2385 345.396C16.9037 338.705 16.7481 333.077 17.4035 326.363C17.6157 324.164 17.1583 321.799 17.1112 319.467C16.9886 312.914 17.2008 305.975 17.2668 299.384C17.3186 294.334 17.3658 289.284 17.413 284.233C17.5025 274.886 17.4648 265.353 17.7006 256.024C17.7807 252.972 18.2617 250.488 18.0731 247.426C17.5874 239.567 17.9128 231.054 17.9882 223.123C18.0165 220.09 18.0448 217.062 18.0731 214.033C18.0967 211.506 18.1202 208.983 18.1438 206.46L18.1533 205.449L12.2732 209.15V209.155Z" fill="url(#paint13_radial_499_125225)"/>
<path fill-rule="evenodd" clip-rule="evenodd" d="M3.41795 406.93C1.12159 409.234 -0.802255 411.847 -2.27344 414.723L1.6497 420.388C2.85683 416.959 4.82784 413.836 7.52972 411.127C10.0996 408.552 13.0419 406.644 16.2578 405.442L10.4485 401.627C7.87394 403.034 5.51627 404.822 3.41795 406.925V406.93Z" fill="url(#paint14_radial_499_125225)"/>
<path fill-rule="evenodd" clip-rule="evenodd" d="M-2.27364 414.725C-30.6976 416.518 -59.1877 417.214 -87.6635 417.214C-116.139 417.214 -144.629 416.518 -173.053 414.725L-176.977 420.39C-150.382 422.15 -123.288 423.051 -96.6368 423.099C-93.1852 423.104 -90.422 422.841 -87.0647 422.622C-83.3018 422.374 -79.4306 423.037 -75.5687 423.066C-64.8791 423.132 -54.4205 422.737 -43.7591 422.536C-40.4442 422.474 -37.6056 422.946 -34.3284 422.627C-30.8344 422.283 -27.8119 421.973 -24.2754 421.816C-15.6227 421.43 -6.98898 420.962 1.6495 420.395L-2.27364 414.729V414.725Z" fill="url(#paint15_radial_499_125225)"/>
<path style="mix-blend-mode:screen" fill-rule="evenodd" clip-rule="evenodd" d="M9.44442 409.387C6.36531 412.167 3.99821 415.334 2.81467 419.154C2.7015 419.521 2.67321 419.888 2.72979 420.246C2.89483 421.271 5.65802 424.757 6.40304 425.797C5.36567 424.814 2.53647 421.81 1.38122 421.381C0.989843 421.233 0.570173 421.171 0.122217 421.195C-10.1902 421.667 -19.6444 421.748 -30.1172 422.225C-22.7424 421.271 -0.245577 420.446 1.0087 419.621C1.39064 419.368 1.70657 419.011 1.92348 418.562C3.60685 415.105 5.94565 411.967 9.44914 409.396L9.44442 409.387Z" fill="url(#paint16_radial_499_125225)"/>
</g>
<defs>
<radialGradient id="paint0_radial_499_125225" cx="0" cy="0" r="1" gradientUnits="userSpaceOnUse" gradientTransform="translate(-87.6656 -56.2978) scale(116.761 118.09)">
<stop offset="0.72" stop-color="#262E44"/>
<stop offset="0.76" stop-color="#313A51"/>
<stop offset="0.85" stop-color="#46536B"/>
<stop offset="0.94" stop-color="#53627B"/>
<stop offset="1" stop-color="#586881"/>
</radialGradient>
<radialGradient id="paint1_radial_499_125225" cx="0" cy="0" r="1" gradientUnits="userSpaceOnUse" gradientTransform="translate(21.2524 26.5415) scale(46.3234 46.8507)">
<stop stop-color="#435371"/>
<stop offset="1" stop-color="#28304F"/>
</radialGradient>
<radialGradient id="paint2_radial_499_125225" cx="0" cy="0" r="1" gradientUnits="userSpaceOnUse" gradientTransform="translate(-108.788 112.906) scale(244.07 246.848)">
<stop stop-color="#344156"/>
<stop offset="1" stop-color="#19202F"/>
</radialGradient>
<radialGradient id="paint3_radial_499_125225" cx="0" cy="0" r="1" gradientUnits="userSpaceOnUse" gradientTransform="translate(-86.337 14.4997) scale(149.891 151.597)">
<stop stop-color="#38465E"/>
<stop offset="1" stop-color="#1F263F"/>
</radialGradient>
<radialGradient id="paint4_radial_499_125225" cx="0" cy="0" r="1" gradientUnits="userSpaceOnUse" gradientTransform="translate(36.9039 37.7224) scale(53.9763 54.5908)">
<stop stop-color="#4D5F7E"/>
<stop offset="1" stop-color="#2C3751"/>
</radialGradient>
<radialGradient id="paint5_radial_499_125225" cx="0" cy="0" r="1" gradientUnits="userSpaceOnUse" gradientTransform="translate(-37.7799 103.822) scale(219.182 221.678)">
<stop stop-color="#677A9E"/>
<stop offset="1" stop-color="#39456F"/>
</radialGradient>
<radialGradient id="paint6_radial_499_125225" cx="0" cy="0" r="1" gradientUnits="userSpaceOnUse" gradientTransform="translate(17.265 26.4929) scale(43.928 44.428)">
<stop stop-color="#20377D"/>
<stop offset="0.21" stop-color="#152554"/>
<stop offset="0.44" stop-color="#0C152F"/>
<stop offset="0.66" stop-color="#050915"/>
<stop offset="0.85" stop-color="#010205"/>
<stop offset="1"/>
</radialGradient>
<radialGradient id="paint7_radial_499_125225" cx="0" cy="0" r="1" gradientUnits="userSpaceOnUse" gradientTransform="translate(-108.788 188.006) scale(244.07 508.303)">
<stop stop-color="#344156"/>
<stop offset="1" stop-color="#19202F"/>
</radialGradient>
<radialGradient id="paint8_radial_499_125225" cx="0" cy="0" r="1" gradientUnits="userSpaceOnUse" gradientTransform="translate(-37.7799 169.3) scale(219.182 456.472)">
<stop stop-color="#677A9E"/>
<stop offset="1" stop-color="#39456F"/>
</radialGradient>
<radialGradient id="paint9_radial_499_125225" cx="0" cy="0" r="1" gradientUnits="userSpaceOnUse" gradientTransform="translate(17.265 10.0675) scale(43.928 91.4849)">
<stop stop-color="#20377D"/>
<stop offset="0.21" stop-color="#152554"/>
<stop offset="0.44" stop-color="#0C152F"/>
<stop offset="0.66" stop-color="#050915"/>
<stop offset="0.85" stop-color="#010205"/>
<stop offset="1"/>
</radialGradient>
<radialGradient id="paint10_radial_499_125225" cx="0" cy="0" r="1" gradientUnits="userSpaceOnUse" gradientTransform="translate(-108.788 291.906) scale(244.07 246.848)">
<stop stop-color="#344156"/>
<stop offset="1" stop-color="#19202F"/>
</radialGradient>
<radialGradient id="paint11_radial_499_125225" cx="0" cy="0" r="1" gradientUnits="userSpaceOnUse" gradientTransform="translate(0.181969 433.493) scale(37.4774 37.904)">
<stop stop-color="#303B54"/>
<stop offset="1" stop-color="#181D2A"/>
</radialGradient>
<radialGradient id="paint12_radial_499_125225" cx="0" cy="0" r="1" gradientUnits="userSpaceOnUse" gradientTransform="translate(-93.8361 372.34) scale(157.652 159.447)">
<stop stop-color="#313D50"/>
<stop offset="1" stop-color="#192033"/>
</radialGradient>
<radialGradient id="paint13_radial_499_125225" cx="0" cy="0" r="1" gradientUnits="userSpaceOnUse" gradientTransform="translate(-37.7799 282.822) scale(219.182 221.678)">
<stop stop-color="#677A9E"/>
<stop offset="1" stop-color="#39456F"/>
</radialGradient>
<radialGradient id="paint14_radial_499_125225" cx="0" cy="0" r="1" gradientUnits="userSpaceOnUse" gradientTransform="translate(1.06973 397.693) scale(34.2568 34.6468)">
<stop stop-color="#506283"/>
<stop offset="1" stop-color="#39456F"/>
</radialGradient>
<radialGradient id="paint15_radial_499_125225" cx="0" cy="0" r="1" gradientUnits="userSpaceOnUse" gradientTransform="translate(-34.0361 384.575) scale(206.362 208.711)">
<stop stop-color="#607099"/>
<stop offset="1" stop-color="#495586"/>
</radialGradient>
<radialGradient id="paint16_radial_499_125225" cx="0" cy="0" r="1" gradientUnits="userSpaceOnUse" gradientTransform="translate(0.947397 419.349) scale(42.9661 43.4552)">
<stop stop-color="#20377D"/>
<stop offset="0.21" stop-color="#152554"/>
<stop offset="0.44" stop-color="#0C152F"/>
<stop offset="0.66" stop-color="#050915"/>
<stop offset="0.85" stop-color="#010205"/>
<stop offset="1"/>
</radialGradient>
<clipPath id="clip0_499_125225">
<rect width="27" height="42" fill="white"/>
</clipPath>
<clipPath id="clip1_499_125225">
<rect width="27" height="348" fill="white" transform="translate(0 42)"/>
</clipPath>
<clipPath id="clip2_499_125225">
<rect width="27" height="42" fill="white" transform="translate(0 390)"/>
</clipPath>
</defs>
</svg>
