<svg width="303" height="22" viewBox="0 0 303 22" fill="none" xmlns="http://www.w3.org/2000/svg">
<g clip-path="url(#clip0_499_125123)">
<path fill-rule="evenodd" clip-rule="evenodd" d="M-7.57313 11.732C45.3769 9.7052 98.6627 8.91831 151.686 8.91831C204.71 8.91831 257.996 9.7052 310.954 11.732L323.682 3.35288C273.606 1.25929 214.719 0.0527344 151.695 0.0527344C88.6705 0.0527344 29.7744 1.25929 -20.3008 3.35288L-7.57313 11.732Z" fill="url(#paint0_radial_499_125123)"/>
<path fill-rule="evenodd" clip-rule="evenodd" d="M-0.754444 17.3992C49.9924 15.5488 100.854 14.8287 151.699 14.8287C202.544 14.8287 253.406 15.5536 304.152 17.3992L310.967 11.7336C258.017 9.70681 204.731 8.91992 151.699 8.91992C98.6671 8.91992 45.3895 9.70681 -7.56055 11.7336L-0.754444 17.3992Z" fill="url(#paint1_radial_499_125123)"/>
</g>
<defs>
<radialGradient id="paint0_radial_499_125123" cx="0" cy="0" r="1" gradientUnits="userSpaceOnUse" gradientTransform="translate(151.695 -56.2978) scale(202.807 118.09)">
<stop offset="0.72" stop-color="#262E44"/>
<stop offset="0.76" stop-color="#313A51"/>
<stop offset="0.85" stop-color="#46536B"/>
<stop offset="0.94" stop-color="#53627B"/>
<stop offset="1" stop-color="#586881"/>
</radialGradient>
<radialGradient id="paint1_radial_499_125123" cx="0" cy="0" r="1" gradientUnits="userSpaceOnUse" gradientTransform="translate(154 14.4997) scale(260.352 151.597)">
<stop stop-color="#38465E"/>
<stop offset="1" stop-color="#1F263F"/>
</radialGradient>
<clipPath id="clip0_499_125123">
<rect width="303" height="22" fill="white"/>
</clipPath>
</defs>
</svg>
